<?xml version="1.0" encoding="utf-8"?>
<!-- Generator: Adobe Illustrator 27.5.0, SVG Export Plug-In . SVG Version: 6.00 Build 0)  -->
<svg version="1.1" id="_x3C_Layer_x3E_" xmlns="http://www.w3.org/2000/svg" xmlns:xlink="http://www.w3.org/1999/xlink" x="0px"
	 y="0px" viewBox="0 0 2760 1840" style="enable-background:new 0 0 2760 1840;" xml:space="preserve">
<rect style="fill:#FFFFFF;" width="2760" height="1840"/>
<g>
	<g>
		<path style="fill:#DEEBE9;" d="M2645.098,410.697v1014.005c0,162.593-145.046,272.272-320.293,294.404
			c-45.149,5.708-90.574,9.628-138.625,11.979c-11.274,0.562-22.693,1.028-34.302,1.409c-22.655,0.742-45.977,1.18-70.183,1.304
			c-70.192,0.39-147.806-1.732-238.256-5.834c-35.167-1.589-72.286-3.491-111.649-5.651c-75.254-4.148-158.757-9.268-252.747-15.167
			c-32.15-2.017-68.604-3.331-108.243-4.073h-0.009c-18.936-0.351-38.603-0.58-58.851-0.684c-0.01,0-0.01,0-0.019,0
			c-107.776-0.609-232.48,1.979-355.328,5.28c-6.5,0.171-12.988,0.343-19.459,0.523c-88.746,2.455-175.971,5.214-254.565,7.364
			h-0.01c-10.742,0.285-21.323,0.571-31.724,0.848c-11.969,0.294-23.711,0.599-35.195,0.855
			c-39.145,0.923-75.197,1.59-107.054,1.847c-176.893,1.446-320.304-131.812-320.304-294.404V410.697
			c0-162.602,143.715-303.976,320.304-294.414c163.991,8.887,405.188,44.045,656.632,22.512
			c259.893-22.255,722.607-41.599,1031.589-29.972c46.565,1.751,89.641,4.206,127.996,7.46
			C2500.946,131.222,2645.098,248.095,2645.098,410.697z"/>
	</g>
	<g>
		<path style="fill:#BED5DC;" d="M2287.43,1491.334c0,60.853-399.007,110.183-891.206,110.183
			c-492.198,0-891.203-49.33-891.203-110.183c0-60.854,399.005-110.185,891.203-110.185
			C1888.423,1381.149,2287.43,1430.48,2287.43,1491.334z"/>
	</g>
	<g>
		<path style="fill:#42428E;" d="M1951.109,1534.507l-1.004-1.521c0.104-0.068,10.435-6.97,11.859-15.01
			c0.494-2.791-0.162-5.434-1.951-7.854c-1.246-1.685-2.752-2.506-4.598-2.506c-0.029,0-0.06,0-0.089,0.001
			c-8.958,0.126-21.947,18.626-22.077,18.813l-2.362,3.391l0.717-4.07c0.028-0.164,2.831-16.516-2.871-21.4
			c-1.775-1.521-4.307-1.737-7.524-0.64c-3.383,1.154-5.734,3.267-6.988,6.282c-3.74,8.989,3.099,23.211,3.169,23.354l-1.639,0.8
			c-0.298-0.611-7.27-15.099-3.215-24.851c1.464-3.521,4.185-5.979,8.085-7.31c3.871-1.319,6.999-0.991,9.299,0.98
			c4.748,4.067,4.479,14.169,3.942,19.576c4.191-5.423,13.779-16.641,21.438-16.749c2.459-0.049,4.561,1.057,6.179,3.245
			c2.099,2.84,2.866,5.956,2.279,9.261C1962.193,1527.112,1951.561,1534.21,1951.109,1534.507z"/>
	</g>
	<g>
		<path style="fill:#42428E;" d="M1316.513,1577.834l-2.892-0.309c0.206-1.938-0.34-3.531-1.671-4.873
			c-2.676-2.699-8.466-4.355-16.742-4.788c-6.44-0.334-12.104,0.208-12.161,0.213l-0.489-2.859
			c7.626-1.878,28.019-8.415,30.763-16.015c0.591-1.639,0.278-3.245-0.955-4.915c-7.365-9.963-33.76,4.057-43.308,10.299
			l-1.593-2.435c1.496-0.978,36.741-23.796,47.239-9.593c1.83,2.477,2.285,5.044,1.351,7.632
			c-2.348,6.503-13.692,11.63-22.396,14.691c7.232,0.234,16.133,1.462,20.357,5.721
			C1315.974,1572.578,1316.814,1575.012,1316.513,1577.834z"/>
	</g>
	<g>
		<g>
			<path style="fill:#B2C9C6;" d="M693.348,555.975c17.931-4.889,21.712-12.04,19.795-19.068
				c-1.915-7.027-8.802-11.271-26.733-6.384c-32.665,8.905-44.982,25.934-44.982,25.934S660.206,565.008,693.348,555.975z"/>
		</g>
		<g>
			<path style="fill:#B2C9C6;" d="M780.048,639.567c18.548,1.177,24.44-4.366,24.901-11.636c0.461-7.271-4.683-13.514-23.23-14.691
				c-33.787-2.144-50.954,9.983-50.954,9.983S745.768,637.391,780.048,639.567z"/>
		</g>
		<g>
			<g>
				<g>
					<path style="fill:#B2C9C6;" d="M1009.403,853.319l2.232-2.722c-0.418-0.344-42.426-35.207-86.654-103.985
						c-40.805-63.464-91.902-169.61-103.59-314.897l-3.505,0.282c11.749,146.088,63.163,252.829,104.224,316.649
						C966.627,817.842,1008.981,852.971,1009.403,853.319z"/>
				</g>
			</g>
			<g>
				<g>
					<path style="fill:#B2C9C6;" d="M851.237,596.4l0.714-3.445C726.86,567.05,662.452,446.071,661.815,444.853l-3.119,1.626
						C659.34,447.712,724.483,570.15,851.237,596.4z"/>
				</g>
			</g>
			<g>
				<g>
					<path style="fill:#B2C9C6;" d="M847.435,518.625c24.971-25.557,31.048-57.371,31.114-57.737l-3.459-0.632
						c-0.075,0.406-7.901,41.141-42.355,66.529l2.087,2.833C839.482,526.184,843.676,522.473,847.435,518.625z"/>
				</g>
			</g>
			<g>
				<g>
					<path style="fill:#B2C9C6;" d="M956.865,793.687c44.62-57.423,60.344-123.924,46.739-197.657
						c-0.47-2.554-0.915-4.967-0.878-5.519c0,0.007-0.013,0.169-0.121,0.388l-3.162-1.536c-0.453,0.933-0.282,1.967,0.704,7.305
						c13.412,72.706-2.082,138.265-46.059,194.86L956.865,793.687z"/>
				</g>
			</g>
			<g>
				<g>
					<path style="fill:#B2C9C6;" d="M1001.174,694.142l1.718-3.071c-41.683-23.279-68.676-92.615-68.944-93.313l-3.283,1.258
						c0.068,0.178,6.938,17.961,18.963,38.42C960.768,656.393,978.752,681.619,1001.174,694.142z"/>
				</g>
			</g>
			<g>
				<g>
					<path style="fill:#B2C9C6;" d="M809.005,416.328c-0.999,25.044,4.604,32.729,11.883,33.02
						c7.279,0.29,13.477-6.924,14.477-31.968c1.821-45.621-10.479-68.196-10.479-68.196S810.853,370.042,809.005,416.328z"/>
				</g>
			</g>
			<g>
				<g>
					<path style="fill:#B2C9C6;" d="M863.822,459.689c-8.504,23.576-5.479,32.593,1.375,35.064
						c6.853,2.472,14.937-2.538,23.44-26.114c15.49-42.949,10.57-68.182,10.57-68.182S879.54,416.113,863.822,459.689z"/>
				</g>
			</g>
			<g>
				<g>
					<path style="fill:#B2C9C6;" d="M918.437,597.258c5.867,17.635,13.214,21.017,20.127,18.717
						c6.913-2.299,10.771-9.409,4.903-27.043c-10.685-32.127-28.367-43.49-28.367-43.49S907.595,564.664,918.437,597.258z"/>
				</g>
			</g>
			<g>
				<g>
					<path style="fill:#B2C9C6;" d="M782.216,505.197c9.979,15.678,17.93,17.171,24.075,13.259
						c6.145-3.912,8.158-11.746-1.823-27.425c-18.181-28.561-38.094-35.281-38.094-35.281S763.769,476.221,782.216,505.197z"/>
				</g>
			</g>
			<g>
				<g>
					<path style="fill:#B2C9C6;" d="M955.328,714.398c13.985,12.241,22.035,11.44,26.833,5.958
						c4.798-5.481,4.527-13.566-9.457-25.807c-25.476-22.3-46.476-23.153-46.476-23.153S929.482,691.775,955.328,714.398z"/>
				</g>
			</g>
			<g>
				<g>
					<path style="fill:#B2C9C6;" d="M990.251,605.196c1.954,18.482,8.409,23.359,15.652,22.593
						c7.245-0.766,12.536-6.885,10.582-25.367c-3.561-33.668-18.398-48.553-18.398-48.553S986.639,571.037,990.251,605.196z"/>
				</g>
			</g>
			<g>
				<g>
					<path style="fill:#B2C9C6;" d="M643.322,441.824c13.352,21.213,22.319,24.376,28.484,20.495
						c6.165-3.88,7.192-13.335-6.16-34.547c-24.32-38.64-47.237-50.29-47.237-50.29S618.646,402.621,643.322,441.824z"/>
				</g>
			</g>
		</g>
	</g>
	<g>
		<path style="fill:#B2C9C6;" d="M1178.607,1257.079c0,0-340.924-691.876-525.188-592.315
			c-184.263,99.563,331.174,413.001,424.037,617.555L1178.607,1257.079z"/>
	</g>
	<g>
		<g>
			<path style="fill:#9BBCB6;" d="M1003.414,1123.613c0,0-416.043-526.879-585.615-402.17
				c-169.573,124.709,373.89,287.758,489.095,445.192L1003.414,1123.613z"/>
		</g>
		<g>
			<g>
				<path style="fill:#74A1BD;" d="M949.633,1148.155c-77.584-110.173-199.106-202.272-287.387-260.133
					c-95.708-62.726-174.004-99.817-174.784-100.186l2.295-4.869c0.783,0.368,79.421,37.621,175.44,100.553
					c88.674,58.117,210.763,150.667,288.836,261.534L949.633,1148.155z"/>
			</g>
		</g>
	</g>
	<g>
		<g>
			<g>
				<path style="fill:#CFD3A3;" d="M486.178,1210.345c90.827,26.072,66.235,164.549,172.972,145.655
					c106.744-18.955,98.483-26.255,145.961,22.722c0,0,16.735,45.396,58.013,55.503c162.868,39.875,404.391-188.839,241.402-334.572
					c-11.77-10.523-29.593-15.458-49.391-19.924c-107.4-24.151-144.529,23.416-221.516-110.164
					c-77.013-133.617-205.25,42.072-277.602,30.778c-72.35-11.294-135.038-37.387-196.878,35.963
					C297.288,1109.718,395.34,1184.335,486.178,1210.345z"/>
			</g>
		</g>
		<g>
			<g>
				<g>
					<path style="fill:#C4C695;" d="M1040.232,1273.462l3.803-4.914c-2.166-1.677-222.259-168.295-699.416-211.211l-0.558,6.192
						C819.429,1106.285,1038.075,1271.795,1040.232,1273.462z"/>
				</g>
			</g>
			<g>
				<g>
					<path style="fill:#C4C695;" d="M755.151,1069.161c66.803-52.544,80.888-96.845,81.454-98.703l-5.944-1.815
						c-0.134,0.438-14.258,44.432-79.357,95.634L755.151,1069.161z"/>
				</g>
			</g>
			<g>
				<g>
					<path style="fill:#C4C695;" d="M739.79,1135.34c19.78-30.035,21.091-75.126,3.792-130.394
						c-12.955-41.39-31.977-74.436-32.168-74.764l-5.375,3.113c0.745,1.287,74.042,129.563,28.558,198.63L739.79,1135.34z"/>
				</g>
			</g>
			<g>
				<g>
					<path style="fill:#C4C695;" d="M614.73,1116.203c7.918-5.781,12.244-9.592,12.44-9.768l-4.145-4.629
						c-0.905,0.812-92.094,80.977-218.011,68.795l-0.597,6.183C505.88,1186.602,585.227,1137.737,614.73,1116.203z"/>
				</g>
			</g>
			<g>
				<g>
					<path style="fill:#C4C695;" d="M543.231,1255.487c30.926-30.212,41.274-61.767,44.509-82.918
						c3.521-23.022-0.297-38.736-0.459-39.396l-6.032,1.503c0.148,0.604,14.263,61.053-42.362,116.368L543.231,1255.487z"/>
				</g>
			</g>
		</g>
	</g>
	<g style="opacity:0.6;">
		<path style="fill:#B2C9C6;" d="M1567.413,1252.469c0,0,347.951-528.044,487.688-428.245
			c139.736,99.799-311.558,302.175-407.979,459.101L1567.413,1252.469z"/>
	</g>
	<g>
		<g>
			<path style="fill:#CFD3A3;" d="M1754.229,1156.194c0,0,438.351-400.293,568.496-267.233
				c130.146,133.061-367.391,197.66-490.422,318.571L1754.229,1156.194z"/>
		</g>
		<g>
			<g>
				<path style="fill:#C4C695;" d="M1797.649,1185.298c83.448-85.05,202.653-148.046,287.958-185.917
					c92.482-41.057,166.105-62.232,166.838-62.44l-1.306-4.577c-0.735,0.209-74.681,21.477-167.464,62.667
					c-85.684,38.039-205.449,101.349-289.424,186.933L1797.649,1185.298z"/>
			</g>
		</g>
	</g>
	<g>
		<g>
			<g>
				<path style="fill:#B2C9C6;" d="M2142.823,1365.526c-74.148-2.065-88.64,107.381-164.011,67.894
					c-75.363-39.535-90.961-41.61-114.604-17.668c0,0-23.303,29.99-56.587,27.748c-131.327-8.85-257.708-237.337-101.147-307.66
					c11.305-5.078,25.812-4.537,41.686-3.176c86.093,7.439,102.573,51.848,191.901-29.811
					c89.356-81.679,143.572,80.229,200.388,88.964c56.814,8.734,109.914,4.102,138.761,73.669
					C2308.049,1335.103,2216.965,1367.641,2142.823,1365.526z"/>
			</g>
		</g>
		<g style="opacity:0.5;">
			<g>
				<g>
					<path style="fill:#74A1BD;" d="M1713.295,1281.153l-1.678-4.581c2.018-0.74,206.264-73.126,573.461,8.098l-1.055,4.765
						C1918.204,1208.518,1715.304,1280.418,1713.295,1281.153z"/>
				</g>
			</g>
			<g>
				<g>
					<path style="fill:#74A1BD;" d="M1975.114,1196.009c-37.502-55.18-37.517-91.67-37.5-93.194l4.879,0.053
						c-0.004,0.359,0.114,36.63,36.659,90.4L1975.114,1196.009z"/>
				</g>
			</g>
			<g>
				<g>
					<path style="fill:#74A1BD;" d="M1970.889,1249.172c-7.666-27.171,2.063-61.219,28.133-98.46
						c19.523-27.891,41.605-48.098,41.826-48.297l3.281,3.606c-0.863,0.786-86.172,79.352-68.544,141.829L1970.889,1249.172z"/>
				</g>
			</g>
			<g>
				<g>
					<path style="fill:#74A1BD;" d="M2069.002,1264.557c-4.552-6.205-6.883-10.084-6.988-10.263l4.201-2.478
						c0.483,0.821,49.67,82.459,146.773,103.252l-1.022,4.768C2133.722,1343.082,2085.961,1287.677,2069.002,1264.557z"/>
				</g>
			</g>
			<g>
				<g>
					<path style="fill:#74A1BD;" d="M2089.414,1385.75c-15.962-29.949-16.21-56.017-13.606-72.609
						c2.835-18.062,9.423-28.912,9.7-29.367l4.157,2.558c-0.255,0.417-25.172,42.291,4.056,97.127L2089.414,1385.75z"/>
				</g>
			</g>
		</g>
	</g>
	<g>
		<g>
			<g>
				<path style="fill:#F7B686;" d="M1398.607,768.597c0,0,81.337,42.902,121.758,132.511
					c37.547,83.234-117.814,44.951-117.814,44.951l-40.915-56.197L1398.607,768.597z"/>
			</g>
			<g>
				<path style="fill:#2F1A31;" d="M1731.166,1378.604c0,0-1.445,49.041,30.938,64.663c32.385,15.622,127.721,33.328,90.124,62.856
					c-21.572,16.942-117.956-0.024-145.346-1.52c-27.394-1.496-53.763,9.039-73.118-10.406
					c-21.293-21.391,6.58-120.551,6.58-120.551s22.966,13.604,44.253,14.211C1715.274,1388.733,1731.166,1378.604,1731.166,1378.604
					z"/>
			</g>
			<g>
				<path style="fill:#436E8E;" d="M1174.321,1187.879c0,0,119.222-301.996,391.605-304.452
					c130.422-1.176,208.023,311.54,206.337,478.551c-0.3,29.573-17.748,53.368-47.324,53.368h-98.097
					c-17.962,0-35.469,0.154-57.182-23.292c-16.026-17.306-23.163-26.983-23.163-26.983s1.068,136.887-172.538,137.034
					C1215.23,1502.239,1085.416,1435.453,1174.321,1187.879z"/>
			</g>
			<g>
				<path style="fill:#2F1A31;" d="M1578.845,1378.604c0,0-1.445,49.041,30.938,64.663c32.385,15.622,127.721,33.328,90.124,62.856
					c-21.572,16.942-117.955-0.024-145.346-1.52c-27.395-1.496-53.763,9.039-73.118-10.406
					c-21.293-21.391,6.58-120.551,6.58-120.551s22.966,13.604,44.253,14.211C1562.952,1388.733,1578.845,1378.604,1578.845,1378.604
					z"/>
			</g>
			<g>
				<path style="fill:#2F1A31;" d="M1022.038,1351.639c2.302,19.04,109.958,16.727,241.769,0.043
					c131.812-16.685,234.41-45.239,232.109-64.278c-2.303-19.04-108.634-21.353-240.445-4.669
					C1123.66,1299.418,1019.735,1332.6,1022.038,1351.639z"/>
			</g>
			<g>
				<path style="fill:#96A7E2;" d="M1066.047,831.183c0,0,37.443-105.345,170.824-100.554
					c133.38,4.793,234.092,180.066,259.045,556.774c0,0-234.903-0.667-490.76,111.063
					C1005.156,1398.466,836.152,1172.814,1066.047,831.183z"/>
			</g>
			<g>
				<path style="fill:#96A7E2;" d="M985.346,800.321l81.525,85.001c0,0,306.804,50.065,346.735-1.896
					c38.24-49.761,32.817-97.578,32.817-97.578s-110.42-69.838-266.686-55.378C1046.601,742.791,985.346,800.321,985.346,800.321z"
					/>
			</g>
			<g>
				<path style="fill:#2F1A31;" d="M1331.469,630.84c0,0-9.221,15.6,10.024,49.96c16.193,28.912-13.705,53.692-36.054,39.803
					c-22.349-13.89-35.523,15.217-63.67-5.665C1213.622,694.058,1331.469,630.84,1331.469,630.84z"/>
			</g>
			<g>
				<path style="fill:#F7B686;" d="M1172.748,731.166c12.699-2.666,28.157-8.457,35.027-19.89l21.527-35.826l6.245-10.399
					l36.731-61.14l-13.945,66.624l-8.377,39.988c0,0-3.793,14.889,14.269,19.851c0,0-0.376,52.841-32.447,50.127
					C1185.295,776.57,1172.679,731.181,1172.748,731.166z"/>
			</g>
			<g>
				<path style="fill:#DD9666;" d="M1229.383,674.327c-0.039,0.372-0.065,0.746-0.081,1.123
					c-1.33,21.904,20.499,35.175,20.499,35.175l0.156-0.102l8.377-39.988c-6.742-3.559-16.482-7.595-22.786-5.483
					C1232.252,666.153,1229.898,668.934,1229.383,674.327z"/>
			</g>
			<g>
				<path style="fill:#F7B686;" d="M1337.09,623.634c5.825-43.07-17.752-81.813-52.664-86.535
					c-34.91-4.723-67.935,26.365-73.76,69.437c-5.825,43.07,17.753,81.813,52.665,86.536
					C1298.241,697.793,1331.265,666.704,1337.09,623.634z"/>
			</g>
			<g>
				<g>
					<path style="fill:#060633;" d="M1273.565,615.243c0.437-0.058,0.842-0.313,1.075-0.725c0.395-0.696,0.151-1.579-0.545-1.976
						c-0.409-0.233-9.414-6.519-19.174,1.633c-0.616,0.514-0.727,1.415-0.225,2.041c0.502,0.624,1.32,0.578,2.041,0.223
						c7.203-3.545,15.584-1.562,15.926-1.371C1272.949,615.229,1273.265,615.282,1273.565,615.243z"/>
				</g>
			</g>
			<g>
				<g>
					<path style="fill:#060633;" d="M1259.639,631.258c-0.439,0.046-0.852,0.288-1.096,0.693c-0.413,0.686-0.197,1.575,0.488,1.99
						c0.403,0.244,9.225,6.783,19.214-1.088c0.629-0.495,0.765-1.393,0.282-2.033c-0.483-0.639-1.304-0.616-2.034-0.282
						c-7.301,3.34-15.622,1.12-15.958,0.919C1260.255,631.289,1259.94,631.226,1259.639,631.258z"/>
				</g>
			</g>
			<g>
				<g>
					<path style="fill:#060633;" d="M1308.192,633.813c-0.351-0.268-0.816-0.373-1.273-0.244c-0.77,0.215-1.222,1.012-1.008,1.783
						c0.127,0.454,2.07,11.262,14.738,12.374c0.799,0.07,1.513-0.49,1.599-1.287c0.086-0.797-0.526-1.342-1.288-1.599
						c-7.605-2.571-12.144-9.891-12.251-10.268C1308.62,634.259,1308.434,633.999,1308.192,633.813z"/>
				</g>
			</g>
			<g>
				<g>
					<path style="fill:#060633;" d="M1329.966,630.349c0.417,0.144,0.894,0.098,1.286-0.168c0.664-0.447,0.842-1.346,0.396-2.01
						c-0.264-0.392-5.509-10.04-17.883-7.111c-0.781,0.185-1.282,0.941-1.112,1.726c0.169,0.782,0.922,1.107,1.725,1.112
						c8.028,0.049,14.64,5.567,14.859,5.892C1329.421,630.06,1329.68,630.249,1329.966,630.349z"/>
				</g>
			</g>
			<g>
				<path style="fill:#2F1A31;" d="M1309.355,554.864c0,0-5.021,26.874-39.438,26.916c-34.414,0.043-59.653,11.189-58.408,36.146
					c1.246,24.957,48.885,82.823,6.207,96.97c-42.678,14.148-29.225-21.175-73.769-18.589c-44.543,2.588-44.53-56.424-10.101-86.015
					c34.431-29.592,34.366-120.227,145.893-101.125c111.525,19.102,58.377,102.955,58.377,102.955
					S1305.246,584.736,1309.355,554.864z"/>
			</g>
			<g>
				<path style="fill:#F7B686;" d="M1207.107,620.328c6.235,7.806,16.153,9.86,22.151,4.589c5.997-5.271,5.805-15.87-0.431-23.676
					c-6.235-7.806-16.153-9.859-22.151-4.589C1200.679,601.923,1200.871,612.523,1207.107,620.328z"/>
			</g>
			<g>
				<path style="fill:#2F1A31;" d="M1293.288,674.303c-0.354,0-0.708-0.138-0.974-0.411c-11.832-12.127-28.022-6.712-28.184-6.656
					c-0.71,0.248-1.486-0.129-1.732-0.841c-0.246-0.71,0.131-1.485,0.841-1.73c0.179-0.063,17.997-6.023,31.022,7.327
					c0.525,0.538,0.516,1.399-0.023,1.925C1293.975,674.173,1293.632,674.303,1293.288,674.303z"/>
			</g>
			<g>
				<path style="fill:#060633;" d="M1117.189,907.413c-9.5,11.695-46.717-2.794-83.125-32.367
					c-36.407-29.572-58.22-63.027-48.719-74.725c9.501-11.698,46.719,2.794,83.126,32.366
					C1104.879,862.259,1126.691,895.715,1117.189,907.413z"/>
			</g>
			<g>
				<path style="fill:#436E8E;" d="M1022,1187.879c0,0,119.223-301.996,391.606-304.452
					c130.421-1.176,208.022,311.54,206.336,478.551c-0.3,29.573-17.748,53.368-47.323,53.368h-98.098
					c-17.962,0-35.469,0.154-57.183-23.292c-16.026-17.306-23.161-26.983-23.161-26.983s1.068,136.887-172.539,137.034
					C1062.909,1502.239,933.094,1435.453,1022,1187.879z"/>
			</g>
			<g>
				
					<path style="fill:none;stroke:#2F1A31;stroke-width:4.4365;stroke-linecap:round;stroke-linejoin:round;stroke-miterlimit:10;" d="
					M1934.814,1366.723"/>
			</g>
			<g>
				<path style="fill:#2F1A31;" d="M1409.699,1387.001c-0.624,0-1.245-0.263-1.684-0.772
					c-25.878-30.127-45.865-65.752-59.405-105.886c-10.819-32.071-17.568-67.075-20.058-104.041
					c-4.238-62.915,5.489-110.416,5.588-110.889c0.251-1.199,1.427-1.964,2.625-1.718c1.199,0.251,1.969,1.426,1.718,2.625
					c-0.097,0.467-9.712,47.479-5.495,109.814c2.473,36.564,9.151,71.173,19.852,102.863
					c13.354,39.562,33.052,74.666,58.542,104.339c0.798,0.929,0.691,2.329-0.237,3.128
					C1410.726,1386.824,1410.212,1387.001,1409.699,1387.001z"/>
			</g>
			<g>
				<path style="fill:#2F1A31;" d="M1329.691,1149.893c-0.235,0-0.476-0.037-0.712-0.117c-20.196-6.837-48.167-19.594-66.713-41.547
					c-11.239-13.304-13.672-23.639-13.771-24.071c-0.27-1.195,0.479-2.383,1.674-2.653c1.193-0.271,2.38,0.478,2.652,1.67
					c0.031,0.135,2.412,9.952,13.058,22.455c17.897,21.021,44.967,33.324,64.522,39.943c1.16,0.394,1.783,1.652,1.39,2.813
					C1331.479,1149.311,1330.616,1149.893,1329.691,1149.893z"/>
			</g>
			<g>
				<path style="fill:#2F1A31;" d="M1590.987,1411.168c-0.896,0-1.741-0.549-2.076-1.438c-0.432-1.146,0.148-2.426,1.295-2.858
					c34.597-13.028,30.888-39.546,28.18-58.909c-0.315-2.259-0.613-4.392-0.824-6.36c-9.578-89.46-23.526-168.188-41.457-233.994
					c-14.344-52.645-31.251-97.18-50.254-132.369c-32.312-59.835-59.817-71.969-60.091-72.085c-1.127-0.475-1.66-1.771-1.188-2.9
					c0.47-1.127,1.759-1.664,2.892-1.194c1.161,0.48,28.838,12.482,61.845,73.248c19.247,35.436,36.358,80.294,50.857,133.328
					c18.099,66.202,32.164,145.434,41.807,235.494c0.203,1.897,0.497,3.996,0.808,6.218c2.583,18.476,6.908,49.397-31.012,63.678
					C1591.512,1411.122,1591.248,1411.168,1590.987,1411.168z"/>
			</g>
			<g>
				<g>
					<g>
						<path style="fill:#F7B686;" d="M1223.01,911.412c0,0,45.44-52.93,86.268-53.669c40.827-0.74,93.537,29.182,68.327,35.015
							c-25.21,5.832-59.48,4.386-59.48,4.386s73.073,6.533,64.145,22.961c-8.929,16.428-72.427,10.134-72.427,10.134
							s86.335,14.701,72.875,27.49c-13.459,12.787-78.965,1.155-78.965,1.155s79.778,16.887,63.796,31.375
							c-15.982,14.487-65.838-14.383-74.767,2.044c-8.93,16.428-49.951,78.661-98.645,59.418L1223.01,911.412z"/>
					</g>
				</g>
				<g>
					<path style="fill:#E08B65;" d="M1288.155,903.657c-0.789,0-1.575-0.319-2.146-0.95c-1.075-1.186-0.986-3.017,0.199-4.094
						c10.487-9.513,31.701-4.502,32.6-4.285c1.554,0.377,2.509,1.944,2.132,3.499c-0.377,1.555-1.939,2.508-3.498,2.133l0,0
						c-0.189-0.046-19.129-4.504-27.34,2.946C1289.547,903.409,1288.85,903.657,1288.155,903.657z"/>
				</g>
				<g>
					<path style="fill:#E08B65;" d="M1274.06,937.454c-0.986,0-1.947-0.503-2.489-1.411c-0.82-1.374-0.372-3.153,1.002-3.975
						c16.797-10.032,37.148-4.858,38.006-4.632c1.547,0.406,2.473,1.99,2.066,3.538c-0.406,1.546-1.986,2.468-3.537,2.067
						c-0.283-0.073-18.929-4.74-33.564,4.002C1275.078,937.322,1274.565,937.454,1274.06,937.454z"/>
				</g>
			</g>
			<g>
				<g>
					<path style="fill:#F7B686;" d="M983.545,1131.9c-41.771-18.188-63.872-63.529-65.874-106.439
						c-2.578-55.249,4.012-97.504,37.158-155.51c21.409-37.468,32.685-54.194,36.207-55.855c19.216-9.064,49.021,7.921,60.104,15.44
						c15.551,10.552,50.466,39.129,37.446,63.464c-0.131,0.246-5.931,15.158-21.724,43.206
						c-18.591,33.018-20.731,58.481-14.059,65.432c8.873,9.243,51.646,5.063,92.222-22.858
						c42.896-29.518,76.281-66.423,76.612-66.792l71.144,80.315c-1.712,1.915-24.253,41.638-72.18,89.193
						C1184.497,1117.318,1071.289,1170.104,983.545,1131.9z"/>
				</g>
			</g>
			<g>
				<path style="fill:#96A7E2;" d="M1340.745,645.426c0,0,12.86-13.96,24.866-8.137c12.007,5.823,7.689,19.047,0.44,18.845
					C1358.802,655.932,1360.229,642.606,1340.745,645.426z"/>
			</g>
			<g>
				<path style="fill:#96A7E2;" d="M1250.305,635.435c1.952-1.465,0.917-4.579-1.521-4.593
					c-14.828-0.084-47.029,2.784-57.785,28.156c-14.152,33.376,18.318,52.71,32.788,39.334
					C1237.546,685.612,1214.039,662.649,1250.305,635.435z"/>
			</g>
			<g>
				<path style="fill:#96A7E2;" d="M1246.974,625.542c0.545,0.303,1.163-0.264,0.912-0.833c-1.524-3.464-5.546-10.667-12.577-10.531
					c-9.25,0.178-10.373,9.757-5.75,11.735C1233.954,627.794,1236.857,619.926,1246.974,625.542z"/>
			</g>
			<g>
				<path style="fill:#96A7E2;" d="M1326.766,649.109c-0.834-1.955,1.271-3.858,3.118-2.809
					c10.028,5.699,29.114,19.316,26.87,39.478c-3.028,27.2-31.549,27.917-36.126,13.763
					C1316.312,686.194,1339.845,679.769,1326.766,649.109z"/>
			</g>
			<g>
				<path style="fill:#FFFFFF;" d="M1178.606,648.194c-0.236,0-0.438-0.182-0.458-0.423c-0.021-0.253,0.167-0.476,0.42-0.498
					c0.119-0.01,11.944-1.121,15.243-10.702c3.427-9.956-2.22-17.244-6.343-22.565c-0.71-0.916-1.38-1.782-1.951-2.591
					c-10.736-15.246-10.669-32.7,0.183-46.689c11.114-14.329,34.141-24.31,60.529-14.307c21.089,7.994,36.649,5.473,45.989,1.951
					c10.096-3.807,15.269-9.545,15.318-9.603c0.169-0.191,0.46-0.207,0.65-0.039c0.191,0.169,0.208,0.46,0.04,0.65
					c-0.158,0.177-12.116,13.239-35.321,13.241c-7.754,0-16.758-1.458-27.002-5.34c-25.95-9.835-48.569-0.051-59.477,14.01
					c-10.591,13.652-10.648,30.697-0.157,45.596c0.559,0.791,1.222,1.648,1.926,2.556c4.251,5.487,10.075,13.003,6.485,23.43
					c-3.495,10.155-15.911,11.31-16.036,11.321C1178.633,648.193,1178.62,648.194,1178.606,648.194z"/>
			</g>
		</g>
		<g>
			<path style="fill:#2F1A31;" d="M1287.432,1496.261c-0.942,0-1.816-0.605-2.115-1.553c-0.368-1.168,0.28-2.413,1.448-2.782
				c0.51-0.161,51.383-16.62,85.844-61.985c0.741-0.975,2.134-1.163,3.108-0.424c0.976,0.741,1.166,2.133,0.425,3.108
				c-35.342,46.523-87.52,63.368-88.044,63.532C1287.876,1496.228,1287.651,1496.261,1287.432,1496.261z"/>
		</g>
	</g>
	<g>
		<g>
			<path style="fill:#42428E;" d="M1937.924,470.411c-0.158,0-0.324-0.035-0.496-0.105c-2.32-0.938-0.436-6.582-0.354-6.821
				l0.39,0.133c-0.518,1.531-1.509,5.648,0.119,6.307c0.273,0.109,0.503,0.097,0.709-0.043c0.945-0.645,1.121-3.675,1.109-4.787
				l0.41-0.035c0.004,0.032,0.499,3.134,1.649,3.806c0.231,0.136,0.469,0.153,0.729,0.058l0.144,0.386
				c-0.375,0.141-0.738,0.111-1.08-0.088c-0.734-0.429-1.217-1.606-1.505-2.591c-0.112,1.303-0.415,3.04-1.225,3.593
				C1938.338,470.349,1938.139,470.411,1937.924,470.411z"/>
		</g>
		<g>
			<path style="fill:#42428E;" d="M1904.332,390.363c-0.188-0.17-4.564-4.201-2.987-6.143c0.275-0.339,0.614-0.49,1-0.456
				c0.976,0.092,2.079,1.467,2.809,2.554c-0.224-1-0.37-2.266,0.064-2.996c0.201-0.338,0.506-0.54,0.903-0.598l0.06,0.408
				c-0.273,0.04-0.472,0.172-0.609,0.402c-0.565,0.95,0.094,3.302,0.395,4.128l-0.374,0.168c-0.527-0.98-2.146-3.547-3.287-3.655
				c-0.24-0.023-0.454,0.077-0.641,0.304c-1.106,1.364,1.751,4.49,2.946,5.58L1904.332,390.363z"/>
		</g>
		<g>
			<path style="fill:#F7B686;" d="M1873.479,582.468c0,0,125.291,60.184,172.893,21.721c24.976-20.181,30.988-40.849,39.031-51.038
				c52.058-65.936,142.156-64.792,162.887-77.444c28.209-17.215,66.679-204.763,66.679-204.763l-109.42-142.28
				c0,0-80.236,55.967-137.693,77.585c-21.002,7.902-42.617,47.843-77.771,41.05c-107.596-20.793-163.676,4.893-224.281,34.145
				c-26.831,12.95-63.02,25.116-123.919,40.56c-29.311,7.433-117.291,12.894-120.617,47.972
				c-4.474,47.172,117.092,43.084,149.87,36.026C1891.014,358.652,1873.479,582.468,1873.479,582.468z"/>
		</g>
		<g>
			<g>
				<path style="fill:#E28569;" d="M2645.098,410.697v46.766c-123.19,23.798-484.408,99.879-495.902,68.917
					c-1.96-5.271-3.283-11.751-4.272-19.22c-5.604-41.8-1.18-114.542-42.532-179.729c-28.878-45.52-45.529-84.542-49.963-111.031
					c-3.036-18.221-0.305-30.515,8.221-34.939c6.821-3.53,64.483-34.558,136.16-72.637c46.565,1.751,89.641,4.206,127.996,7.46
					C2500.946,131.222,2645.098,248.095,2645.098,410.697z"/>
			</g>
			<g>
				<path style="fill:#AD6250;" d="M2222.457,486.273c-6.59,1.698-15.188-2.602-17.662-8.94c-3.229-8.274,0.854-16.237,7.445-17.936
					c7.715-1.988,16.768,2.919,18.822,10.892C2232.761,476.879,2229.047,484.576,2222.457,486.273z"/>
			</g>
		</g>
		<g>
			<path style="fill:#F7B686;" d="M1686.114,395.652c7.317,2.553,25.403,17.308-6.206,26.413
				c-75.979,21.884-237.132,99.605-228.423,128.763c12.991,43.494,99.086,9.281,187.901-26.001
				c17.881-7.104,37.037-9.659,27.297,0.095c-22.32,22.353-235.597,83.559-221.17,131.595
				c17.404,57.953,246.661-72.042,254.699-63.359c11.59,12.519-186.527,90.259-168.105,128.71
				c22.293,46.533,215.16-81.826,220.698-63.233c5.538,18.592-143.254,80.351-91.362,115.933
				c18.986,13.018,129.057-68.349,234.742-98.454c35.682-10.163,75.077-23.661,104.777-39.771
				c104.912-56.9,102.273-149.967,102.273-149.967s-225.075-140.533-303.726-147.406
				C1720.86,332.097,1640.589,379.775,1686.114,395.652z"/>
		</g>
		<g>
			<g>
				<path style="fill:#EA9F75;" d="M2098.226,500.068c0.035,0.285,0.045,0.577,0.028,0.873
					c-2.43,43.174-17.755,69.428-30.184,83.849c-13.694,15.891-26.902,21.354-27.458,21.578c-2.498,1.011-5.341-0.194-6.351-2.691
					c-1.011-2.491,0.189-5.328,2.676-6.344l0,0c0.119-0.048,11.949-5.042,24.134-19.365c11.274-13.254,25.187-37.472,27.444-77.574
					c0.15-2.688,2.453-4.746,5.143-4.595C2096.051,495.933,2097.943,497.771,2098.226,500.068z"/>
			</g>
		</g>
		<g>
			<path style="fill:#EA9F75;" d="M1884.357,430.696c-22.236,0-40.693-7.953-61.552-16.94c-5.464-2.353-11.112-4.787-17.021-7.153
				c-44.246-17.706-74.321-7.178-74.62-7.069c-1.944,0.707-4.097-0.293-4.808-2.235c-0.71-1.942,0.28-4.091,2.222-4.807
				c1.319-0.487,32.883-11.706,79.993,7.146c6.001,2.401,11.695,4.855,17.204,7.228c18.587,8.009,34.64,14.926,53.234,16.072
				c20.425,1.259,42.082-4.796,68.155-19.054c1.818-0.993,4.098-0.326,5.091,1.492c0.994,1.817,0.326,4.097-1.492,5.091
				C1923.717,425.258,1902.745,430.696,1884.357,430.696z"/>
		</g>
		<g>
			<path style="fill:#EA9F75;" d="M1891.838,542.489c-1.153,0-2.291-0.53-3.025-1.531c-47.949-65.3-154.777-98.702-155.852-99.032
				c-1.98-0.608-3.092-2.707-2.484-4.688c0.607-1.98,2.704-3.096,4.687-2.484c0.274,0.084,27.812,8.61,60.994,25.271
				c30.736,15.434,72.811,41.23,98.701,76.493c1.227,1.669,0.867,4.017-0.803,5.243
				C1893.387,542.253,1892.609,542.489,1891.838,542.489z"/>
		</g>
	</g>
	<g>
		<path style="fill:#B2C9C6;" d="M2327.043,1139.25c29.337,7.365,35.723,18.876,32.837,30.375
			c-2.887,11.499-13.952,18.63-43.289,11.266c-53.442-13.414-74.045-40.718-74.045-40.718S2272.822,1125.641,2327.043,1139.25z"/>
	</g>
	<g>
		<path style="fill:#B2C9C6;" d="M2264.342,1060.57c24.18-14.992,36.137-11.77,42.012-2.292c5.876,9.477,3.447,21.619-20.732,36.611
			c-44.047,27.311-75.975,23.351-75.975,23.351S2219.652,1088.279,2264.342,1060.57z"/>
	</g>
	<g>
		<path style="fill:#B2C9C6;" d="M1719.903,866.852c4.581-26.05,17.256-31.809,31.209-29.356
			c13.953,2.455,23.902,12.193,19.32,38.243c-8.345,47.455-37.644,65.946-37.644,65.946S1711.436,914.999,1719.903,866.852z"/>
	</g>
	<g>
		<g>
			<path style="fill:#BED5DC;" d="M687.14,1468.417c0,0-53.153-54.191-34.865-85.054c18.291-30.864,49.153,66.299,49.153,66.299
				s-16.003-114.892,17.148-116.887c33.149-1.995,0,116.887,0,116.887s12.287-27.72,24.291-29.435
				c12.002-1.714,8.572,23.506-12.86,48.189"/>
		</g>
		<g>
			<path style="fill:#42428E;" d="M690.945,1469.779c-0.151-0.155-15.36-15.742-27.807-35.432
				c-16.984-26.867-21.029-48.197-12.023-63.395c3.362-5.672,7.398-8.283,12-7.758c9.169,1.048,19.938,15.525,32.008,43.03
				c3.698,8.427,6.97,16.849,9.528,23.802c-0.934-9.693-1.924-22.509-2.289-36.003c-1.023-37.96,3.175-62.966,12.474-74.323
				c3.596-4.391,7.982-6.771,13.037-7.076c4.925-0.304,8.97,1.469,12.021,5.245c14.888,18.428,1.431,83.536-5.962,113.999
				c5.514-8.935,13.34-18.894,21.334-20.035c3.777-0.542,6.795,0.871,8.485,3.976c4.824,8.856-1.834,31.433-21.328,53.882
				l-2.937-2.549c19.165-22.072,24.423-42.913,20.85-49.472c-0.908-1.667-2.344-2.299-4.519-1.986
				c-10.294,1.471-22.294,23.777-26.05,32.248l-3.651-1.31c0.074-0.262,7.339-26.452,12.215-55.124
				c6.376-37.493,5.87-62.108-1.462-71.185c-2.246-2.78-5.107-4.031-8.762-3.807c-3.983,0.24-7.339,2.09-10.261,5.658
				c-20.91,25.535-7.516,123.722-7.378,124.71l-3.78,0.857c-6.935-21.833-28.365-78.887-44.015-80.673
				c-2.982-0.347-5.666,1.582-8.21,5.876c-19.755,33.336,38.667,93.515,39.26,94.118L690.945,1469.779z"/>
		</g>
	</g>
	<g>
		<g>
			<path style="fill:#BED5DC;" d="M956.232,1539.332c0,0-25.719-26.221-16.869-41.153c8.849-14.934,23.781,32.079,23.781,32.079
				s-7.742-55.59,8.297-56.557c16.039-0.965,0,56.557,0,56.557s5.945-13.413,11.753-14.242c5.808-0.829,4.148,11.373-6.223,23.316"
				/>
		</g>
		<g>
			<path style="fill:#42428E;" d="M958.073,1539.99c-0.073-0.074-7.433-7.616-13.454-17.144
				c-8.217-12.999-10.175-23.318-5.817-30.672c1.627-2.745,3.585-3.998,5.805-3.754c7.537,0.86,15.792,20.47,20.065,32.152
				c-1.414-14.594-3.026-43.442,4.962-53.197c1.74-2.125,3.862-3.276,6.308-3.423c2.384-0.152,4.339,0.709,5.816,2.537
				c7.202,8.917,0.691,40.419-2.886,55.158c2.668-4.323,6.454-9.142,10.323-9.695c1.831-0.258,3.288,0.423,4.106,1.925
				c2.334,4.284-0.888,15.208-10.319,26.071l-1.422-1.234c9.273-10.68,11.817-20.764,10.088-23.937
				c-0.438-0.806-1.13-1.116-2.186-0.962c-4.979,0.712-10.786,11.505-12.604,15.604l-1.767-0.633
				c0.035-0.127,3.551-12.799,5.91-26.672c3.085-18.141,2.84-30.052-0.708-34.442c-1.087-1.346-2.476-1.937-4.238-1.843
				c-1.929,0.117-3.551,1.012-4.965,2.738c-10.114,12.353-3.637,59.862-3.57,60.342l-1.828,0.414
				c-3.356-10.564-13.725-38.169-21.297-39.033c-1.44-0.165-2.741,0.765-3.973,2.843c-9.558,16.13,18.709,45.246,18.995,45.539
				L958.073,1539.99z"/>
		</g>
	</g>
	<g>
		<g>
			<path style="fill:#BED5DC;" d="M2165.678,1472.678c0,0-30.68-31.277-20.123-49.092c10.557-17.813,28.37,38.268,28.37,38.268
				s-9.236-66.313,9.896-67.465c19.133-1.152,0,67.465,0,67.465s7.093-16,14.021-16.99s4.947,13.566-7.422,27.814"/>
		</g>
		<g>
			<path style="fill:#42428E;" d="M2167.875,1473.464c-1.445-1.474-35.261-36.331-22.989-57.04c1.941-3.274,4.268-4.789,6.925-4.478
				c5.293,0.604,11.508,8.96,18.475,24.836c2.122,4.835,4.002,9.669,5.475,13.668c-1.69-17.359-3.652-51.938,5.904-63.608
				c2.075-2.534,4.606-3.908,7.523-4.084c2.842-0.179,5.178,0.849,6.938,3.028c8.592,10.636,0.826,48.215-3.441,65.797
				c3.183-5.157,7.699-10.905,12.313-11.564c2.182-0.306,3.922,0.504,4.898,2.295c2.784,5.111-1.059,18.143-12.311,31.1
				l-1.695-1.472c11.062-12.738,14.097-24.768,12.035-28.554c-0.524-0.962-1.355-1.325-2.609-1.146
				c-5.941,0.849-12.867,13.724-15.035,18.612l-2.107-0.756c0.042-0.15,4.235-15.267,7.05-31.815
				c3.68-21.64,3.388-35.848-0.844-41.086c-1.297-1.605-2.966-2.321-5.058-2.197c-2.298,0.139-4.235,1.206-5.922,3.266
				c-12.068,14.738-4.338,71.409-4.259,71.98l-2.182,0.494c-4.003-12.602-16.371-45.531-25.403-46.563
				c-1.737-0.195-3.271,0.913-4.739,3.392c-11.402,19.24,22.318,53.975,22.66,54.323L2167.875,1473.464z"/>
		</g>
	</g>
</g>
</svg>
