<?xml version="1.0" encoding="utf-8"?>
<!-- Generator: Adobe Illustrator 27.5.0, SVG Export Plug-In . SVG Version: 6.00 Build 0)  -->
<svg version="1.1" id="Ñëîé_1" xmlns="http://www.w3.org/2000/svg" xmlns:xlink="http://www.w3.org/1999/xlink" x="0px" y="0px"
	 viewBox="0 0 2600 2000" style="enable-background:new 0 0 2600 2000;" xml:space="preserve">
<rect id="_x36_" style="fill:#FFFFFF;" width="2600" height="2000"/>
<g id="_x35_">
	<path style="fill:#DCE6FF;" d="M402.106,1562.94c-4.27-13.628-8.494-27.75-12.555-41.971l10.01-3.101
		c4.035,14.13,8.232,28.159,12.473,41.696L402.106,1562.94z M2192.798,1545.34l-10.364-1.333
		c1.721-14.507,3.355-29.118,4.857-43.425l10.381,1.183C2196.165,1516.122,2194.525,1530.783,2192.798,1545.34z M378.022,1478.692
		c-3.655-14.055-7.2-28.372-10.536-42.552l10.143-2.589c3.316,14.095,6.84,28.325,10.473,42.296L378.022,1478.692z
		 M2201.948,1458.118l-10.396-1.023c1.321-14.566,2.545-29.218,3.637-43.547l10.409,0.859
		C2204.503,1428.792,2203.275,1443.498,2201.948,1458.118z M357.944,1393.339c-3.016-14.32-5.886-28.798-8.53-43.036l10.253-2.065
		c2.627,14.148,5.48,28.539,8.477,42.769L357.944,1393.339z M2208.596,1370.636l-10.422-0.687
		c0.884-14.555,1.66-29.238,2.304-43.638l10.431,0.507C2210.261,1341.278,2209.484,1356.02,2208.596,1370.636z M341.93,1307.054
		c-2.322-14.495-4.472-29.111-6.39-43.444l10.342-1.501c1.905,14.236,4.041,28.755,6.348,43.155L341.93,1307.054z M2212.503,1282.96
		l-10.439-0.316c0.408-14.62,0.688-29.318,0.835-43.686l10.443,0.115C2213.194,1253.507,2212.912,1268.273,2212.503,1282.96z
		 M330.299,1219.991c-1.557-14.641-2.912-29.365-4.028-43.765l10.409-0.876c1.108,14.293,2.453,28.909,3.998,43.443
		L330.299,1219.991z M2202.942,1195.269c-0.123-14.631-0.39-29.324-0.793-43.672l10.439-0.318
		c0.405,14.422,0.673,29.19,0.797,43.895L2202.942,1195.269z M323.533,1132.347c-0.693-14.727-1.152-29.512-1.365-43.946
		l10.442-0.168c0.211,14.313,0.667,28.976,1.353,43.582L323.533,1132.347z M2200.47,1107.963
		c-0.717-14.612-1.599-29.273-2.62-43.576l10.413-0.807c1.028,14.386,1.914,29.132,2.635,43.827L2200.47,1107.963z
		 M332.709,1044.634l-10.441-0.224c0.291-14.766,0.852-29.556,1.667-43.958l10.425,0.64
		C333.552,1015.357,332.996,1030.006,332.709,1044.634z M2194.228,1020.898c-1.395-14.609-2.975-29.2-4.695-43.369l10.36-1.364
		c1.731,14.264,3.321,28.952,4.726,43.656L2194.228,1020.898z M337.671,957.667l-10.391-1.087c1.419-14.71,3.148-29.413,5.14-43.7
		l10.335,1.564C340.784,928.573,339.074,943.116,337.671,957.667z M2183.687,934.327c-2.173-14.517-4.558-28.979-7.089-42.984
		l10.262-2.013c2.553,14.117,4.957,28.692,7.146,43.322L2183.687,934.327z M948.633,932.792
		c-14.51-2.383-25.006-9.264-39.546-21.146l6.601-8.429c12.737,10.382,21.936,16.61,34.057,18.759L948.633,932.792z
		 M984.865,906.911l-9.3-4.947c4.78-9.751,9.006-23.283,12.561-40.219l10.202,2.323C994.529,882.166,990.125,896.18,984.865,906.911
		z M878.439,880.447c-8.319-9.65-17.209-20.756-27.179-33.954l8.206-6.727c9.828,13.01,18.576,23.94,26.743,33.413L878.439,880.447z
		 M349.73,871.526l-10.252-2.073c2.705-14.519,5.766-28.997,9.098-43.031l10.138,2.612
		C355.424,842.89,352.402,857.186,349.73,871.526z M2168.157,848.641c-3.092-14.367-6.428-28.61-9.915-42.334l10.096-2.783
		c3.52,13.857,6.887,28.236,10.008,42.738L2168.157,848.641z M1005.354,820.288l-10.357-1.388
		c1.604-12.984,3.041-27.203,4.394-43.469l10.404,0.939C1008.429,792.787,1006.976,807.153,1005.354,820.288z M825.684,811.447
		c-8.489-11.942-17.293-24.565-24.88-35.458l8.453-6.388c7.572,10.873,16.358,23.47,24.819,35.372L825.684,811.447z
		 M1590.228,810.552c-8.132,0-16.112-2.531-23.716-7.522l5.568-9.204c11.423,7.511,22.66,7.528,34.794,1.537l4.493,9.819
		C1604.193,808.745,1597.081,810.552,1590.228,810.552z M369.822,787.114l-9.987-3.181c4.149-14.134,8.701-28.191,13.53-41.781
		l9.793,3.776C378.4,759.322,373.913,773.179,369.822,787.114z M1645.515,776.744l-7.673-7.379
		c7.918-8.933,16.406-19.951,25.949-33.687l8.46,6.379C1662.462,756.144,1653.717,767.491,1645.515,776.744z M1536.819,769.264
		c-6.758-10.86-13.455-23.65-20.474-39.098l9.439-4.654c6.819,15.008,13.295,27.384,19.799,37.835L1536.819,769.264z
		 M2146.704,764.447c-4.207-14.094-8.696-27.969-13.342-41.238l9.811-3.728c4.704,13.433,9.247,27.475,13.503,41.737
		L2146.704,764.447z M776.056,740.524c-9.554-13.601-17.517-24.768-25.058-35.141l8.325-6.567
		c7.577,10.422,15.571,21.634,25.161,35.285L776.056,740.524z M1012.936,732.439l-10.421-0.702
		c0.791-12.745,1.597-27.069,2.462-43.792l10.428,0.586C1014.538,705.292,1013.73,719.655,1012.936,732.439z M398.813,705.661
		l-9.554-4.392c5.733-13.525,11.842-26.805,18.333-39.792l9.26,5.029C410.464,679.284,404.454,692.351,398.813,705.661z
		 M1696.175,705.658l-8.726-5.977c7.421-11.752,15.087-24.204,22.846-36.783l8.785,5.881
		C1711.302,681.39,1703.628,693.852,1696.175,705.658z M1499.535,689.571c-4.73-12.359-9.618-25.843-14.943-41.222l9.823-3.691
		c5.286,15.265,10.134,28.638,14.821,40.884L1499.535,689.571z M2118,682.786c-5.614-13.623-11.553-26.856-17.652-39.332
		l9.307-4.936c6.201,12.686,12.237,26.136,17.941,39.976L2118,682.786z M725.214,670.914c-9.476-12.252-18.296-23.157-26.965-33.338
		l7.813-7.218c8.779,10.31,17.704,21.344,27.284,33.732L725.214,670.914z M1017.578,644.649l-10.43-0.548
		c0.704-14.533,1.402-29.073,2.148-43.869l10.429,0.57C1018.979,615.591,1018.28,630.124,1017.578,644.649z M1741.975,632.039
		l-8.712-5.998c8.725-13.752,16.529-25.648,23.858-36.367l8.505,6.31C1758.368,606.599,1750.632,618.392,1741.975,632.039z
		 M437.562,628.969l-8.802-5.854c8.206-13.387,16.667-25.479,25.148-35.937l7.978,7.019
		C453.703,604.288,445.52,615.987,437.562,628.969z M1470.648,606.838c-4.789-14.619-9.488-29.246-13.452-41.627l9.906-3.442
		c3.959,12.363,8.65,26.967,13.43,41.555L1470.648,606.838z M669.537,606.077c-10.673-10.825-21.168-20.387-31.193-28.422
		l6.368-8.621c10.344,8.291,21.147,18.132,32.109,29.249L669.537,606.077z M2080.073,605.612
		c-7.483-12.719-15.329-24.749-23.319-35.755l8.328-6.562c8.196,11.288,16.235,23.613,23.894,36.633L2080.073,605.612z
		 M491.177,564.602l-6.334-8.649c12.471-9.91,25.45-17.056,38.577-21.24l3.056,10.402
		C514.536,548.92,502.66,555.477,491.177,564.602z M1790.813,561.275l-8.113-6.849c9.793-12.588,19.073-23.419,28.37-33.113
		l7.387,7.688C1809.42,538.426,1800.377,548.983,1790.813,561.275z M1022.064,556.997l-10.424-0.647
		c0.904-15.812,1.802-30.171,2.745-43.898l10.416,0.776C1023.861,526.912,1022.966,541.229,1022.064,556.997z M603.819,554.72
		c-13.031-6.755-25.848-11.066-38.095-12.814l1.417-10.778c13.375,1.909,27.281,6.57,41.33,13.853L603.819,554.72z M2029.89,537.136
		c-10.053-10.729-20.464-20.2-30.939-28.148l6.149-8.793c10.947,8.306,21.802,18.178,32.264,29.343L2029.89,537.136z
		 M1443.876,523.586c-5.195-16.185-9.476-29.382-13.473-41.531l9.878-3.526c4.007,12.176,8.296,25.397,13.499,41.608
		L1443.876,523.586z M1849.712,501.233l-5.985-8.913c12.843-9.359,25.815-16.291,38.556-20.602l3.225,10.346
		C1873.752,486.042,1861.708,492.492,1849.712,501.233z M1963.656,487.907c-12.934-5.683-26.026-9.199-38.912-10.453l0.971-10.831
		c13.951,1.358,28.081,5.146,41.999,11.262L1963.656,487.907z M1028.142,469.556l-10.402-0.962
		c1.301-15.263,2.717-30.003,4.208-43.811l10.378,1.216C1030.843,439.724,1029.436,454.378,1028.142,469.556z M1416.509,440.681
		c-5.046-14.672-9.801-28.083-14.538-41l9.756-3.881c4.763,12.988,9.542,26.469,14.613,41.212L1416.509,440.681z M1037.642,382.624
		l-10.336-1.556c2.112-15.23,4.434-29.877,6.901-43.533l10.263,2.011C1042.031,353.052,1039.733,367.545,1037.642,382.624z
		 M1386.457,359.066c-5.611-14.06-11.267-27.512-16.812-39.982l9.476-4.572c5.602,12.6,11.315,26.185,16.979,40.378
		L1386.457,359.066z M1053.338,296.978l-10.132-2.636c3.642-15.19,7.658-29.498,11.935-42.527l9.881,3.519
		C1060.84,268.074,1056.909,282.085,1053.338,296.978z M1351.099,280.044c-6.868-13.475-13.884-26.124-20.853-37.597l8.824-5.816
		c7.109,11.705,14.26,24.595,21.253,38.312L1351.099,280.044z M1080.705,215.48l-9.365-4.814
		c6.857-14.472,14.461-27.269,22.601-38.035l8.203,6.731C1094.454,189.534,1087.241,201.686,1080.705,215.48z M1306.311,207.166
		c-9.125-11.915-18.543-22.471-27.992-31.372l7.005-8.068c9.867,9.295,19.675,20.283,29.151,32.657L1306.311,207.166z
		 M1131.28,151.168l-5.63-9.162c12.371-8.247,26-13.611,40.51-15.939l1.59,10.751
		C1154.688,138.915,1142.417,143.742,1131.28,151.168z M1245.37,151.161c-12.165-6.831-24.836-11.502-37.663-13.881l1.831-10.71
		c13.922,2.583,27.645,7.635,40.788,15.015L1245.37,151.161z"/>
	<path style="fill:#D4E8FF;" d="M601.107,1621.787c0,0-254.337-650.636-71.307-795.517c122.338-96.839,252.01,116.637,406.783,3.704
		c137.791-100.542,93.987-406.434,313.744-448.715c247.078-47.537,301.481,522.993,504.248,445.011
		c246.043-94.626,490.792,97.466,279.284,796.759L601.107,1621.787z"/>
	<path style="fill:#EEF7FF;" d="M2258.979,1397.479c-86.659-13.38-72.518,107.504-196.043,107.504
		c-112.939,0-149.071-460.349-231.244-328.755c-421.267,674.629-176.645-286.898-511.672-299.117
		c-151.49-5.525-252.435,162.739-289.66,460.657c-53.96,269.329-179.1-205.421-307.882-161.28
		c-81.848,28.054-72.474,328.495-185.414,328.495c-123.526,0-109.384-120.884-196.043-107.504
		c-93.302,14.406-121.17,228.368-121.17,228.368h2160.298C2380.149,1625.848,2352.281,1411.885,2258.979,1397.479z"/>
	<path style="fill:#DCE6FF;" d="M2182.237,1528.331c-79.724-5.713-66.714,45.906-180.355,45.906
		c-103.901,0-101.046-115.685-170.576-140.272c-128.042-45.277-233.603,183.875-283.245,68.869
		c-94.283-305.163-369.265-458.2-496.124,0c-49.641,115.007-165.728-90.206-283.244-68.869
		c-72.336,13.134-66.675,140.272-170.576,140.272c-113.641,0-100.631-51.619-180.355-45.906
		c-85.836,6.152-111.474,97.516-111.474,97.516h1987.422C2293.711,1625.848,2268.073,1534.483,2182.237,1528.331z"/>
	<path style="fill:#CFDDF9;" d="M221.458,1625.848c0,0-15.156,57.568,47.633,71.982c85.884,19.714,590.008,71.512,467.539,110.872
		c-69.134,22.219,35.292,52.39,372.027,63.5s914.545-32.421,720.236-96.828c-194.309-64.408,597.358-15.553,549.135-149.525H221.458
		z"/>
</g>
<g id="_x34_">
	<path style="fill:#F99370;" d="M1451.719,834.353c0,0,4.278,13.689,31.631,12.542l5.501-25.444c0,0-7.56-11.096-13.906-18.052
		c-6.346-6.956-21.357,1.953-21.357,1.953S1456.196,828.573,1451.719,834.353z"/>
	<path style="fill:#F99370;" d="M1549.514,1629.509l-77.978-64.051c2.08-5.249,21.403-20.944,26.367-28.515
		c2.356-2.97,27.044-31.646,29.142-34.814l29.092-27.774l34.375,28.235l-54.598,51.719c-6.476,6.135-7.666,15.992-2.879,23.522
		c9.895,17.285,28.381,28.071,28.475,46.903C1560.834,1630.495,1553.995,1633.191,1549.514,1629.509z"/>
	<path style="fill:#1D3F70;" d="M1475.33,1556.006c-1.847,2.897-3.222,6.056-3.797,9.452l78.737,64.675
		c3.828,3.145,9.693,1.654,11.39-2.999c3.941-10.894,3.622-31.665-31.113-63.374c0,0-15.365-6.468-32.648-26.817
		C1497.9,1536.943,1482.803,1544.246,1475.33,1556.006z"/>
	<path style="fill:#395B96;" d="M1561.721,1626.967l-86.39-70.961c-1.847,2.897-3.222,6.056-3.797,9.452l78.737,64.675
		C1554.148,1633.327,1560.121,1631.726,1561.721,1626.967z"/>
	<path style="fill:#5871DB;" d="M1868.847,1654.581H623.66c-5.18,0-9.379-4.199-9.379-9.379v-626.496
		c0-98.267,16.653-193.609,49.497-283.378c31.75-86.777,77.218-164.73,135.141-231.691
		c58.009-67.061,125.592-119.727,200.872-156.537c78.05-38.164,160.971-57.514,246.461-57.514s168.412,19.351,246.461,57.514
		c75.28,36.809,142.863,89.476,200.873,156.537c57.924,66.962,103.392,144.914,135.141,231.691
		c32.845,89.769,49.498,185.111,49.498,283.378v626.496C1878.226,1650.382,1874.026,1654.581,1868.847,1654.581z M633.039,1635.823
		h1226.429v-617.117c0-391.695-275.087-710.362-613.214-710.362c-338.128,0-613.215,318.667-613.215,710.362V1635.823z"/>
	<path style="fill:#5871DB;" d="M1246.252,1654.762c-5.28,0-9.56-4.28-9.56-9.56V298.965c0-5.28,4.28-9.56,9.56-9.56
		s9.56,4.28,9.56,9.56v1346.237C1255.813,1650.481,1251.532,1654.762,1246.252,1654.762z"/>
	<path style="fill:#5871DB;" d="M1006.287,1654.762c-5.28,0-9.56-4.28-9.56-9.56c0-62.446-0.219-122.462-0.431-180.502
		c-1.172-321.372-2.098-575.212,37.191-746.404c37.614-163.898,90.167-270.827,127.631-331.669
		c40.981-66.555,72.903-93.841,74.242-94.97c4.037-3.404,10.068-2.891,13.471,1.145c3.4,4.032,2.893,10.055-1.133,13.461l0,0
		c-0.31,0.264-31.49,27.092-70.981,91.501c-36.492,59.516-87.729,164.179-124.594,324.809
		c-38.796,169.047-37.874,421.915-36.706,742.059c0.211,58.057,0.431,118.091,0.431,180.571
		C1015.847,1650.481,1011.566,1654.762,1006.287,1654.762z"/>
	<path style="fill:#5871DB;" d="M808.018,1654.53c-5.152,0-9.328-4.177-9.328-9.328c0-244.384,0-437.414,12.069-600.976
		c13.022-176.487,39.25-302.544,85.041-408.732c27.961-64.841,63.331-123.328,105.127-173.836
		c33.489-40.47,71.153-75.934,111.947-105.408c69.721-50.373,123.899-65.653,126.171-66.279c4.966-1.368,10.102,1.549,11.47,6.517
		c1.368,4.967-1.55,10.102-6.517,11.47c-0.521,0.145-53.827,15.287-120.958,63.963c-61.903,44.887-148.606,128.333-210.111,270.961
		c-95.584,221.657-95.584,515.5-95.584,1002.32C817.346,1650.354,813.17,1654.53,808.018,1654.53z"/>
	<path style="fill:#5871DB;" d="M1246.253,281.906c-32.337,0-58.646-26.309-58.646-58.646s26.308-58.646,58.646-58.646
		s58.646,26.309,58.646,58.646S1278.59,281.906,1246.253,281.906z M1246.253,183.734c-21.794,0-39.525,17.731-39.525,39.526
		c0,21.795,17.731,39.526,39.525,39.526c21.795,0,39.526-17.731,39.526-39.526C1285.779,201.465,1268.048,183.734,1246.253,183.734z
		"/>
	<path style="fill:#5871DB;" d="M1246.252,310.437c-5.28,0-9.56-4.28-9.56-9.56v-25.664c0-5.28,4.28-9.56,9.56-9.56
		s9.56,4.28,9.56,9.56v25.664C1255.813,306.157,1251.532,310.437,1246.252,310.437z"/>
	<path style="fill:#662948;" d="M1950.122,631.626c0,0,20.023-4.556,35.444,14.645c18.315,22.804,5.533,45.477,13.994,61.605
		c8.462,16.128,19.527,26.56,16.272,45.101c-3.254,18.541,10.089,27.003,7.16,42.299c-2.929,15.296-11.716,16.598-7.485,35.473
		c4.231,18.876-9.113,38.402-26.686,30.266c-17.574-8.136-21.045,18.225-48.6,7.811c-27.554-10.414-32.238-28.314-61.627-27.663
		c-29.389,0.651-26.135-41.006-53.146-50.769s-29.615-33.262-12.692-53.056c16.923-19.794,29.184-26.342,36.124-67.207
		C1856.69,624.141,1914.392,593.229,1950.122,631.626z"/>
	<path style="fill:#F99370;" d="M1920.453,796.342c54.483,46.612,49.248,125.7,54.94,190.441
		c7.568,52.796,27.944,110.404,52.974,158.183c8.592,15.257-4.757,32.24-16.074,19.026
		c-41.407-46.039-81.096-102.499-100.494-162.51c-14.182-46.17-13.443-99.366-41.273-140.159c1.486,1.349,1.381,1.23,3.491,2.746
		C1829.857,833.495,1876.048,766.181,1920.453,796.342z"/>
	<path style="fill:#EB5648;" d="M1907.082,1024.358c73.276,139.369,90.27,122.451,90.27,122.451
		c7.089-12.046,24.756-14.205,24.756-14.205c16.849-19.474-28.648-96.612-38.495-201.188
		c-5.058-53.711-22.997-112.527-60.959-133.757C1925.22,838.609,1888.686,979.5,1907.082,1024.358z"/>
	<path style="fill:#CE3932;" d="M1893.103,1001.017c0.446,0.973,0.884,1.932,1.336,2.882c5.839,7.105,10.337,19.357,15.495,23.624
		c2.255-12.828,9.352-32.529,17.779-44.399c14.652-20.669,25.507-35.687,27.273-49.268c1.769-13.593-5.166-38.659-5.166-38.659
		L1893.103,1001.017z"/>
	<path style="fill:#F99370;" d="M1927.481,784.914l-5.2,12.859c-12.418,20.503-37.589-4.332-40.266-14.371
		c0,0,5.847-11.95,7.847-17.743L1927.481,784.914z"/>
	<path style="fill:#F99370;" d="M1937.02,1653.587l-100.911,0.159c-1.733-5.374,3.198-29.774,2.214-38.774
		c-0.071-3.79-1.304-24.532-1.7-28.311l6.838-57.024l44.484-0.07l-9.245,74.635c-1.097,8.853,4.254,17.217,12.737,19.984
		c18.629,7.047,39.754,3.615,51.803,18.089C1946.383,1647.149,1942.82,1653.578,1937.02,1653.587z"/>
	<path style="fill:#1D3F70;" d="M1833.026,1644.038c0.417,3.411,1.365,6.723,3.081,9.709l101.894-0.161
		c4.954-0.008,8.533-4.888,6.882-9.558c-3.886-10.913-17.342-26.74-64.313-29.121c0,0-15.971,4.779-42.249,0.067
		C1838.321,1614.974,1831.314,1630.212,1833.026,1644.038z"/>
	<path style="fill:#395B96;" d="M1944.824,1643.862l-111.797,0.177c0.417,3.411,1.365,6.723,3.081,9.709l101.894-0.161
		C1943.025,1653.586,1946.616,1648.553,1944.824,1643.862z"/>
	<path style="fill:#E57D61;" d="M1901.477,723.794c-0.164,0.719-0.307,1.456-0.403,2.184c1.143-0.256-5.753,25.447-12.589,43.402
		c13.94,14.114,34.036,17.927,37.749,18.536c9.056-22.593,14.882-44.101,16.512-58.384
		C1944.317,704.911,1906.679,699.719,1901.477,723.794z"/>
	<path style="fill:#F99370;" d="M1878.417,702.965c-1.373,19.004-0.063,41.098,11.54,56.621l0.024,0.006
		c32.252,44.865,124.768,8.875,95.183-45.577c-9.487-14.072-7.371-34.537-14.41-47.969
		C1943.397,614.7,1879.608,653.958,1878.417,702.965z"/>
	<path style="fill:#F9F8F3;" d="M1957.493,741.353l-14.735-8.087C1941.121,742.31,1950.423,748.386,1957.493,741.353z"/>
	<path style="fill:#C16256;" d="M1950.97,708.176c2.427-2.786-2.006-6.533-4.35-3.677
		C1944.193,707.286,1948.626,711.032,1950.97,708.176z"/>
	<path style="fill:#C16256;" d="M1975.199,709.763c2.427-2.786-2.006-6.533-4.35-3.677
		C1968.422,708.872,1972.856,712.619,1975.199,709.763z"/>
	<path style="fill:#C16256;" d="M1957.55,742.004c-0.389,0.144-14.75-8.09-15.107-8.166c-0.316-0.173-0.432-0.571-0.258-0.888
		c-0.021-1.622,15.262,7.993,15.622,7.829C1958.37,741.063,1958.172,741.974,1957.55,742.004z"/>
	<path style="fill:#1D3F70;" d="M1922.984,1559.828c-1.597,11.864-2.667,18.365-2.667,18.365
		c-42.551,14.158-99.413,17.246-137.319,2.791c31.156-108.027,18.47-401.641-3.623-437.844c0,0-77.445,259.485-155.205,404.499
		c-3.288,6.128-6.577,12.036-9.856,17.695c0,0-88.458,1.023-134.001-77.607c0,0,4.828-5.698,12.457-16.032
		c22.886-30.984,71.001-94.136,90.064-180.233c42.465-191.848,91.966-279.235,128.227-312.753
		c50.151-46.346,153.895,9.063,187.345,75.495C1945.153,1201.666,1941.301,1438.867,1922.984,1559.828z"/>
	<path style="fill:#C16256;" d="M1962.324,732.064c-1.71-0.39-5.617-0.634-4.971-2.927c0.307-0.511,0.974-0.673,1.479-0.368
		c3.253,1.956,8.649,1.369,9.703-0.061c0.371-0.504-0.252-1.236-0.841-1.761c-5.182-4.342-8.893-22.677-4.43-17.56
		c0.013,0.119,1.301,11.882,5.864,15.951C1974.065,730.805,1967.172,732.502,1962.324,732.064z"/>
	<path style="fill:#E57D61;" d="M1878.417,702.965c-1.373,19.004-0.063,41.098,11.54,56.621l0.024,0.006
		c-5.667-11.841-5.409-35.282-5.409-35.282l6.127-9.007c68.429-5.502,75.035-57.838,75.035-57.838
		C1932.03,618.792,1879.961,659.065,1878.417,702.965z"/>
	<path style="fill:#662948;" d="M1960.049,651.329c0,0-6.773,51.547-68.556,58.775l-17.761-16.091
		C1863.042,650.23,1912.665,601.402,1960.049,651.329z"/>
	<path style="fill:#F99370;" d="M1864.602,709.468c-0.755,21.682,26.625,22.33,26.891,0.634
		C1892.248,688.422,1864.869,687.773,1864.602,709.468z"/>
	<path style="fill:#C16256;" d="M1870.316,715.349c-3.24-5.538,0.607-14.227,3.232-15.258c4.926-2.309,11.906,1.219,10.86,3.182
		c-1.812,1.767-4.966-3.653-9.802-1.303C1869.732,704.052,1873.202,714.192,1870.316,715.349z"/>
	<path style="fill:#C16256;" d="M1880.456,716.195c-2.117-0.623-1.062-8.604-9.105-11.383c-0.569-0.175-0.889-0.778-0.714-1.347
		C1877.45,700.479,1884.27,717.557,1880.456,716.195z"/>
	<path style="fill:#F4D4BE;" d="M1873.802,721.772c-0.766,3.044,4.033,4.177,4.709,1.112
		C1879.277,719.841,1874.478,718.708,1873.802,721.772z"/>
	<path style="fill:#EB5648;" d="M1907.084,1035.35c0.685,13.91-8.671,18.87-8.669,18.857
		c-67.956,5.175-140.202-36.326-187.356-75.495c-8.852-16.069,1.529-33.18,10.831-47.284
		c42.198-86.492,99.874-164.101,162.835-153.737c0.057,68.849,2.718,146.201,37.928,19.978
		c4.501,17.777,15.658,58.684,22.111,78.139C1974.038,964.927,1903.385,960.134,1907.084,1035.35z"/>
	<path style="fill:#163356;" d="M1624.17,1547.64c-3.288,6.128-6.577,12.036-9.856,17.695c0,0-88.458,1.023-134.001-77.607
		c0,0,4.828-5.698,12.457-16.032C1492.769,1471.696,1532.662,1538.051,1624.17,1547.64z"/>
	<path style="fill:#C16256;" d="M1941.215,698.377c0.447,0.112,0.94-0.014,1.28-0.373c5.574-5.9,11.143-6.011,11.197-6.012
		c0.725-0.005,1.312-0.595,1.311-1.32c-0.001-0.725-0.581-1.314-1.311-1.314c-0.271-0.001-6.709,0.059-13.113,6.836
		c-0.499,0.529-0.475,1.362,0.053,1.861C1940.803,698.217,1941.003,698.324,1941.215,698.377z"/>
	<path style="fill:#C16256;" d="M1976.916,698.566c0.527,0.133,1.104-0.071,1.42-0.55c0.401-0.605,0.237-1.42-0.367-1.823
		c-0.132-0.087-3.3-2.167-11.432-5.026c-0.697-0.247-1.438,0.119-1.679,0.806c-0.241,0.686,0.119,1.438,0.806,1.679
		c7.758,2.729,10.819,4.717,10.848,4.736C1976.639,698.471,1976.775,698.53,1976.916,698.566z"/>
	<path style="fill:#CE3932;" d="M1818.396,859.282c0,0-33.36,6.944-57.624,26.351c-24.266,19.419-26.975,34.792-38.88,45.781
		c3.792-5.741,7.394-10.982,9.444-15.451c13.694-29.73,27.625-53.163,41.236-71.637L1818.396,859.282z"/>
	<path style="fill:#F99370;" d="M1868.437,815.472c-6.394,40.843-49.865,28.143-79.986,34.039
		c-28.627,3.645-56.932,10.297-84.346,19.164c-54.156,13.162-143.814,17.66-220.756-21.78l5.501-25.444
		c72.336,11.742,123.268,9.428,183.226-1.182c46.916-21.35,107.121-43.396,158.517-48.915
		C1855.658,769.955,1871.807,792.713,1868.437,815.472z"/>
	<path style="fill:#EB5648;" d="M1863.417,759.186c0,0-53.807-20.053-109.199,12.2c-55.392,32.253-225.575,17.358-237.926,53.973
		c0,0,3.345,18.968,0,36.107c0,0,9.421,54.293,200.125,18.075c30.195-5.735,92.796-21.606,121.366-21.508
		C1866.354,858.13,1888.717,807.256,1863.417,759.186z"/>
	<path style="fill:#CE3932;" d="M1922.657,797.664c0,0,19.382,5.304,22.907,19.481c0,0-28.343,64.082-57.344,70.956
		c0,0-17.499-19.924-19.111-53.365c-1.611-33.418-0.075-61.57-5.692-75.55c0,0,16.165,5.555,21.313,18.506
		c0,0,3.741,18.17,4.337,44.524c0.596,26.354,5.611,40.201,5.611,40.201S1913.222,828.528,1922.657,797.664z"/>
	<path style="fill:#F99370;" d="M2068.739,1163.919c-1.271,5.036-13.853-2.311-18.615-1.629c4.198,8.093,10.768,15.033,10.76,15.094
		c9.12,6.656,18.583,12.805,28.327,18.53c3.167,1.758,0.639,6.853-2.698,5.329c-10.121-4.365-20.083-9.188-29.759-14.495
		c-0.036,0.044-0.075,0.085-0.112,0.128c7.887,8.811,16.272,17.206,25.308,24.838c5.948,17.567-29.832-16.449-32.897-19.021
		c-0.025,0.013-0.05,0.026-0.075,0.038c6.016,9.543,13.203,18.356,21.232,26.292c4.13,18.105-29.06-19.066-31.255-22.717
		c-0.044,0.01-0.087,0.02-0.13,0.031c3.634,8.184,8.312,15.902,13.344,23.32c1.335,17.182-22.213-18.153-24.005-21.693
		c-3.002-3.175-11.251-15.859-17.88-35.995c-2.077-6.278,13.469-16.29,19.843-15.054c5.976,1.158,13.405,4.862,16.126,6.125
		C2051.271,1154.269,2069.534,1157.689,2068.739,1163.919z"/>
	<path style="fill:#CE3932;" d="M1711.059,978.712c0,0,95.141,76.467,187.356,75.495c0,0,4.416,2.655,2.165,7.643
		c0,0-93.316,8.18-194.8-78.158C1705.78,983.692,1705.911,978.712,1711.059,978.712z"/>
	<path style="fill:#163356;" d="M1803.498,1586.729c-13.245-2.661-20.501-5.743-20.501-5.743
		c15.953-87.137,18.95-161.34,18.493-225.972c-0.961-130.401-22.115-211.871-22.115-211.871s13.82-7.279,19.212-19.844
		C1798.586,1123.299,1858.694,1373.2,1803.498,1586.729z"/>
	<path style="fill:#163356;" d="M1922.986,1559.828c-1.594,11.862-2.672,18.368-2.672,18.368
		c-42.543,14.152-99.411,17.245-137.317,2.79c0.984-5.369,1.922-10.713,2.825-16
		C1785.822,1564.986,1857.041,1580.658,1922.986,1559.828z"/>
	<path style="fill:#5871DB;" d="M1701.577,1654.762c-5.279,0-9.56-4.28-9.56-9.56c0-486.734,0-780.525-100.346-1002.069
		c-64.771-143.001-156.177-226.543-221.452-271.445c-70.447-48.46-125.841-63.331-126.392-63.476
		c-5.107-1.339-8.162-6.564-6.823-11.672c1.339-5.106,6.567-8.161,11.672-6.823c2.383,0.625,59.205,15.882,132.378,66.218
		c42.839,29.469,82.396,64.93,117.569,105.399c43.915,50.526,81.08,109.038,110.463,173.91
		c48.124,106.249,75.688,232.367,89.371,408.93c12.678,163.588,12.678,356.63,12.678,601.028
		C1711.137,1650.481,1706.857,1654.762,1701.577,1654.762z"/>
	<path style="fill:#5871DB;" d="M1481.489,1654.762c-5.279,0-9.56-4.28-9.56-9.56c0-62.48,0.219-122.514,0.431-180.57
		c1.167-320.144,2.09-573.012-36.707-742.06c-36.865-160.63-88.103-265.293-124.594-324.809
		c-39.492-64.409-70.672-91.237-70.982-91.501c-4.021-3.413-4.523-9.442-1.117-13.468c3.406-4.026,9.423-4.538,13.455-1.138
		c1.338,1.129,33.26,28.415,74.242,94.97c37.463,60.842,90.017,167.771,127.631,331.669
		c39.29,171.192,38.364,425.032,37.191,746.405c-0.211,58.04-0.431,118.056-0.431,180.501
		C1491.049,1650.481,1486.77,1654.762,1481.489,1654.762z"/>
	<g>
		<path style="fill:#F99370;" d="M1447.111,800.346c-5.304,1.791-8.728,13.516-2.809,14.834c3.207,0.714,6.001-4.603,7.461-6.572
			l-0.215,0.104C1458.308,805.611,1453.369,797.289,1447.111,800.346z"/>
		<path style="fill:#F99370;" d="M1448.476,809.508c-14.005,11.084,3.667,19.679,5.772,7.958c0.029,0.117-0.056,0.17,0.081-0.055
			c0.133-0.213,0.436-0.538,0.667-0.724c0.005-0.008,0.117-0.088-0.036,0.022C1461.027,812.274,1453.699,805.478,1448.476,809.508z"
			/>
		<path style="fill:#F99370;" d="M1449.602,819.152l-3.067,3.536c-2.771,8.225,5.318,10.501,8.776,5.465
			c0,0,3.247-4.122,3.247-4.122C1462.888,818.113,1453.06,814.116,1449.602,819.152z"/>
		<path style="fill:#F99370;" d="M1451.946,828.032l-2.389,2.306c-2.772,6.878,5.41,8.851,5.41,8.851s1.405-3.61,4.533-6.577
			c3.703-3.512,1.045-6.774-2.915-6.639C1454.841,826.032,1453.201,826.82,1451.946,828.032z"/>
	</g>
	<path style="fill:#F99370;" d="M1471.128,812.683c-1.496-5.971-3.531-7.671-8.67-11.701c-4.902-3.844-3.119-6.645-2.336-7.425
		c2.326-2.316,10.491,1.698,12.951,4.253c4.521,4.696,8.627,12.509,5.584,24.255L1471.128,812.683z"/>
</g>
<path id="_x33_" style="fill:#F49F9F;" d="M795.616,1447.996c-9.479-10.015-115.299,69.019-124.327,85.834
	c-1.909-17.416-5.88-37.751-13.31-60.162c14.768-0.847,115.028-104.785,105.17-114.831
	c-11.077-8.328-102.742,89.493-107.819,107.165c-6.272-17.424-14.658-35.997-25.786-55.361
	c12.619,2.029,97.403-125.784,85.066-132.719c-12.155-7.068-89.614,113.064-87.701,128.218
	c-8.001-13.49-17.314-27.336-28.204-41.431c14.443-6.457,82.885-130.038,71.006-137.501
	c-12.838-5.095-75.511,112.013-76.286,130.819c-9.359-11.722-20.456-24.094-31.716-35.726
	c13.341-9.302,61.817-140.614,49.023-146.305c-13.372-2.959-56.793,119.792-55.489,139.486
	c-11.645-12.346-22.474-24.175-32.53-35.482c13.41-10.652,61.02-139.674,48.376-145.554
	c-13.216-2.871-55.751,116.933-55.319,137.698c-11.99-13.675-22.814-26.545-32.609-38.636c13.372-9.915,61.467-140.205,48.74-145.99
	c-13.224-2.873-55.8,117.068-55.329,137.786c-10.786-13.572-20.198-26.077-28.417-37.536
	c13.126-5.942,63.542-142.635,50.398-147.715c-13.439-3.04-57.386,121.407-55.56,140.442c-11.001-15.703-19.618-29.248-26.35-40.668
	c12.411-6.998,47.68-148.925,34.033-152.455c-13.375-1.4-42.336,121.179-39.911,142.19c-21.669-36.163-11.626-48.089-27.965-96.967
	c-28.914-98.719-50.212-92.459-20.839,6.157c14.969,50.758,22.838,59.13,38.249,90.143
	c-15.387-17.485-114.414-82.286-122.424-72.327c-8.643,11.205,120.648,95.01,131.081,87.738
	c6.429,10.922,14.559,23.73,24.801,38.457c-16.613-14.234-130.743-61.274-137.162-49.707
	c-6.191,12.719,135.966,69.944,145.279,61.165c7.999,11.078,17.11,23.121,27.466,36.129
	c-19.977-10.472-138.913-33.226-142.748-20.769c-1.81,13.938,138.277,39.454,151.837,32.038
	c9.379,11.481,19.686,23.661,31.008,36.545c-18.902-8.436-145.911-15.726-148.263-2.439
	c-0.364,14.088,145.173,20.689,155.736,10.873c10.105,11.329,20.976,23.179,32.664,35.554
	c-21.349-4.721-144.211,7.638-144.415,20.868c2.784,13.675,139.204-1.469,152.91-11.929c11.152,11.569,21.476,23.398,30.52,34.836
	c-14.374-7.895-153.324,5.413-152.938,19.403c0.712,14.12,152.126-2.42,156.813-14.457c10.289,13.381,19.136,26.524,26.754,39.329
	c-15.862-7.267-151.856,5.79-151.738,19.709c1.885,13.962,146.282-2.045,155.443-13.336c10.861,19.115,18.99,37.411,25.01,54.517
	c-13.945-8.94-153.045-6.833-153.831,7.131c0.773,14.066,145.884,9.701,155.983-0.803c7.132,21.757,10.889,41.432,12.672,58.236
	c-16.887-9.016-148.493-16.791-150.795-3.241c0.858,13.839,134.946,19.946,151.598,12.292c3.554,50.054-8.655,82.48-8.805,82.872
	l8.168,3.171c0.562-1.445,13.352-35.146,9.273-88.141C686.956,1544.14,803.511,1459.644,795.616,1447.996z"/>
<path id="_x32_" style="fill:#F49F9F;" d="M766.75,1471.408c4.541-7.853,84.299,26.613,92.638,35.999
	c-1.43-11.437-1.986-25.056-0.643-40.53c-9.58,1.707-89.573-49.544-84.794-57.474c5.821-7.017,79.381,41.628,85.322,52.165
	c1.361-12.106,3.899-25.269,8.072-39.357c-7.767,3.22-81.491-65.667-74.651-71.984c6.703-6.374,74.569,58.712,75.652,68.702
	c3.067-9.852,6.918-20.131,11.741-30.81c-10.226-1.933-72.847-70.6-66.382-77.185c7.44-5.216,65.383,60.187,68.743,72.105
	c4.205-8.927,9.422-18.535,14.858-27.694c-9.954-3.922-60.975-80.577-53.653-86.168c8.107-3.93,54.589,68.016,56.753,80.819
	c5.573-9.675,10.701-18.894,15.415-27.661c-10.204-4.775-60.321-80.096-53.125-85.785c8.021-3.85,53.487,66.345,56.372,79.7
	c5.591-10.577,10.558-20.462,14.985-29.692c-10.068-4.309-60.689-80.369-53.425-86.009c8.026-3.852,53.539,66.424,56.392,79.755
	c4.836-10.328,8.955-19.765,12.471-28.35c-9.305-1.804-62.387-81.608-54.748-86.86c8.138-3.992,55.214,68.959,56.944,81.419
	c4.649-11.725,8.101-21.706,10.671-30.039c-9.008-2.589-53.193-88.048-44.997-92.386c8.347-2.932,45.547,71.106,47.195,84.921
	c8.361-26.443,0.117-32.546,3.131-66.316c3.471-67.582,18.055-66.818,14.274,0.767c-1.85,34.764-5.611,41.32-10.751,63.515
	c7.185-13.533,60.692-70.085,67.335-64.931c7.238,5.855-62.745,79.177-70.529,76.112c-2.451,7.969-5.704,17.404-10.016,28.388
	c8.465-11.639,74.342-59.124,80.212-52.699c5.899,7.197-76.365,65.468-83.662,61.268c-3.432,8.308-7.429,17.403-12.076,27.305
	c11.19-9.744,83.842-42.418,88.193-35.03c3.281,8.644-82.487,46.307-92.294,43.626c-4.254,8.776-8.996,18.141-14.279,28.11
	c10.813-8.277,90.986-32.284,94.515-24.139c2.378,8.96-89.758,35.348-98.012,30.674c-4.742,8.789-9.894,18.028-15.49,27.728
	c12.944-6.273,93.456-17.072,95.601-8.637c0.301,9.176-89.312,20.258-99.677,15.651c-5.375,9.102-10.181,18.245-14.227,26.942
	c7.997-7.241,98.949-19.884,100.832-10.872c1.694,9.145-97.727,21.617-102.56,14.628c-4.547,10.131-8.208,19.889-11.133,29.244
	c9.045-7.066,98.067-19.42,100.111-10.494c0.92,9.223-93.93,20.968-101.512,15.136c-4.04,13.887-6.456,26.834-7.704,38.698
	c7.563-7.845,96.905-27.679,99.535-18.862c1.648,9.12-91.886,28.424-99.949,23.24c-1.251,15.01-0.659,28.174,0.759,39.2
	c9.435-8.342,92.476-33.359,96.013-25.038c1.558,8.987-83.325,33.315-95.148,30.952c5.348,32.575,18.099,51.468,18.255,51.696
	l-4.744,3.273c-0.58-0.839-13.897-20.46-19.357-54.997C850.931,1516.392,763.471,1480.065,766.75,1471.408z"/>
<g id="_x31_">
	<path style="fill:#3A72AA;" d="M788.413,1698.366c0,0,97.886-148.805,299.483-160.629
		C1087.896,1537.737,973.949,1676.873,788.413,1698.366z"/>
	<path style="fill:#7689D6;" d="M790.678,1698.079c0,0,28.822-145.293,236.576-257.168
		C1027.254,1440.911,976.973,1597.133,790.678,1698.079z"/>
	<path style="fill:#3A72AA;" d="M790.678,1698.079c0,0-8.504-177.91,147.476-306.174
		C938.155,1391.906,927.983,1571.458,790.678,1698.079z"/>
	<path style="fill:#7689D6;" d="M790.678,1698.079c0,0-54.899-180.792,56.803-351.144
		C847.482,1346.936,911.443,1585.179,790.678,1698.079z"/>
	<path style="fill:#3A72AA;" d="M790.678,1698.079c0,0-93.756-197.967-38.583-347.774
		C752.095,1350.305,838.17,1535.899,790.678,1698.079z"/>
	<path style="fill:#3A72AA;" d="M791.861,1698.176c0,0-221.29,16.107-335.579-95.356
		C456.282,1602.82,663.143,1588.681,791.861,1698.176z"/>
	<path style="fill:#7689D6;" d="M791.861,1698.176c0,0-187.465-23.593-297.462-195.05
		C494.399,1503.126,738.017,1541.871,791.861,1698.176z"/>
	<path style="fill:#3A72AA;" d="M791.861,1698.176c0,0-168.515-78.593-222.028-273.317
		C569.834,1424.859,732.233,1521.173,791.861,1698.176z"/>
	<path style="fill:#7689D6;" d="M791.861,1698.176c0,0-120.913-85.563-138.35-320.878
		C653.512,1377.298,775.653,1486.911,791.861,1698.176z"/>
</g>
</svg>
