<?xml version="1.0" encoding="utf-8"?>
<!-- Generator: Adobe Illustrator 27.5.0, SVG Export Plug-In . SVG Version: 6.00 Build 0)  -->
<svg version="1.1" id="_x3C_Layer_x3E_" xmlns="http://www.w3.org/2000/svg" xmlns:xlink="http://www.w3.org/1999/xlink" x="0px"
	 y="0px" viewBox="0 0 3116 1640" style="enable-background:new 0 0 3116 1640;" xml:space="preserve">
<rect style="fill:#FFFFFF;" width="3116" height="1640"/>
<g>
	<path style="fill:#FCECDB;" d="M2761.563,1421.306c-5.515,15.552-12.321,30.61-20.469,44.996
		c-2.332,4.136-4.791,8.214-7.355,12.234H254.021c0,0-225.846-517.192,81.834-767.584c3.847-3.124,7.703-6.19,11.579-9.198
		c3.567-2.757,7.153-5.467,10.75-8.127c3.499-2.595,7.019-5.13,10.547-7.627c92.739-65.502,194.29-97.896,300.806-117.979
		c3.75-0.715,7.511-1.398,11.28-2.073c3.577-0.656,7.153-1.282,10.74-1.899c86.357-14.896,175.769-22.733,266.232-34.37
		c31.489-4.06,63.111-8.581,94.773-14.018c126.695-21.741,254.085-58.242,376.731-138.873
		c151.308-99.478,307.321-124.67,439.898-104.925c9.034,1.34,17.952,2.883,26.745,4.638c12.938,2.574,25.607,5.572,37.996,8.976
		c159.224,43.704,271.939,153.45,278.408,266.945c4.357,76.493,13.431,149.999,33.523,213.765
		c9.303,29.531,20.979,56.979,35.643,81.671c3.991,6.731,8.204,13.247,12.649,19.544c43.858,62.108,110.497,103.034,212.049,109.841
		c70.593,4.734,130.06,36.357,175.325,83.165c0.415,0.435,0.838,0.868,1.263,1.313
		C2770.26,1153.232,2804.014,1301.707,2761.563,1421.306z"/>
	<path style="fill:#FFF4EB;" d="M2761.563,1421.306c-5.515,15.552-12.321,30.61-20.469,44.996h-845.156V276.5
		c12.938,2.574,25.607,5.572,37.996,8.976c159.224,43.704,271.939,153.45,278.408,266.945
		c4.357,76.493,13.431,149.999,33.523,213.765c9.303,29.531,20.979,56.979,35.643,81.671c3.991,6.731,8.204,13.247,12.649,19.544
		c43.858,62.108,110.497,103.034,212.049,109.841c70.593,4.734,130.06,36.357,175.325,83.165c0.415,0.435,0.838,0.868,1.263,1.313
		C2770.26,1153.232,2804.014,1301.707,2761.563,1421.306z"/>
	<path style="fill:#FAE7D4;" d="M1515.273,1151.633c-4.339-2.787-14.395-15.09-21.374-24.056c1.002-0.607,1.562-0.974,1.562-0.974
		c-20.305-55.804-37.051-101.503-50.858-138.939c1.64-2.806,3.202-7.096,4.445-13.526c4.995-25.732-20.092-35.499-20.092-35.499
		c-0.125-0.068-0.271-0.125-0.405-0.192c14.953-112.475-21.018-120.12-21.018-120.12s-12.968-3.953-28.558-2.15
		c-5.303-11.424-15.928-18.444-33.455-19.33c-5.265-0.271-11.011,0.78-17.16,2.94c0.818-1.282,1.619-2.565,2.419-3.866
		c3.673-2.266,34.399-22.05,31.748-45.815c-0.521-4.714-1.638-8.273-3.114-10.942c-0.423-1.929-0.974-3.74-1.59-5.419
		c2.729-11.954,2.892-21.663-0.222-27.217c-5.66-10.133-16.256-17.209-24.229-21.403c3.346-0.646,7.723,1.021,7.723,1.021
		c-4.281-3.48-18.067-5.63-18.067-5.63c-49.094-62.446-124.806,18.434-138.593,39.51c-7.231,11.039-15.426,22.715-28.307,31.102
		c-6.884-3.557-12.1-6.729-14.558-9.159c-18.318-18.173-40.33-79.163-61-119.415c-0.01-0.02-0.02-0.039-0.029-0.067
		c0.125,0,0.202,0.01,0.202,0.01c-2.535-6.807-19.484-33.243-19.484-33.243c-0.01,0-0.01,0-0.02,0
		c-0.077-0.067-10.788-8.842-40.541-19.282c0,0-2.372-0.906-6.344-2.343c-1.852-2.97,0.356-13.565,3.441-24.527
		c0.857-3.037,1.773-6.102,2.689-9.043c0.762-2.43,1.514-4.764,2.237-6.933c6.286,1.919,10.576,2.805,10.576,2.805
		c6.017,0.898,12.813-5.167,19.263-14.267c-31.661,5.438-63.283,9.959-94.773,14.018c-6.199,9.891-12.399,16.023-16.795,18.076
		c-4.261-0.472-9.429-0.926-14.375-1.166c0,0-31.845-3.858-50.761,2.313c-0.482,0.115-0.888,0.241-1.283,0.357
		c0,0-10.585,2.633-17.846,17.007c-3.74,7.347-6.613,17.77-6.748,32.511c0,0,0.028-0.029,0.059-0.058v0.105
		c-0.166,2.4,0,4.956,0.172,7.655c0.329,7.617,1.996,16.863,4.493,27.006c0.077,18.53,0.463,43.808-2.68,70.457
		c-0.983,8.302-4.06,16.236-8.918,23.274c-1.919,2.796-4.136,5.456-6.595,7.934c-19.669,19.717-54.55,59.034-46.886,83.504
		c0.048,1.918,1.61,3.885,4.415,5.871c-10.518,16.381-22.261,44.696-19.291,87.291c2.517,36.154,7.125,189.777,11.926,235.236
		c1.736,16.477,3.26,28.2,3.886,32.886c0.01,0.028,0.01,0.038,0.01,0.048c0.192,1.427-0.367,2.777-1.176,4.021
		c-7.077,10.74-12.94,21.924-17.75,33.369c-30.313,72.212-18.675,155.165-6.479,205.261c-0.164-0.154-0.338-0.299-0.491-0.453
		c2.091,13.42-6.673,18.463-12.265,29.56c-5.843,11.55-3.162,26.793-3.162,26.793h111.828
		c-2.256-18.926-34.843-17.248-42.151-21.943c-6.613-4.252-17.421-19.61-19.398-22.483c-0.144,0.02-0.289,0.029-0.424,0.039
		c10.259-47.946,31.728-143.461,50.115-193.143c4.271-11.551,8.368-20.613,12.129-26.041c10.942-15.793,21.104-41.602,30.331-72.299
		c1.32-4.406,2.622-8.938,3.914-13.536c1.243,6.354,2.382,12.187,3.394,17.382c1.07,5.486,2.016,10.26,2.776,14.231
		c1.65,8.503,2.595,13.324,2.595,13.324c-4.59,16.794-5.293,34.997-3.173,53.778c8.639,76.57,62.079,160.738,90.531,200.884
		c2.737,4.531,4.724,8.253,4.724,12.39c0,3.123-1.128,6.498-3.924,10.624c-7.337,10.847-3.162,26.793-3.162,26.793h111.828
		c-2.246-18.926-34.834-17.248-42.142-21.943c-6.44-4.136-27.053-25.019-31.864-29.927c-0.048,0.03-0.096,0.059-0.145,0.078
		c-9.767-39.636-31.748-134.659-35.5-201.174c-1.069-18.81-0.693-35.19,1.842-47.213c3.471-16.399,6.258-32.356,8.476-47.821
		c8.608-60.392,8.33-113.216,4.579-155.792c-1.215-13.95-2.825-26.821-4.599-38.486c-4.261-39.327-8.735-64.943-12.408-81.286
		c9.332-1.436,14.606-4.097,13.835-8.272c0,0,2.343-10.074,6.103-25.481c3.8,0.926,7.607,1.832,11.415,2.709
		c-3.846,21.288-0.26,43.955,7.077,60.471c0.261,0.588,45.256,71.817,45.256,71.817c0.857-1.398,2.256-3.162,4.146-5.217
		c-3.084,29.725-4.55,54.088-9.65,60.924c-12.996,17.421-84.872,139.951,25.646,157.652c13.864,2.689,30.987,4.185,51.735,4.001
		c3.711-0.028,7.278-0.174,10.711-0.405c6.383,0.328,13.18,0.473,20.42,0.405c56.362-0.491,90.868-23.62,106.323-44.417
		c4.107-5.544,19.243-30.813,37.774-64.654c-0.55,33.985-0.781,58.619-0.781,58.619c-0.578,4.782,1.35,8.349,4.801,11.01
		c-2.11,4.339-4.743,8.553-6.816,12.65c-5.842,11.559-3.162,26.792-3.162,26.792h111.828c-2.246-18.916-35.267-16.747-42.142-21.942
		c-4.628-3.491-7.732-7.145-9.795-10.741c1.852-0.145,2.921-0.261,2.921-0.261c7.877-23.534,14.712-45.342,20.633-65.569
		c22.599,33.966,41.293,59.042,41.293,59.042c2.295,5.023,6.402,7.405,11.376,8.109c-0.298,1.475-0.818,2.988-1.619,4.57
		c-5.833,11.559-3.153,26.792-3.153,26.792l111.829,7.838C1555.168,1162.497,1522.581,1156.327,1515.273,1151.633z
		 M1038.758,786.134c-6.113-3.249-12.197-6.556-18.059-9.844c5.881-22.541,12.572-46.875,18.936-67.073
		c13.266,19.813,29.839,39.307,45.555,54.588C1064.238,766.61,1049.159,774.873,1038.758,786.134z"/>
	<g>
		<path style="fill:#F7DFC8;" d="M2761.563,1421.306c-7.105,20.025-16.342,39.23-27.824,57.23h-799.805v0.087h-55.813V756.42h95.603
			V558.052h95.602v267.987h77.391v-59.854h99.15c9.303,29.531,20.979,56.979,35.643,81.671V867.4h12.649
			c43.858,62.108,110.497,103.034,212.049,109.841c70.593,4.734,130.06,36.357,175.325,83.165c0.415,0.435,0.838,0.868,1.263,1.313
			C2770.26,1153.232,2804.014,1301.707,2761.563,1421.306z"/>
		<g>
			<path style="fill:#EFCBAB;" d="M1933.934,285.476v1193.147h-64.741V271.862C1891.482,275.169,1913.107,279.759,1933.934,285.476z
				"/>
			<path style="fill:#EFCBAB;" d="M1878.12,1478.623h55.813v-0.087h799.805c11.482-18,20.719-37.205,27.824-57.23h-827.629h-55.813
				h-8.928h-14.048v57.23L1878.12,1478.623z"/>
		</g>
	</g>
	<path style="fill:#F6DBC3;" d="M815.035,982.505c-12.87-49.772-93.061-34.219-93.061-34.219s-54.45,87.103-70.291,89.176
		c-15.84,2.074,32.67-83.991,32.67-83.991c-30.69-3.11-108.9,36.293-108.9,36.293s4.95,101.619-10.891,99.545
		c-15.84-2.073,0-90.213,0-90.213c-29.7,9.332-57.42,45.625-57.42,45.625c-34.65,59.105,39.601,102.656,39.601,102.656
		s0.989,35.255-19.8,75.696c0,0-26.135,41.576-17.755,95.345h-22.993c4.406-38.696-14.045-68.052-14.045-68.052
		c-15.773-30.679-15.022-57.425-15.022-57.425s56.329-33.039,30.042-77.877c0,0-21.029-27.531-43.56-34.612
		c0,0,12.017,66.864,0,68.438c-12.017,1.572-8.261-75.518-8.261-75.518s-59.332-29.892-82.614-27.532
		c0,0,36.801,65.291,24.784,63.718s-53.324-67.65-53.324-67.65s-60.834-11.8-70.598,25.958
		c-9.764,37.759,6.009,56.638,15.021,58.998c9.013,2.36,66.843,1.573,65.341,9.439c-1.502,7.867-40.557,20.453-62.336,13.373
		c0,0,24.032,62.144,55.576,58.998c31.544-3.146,41.308-23.6,60.835-25.173c19.526-1.573,33.797,3.934,24.033,9.439
		c-9.764,5.507-42.81,1.805-58.582,15.849c-15.771,14.044-28.539,22.697,0.751,28.989c29.291,6.294,81.864,2.361,92.379-21.239
		c0.46-1.032,0.894-2.005,1.315-2.95c-0.635,1.949-1.315,2.95-1.315,2.95c5.403,3.302,13.507,19.046,19.13,31.125
		c0.801,2.056,2.069,4.9,3.953,8.763l0,0c0.763,1.746,1.374,3.176,1.795,4.172c6.487,17,6.741,41.756,6.032,57.818h-24.871h-36.133
		h-22.509v4.672h4.857c1.782,61.954,38.879,114.602,90.928,136.624h-75.066c-9.91,0-17.944,8.414-17.944,18.795l0,0h294.908l0,0
		c0-10.381-8.035-18.795-17.944-18.795h-75.066c52.048-22.022,89.145-74.67,90.928-136.624h3.382v-4.672H537.974
		c3.521-8.097,7.819-16.04,12.841-21.896c0.61-0.661,1.495-1.611,2.588-2.765c2.553-2.476,4.342-4.337,5.543-5.718
		c7.798-7.849,18.575-17.845,23.768-18.813c0,0-0.26-1-0.223-2.735c0.071,0.876,0.145,1.776,0.223,2.735
		c1.777,21.868,42.284,40.967,67.203,44.894c24.92,3.928,17.217-6.801,8.631-22.708c-8.587-15.908-35.76-23.027-41.958-30.354
		c-6.199-7.325,6.617-7.343,21.632-0.16c15.014,7.183,17.07,26.333,41.155,38.415c24.086,12.081,60.326-29.78,60.326-29.78
		c-19.194-1.021-46.606-22.855-45.614-29.535c0.992-6.682,46.529,11.525,54.314,12.399c7.785,0.873,25.496-9.269,28.238-42.112
		c2.74-32.845-48.663-42.007-48.663-42.007s-11.852,9.23-25.241,18.522c-2.639-3.587-6.933-7.559-11.947-11.99
		c4.422-4.098,8.392-7.623,10.868-9.795c4.94,1.411,10.341,2.499,16.356,3.1c41.582,4.148,73.262-77.77,73.262-77.77
		c-28.711,9.332-80.191-7.259-82.171-17.628c-1.98-10.369,74.251-9.332,86.131-12.443
		C807.115,1057.164,827.905,1032.277,815.035,982.505z M603.841,1216.613c-2.362-1.276-2.204-5.565-0.683-11.206
		c3.279,0.779,6.65,1.451,10.081,2.024C609.776,1213.947,606.43,1218.011,603.841,1216.613z M553.133,1288.224
		c0,0-13.635,10.581-23.148,30.194h-9.836c-1.217-20.598-1.693-57.346,7.659-81.854c0.556-1.315,1.361-3.198,2.367-5.5l0,0
		c2.484-5.092,4.156-8.842,5.212-11.551c7.412-15.923,18.093-36.676,25.216-41.027c0,0-0.896-1.321-1.732-3.891
		c0.554,1.246,1.126,2.528,1.732,3.891c1.767,3.965,4.441,7.507,7.83,10.656c-13.533,26.397,12.502,58.216,12.502,58.216
		S574.115,1268.746,553.133,1288.224z M662.486,1157.668c-21.288-6.149-46.963-5.001-56.343-10.291
		c-12.87-7.258,5.94-14.518,31.681-12.443c17.315,1.395,28.815,14.045,47.139,23.443
		C677.828,1157.72,669.955,1157.566,662.486,1157.668z"/>
	<g>
		<g>
			<path style="fill:#599DAD;" d="M689.004,1222.303c0,0-41.107-47.958-2.534-78.42c0,0,28.175-17.058,51.149-15.673
				c0,0-32.554,54.588-22.021,60.019c10.531,5.429,31.888-63.443,31.888-63.443s64.118-6.217,84.744,3.7
				c0,0-54.813,44.854-43.269,47.524c11.544,2.671,70.749-41.355,70.749-41.355s59.676,10.155,56.494,46.559
				c-3.183,36.404-23.744,47.646-32.782,46.677c-9.037-0.968-61.903-21.148-63.055-13.743c-1.151,7.404,30.671,31.604,52.954,32.737
				c0,0-42.072,46.397-70.033,33.007c-27.961-13.391-30.35-34.617-47.779-42.578s-32.308-7.941-25.112,0.178
				c7.196,8.12,38.741,16.011,48.71,33.643c9.967,17.632,18.91,29.523-10.02,25.17c-28.929-4.353-75.954-25.521-78.017-49.76
				C689.004,1222.303,689.004,1222.303,689.004,1222.303z"/>
			<g>
				<path style="fill:#599DAD;" d="M886.881,1182.195c0,0-162.082-6.246-197.877,40.107c0,0-7.915,23.709-32.275,45.298
					l-3.796,10.348c0,0,28.085-29.614,38.136-31.405C691.068,1246.543,675.352,1189.115,886.881,1182.195z"/>
				<path style="fill:#599DAD;" d="M656.728,1267.601c0,0-34.789,25.729-37.206,71.699l6.314,0.565c0,0,11.111-47.534,31.194-66.123
					C677.114,1255.154,656.728,1267.601,656.728,1267.601z"/>
			</g>
		</g>
		<g>
			<path style="fill:#6BB7BF;" d="M545.276,1161.99c0,0,65.393-36.619,34.877-86.317c0,0-24.413-30.517-50.571-38.363
				c0,0,13.951,74.11,0,75.854c-13.949,1.744-9.59-83.701-9.59-83.701s-68.88-33.133-95.909-30.518c0,0,42.723,72.368,28.773,70.625
				c-13.95-1.744-61.905-74.984-61.905-74.984s-70.623-13.078-81.958,28.773c-11.334,41.852,6.976,62.776,17.438,65.393
				c10.462,2.615,77.598,1.743,75.854,10.462c-1.744,8.719-47.082,22.669-72.367,14.822c0,0,27.9,68.88,64.521,65.392
				c36.619-3.487,47.954-26.156,70.623-27.899c22.669-1.744,39.236,4.359,27.9,10.462c-11.335,6.104-49.697,2.001-68.008,17.566
				c-18.31,15.566-33.132,25.157,0.872,32.132c34.004,6.976,95.036,2.615,107.243-23.541
				C545.276,1161.99,545.276,1161.99,545.276,1161.99z"/>
			<g>
				<path style="fill:#6BB7BF;" d="M341.253,1036.438c0,0,183.099,59.289,204.023,125.553c0,0-0.872,29.645,17.439,63.648v13.078
					c0,0-19.183-44.466-29.646-50.569C533.07,1188.147,574.05,1130.603,341.253,1036.438z"/>
				<path style="fill:#6BB7BF;" d="M562.716,1225.639c0,0,28.235,42.879,12.138,95.074l-7.265-1.951c0,0,7.052-57.489-7.721-86.404
					C545.095,1203.443,562.716,1225.639,562.716,1225.639z"/>
			</g>
		</g>
		<g>
			<path style="fill:#86D1CD;" d="M649.31,1111.487c0,0-86.199-48.271-45.973-113.782c0,0,32.182-40.227,66.66-50.57
				c0,0-18.389,97.691,0,99.991c18.39,2.298,12.643-110.335,12.643-110.335s90.797-43.675,126.426-40.227
				c0,0-56.317,95.393-37.929,93.095c18.39-2.298,81.602-98.841,81.602-98.841s93.095-17.24,108.035,37.927
				c14.942,55.168-9.194,82.751-22.985,86.199c-13.793,3.447-102.29,2.299-99.991,13.792c2.299,11.493,62.063,29.882,95.394,19.538
				c0,0-36.778,90.797-85.05,86.198c-48.271-4.596-63.212-34.479-93.095-36.777c-29.882-2.299-51.72,5.747-36.778,13.792
				c14.941,8.045,65.511,2.637,89.647,23.155c24.137,20.519,43.675,33.161-1.148,42.356c-44.824,9.194-125.275,3.447-141.366-31.032
				C649.31,1111.487,649.31,1111.487,649.31,1111.487z"/>
			<g>
				<path style="fill:#6BB7BF;" d="M918.251,945.985c0,0-241.357,78.153-268.94,165.502c0,0,1.15,39.077-22.986,83.9v17.239
					c0,0,25.285-58.615,39.077-66.66C665.401,1145.967,611.383,1070.111,918.251,945.985z"/>
				<path style="fill:#6BB7BF;" d="M626.324,1195.388c0,0-37.222,56.521-16.002,125.325l9.576-2.571
					c0,0-9.295-75.783,10.179-113.897C649.551,1166.129,626.324,1195.388,626.324,1195.388z"/>
			</g>
		</g>
		<path style="fill:#E0B594;" d="M646.406,1469.916c93.253,0,168.85-75.596,168.85-168.85H477.557
			C477.557,1394.32,553.152,1469.916,646.406,1469.916z"/>
		<path style="fill:#FFEBDC;" d="M687.955,1468.625c-6.867,0.858-13.87,1.292-20.978,1.292c-93.252,0-168.843-75.6-168.843-168.852
			h41.947C540.082,1387.218,604.601,1458.295,687.955,1468.625z"/>
		<path style="fill:#E0B594;" d="M817.588,1478.509H475.225l0,0c0-11.505,9.326-20.831,20.831-20.831h300.701
			C808.262,1457.678,817.588,1467.004,817.588,1478.509L817.588,1478.509z"/>
		<rect x="472.005" y="1301.065" style="fill:#E0B594;" width="347.091" height="5.181"/>
	</g>
	<path style="fill:#2E3552;" d="M2957.396,1486.044H131.842c-1.765,0-3.209-1.443-3.209-3.208v-1.095
		c0-1.766,1.444-3.209,3.209-3.209h2825.554c1.765,0,3.209,1.443,3.209,3.209v1.095
		C2960.605,1484.601,2959.161,1486.044,2957.396,1486.044z"/>
	<g>
		<path style="fill:#2C3A64;" d="M1300.547,169.73c-0.117-3.205-2.598-37.738-55.198-39.543c0,0,25.866,3.084,30.336,14.456
			c0,0-17.613-14.051-31.956-9.532c-14.344,4.52-22.768,29.648-22.852,37.913c-0.084,8.265,7.884,34.909,16.986,37.175
			c3.448,0.858,7.42,0.628,11.025,0.014c-2.422,3.781-4.795,7.953-7.064,12.612c-20.989,43.085,0.656,85.193,18.426,80.541
			c11.396-2.984,14.621,16.462,14.621,16.462l110.717-89.634C1385.588,230.194,1344.922,146.047,1300.547,169.73z"/>
		<path style="fill:#ED985F;" d="M1609.769,667.519c-5.339-5.338-37.552-4.094-37.552-4.094s-17.797-7.117-39.688-16.729
			c-30.433-13.525-68.697-31.68-77.062-40.935c-19.399-21.534-42.714-93.792-64.604-141.487c-1.958-4.45-3.916-8.721-5.873-12.814
			c-0.179-0.356-0.356-0.891-0.712-1.247c-1.067-1.957-1.958-3.736-2.848-5.338c0-0.178-0.178-0.355-0.356-0.534
			c-4.093-7.832-8.364-14.059-12.28-18.153v-0.179c-4.805-5.159-9.432-7.297-13.703-5.517c0,0-8.365,4.271-16.907,14.415
			c-1.068,0.892-1.779,1.958-2.492,3.026c-5.161,6.586-10.145,15.306-13.17,26.34c-2.314,8.364-3.561,17.976-3.025,29.188
			c0.711,18.33,9.788,41.288,22.78,64.427c0.534,1.068,1.067,2.136,1.78,3.202c24.915,43.604,63.18,87.209,86.494,101.445
			c15.306,9.432,53.748,15.127,86.14,18.33c21.534,2.315,40.577,3.382,48.408,3.917c3.381,3.736,27.941,31.855,37.197,23.67
			C1612.438,699.732,1615.107,672.858,1609.769,667.519z"/>
		<path style="fill:#233862;" d="M1895.933,1126.475l-118.447-9.289c0,0-2.84-18.052,3.349-31.747
			c5.928-13.142-2.229-22.648-10.344-38.302c7.525,7.75,33.448,6.608,50.572,4.305c2.098,3.402,23.222,34.711,30.23,39.746
			C1859.033,1096.75,1893.549,1104.057,1895.933,1126.475z"/>
		<path style="fill:#233862;" d="M1756.822,1117.186h-118.447c0,0-2.839-18.052,3.349-31.747
			c5.928-13.142,16.257-27.247,8.142-42.899c7.526,7.75,31.301,6.901,48.425,4.598c2.098,3.401-7.924,25.632,13.893,44.051
			C1719.465,1097.337,1754.439,1094.768,1756.822,1117.186z"/>
		<path style="fill:#163560;" d="M1737.168,696.244c0,0-39.34-15.761-93.137,38.91c-103.298,83.669-235.943,296.527-248.412,311.466
			c-24.971,29.917-5.675,71.562,96.443,70.565c59.697-0.581,96.241-27.989,112.607-52.635c4.359-6.566,20.383-36.507,40.013-76.602
			c-0.586,40.271-0.829,69.458-0.829,69.458c-3.065,28.542,61.053,20.74,61.053,20.74
			C1813.646,714.412,1737.168,696.244,1737.168,696.244z"/>
		<path style="fill:#B5453C;" d="M1684.29,563.774c-6.001-12.011-17.219-20.398-25.668-25.365c3.541-0.758,8.185,1.214,8.185,1.214
			c-4.539-4.126-19.138-6.666-19.138-6.666c-52.001-73.997-132.199,21.842-146.798,46.813
			c-14.609,24.959-32.93,52.682-82.342,50.736c-97.221-3.829-103.404,93.954-83.514,144.023c0.28,0.704,47.939,85.104,47.939,85.104
			c11.219-20.566,112.139-107.838,179.317-107.201c22.561-9.108,46.392-35.938,48.251-38.06
			c-17.654,22.104-30.465,32.556-39.002,37.553C1635.392,742.041,1700.204,595.602,1684.29,563.774z"/>
		<path style="fill:#F4A269;" d="M1566.287,752.412c0.182,0.25-8.781,33.409-35.711,18.865
			c-17.679-9.548-46.05-50.278-35.117-64.078c5.197-6.562,28.087-19.023,51.924-61.233l2.862,2.472l48.108,41.614
			c0,0-10.951,16.362-20.142,32.415C1570.489,735.943,1564.018,749.212,1566.287,752.412z"/>
		<path style="fill:#B5453C;" d="M1548.479,638.008c0,0,0.896-34.204,11.011-57.185c7.222-16.407,51.111-65.75,100.479-21.323
			c0,0,14.814,12.194,22.976,32.256c6.49,15.956,12.017,44.714-38.901,79.315l-15.706,12.69L1548.479,638.008z"/>
		<path style="fill:#6BB7BF;" d="M1483.811,689.119c0,0,17.677,3.369,25.148-6.646c7.47-10.015,23.743-31.199,27.542-19.041
			c3.798,12.157,39.686,47.501,47.986,48.43c8.3,0.928,14.116,3.25,9.421,7.555c-4.696,4.305-2.739,21.521-7.435,23.087
			C1581.777,744.069,1494.628,688.17,1483.811,689.119z"/>
		<path style="fill:#FFB27D;" d="M1594.939,713.283c0,0-69.385-44.859-40.783-87.64c28.602-42.779,38.908-77.381,84.418-50.547
			c45.511,26.833,43.116,48.853,37.043,65.454C1669.543,657.151,1613.726,723.851,1594.939,713.283z"/>
		<path style="fill:#6BB7BF;" d="M1598.354,747.982c0,0-117.498-86.584-158.621-53.971
			c-60.652,48.102-48.522,210.494-62.609,231.624c-14.087,21.131-93.469,172.653,35.636,188.066
			c129.105,15.414,158.845-65.978,164.715-127.022C1583.343,925.636,1598.354,747.982,1598.354,747.982z"/>
		<path style="fill:#599DAD;" d="M1443.749,746.894c0,0-33.833,187.039,33.217,238.138
			C1544.014,1036.13,1577.768,741.109,1443.749,746.894z"/>
		<path style="fill:#599DAD;" d="M1511.233,717.007c0,0,1.285-21.853,20.568-13.498c19.282,8.356,54.954,20.89,68.774,15.747
			c13.818-5.142-22.226,63.953-55.143,40.814C1512.519,736.932,1511.233,717.007,1511.233,717.007z"/>
		<path style="fill:#B5453C;" d="M1670.533,594.996c0,0-52.401,37.559-86.207,25.649c-33.806-11.911-41.136-28.02-41.136-28.02
			s33.895-2.747,59.041-30.343C1602.231,562.283,1672.356,561.628,1670.533,594.996z"/>
		<path style="fill:#FFB27D;" d="M1759.861,838.806c0,0,26.57,11.567,21.287,42.058c-5.282,30.49-15.848,20.274-15.848,20.274
			L1759.861,838.806z"/>
		<path style="fill:#B5453C;" d="M1663.147,595.947c0,0,6.528,20.601,2.653,33.779c-3.874,13.179-17.354,36.619-10.312,40.234
			c0,0,37.002-24.602,34.016-54.546C1686.339,583.661,1663.147,595.947,1663.147,595.947z"/>
		<path style="fill:#1C468A;" d="M1362.637,1046.62c15.689-18.798,222.732-380.696,308.855-375.827
			c129.62,7.328-96.912,368.654-112.802,392.584c-16.365,24.646-39.913,53.228-99.612,53.809
			C1356.961,1118.182,1337.665,1076.537,1362.637,1046.62z"/>
		<path style="fill:#1C468A;" d="M1707.904,696.244c0,0,5.152,4.805,122.401,365.286c0,0-48.922,35.449-59.815,8.89
			c0,0-158.002-237.139-120.784-278.896C1686.924,749.768,1707.904,696.244,1707.904,696.244z"/>
		<path style="fill:#ED985F;" d="M1434.029,707.238c0,0-30.95,47.807,65.301,91.671c96.251,43.863,107.58,54.569,126.354,58.485
			c29.243,6.1,141.574,5.24,141.574,5.24s2.946-17.814-7.396-23.829c-16.565-9.635-112.245-25.276-125.146-30.437
			C1621.813,803.209,1484.342,655.438,1434.029,707.238z"/>
		<path style="fill:#2B478B;" d="M1339.096,1439.05l-23.518,8.756c0,0-102.147-141.671-114.724-266.317
			c-2.246-22.253-1.497-43.814,3.36-63.725c0,0-0.998-5.703-2.745-15.783c-0.808-4.703-1.805-10.367-2.938-16.857
			c-3.32-19.027-7.892-45.063-13.113-74.708c-12.019-68.218-27.591-155.424-39.686-219.533l6.336-2.034l68.563-22.119l14.17-45.004
			l51.053-13.44c0,0,11.405,22.311,21.601,127.699c1.881,13.824,3.59,29.068,4.877,45.6c3.974,50.458,4.263,113.051-4.858,184.609
			c-2.342,18.316-5.299,37.229-8.966,56.659c-2.689,14.246-3.092,33.657-1.959,55.949
			C1301.694,1280.695,1339.096,1439.05,1339.096,1439.05z"/>
		<path style="fill:#233862;" d="M1312.331,881.583L1201.47,1101.98c-0.808-4.703-1.805-10.367-2.938-16.857
			c-3.32-19.027-7.892-45.063-13.113-74.708c-12.019-68.218-27.591-155.424-39.686-219.533l6.336-2.034l68.563-22.119l14.17-45.004
			l51.053-13.44c0,0,11.405,22.311,21.601,127.699C1309.335,849.808,1311.044,865.052,1312.331,881.583z"/>
		<path style="fill:#2B478B;" d="M1263.56,736.567l-2.566-22.008c-42.995,11.421-157.875-31.911-157.875-31.911
			s-41.653,36.613-36.185,124.379c2.67,42.838,7.545,224.87,12.638,278.735c1.841,19.522,3.453,33.415,4.111,38.965
			c0.014,0.026,0.014,0.04,0.014,0.054c0.201,1.693-0.39,3.292-1.25,4.77c-7.497,12.725-13.704,25.973-18.798,39.529
			c-49.982,133.194,7.699,297.224,7.699,297.224l14.968-6.032c0,0,32.826-182.545,59.497-263.19
			c4.527-13.678,8.867-24.427,12.844-30.849c11.596-18.717,22.358-49.298,32.126-85.67c18.462-68.766,33.322-158.223,43.212-227.271
			C1235.357,853.354,1263.56,736.567,1263.56,736.567z"/>
		<path style="fill:#FFB27D;" d="M1345.7,469.628c-13.498,6.259-29.799,10.521-49.518,11.597
			c-73.92,4.051-90.701-60.75-93.754-103.758c10.657-3.859,19.988-3.494,25.364-3.206c5.241,0.288,10.713,0.825,15.226,1.383
			c9.043-4.724,25.286-27.668,34.675-66.049l3.188,1.479l53.338,25.075c0,0-5.664,17.357-9.85,33.965
			c-3.265,12.998-5.606,25.555-3.648,29.069c4.205,1.708,6.72,2.783,6.72,2.783s0,0.02,0.02,0.058
			C1327.998,403.387,1339.595,432.935,1345.7,469.628z"/>
		<path style="fill:#ED985F;" d="M1334.22,336.159c0,0-5.671,17.34-9.85,33.965c-31.176-8.699-40.645-41.471-43.492-59.039
			L1334.22,336.159z"/>
		<path style="fill:#FFB27D;" d="M1340.785,354.52c0,0-74.59-17.263-63.124-63.548c11.465-46.285,9.56-79.686,57.667-70.621
			c48.109,9.065,52.952,29.01,52.882,45.39C1388.142,282.121,1360.483,357.817,1340.785,354.52z"/>
		<path style="fill:#6BB7BF;" d="M1461.348,686.74c0,0,49.164,1.985,151.722,96.469c0,0,15.694,19.056,23.5,20.327
			c7.806,1.272,28.957,6.829,29.423,12.212c0.465,5.384-26.048,72.872-59.792,74.8c-33.744,1.929-191.86-114.248-180.772-153.295
			C1436.515,698.206,1461.348,686.74,1461.348,686.74z"/>
		<path style="fill:#2C3A64;" d="M1392.404,239.462c-8.019-16.775-17.456-15.881-23.359-12.907
			c-35.048-32.428-69.424-5.936-69.424-5.936c-13.232,31.965-41.908,45.026-41.908,45.026s11.458,11.733,44.67,11.475
			c10.145-0.079,20.345-4.736,29.625-11.155c-17.901,18.03-38.892,29.007-38.892,29.007c41.573-7.957,69.451-56.086,72.308-61.199
			c3.522,5.201,10.259,16.273,10.826,25.621c0.771,12.705-3.602,37.376,3.674,38.311
			C1379.924,297.707,1404.431,264.622,1392.404,239.462z"/>
		<path style="fill:#F99746;" d="M1391.046,464.197c-2.688-8.063-20.646-39.391-20.646-39.391c-0.005,0.001-0.008,0.003-0.012,0.004
			c-0.089-0.082-11.43-10.471-42.947-22.845c0,0,0,0.02,0.02,0.058c0.5,1.844,13.958,50.593,9.043,60.999
			c-4.991,10.579-99.476-23.578-104.641-31.372c-4.127-6.26-4.242-39.342-4.127-52.225c0.02-3.207,0.058-5.165,0.058-5.165
			s-35.271-4.781-55.104,3.245c0,0,7.834,17.011,10.714,35.77c0.269,1.785,0.499,3.571,0.672,5.356
			c0.384,3.782,0.499,7.564,0.287,11.252c-0.287,4.876-2.803,9.196-6.814,13.421c-3.648,3.877-8.603,7.698-14.209,11.788
			c-3.667,2.649-7.604,5.434-11.674,8.447c0,0.002,0,0.002-0.001,0.003c-0.345,22.088,1.212,58.411-2.878,97.169
			c-1.037,9.83-4.303,19.238-9.447,27.571c-2.035,3.322-4.378,6.471-6.988,9.408c-20.832,23.366-57.773,69.945-49.651,98.938
			c0.596,27.342,231.207,63.265,226.272,33.236c0,0,34.656-167.021,53.376-207.342c0.672-1.478,1.286-2.919,1.844-4.397
			c5.999-15.913,4.987-32.276,2.959-46.923C1377.714,463.69,1391.046,464.197,1391.046,464.197z"/>
		<path style="fill:#ED7D2B;" d="M1246.877,673.743c-45.484-0.48-84-47.712-107.539-85.46c5.145-8.333,8.41-17.741,9.447-27.571
			c4.09-38.758,2.533-75.081,2.878-97.169c0.001-0.001,0.001-0.001,0.001-0.003c4.07-3.014,8.007-5.798,11.674-8.447
			c5.606-4.09,10.561-7.911,14.208-11.788C1214.795,506.261,1308.548,674.396,1246.877,673.743z"/>
		<path style="fill:#FFB27D;" d="M1500.671,709.165c0,0-29.544-21.177-47.163-17.085c-15.662,3.559-49.12-3.561-55.706-4.983
			c-7.83-4.271-17.262-9.434-27.229-15.129c-24.027-13.523-51.613-30.077-70.478-43.78c-10.856-7.83-19.043-14.771-21.891-19.756
			c-4.449-7.653-9.433-19.754-14.95-34.704c-2.847-7.831-5.872-16.373-8.898-25.45c-5.34-14.949-10.678-31.146-16.195-47.339
			c-9.966-29.544-20.646-59.267-30.789-82.226c-6.585-14.415-12.992-26.34-19.043-33.636c-4.806-5.874-9.434-8.898-13.883-8.185
			c-0.711,0.176-1.246,0.354-1.779,0.532c0,0-25.628,7.119-25.983,58.729c-0.179,2.851,0,5.875,0.178,9.076
			c0.356,9.078,2.136,20.114,4.806,32.215c4.271,20.289,11.39,43.781,20.288,67.631c2.491,6.407,4.983,12.991,7.653,19.576
			c19.221,47.698,43.959,92.191,64.781,107.316c0.891,0.713,1.603,1.247,2.492,1.78c8.721,5.52,21.535,11.035,36.306,16.194
			c21.002,7.122,45.918,13.526,68.164,18.867h0.178c12.992,2.848,24.918,5.518,34.884,7.475c0,0,2.135,0.533,5.872,1.245
			c9.433,2.313,28.832,7.298,47.164,14.417c25.628,10.143,41.646-6.587,53.035-11.391
			C1503.875,715.929,1500.671,709.165,1500.671,709.165z"/>
		<path style="fill:#F99746;" d="M1207.31,418.787c-34.263-9.446-60.691,17.306-60.691,17.306
			c0.431-51.528,26.079-58.582,26.079-58.582C1183.017,373.237,1194.976,391.108,1207.31,418.787z"/>
		<path style="fill:#233862;" d="M1158.372,1478.532h-118.448c0,0-2.839-18.053,3.349-31.748
			c5.927-13.143,15.213-19.114,12.99-35.016c7.525,7.75,19.793,16.428,36.917,14.124c2.098,3.402,13.543,21.605,20.552,26.642
			C1121.472,1458.096,1155.987,1456.114,1158.372,1478.532z"/>
		<path style="fill:#233862;" d="M1412.693,1478.532h-118.446c0,0-4.429-18.892,3.347-31.748
			c6.884-11.374,4.246-17.854-0.852-27.265c5.365,2.196,12.307,4.195,19.949,3.757c5.901-0.339,12.142-3.018,17.614-6.195
			c5.099,5.812,26.927,30.552,33.748,35.453C1375.794,1458.096,1410.311,1456.114,1412.693,1478.532z"/>
	</g>
	<g>
		<rect x="1263.813" y="1129.113" style="fill:#C6601A;" width="433.568" height="349.419"/>
		<rect x="1521.887" y="1129.119" style="fill:#F1A34F;" width="392.279" height="349.411"/>
		<g>
			<path style="fill:#D3671E;" d="M1594.402,1189.369c-3.972,0-7.19,3.112-7.19,6.953s3.219,6.953,7.19,6.953
				c3.97,0,7.189-3.112,7.189-6.953S1598.372,1189.369,1594.402,1189.369z"/>
			<path style="fill:#D3671E;" d="M1851.051,1196.322c0-3.841,3.219-6.953,7.191-6.953c3.97,0,7.189,3.112,7.189,6.953
				s-3.22,6.953-7.189,6.953C1854.27,1203.275,1851.051,1200.163,1851.051,1196.322z"/>
			<path style="fill:#D3671E;" d="M1594.402,1409.479c-3.972,0-7.19,3.113-7.19,6.953c0,3.839,3.219,6.953,7.19,6.953
				c3.97,0,7.189-3.114,7.189-6.953C1601.592,1412.593,1598.372,1409.479,1594.402,1409.479z"/>
			<path style="fill:#D3671E;" d="M1851.051,1416.433c0-3.84,3.219-6.953,7.191-6.953c3.97,0,7.189,3.113,7.189,6.953
				c0,3.839-3.22,6.953-7.189,6.953C1854.27,1423.386,1851.051,1420.271,1851.051,1416.433z"/>
		</g>
		<g>
			<path style="fill:#B25618;" d="M1304.64,1196.322c0-3.841,1.993-6.953,4.453-6.953s4.454,3.112,4.454,6.953
				s-1.994,6.953-4.454,6.953S1304.64,1200.163,1304.64,1196.322z"/>
			<path style="fill:#B25618;" d="M1468.058,1196.322c0-3.841,1.994-6.953,4.454-6.953s4.454,3.112,4.454,6.953
				s-1.994,6.953-4.454,6.953S1468.058,1200.163,1468.058,1196.322z"/>
			<path style="fill:#B25618;" d="M1304.64,1416.433c0-3.84,1.993-6.953,4.453-6.953s4.454,3.113,4.454,6.953
				c0,3.839-1.994,6.953-4.454,6.953S1304.64,1420.271,1304.64,1416.433z"/>
			<ellipse style="fill:#B25618;" cx="1472.512" cy="1416.433" rx="4.454" ry="6.953"/>
		</g>
		<path style="fill:#D3671E;" d="M1263.813,1129.682c0,0,58.92-54.419,97.785-37.824c51.161,21.845,172.141,15.759,202.663,10.123
			c30.521-5.635,268.95,11.198,349.905,27.139L1263.813,1129.682z"/>
		<path style="opacity:0.4;fill:#D86713;" d="M1914.166,1386.873v91.657h-392.279v-349.411h65.811l1.291,0.561
			C1588.988,1129.68,1624.206,1366.693,1914.166,1386.873z"/>
	</g>
	<g>
		<path style="fill:#163560;" d="M2009.686,1172.618c0,0-79.734-11.3-84.366-24.169c0,0,5.536-11.634-3.214-14.672
			c-2.35-0.815-6.294-2.316-8.051-0.091l0.111,23.733c0,0,8.593,8.376,13.414,15.133c2.66,3.727,54.182,25.297,54.182,25.297
			L2009.686,1172.618z"/>
		<path style="fill:#163560;" d="M2173.98,1346.711c7.558-10.922-0.297-88.089-54.728-64.661
			c-11.559,3.495-25.471,11.857-42.129,27.118c0,0-23.915,56.343,70.386,93.611c0,0,9.344,4.042,10.673,12.63
			c1.328,8.587,2.817,47.363-0.383,48.535c-3.201,1.171-7.937-3.274-11.389,1.618c-3.452,4.894-2.237,12.97-2.237,12.97h34.267
			c0,0,16.375-87.019,15.455-93.94C2192.975,1377.669,2165.013,1359.674,2173.98,1346.711z"/>
		<path style="fill:#233862;" d="M2039.55,1031.311c0,0,18.135,38.029,8.12,49.436l-28.176-22.63
			C2019.494,1058.116,2019.354,1046.916,2039.55,1031.311z"/>
		<path style="fill:#2B478B;" d="M2233.842,1236.105c-7.398-13.413-18.485-35.839-3.856-44.993
			c12.472-7.804,7.694-24.066,0.481-27.959c-15.184-8.195-30.61,2.169-37.842,12.293c-13.76,19.264,4.518,49.37,4.518,49.37
			c17.275,37.198-18.289,56.563-35.439,63.47c-9.787-14.563-19.883-25.494-28.881-34.027c-5.909-5.601-11.332-10.167-15.881-14.052
			c-48.275-41.265-36.583-56.357-48.045-74.91c-2.25-3.675-11.133-13.664-13.49-16.864c-2.336-3.171-3.183-14.459-3.462-24.399
			c5.425-4.619,6.024-9.801,6.024-9.801c0.516,2.104-0.045,4.251-0.045,4.251c5.625-4.563,4.35-15.075,4.35-15.075
			c1.243,1.521,1.737,4.777,1.737,4.777c2.826-16.363-7.243-29.707-7.317-29.806c1.774-15.366-10.969-42.096-10.969-42.096
			c-9.344,7.216-14.33,13.49-16.996,18.152c-8.721-2.643-19.043-2.463-29.807,8.101c-3.305,3.242-13.102,5.871-17.721,5.275
			c-2.549-0.329-8.344,12.427-8.572,14.17c-2.529,19.291,3.598,28.836,14.619,38.709c1.546,4.347,2.73,10.191,0.021,14.121
			c0,0,2.324-0.946,2.609-1.695c-0.193,1.031-1.454,7.095-4.771,9.813c0,0,1.49-0.174,2.241-0.526
			c-2.891,3.668-13.885,18.861-13.734,37.576c-23.125,0.194-45.122-1.223-47.254-7.146c0,0,4.988-9.762-3.214-14.672
			c-2.134-1.277-5.752-2.171-8.992-2.08l-0.398,26.648c0,0,10.045,7.45,14.867,14.207c1.654,2.318,34.014,16.923,58.218,27.622
			c14.092,61.082,59.348,96.394,74.324,106.631c2.162,18.66,13.243,42.938,45.018,71.218c0,0,7.385,7.006,5.681,15.527
			s-13.634,45.446-17.042,45.446c-3.409,0-14.771-4.923-19.693-1.514c-4.924,3.407,1.894,16.663,1.894,16.663h7.015h20.631h7.016
			c0,0,42.796-70.442,44.311-77.26c1.515-6.816-18.557-33.327-5.68-42.417c5.521-3.897,13.185-25.271,11.592-44.895
			C2178.803,1308.063,2257.005,1278.101,2233.842,1236.105z"/>
		<path style="fill:#163560;" d="M1980.379,1067.922c0,0,1.563-1.087,3.238-0.25c0,0-0.431,6.416-6.713,6.809
			C1976.904,1074.48,1978.712,1068.917,1980.379,1067.922z"/>
		<g>
			<path style="fill:#163560;" d="M1991.902,1082.315c0.236,0.078,23.744,8.842,40.59,28.179l0,0
				c-17.139-19.686-40.094-28.867-40.338-28.947L1991.902,1082.315z"/>
		</g>
		<g>
			<path style="fill:#163560;" d="M1989.711,1083.975c0.252,0.157,24.889,16.92,38.849,43.994l0,0
				c-14.198-27.56-38.081-44.647-38.339-44.81L1989.711,1083.975z"/>
		</g>
		<g>
			<path style="fill:#163560;" d="M1987.179,1085.978c0.179,0.175,17.503,18.32,24.219,43.071l0,0
				c-6.827-25.192-23.473-43.474-23.655-43.652L1987.179,1085.978z"/>
		</g>
		<path style="fill:#233862;" d="M2045.725,1036.284c0,0,1.346,29.398,4.234,34.844c2.889,5.446,6.733,7.255,6.733,7.255
			C2058.469,1063.017,2045.725,1036.284,2045.725,1036.284z"/>
	</g>
	<g>
		<g>
			<path style="fill:#F6DBC3;" d="M680.817,565.948v258.654H358.185V693.627c-3.597,2.66-7.183,5.37-10.75,8.127v133.599h344.123
				V564.049C687.971,564.666,684.394,565.292,680.817,565.948z"/>
		</g>
		<path style="fill:#F6DBC3;" d="M669.537,568.021v245.242H368.731V686C461.471,620.498,563.021,588.104,669.537,568.021z"/>
	</g>
</g>
</svg>
