<?xml version="1.0" encoding="utf-8"?>
<!-- Generator: Adobe Illustrator 27.5.0, SVG Export Plug-In . SVG Version: 6.00 Build 0)  -->
<svg version="1.1" xmlns="http://www.w3.org/2000/svg" xmlns:xlink="http://www.w3.org/1999/xlink" x="0px" y="0px"
	 viewBox="0 0 500 500" style="enable-background:new 0 0 500 500;" xml:space="preserve">
<g id="BACKGROUND">
	<rect style="fill:#FFFFFF;" width="500" height="500"/>
</g>
<g id="OBJECTS">
	<g>
		<path style="fill:#F2F2F2;" d="M450.007,192.19c0.275-10.028-0.252-19.994-4.775-28.479
			c-7.231-13.568-15.088-28.423-23.839-41.381c-14.139-20.938-38.188-45.899-65.19-47.387c-6.155-0.339-12.163,1.676-18.04,3.537
			c-23.635,7.485-48.736,12.895-73.137,8.513c-30.895-5.549-58.897-26.448-90.238-24.701c-16.738,0.933-32.547,8.429-46.114,18.276
			c-24.09,17.485-42.345,42.869-51.256,71.27c-8.992,28.659-8.568,59.543-16.792,88.432c-6.538,22.966-18.426,44.248-23.661,67.545
			c-7.973,35.482,2.714,77.034,33.048,97.094c11.732,7.758,25.466,11.876,39.149,15.132c24.78,5.896,50.098,9.287,75.492,11.039
			c23.204,1.602,44.689,4.21,68.027,1.226c18.82-2.407,37.791-5.117,55.538-11.827c24.138-9.126,45.016-25.269,68.662-35.605
			c15.906-6.953,33.109-11.306,47.629-20.819c29.208-19.137,42.427-57.447,36.961-91.936c-2.969-18.734-10.727-36.623-11.977-55.55
			C448.991,208.945,449.778,200.546,450.007,192.19z"/>
		<g>
			<path style="fill:#DEDEDE;" d="M309.958,253.013c-1.283-2.271-2.714-4.464-4.115-6.664c-0.683-1.073-1.37-2.144-2.064-3.21
				c-0.366-0.561-0.74-1.117-1.114-1.673c-0.334-0.498-0.64-1.077-1.08-1.488c-0.021-0.02-0.048-0.023-0.075-0.021
				c-0.067-0.064-0.173-0.091-0.245-0.009c-2.193,2.506-4.168,5.239-6.163,7.904c-2.012,2.688-3.978,5.41-5.893,8.166
				c-1.029,1.481-2.061,2.965-3.036,4.483c-0.464-1.517-1.094-2.995-1.668-4.469c-0.63-1.621-1.27-3.238-1.919-4.852
				c-1.291-3.21-2.62-6.406-3.984-9.585c-0.718-1.672-1.455-3.334-2.205-4.991c0.002-0.002,0.004-0.004,0.005-0.005
				c0.081-0.084,0.003-0.186-0.088-0.182c-0.049-0.108-0.095-0.217-0.144-0.325c-0.079-0.174-0.328-0.023-0.254,0.149
				c0.051,0.117,0.1,0.234,0.151,0.351c-1.348,1.125-2.611,2.361-3.901,3.552l-4.12,3.804c-2.722,2.513-5.442,5.027-8.152,7.552
				c-0.127,0.118,0.063,0.307,0.19,0.19c2.734-2.5,5.458-5.011,8.182-7.523c1.349-1.244,2.698-2.489,4.047-3.733
				c1.291-1.191,2.624-2.352,3.857-3.603c2.709,6.269,5.359,12.56,7.831,18.927c0.65,1.676,1.224,3.405,1.977,5.039c0,0,0,0,0,0
				c-0.071,0.111,0.005,0.204,0.103,0.231c0.013,0.028,0.024,0.056,0.037,0.083c0.059,0.123,0.251,0.036,0.217-0.091
				c-0.009-0.033-0.021-0.065-0.031-0.098c1.926-2.728,3.79-5.498,5.741-8.21c1.942-2.699,3.928-5.366,5.959-7.999
				c1.157-1.5,2.368-2.962,3.49-4.488c0.216,0.504,0.566,0.965,0.857,1.425c0.34,0.537,0.677,1.076,1.019,1.612
				c0.703,1.1,1.406,2.2,2.101,3.305c1.391,2.209,2.717,4.462,4.145,6.647C309.754,253.426,310.085,253.237,309.958,253.013z"/>
			<path style="fill:#DEDEDE;" d="M325.807,228.281c-3.895,6.906-7.798,13.804-11.771,20.666c-1.108,1.913-2.224,3.821-3.306,5.748
				c-0.091,0.162,0.153,0.304,0.249,0.145c4.056-6.75,7.97-13.596,11.832-20.458c1.109-1.97,2.209-3.945,3.272-5.94
				C326.18,228.261,325.909,228.101,325.807,228.281z"/>
			<path style="fill:#DEDEDE;" d="M326.412,227.147c-0.037,0-0.037,0.058,0,0.058C326.449,227.204,326.449,227.147,326.412,227.147z
				"/>
			<path style="fill:#DEDEDE;" d="M350.616,259.214c-6.046-8.773-12.409-17.341-18.715-25.928c-1.784-2.429-3.572-4.857-5.413-7.244
				c-0.108-0.14-0.35-0.009-0.243,0.142c3.08,4.366,6.274,8.653,9.412,12.978c3.12,4.299,6.228,8.608,9.323,12.925
				c1.756,2.448,3.5,4.905,5.286,7.331C350.419,259.623,350.766,259.431,350.616,259.214z"/>
			<path style="fill:#DEDEDE;" d="M343.169,256.892c0,3.303,2.677,5.98,5.98,5.98c3.303,0,5.98-2.677,5.98-5.98
				c0-3.303-2.677-5.98-5.98-5.98C345.846,250.912,343.169,253.59,343.169,256.892z"/>
			<path style="fill:#DEDEDE;" d="M303.622,240.55c0,1.75-1.419,3.169-3.169,3.169c-1.75,0-3.169-1.419-3.169-3.169
				c0-1.75,1.419-3.169,3.169-3.169C302.203,237.381,303.622,238.8,303.622,240.55z"/>
			<path style="fill:#DEDEDE;" d="M264.052,251.956c0,2.546-2.064,4.611-4.611,4.611c-2.546,0-4.611-2.064-4.611-4.611
				s2.064-4.611,4.611-4.611C261.987,247.345,264.052,249.41,264.052,251.956z"/>
			<path style="fill:#DEDEDE;" d="M280.44,237.105c0,3.061-2.482,5.543-5.543,5.543c-3.061,0-5.543-2.482-5.543-5.543
				c0-3.061,2.482-5.543,5.543-5.543C277.958,231.562,280.44,234.044,280.44,237.105z"/>
			<path style="fill:#DEDEDE;" d="M322.342,226.751c0,2.574,2.087,4.661,4.661,4.661c2.574,0,4.661-2.087,4.661-4.661
				c0-2.574-2.087-4.661-4.661-4.661C324.429,222.09,322.342,224.177,322.342,226.751z"/>
			<path style="fill:#DEDEDE;" d="M306.504,254.383c0-2.287,1.854-4.142,4.141-4.142s4.142,1.854,4.142,4.142
				c0,2.287-1.854,4.141-4.142,4.141S306.504,256.67,306.504,254.383z"/>
			<path style="fill:#DEDEDE;" d="M282.211,259.302c0-2.033,1.648-3.682,3.682-3.682c2.033,0,3.682,1.648,3.682,3.682
				c0,2.033-1.648,3.682-3.682,3.682C283.859,262.984,282.211,261.335,282.211,259.302z"/>
		</g>
		<g>
			<path style="fill:#DEDEDE;" d="M141.279,209.905c1.438-2.546,3.043-5.004,4.613-7.471c0.766-1.203,1.536-2.403,2.314-3.598
				c0.41-0.629,0.83-1.252,1.248-1.875c0.374-0.558,0.717-1.208,1.21-1.668c0.024-0.022,0.054-0.026,0.084-0.023
				c0.075-0.072,0.194-0.102,0.274-0.01c2.459,2.81,4.673,5.873,6.909,8.861c2.255,3.013,4.459,6.064,6.607,9.155
				c1.154,1.66,2.311,3.323,3.404,5.025c0.52-1.7,1.227-3.357,1.869-5.01c0.706-1.817,1.424-3.63,2.151-5.439
				c1.447-3.599,2.937-7.181,4.466-10.745c0.804-1.874,1.631-3.738,2.472-5.595c-0.002-0.002-0.004-0.004-0.006-0.006
				c-0.091-0.094-0.003-0.208,0.098-0.204c0.055-0.121,0.106-0.244,0.161-0.365c0.089-0.194,0.368-0.025,0.285,0.167
				c-0.057,0.131-0.112,0.263-0.169,0.394c1.512,1.261,2.927,2.647,4.373,3.982l4.619,4.264c3.051,2.817,6.1,5.636,9.139,8.466
				c0.143,0.133-0.07,0.344-0.213,0.213c-3.065-2.803-6.119-5.617-9.172-8.433c-1.512-1.395-3.024-2.79-4.536-4.185
				c-1.447-1.335-2.941-2.636-4.324-4.039c-3.037,7.028-6.008,14.08-8.779,21.217c-0.729,1.878-1.372,3.817-2.216,5.649c0,0,0,0,0,0
				c0.079,0.125-0.006,0.228-0.115,0.258c-0.015,0.031-0.027,0.063-0.041,0.093c-0.066,0.138-0.282,0.04-0.243-0.102
				c0.01-0.037,0.024-0.073,0.034-0.11c-2.159-3.058-4.249-6.163-6.436-9.203c-2.177-3.025-4.404-6.015-6.68-8.966
				c-1.297-1.682-2.655-3.32-3.913-5.031c-0.242,0.566-0.635,1.082-0.961,1.597c-0.381,0.602-0.758,1.207-1.142,1.807
				c-0.788,1.233-1.576,2.466-2.355,3.705c-1.559,2.477-3.045,5.002-4.647,7.451C141.507,210.368,141.137,210.156,141.279,209.905z"
				/>
			<path style="fill:#DEDEDE;" d="M123.512,182.18c4.366,7.742,8.742,15.475,13.195,23.167c1.242,2.145,2.493,4.283,3.706,6.444
				c0.102,0.182-0.172,0.341-0.279,0.163c-4.547-7.567-8.935-15.241-13.264-22.934c-1.243-2.209-2.476-4.422-3.667-6.659
				C123.094,182.158,123.398,181.978,123.512,182.18z"/>
			<path style="fill:#DEDEDE;" d="M122.834,180.909c0.042,0,0.042,0.065,0,0.065C122.793,180.973,122.792,180.909,122.834,180.909z"
				/>
			<path style="fill:#DEDEDE;" d="M95.701,216.856c6.778-9.834,13.91-19.439,20.979-29.065c2-2.723,4.004-5.445,6.067-8.12
				c0.121-0.157,0.392-0.01,0.273,0.159c-3.453,4.895-7.033,9.7-10.551,14.548c-3.498,4.82-6.981,9.649-10.452,14.489
				c-1.968,2.745-3.924,5.498-5.926,8.218C95.922,217.314,95.534,217.099,95.701,216.856z"/>
			<circle style="fill:#DEDEDE;" cx="97.346" cy="214.253" r="6.704"/>
			<path style="fill:#DEDEDE;" d="M148.381,195.934c0,1.962,1.59,3.553,3.553,3.553c1.962,0,3.552-1.59,3.552-3.553
				c0-1.962-1.59-3.553-3.552-3.553C149.972,192.381,148.381,193.972,148.381,195.934z"/>
			<path style="fill:#DEDEDE;" d="M192.74,208.72c0,2.855,2.314,5.169,5.169,5.169s5.169-2.314,5.169-5.169
				s-2.314-5.169-5.169-5.169S192.74,205.865,192.74,208.72z"/>
			<path style="fill:#DEDEDE;" d="M174.369,192.072c0,3.432,2.782,6.214,6.214,6.214c3.432,0,6.214-2.782,6.214-6.214
				s-2.782-6.214-6.214-6.214C177.151,185.858,174.369,188.64,174.369,192.072z"/>
			<path style="fill:#DEDEDE;" d="M127.396,180.465c0,2.886-2.339,5.225-5.225,5.225c-2.886,0-5.225-2.339-5.225-5.225
				c0-2.886,2.34-5.225,5.225-5.225C125.057,175.24,127.396,177.58,127.396,180.465z"/>
			<circle style="fill:#DEDEDE;" cx="140.508" cy="211.44" r="4.643"/>
			<path style="fill:#DEDEDE;" d="M172.384,216.955c0-2.28-1.848-4.127-4.127-4.127s-4.127,1.848-4.127,4.127
				c0,2.279,1.848,4.127,4.127,4.127S172.384,219.234,172.384,216.955z"/>
		</g>
		<g>
			<g>
				<g>
					<path style="fill:#5CC9BF;" d="M196.711,243.564c2.388,3.017,5.288,5.569,7.862,8.418c2.726,3.017,4.827,6.529,7.548,9.548
						c2.374,2.634,5.206,4.848,8.318,6.547c2.199,1.201,7.309,4.08,9.907,3.434c5.048-1.256,1.265-9.755-0.317-12.553
						c-1.897-3.356-4.563-6.261-7.39-8.855c-2.947-2.704-6.153-5.105-9.328-7.53c-3.566-2.722-7.131-5.444-10.697-8.166
						c-0.861-0.658-1.708-1.342-2.593-1.967c-0.733-0.518-1.537-0.954-2.442-1.05c-1.555-0.165-2.966,0.856-3.712,2.159
						C191.918,236.956,194.628,240.932,196.711,243.564z"/>
					<path style="fill:#5CC9BF;" d="M248.212,245.316c-0.719-3.886-2.297-7.562-3.203-11.409c-1.199-5.093-1.199-10.393-2.136-15.54
						c-0.937-5.147-3.042-10.42-7.32-13.431c-1.181-0.831-2.537-1.477-3.977-1.586c-2.595-0.197-5.08,1.414-6.543,3.566
						c-1.464,2.152-2.064,4.77-2.422,7.348c-1.412,10.165,0.584,20.773,5.593,29.73c1.563,2.795,3.41,5.434,4.781,8.328
						c1.815,3.83,2.758,8.049,2.956,12.283c0.086,1.839,0.05,3.757,0.848,5.416c0.776,1.614,3.589,4.069,5.533,3.036
						c1.735-0.921,2.928-6.365,3.545-8.128C248.058,258.668,249.436,251.934,248.212,245.316z"/>
					<path style="fill:#5CC9BF;" d="M267.969,245.67c0.317-2.12,0.508-4.222,0.552-6.288c0.062-2.867-0.879-6.545-3.731-6.848
						c-1.435-0.152-2.781,0.697-3.864,1.65c-5.117,4.502-6.965,11.568-8.558,18.194c-1.36,5.661-2.755,11.315-4.082,16.984
						c-0.977,4.174-2.425,9.746-0.19,13.728c0.23,0.41,0.516,0.816,0.935,1.03c1.18,0.601,2.453-0.595,3.21-1.681
						C259.36,272.229,266.031,258.611,267.969,245.67z"/>
					<path style="fill:#222221;" d="M259.774,252.836c-3.713,7.534-6.972,15.291-9.748,23.218
						c-2.795,7.982-5.102,16.134-6.902,24.397c-0.499,2.291-0.96,4.591-1.38,6.897c-0.423,2.32-0.873,4.657-1.105,7.005
						c-0.021,0.218,0.341,0.267,0.384,0.052c0.811-4.109,1.389-8.258,2.248-12.361c0.859-4.101,1.843-8.176,2.949-12.217
						c2.203-8.045,4.889-15.958,8.043-23.68c1.81-4.431,3.777-8.796,5.889-13.09C260.275,252.805,259.898,252.583,259.774,252.836z"
						/>
					<path style="fill:#222221;" d="M242.652,240.436c-0.929,16.167-1.817,32.335-2.702,48.504
						c-0.123,2.238-0.241,4.477-0.358,6.716c-0.061,1.161-0.122,2.322-0.183,3.482c-0.061,1.158-0.19,2.327-0.062,3.482
						c0.029,0.258,0.425,0.365,0.491,0.066c0.203-0.925,0.225-1.859,0.275-2.803c0.057-1.078,0.115-2.156,0.172-3.233
						c0.106-1.99,0.215-3.98,0.316-5.97c0.207-4.063,0.415-8.125,0.622-12.188c0.415-8.125,0.824-16.251,1.227-24.376
						c0.226-4.56,0.449-9.12,0.67-13.681C243.135,240.134,242.669,240.136,242.652,240.436z"/>
					<path style="fill:#222221;" d="M234.696,300.711c-0.1-2.173-0.227-4.345-0.381-6.515c-0.303-4.258-0.71-8.509-1.222-12.747
						c-0.24-1.991-0.434-4.013-0.843-5.978c-0.384-1.845-1.119-3.488-2.274-4.979c-1.208-1.558-2.634-2.951-3.984-4.384
						c-1.47-1.56-2.941-3.121-4.411-4.681c-3.337-3.541-6.671-7.084-10.005-10.627c-0.197-0.209-0.51,0.105-0.315,0.315
						c5.677,6.113,11.456,12.148,17.023,18.361c1.295,1.445,2.423,2.985,2.978,4.868c0.572,1.94,0.739,4.005,0.985,6.005
						c0.517,4.195,0.932,8.403,1.244,12.619c0.173,2.333,0.314,4.668,0.423,7.005c0.112,2.379,0.114,4.768,0.351,7.137
						c0.034,0.337,0.511,0.347,0.531,0C234.921,304.978,234.794,302.843,234.696,300.711z"/>
				</g>
				<g>
					<g>
						<g>
							<g>
								<path style="fill:#C46345;" d="M254.833,287.767c-1.898,8.736-3.188,17.896-1.829,26.688
									c-3.057,0.017-18.482,0.101-23.448,0.046c0.06-0.765,0.119-1.53,0.158-2.297c0.281-5.46-0.067-10.941-1.697-16.18
									c-0.396-1.274-1.212-5.399-1.734-6.634l0.101-1.624H254.833z"/>
							</g>
						</g>
					</g>
				</g>
			</g>
			<path style="fill:#5CC9BF;" d="M281.655,314.255c-11.058-0.002-22.115-0.004-33.173-0.006
				c-11.058-0.002-22.115-0.004-33.173-0.006c-6.236-0.001-12.471-0.002-18.707-0.003c-0.86,0-0.861,1.336,0,1.336
				c11.058-0.002,22.115-0.004,33.173-0.006c11.058-0.002,22.115-0.004,33.173-0.006c6.235-0.001,12.471-0.003,18.707-0.004
				c0.42,0,0.63-0.326,0.63-0.652C282.285,314.581,282.076,314.255,281.655,314.255z"/>
			<path style="fill:#5CC9BF;" d="M217.969,315.365c-0.049-0.44-0.73-0.785-0.961-0.26c-1.033,2.352-1.229,5.135-1.65,7.656
				c-0.451,2.706-0.895,5.413-1.314,8.125c-0.839,5.427-1.677,10.854-2.516,16.281c-1.677,10.855-3.349,21.711-5.01,32.568
				c-0.932,6.087-1.863,12.174-2.795,18.262c-0.208,1.357,1.87,1.943,2.079,0.573c3.324-21.718,6.633-43.439,9.925-65.162
				c0.449-2.965,0.891-5.929,1.305-8.899c0.196-1.402,0.406-2.803,0.586-4.208C217.829,318.676,218.15,317.002,217.969,315.365z"/>
			<path style="fill:#5CC9BF;" d="M272.344,393.296c-0.155-1.322-0.311-2.645-0.466-3.967c-0.32-2.727-0.641-5.455-0.961-8.182
				c-0.631-5.372-1.262-10.744-1.893-16.116c-1.252-10.661-2.505-21.322-3.757-31.983c-0.698-5.943-1.3-11.92-2.216-17.834
				c-0.148-0.959-1.779-0.742-1.703,0.231c0.842,10.763,2.363,21.507,3.6,32.231c1.23,10.661,2.459,21.322,3.689,31.984
				c0.343,2.975,0.686,5.95,1.03,8.926l0.515,4.463c0.171,1.478,0.207,3.04,0.699,4.452c0.341,0.979,1.647,0.759,1.749-0.237
				C272.765,395.943,272.498,394.608,272.344,393.296z"/>
		</g>
		<g>
			<g>
				<path style="fill:#B5C7BA;" d="M441.771,187.121c0.11,6.93-4.208,13.857-13.299,13.857c-10.74,0-17.511-12.378-11.614-21.436
					C424.416,167.935,441.559,173.81,441.771,187.121z"/>
			</g>
			<path style="fill:#FFFFFF;" d="M433.538,178.924c-0.97-0.699-2.334-0.737-3.494-0.657c-0.214,0.015-0.425,0.044-0.636,0.073
				c-0.013-0.094-0.028-0.188-0.054-0.28c-0.017-0.061-0.025-0.123-0.038-0.184c-0.008-0.097-0.018-0.195-0.016-0.292
				c0.002-0.066,0.013-0.132,0.013-0.198c0-0.076-0.014-0.154-0.017-0.23c-0.012-0.273-0.11-0.576-0.318-0.767
				c-0.179-0.164-0.381-0.266-0.623-0.298c-0.231-0.031-0.49-0.001-0.692,0.129c-0.245,0.158-0.406,0.37-0.499,0.648
				c-0.153,0.463-0.104,0.95,0.002,1.419c0.033,0.145,0.079,0.287,0.135,0.425c0.025,0.062,0.055,0.121,0.081,0.182
				c-0.186,0.079-0.373,0.157-0.553,0.252c-1.917,1.013-3.396,3.163-3.107,5.397c0.32,2.472,2.804,2.923,4.816,3.358
				c1.027,0.222,1.935,0.603,2.447,1.573c0.397,0.753,0.474,1.706-0.032,2.43c-0.641,0.916-1.859,1.254-2.922,1.222
				c-0.653-0.02-1.29-0.18-1.909-0.383c-0.777-0.254-1.32-0.563-2.122-0.203c-0.327,0.146-0.547,0.678-0.413,1.015
				c0.466,1.173,1.973,1.408,3.11,1.582c0.135,0.021,0.271,0.027,0.406,0.042c-0.006,0.022-0.012,0.044-0.018,0.066
				c-0.095,0.361-0.131,0.727-0.173,1.097c-0.034,0.297-0.069,0.595-0.103,0.892c-0.059,0.505-0.167,0.988,0.255,1.396
				c0.287,0.278,0.808,0.389,1.158,0.15c0.227-0.155,0.432-0.344,0.497-0.626c0.03-0.131,0.038-0.272,0.047-0.405
				c0.011-0.16,0.018-0.32,0.027-0.48c0.017-0.297,0.034-0.595,0.051-0.892c0.017-0.301,0.034-0.592,0.009-0.892
				c-0.009-0.102-0.012-0.21-0.021-0.316c0.456-0.06,0.908-0.156,1.345-0.33c1.941-0.776,3.266-2.634,2.887-4.764
				c-0.374-2.099-2.073-3.396-4.077-3.787c-1.071-0.209-2.404-0.237-3.244-1.033c-0.908-0.86-0.447-2.406,0.134-3.318
				c0.701-1.101,1.91-1.777,3.154-2.078c1.474-0.357,2.969,0.089,4.418-0.233C433.796,179.545,433.785,179.102,433.538,178.924z"/>
		</g>
		<g>
			<g>
				<path style="fill:#B5C7BA;" d="M441.771,148.87c0.11,6.93-4.208,13.857-13.299,13.857c-10.74,0-17.511-12.378-11.614-21.436
					C424.416,129.684,441.559,135.559,441.771,148.87z"/>
			</g>
			<path style="fill:#FFFFFF;" d="M433.538,140.673c-0.97-0.699-2.334-0.737-3.494-0.657c-0.214,0.015-0.425,0.044-0.636,0.073
				c-0.013-0.094-0.028-0.188-0.054-0.28c-0.017-0.061-0.025-0.123-0.038-0.184c-0.008-0.097-0.018-0.195-0.016-0.292
				c0.002-0.066,0.013-0.132,0.013-0.198c0-0.076-0.014-0.154-0.017-0.23c-0.012-0.273-0.11-0.576-0.318-0.767
				c-0.179-0.165-0.381-0.266-0.623-0.298c-0.231-0.031-0.49-0.001-0.692,0.129c-0.245,0.158-0.406,0.37-0.499,0.648
				c-0.153,0.463-0.104,0.95,0.002,1.419c0.033,0.145,0.079,0.287,0.135,0.425c0.025,0.062,0.055,0.121,0.081,0.182
				c-0.186,0.079-0.373,0.157-0.553,0.252c-1.917,1.013-3.396,3.163-3.107,5.397c0.32,2.472,2.804,2.923,4.816,3.358
				c1.027,0.222,1.935,0.603,2.447,1.573c0.397,0.754,0.474,1.706-0.032,2.43c-0.641,0.916-1.859,1.254-2.922,1.222
				c-0.653-0.02-1.29-0.18-1.909-0.383c-0.777-0.254-1.32-0.563-2.122-0.203c-0.327,0.146-0.547,0.678-0.413,1.015
				c0.466,1.173,1.973,1.408,3.11,1.581c0.135,0.02,0.271,0.027,0.406,0.042c-0.006,0.022-0.012,0.044-0.018,0.066
				c-0.095,0.361-0.131,0.727-0.173,1.097c-0.034,0.297-0.069,0.595-0.103,0.892c-0.059,0.505-0.167,0.988,0.255,1.396
				c0.287,0.278,0.808,0.389,1.158,0.149c0.227-0.155,0.432-0.343,0.497-0.626c0.03-0.131,0.038-0.272,0.047-0.405
				c0.011-0.16,0.018-0.32,0.027-0.48c0.017-0.297,0.034-0.595,0.051-0.892c0.017-0.301,0.034-0.592,0.009-0.892
				c-0.009-0.102-0.012-0.21-0.021-0.316c0.456-0.06,0.908-0.156,1.345-0.33c1.941-0.776,3.266-2.634,2.887-4.764
				c-0.374-2.099-2.073-3.396-4.077-3.787c-1.071-0.209-2.404-0.237-3.244-1.033c-0.908-0.86-0.447-2.406,0.134-3.318
				c0.701-1.101,1.91-1.777,3.154-2.078c1.474-0.357,2.969,0.089,4.418-0.233C433.796,141.294,433.785,140.851,433.538,140.673z"/>
		</g>
		<g>
			<g>
				<path style="fill:#B5C7BA;" d="M224.67,103.477c0.48-4.499,2.876-8.82,6.398-11.719c12.684-10.443,86.382-10.343,72.467,18.936
					c-4.398,9.253-15.584,10.031-24.545,9.989c-12.196-0.057-24.442-0.116-36.57-1.554c-7.991-0.948-15.72-1.247-17.592-11.292
					C224.559,106.393,224.515,104.925,224.67,103.477z"/>
				<path style="fill:#B5C7BA;" d="M240.522,123.172c-1.813,6.374-5.482,12.409-11.04,16.019
					c11.987-4.09,21.991-15.343,21.945-28.009c-0.009-2.442-0.408-4.968-1.751-7.007c-1.368-2.077-3.551-3.169-5.98-3.094
					C240.302,107.298,242.505,116.199,240.522,123.172z"/>
			</g>
			<path d="M293.302,101.155c-7.29-0.298-14.614-0.111-21.91-0.108c-7.303,0.003-14.607,0.005-21.91,0.008
				c-4.12,0.001-8.24,0.005-12.36-0.05c-0.784-0.011-0.785,1.229,0,1.218c14.603-0.197,29.216-0.044,43.82-0.039
				c4.121,0.002,8.242,0.057,12.36-0.111C293.893,102.049,293.894,101.179,293.302,101.155z"/>
			<path d="M280.558,106.537c-7.408-0.147-14.828-0.028-22.238-0.018c-7.408,0.01-14.835-0.12-22.238,0.203
				c-0.454,0.02-0.455,0.686,0,0.706c7.403,0.323,14.83,0.194,22.238,0.203c7.41,0.01,14.829,0.129,22.238-0.018
				C281.251,107.6,281.252,106.551,280.558,106.537z"/>
			<path d="M291.855,106.935c-1.796-0.359-3.63-0.362-5.427-0.006c-0.536,0.106-0.307,0.915,0.225,0.817
				c1.638-0.301,3.329-0.274,4.958,0.074C292.189,107.944,292.433,107.051,291.855,106.935z"/>
		</g>
		<g>
			<path style="fill:#C46345;" d="M138.512,416.395c0.814,3.323,1.443,6.794,2.576,10.023c0.007,0.021,0.021,0.033,0.03,0.053h1.743
				c0.064-0.164,0.103-0.345,0.069-0.561c-0.486-3.092-1.452-6.153-2.199-9.194c-0.716-2.913-1.425-5.829-2.125-8.746
				c-1.436-5.98-2.839-11.969-4.208-17.965c-2.705-11.843-5.313-23.707-7.866-35.584c-1.449-6.739-2.895-13.476-4.423-20.198
				c-0.141-0.619-1.03-0.345-0.935,0.258c3.825,24.149,9.243,48.077,14.908,71.852C136.881,409.69,137.691,413.043,138.512,416.395z
				"/>
			<path style="fill:#C46345;" d="M66.92,425.47c0.466-1.357,0.932-2.713,1.398-4.07c0.987-2.873,1.976-5.746,2.961-8.62
				c1.995-5.819,3.979-11.642,5.968-17.464c3.93-11.498,7.897-22.984,11.77-34.501c2.218-6.595,4.72-13.184,6.487-19.915
				c0.185-0.705-0.916-1.236-1.225-0.516c-2.773,6.465-4.885,13.259-7.217,19.893c-2.318,6.594-4.59,13.203-6.877,19.808
				c-4.622,13.352-9.251,26.702-13.852,40.061c-0.611,1.775-1.222,3.549-1.834,5.324H66.92z"/>
			<path style="fill:#C46345;" d="M135.099,384.658c-9.457,0.139-18.915,0.184-28.373,0.19c-9.464,0.005-18.928-0.163-28.391,0.051
				c-0.571,0.013-0.635,0.86-0.05,0.897c9.438,0.593,18.895,0.644,28.348,0.704c9.456,0.06,18.914-0.005,28.369-0.134
				C136.098,386.351,136.202,384.642,135.099,384.658z"/>
			<path style="fill:#C46345;" d="M172.545,325.879c2.394-7.647,1.804-16.661-3.502-22.631c-10.778-12.126-31.48-4.66-46.172-11.542
				c-22.22-10.409-19.001-45.76-38.331-60.873c-15.443-12.073-38.853-4.425-47.96,11.831c-6.732,12.016-7.128,25.363-5.051,38.786
				c4.855,31.379,25.875,61.039,55.922,71.306c8.129,2.778,16.389,3.969,24.98,3.883c26.529-0.266,50.335-1.893,59.899-30.1
				C172.404,326.319,172.475,326.1,172.545,325.879z"/>
			<path style="fill:#222221;" d="M216.444,398.679c-0.043-0.139-3.866,1.253-4.532,0.726c-1.139-0.901-1.52-2.76-2.053-4.044
				c-0.643-1.547-1.636-2.875-2.564-4.267c-0.756-1.133-1.512-2.266-2.269-3.399c-0.554-0.83-1.116-1.676-1.397-2.633
				c-1.406-4.781,7.568-7.215,9.042-6.813c1.527,0.416-1.251,7.326,0.318,7.309c5.257-0.057,10.304-2.048,15.653-1.182
				c1.558,0.253,4.599,1.139,6.153,1.417c4.16,0.743,7.388,1.8,11.97,1.744c0.416-0.005,0.854-0.011,1.218,0.19
				c0.579,0.318,0.79,1.086,0.643,1.73c-0.147,0.644-0.576,1.184-1.025,1.668c-4.173,4.49-10.767,5.281-16.57,5.484
				c-5.36,0.188-10.764-0.813-15.685-2.951C215.559,395.36,215.934,397.041,216.444,398.679z"/>
			<path style="fill:#222221;" d="M159.523,422.746c-1.39-0.897-1.556,0.197-2.089,1.586c-0.489,1.277-0.866,2.596-1.123,3.94
				c-2.017-0.439-3.983-1.112-5.846-2.003c0.947-7.22,2.272-14.39,3.969-21.471c0.027-0.107,5.95,3.291,6.472,3.662
				c1.987,1.415,3.834,3.021,5.557,4.746c1.692,1.694,3.461,3.145,5.073,4.929c1.951,2.159,3.902,4.318,5.853,6.477
				c2.089,2.312,4.133,4.344,6.852,5.865c0.977,0.547,1.995,1.095,2.706,1.939c0.883,1.048,1.526,3.198,0.679,4.426
				c-0.653,0.948-2.004,1.041-3.15,0.938c-4.548-0.408-8.787-2.383-12.919-4.328c-1.268-0.597-2.544-1.199-3.675-2.025
				c-3.192-2.333-4.955-6.243-8.166-8.548C159.65,422.83,159.585,422.786,159.523,422.746z"/>
			<path style="fill:#F2A888;" d="M217.063,371.254c-2.563-8.289-6.954-25.886-9.639-34.136c-1.711-5.255-3.355-10.25-4.742-15.611
				c-2.605-10.07-4.648-19.189-12.667-26.182c-7.484-6.526-29.653-10.233-39.538-11.325c-6.462-0.714-11.801-0.241-17.83-2.674
				c-2.608-1.053-8.491,3.851-12.229,8.416c-4.273,5.219-9.449,7.855-10.352,15.299c-0.407,3.354,2.769,5.924,5.266,7.621
				c6.54,4.446,14.772,6.496,22.397,8.148c8.62,1.868,17.441,3.117,26.243,3.71c1.854,0.125,3.798,0.297,5.344,1.325
				c1.157,0.769,1.972,1.942,2.754,3.09c9.924,14.575,21.996,30.934,30.189,46.548C207.745,371.559,211.973,375.65,217.063,371.254z
				"/>
			<path style="fill:#F2A888;" d="M235.87,386.417c-0.782-0.805-3.106-1.07-3.761-1.292c-2.035-0.69-4.054-1.483-5.896-2.602
				c-5.433-3.302-8.914-11.048-10.94-16.8c-4.067-11.55-7.313-13.932-8.134-16.593c-5.023,4.283-21.944-13.608-27.33-9.76
				c3.966,7.633,8.647,14.964,12.964,22.403c1.66,2.861,3.32,5.721,4.975,8.585c1.338,2.315,2.505,4.752,3.619,7.181
				c0.931,2.029,1.544,5.98,3.68,6.852c1.794,0.732,4.068,0.57,5.989,1.013c2.119,0.489,4.185,1.182,6.255,1.844
				c3.958,1.265,8.053,2.548,12.263,2.166c1.502-0.137,2.976-0.483,4.444-0.828c0.784-0.184,1.666-0.443,2.022-1.166
				C236.22,387.013,236.13,386.685,235.87,386.417z"/>
			<path style="fill:#F2A888;" d="M120.496,234.799c4.762,7.296,7.502,15.704,9.917,24.074c0.638,2.21,1.279,4.474,2.606,6.354
				c1.767,2.503,4.547,4.055,7.193,5.598c6.509,3.796,12.763,8.031,18.704,12.667c0.404,0.315,0.827,0.661,0.99,1.147
				c0.358,1.068-0.691,2.065-1.678,2.608c-7.278,4-16.43,1.046-23.546-3.235c-9.372-5.638-17.541-13.72-21.804-23.792
				c-2.894-6.837-3.901-14.3-4.881-21.659c-0.391-2.934-2.434-13.539,1.682-13.786C113.524,224.546,118.736,232.103,120.496,234.799
				z"/>
			<path style="fill:#F2A888;" d="M176.277,424.163c-0.027-0.171-0.073-0.357-0.14-0.559c-0.601-1.81-2.491-4.129-3.32-6.099
				c-1.413-3.357-2.135-7.274-1.977-10.907c0.032-0.737,0.103-1.47,0.201-2.2c2.044-15.241,3.863-30.511,5.682-45.78
				c0.911-7.649,1.822-15.297,2.761-22.943c0.828-6.743,2.384-13.266,2.976-20.087c0.378-4.355,0.079-8.987-2.267-12.676
				c-2.076-3.265-5.575-5.443-9.281-6.556c-3.706-1.113-7.633-1.254-11.501-1.153c-9.024,0.236-18.013,1.751-26.616,4.487
				c-5.402,1.718-10.794,4.006-14.835,7.981c-1.942,1.91-3.615,4.611-2.857,7.227c0.481,1.659,1.841,2.897,3.19,3.976
				c6.868,5.499,15.072,9.318,23.701,11.034c2.365,0.471,4.855,0.824,6.824,2.216c2.225,1.574,2.19,3.373,2.154,5.735
				c-0.039,2.563,0.254,5.206,0.547,7.857c2.188,19.796,2.838,39.72,3.281,59.619c0.024,1.076,0.049,2.163,0.32,3.204
				c0.392,1.508,1.276,2.838,2.217,4.08c3.81,5.028,9.892,9.629,15.527,12.437C174.802,426.022,176.552,425.911,176.277,424.163z"/>
			<path style="fill:#F2A888;" d="M106.711,223.244c-1.561-1.176-4.5-2.213-5.618-3.807c-1.186-1.691-0.258-3.988,0.049-6.105
				c0.105-0.725,0.231-1.497,0.727-2.036c0.763-0.83,2.05-0.784,3.16-0.985c2.668-0.482,4.757-2.705,5.82-5.2
				c1.063-2.494,1.275-5.255,1.474-7.959c0.276-3.756,0.362-8.043-2.339-10.667c-1.156-1.123-2.685-1.773-4.216-2.275
				c-2.945-0.965-6.105-1.469-9.156-0.928c-3.051,0.542-5.984,2.229-7.573,4.89c-1.257,2.106-1.595,4.616-1.907,7.049
				c-0.608,4.751-1.217,9.503-1.825,14.254c-0.533,4.162,0.268,8.666-3.861,10.623c-5.982,2.836-11.358,8.676-10.58,15.704
				c0.669,6.042,5.637,10.738,11.859,9.992c3.478-0.417,7.905-3.052,11.248-2.353c1.435,0.3,2.772,0.95,4.174,1.379
				c3.445,1.109,7.256,0.791,10.148-1.508c2.711-2.155,4.149-5.589,4.207-9.009C112.578,229.753,110.281,225.934,106.711,223.244z"
				/>
			<path style="fill:#5CC9BF;" d="M80.514,223.135c1.965,1.798,4.481,2.86,6.982,3.776c2.426,0.888,5.11,1.376,7.703,1.094
				c1.683-0.183,3.848-0.779,4.957-2.144c1.287-1.584,1.84-4.022,1.836-6.015c3.413,0.894,7.595,1.685,10.559,3.746
				c3.285,2.284,4.588,7.219,5.914,10.897c3.742,10.378,5.168,21.428,6.1,32.367c0.106,1.245,0.23,2.558,0.953,3.577
				c0.497,0.699,1.23,1.189,1.957,1.644c7.564,4.727,16.408,7.532,25.227,8.336c4.603,0.419,9.205,0.839,13.808,1.258
				c-7.167,19.545-19.091,40.571-34.629,54.617c-0.813,0.735-1.689,1.502-2.77,1.684c-4.02,0.679-14.482-5.316-18.264-7.012
				c-6.367-2.855-12.442-6.57-16.784-12.148c-2.509-3.224-4.341-6.935-5.719-10.781c-3.464-9.672-2.799-19.059-1.727-29.041
				c-3.062-9.118-6.125-18.235-9.187-27.353c1.103-2.356,2.731-4.383,3.917-6.647c0.425-0.81,0.589-1.699,0.606-2.614
				c0.02-1.12-0.181-2.28-0.397-3.387c-0.211-1.08-4.979-12.529-6.356-11.365C76.974,226.128,78.744,224.632,80.514,223.135z"/>
			<path style="fill:#F2A888;" d="M88.159,248.537c1.001,7.139,1.22,14.413,0.723,21.536c-0.194,2.757-0.599,5.87-2.519,7.997
				c-1.289,1.429-3.163,2.347-5.088,2.364c-1.188,0.01-2.353-0.309-3.481-0.681c-4.799-1.582-7.422-6.257-8.677-10.981
				c-1.55-5.836-3.39-23.271-2.001-27.978c1.32-4.471,5.166-8.554,9.828-8.58c3.785-0.02,8.233,2.296,9.186,6.012
				C86.997,241.61,87.671,245.057,88.159,248.537z"/>
			<path style="fill:#5CC9BF;" d="M88.066,226.285c0.36,0.359,0.74,0.694,1.17,0.956c1.383,0.843,3.198,0.856,4.766,0.864
				c-0.266,0.755-0.757,1.288-1.174,1.966c-0.466,0.758-1.212,1.288-1.694,2.031c-0.459,0.707-0.799,1.484-1.137,2.256
				c-0.259,0.591-0.517,1.183-0.776,1.774c-0.279,0.639,0.168,1.633,0.286,2.305c0.161,0.92,0.298,1.846,0.398,2.775
				c0.19,1.761,0.257,3.543,0.091,5.309c-3.583,0.915-8.157,0.274-11.857,0.238c-4.258-0.041-8.515-0.16-12.768-0.357
				c-0.302-0.014-0.643-0.047-0.833-0.283c-0.152-0.188-0.16-0.45-0.159-0.692c0.006-2.465,0.15-4.927,0.552-7.36
				c0.393-2.378,0.453-4.805,1.054-7.165c0.273-1.074,0.636-2.137,1.229-3.074c2.158-3.412,5.98-4.951,9.604-6.316
				c1.934-0.729,3.868-1.457,5.803-2.186c0.95,2.304,2.706,4.133,4.423,5.888C87.383,225.563,87.715,225.935,88.066,226.285z"/>
			<path style="fill:#222221;" d="M99.577,196.408c0.4-2.144,0.528-4.654,3.433-4.317c0.925,0.107,1.752,0.604,2.624,0.932
				c2.547,0.957,6.301,0.629,8.632-0.796c0.971-0.593,1.923-1.339,2.346-2.396c0.423-1.056,0.113-2.474-0.917-2.954
				c-1.006-0.469-2.395,0.513-2.086,1.631c-1.412-4.504-5.453-7.373-9.776-8.817c-3.255-1.087-6.856-1.512-10.103-0.403
				c-2.598,0.887-4.742,2.674-6.621,4.624c-2.207,2.29-3.02,4.122-3.763,7.215c-0.519,2.159-1.038,4.318-1.557,6.476
				c-0.16,0.664-0.332,1.354-0.767,1.88c-1.176,1.422-3.407,0.917-5.236,1.156c-2.739,0.358-5.01,2.928-5.029,5.69
				c-0.045,6.687,10.667,7.793,15.427,8.493c1.264,0.186,2.579,0.345,3.8-0.03c2.558-0.786,3.854-3.56,4.848-6.045
				c1.471-3.676,3.108-7.327,4.426-11.061C99.396,197.297,99.493,196.861,99.577,196.408z"/>
			<g>
				<path style="fill:#FFFFFF;" d="M128.564,295.226c0.402,0.126,0.741,0.051,1.169-0.005c0.788-0.103,1.576-0.206,2.364-0.308
					c4.596-0.6,9.191-1.199,13.787-1.799c5.112-0.667,10.225-1.334,15.337-2.001c2.419-0.316,4.839-0.631,7.258-0.947
					c0.177-0.024,0.228-0.282,0.07-0.355c0,0-23.041-10.667-23.074-10.682c-0.27-0.125-1.118,0.15-1.4,0.188
					c-3.976,0.534-7.952,1.069-11.928,1.603c-5.392,0.725-10.785,1.45-16.177,2.174c-2.212,0.297-4.424,0.595-6.637,0.892
					c-0.808,0.108-1.615,0.217-2.423,0.326c-0.304,0.041-2.229,0.244-1.563,0.6c3.787,2.019,7.589,4.044,11.626,5.5
					c2.592,0.934,5.275,1.631,7.78,2.776C126.006,293.761,127.25,294.795,128.564,295.226z"/>
				<path d="M128.954,295.446c-2.97-1.624-6.032-3.07-9.182-4.309c-3.179-1.25-6.529-2.147-9.396-4.064
					c-0.321-0.215-0.638,0.339-0.301,0.515c3.011,1.569,6.063,2.73,9.144,3.89c3.247,1.223,6.415,2.654,9.49,4.262
					C128.787,295.639,128.873,295.544,128.954,295.446z"/>
				<path style="fill:#F2A888;" d="M91.073,265.38c-0.811-0.343-1.619-0.692-2.424-1.047c-3.15-1.387-6.351-2.889-9.785-3.114
					c-3.435-0.225-7.225,1.151-8.788,4.218c-1.275,2.501-0.804,5.614,0.554,8.072c1.525,2.759,4.257,5.464,6.788,7.319
					c4.524,3.315,10.604,3.222,15.947,4.188c6.259,1.132,12.552,2.073,18.869,2.82c4.47,0.529,9.4,0.355,13.775,1.333
					c3.632,0.811,6.77,2.378,10.676,2.377c1.728,0,3.515-0.263,4.97-1.195c1.455-0.931,2.501-2.649,2.241-4.357
					c-0.348-2.291-2.71-3.649-4.867-4.496c-2.227-0.874-4.523-1.569-6.861-2.077c-2.088-0.454-4.447-0.385-6.466-1.018
					c-4.224-1.323-8.453-3.342-12.685-4.808C105.636,271.038,98.265,268.426,91.073,265.38z"/>
				<path d="M169.562,289.107c1.685-3.771,3.37-7.541,5.055-11.312c1.235-2.763,2.47-5.527,3.705-8.29
					c0.921-2.06,3.246-5.716-0.989-5.211c-11.428,1.364-22.856,2.728-34.284,4.093c-1.141,0.136-2.307,0.279-3.342,0.781
					c-2.302,1.115-3.022,4.85-3.899,7.093c-1.087,2.781-2.174,5.562-3.26,8.344c-1.428,3.656-2.857,7.311-4.285,10.967l39.891-5.362
					C168.755,290.129,169.293,289.707,169.562,289.107z"/>
			</g>
			<g>
				<g>
					<path style="fill:#F2A888;" d="M174.53,274.77c-2.109-0.102-4.562-0.152-5.557,1.7c-0.518,0.965-1.042,1.942-1.313,3.003
						c-0.896,3.5,1.898,4.355,4.765,5.036c2.528,0.601,3.744-0.955,4.733-3.156c0.433-0.964,0.872-1.944,1.023-2.991
						c0.151-1.047-0.021-2.187-0.697-3c-0.154-0.185-0.337-0.353-0.56-0.443c-0.236-0.095-0.498-0.095-0.753-0.093
						C175.676,274.831,175.116,274.798,174.53,274.77z"/>
				</g>
				<path style="fill:#F2A888;" d="M176.56,280.756c-1.346-0.355-3.178-0.94-4.524-1.295c-1.587-0.418-1.912-0.702-3.495-0.87"/>
				<path style="fill:#F2A888;" d="M177.032,278.324c-2.589-0.538-5.222-1.108-7.765-1.824"/>
			</g>
			<path style="fill:#5CC9BF;" d="M125.636,240.96c-3.457,2.809-7.212,5.25-11.183,7.269c0.588-2.494-1.004-4.91-2.278-7.133
				c-1.663-2.902-2.889-6.053-3.634-9.313c-0.473-2.069-1.946-7.723,0.298-9.211c3.583-2.376,11.057,7.11,12.663,9.475
				C122.084,232.903,126.553,240.214,125.636,240.96z"/>
			<path style="fill:#222221;" d="M88.278,233.407c-0.049-0.249-0.477-0.196-0.448,0.061c0.506,4.557,0.907,9.075,0.812,13.666
				c-0.005,0.262,0.391,0.259,0.405,0C89.295,242.58,89.162,237.892,88.278,233.407z"/>
			<path style="fill:#222221;" d="M118.209,237.761c-1.636-2.528-3.544-4.794-4.291-7.779c-0.066-0.266-0.527-0.219-0.492,0.066
				c0.366,2.909,2.453,5.238,4.042,7.575c1.841,2.706,3.128,5.698,4.006,8.844c0.065,0.234,0.412,0.135,0.362-0.1
				C121.185,243.309,119.907,240.384,118.209,237.761z"/>
			<path style="fill:#222221;" d="M109.436,203.42c-0.327,0.097-0.571,0.335-0.887,0.457c-0.334,0.129-0.691,0.177-1.047,0.158
				c-0.778-0.041-1.544-0.416-2.216-0.785c-0.145-0.079-0.315,0.119-0.183,0.237c0.691,0.616,1.494,1.057,2.432,1.126
				c0.404,0.03,0.826-0.02,1.208-0.156c0.393-0.14,0.835-0.351,0.943-0.788C109.721,203.523,109.588,203.375,109.436,203.42z"/>
			<path style="fill:#F2A888;" d="M100.932,196.834c-0.114-0.236-0.27-0.453-0.454-0.637c-1.212-1.212-3.319-0.964-4.401,0.283
				c-0.188,0.216-0.341,0.454-0.476,0.7c-0.218,0.298-0.378,0.634-0.467,0.987c-0.384,0.831-0.281,1.871,0.227,2.626
				c0.558,0.828,1.463,1.361,2.422,1.597c0.915,0.225,1.987,0.201,2.801-0.324c0.944-0.609,1.306-1.705,1.368-2.781
				C102.008,198.329,101.646,197.432,100.932,196.834z"/>
			<path style="fill:#222221;" d="M100.879,199.368c-0.086-0.255-0.27-0.482-0.429-0.697c-0.162-0.218-0.332-0.432-0.527-0.623
				c-0.365-0.357-0.813-0.646-1.322-0.732c-0.455-0.076-0.983-0.048-1.375,0.223c-0.186,0.128-0.404,0.334-0.428,0.571
				c-0.023,0.229,0.229,0.489,0.438,0.281c0.025-0.025,0.035-0.057,0.042-0.088l0.001,0.007c-0.021,0.085-0.039,0.074-0.004,0.027
				c0.012-0.005,0.052-0.034,0.073-0.051c0.054-0.044,0.108-0.082,0.17-0.115c0.123-0.066,0.231-0.109,0.37-0.138
				c0.258-0.053,0.58-0.006,0.82,0.097c0.327,0.141,0.595,0.388,0.826,0.654c0.117,0.135,0.221,0.278,0.322,0.425
				c0.121,0.177,0.223,0.385,0.38,0.532C100.501,199.992,101.008,199.749,100.879,199.368z"/>
			<path d="M179.487,317.697c-1.935-5.602-6.511-9.972-11.845-12.383c-3.057-1.382-6.429-2.221-9.795-2.154
				c-0.39,0.008-0.388,0.587,0,0.604c5.898,0.26,11.629,2.406,15.94,6.509c2.079,1.978,3.785,4.384,4.82,7.069
				c1.279,3.32,1.396,6.892,1.212,10.405c-0.22,4.21-0.843,8.455-0.187,12.655c0.041,0.264,0.496,0.205,0.47-0.064
				C179.378,332.841,182.011,325.003,179.487,317.697z"/>
		</g>
		<g>
			<g>
				<rect x="324.486" y="121.322" style="fill:#C46345;" width="62.742" height="39.19"/>
			</g>
			<path d="M356.702,142.131c-8.764-4.772-17.353-9.878-25.73-15.3c-1.181-0.764-2.358-1.534-3.547-2.285
				c-1.117-0.705-2.29-1.667-3.552-2.077c-0.139-0.045-0.208,0.129-0.13,0.224c0.718,0.878,1.83,1.498,2.744,2.155
				c1.036,0.745,2.09,1.468,3.154,2.172c2.091,1.383,4.194,2.746,6.312,4.088c4.198,2.66,8.452,5.228,12.759,7.706
				c2.477,1.425,4.971,2.821,7.48,4.19C356.763,143.318,357.275,142.443,356.702,142.131z"/>
			<g>
				<g>
					<rect x="336.65" y="111.762" style="fill:#5CC9BF;" width="61.511" height="36.907"/>
					<path style="fill:#5CC9BF;" d="M398.12,111.907l-30.154-17.374l-31.357,17.374C336.609,111.907,398.12,112.052,398.12,111.907z
						"/>
					<path style="fill:#DEDEDE;" d="M391.083,116.754l-25.063,12.441c0,0-17.192-9.812-17.342-9.898
						c-0.366-0.209,0.011-4.44,0.017-4.853c0.034-2.5,0.068-5,0.103-7.5c0.068-5,0.137-10.001,0.205-15.001
						c0.008-0.576,0.032-1.201,0.396-1.648c0.301-0.371,0.778-0.546,1.238-0.674c1.617-0.452,3.312-0.537,4.989-0.604
						c6.74-0.269,13.489-0.279,20.23-0.029c3.429,0.127,6.856,0.321,10.278,0.582c2.679,0.204,5.725-0.289,5.302,3.331
						c-0.575,4.919-0.351,9.862-0.351,14.777C391.083,110.702,391.083,113.728,391.083,116.754z"/>
				</g>
			</g>
			<path d="M398.221,112.926c-5.789,2.523-11.421,5.466-17.049,8.326c-4.9,2.489-9.775,5.025-14.634,7.593
				c-0.006-0.059-0.036-0.115-0.106-0.153c-4.688-2.552-9.358-5.143-14.016-7.751c-2.271-1.271-4.532-2.563-6.766-3.897
				c-2.27-1.356-4.445-2.885-6.727-4.215c-0.537-0.313-0.953,0.462-0.476,0.814c2.111,1.56,4.489,2.847,6.756,4.166
				c2.25,1.31,4.525,2.575,6.811,3.821c4.675,2.548,9.4,4.998,14.143,7.416c-0.563,0.298-1.129,0.59-1.692,0.889
				c-3.15,1.674-6.29,3.366-9.422,5.074c-0.577,0.314-0.061,1.199,0.515,0.882c11.035-6.075,22.189-11.93,33.441-17.592
				c3.183-1.602,6.401-3.144,9.538-4.834C398.897,113.27,398.579,112.77,398.221,112.926z"/>
		</g>
		<g>
			<path style="fill:#DEDEDE;" d="M192.459,159.465c-3.585,0.003-7.171,0.006-10.756,0.009c-8.923,0.008-17.846,0.015-26.77,0.023
				c-17.671,0.015-35.343,0.03-53.015,0.045c-4.987,0.004-9.973,0.001-14.959,0.038c-4.47,0.034-9.006-0.11-13.473,0.254
				c0.005-18.742,0-37.484-0.028-56.226c-0.004-2.623-0.064-5.244-0.079-7.868c-0.015-2.683,0.007-5.388-0.537-8.022
				c-0.115-0.555-1.008-0.556-1.123,0c-0.457,2.215-0.492,4.454-0.527,6.711c-0.038,2.446-0.082,4.899-0.086,7.343
				c-0.007,4.721-0.014,9.441-0.022,14.162c-0.014,9.529-0.016,19.057-0.014,28.586c0.001,5.32,0.003,10.641,0.004,15.961
				c-0.082,0.216-0.05,0.46,0.081,0.657c0.277,0.816,1.366,0.983,1.955,0.475c3.983,0.344,8.02,0.245,12.011,0.275
				c4.374,0.033,8.748,0.045,13.122,0.049c8.923,0.008,17.846,0.015,26.77,0.023l53.014,0.045c4.81,0.004,9.62,0.008,14.43,0.012
				V159.465z"/>
			<g>
				<g>
					<g>
						<rect x="149.607" y="98.073" style="fill:#B5C7BA;" width="7.647" height="55.347"/>
						<path style="fill:#B5C7BA;" d="M141.588,153.42c0.008-5.603-0.005-66.634,0-66.634c0,0-7.544,0-7.646,0
							c-0.187,5.313,0.131,66.634-0.001,66.634C133.941,153.42,141.562,153.42,141.588,153.42z"/>
						<rect x="120.087" y="136.67" style="fill:#DEDEDE;" width="7.647" height="16.75"/>
						<rect x="104.421" y="116.279" style="fill:#DEDEDE;" width="7.647" height="37.141"/>
						<rect x="91.473" y="105.356" style="fill:#B5C7BA;" width="7.647" height="48.064"/>
					</g>
				</g>
				<path d="M187.724,96.047c-0.251-1.336-0.402-3.447-2.279-3.26c-0.786,0.078-1.507,0.583-2.178,0.963
					c-0.74,0.418-1.475,0.846-2.212,1.268c-1.472,0.844-2.997,1.632-4.359,2.648c-0.458,0.342-0.216,1.259,0.429,1.018
					c1.348-0.505,2.605-1.195,3.88-1.857c0.901-0.468,1.8-0.939,2.699-1.411c-4.508,6.717-9.016,13.434-13.524,20.151
					c-2.309,3.44-4.618,6.881-6.927,10.321c-1.112,1.656-2.223,3.313-3.335,4.969c-0.453,0.674-0.874,1.491-1.481,2.048
					c-0.814,0.746-1.73,0.024-2.497-0.464c-3.392-2.16-6.749-4.377-10.156-6.514c-1.462-0.916-2.991-1.467-4.614-0.59
					c-1.564,0.845-2.914,2.295-4.275,3.43c-3.148,2.625-6.296,5.251-9.444,7.876c-1.516,1.264-3.031,2.528-4.547,3.792
					c-1.518,1.266-2.995,2.682-4.611,3.82c-0.942,0.663-1.644,0.65-2.687,0.158c-1.017-0.48-2.015-1.005-3.02-1.507
					c-1.966-0.982-3.932-1.964-5.898-2.946c-4.137-2.066-8.282-4.114-12.433-6.151c-0.471-0.231-0.99-0.188-1.379,0.178
					c-8.049,7.579-15.957,15.68-22.552,24.569c-0.38,0.512,0.445,1.125,0.874,0.675c3.819-3.997,7.515-8.11,11.357-12.086
					c3.657-3.783,7.459-7.41,11.32-10.982c3.525,1.794,7.051,3.584,10.588,5.354l5.692,2.849c1.718,0.86,3.43,1.883,5.23,2.559
					c1.662,0.624,3.166,0.147,4.528-0.898c1.61-1.234,3.136-2.59,4.695-3.887l9.627-8.014c1.634-1.36,3.267-2.72,4.901-4.08
					c0.816-0.679,1.62-1.378,2.45-2.04c0.949-0.757,1.563-0.828,2.638-0.194c3.638,2.148,7.103,4.604,10.687,6.841
					c1.384,0.864,2.983,1.482,4.502,0.545c1.441-0.889,2.319-2.717,3.23-4.077l7.176-10.707c5.339-7.967,10.679-15.933,16.018-23.9
					c0.062-0.093,0.105-0.185,0.138-0.276c0.038,0.234,0.075,0.469,0.115,0.702c0.253,1.463,0.43,2.962,0.87,4.382
					c0.26,0.839,1.645,0.731,1.591-0.215C188.454,99.403,188.038,97.718,187.724,96.047z M184.916,94.78
					c0.169-0.099,0.491-0.317,0.678-0.287c0.009,0.009,0.03,0.027,0.053,0.059c0.06,0.082,0.067,0.242,0.089,0.343
					c0.025,0.119,0.044,0.241,0.066,0.361C185.59,94.996,185.262,94.821,184.916,94.78z"/>
			</g>
		</g>
		<g>
			<g>
				<path style="fill:#5CC9BF;" d="M409.031,415.897c0.836,3.414,1.483,6.981,2.646,10.298c0.008,0.022,0.022,0.033,0.03,0.054
					h1.791c0.066-0.168,0.106-0.355,0.071-0.576c-0.499-3.177-1.492-6.322-2.26-9.446c-0.736-2.993-1.464-5.988-2.183-8.986
					c-1.475-6.144-2.917-12.296-4.324-18.457c-2.78-12.168-5.459-24.357-8.082-36.559c-1.488-6.923-2.974-13.845-4.544-20.751
					c-0.145-0.636-1.059-0.355-0.96,0.265c3.929,24.811,9.496,49.394,15.317,73.82C407.356,409.008,408.188,412.454,409.031,415.897
					z"/>
				<path style="fill:#5CC9BF;" d="M336.506,426.249c0.479-1.394,0.957-2.787,1.436-4.181c1.014-2.952,2.03-5.904,3.042-8.856
					c2.05-5.978,4.088-11.961,6.132-17.942c4.037-11.813,8.114-23.613,12.093-35.446c2.278-6.775,4.849-13.545,6.665-20.461
					c0.19-0.725-0.941-1.269-1.258-0.53c-2.849,6.641-5.019,13.623-7.415,20.438c-2.382,6.774-4.716,13.565-7.065,20.351
					c-4.748,13.718-9.505,27.433-14.232,41.158c-0.628,1.823-1.256,3.647-1.884,5.47H336.506z"/>
				<path style="fill:#5CC9BF;" d="M406.552,384.318c-9.716,0.143-19.433,0.189-29.15,0.195c-9.724,0.006-19.447-0.168-29.168,0.052
					c-0.586,0.013-0.652,0.884-0.052,0.921c9.696,0.609,19.412,0.662,29.125,0.724c9.715,0.062,19.432-0.005,29.147-0.137
					C407.579,386.058,407.685,384.302,406.552,384.318z"/>
				<path style="fill:#F2A888;" d="M269.799,387.488c-1.035,2.511-10.523,26.995-10.523,26.995l15.716,4.641l14.688-27.216
					L269.799,387.488z"/>
				<path d="M271.173,427.286c1.545,0.563,3.204-0.438,3.454-2.063c0.334-2.173,0.874-4.317,1.833-6.307
					c0.233-0.484,0.49-0.967,0.576-1.497c0.086-0.53-0.034-1.129-0.447-1.472c-0.296-0.246-0.69-0.325-1.065-0.411
					c-2.211-0.508-4.023-1.788-6.15-2.482c-1.2-0.392-2.376-0.874-3.482-1.483c-1.189-0.655-2.397-2.192-3.589-2.644
					c-1.872-0.71-4.201,1.745-6.452,1.788c-3.6,0.068-7.204-0.468-10.793-0.186c-3.112,0.245-7.077,1.288-9.08,3.921
					L271.173,427.286z"/>
				<path style="fill:#5CC9BF;" d="M248.276,412.917c-0.194-0.672-0.424-1.409-0.547-2.15c-0.135-0.811-0.171-1.629-0.194-2.449
					c-0.018-0.646-0.869-0.713-0.996-0.081c-0.29,1.45-0.147,3.062,0.266,4.476c0.122,0.418,0.236,1.019,0.702,1.189
					c0.253,0.092,0.547,0.001,0.702-0.218C248.368,413.46,248.348,413.168,248.276,412.917z"/>
				<path style="fill:#5CC9BF;" d="M252.989,412.662c0.015-0.177-0.014-0.346-0.057-0.516c-0.145-0.567-0.36-1.12-0.633-1.637
					c-0.299-0.566-0.644-1.105-1.076-1.578c-0.149-0.163-0.381-0.208-0.571-0.088c-0.183,0.116-0.258,0.353-0.165,0.553
					c0.224,0.486,0.447,0.976,0.637,1.476c0.095,0.249,0.201,0.506,0.268,0.764c-0.042-0.159,0.007,0.025,0.02,0.067
					c0.02,0.068,0.04,0.136,0.059,0.204c0.036,0.13,0.075,0.258,0.112,0.387c0.118,0.402,0.239,0.945,0.757,0.98
					C252.691,413.298,252.96,412.995,252.989,412.662z"/>
				<path style="fill:#5CC9BF;" d="M259.217,412.259c-0.286-0.615-0.742-1.097-1.182-1.605c-0.421-0.485-0.863-0.952-1.298-1.424
					c-0.178-0.192-0.474-0.237-0.683-0.064c-0.214,0.177-0.217,0.47-0.064,0.683c0.375,0.522,0.743,1.05,1.134,1.56
					c0.409,0.535,0.79,1.075,1.335,1.48C258.871,413.196,259.429,412.715,259.217,412.259z"/>
				<path style="fill:#F2A888;" d="M313.744,386.3c1.405,2.302,17.697,26.393,17.697,26.393l13.576-8.988l-15.55-27.179
					L313.744,386.3z"/>
				<path d="M350.652,411.122c0.444-1.199-0.481-2.509-1.757-4.013c-0.59-0.696-1.247-1.331-1.853-2.014
					c-0.907-1.022-1.778-3.502-2.833-4.183c-0.9-0.581-1.596-0.092-2.526,0.331c-1.694,0.769-3.457,1.656-5.005,2.697
					c-1.396,0.938-2.894,1.736-4.485,2.29c-1.069,0.372-3.459,0.335-4.205,1.133c-0.563,0.601-0.728,2.775-1.23,3.65
					c-0.747,1.302-1.763,2.445-2.72,3.594c-1.895,2.275-3.66,4.693-5.028,7.326c-0.885,1.704-2.916,5.333-2.601,7.273
					c0.094,0.579,0.606,1.134,1.187,1.055c0.212-0.029,0.405-0.135,0.592-0.24c10.259-5.748,20.518-11.496,30.776-17.244
					C349.914,412.244,350.439,411.696,350.652,411.122z"/>
				<path style="fill:#5CC9BF;" d="M326.311,414.566c-0.018-0.018-0.026-0.023-0.029-0.024c-0.004-0.006-0.005-0.008-0.01-0.014
					c-0.056-0.078-0.125-0.146-0.211-0.194c-0.112-0.062-0.233-0.087-0.355-0.119c-0.167-0.043-0.335-0.077-0.503-0.117
					c-0.343-0.083-0.685-0.17-1.023-0.27c-0.672-0.2-1.328-0.454-1.986-0.697c-0.2-0.074-0.436,0.05-0.517,0.236
					c-0.087,0.2-0.021,0.423,0.163,0.544c0.62,0.41,1.291,0.72,1.98,0.998c0.327,0.132,0.659,0.255,0.996,0.36
					c0.172,0.054,0.345,0.108,0.522,0.147c0.097,0.021,0.194,0.041,0.291,0.058c0.14,0.024,0.263-0.005,0.38-0.056
					c0.015-0.006,0.03-0.011,0.045-0.017c0.175-0.064,0.313-0.155,0.371-0.343C326.478,414.892,326.438,414.69,326.311,414.566z"/>
				<g>
					<path style="fill:#5CC9BF;" d="M329.783,411.034c-0.2-0.2-0.441-0.284-0.708-0.351c-0.269-0.068-0.537-0.136-0.806-0.202
						c-0.538-0.132-1.078-0.257-1.618-0.386c-0.553-0.132-1.114-0.224-1.668-0.344c-0.434-0.094-0.627,0.509-0.203,0.664
						c0.871,0.319,1.736,0.65,2.615,0.95c0.433,0.148,0.867,0.292,1.301,0.435c0.057,0.019,0.114,0.039,0.171,0.056
						c0.021,0.006,0.026,0.007,0.036,0.01c-0.001-0.001,0-0.001-0.001-0.002c-0.001-0.002-0.001-0.001-0.001-0.003
						c-0.018-0.007-0.036-0.014-0.035-0.016c0.01-0.016,0.022-0.003,0.034,0.013c-0.016-0.033-0.009-0.019,0.004,0.004
						c0,0-0.001,0-0.001-0.001c0.001,0.002,0.002,0.003,0.004,0.005c0,0,0,0,0,0c0.001,0.001,0.001,0.002,0.002,0.004
						c0.002,0.003,0.004,0.005,0.006,0.008c0.005,0.007,0.009,0.015,0.014,0.02c0.002,0.002,0.007,0.008,0.011,0.012
						c-0.018-0.016-0.004,0.004,0.011,0.031c0.028,0.05,0.068,0.109,0.107,0.15c0.065,0.081,0.148,0.149,0.236,0.173
						c0.318,0.086,0.673-0.096,0.753-0.428C330.116,411.543,329.991,411.242,329.783,411.034z"/>
					<path style="fill:#5CC9BF;" d="M325.121,417.418c-0.2-0.2-0.441-0.284-0.708-0.351c-0.269-0.068-0.537-0.136-0.806-0.202
						c-0.538-0.132-1.079-0.258-1.618-0.386c-0.553-0.132-1.114-0.224-1.668-0.344c-0.434-0.094-0.627,0.509-0.203,0.664
						c0.871,0.319,1.736,0.65,2.615,0.95c0.433,0.148,0.867,0.292,1.301,0.435c0.057,0.019,0.114,0.039,0.171,0.056
						c0.021,0.006,0.026,0.007,0.036,0.01c-0.001-0.001,0-0.001-0.001-0.002c-0.001-0.002-0.001-0.001-0.001-0.003
						c-0.018-0.007-0.036-0.014-0.035-0.016c0.01-0.016,0.022-0.003,0.034,0.013c-0.016-0.034-0.009-0.019,0.004,0.004
						c0,0-0.001,0-0.001,0c0.001,0.002,0.002,0.003,0.004,0.005c0,0,0,0,0,0c0.001,0.001,0.001,0.002,0.002,0.004
						c0.002,0.003,0.004,0.005,0.006,0.008c0.005,0.007,0.01,0.015,0.014,0.02c0.002,0.002,0.007,0.007,0.011,0.012
						c-0.018-0.016-0.004,0.004,0.011,0.031c0.028,0.05,0.068,0.109,0.106,0.15c0.065,0.081,0.148,0.149,0.236,0.173
						c0.318,0.086,0.673-0.096,0.753-0.428C325.453,417.926,325.329,417.626,325.121,417.418z"/>
					<path style="fill:#5CC9BF;" d="M328.905,411.866c-0.001,0-0.001,0-0.002-0.001c0.023,0.047,0.021,0.035,0.01,0.013
						c-0.002-0.003-0.004-0.005-0.006-0.008C328.907,411.869,328.906,411.868,328.905,411.866z"/>
					<polygon style="fill:#5CC9BF;" points="328.899,411.858 328.901,411.861 328.901,411.861 					"/>
				</g>
				<path style="fill:#5CC9BF;" d="M353.754,304.319c4.164-16.151,8.936-32.139,16.808-46.781
					c2.594-4.826,5.623-9.599,10.044-12.834c6.699-4.902,15.77-5.563,23.854-3.679c22.413,5.22,28.919,17.715,30.515,39.784
					c2.738,37.858-15.201,72.56-54.142,80.214c-19.911,3.913-40.361,5.072-60.586,3.432c-12.192-0.988-26.184-9.922-20.182-23.9
					c6.44-14.998,26.601-14.66,39.959-13.782c2.754,0.181,5.912,0.213,7.78-1.818c1.038-1.129,1.448-2.682,1.82-4.169
					C350.996,315.308,352.34,309.804,353.754,304.319z"/>
				<path style="fill:#C46345;" d="M359.298,330.294c-6.15-3.194-12.3-6.388-18.447-9.586c-3.492-1.817-7.155-4.437-11.082-5.121
					c-2.289-0.399-6.039,1.19-8.009,0.43c-6.573-2.537-3.827-12.475-1.297-18.758c6.31-15.669,15.702-29.15,22.595-44.574
					c2.148-4.827,4.5-9.905,8.866-12.88c2.694-1.836,5.952-2.702,9.199-3.007c7.58-0.71,15.401,1.601,21.378,6.317
					c7.886,6.222,12.205,16.163,13.374,26.14c1.168,9.977-0.514,20.071-2.831,29.846c-1.995,8.418-4.465,16.723-7.394,24.863
					c-1.871,5.2-4.762,11.058-10.194,12.075c-3.593,0.673-7.151-1.065-10.394-2.75C363.142,332.29,361.22,331.292,359.298,330.294z"
					/>
				<path style="fill:#77457D;" d="M286.921,299.833c-2.7,1.081-5.316,2.344-7.574,4.156c-6.475,5.195-8.916,14.18-8.25,22.455
					c0.666,8.274,3.982,16.073,7.255,23.702c4.059,9.462,8.445,17.779,14.246,26.304c1.396,2.052,17.13,24.318,17.279,24.215
					c0.886-0.682,1.757-1.382,2.652-2.052c7.406-5.541,15.083-10.687,22.874-15.66c-5.094-10.608-9.561-19.901-10.498-21.778
					c-2.878-5.763-10.456-13.45-10.185-19.91c0.33-7.865,10.955-13.125,12.933-20.759c1.728-6.67-3.583-12.092-8.675-15.471
					c-2.531-1.679-5.622-2.529-7.4-4.96c-1.658-2.268-2.127-5.891-5.389-6.529c-1.35-0.264-2.722,0.214-4.014,0.685
					c-3.884,1.415-7.767,2.831-11.651,4.246C289.321,298.914,288.113,299.356,286.921,299.833z"/>
				<path style="fill:#77457D;" d="M334.64,300.958c-5.129-2.435-10.431-4.916-16.103-5.172c-8.902-0.402-17.297,4.874-22.892,11.81
					c-5.594,6.936-8.872,15.407-12.064,23.727c-1.315,3.427-10.654,30.174-19.373,54.308c9.221,6.416,19.36,11.631,29.275,16.854
					c1.179,0.621,2.362,1.232,3.543,1.847c9.144-21.027,16.442-42.623,24.664-64.028c7.815,1.163,16.527,3.565,24.24,5.177
					c7.929,1.657,16.554,2.166,23.789-1.477C404.381,326.549,346.358,306.521,334.64,300.958z"/>
				<g>
					<path style="fill:#C46345;" d="M352.447,252.586c0.612-2.825,1.04-5.689,1.274-8.571c0.08-0.981,0.132-2.003-0.239-2.915
						c-3.831-9.4-13.853-3.122-17.099,2.258c-5.354,8.875-10.052,19.064-13.669,28.778c-1.635,4.39-3.101,8.951-3.041,13.635
						c0.019,1.465,0.205,2.98,0.963,4.233c1.928,3.188,5.523,1.494,8.159,0.24c2.071-0.985,3.81-2.544,5.434-4.163
						C343.353,276.98,349.722,265.176,352.447,252.586z"/>
					<path style="fill:#C46345;" d="M387.717,242.461c1.941,0.816,3.874,1.649,5.746,2.602c9.202,4.686,7.848,16.498,7.766,25.196
						c-0.045,4.789,1.455,11.231-0.412,15.641c0.247-0.582,3.32-1.461,3.968-1.756c6.296-2.861,12.678-5.991,19.431-7.685
						c2.762-0.693,5.694-1.178,8.434-0.402c4.906,1.391,5.618,6.225,6.284,10.595c1.157,7.586-7.16,12.121-12.938,15.284
						c-6.178,3.383-12.572,6.372-19.129,8.945c-4.259,1.671-8.686,3.185-13.261,3.222c-3.642,0.029-7.287-0.903-10.468-2.676
						c-9-5.019-8.259-18.774-8.809-27.72c-0.469-7.632-0.542-15.021-0.136-22.649c0.169-3.182,1.042-5.807,1.679-8.928
						c0.503-2.471,0.752-4.984,1.227-7.46c0.454-2.366,0.368-4.619,0.382-7.046C380.714,239.583,384.228,240.995,387.717,242.461z"
						/>
					<path style="fill:#F2A888;" d="M352.277,219.984c0.435,1.183,1.062,2.241,1.947,3.081c0.513,0.487,1.165,0.858,1.504,1.479
						c0.95,1.741,0.355,5.338-0.034,7.146c-0.173,0.804-3.078,6.573-3.973,6.338c3.815,1.003,7.68,1.911,11.617,2.141
						c3.938,0.229,7.979-0.249,11.555-1.914c-3.527-4.207-2.706-9.455-1.647-14.385c1.122-5.226,2.538-11.206,0.626-16.418
						c-1.533-4.176-5.335-7.474-9.61-8.616c-3.862-1.031-9.346-0.171-11.245,3.728c-0.841,1.727-1.075,3.678-1.267,5.59
						C351.413,211.493,350.934,216.335,352.277,219.984z"/>
					<path style="fill:#C46345;" d="M383.973,240.975c-2.633-0.866-5.064-2.352-6.883-4.432c-0.606-0.693-1.134-1.457-1.58-2.265
						c-2.718,1.03-5.647,1.572-8.539,1.764c-2.783,0.185-5.612,0.035-8.366-0.404c-1.956-0.312-3.905-0.874-5.596-1.889
						c-0.984,0.982-2.27,1.656-3.617,2.04c-0.599,0.171-1.209,0.293-1.825,0.384c-1.241,0.184-1.848,1.611-1.098,2.617
						c0.058,0.078,0.102,0.139,0.128,0.177c0.527,0.77,0.892,1.455,1.613,2.111c1.462,1.33,3.226,2.292,4.959,3.217
						c3.65,1.95,7.733,3.098,11.87,3.282c3.532,0.157,7.088-0.389,10.423-1.559c2.986-1.048,5.683-2.506,8.543-3.712
						C384.61,242.053,384.595,241.179,383.973,240.975z"/>
					<path d="M403.105,216.703c-1.515-1.865-4.016-2.577-6.338-2.211c-0.506,0.08-0.992,0.23-1.464,0.413
						c-0.164-0.504-0.287-1.021-0.35-1.548c-0.243-2.052,0.359-4.067,0.864-6.033c0.464-1.805,0.859-3.652,0.605-5.522
						c-0.219-1.615-0.853-3.167-1.795-4.496c-1.873-2.643-4.894-4.4-8.174-4.343c-2.875,0.049-5.692,1.392-7.573,3.563
						c-0.197,0.104-0.397,0.203-0.591,0.312c-2.211-2.901-5.351-4.986-9.054-5.096c-5.62-0.164-13.466,0.993-16.616,6.358
						c-0.56,0.953-0.945,2.015-1.631,2.881c-0.428,0.541-0.97,1.002-1.279,1.619c-1.24,2.479,2.989,2.279,4.418,2.42l7.215,0.714
						c0.878,0.087,1.811,0.164,2.596-0.238c0.816-0.418,1.322-1.281,2.115-1.74c0.643-0.371,1.491-0.428,2.118-0.031
						c1.904,1.207-0.171,4.356-0.523,5.834c-0.042,0.175-0.075,0.368,0.004,0.53c0.103,0.21,0.354,0.292,0.575,0.369
						c1.299,0.459,2.379,1.502,2.882,2.784c0.424,1.079,0.444,2.267,0.609,3.415c0.273,1.907,0.952,3.73,1.626,5.535
						c0.046,0.123,0.095,0.251,0.193,0.34c0.388,0.35,0.922-0.217,1.153-0.687c0.861-1.757,2.067-3.178,3.471-4.519
						c1.286-1.228,2.004-3.048,2.606-4.739c0.624-1.754,0.999-3.776,1.003-5.787c0.005-2.429-0.675-5.026-1.877-7.374
						c1.212-1.027,2.497-1.938,4.075-2.393c1.479-0.427,3.206-0.358,4.505,0.535c0.243,0.167,0.454,0.368,0.65,0.581
						c0.736,1.233,0.898,2.786,0.7,4.191c-0.289,2.048-1.296,3.915-2.206,5.742c-1.704,3.423-3.092,7.246-2.505,11.128
						c0.539,3.566,3.023,6.502,6.424,7.685c0.749,0.261,1.524,0.403,2.302,0.466c1.693,0.332,3.489,0.043,5.132-0.54
						c2.017-0.715,4.041-1.994,4.977-3.994C404.894,220.802,404.5,218.42,403.105,216.703z"/>
					<path style="fill:#F2A888;" d="M367.4,210.418c0.747-2.225,3.196-2.087,4.387-1.616c3.951,1.564,3.244,6.442-0.485,7.704
						c-0.946,0.32-2.082,0.16-2.795-0.539"/>
					<path style="fill:#FFFFFF;" d="M353.375,217.14c0.162,1.638,1.583,3.035,3.174,3.121c1.59,0.086,3.16-1.151,3.504-2.761
						L353.375,217.14z"/>
					<path style="fill:#F2A888;" d="M463.608,283.297c2.951-1.122,6.213-3.172,5.958-6.792c-0.073-1.04-0.533-2.039-1.234-2.81
						c-0.301-0.331-0.649-0.626-1.051-0.823c-0.784-0.385-1.717-0.37-2.56-0.141c-2.021,0.55-3.746,1.883-5.799,2.5
						c-2.046,0.615-4.264,0.978-6.362,0.396c-2.748-0.762-0.363-1.818,0.962-2.563c0.911-0.513,2.281-1.245,2.358-2.441
						c0.099-1.541-1.33-1.412-2.248-0.678c-1.608,1.286-3.58,2.114-5.624,2.36c-1.223,0.147-2.493,0.097-3.644,0.534
						c-1.514,0.576-2.597,1.904-3.941,2.809c-2.447,1.649-5.473,2.368-7.998,3.924c-1.87,1.152-1.46,4.063-0.473,5.757
						c1.02,1.752,2.929,3.194,4.808,2.165c2.213-1.213,4.67-2.29,7.191-2.608c1.527-0.192,3.074-0.091,4.61,0.01
						c5.11,0.338,9.797,0.316,14.711-1.475C463.384,283.381,463.496,283.339,463.608,283.297z"/>
					<path style="fill:#F2A888;" d="M372.397,210.616c-0.782-0.222-1.642-0.156-2.381,0.185c-0.738,0.34-1.348,0.951-1.687,1.69"/>
					<path style="fill:#F2A888;" d="M467.732,271.375c-3.406,2.529-7.517,4.099-11.742,4.484"/>
					<path style="fill:#F2A888;" d="M469.291,273.629c-3.631,2.968-8.326,4.326-12.97,4.985"/>
					<path style="fill:#F2A888;" d="M469.443,276.217c-3.919,2.218-8.556,4.274-13.043,4.656"/>
					<path style="fill:#B55C4A;" d="M370.988,210.29c-0.912-0.049-1.744,0.411-2.286,1.128c-0.514,0.679-0.862,1.728-0.451,2.531
						c0.129,0.252,0.542,0.134,0.532-0.144c-0.012-0.35-0.041-0.72,0.031-1.048c0.078-0.351,0.228-0.675,0.44-0.966
						c0.404-0.553,1.039-1.006,1.733-1.077C371.256,210.687,371.265,210.304,370.988,210.29z"/>
					<path style="fill:#B55C4A;" d="M360.067,224.16c-0.617,0.067-1.217,0.233-1.839,0.259c-0.31,0.013-0.623,0-0.932-0.024
						c-0.157-0.012-0.312-0.043-0.468-0.059c-0.161-0.016-0.311-0.012-0.472-0.049c-0.127-0.029-0.224,0.162-0.093,0.221
						c0.155,0.07,0.299,0.165,0.454,0.23c0.141,0.059,0.3,0.094,0.448,0.131c0.338,0.084,0.682,0.127,1.03,0.14
						c0.677,0.026,1.406-0.033,1.998-0.384C360.391,224.507,360.324,224.132,360.067,224.16z"/>
				</g>
				<path d="M318.031,348.842c-5.324,13.464-10.423,27.022-15.579,40.551c-0.721,1.891-1.441,3.782-2.162,5.673
					c-0.745,1.954-1.576,3.905-2.142,5.919c-0.038,0.136,0.169,0.232,0.234,0.099c0.797-1.617,1.4-3.334,2.048-5.015l1.931-5.013
					c1.315-3.414,2.627-6.83,3.936-10.247c2.591-6.76,5.182-13.52,7.773-20.28c1.476-3.851,2.949-7.703,4.384-11.57
					C318.554,348.691,318.134,348.583,318.031,348.842z"/>
				<path d="M301.389,301.306c-4.641,6.387-8.79,13.114-12.468,20.1c-3.651,6.936-6.86,14.113-9.565,21.47
					c-1.53,4.161-3.01,8.394-4.077,12.701c-0.051,0.207,0.252,0.289,0.318,0.087c1.22-3.736,2.351-7.493,3.686-11.191
					c1.349-3.74,2.816-7.438,4.407-11.082c3.13-7.167,6.736-14.122,10.753-20.832c2.265-3.784,4.663-7.495,7.169-11.124
					C301.705,301.299,301.484,301.175,301.389,301.306z"/>
				<path d="M389.513,313.888c-5.105-3.246-8.233-8.729-9.74-14.472c-1.834-6.99-1.707-14.403-1.994-21.575
					c-0.166-4.145-0.288-8.295-0.525-12.437c-0.023-0.395-0.629-0.402-0.62,0c0.09,3.828,0.284,7.654,0.439,11.48
					c0.153,3.764,0.267,7.533,0.483,11.294c0.382,6.642,1.314,13.492,4.865,19.262c1.715,2.787,4.004,5.216,6.865,6.833
					C389.539,314.415,389.754,314.042,389.513,313.888z"/>
				<path style="fill:#F2A888;" d="M306.442,304.773c-0.384,3.416,0.719,6.457,1.038,10.557c0.056,0.723,0.116,1.462,0.405,2.127
					c0.084,0.193,0.188,0.385,0.193,0.595c0.012,0.56-0.727,0.884-1.248,0.679c-0.652-0.256-1.159-1.179-1.485-1.769
					c-0.441-0.797-0.644-5.98-2.141-3.486c-1.121,1.866-1.305,4.145-1.228,6.32c0.076,2.176,0.383,4.359,0.13,6.521
					c-0.24,2.051-1.317,3.725-3.442,4.108c-3.964,0.713-7.41-4.731-7.907-8.025c-0.77-5.101,0.641-10.3,2.687-15.036
					c1.823-4.22,3.831-9.635,6.625-13.28c2.255-2.941,4.573-6.823,7.924-8.637c0.672-0.364,1.433-0.651,2.188-0.531
					c1.29,0.206,2.132,1.573,2.193,2.878s-0.469,2.556-0.987,3.754C309.556,295.772,307.019,300.158,306.442,304.773z"/>
				<path style="fill:#C46345;" d="M310.233,301.825c-0.108,0.065-0.215,0.127-0.319,0.187c-0.558,0.318-1.132,0.642-1.766,0.745
					c-0.733,0.119-1.478-0.068-2.197-0.253c-2.441-0.629-4.881-1.258-7.322-1.887c-1.636-0.422-3.283-0.847-4.812-1.566
					c-0.282-0.133-0.583-0.299-0.696-0.59c-0.129-0.331,0.03-0.697,0.19-1.014c3.198-6.325,8.103-11.644,13.461-16.283
					c5.358-4.639,11.209-8.67,16.803-13.022c0.602-0.469,1.216-0.949,1.937-1.199c2.182-0.758,6.453,1.285,8.058,2.867
					c2.146,2.115,2.374,5.476,2.339,8.31c-0.046,3.66-0.682,8.509-3.621,11.032c-3.819,3.278-7.77,6.49-12.517,7.991
					C316.655,297.144,312.903,300.226,310.233,301.825z"/>
				<path d="M344.729,247.829c-4.922,3.915-7.747,9.801-9.746,15.63c-1.165,3.397-2.088,6.87-3.118,10.309
					c-1.033,3.448-2.238,6.831-3.619,10.155c-1.595,3.839-3.363,7.605-5.127,11.37c-0.141,0.302,0.305,0.567,0.451,0.263
					c3.08-6.447,6.124-12.923,8.279-19.751c2.073-6.567,3.533-13.41,6.82-19.521c1.646-3.06,3.714-5.88,6.306-8.209
					C345.145,247.923,344.9,247.693,344.729,247.829z"/>
				<path style="fill:#C46345;" d="M381.401,197.691c-0.502-1.023-1.134-2.058-2.142-2.651c-0.299-0.176-0.641-0.334-0.994-0.329
					c-0.385,0.005-0.755,0.214-0.95,0.547c-0.303,0.516-0.169,1.172,0.078,1.68c0.306,0.629,0.712,1.254,1.126,1.816
					c0.16,0.217,0.332,0.426,0.504,0.636c0.235,0.505,0.487,1.047,0.988,1.308c0.783,0.409,1.699-0.13,1.9-0.951
					C382.09,199.013,381.715,198.329,381.401,197.691z"/>
				<path d="M332.605,305.086c-2.088,0.273-4.184,0.126-6.269-0.092c-2.107-0.221-4.214-0.452-6.32-0.678
					c-4.274-0.458-8.547-0.911-12.825-1.327c-0.235-0.023-0.227,0.334,0,0.363c4.272,0.543,8.548,1.049,12.825,1.551
					c2.107,0.247,4.212,0.506,6.32,0.738c2.085,0.23,4.18,0.389,6.269,0.127C333.035,305.713,333.038,305.029,332.605,305.086z"/>
			</g>
			<path d="M375.641,234.01c-1.6,0.912-3.434,1.199-5.244,1.363c-1.992,0.181-3.995,0.333-5.994,0.387
				c-3.964,0.106-7.868-0.309-11.366-2.295c-0.495-0.281-0.94,0.482-0.446,0.762c3.539,2.008,7.819,2.434,11.812,2.286
				c2.105-0.078,4.216-0.258,6.308-0.496c1.822-0.207,3.62-0.57,5.202-1.542C376.208,234.294,375.943,233.837,375.641,234.01z"/>
		</g>
		<g>
			<g>
				<path style="fill:#B5C7BA;" d="M307.046,168.096c-0.817-7.668-6.095-13.888-13.371-16.267
					c-5.439-1.779-11.287-1.693-17.009-1.59c-6.293,0.114-12.587,0.227-18.88,0.341c-15.681,0.283-38.009,4.178-31.817,25.911
					c2.856,10.024,14.514,9.918,23.393,9.876c12.953-0.06,25.958-0.123,38.838-1.65c8.487-1.006,16.695-1.324,18.684-11.992
					C307.163,171.225,307.212,169.656,307.046,168.096z"/>
				<path style="fill:#B5C7BA;" d="M290.217,189.426c1.926,6.769,5.823,13.179,11.725,17.012
					c-12.731-4.344-23.355-16.295-23.306-29.746c0.009-2.593,0.433-5.276,1.86-7.441c1.453-2.206,3.772-3.366,6.351-3.285
					C290.451,172.567,288.11,182.02,290.217,189.426z"/>
			</g>
			<path d="M294.982,165.83c-7.751-0.195-15.516-0.067-23.269-0.053c-7.757,0.013-15.513,0.027-23.269,0.04
				c-4.376,0.008-8.751,0.022-13.126,0.06c-0.663,0.006-0.665,1.025,0,1.031c15.512,0.135,31.026,0.091,46.539,0.118
				c4.376,0.008,8.752,0.039,13.126-0.071C295.706,166.937,295.707,165.848,294.982,165.83z"/>
			<path d="M252.995,172.63c-5.22-0.427-10.507-0.341-15.743-0.454c-0.712-0.015-0.712,1.09,0,1.106
				c5.234,0.12,10.511,0.443,15.743,0.248C253.579,173.508,253.567,172.676,252.995,172.63z"/>
			<path d="M289.734,172.572c-2.142-0.252-4.373-0.077-6.531-0.066c-2.243,0.011-4.486,0.021-6.728,0.032
				c-4.42,0.021-8.839,0.029-13.259,0.016c-0.603-0.002-0.604,0.939,0,0.937c4.42-0.014,8.839-0.006,13.259,0.015
				c2.177,0.01,4.354,0.021,6.531,0.031c2.222,0.011,4.522,0.195,6.728-0.065C290.311,173.404,290.313,172.64,289.734,172.572z"/>
		</g>
	</g>
</g>
</svg>
