<?xml version="1.0" encoding="utf-8"?>
<!-- Generator: Adobe Illustrator 27.5.0, SVG Export Plug-In . SVG Version: 6.00 Build 0)  -->
<svg version="1.1" xmlns="http://www.w3.org/2000/svg" xmlns:xlink="http://www.w3.org/1999/xlink" x="0px" y="0px"
	 viewBox="0 0 500 500" style="enable-background:new 0 0 500 500;" xml:space="preserve">
<g id="BACKGROUND">
	<rect style="fill:#FFFFFF;" width="500" height="500"/>
</g>
<g id="OBJECTS">
	<g>
		<path style="fill:#FFE8E6;" d="M213.196,190.783c9.051-9.493,13.599-23.106,12.073-36.133
			c-1.265-10.798-6.435-21.012-6.477-31.884c-0.025-6.534,1.816-12.943,2.135-19.47c1.367-28.011-30.547-45.069-53.554-49.883
			c-32.674-6.837-66.874-1.268-98.016,9.653C56.673,67.512,43.08,74.053,38.214,86.581c-2.882,7.418-2.137,15.664-2.528,23.612
			c-1.091,22.223-11.3,44.589-5.266,66.005c4.891,17.358,21.074,30.937,39.017,32.74c9.653,0.97,19.347-1.177,29.048-1.115
			c12.56,0.081,24.771,3.848,37.193,5.706c13.892,2.078,26.533-1.756,39.852-2.597C187.944,210.149,204.822,199.566,213.196,190.783
			z"/>
		<g>
			<line style="fill:none;stroke:#000000;stroke-miterlimit:10;" x1="188.079" y1="204.247" x2="170.223" y2="193.568"/>
			<line style="fill:none;stroke:#000000;stroke-miterlimit:10;" x1="170.223" y1="193.568" x2="151.237" y2="204.24"/>
			<line style="fill:none;stroke:#000000;stroke-miterlimit:10;" x1="170.173" y1="161.856" x2="170.173" y2="193.583"/>
			<line style="fill:none;stroke:#000000;stroke-miterlimit:10;" x1="169.401" y1="207.381" x2="170.223" y2="193.568"/>
			<circle style="fill:#1C0C00;" cx="151.967" cy="203.819" r="2.312"/>
			<circle style="fill:#1C0C00;" cx="169.339" cy="207.443" r="2.312"/>
			<circle style="fill:#1C0C00;" cx="188.079" cy="204.247" r="2.312"/>
		</g>
		<path style="fill:none;stroke:#000000;stroke-width:0.5;stroke-miterlimit:10;" d="M72.325,94.643
			c2.367-0.392,4.624-1.427,6.466-2.964c0.649-0.542,1.266-1.173,1.554-1.968c0.288-0.795,0.172-1.787-0.469-2.339
			c-0.602-0.519-1.549-0.521-2.225-0.104c-0.676,0.417-1.086,1.187-1.19,1.974c-0.265,2.006,1.403,3.914,3.364,4.409
			c1.961,0.495,4.059-0.162,5.77-1.241c1.173-0.74,2.276-1.767,2.59-3.118c0.12-0.515,0.089-1.126-0.302-1.483
			c-0.746-0.682-1.957,0.169-2.299,1.12c-0.77,2.139,0.594,4.644,2.638,5.64c2.043,0.996,4.521,0.715,6.605-0.193
			c1.922-0.838,3.706-2.314,4.271-4.333c0.12-0.429,0.181-0.895,0.032-1.315c-0.294-0.827-1.37-1.19-2.194-0.888
			c-0.824,0.302-1.382,1.107-1.614,1.954c-0.471,1.719,0.261,3.632,1.588,4.823c1.326,1.19,3.156,1.715,4.938,1.719
			c3.153,0.007,6.447-1.816,7.414-4.817c0.351-1.089,0.057-2.683-1.084-2.769c-0.496-0.037-0.958,0.253-1.322,0.592
			c-2.029,1.891-1.833,5.411-0.066,7.549c3.976,4.812,13.435,4.062,17.888,0.52c0.501-0.399,0.998-0.875,1.141-1.499
			c0.143-0.624-0.239-1.401-0.878-1.445c-0.338-0.023-0.661,0.158-0.911,0.387c-0.964,0.887-1.002,2.503-0.294,3.605
			c0.708,1.102,2.001,1.723,3.298,1.905c1.297,0.181,7.158,0.549,12.404-4.221"/>
		<path style="fill:#DA9372;" d="M138.754,107.455c-0.08-0.517-0.166-1.034-0.282-1.557c-0.043-0.193-0.086-0.388-0.172-0.566
			c-0.121-0.253-0.32-0.459-0.501-0.673c-1.644-1.942-2.072-5.335-1.241-7.7c0.254-0.722,0.637-1.392,1.058-2.03
			c0.499-0.756,1.059-1.482,1.755-2.061c0.441-0.368,0.952-0.68,1.52-0.765c0.568-0.085,1.201,0.095,1.544,0.557
			c0.357,0.48,0.328,1.173,0.04,1.697c-0.395,0.718-1.188,0.923-1.656,1.553c-0.345,0.463-0.446,1.097-0.262,1.644
			c0.057,0.169,0.151,0.341,0.313,0.415c0.122,0.055,0.264,0.046,0.393,0.009c0.363-0.104,0.642-0.416,0.777-0.769
			c0.283-0.742-0.037-1.522,0.254-2.282c0.08-0.208,0.286-0.437,0.487-0.338c0.113,0.055,0.158,0.19,0.192,0.311
			c0.147,0.524,0.438,1.058,0.54,1.575c0.11,0.556-0.125,1.215-0.218,1.761c-0.213,1.235-0.514,2.455-0.899,3.648
			c-0.041,0.128-0.084,0.258-0.087,0.393c-0.004,0.162,0.05,0.318,0.103,0.471c0.818,2.351,1.914,4.699,2.52,7.11
			c0.242,0.963,0.745,2.944,0.023,3.774c-0.4,0.46-1.045,0.603-1.646,0.708c-1.063,0.187-2.312,0.279-3.068-0.491
			c-0.501-0.511-0.637-1.267-0.736-1.975c0.153-0.896-0.397-2.221-0.549-3.115C138.884,108.321,138.821,107.888,138.754,107.455z"/>
		<path d="M123.052,187.645c-0.046,0.173-0.107,0.344-0.188,0.512c-0.712,1.492-2.515,2.755-3.851,3.826
			c-2.348,1.882-4.713,3.83-6.584,6.203c-0.582,0.738-1.192,1.647-0.917,2.546c0.19,0.62,0.767,1.048,1.368,1.289
			c2.602,1.043,5.069-0.645,7.274-1.826c2.643-1.416,5.286-2.831,7.93-4.246c0.324-0.173,0.657-0.354,0.874-0.625
			c0.289-0.361,0.328-0.825,0.357-1.264c0.24-3.62,0.479-7.24,0.719-10.86c0.045-0.678,0.078-1.402-0.321-1.988
			c-0.296-0.434-0.794-0.734-1.298-0.988c-0.835-0.422-1.787-0.764-2.745-0.654c-1.535,0.177-2.644,2.035-2.813,3.242
			C122.639,184.367,123.462,186.098,123.052,187.645z"/>
		<path d="M148.994,200.001c0.159,0.584,0.233,1.207,0.179,1.895c-0.274,3.523-2.307,7.572-4.056,10.573
			c-0.591,1.013-1.259,2.098-1.134,3.264c0.487,4.566,7.008-0.429,8.182-1.777c2.272-2.61,3.768-5.847,5.282-8.927
			c0.182-0.369,0.367-0.759,0.347-1.169c-0.015-0.303-0.142-0.589-0.267-0.866c-1.57-3.481-3.237-6.934-5.163-10.24
			c-0.728-1.25-1.505-2.55-2.739-3.304c-1.234-0.754-3.069-0.737-3.925,0.429c-0.788,1.072-0.456,2.573-0.014,3.828
			C146.539,196.133,148.388,197.781,148.994,200.001z"/>
		<path style="fill:#FFFFFF;" d="M179.629,114.815c0.462-0.462,0.914-0.935,1.343-1.43c1.616-1.867,2.921-4.191,2.814-6.658
			c-0.037-0.868-0.249-1.722-0.538-2.542c-0.398-1.13-0.975-2.247-1.93-2.971c-1.001-0.758-2.324-1.001-3.574-0.875
			c-1.249,0.126-2.44,0.591-3.573,1.132c-3.899,1.863-7.288,4.666-10.274,7.792c-2.722,2.85-5.861,5.216-9.48,6.839
			c-0.33,0.148-0.689,0.294-1.044,0.223c-0.285-0.057-0.523-0.246-0.746-0.433c-3.041-2.539-5.915-6.863-7.805-10.344
			c-2.185,0.624-6.128,1.284-8.313,1.908c0.473,3.872,3.633,8.72,5.611,12.082c1.555,2.643,4.128,5.177,6.652,6.92
			c3.91,2.7,8.646,2.557,13.013,1.393c3.646-0.972,8.301-2.046,10.95-4.889c1.454-1.56,2.343-3.514,3.774-5.054
			C177.506,116.835,178.594,115.851,179.629,114.815z"/>
		<path d="M200.307,143.102c-1.449,4.381-3.506,8.386-6.231,11.501c-2.947,3.368-7.011,5.569-11.179,7.2
			c-9.651,3.775-20.355,4.815-30.553,2.969c-2.836-0.514-5.691-1.271-8.095-2.862c-4.711-3.119-5.859-7.434-0.604-10.275
			c4.174-2.257,9.364-4.184,13.906-5.397c4.523-1.208,8.078-3.144,10.887-7.051c2.894-4.026,4.367-8.886,5.529-13.706
			c1.01-4.193,1.823-8.433,2.433-12.703c0.661-4.627,2.324-8.886,6.866-10.82c4.515-1.923,9.416-0.944,13.017,2.345
			c3.561,3.253,5.193,8.112,6.026,12.863C203.635,124.733,203.111,134.622,200.307,143.102z"/>
		<path style="fill:#FFFFFF;" d="M188.859,108.588c-0.861-2.447-2.19-4.886-3.317-7.227c-0.459-0.954-1.076-1.65-1.797-2.412
			c-0.058-0.061-0.122-0.126-0.205-0.139c-0.144-0.023-0.259,0.113-0.342,0.233c-1.194,1.744-2.549,3.506-4.476,4.375
			c-0.358,0.161-0.754,0.291-1.138,0.21c-0.456-0.096-0.809-0.478-0.994-0.906c-0.185-0.428-0.228-0.901-0.269-1.365
			c0.018,0.205-0.799,0.771-0.954,0.9c-0.33,0.275-0.517,0.481-0.74,0.849c-0.453,0.747-0.783,1.523-1.024,2.363
			c-0.475,1.656-0.629,3.375-0.983,5.056c-1.447,6.884-3.664,13.607-6.602,19.999c-2.702,5.877-1.674,10.169,1.233,15.817
			c1.445,2.808,3.35,5.318,6.425,5.989c2.429,0.52,5.012-0.263,7.042-1.695c2.105-1.485,3.68-3.611,4.983-5.829
			c3.198-5.445,4.817-11.682,4.812-17.997C190.508,120.674,190.94,114.502,188.859,108.588z"/>
		<path style="fill:#5077D9;" d="M183.272,152.314c-0.229,0.549-0.507,1.077-0.827,1.571c-1.792,2.764-4.694,4.621-7.693,5.984
			c-4.761,2.164-9.959,3.376-15.204,2.934c-5.039-0.424-9.236-2.606-13.701-4.699c-0.458-0.215-0.984,0.15-0.942,0.654
			c0.216,2.567,1.219,5.038,2.125,7.471c3.186,8.549,5.34,17.443,7.486,26.311c0.839,3.468,2.408,5.321-0.631,7.723
			c-3.168,2.304-6.376,4.339-9.799,6.244c-3.687-7.731-7.172-15.559-10.449-23.473c-1.848-4.463-4.541-8.44-6.17-13.112
			c-1.64-4.704-2.831-9.648-2.884-14.652c-0.087-8.203,3.69-16.924,11.054-20.54c11.231-5.514,28.1,0.265,38.476,4.173
			c1.811,0.682,3.56,1.512,5.202,2.535c1.334,0.831,2.657,1.806,3.539,3.125C184.358,146.813,184.325,149.791,183.272,152.314z"/>
		<path style="fill:#5077D9;" d="M166.353,133.757c-6.249-3.93-11.139-3.781-18.295-5.928c-4.102-1.231-13.243-2.167-17.273-0.715
			c-9.727,3.503-10.443,19.195-11.14,27.902c-0.931,11.63-2.759,20.084-1.738,31.684c2.696,0.467,11.584,2.792,14.261,2.267
			c1.926-9.698,3.851-19.396,5.777-29.094c0.692-3.484,1.335-6.973,1.284-10.539c-0.075-5.209,2.131-2.165,5.161,0.084
			c5.564,4.13,11.34,8.058,17.708,10.852c3.804,1.67,8.232,0.585,12.029-0.802c4.891-1.787,9.29-5.223,11.617-9.882
			c1.124-2.251,1.745-4.714,2.357-7.154C180.943,141.831,172.379,137.547,166.353,133.757z"/>
		<path style="fill:#FFFFFF;" d="M162.967,133.479c7.22,6.158,16.307,10.097,25.738,11.156c1.142-4.112,1.952-8.316,2.42-12.558
			c-0.022,0.2-8.153-1.851-8.964-2.109c-3.025-0.964-5.973-2.17-8.807-3.603c-1.835-0.929-4.723-3.468-6.243-1.082
			C165.516,127.787,164.364,130.834,162.967,133.479z"/>
		<path style="fill:#5077D9;" d="M139.564,186.533c2.304-2.226,2.454-5.821,2.291-9.02c-0.473-9.293,0.112-19-0.509-28.289
			c-0.145-2.167-2.554-3.824-3.62-5.716c-1.066-1.892-3.41-3.267-5.433-2.477c-1.359,0.531-2.221,1.856-2.91,3.142
			c-3.188,5.945-3.796,11.49-2.535,18.134c1.405,7.401,3.847,14.604,7.231,21.334c0.411,0.816,0.384,0.78,0.915,1.523
			c0.531,0.743,1.214,1.44,2.094,1.684C138.162,187.146,138.764,187.307,139.564,186.533z"/>
		<path d="M192.458,144.039c-2.525-0.971-6.759,3.716-8.564,4.963c-4.059,2.804-8.529,4.774-13.203,6.008
			c-7.837,2.07-15.905,0.279-23.604,2.106c-0.904,0.215-1.969,0.705-2.007,1.634c-0.013,0.32,0.111,0.635,0.294,0.898
			c0.617,0.889,1.781,1.176,2.84,1.396c2.874,0.598,11.818,2.9,12.006,2.965c10.365-0.305,17.923-3.842,27.796-7.546
			c0.883-1.072,1.692-2.203,2.404-3.398C191.321,151.556,195.084,145.054,192.458,144.039z"/>
		<path style="fill:#DA9372;" d="M219.108,131.416c2.135-1.704,4.8-2.873,7.175-4.206c2.028-1.138,2.881-3.631,2.343-5.906
			c-0.277-1.172-0.938-2.24-1.83-3.043c-0.423-0.381-2.341-1.901-2.764-1.012c-0.174,0.366,0.075,0.778,0.228,1.154
			c0.481,1.181-0.158,2.692-1.174,3.4c-0.146,0.102-0.324,0.184-0.499,0.147c-0.131-0.028-0.24-0.12-0.322-0.227
			c-0.23-0.3-0.268-0.716-0.167-1.08c0.214-0.764,0.936-1.201,1.155-1.985c0.06-0.215,0.03-0.521-0.189-0.562
			c-0.124-0.023-0.24,0.059-0.339,0.136c-0.43,0.333-0.982,0.589-1.372,0.944c-0.42,0.382-0.624,1.05-0.874,1.545
			c-0.564,1.119-1.05,2.278-1.451,3.466c-0.043,0.127-0.086,0.257-0.164,0.367c-0.093,0.132-0.23,0.226-0.364,0.317
			c-2.057,1.401-4.336,2.635-6.259,4.21c-0.769,0.63-2.352,1.921-2.266,3.018c0.048,0.608,0.48,1.107,0.9,1.549
			c1.476,1.556,3.55,2.135,5.339,0.672c0.811-0.663,1.423-1.535,2.171-2.268C218.617,131.826,218.858,131.615,219.108,131.416z"/>
		<path style="fill:#FFFFFF;" d="M196.174,106.578c-1.635-2.219-3.84-3.955-6.495-5.137c-1.443-0.643-2.945-1.234-4.523-1.32
			c-2.335-0.127-5.899,1.03-5.906,3.781c-0.007,2.992,0.529,6.353,0.864,9.347c0.119,1.061,0.069,2.549,0.478,3.535
			c0.335,0.809,1.084,1.43,1.539,2.216c1.057,1.826,1.443,3.969,1.991,5.981c1.361,5.001,3.901,9.781,7.809,13.185
			c3.908,3.404,9.275,5.297,14.38,4.403c5.836-1.022,11.211-4.622,14.483-9.561c-2.055-2.195-2.513-6.271-4.088-8.313
			c-2.697,2.302-7.165,3.836-10.604,4.701c-1.325,0.333-2.763,0.54-4.027,0.022c-3.126-1.282-2.325-6.68-2.42-9.286
			c-0.107-2.951-0.221-5.943-1.09-8.765C198.018,109.588,197.211,107.985,196.174,106.578z"/>
		<path style="fill:none;stroke:#000000;stroke-width:0.5;stroke-miterlimit:10;" d="M172.614,111.45
			c-2.264,5.217-4.08,11.95-7.214,16.992"/>
		<g>
			<path d="M170.548,143.106h-40.414c-0.41,0-0.708,0.392-0.598,0.788l0.004,0.013c0.075,0.269,0.319,0.454,0.598,0.454h40.41
				c0.341,0,0.618-0.276,0.62-0.617c0-0.004,0-0.008,0-0.013C171.171,143.386,170.893,143.106,170.548,143.106z"/>
			<path d="M163.619,144.36h-33.821c-0.259,0-0.488-0.171-0.56-0.42l-5.151-17.669c-0.109-0.374,0.171-0.747,0.56-0.747h33.821
				c0.259,0,0.488,0.171,0.561,0.42l5.152,17.669C164.288,143.987,164.008,144.36,163.619,144.36z"/>
			<path style="fill:#DFF2DC;" d="M144.976,134.942c0,0.824-0.668,1.492-1.491,1.492c-0.823,0-1.491-0.668-1.491-1.492
				c0-0.824,0.668-1.493,1.491-1.493C144.308,133.449,144.976,134.118,144.976,134.942z"/>
		</g>
		<g>
			<rect x="187.849" y="144.635" style="fill:#FF9C49;" width="2.724" height="75.004"/>
			<rect x="62.623" y="144.635" style="fill:#FF9C49;" width="2.724" height="75.004"/>
			<g>
				<rect x="54.289" y="144.36" style="fill:#FF9C49;" width="147.224" height="1.554"/>
			</g>
		</g>
		<g>
			<path style="fill:#DA9372;" d="M111.63,144.534c3.573-0.157,7.158-0.132,10.727,0.142c3.093,0.237-0.06-3.222-0.969-3.88
				c-1.696-1.229-3.792-1.706-5.863-1.643c-1.481,0.045-2.941,0.393-4.423,0.443c-3.212,0.109-6.758-2.667-9.93-1.542
				c-1.011,0.358-2.481,1.509-2.965,2.496c-0.819,1.671-0.316,3.067,1.422,3.733c2.612,1,5.814,0.666,8.538,0.459
				C109.32,144.655,110.474,144.585,111.63,144.534z"/>
			<path style="fill:#DA9372;" d="M126.697,218.506c-0.055-0.322,1.216-1.347,1.125-1.656c-4.557-15.41-11.553-30.852-16.981-45.977
				c-1.785-4.974-4.53-8.315-9.652-10.087c-2.697-0.933-5.578-1.17-8.423-1.4c-7.249-0.585-14.499-1.171-21.748-1.756
				c-5.526-0.446-13.664-1.004-17.264,4.261c-3.289,4.808-1.017,14.417,3.15,18.321c4.385,4.11,10.866,2.132,16.132,1.731
				c8.886-0.676,18.013-2.788,26.391-5.879c-1.606,0.592,7.053,19.194,7.998,20.858c3.948,6.948,15.173,23.387,16.264,23.902
				c1.091,0.516,1.762-0.674,2.256-1.775C126.141,218.609,126.779,218.989,126.697,218.506z"/>
			<path style="fill:#DA9372;" d="M55.792,97.09c0.03-1.046,0.102-2.089,0.242-3.124c0.484-3.58,2.465-6.011,5.178-8.279
				c0.955-0.798,2.157-1.416,3.396-1.297c1.363,0.131,2.341,1.747,2.921,2.852c0.234,0.446,0.469,0.915,0.593,1.403
				c0.137,0.541,0.18,1.071,0.484,1.558c0.208,0.333,0.501,0.606,0.711,0.937c0.332,0.521,0.44,1.152,0.498,1.767
				c0.144,1.528,0.188,3.654-0.507,5.069c-0.824,1.679-3.088,1.71-3.607,3.765c-0.564,2.231,0.95,6.615,1.455,8.836
				c0.097,0.424,0.555,0.674,0.371,1.068c-0.147,0.315-0.445,0.527-0.731,0.725c-1.636,1.134-3.32,2.678-5.432,2.67
				c-1.084-0.004-2.072-0.5-3.13-0.639c-1.05-0.138-1.904-0.249-2.853-0.813c-0.134-0.08-0.272-0.172-0.334-0.314
				c-0.075-0.172-0.021-0.371,0.031-0.551C56.526,107.691,55.639,102.338,55.792,97.09z"/>
			<path style="fill:#DA9372;" d="M94.605,222.472c1.927-8.931,3.892-21.776,5.689-31.044c1.725-8.896,3.735-17.591,3.438-26.656
				c-0.063-1.931-0.771-3.977-2.294-5.166c-0.799-0.624-1.797-0.927-2.779-1.181c-7.564-1.959-15.497-1.768-23.308-1.564
				c-6.695,0.175-13.743-0.242-20.375,0.608c-0.201,2.077,0.849,4.91,2.596,6.216c1.377,1.03,3.19,1.219,4.904,1.347
				c6.061,0.451,12.296,1.301,18.287,2.31c2.044,0.344,4.165,0.879,6.131,1.539c2.272,0.762,2.227,0.193,2.378,2.809
				c0.089,1.551-0.565,3.288-0.925,4.778c-3.256,13.443-1.695,33.067,0.738,46.514c0.309,1.707,1.749,0.509,3.373-0.102
				C93.082,222.646,94.548,222.732,94.605,222.472z"/>
			<path style="fill:#5077D9;" d="M47.055,142.806c0.827,4.96,2.419,9.702,4.219,14.371c1.594,4.134,3.233,8.346,6.046,11.769
				c3.673,4.469,9.266,6.656,14.472,8.762c2.932,1.186,6.412,1.578,9.493,2.2c3.567,0.72,9.726,2.815,13.093,0.882
				c1.44-0.826,2.509-2.161,3.489-3.502c3.576-4.893,6.45-10.298,8.507-15.998c0.134-0.371-5.038-2.666-5.849-3.076
				c-2.966-1.501-7.004-3.349-10.205-4.23c-4.472-1.231-8.96-2.406-13.463-3.523c-1.439-0.357-5.837-0.63-6.763-1.772
				c-0.782-0.964-0.271-3.355-0.133-4.462c0.949-7.616,5.865-20.18,3.861-28.051c-1.495-5.871-5.07-8.655-11.831-9.469
				c-7.222-0.868-10.548,8.105-12.508,13.373C46.797,127.301,45.807,135.203,47.055,142.806z"/>
			<path d="M49.722,182.371c0.884,0.867,2.044,1.327,3.156,1.912c9.634,5.074,26.9,1.861,39.707-0.146
				c3.203-0.502,4.312-3.437,1.642-5.552c-5.976-4.732-13.388-7.187-20.611-9.623c-1.655-0.558-3.444-1.225-4.342-2.723
				c-0.372-0.622-0.555-1.336-0.733-2.038c-1.472-5.818-2.968-11.634-4.76-17.363c-2.568-8.21-4.711-17.885-15.296-18.247
				c-1.035-0.035-2.085,0.049-3.064,0.386c-1.729,0.594-3.119,1.941-4.108,3.479c-2.123,3.301-2.646,6.771-2.416,10.625
				c0.406,6.807,1.268,13.696,2.249,20.431C42.178,170.595,44.545,177.296,49.722,182.371z"/>
			<path style="fill:#1C0C00;" d="M68.087,82.117c-0.747-1.126-2.185-1.802-3.503-1.503c-0.701,0.159-1.318,0.562-1.919,0.957
				c-2.028,1.336-4.21,2.634-5.828,4.477c-1.609,1.832-2.404,4.054-3.328,6.263c-2.339,5.592-5.612,10.722-8.246,16.17
				c-0.688,1.424-1.348,2.963-1.147,4.531c0.275,2.142,2.148,3.802,4.197,4.484c2.049,0.682,4.265,0.576,6.421,0.463
				c2.263-0.119,4.704-0.305,6.432-1.771c1.893-1.604,2.399-4.296,2.545-6.772c0.231-3.902-0.134-7.824,0.254-11.72
				c0.158-1.585,0.804-2.961,1.064-4.46c0.235-1.357-0.739-2.861,0.399-4.019c0.623-0.634,1.476-1.003,2.103-1.633
				c0.437-0.438,0.749-0.991,0.952-1.576C68.927,84.732,68.834,83.243,68.087,82.117z"/>
			<path style="fill:#5077D9;" d="M108.099,136.761c-1.691-2.037-8.277-2.258-10.802-2.819c-4.358-0.969-8.875-2.01-12.395-4.756
				c-4.763-3.714-7.11-9.564-10.469-14.409c-1.642-2.369-3.706-4.97-6.336-6.301c-3.88-1.964-4.564,4.945-4.909,7.522
				c-0.045,0.334-0.083,0.676-0.011,1.005c0.491,2.24,0.669,4.594,1.249,6.889c0.718,2.844,1.665,3.753,3.794,5.508
				c2.629,2.166,4.78,4.814,7.079,7.303c1.861,2.014,3.819,3.925,6.208,5.393c3.02,1.857,6.691,2.604,10.161,3.06
				c3.587,0.471,7.232,0.589,10.845,0.426c0.867-0.039,1.733-0.096,2.597-0.181c0.805-0.079,2.569,0.07,2.97-0.848
				c0.505-1.155,0.544-2.777,0.665-4.023C108.862,139.298,108.943,137.777,108.099,136.761z"/>
			<path style="fill:#1C0C00;" d="M140.624,215.153c-0.522-0.952-1.835-0.842-2.833-0.547c-0.493,0.146-0.982,0.306-1.471,0.47
				c-1.404,0.471-2.8,0.968-4.251,1.222c-1.016,0.178-2.069,0.227-3.089,0.059c-0.444-0.073-0.914-0.32-1.373-0.553
				c-1.927,1.215-3.897,2.372-5.924,3.384c0.354,1.135,0.758,2.268,1.192,3.353c0.166,0.415,1.55,3.927,1.825,3.927
				c0.865-0.335,1.695-0.771,2.47-1.298c-0.231-0.51-0.34-1.081-0.313-1.646c2.455-0.265,4.854-0.958,7.182-1.826
				c2.342-0.873,4.744-2.025,6.18-4.177C140.681,216.828,141.027,215.887,140.624,215.153z"/>
			<path style="fill:#1C0C00;" d="M107.672,224.208c-0.133-1.077-1.394-1.461-2.431-1.555c-0.512-0.047-1.026-0.079-1.54-0.107
				c-1.478-0.082-2.96-0.135-4.401-0.436c-1.01-0.211-2.006-0.553-2.892-1.087c-0.385-0.232-0.731-0.636-1.071-1.021
				c-2.239,0.417-4.497,0.763-6.755,0.955c-0.09,1.186-0.134,2.388-0.132,3.556c0.001,0.447-0.012,4.221,0.245,4.323
				c0.927,0.009,1.86-0.09,2.775-0.293c-0.026-0.559,0.084-1.13,0.318-1.645c2.379,0.661,4.864,0.904,7.349,0.958
				c2.499,0.054,5.157-0.128,7.286-1.597C107.106,225.785,107.775,225.038,107.672,224.208z"/>
			<path style="fill:#DA9372;" d="M65.921,94.249c-0.084-0.258-0.227-0.481-0.43-0.669c-0.14-0.108-0.28-0.217-0.421-0.325
				c-0.324-0.188-0.674-0.283-1.049-0.284c-0.184,0.025-0.368,0.049-0.553,0.074c-0.352,0.099-0.658,0.277-0.917,0.535
				c-0.026,0.026-0.051,0.051-0.077,0.077c-0.203,0.188-0.346,0.411-0.43,0.669c-0.13,0.248-0.19,0.515-0.179,0.801
				c-0.011,0.286,0.049,0.553,0.179,0.801c0.084,0.258,0.227,0.48,0.43,0.669c0.14,0.108,0.281,0.217,0.421,0.325
				c0.324,0.188,0.674,0.283,1.049,0.284c0.184-0.025,0.368-0.049,0.553-0.074c0.352-0.099,0.658-0.277,0.917-0.535
				c0.025-0.026,0.051-0.051,0.077-0.077c0.203-0.188,0.346-0.411,0.43-0.669c0.13-0.248,0.19-0.515,0.179-0.801
				C66.11,94.764,66.051,94.497,65.921,94.249z"/>
			<path style="fill:#1C0C00;" d="M63.98,96.09c-0.078-0.139-0.137-0.29-0.197-0.437c-0.027-0.068-0.05-0.138-0.065-0.21
				c-0.031-0.156-0.061-0.32-0.054-0.481c0.006-0.123,0.026-0.249,0.047-0.37c0.006-0.034,0.014-0.068,0.025-0.101
				c0.046-0.145,0.111-0.277,0.185-0.404c-0.357,0.02-0.705,0.221-0.878,0.537c-0.217,0.397-0.149,0.927,0.152,1.266
				c0.119,0.134,0.275,0.242,0.452,0.271c0.121,0.02,0.241,0.002,0.359-0.032C63.998,96.115,63.987,96.104,63.98,96.09z"/>
			<path style="fill:none;stroke:#1C0C00;stroke-width:0.5;stroke-miterlimit:10;" d="M63.895,97.162
				c0.561,0.001,1.117-0.257,1.479-0.684"/>
			<path style="fill:none;stroke:#1C0C00;stroke-width:0.5;stroke-miterlimit:10;" d="M74.966,136.306
				c-2.335-3.59-4.203-7.482-5.544-11.549"/>
			<path style="fill:none;stroke:#1C0C00;stroke-width:0.5;stroke-miterlimit:10;" d="M101.845,184.59
				c-0.813-1.875-1.626-3.749-2.44-5.624c-0.103-0.237-0.209-0.48-0.388-0.667c-0.4-0.418-1.099-0.492-1.414-0.978"/>
			<g>
				<line style="fill:none;stroke:#000000;stroke-miterlimit:10;" x1="60.269" y1="182.063" x2="52.706" y2="226.538"/>
			</g>
			<g>
				<line style="fill:none;stroke:#000000;stroke-miterlimit:10;" x1="75.853" y1="182.063" x2="83.415" y2="226.538"/>
			</g>
			
				<line style="fill:none;stroke:#000000;stroke-width:2;stroke-miterlimit:10;" x1="56.085" y1="206.641" x2="79.736" y2="206.641"/>
		</g>
		<path style="fill:none;stroke:#000000;stroke-width:0.5;stroke-miterlimit:10;" d="M153.399,116.585
			c-0.143,0.763-0.185,1.544-0.124,2.318"/>
		<path style="fill:#DA9372;" d="M175.065,94.725c0.148,0.129,0.16,0.705,0.194,0.896c0.27,1.508,0.406,3.04,0.406,4.572
			c0,0.547-0.023,1.094-0.05,1.64c1.114,1.409,3.578,1.652,5.382,1.16c1.163-0.317,2.255-0.896,3.213-1.657
			c-0.066-0.395-0.185-0.789-0.301-1.174c-1.089-3.623-0.699-7.498-0.835-11.279c-0.068-1.871-0.465-3.505-0.919-5.299
			c-0.163-0.644-0.094-1.299-0.272-1.958c-0.224-0.83-0.503-1.668-0.981-2.391c-1.277-1.931-3.977-2.697-6.153-1.907
			c-1.441,0.523-3.177,1.887-3.965,3.24c-1.022,1.755-0.754,4.656-0.714,6.608c0.004,0.205,0.01,0.41,0.018,0.616
			c0.058,1.499,0.243,3.014,0.929,4.338c0.44,0.848,1.12,1.595,1.954,2.069c0.434,0.247,0.912,0.422,1.409,0.483
			C174.528,94.701,174.958,94.632,175.065,94.725z"/>
		<path d="M180.118,75.126c-0.295,0.008-0.592,0.033-0.884,0.056c-2.6,0.207-5.628-0.303-7.902,1.207
			c-1.321,0.877-2.485,2.212-2.574,3.796c-0.03,0.537,0.13,1.165,0.625,1.377c1.333,0.571,2.349,0.066,3.788-0.128
			c1.326-0.179,2.75-0.116,3.894,0.579c0.593,0.36,1.08,0.872,1.651,1.268c0.57,0.396,1.286,0.679,1.954,0.492
			c0.371-0.104,0.689-0.343,0.968-0.608c1.347-1.28,2.161-3.717,1.796-5.544c-0.185-0.927-0.748-1.812-1.603-2.213
			C181.299,75.157,180.711,75.109,180.118,75.126z"/>
		<path d="M177.118,76.039c-0.146,0.204-0.214,0.452-0.182,0.749c0.345,3.274,1.243,6.481,2.032,9.669
			c0.571,2.309,0.578,6.096,3.866,4.795c0.917-0.363,1.674-1.043,2.325-1.783c1.874-2.131,2.981-4.898,3.19-7.721
			c0.237-3.199-0.404-4.861-3.525-5.941C183.528,75.358,178.194,74.531,177.118,76.039z"/>
		<path style="fill:#DA9372;" d="M182.244,87.74c0,1.067-0.943,1.933-2.107,1.933s-2.107-0.865-2.107-1.933
			c0-1.067,0.943-1.933,2.107-1.933S182.244,86.673,182.244,87.74z"/>
		<path d="M180.484,86.666c-0.657,0.262-0.949,1.175-0.565,1.769"/>
		<path style="fill:none;stroke:#000000;stroke-width:0.5;stroke-miterlimit:10;" d="M133.205,183.084
			c1.332-10.517,2.807-21.015,4.424-31.492c0.309-2.003,1.606-4.753,3.786-5.298"/>
		<path style="fill:#1C0C00;" d="M191.391,71.788c-0.282-2.667-2.425-4.961-5.154-5.123c-2.746-0.164-5.381,2.009-5.959,4.655
			c-0.37,1.692,0.136,3.45,1.192,4.782c0.196,0.373,0.435,0.723,0.722,1.034c0.825,0.892,1.881,1.217,2.969,1.122
			c0.081,0.018,0.161,0.035,0.242,0.055c0.22,0.053,0.391-0.036,0.492-0.178c0.231-0.06,0.461-0.132,0.688-0.226
			C189.119,76.857,191.716,74.858,191.391,71.788z"/>
		<path style="fill:none;stroke:#000000;stroke-width:0.5;stroke-miterlimit:10;" d="M141.063,95.522
			c1.378,0.481,2.633,1.283,3.711,2.267c4.202,3.839,5.387,9.932,8.523,14.681c2.014,3.051,4.828,5.486,7.957,7.343
			c1.481,0.879,2.796,1.077,4.363,1.607c2.071,0.701,4.001,1.66,6.142,2.189c3.326,0.823,6.776,0.967,10.196,1.189
			c3.419,0.221,6.877,0.532,10.111,1.665c3.234,1.133,6.265,3.18,7.942,6.168c0.599,1.067,1.019,2.261,1.013,3.484
			c-0.011,2.289-3.465,5.748-4.896,2.408c-1.524-3.558,4.058-4.524,6.3-4.623c3.686-0.162,7.507,0.568,11.085-0.632
			c3.58-1.2,6.192-3.986,8.07-7.175c1.084-1.841,1.839-3.911,1.927-6.047c0.03-0.729-0.017-1.471,0.174-2.175
			c0.352-1.296,1.496-1.815,2.803-1.728c1.658,0.11,3.229,1.122,4.015,2.586c0.669,1.245,0.772,2.707,0.843,4.118
			c0.049,0.962,0.09,1.926,0.239,2.878c0.07,0.446,0.166,0.893,0.365,1.298c0.198,0.403,0.492,0.753,0.819,1.061
			c0.89,0.839,2.108,1.401,3.324,1.262"/>
		<path style="fill:none;stroke:#000000;stroke-width:0.5;stroke-miterlimit:10;" d="M170.874,90.244
			c1.271,0.736,3.017,0.526,4.077-0.49"/>
		<path style="fill:#DA9372;" d="M227.403,119.041c-0.313-0.541-0.758-0.995-1.236-1.399c-0.315-0.267-0.653-0.519-1.039-0.664
			c-0.387-0.146-0.831-0.177-1.208-0.007c-0.492,0.222-0.929,1.036-0.509,1.507c0.111,0.125,0.265,0.202,0.399,0.301
			c0.372,0.273,0.594,0.716,0.673,1.171s0.028,0.922-0.061,1.375"/>
		<path style="fill:none;stroke:#000000;stroke-width:0.5;stroke-miterlimit:10;" d="M190.446,137.06
			c-1.594-3.779-2.497-7.848-2.652-11.946c-0.12-3.188,0.207-6.4-0.238-9.558"/>
		<path style="fill:#9EB5AB;" d="M217.354,100.665c-0.461-2.824-3.003-4.986-6.077-4.986s-5.616,2.163-6.077,4.986H217.354z"/>
		<path style="fill:#9EB5AB;" d="M114.387,63.587c-2.721,0.409-4.805,2.659-4.805,5.382c0,2.723,2.084,4.974,4.805,5.382V63.587z"/>
		<path style="fill:#9EB5AB;" d="M118.141,63.587c-2.721,0.409-4.805,2.659-4.805,5.382c0,2.723,2.084,4.974,4.805,5.382V63.587z"/>
		<path style="fill:#9EB5AB;" d="M123.585,74.286c-2.721,0.409-4.805,2.659-4.805,5.382c0,2.723,2.084,4.974,4.805,5.382V74.286z"/>
		<g>
			<path style="fill:#E8BC92;" d="M139.258,67.896c-3.008,0.452-5.312,2.94-5.312,5.951c0,3.011,2.304,5.499,5.312,5.951V67.896z"/>
			<path style="fill:#E8BC92;" d="M156.489,79.321c3.008-0.452,5.312-2.94,5.312-5.951c0-3.011-2.304-5.499-5.312-5.951V79.321z"/>
			<rect x="141.723" y="67.473" style="fill:#9EB5AB;" width="12.302" height="11.794"/>
		</g>
		<path style="fill:#9EB5AB;" d="M217.237,95.062c-0.402-2.815-2.913-4.986-5.96-4.986l0,0c-3.047,0-5.559,2.171-5.96,4.986H217.237
			z"/>
		<g>
			<polyline style="fill:#9EB5AB;" points="93.957,71.462 79.079,71.462 79.079,59.37 			"/>
			<polyline style="fill:#E8BC92;" points="76.92,54.135 91.799,54.135 91.799,66.227 			"/>
		</g>
		<path style="fill:#9EB5AB;" d="M93.814,113.633c0-2.643,2.143-4.786,4.786-4.786s4.786,2.143,4.786,4.786"/>
		<path style="fill:#E8BC92;" d="M119.155,113.351c0,0.933-0.756,1.689-1.689,1.689s-1.689-0.756-1.689-1.689
			c0-0.933,0.756-1.689,1.689-1.689S119.155,112.418,119.155,113.351z"/>
	</g>
	<g>
		<path style="fill:#FFE8E6;" d="M475.337,81.845c-9.177-15.205-24.411-26.816-41.823-30.125
			c-11.861-2.254-25.434,2.363-37.396,2.765c-22.406,0.753-44.343-6.679-66.759-5.082c-21.22,1.512-38.785,10.143-51.189,27.922
			c-8.319,11.925-13.084,26.12-14.88,40.549c-1.097,8.816-1.12,17.725-1.142,26.609c-0.054,21.899-3.772,44.246,19.13,56.299
			c12.628,6.646,27.456,7.319,41.725,7.503c9.18,0.118,18.374,0.099,27.541-0.477c7.618-0.479,14.591,0.515,22.005,0.31
			c17.66-0.489,33.782-10.825,51.013-13.792c7.607-1.31,15.435-1.352,22.898-3.32c18.995-5.01,32.834-33.144,36.314-51.022
			c3.061-15.73,3.547-32.03-2.158-47.256C479.201,88.951,477.426,85.305,475.337,81.845z"/>
		<g>
			<g>
				<polyline style="fill:none;stroke:#000000;stroke-miterlimit:10;" points="456.041,211.858 444.157,160.328 426.606,160.328 
					419.646,211.858 				"/>
				<line style="fill:none;stroke:#000000;stroke-miterlimit:10;" x1="423.521" y1="177.308" x2="448.861" y2="176.94"/>
			</g>
			<path style="fill:#EAA896;" d="M392.76,162.091c-6.444,7.22-11.615,15.447-17.128,23.385
				c-2.761,3.974-10.099,15.494-12.071,18.107c-1.107,1.467-1.741,3.914,0.043,4.356c3.033,0.752,3.588,3.814,6.338,2.045
				c4.804-3.09,11.529-10.937,15.542-15.277c8.563-9.259,17.802-18.323,26.694-27.268c0.717-0.721,1.443-1.45,2.316-1.972
				c1.132-0.677,2.444-0.97,3.726-1.278c7.838-1.883,15.445-4.717,22.612-8.406c6.604-3.399,15.262-7.415,15.612-16.093
				c0.032-0.783-0.043-1.576-0.281-2.322c-1.383-4.333-6.409-4.537-10.431-3.998c-17.066,2.285-33.307,10.031-46.003,21.633
				C397.281,157.24,394.969,159.615,392.76,162.091z"/>
			<path style="fill:#EB845E;" d="M453.943,110.92c-4.691,0.038-9.428,2.456-11.763,6.566c-2.173,3.824-2.256,8.308-2.496,12.581
				c-0.173,3.069,0.704,7.23-2.514,8.475c-1.96,0.758-4.037,1.238-6.005,2c-7.878,3.052-15.173,7.612-21.341,13.388
				c-2.397,2.245-4.805,5.433-3.671,8.515c1.028,2.792,4.383,3.828,7.314,4.34c9.224,1.61,18.939,2.607,28.222,0.896
				c8.131-1.499,15.639-3.344,20.55-10.7c3.794-5.683,5.267-12.591,6.063-19.377c0.546-4.655,0.803-9.428-0.306-13.981
				c-1.109-4.554-3.752-8.909-7.85-11.183C458.245,111.387,456.099,110.902,453.943,110.92z"/>
			<path d="M365.435,202.694c-2.174-0.856-3.291-0.455-5.538-1.088c-2.774-0.781-5.428-1.918-8.128-2.915
				c-0.558-0.206-1.134-0.415-1.729-0.39c-2.871,0.123-1.874,3.448-1.009,4.981c0.748,1.326,1.562,2.661,2.762,3.598
				c0.743,0.58,1.607,0.985,2.479,1.343c1.96,0.806,3.999,1.403,6.033,1.999c1.073,0.314,2.146,0.629,3.219,0.943
				c-0.288,0.971-1.313,1.36-1.601,2.331c0.708,0.408,2.169,1.368,2.909,1.715c2.917-1.816,5.188-4.75,7.681-7.089
				c0.124-0.117,0.257-0.249,0.275-0.418c0.021-0.192-0.111-0.364-0.242-0.505c-0.499-0.537-1.101-0.966-1.699-1.391
				c-1.009-0.718-2.023-1.438-3.125-2.004C367.383,203.631,365.785,202.831,365.435,202.694z"/>
			<path style="fill:#EAA896;" d="M411.398,207.174c-7.279-14.169-14.546-28.426-19.578-43.54c-0.939-2.821-1.809-5.733-1.713-8.705
				c0.164-5.116,3.583-9.028,7.412-12.114c4.619-3.722,10.43-5.976,15.81-8.342c5.802-2.552,11.787-4.778,18.022-6.004
				c2.397-0.472,4.933,1.87,6.231,3.941c1.298,2.07,1.613,4.728,0.837,7.045c-1.156,3.45-4.374,5.718-7.399,7.742
				c-7.079,4.736-15.1,8.671-22.927,12.135c0.854,1.661,1.84,3.292,2.37,5.094c0.634,2.16,1.227,4.333,1.779,6.516
				c1.754,6.947,3.086,14,3.984,21.108c0.365,2.886,1.294,5.92,0.465,8.748c-0.826,2.821-2.544,5.42-5.025,7.043"/>
			<path d="M410.639,201.34c-0.498,0.216-0.997,0.432-1.497,0.647c-0.111,0.048-0.233,0.107-0.275,0.22
				c-0.133,0.358,0.177,0.87,0.073,1.271c-0.18,0.695-0.968,1.475-1.406,2.029c-1.006,1.272-2.143,2.434-3.201,3.662
				c-1.642,1.908-3.15,4.078-3.509,6.569c-0.038,0.263-0.062,0.539,0.027,0.79c0.13,0.367,0.479,0.616,0.846,0.745
				c1.244,0.437,2.57-0.277,3.69-0.972c1.921-1.192,3.794-2.475,5.501-3.962c1.494-1.302,3.195-2.814,3.962-4.646
				c0.416,0.784,0.594,1.822,0.777,2.697c-0.035-0.166,2.467-1.224,2.677-1.326c0.283-0.138,0.579-0.286,0.76-0.544
				c0.175-0.249,0.218-0.567,0.229-0.871c0.059-1.572-0.484-3.327-0.686-4.896c-0.199-1.549-0.965-2.995-1.291-4.516
				C415.124,199.359,412.892,200.36,410.639,201.34z"/>
			<path style="fill:#3C8775;" d="M456.504,132.288c-0.679-2.589-1.689-5.074-2.332-7.675c-0.432-1.748-0.091-1.556-1.699-2.005
				c-1.402-0.391-3.343-0.121-4.804-0.174l-17.894-0.648c-3.098,4.183-6.726,7.558-11.349,9.949
				c-4.624,2.392-9.547,4.138-14.369,6.098c-3.58,1.456-7.164,3.064-10.129,5.544c-3.958,3.309-6.518,7.947-8.04,12.922
				c1.8,0.622,3.489,1.646,5.081,2.714c1.322,0.887,2.611,1.826,3.958,2.676c1.417,0.895,2.934,1.626,4.483,2.264
				c3.275,1.348,6.757,2.098,10.294,2.253c6.738,0.296,13.531-0.11,20.145-1.457c4.618-4.301,10.094-7.785,15.664-10.811
				c5.043-2.74,8.929-5.936,10.962-11.484C457.852,138.693,457.476,135.992,456.504,132.288z"/>
			<path style="fill:none;stroke:#000000;stroke-width:0.5;stroke-miterlimit:10;" d="M398.527,181.565
				c3.644-3.637,10.204-10.302,13.65-14.126"/>
			<path style="fill:#EAA896;" d="M447.826,99.242c0.041-0.171,0.074-0.356,0.099-0.558c0.133-1.048-0.061-2.106-0.202-3.153
				c-0.273-2.038-0.36-4.629-0.03-6.66c0.22-1.351,1.003-1.965,1.793-2.932c0.853-1.045,1.24-2.551,1.52-3.852
				c0.603-2.802-0.015-3.088-1.002-5.783c-1.496-4.083-5.631-6.298-9.132-5.471c-1.237,0.292-2.488,0.592-3.626,1.174
				c-0.966,0.494-2.074,0.87-2.662,1.86c-0.38,0.639-0.429,1.416-0.443,2.159c-0.043,2.394,0.186,4.794,0.683,7.136
				c0.148,0.698,0.325,1.404,0.699,2.011c0.533,0.864,1.603,1.326,2.498,1.732c0.277,0.126,0.576,0.254,0.745,0.507
				c0.167,0.249,0.174,0.568,0.176,0.867c0.022,3.654,0.043,7.308,0.065,10.962c0.008,1.332-0.382,2.82,1.301,2.871
				c1.641,0.05,3.549-0.756,5.193-0.98C446.81,100.955,447.527,100.495,447.826,99.242z"/>
			<path style="fill:#EAA896;" d="M432.347,116.232c5.08-6.872,11.006-17.306,4.225-20.948c-3.25-1.745-4.604,1.492-6.135,3.583
				c-4.501,6.148-14.632,13.781-15.098,21.846c-0.106,1.838,1.026,3.293,2.436,4.477c1.504,1.263,3.788,1.198,5.563,0.359
				s3.156-2.314,4.482-3.762C428.797,120.719,430.517,118.707,432.347,116.232z"/>
			<path style="fill:none;stroke:#000000;stroke-width:0.5;stroke-miterlimit:10;" d="M393.029,161.51
				c-0.918,0.863-1.752,1.816-2.485,2.84"/>
			<path d="M442.072,76.107c-2.482-1.115-5.778,0.045-8.377-0.841c-0.487-0.166-0.971-0.419-1.254-0.849
				c-0.334-0.508-0.325-1.174-0.178-1.764c0.382-1.529,1.663-2.797,3.196-3.163c1.742-0.415,3.533,0.271,5.314,0.459
				c1.825,0.193,3.68-0.142,5.5,0.095c2.516,0.328,4.861,1.803,6.245,3.93c0.811,1.246,1.333,2.729,2.476,3.68
				c0.627,0.522,1.409,0.852,1.967,1.448c1.002,1.07,1.043,2.708,1.706,4.016c1.284,2.534,4.984,4.03,5.095,7.202
				c0.034,0.958-0.277,1.894-0.654,2.776c-1.894,4.433-5.043,4.841-9.356,5.087c-2.167,0.124-4.079-0.782-5.206-2.68
				c-1.064-1.791-1.406-3.906-1.729-5.964c-0.494-3.148-0.991-6.304-1.855-9.371c-0.284-1.008-0.623-2.033-1.292-2.839
				C443.195,76.758,442.656,76.369,442.072,76.107z"/>
			<path style="fill:#5077D9;" d="M434.562,93.3c-0.64,0.28-1.242,0.71-1.852,1.186c-4.173,3.26-5.716,9.236-6.649,14.209
				c-1.126,6.007-1.211,12.179-2.43,18.168c5.635,0.015,11.27-0.026,16.905-0.123c5.457-0.094,10.852,0.463,16.329-0.019
				c-0.64-3.993-1.279-7.987-1.919-11.98c-0.661-4.127-1.571-22.86-5.748-23.001C440.618,91.451,437.342,92.083,434.562,93.3z"/>
			<g>
				<defs>
					<path id="SVGID_1_" d="M447.826,99.242c0.041-0.171,0.074-0.356,0.099-0.558c0.133-1.048-0.061-2.106-0.202-3.153
						c-0.273-2.038-0.36-4.629-0.03-6.66c0.22-1.351,1.003-1.965,1.793-2.932c0.853-1.045,1.24-2.551,1.52-3.852
						c0.603-2.802,0.429-5.778-0.558-8.473c-1.496-4.083-6.075-3.608-9.576-2.782c-1.335,0.315-2.689,0.641-3.885,1.313
						c-4.05,2.272-4.953,8.344-2.389,12.069c0.833,1.21,2.084,2.085,3.423,2.691c0.278,0.126,0.576,0.254,0.745,0.507
						c0.167,0.249,0.174,0.568,0.176,0.867c0.022,3.654,0.043,7.308,0.065,10.962c0.008,1.332-0.382,2.82,1.301,2.871
						c1.641,0.05,3.549-0.756,5.193-0.98C446.81,100.955,447.527,100.495,447.826,99.242z"/>
				</defs>
				<clipPath id="SVGID_00000171689949837079576990000004178901914643714176_">
					<use xlink:href="#SVGID_1_"  style="overflow:visible;"/>
				</clipPath>
				<path style="clip-path:url(#SVGID_00000171689949837079576990000004178901914643714176_);" d="M437.692,86.972
					c1.708,0.243,3.461,0.169,5.143-0.218c-0.461,0.932-1.476,1.434-2.431,1.844c-0.953,0.409-1.945,0.798-2.981,0.805"/>
			</g>
			<path style="fill:#5077D9;" d="M429.384,117.021c0.029-0.099,0.164,0.082,0.068,0.121c-0.095,0.039-0.189-0.056-0.249-0.14
				c-2.561-3.608-4.497-7.533-6.952-11.215c-0.177-0.266,2.467-3.992,3.215-4.965c1.265-1.647,2.639-3.222,4.221-4.573
				c2.831-2.418,6.475-4.111,10.187-3.833c-0.483-0.036-1.957,1.529-2.345,1.858c-0.803,0.681-1.582,1.396-2.284,2.183
				c-1.299,1.456-2.409,3.28-2.852,5.189c-0.584,2.515-0.637,5.222-1.133,7.773C430.765,111.982,430.143,114.522,429.384,117.021z"
				/>
			<path style="fill:none;stroke:#000000;stroke-width:0.5;stroke-miterlimit:10;" d="M460.754,122.35
				c2.037,15.43-5.385,32.206-20.83,37.361"/>
			<path style="fill:#FFFFFF;" d="M416.466,133.106c-0.53,1.06-14.05,10.604-14.05,10.604l27.04,10.339l13.52-13.255
				L416.466,133.106z"/>
			<path style="fill:#EAA896;" d="M459.696,132.526c-1.318,1.695-2.912,3.224-4.526,4.583c-3.074,2.588-6.54,4.644-9.894,6.838
				c-1.068,0.699-2.139,1.399-3.281,1.969c-2.251,1.122-4.281,2.723-6.426,4.087c-2.258,1.435-6.373,2.915-8.23,0.049
				c-0.578-0.891-0.631-2.097-0.134-3.035c0.897-1.696,3.12-2.148,4.511-3.469c0.092-0.087,0.185-0.189,0.199-0.315
				c0.019-0.174-0.121-0.325-0.271-0.415c-0.583-0.348-1.353-0.13-1.983-0.382c-0.175-0.07-0.348-0.193-0.389-0.377
				c-0.045-0.204,0.091-0.407,0.253-0.539c0.698-0.571,1.768-0.306,2.584-0.593c0.992-0.348,1.941-0.809,2.856-1.324
				c1.8-1.013,3.464-2.244,5.176-3.393c2.611-1.752,7.117-5.8,9-8.338c1.524-2.054,1.723-3.38,2.653-6.958
				c0.71-2.73,1.4-5.27,1.664-8.068c0.064-0.679,0.133-1.375,0.428-1.99c0.474-0.986,1.462-1.621,2.467-2.052
				c1.455-0.624,3.048-0.914,4.63-0.867c1.225,0.036,3.292,0.147,4.113,1.177c1.152,1.448,0.37,3.671,0.251,5.326
				c-0.158,2.188-0.453,4.367-0.918,6.511c-0.736,3.391-1.762,7.044-3.625,10.004C460.463,131.493,460.092,132.017,459.696,132.526z
				"/>
			<path style="fill:#EAA896;" d="M420.378,143.721c-0.291,1.178-0.81,2.271-1.714,3.175c-1.474,1.282-3.939,1.648-5.311,0.258
				c-0.833-0.845-1.076-2.127-0.973-3.309c0.102-1.182,0.501-2.316,0.782-3.469c1.1-4.524,0.362-9.28,0.769-13.918
				c0.426-4.851,1.964-11.442,5.753-14.763c0.278-0.244,0.715-0.474,0.981-0.217c0.076,0.073,0.118,0.174,0.158,0.271
				c0.994,2.411,3.131,3.785,3.574,6.522c0.516,3.195,0.433,4.573-0.243,7.744c-0.386,1.809-0.568,5.537-0.954,7.346
				c-0.363,1.702-0.714,3.16-0.203,4.878c0.373,1.255,0.754,2.323,0.381,3.633c-0.13,0.456-0.557,0.896-1.017,0.785
				c-0.415-0.101-0.611-0.581-0.653-1.006c-0.041-0.425,0.003-0.878-0.196-1.255c-0.065-0.122-0.159-0.236-0.288-0.286
				c-0.477-0.184-0.5,0.526-0.507,0.808C420.689,141.871,420.6,142.821,420.378,143.721z"/>
			<path style="fill:#5077D9;" d="M449.196,91.741c6.264,0.302,12.453,4.209,14.927,10.022c1.47,3.454,1.848,7.313,1.449,11.046
				c-0.042,0.386-9.313,0.79-10.239,1.003c-1.527,0.352-5.685,2.816-6.403,0.549c-0.467-1.476-0.798-3.021-1.599-4.345
				c-1.421-2.352-4.056-3.619-6.295-5.213c-2.239-1.594-4.335-4.116-3.764-6.804c0.342-1.609,1.586-2.881,2.945-3.809
				C442.928,92.337,446.072,91.59,449.196,91.741z"/>
			<path style="fill:none;stroke:#000000;stroke-width:0.5;stroke-miterlimit:10;" d="M435.747,82.284
				c0.518,0.582,1.381,0.936,2.246,0.922c0.865-0.015,1.71-0.398,2.199-0.997"/>
			<path style="fill:#EAA896;" d="M447.084,80.882c0,1.171-0.935,2.121-2.088,2.121c-1.153,0-2.088-0.949-2.088-2.121
				c0-1.171,0.935-2.121,2.088-2.121C446.15,78.762,447.084,79.711,447.084,80.882z"/>
			<path d="M445.759,79.76c-0.465-0.032-0.941,0.155-1.26,0.496c-0.319,0.341-0.474,0.828-0.41,1.291"/>
			<path d="M456.628,131.918c1.476-0.151,2.751-1.446,2.881-2.924"/>
		</g>
		<g>
			<g>
				<polyline style="fill:none;stroke:#000000;stroke-miterlimit:10;" points="314.427,211.858 303.268,163.555 286.787,163.555 
					280.251,211.858 				"/>
				<line style="fill:none;stroke:#000000;stroke-miterlimit:10;" x1="283.89" y1="179.5" x2="307.685" y2="179.154"/>
			</g>
			<path style="fill:#EAA896;" d="M344.278,190.346c2.264-0.899,4.457-1.975,6.554-3.215c0.165-0.098,0.337-0.204,0.432-0.371
				c0.125-0.221,0.747,0.616,0.705,0.366c-1.398-8.153-3.804-16.877-8.613-23.607c-0.458-0.64-2.478-1.51-3.197-1.831
				c-1.849-0.826-4.207,1.268-5.265,2.561c-1.969,2.407-0.676,4.331,0.182,7.073C335.642,173.127,342.574,191.023,344.278,190.346z"
				/>
			<path d="M349.428,186.651c1.281-0.358,2.303-0.676,2.582-0.821c0.472,0.72,1.006,1.597,1.868,1.863
				c0.885,0.273,1.922,0.396,2.835,0.582c2.474,0.502,4.904,1.208,7.29,2.032c0.433,0.15,0.878,0.312,1.217,0.621
				c1.939,1.769-2.507,2.926-3.613,3.165c-1.602,0.347-8.25,1.069-9.918,1.316c-2.414,0.357-5.373,1.017-6.841-1.62
				c-0.926-1.854-1.6-3.757-2.499-5.62C342.477,188.431,346.589,187.443,349.428,186.651z"/>
			<path style="fill:#EB845E;" d="M357.284,187.434c0.535,0.118,0.815,0.781,0.664,1.308c-0.151,0.527-0.615,0.91-1.11,1.144"/>
			<path style="fill:#EB845E;" d="M354.694,186.868c0.492,0.221,0.728,0.829,0.641,1.361c-0.087,0.532-0.435,0.989-0.841,1.345"/>
			<path style="fill:#EAA896;" d="M316.372,197.314c0.728,2.324,4.731,1.176,7.147,1.484c0.191,0.024,0.391,0.046,0.569-0.028
				c0.234-0.097,0.212,0.945,0.332,0.721c3.9-7.295,7.355-15.66,7.688-23.925c0.032-0.786-1.03-2.713-1.4-3.408
				c-0.953-1.787-4.1-1.581-5.728-1.209c-3.032,0.692-3.192,3.005-4.197,5.696C320.12,178.419,315.589,194.816,316.372,197.314z"/>
			<path style="fill:#FFFFFF;" d="M333.077,185.16c4.294-1.033,7.555-1.955,11.513-3.765c1.235-0.565,5.34-2.329,6.57-2.909
				c-0.657-4.881-3.894-10.185-5.334-14.894c-0.588-1.922-1.247-3.838-2.055-5.68c-1.181-2.692-2.808-5.563-4.745-7.787
				c-1.926-2.212-9.467-4.488-12.154-5.573c-6.454-2.605-8.893-2.974-15.274-5.776c-2.916-1.281-1.694-2.795-2.948-4.838
				c-0.765-1.247-2.425-1.613-3.885-1.525c-2.621,0.158-5.035,1.457-6.757,3.41c-2.042,2.316-1.414,5.081-0.17,7.73
				c1.253,2.67,3.148,5.186,4.628,7.702c1.563,2.656,4.577,4.763,7.358,5.951c3.141,1.342,6.587,1.741,9.918,2.495
				c3.211,0.727,6.568,1.607,8.078,4.63c2.48,4.965,4.475,9.456,5.021,15.077C333.025,181.321,333.088,183.24,333.077,185.16z"/>
			<path style="fill:#3C8775;" d="M279.69,117.014c4.691,0.038,9.428,2.456,11.763,6.566c2.173,3.824,2.256,8.308,2.496,12.581
				c0.173,3.07-0.704,7.23,2.514,8.475c1.96,0.758,4.037,1.238,6.005,2c7.878,3.052,15.173,7.612,21.341,13.388
				c2.397,2.245,4.805,5.433,3.671,8.514c-1.028,2.792-4.383,3.828-7.314,4.34c-9.224,1.611-18.939,2.607-28.222,0.896
				c-8.131-1.499-15.639-3.344-20.55-10.7c-3.794-5.683-5.267-12.591-6.063-19.377c-0.546-4.655-0.803-9.427,0.306-13.981
				c1.109-4.554,3.752-8.909,7.85-11.182C275.388,117.48,277.534,116.996,279.69,117.014z"/>
			<path style="fill:#FFFFFF;" d="M319.76,167.887c-0.929,6.303-2.829,13.99-4.734,20.077c5.84,1.239,10.468,2.419,16.424,2.816
				c1.242-2.992,2.917-8.073,3.853-11.147c0.962-3.163,2.14-6.254,3.184-9.39c0.82-2.462,1.578-5.003,1.495-7.596
				c-0.143-4.464-3.126-7.878-6.468-10.571c-4.03-3.248-9.101-5.215-13.796-7.279c-4.488-1.974-10.413-2.873-14.278-5.722
				c-4.199-3.095-8.904-6.599-14.467-5.763c-0.7,0.105-1.405,0.289-1.994,0.682c-1.07,0.713-1.603,2.009-1.839,3.272
				c-0.778,4.173,1.115,8.485,3.975,11.622c2.86,3.136,6.599,5.309,10.275,7.431c4.206,2.428,8.295,5.195,12.901,6.741
				c1.841,0.618,3.612,1.449,5.264,2.469c0.15,0.093,0.307,0.196,0.38,0.356c0.067,0.149,0.05,0.32,0.03,0.483
				C319.903,166.875,319.835,167.382,319.76,167.887z"/>
			<path d="M322.705,197.557c1.231,0.504,2.233,0.88,2.543,0.937c-0.069,0.858-0.186,1.879,0.331,2.617
				c0.531,0.759,1.274,1.493,1.882,2.2c1.646,1.915,3.131,3.964,4.508,6.078c0.25,0.384,0.501,0.785,0.58,1.238
				c0.445,2.587-3.775,0.772-4.795,0.282c-1.478-0.71-7.17-4.219-8.638-5.048c-2.125-1.2-4.866-2.495-4.407-5.478
				c0.406-2.032,1.042-3.948,1.476-5.971C316.124,194.696,319.978,196.44,322.705,197.557z"/>
			<path style="fill:#EAA896;" d="M289.43,114.356c-0.694-1.523-0.412-3.727-0.32-5.404c0.288-5.264,0.576-10.529,0.864-15.793
				c0.061-1.114,0.125-2.247,0.503-3.298c1.562-4.345,6.383-3.67,9.665-1.828c3.92,2.199,4.794,8.076,2.312,11.681
				c-0.806,1.171-2.017,2.018-3.313,2.604c-0.269,0.122-0.557,0.246-0.721,0.491c-0.161,0.241-0.168,0.55-0.17,0.84
				c-0.021,3.537-0.042,7.073-0.063,10.61c-0.008,1.29,0.369,2.73-1.259,2.779c-1.589,0.048-3.435-0.731-5.026-0.948
				C290.583,115.91,289.838,115.251,289.43,114.356z"/>
			<path style="fill:#EAA896;" d="M314.596,136.38c0.68,0.131,1.367,0.144,2.032-0.048c1.738-0.5,2.802-2.23,3.52-3.89
				c0.44-1.019,0.821-2.14,0.572-3.221c-0.35-1.524-1.785-2.421-3.121-3.009c-1.717-0.756-2.606-1.765-3.879-3.197
				c-2.682-3.018-5.221-6.162-7.606-9.42c-1.336-1.824-2.517-4.649-5.353-3.126c-3.32,1.783-2.432,6.29-1.848,9.317
				c0.757,3.921,4.222,8.505,6.969,11.29c1.912,1.939,4.189,3.515,6.677,4.623C313.209,135.988,313.899,136.246,314.596,136.38z"/>
			<path style="fill:#EAA896;" d="M334.03,101.672c-0.353-0.206-1.262-0.181-1.87,0.028c-0.851,0.292-1.484,1.01-1.979,1.761
				c-0.496,0.751-0.901,1.569-1.507,2.234c-0.058,0.064-0.125,0.13-0.211,0.141c-0.228,0.029-0.296-0.305-0.249-0.53
				c0.085-0.404,0.237-0.813,0.157-1.217s-0.532-0.77-0.895-0.574c-0.213,0.115-0.305,0.368-0.374,0.6
				c-0.349,1.176-0.565,2.391-0.644,3.615c-0.028,0.436-0.04,0.881-0.181,1.294c-0.195,0.571-0.619,1.029-1.031,1.47
				c-2.427,2.594-4.58,5.949-6.857,8.675c-2.064,2.471-3.753,4.691-5.605,7.312c-0.088,0.125-0.178,0.249-0.27,0.371
				c2.071,2.732,2.864,6.469,5.079,9.084c0.817,0.964,6.324-8.89,6.618-9.489c2.102-4.282,4.315-8.523,6.955-12.503
				c1.216-1.833,2.533-3.634,3.299-5.696C335.031,106.722,337.127,103.478,334.03,101.672z"/>
			<path d="M295.247,91.929c1.844-1.092,3.937,0.063,6.086,0.041c1.393-0.014,2.985-0.686,3.277-2.048
				c0.193-0.899-0.259-1.831-0.906-2.484c-0.686-0.691-1.601-1.151-2.565-1.29c-0.843-0.121-1.7-0.001-2.546,0.097
				c-2.394,0.277-5.208-0.206-7.513,0.557c-1.799,0.595-2.163,2.573-2.629,4.344c-0.646,2.456-1.224,5.168-0.109,7.449
				c0.279,0.571,0.72,1.135,1.345,1.254c0.63,0.12,1.27-0.264,1.641-0.787c0.874-1.229,1.175-3.165,1.875-4.554
				c0.303-0.602,0.611-1.211,1.049-1.723C294.574,92.409,294.906,92.131,295.247,91.929z"/>
			<path style="fill:#EB845E;" d="M301.19,108.871c0.599,0.116,1.084,0.619,1.616,1.035c3.641,2.845,4.988,8.059,5.802,12.399
				c0.983,5.242,1.057,10.627,2.121,15.853c-4.917,0.013-9.834-0.023-14.751-0.107c-4.762-0.082-9.47,0.404-14.249-0.016
				c0.558-3.485,1.116-6.969,1.675-10.454c0.577-3.602,1.37-19.948,5.016-20.071C295.905,107.257,298.764,108.401,301.19,108.871z"
				/>
			<g>
				<defs>
					<path id="SVGID_00000093881053323680747210000008637316074687411088_" d="M289.651,114.26c-0.039-0.165-0.071-0.345-0.096-0.54
						c-0.129-1.014,0.059-2.038,0.195-3.051c0.264-1.973,0.349-4.48,0.029-6.446c-0.213-1.308-0.971-1.902-1.735-2.838
						c-0.826-1.012-1.2-2.469-1.471-3.728c-0.584-2.712-0.415-5.592,0.54-8.201c1.448-3.953,5.88-3.493,9.269-2.692
						c1.292,0.305,2.603,0.621,3.76,1.27c3.92,2.199,4.794,8.076,2.312,11.681c-0.806,1.171-2.017,2.018-3.313,2.604
						c-0.269,0.122-0.557,0.246-0.721,0.491c-0.161,0.241-0.168,0.55-0.17,0.84c-0.021,3.537-0.042,7.073-0.063,10.61
						c-0.008,1.29,0.369,2.73-1.259,2.779c-1.589,0.048-3.435-0.731-5.026-0.948C290.635,115.917,289.941,115.472,289.651,114.26z"
						/>
				</defs>
				<clipPath id="SVGID_00000164488653985816526690000015071635851981100690_">
					<use xlink:href="#SVGID_00000093881053323680747210000008637316074687411088_"  style="overflow:visible;"/>
				</clipPath>
				<path style="clip-path:url(#SVGID_00000164488653985816526690000015071635851981100690_);fill:#52303C;" d="M299.46,102.383
					c-1.654,0.235-3.35,0.163-4.978-0.211c0.446,0.902,1.428,1.388,2.353,1.785c0.922,0.396,1.882,0.773,2.885,0.779"/>
			</g>
			<path style="fill:#EAA896;" d="M302.553,150.881c1.271,0.879,2.548,1.751,3.994,2.275c2.583,0.937,5.579,0.716,7.903,2.182
				c1.29,0.814,2.304,2.309,2.008,3.805c-0.288,1.459-1.746,2.457-3.217,2.679c-1.471,0.222-2.958-0.168-4.389-0.574
				c-3.567-1.01-8.828-1.977-12.466-2.781c-3.569-0.789-8.391-3.09-11.134-5.567c-2.059-1.86-2.678-3.189-4.109-5.567
				c-2.57-4.271-3-7.696-4.528-12.456c-1.309-4.078-3.043-10.104-1.169-14.218c0.729-1.6,2.331-2.94,4.084-2.795
				c1.437,0.119,3.178-0.295,3.867,0.972c1.661,3.054,1.569,2.903,2.518,6.23c1.146,4.014,2.492,13.527,3.637,17.541
				c0.098,0.343,0.199,0.692,0.398,0.987c0.268,0.398,0.688,0.663,1.101,0.907c3.298,1.951,6.909,3.351,10.121,5.442
				C301.637,150.246,302.095,150.564,302.553,150.881z"/>
			<path style="fill:#EB845E;" d="M288.42,107.51c-3.385,0.163-7.501,1.592-9.815,4.196c-2.327,2.619-3.456,6.69-3.877,10.107
				c-0.403,3.271-0.25,6.581-0.096,9.873c4.781,0.38,9.561,0.76,14.342,1.141c0.503,0.04,0.616-8.615,1.073-9.37
				c1.24-2.052,3.539-3.158,5.493-4.549c1.953-1.391,3.783-3.591,3.285-5.937c-0.298-1.404-1.384-2.514-2.569-3.324
				C293.89,108.03,291.147,107.379,288.42,107.51z"/>
			<path style="fill:#EB845E;" d="M305.708,129.569c-0.026-0.086-0.143,0.071-0.06,0.106c0.083,0.035,0.165-0.049,0.217-0.122
				c2.235-3.148,3.924-6.573,6.066-9.786c0.155-0.232-2.153-3.483-2.806-4.332c-1.104-1.438-2.303-2.811-3.684-3.991
				c-2.47-2.11-5.65-3.587-8.889-3.345c0.421-0.032,1.707,1.334,2.046,1.621c0.701,0.594,1.38,1.219,1.993,1.905
				c1.133,1.271,2.102,2.862,2.488,4.528c0.509,2.195,0.556,4.557,0.988,6.783C304.503,125.173,305.046,127.389,305.708,129.569z"/>
			<path style="fill:none;stroke:#000000;stroke-width:0.5;stroke-miterlimit:10;" d="M272.879,128.444
				c-2.037,15.43,8.526,30.105,23.972,35.26"/>
			<path style="fill:#EB845E;" d="M328.428,202.996c0.351,0.421,0.164,1.117-0.279,1.44c-0.442,0.324-1.044,0.342-1.579,0.222"/>
			<path style="fill:#EB845E;" d="M326.729,200.96c0.253,0.477,0.066,1.101-0.329,1.468c-0.395,0.367-0.951,0.514-1.489,0.546"/>
			<path style="fill:none;stroke:#000000;stroke-width:0.5;stroke-miterlimit:10;" d="M308.093,141.263
				c4.515,1.555,9.202,2.601,13.636,4.374c4.434,1.773,8.707,4.386,11.381,8.342c3.25,4.807,3.741,10.99,3.125,16.76
				c-0.615,5.77-1.454,7.866-2.007,13.643"/>
			<path style="fill:none;stroke:#000000;stroke-width:0.5;stroke-miterlimit:10;" d="M289.504,132.358
				c0.53-3.908,0.779-7.854,0.744-11.798"/>
			<path style="fill:none;stroke:#000000;stroke-width:0.5;stroke-miterlimit:10;" d="M314.334,123.938
				c-0.132,1.259-0.264,2.519-0.396,3.778"/>
		</g>
		<path style="fill:#9EB5AB;" d="M349.24,63.975c-4.71-2.83-10.528-2.973-16.011-2.621c-6.599,0.424-16.298,0.214-20.715,5.976
			c-3.968,5.175-2.957,12.438,3.565,14.954c1.581,0.61,3.319,1.093,5.152,1.471c-1.267,3.453-3.471,6.565-6.34,8.871
			c3.012,0.089,5.963-1.294,8.107-3.411c1.361-1.344,2.415-2.963,3.204-4.71c7.025,0.701,14.715,0.126,20.596-1.216
			c3.099-0.708,6.103-2.469,7.585-5.281C356.943,73.147,353.949,66.805,349.24,63.975z"/>
		<path style="fill:none;stroke:#000000;stroke-width:0.5;stroke-miterlimit:10;" d="M320.677,79.507
			c0.611-1.623,1.167-3.322,1.061-5.053c-0.106-1.731-1.013-3.516-2.609-4.194c-1.596-0.679-3.802,0.201-4.109,1.908
			c-0.119,0.66,0.041,1.345,0.319,1.956c1.044,2.293,3.764,3.574,6.264,3.261c2.5-0.313,4.697-2.025,5.958-4.206
			c0.63-1.089,1.056-2.414,0.634-3.6c-0.422-1.185-1.989-1.973-3.011-1.24c-0.94,0.674-0.889,2.075-0.641,3.204
			c0.518,2.352,1.751,4.867,4.059,5.555c2.93,0.873,5.726-1.607,7.64-3.99c1.274-1.586,2.363-4.197,0.699-5.367
			c-1.327-0.934-3.249,0.194-3.91,1.677c-1.344,3.019,1.144,6.916,4.429,7.269c3.286,0.353,6.44-2.552,6.693-5.847
			c0.033-0.433,0.021-0.888-0.176-1.275c-0.762-1.501-3.227-0.531-3.897,1.013c-1.209,2.788,0.858,6.416,3.856,6.912
			c2.998,0.496,6.078-2.132,6.18-5.169c0.033-0.984-0.242-2.043-1.002-2.669c-0.76-0.626-2.069-0.605-2.609,0.219
			c-0.259,0.395-0.307,0.889-0.312,1.361c-0.032,3.051,1.536,6.075,4.047,7.808"/>
		<path d="M299.62,97.665c1.119-1.025,1.419,3.309-0.262,2.445c-0.182-0.094-0.283-0.303-0.301-0.507
			c-0.018-0.204,0.033-0.408,0.083-0.607c0.057-0.226,0.114-0.452,0.172-0.678C299.372,98.081,299.44,97.83,299.62,97.665z"/>
		<g>
			<path style="fill:#E8BC92;" d="M379.752,92.587c-3.406,0.533-6.014,3.472-6.014,7.027c0,3.555,2.608,6.494,6.014,7.027V92.587z"
				/>
			<path style="fill:#3C8775;" d="M385.766,92.587c-3.406,0.533-6.014,3.472-6.014,7.027c0,3.555,2.608,6.494,6.014,7.027V92.587z"
				/>
			<path style="fill:#9EB5AB;" d="M358.023,130.325c-0.533-3.406-3.472-6.014-7.027-6.014c-3.555,0-6.494,2.608-7.027,6.014H358.023
				z"/>
			<path style="fill:#3C8775;" d="M351.966,114.06c-3.406,0.533-6.014,3.472-6.014,7.027c0,3.555,2.608,6.494,6.014,7.027V114.06z"
				/>
			<path style="fill:#9EB5AB;" d="M386.779,112.655c-0.533-3.406-3.472-6.014-7.027-6.014c-3.555,0-6.494,2.608-7.027,6.014H386.779
				z"/>
			<rect x="363.293" y="138.704" style="fill:#E8BC92;" width="13.927" height="13.927"/>
			<path style="fill:#9EB5AB;" d="M371.133,140.603c-0.464-3.395-3.368-6.014-6.891-6.014l0,0c-3.523,0-6.427,2.618-6.891,6.014
				H371.133z"/>
			<path d="M352.579,88.463c0.464,3.395,3.368,6.014,6.891,6.014l0,0c3.523,0,6.427-2.618,6.891-6.014H352.579z"/>
			<g>
				<rect x="380.701" y="120.663" style="fill:#FFFFFF;" width="13.927" height="13.927"/>
				<polyline style="fill:#E8BC92;" points="380.701,120.663 394.628,120.663 394.628,134.59 				"/>
			</g>
			<g>
				<polyline style="fill:#FFFFFF;" points="391.601,78.026 377.674,78.026 377.674,64.1 				"/>
				<polyline style="fill:#E8BC92;" points="375.653,58.07 389.58,58.07 389.58,71.997 				"/>
			</g>
			<path style="fill:#FFFFFF;" d="M355.234,88.463c0.285,1.679,2.071,2.975,4.236,2.975h0c2.165,0,3.951-1.295,4.236-2.975H355.234z
				"/>
		</g>
		<g>
			<path style="fill:#9EB5AB;" d="M409.941,73.525L409.941,73.525c-4.052,0-7.336-3.285-7.336-7.336v-7.336h14.673v7.336
				C417.277,70.241,413.992,73.525,409.941,73.525z"/>
			<path style="fill:#9EB5AB;" d="M417.277,88.198h-14.673v-7.336c0-4.052,3.285-7.336,7.336-7.336l0,0
				c4.052,0,7.336,3.285,7.336,7.336V88.198z"/>
			
				<line style="fill:none;stroke:#000000;stroke-width:0.5;stroke-miterlimit:10;" x1="401.163" y1="58.853" x2="419.117" y2="58.853"/>
			<path style="fill:#E8BC92;" d="M404.082,66.504v0.376c0,3.236,2.623,5.859,5.859,5.859l0,0c3.236,0,5.859-2.623,5.859-5.859
				v-0.376H404.082z"/>
			<path style="fill:#E8BC92;" d="M416.464,87.314c-0.541-1.92-3.252-4.174-6.523-4.174h0c-3.271,0-5.982,2.254-6.523,4.174H416.464
				z"/>
			
				<line style="fill:none;stroke:#000000;stroke-width:0.5;stroke-miterlimit:10;" x1="401.163" y1="88.05" x2="419.117" y2="88.05"/>
		</g>
	</g>
	<g>
		<path style="fill:#FFE8E6;" d="M167.83,249.139c-28.775,1.138-67.846,2.859-92.159,18.458
			c-21.796,13.984-34.543,37.637-39.698,61.714c-7.622,35.597-9.481,93.472,33.663,111.809c11.765,5,25.132,5.328,38.075,5.571
			c77.188,1.445,148.241,0.835,225.429,2.28c22.923,0.429,58.899,2.567,81.355-2.806c15.566-3.725,25.373-10.965,35.129-23.654
			c12.254-15.939,13.647-35.896,16.039-55.07c2.501-20.043,5.289-42.013-1.508-61.568c-7.679-22.09-24.773-41.82-47.786-51.029
			c-11.575-4.632-24.219-6.536-36.795-7.399c-17.648-1.21-35.377-0.448-53.055,0.316c-25.817,1.115-52.134,3.822-77.879,2.417
			C221.739,248.709,194.764,248.074,167.83,249.139z"/>
		<path style="fill:#FFFFFF;" d="M203.872,337.518c-2.964-7.179,4.243-9.382,6.41-15.467c0.511-1.435,0.817-2.95,1.559-4.289
			c0.742-1.339,2.063-2.52,3.643-2.584c0.872-0.035,1.734,0.277,2.444,0.763c2.741,1.877,2.906,5.757,2.057,8.881
			c-0.85,3.125-2.443,6.161-2.266,9.386c0.092,1.661,0.655,3.266,0.87,4.917c0.607,4.657-2.111,8.633-7.526,7.486
			C206.743,345.697,205.298,340.971,203.872,337.518z"/>
		<g>
			<g>
				<g>
					<g>
						<polyline style="fill:none;stroke:#000000;stroke-width:2;stroke-linecap:round;stroke-miterlimit:10;" points="
							414.495,445.089 407.102,423.345 390.233,423.345 380.009,445.089 						"/>
						<polyline style="fill:none;stroke:#000000;stroke-width:2;stroke-linecap:round;stroke-miterlimit:10;" points="
							333.287,445.15 325.895,422.331 310.026,422.331 299.802,445.15 						"/>
						<path style="fill:#D96F48;" d="M301.317,433.301h40.951c3.537,0,6.404-2.867,6.404-6.404v-60.332
							c0-3.537-2.867-6.404-6.404-6.404h-36.151c-11.731,0-21.241,9.51-21.241,21.241v35.458
							C284.876,425.94,292.237,433.301,301.317,433.301z"/>
						<path style="fill:#EB845E;" d="M326.622,331.845c-2.412,10.563-4.823,21.125-7.235,31.688
							c-2.311,10.12-7.173,27.548,1.962,36.172c4.658,4.394,15.295-0.255,21.275-0.744c9.783-0.8,17.895,2.632,27.16,4.592
							c8.102,1.714,16.007,6.273,24.17,7.218c8.452,0.978,16.72-4.017,21.568-10.725c4.848-6.709,6.874-14.889,8.403-22.918
							c1.827-9.594,1.488-18.3,1.455-27.907c-0.024-7.039,1.88-14.359-1.947-20.996c-5.843-10.134-32.253-6.219-42.245-6.311
							c-13.374-0.123-26.748-0.246-40.122-0.369C334.039,321.544,327.99,325.858,326.622,331.845z"/>
						<rect x="307.311" y="391.271" style="fill:#EB845E;" width="91.416" height="28.313"/>
						<rect x="308.312" y="416.837" style="fill:#EB845E;" width="90.415" height="16.465"/>
					</g>
					<path d="M336.2,451.916c0.387,2.43-1.212,3.647-3.283,4.718c-0.237,0.123-0.483,0.234-0.727,0.347
						c-4.445,1.054-8.874,2.165-13.312,3.273c-2.407,0.601-15.668,4.969-14.79-0.822c0.275-1.814,1.938-3.096,3.484-4.176
						c1.924-1.343,3.86-2.669,5.809-3.978c2.387-1.604,4.889-3.284,6.214-5.773c2.705-5.082-0.43-11.492,1.573-16.864
						c0.302-0.809,0.738-1.604,1.445-2.133c0.957-0.716,2.264-0.836,3.472-0.721c10.15,0.961,8.859,10.85,8.882,17.762
						C334.977,446.493,335.747,449.067,336.2,451.916z"/>
					<line style="fill:none;stroke:#D96F48;stroke-miterlimit:10;" x1="302.022" y1="416.837" x2="372.014" y2="416.837"/>
					<path style="fill:#5077D9;" d="M309.616,383.643c-4.641,6.82-3.75,14.433-3.277,22.177c0.339,5.543-0.013,11.08,0.533,16.638
						c0.481,4.895,1.337,11.688,5.454,15.111c2.657,2.209,6.354,2.854,9.869,2.968c3.21,0.105,6.433-0.16,9.577-0.789
						c2.639-0.527,5.379-1.407,7.083-3.409c4.413-5.185,1.743-16.783,1.127-22.818c-0.477-4.68-1.035-9.358-1.727-14.014
						c-0.433-2.918-1.558-5.903,2.419-6.523c7.635-1.189,16.378,0.419,24.155,0.123c5.216-0.199,10.909-0.608,15.327-3.082
						c1.983-1.111,3.71-2.638,5.02-4.748c3.506-5.646,1.79-13.714-3.256-17.994c-3.084-2.616-7.748-1.883-11.578-1.542
						c-12.187,1.085-24.212,2.598-36.31,4.318C325.202,371.316,314.638,376.264,309.616,383.643z"/>
					<path d="M294.434,450.397c-0.403,1.1-0.923,2.09-1.663,2.7c-3.607,2.972-9.569-1.41-13.519-1.41
						c-4.734-0.884-9.428-1.967-14.063-3.247c-2.669-0.737-6.087-3.037-4.034-6.074c0.776-1.147,2.157-1.807,3.554-2.084
						c1.397-0.276,2.837-0.22,4.263-0.237c3.024-0.036,6.032-0.41,9.032-0.784c9.962-1.24,6.652-10.241,12.568-15.453
						c1.863-1.642,5.18-2.031,6.765-0.14c3.266,3.896,3.159,7.897,1.605,12.541c-1.053,3.147-2.106,6.294-3.159,9.442
						C295.37,446.888,295.032,448.764,294.434,450.397z"/>
					<path style="fill:#FFFFFF;" d="M404.03,362.824c-1.163,4.143-2.734,7.912-4.673,10.822c-2.932,4.401-6.975,7.145-11.156,8.622
						c-4.181,1.478-8.527,1.772-12.84,1.888c-9.874,0.266-19.967-0.421-29.185-5.352c-3.984-2.131-12.359-8.531-9.554-13.582
						c0.757-1.362,1.927-2.468,2.816-3.755c2.541-3.677,2.553-8.372,3.104-12.751c0.409-3.249,1.161-6.458,2.241-9.562
						c-4.376,6.365-12.319,10.321-20.267,10.094c-3.301-0.095-6.546-0.857-9.683-1.849c-2.033-0.643-4.078-1.409-5.696-2.753
						c-4.407-3.661-2.827-10.151,2.329-12.306c3.226-1.348,6.863-1.376,10.291-2.139c8.461-1.881,15.037-8.015,21.731-13.32
						c8.447-6.696,15.793-9.483,26.49-8.225c9.706,1.141,18.198,2.941,25.591,9.625c5.187,4.69,9.365,11.985,10.459,20.454
						C406.962,345.966,406.212,355.055,404.03,362.824z"/>
					<path style="fill:#5077D9;" d="M294.424,388.995c-0.528,0.926-1.036,1.841-1.527,2.734
						c-4.243,7.715-7.457,15.901-10.607,24.067c-1.482,3.84-2.964,8.097-1.441,11.922c2.289,5.751,12.175,9.777,18.142,10.407
						c8.129,0.859,11.482-6.331,13.461-12.473c2.573-7.988,4.609-16.135,6.085-24.375c2.09-11.659,14.134-7.647,23.321-7.808
						c9.562-0.168,19.123-0.445,28.675-0.917c2.823-0.139,5.756-0.313,8.251-1.67c7.127-3.876,5.001-10.813,0.401-15.318
						c-6.278-6.149-12.901-7.502-21.212-8.037c-9.299-0.599-42.086,1.952-47.95,4.568
						C303.012,375.222,298.205,382.366,294.424,388.995z"/>
					<path style="fill:none;stroke:#000000;stroke-width:0.5;stroke-miterlimit:10;" d="M385.008,331.211
						c0.762,5.934,1.188,9.769,0.355,15.694c-4.771-2.417-12.294-0.894-15.489,3.275c-3.195,4.169-2.663,11.46,1.902,14.787"/>
					<path style="fill:#F5BA9F;" d="M375.171,289.086c-0.081-2.275-1.083-4.719-2.844-6.282c-1.035-0.919-2.275-1.375-3.421-2.111
						c-1.039-0.667-1.867-1.659-2.858-2.405c-0.855-0.643-1.938-1.136-3.005-0.936c-1.374,0.257-1.904,0.395-2.541,1.59
						c-2.165,4.067-5.556,10.887-4.098,15.555c0.673,2.157,2.123,3.991,4.248,4.908c0.197,0.085,0.395,0.195,0.507,0.372
						c0.266,0.423,0.102,0.884,0.093,1.339c-0.015,0.72,0.169,1.431,0.227,2.146c0.125,1.558-0.29,3.257-1.325,4.469
						c-0.5,0.586-1.078,1.151-1.759,1.543c-0.206,0.119-1.778,0.845-1.96,0.449c1.843,4.025,6.043,5.619,10.605,6.051
						c5.055,0.479,9.143-2.096,12.499-5.427c-0.823-0.342-1.764-0.315-2.617-0.584c-1.591-0.501-2.669-1.99-3.083-3.546
						c-0.968-3.635,0.107-8.272,0.73-11.898c0.289-1.686,0.637-3.376,0.607-5.085C375.174,289.187,375.173,289.137,375.171,289.086z
						"/>
					<path d="M360.624,275.2c0.36-0.267,0.775-0.468,1.211-0.578c1.406-0.354,2.93,0.092,4.12,0.892
						c0.868,0.583,1.665,1.375,2.714,1.517c0.862,0.116,1.708-0.238,2.566-0.374c1.62-0.257,3.359,0.32,4.466,1.482
						c0.991,1.04,1.527,2.027,2.794,2.743c1.134,0.64,1.991,2.092,2.141,3.398c0.13,1.141-0.296,2.261-0.619,3.363
						c-0.612,2.086-0.878,4.28-1.735,6.278c-0.857,1.998-2.499,3.852-4.653,4.149c-1.057,0.146-2.316-0.11-3.287-0.53
						c-4.43-1.916-1.608-5.216-3.008-8.555c-0.547-1.305-2.06-1.251-2.99-2.284c-0.777-0.865-0.634-2.166-0.346-3.273
						c0.113-0.435,0.236-0.921,0.005-1.312c-0.197-0.332-0.595-0.496-0.97-0.625c-1.284-0.44-2.181-1.048-2.963-2.16
						c-0.352-0.501-0.634-1.066-0.69-1.668C359.292,276.706,359.824,275.792,360.624,275.2z"/>
					<g>
						<defs>
							<path id="SVGID_00000140713775076085512940000015215919157763591299_" d="M374.157,289.116
								c-0.061-2.529,0.36-4.367-1.831-6.311c-1.227-1.089-2.754-1.804-4.258-2.504c-1.547-0.72-3.271-1.459-4.929-1.016
								c-4.954,1.322-6.846,9.232-7.268,13.413c-0.1,0.994-0.135,2.014,0.146,2.976c0.389,1.337,1.577,2.301,2.754,3.017
								c0.57,0.347,1.263,0.45,1.879,0.716c0.197,0.085,0.395,0.195,0.507,0.372c0.087,0.139,0.112,0.304,0.133,0.464
								c0.432,3.284,0.106,6.846-1.398,9.874c-0.529,1.064-1.232,2.047-1.695,3.138c-0.689,1.625-0.814,3.411-0.931,5.161
								c-0.035,0.52-0.055,1.088,0.266,1.507c0.664,0.866,2.08,0.426,3.063-0.09c2.514-1.322,5.029-2.645,7.544-3.967
								c1.41-0.742,3.953-1.795,4.767-3.219c0.806-1.41,0.099-3.736,0.013-5.288c-0.212-3.85-0.128-7.713,0.632-11.51
								C373.984,293.699,374.212,291.396,374.157,289.116z"/>
						</defs>
						<clipPath id="SVGID_00000137102413207055852530000008103035711549959065_">
							<use xlink:href="#SVGID_00000140713775076085512940000015215919157763591299_"  style="overflow:visible;"/>
						</clipPath>
						<path style="clip-path:url(#SVGID_00000137102413207055852530000008103035711549959065_);fill:#2C2A27;" d="M357.837,298.345
							c1.877,1.225,4.33,1.602,6.512,1c-0.726,1.494-2.008,2.733-3.56,3.441c-0.674,0.307-1.41,0.518-2.156,0.499"/>
					</g>
					<path style="fill:#F5BA9F;" d="M369.649,287.79c-0.714-0.239-1.62,0.025-2.601,1.149c0.026,1.718-0.055,3.439-0.204,5.153
						c1.299,0.156,2.685-0.261,3.54-1.22C371.85,291.226,371.205,288.312,369.649,287.79z"/>
					<path style="fill:#2C2A27;" d="M368.177,289.614c0.197-0.209,0.57-0.192,0.8-0.017c0.23,0.175,0.337,0.463,0.367,0.743
						c0.081,0.761-0.377,1.547-1.095,1.881"/>
					<path style="fill:none;stroke:#000000;stroke-width:0.5;stroke-miterlimit:10;" d="M385.363,346.905
						c2.962,0.891,6.948,5.328,10.396,4.73"/>
					<path style="fill:#2DA698;" d="M354.611,314.361c-0.058,0-0.115,0-0.173,0"/>
					<path style="fill:#D96F48;" d="M371.663,433.301h57.392c3.537,0,6.404-2.867,6.404-6.404v-60.332
						c0-3.537-2.867-6.404-6.404-6.404h-36.151c-11.731,0-21.241,9.51-21.241,21.241V433.301z"/>
					<path style="fill:none;stroke:#000000;stroke-width:0.5;stroke-miterlimit:10;" d="M352.508,368.469
						c-4.791,1.651-20.364,2.47-25.155,4.121c-5.746,1.98-11.622,4.316-15.558,8.791c-5.646,6.418-4.672,42.408-2.588,51.259"/>
					<path style="fill:#F5BA9F;" d="M362.321,349.111c-0.466-0.405-0.976-0.765-1.41-1.281c-0.826-0.982-1.59-2.079-2.752-2.673
						c-0.163-0.083-0.343-0.157-0.526-0.133c-0.276,0.037-0.471,0.291-0.542,0.549c-0.2,0.728,0.5,1.39,0.864,1.923
						c0.438,0.641,0.707,1.223,0.778,1.944c0.029,0.295-0.253,0.531-0.551,0.455c-1.577-0.405-3.13-0.72-4.402-1.746
						c-1.279-1.031-2.488-2.167-3.998-2.891c-0.26-0.124-0.541-0.236-0.83-0.218c-0.357,0.022-0.668,0.238-0.922,0.479
						c-1.408,1.336-1.542,3.566-0.765,5.313c0.892,2.004,3.121,3.73,4.967,4.941c2.241,1.469,4.919,2.333,7.637,2.401
						c1.122,0.028,2.243-0.072,3.364-0.062c2.364,0.022,4.696,0.535,7.059,0.629c0.734,0.029,1.713,0.11,1.987-0.668
						c0.702-1.997,1.156-4.22,0.351-6.181c-0.108-0.263-0.253-0.533-0.51-0.671c-0.156-0.084-0.339-0.109-0.516-0.134
						c-2.364-0.322-4.952,0.219-7.399,0.098c-0.173-0.009-0.358-0.021-0.492-0.125c-0.13-0.1-0.185-0.262-0.242-0.412
						C363.207,349.962,362.786,349.515,362.321,349.111z"/>
					<path style="fill:#FFFFFF;" d="M321.367,344.863c2.488-2.144,3.754-5.48,3.454-8.677c-0.304-3.252-2.161-6.306-4.845-8.315
						c-3.782-2.832-6.948-4.734-9.53-8.758c-3.374-5.259-4.135-11.781-12.6-10.289c-9.357,1.649-8.764,9.268-5.502,15.679
						c2.769,5.441,6.722,10.235,10.644,14.98c3.244,3.925,9.724,8.704,15.447,7.031c1.037-0.303,1.981-0.86,2.8-1.541
						C321.281,344.937,321.324,344.901,321.367,344.863z"/>
				</g>
				<path style="fill:#2C2A27;" d="M359.393,291.638c0.115,1.14-0.479,2.464-1.428,2.14c-1.608-0.549-0.75-4.366,0.734-3.45
					C359.12,290.587,359.338,291.091,359.393,291.638z"/>
				<path style="fill:none;stroke:#000000;stroke-width:0.5;stroke-miterlimit:10;" d="M321.987,329.724
					c0.282,0.799,0.563,1.598,0.845,2.397"/>
				<path style="fill:#F5BA9F;" d="M290.611,310.134c0.093,0.017,0.185,0.044,0.273,0.089c0.202,0.103,0.36,0.288,0.511,0.469
					c1.526,1.833,2.896,3.814,4.081,5.904c1.862-1.373,3.662-2.836,5.394-4.385c-0.942-1.065-1.44-2.462-2.028-3.772
					c-2.46-5.482-7.443-10.559-13.114-11.167c-1.385-0.148-2.663,0.637-3.924,1.001c-0.858,0.248-1.765,0.356-2.578,0.718
					c-0.813,0.362-1.549,1.05-1.677,2.008c-0.216,1.619,1.302,2.269,2.502,2.407c1.238,0.142,2.094-0.725,3.269-0.764
					c0.864-0.029,1.775,0.428,2.359,1.185c0.181,0.234,0.338,0.52,0.315,0.806c-0.017,0.215-0.135,0.397-0.279,0.534
					c-0.405,0.388-1.022,0.471-1.587,0.322c-1.186-0.313-1.977-1.469-3.194-1.79c-2.02-0.533,0.961,3.076,1.283,3.499
					c0.121,0.158,0.243,0.318,0.39,0.447c0.343,0.299,0.782,0.4,1.2,0.502c2.272,0.551,4.062,1.917,6.411,1.961
					C290.349,310.107,290.482,310.111,290.611,310.134z"/>
			</g>
			<g>
				<g>
					<polyline style="fill:none;stroke:#000000;stroke-width:2;stroke-linecap:round;stroke-miterlimit:10;" points="
						81.979,445.089 89.372,422.269 105.241,422.269 115.465,445.089 					"/>
					<polyline style="fill:none;stroke:#000000;stroke-width:2;stroke-linecap:round;stroke-miterlimit:10;" points="
						160.874,445.089 168.267,422.269 184.136,422.269 194.36,445.089 					"/>
					<path style="fill:#D96F48;" d="M195.456,433.301h-40.951c-3.537,0-6.404-2.867-6.404-6.404v-60.332
						c0-3.537,2.867-6.404,6.404-6.404h36.151c11.731,0,21.241,9.51,21.241,21.241v35.458
						C211.898,425.94,204.537,433.301,195.456,433.301z"/>
					<path style="fill:#EB845E;" d="M170.151,331.845c2.412,10.563,4.823,21.125,7.235,31.688
						c2.311,10.12,7.173,27.548-1.962,36.172c-4.658,4.394-15.295-0.255-21.275-0.744c-9.783-0.8-17.895,2.632-27.16,4.592
						c-8.102,1.714-16.007,6.273-24.17,7.218c-8.452,0.978-16.721-4.017-21.568-10.725c-4.848-6.709-6.874-14.889-8.403-22.918
						c-1.827-9.594-1.488-18.3-1.455-27.907c0.024-7.039-1.88-14.359,1.947-20.996c5.843-10.134,32.253-6.219,42.245-6.311
						c13.374-0.123,26.748-0.246,40.122-0.369C162.735,321.544,168.784,325.858,170.151,331.845z"/>
					
						<rect x="98.047" y="391.271" transform="matrix(-1 -1.224647e-16 1.224647e-16 -1 287.5095 810.8543)" style="fill:#EB845E;" width="91.416" height="28.313"/>
					
						<rect x="98.048" y="416.837" transform="matrix(-1 -1.224647e-16 1.224647e-16 -1 287.5103 850.1383)" style="fill:#EB845E;" width="91.415" height="16.465"/>
					<line style="fill:none;stroke:#D96F48;stroke-miterlimit:10;" x1="184.752" y1="416.837" x2="124.76" y2="416.837"/>
				</g>
				<path style="fill:#DA9372;" d="M181.978,331.118c0.388-0.484,0.783-0.966,1.213-1.437c0.159-0.173,0.319-0.349,0.515-0.483
					c0.278-0.191,0.611-0.29,0.93-0.408c2.893-1.066,5.336-4.3,5.834-7.189c0.152-0.882,0.134-1.783,0.058-2.673
					c-0.09-1.054-0.264-2.112-0.668-3.096c-0.256-0.624-0.619-1.231-1.176-1.637c-0.557-0.406-1.338-0.576-1.974-0.296
					c-0.662,0.291-1.037,1.017-1.036,1.715c0.001,0.957,0.728,1.612,0.86,2.519c0.097,0.667-0.166,1.374-0.683,1.83
					c-0.16,0.141-0.361,0.265-0.578,0.249c-0.163-0.012-0.31-0.101-0.426-0.211c-0.327-0.31-0.443-0.786-0.38-1.223
					c0.132-0.918,0.93-1.538,1.065-2.48c0.037-0.258-0.05-0.608-0.322-0.62c-0.153-0.007-0.28,0.106-0.387,0.211
					c-0.464,0.454-1.087,0.837-1.499,1.309c-0.443,0.508-0.578,1.314-0.799,1.926c-0.495,1.384-0.889,2.802-1.176,4.24
					c-0.031,0.154-0.061,0.311-0.137,0.451c-0.091,0.168-0.24,0.298-0.386,0.424c-2.25,1.948-4.796,3.737-6.855,5.866
					c-0.823,0.85-2.52,2.596-2.234,3.852c0.159,0.695,0.764,1.204,1.343,1.649c1.027,0.788,2.306,1.584,3.565,1.219
					c0.834-0.242,1.422-0.939,1.942-1.609c0.361-1.004,1.725-2.052,2.411-2.882C181.331,331.932,181.652,331.524,181.978,331.118z"
					/>
				<path d="M148.574,438.713c-0.194,0.682-0.283,1.41-0.218,2.213c0.334,4.114,2.81,8.842,4.941,12.346
					c0.72,1.183,1.533,2.449,1.382,3.811c-0.593,5.332-8.537-0.501-9.966-2.075c-2.768-3.048-4.59-6.828-6.434-10.425
					c-0.221-0.431-0.447-0.886-0.423-1.366c0.018-0.354,0.173-0.687,0.325-1.011c1.912-4.064,3.942-8.097,6.289-11.958
					c0.887-1.459,1.833-2.978,3.337-3.858c1.504-0.88,3.738-0.861,4.781,0.501c0.96,1.252,0.556,3.005,0.018,4.47
					C151.564,434.196,149.312,436.121,148.574,438.713z"/>
				<path d="M207.942,409.855c0.558,0.437,1.203,0.797,1.98,1.046c3.984,1.279,9.419,0.863,13.568,0.288
					c1.401-0.194,2.918-0.441,4.13,0.218c4.744,2.582-3.962,7.501-6.018,8.185c-3.983,1.324-8.264,1.515-12.382,1.796
					c-0.493,0.034-1.012,0.063-1.45-0.143c-0.324-0.153-0.572-0.42-0.812-0.681c-3.019-3.284-5.959-6.662-8.61-10.26
					c-1.002-1.36-2.035-2.796-2.243-4.489c-0.208-1.693,0.725-3.699,2.424-4.117c1.563-0.384,3.037,0.653,4.188,1.701
					C204.942,405.425,205.82,408.194,207.942,409.855z"/>
				<path style="fill:#3C8775;" d="M140.311,352.646c-4.441-1.135-10.111-2.389-13.338-5.709c-1.77-1.821-2.854-4.104-4.597-5.902
					c-1.215-1.253-2.54-2.402-3.801-3.611c-0.563-0.54-1.113-1.092-1.636-1.67c-1.968-2.18-3.558-4.894-3.428-7.775
					c0.046-1.014,0.304-2.011,0.655-2.968c0.485-1.32,1.188-2.624,2.351-3.47c1.219-0.886,2.831-1.169,4.353-1.021
					c1.522,0.147,2.972,0.69,4.352,1.322c4.75,2.176,8.878,5.449,12.514,9.098c2.554,2.564,5.452,4.828,8.67,6.584
					c1.768,0.965,2.873,1.712,4.766,1.266c1.855-0.438,3.955-2.046,5.621-2.949c7.58-4.111,15.124-7.422,22.138-12.371
					c2.589,3.074,4.098,4.817,6.688,7.891c-6.185,4.962-11.628,9.912-18.352,14.193
					C159.338,350.605,150.076,355.141,140.311,352.646z"/>
				<path style="fill:#3C8775;" d="M107.332,330.152c1.049-2.858,2.668-5.706,4.041-8.439c0.56-1.114,1.311-1.927,2.188-2.816
					c0.071-0.072,0.149-0.147,0.25-0.163c0.176-0.027,0.316,0.132,0.417,0.272c1.455,2.036,3.105,4.094,5.452,5.108
					c0.436,0.188,0.918,0.34,1.386,0.245c0.555-0.112,0.986-0.558,1.211-1.058c0.225-0.5,0.278-1.052,0.328-1.594
					c-0.022,0.24,0.974,0.9,1.162,1.051c0.402,0.321,0.629,0.562,0.901,0.991c0.552,0.872,0.954,1.778,1.248,2.76
					c0.579,1.933,0.767,3.941,1.197,5.904c1.763,8.039,4.463,15.889,8.042,23.353c3.291,6.863,2.039,11.874-1.502,18.47
					c-1.76,3.279-4.081,6.21-7.826,6.994c-2.959,0.607-6.105-0.307-8.577-1.979c-2.564-1.734-4.483-4.217-6.07-6.807
					c-3.896-6.358-5.868-13.642-5.862-21.016C105.324,344.266,104.797,337.058,107.332,330.152z"/>
				<path style="fill:#FFFFFF;" d="M169.16,360.68c-13.68-6.439-34.229,0.31-46.867,4.873c-3.985,1.439-8.789,2.403-12.184,5.052
					c-2.193,1.711-3.804,4.429-3.456,7.189c0.163,1.297,0.736,2.503,1.301,3.682c0.731,1.525,1.492,3.091,2.743,4.23
					c1.998,1.818,4.899,2.247,7.518,2.652c6.711,1.039,13.479,1.615,20.265,1.849c5.569,0.192,11.309,0.807,16.85-0.118
					c0.194-0.032,0.314,0.208,0.161,0.33c-1.708,1.367-5.732,10.444-6.839,12.487c-1.003,1.852-1.849,3.78-2.62,5.739
					c-3.008,7.635-6.057,15.598-8.67,21.179c6.543,3.518,9.653,4.27,16.196,7.788c6.891-10.228,12.333-19.426,18.254-29.735
					c2.415-4.205,4.985-8.653,7.062-13.157c1.914-4.152,4.403-9.057,3.571-13.646C180.916,372.626,177.394,364.555,169.16,360.68z"
					/>
				<path style="fill:#FFFFFF;" d="M131.943,360.935c2.903-0.416,5.864-0.592,8.682-0.964c6.298-0.831,12.415-2.699,18.684-3.719
					c6.027-0.981,13.441-1.36,19.137,1.315c5.444,2.557,10.059,8.756,13.187,13.707c1.692,2.677,3.086,5.53,4.476,8.376
					c4.029,8.248,8.059,16.497,12.089,24.745c0.185,0.378,0.373,0.768,0.397,1.188c0.101,1.696-2.947,3.11-4.134,3.996
					c-2.525,1.883-5.17,3.617-7.713,5.478c-3.817-4.186-8.298-7.731-12.068-11.961c-1.766-1.981-3.367-4.103-4.966-6.221
					c-3.175-4.207-6.349-8.414-9.524-12.621c-1.587-2.103-3.194-4.193-4.762-6.311c-1.077-1.454-0.986-1.617-2.618-1.374
					c-0.782,0.116-1.777,0.569-2.554,0.815c-3.932,1.25-7.282,4.338-10.799,6.524c-3.158,1.963-7.288-0.072-10.521-0.709
					c-3.304-0.651-6.7-0.238-10.08-0.541c-1.077-0.096-2.169-0.196-3.185-0.569c-2.257-0.829-3.811-2.863-5.238-4.799
					c-1.074-1.457-2.183-3.001-2.409-4.796c-0.236-1.877,0.549-3.759,1.678-5.276C122.664,363.238,127.221,361.611,131.943,360.935z
					"/>
				<path style="fill:#3C8775;" d="M138.871,359.219c-8.794,7.191-19.864,11.791-31.35,13.027
					c-1.391-4.802-2.378-9.711-2.947-14.664c0.027,0.234,9.931-2.161,10.919-2.463c3.685-1.126,7.276-2.534,10.727-4.208
					c2.235-1.084,5.753-4.05,7.604-1.263C135.766,352.572,137.169,356.129,138.871,359.219z"/>
				<path style="fill:#DA9372;" d="M70.487,356.809c-2.601-1.989-5.847-3.355-8.74-4.911c-2.47-1.328-3.509-4.24-2.854-6.897
					c0.337-1.368,1.142-2.615,2.229-3.554c0.516-0.445,2.852-2.22,3.366-1.182c0.212,0.428-0.091,0.909-0.277,1.347
					c-0.586,1.379,0.192,3.143,1.43,3.97c0.178,0.119,0.395,0.215,0.608,0.172c0.16-0.033,0.292-0.141,0.392-0.265
					c0.28-0.35,0.327-0.836,0.203-1.262c-0.261-0.893-1.14-1.402-1.407-2.318c-0.073-0.251-0.037-0.608,0.231-0.656
					c0.151-0.027,0.292,0.068,0.413,0.158c0.524,0.389,1.196,0.688,1.671,1.102c0.511,0.445,0.76,1.227,1.065,1.804
					c0.687,1.307,1.278,2.66,1.767,4.047c0.052,0.149,0.105,0.301,0.2,0.429c0.114,0.154,0.28,0.264,0.443,0.37
					c2.505,1.636,5.282,3.077,7.624,4.916c0.936,0.735,2.865,2.243,2.76,3.524c-0.058,0.71-0.585,1.293-1.096,1.809
					c-1.798,1.817-4.324,2.493-6.503,0.784c-0.988-0.774-1.733-1.792-2.645-2.648C71.084,357.288,70.791,357.042,70.487,356.809z"/>
				<path style="fill:#3C8775;" d="M98.423,327.805c1.991-2.591,4.677-4.618,7.911-5.999c1.758-0.75,3.588-1.442,5.509-1.542
					c2.845-0.148,7.185,1.203,7.193,4.415c0.009,3.494-0.644,7.419-1.053,10.915c-0.145,1.239-0.084,2.976-0.582,4.128
					c-0.408,0.944-1.321,1.67-1.875,2.588c-1.287,2.133-1.758,4.635-2.425,6.984c-1.658,5.839-4.752,11.421-9.512,15.397
					c-4.76,3.975-11.298,6.185-17.516,5.142c-7.108-1.193-13.655-5.398-17.642-11.165c2.503-2.563,3.061-7.323,4.98-9.707
					c3.285,2.688,8.728,4.48,12.916,5.489c1.614,0.389,3.366,0.631,4.905,0.026c3.808-1.496,2.832-7.801,2.948-10.843
					c0.13-3.446,0.269-6.94,1.327-10.236C96.175,331.32,97.159,329.449,98.423,327.805z"/>
				<path style="fill:none;stroke:#000000;stroke-width:0.5;stroke-miterlimit:10;" d="M127.12,333.494
					c2.758,6.093,4.97,13.955,8.788,19.843"/>
				<g>
					<path d="M128.445,370.285h45.04c0.458,0,0.789,0.419,0.666,0.842l-0.004,0.013c-0.083,0.287-0.356,0.486-0.666,0.486h-45.036
						c-0.38,0-0.689-0.295-0.691-0.66c0-0.004,0-0.009,0-0.013C127.752,370.584,128.062,370.285,128.445,370.285z"/>
					<path d="M136.169,371.625h37.692c0.289,0,0.544-0.183,0.625-0.449l5.741-18.878c0.121-0.399-0.191-0.798-0.625-0.798H141.91
						c-0.289,0-0.544,0.183-0.625,0.449l-5.741,18.878C135.423,371.226,135.735,371.625,136.169,371.625z"/>
					<path style="fill:#DFF2DC;" d="M156.946,361.563c0,0.881,0.744,1.595,1.662,1.595c0.918,0,1.662-0.714,1.662-1.595
						s-0.744-1.595-1.662-1.595C157.69,359.968,156.946,360.682,156.946,361.563z"/>
				</g>
				<path style="fill:none;stroke:#000000;stroke-width:0.5;stroke-miterlimit:10;" d="M150.525,339.49
					c0.174,0.891,0.225,1.803,0.151,2.707"/>
				<path style="fill:#DA9372;" d="M124.135,313.964c-0.181,0.151-0.194,0.823-0.236,1.047c-0.329,1.761-0.494,3.55-0.494,5.339
					c0,0.639,0.029,1.278,0.061,1.916c-1.357,1.646-4.358,1.929-6.556,1.355c-1.417-0.37-2.747-1.047-3.914-1.935
					c0.08-0.462,0.226-0.921,0.367-1.372c1.326-4.231,0.851-8.756,1.018-13.171c0.083-2.185,0.566-4.093,1.119-6.188
					c0.199-0.752,0.115-1.517,0.331-2.286c0.273-0.97,0.613-1.948,1.195-2.792c1.556-2.255,4.844-3.149,7.495-2.226
					c1.755,0.611,3.87,2.203,4.83,3.783c1.245,2.049,0.919,5.438,0.87,7.716c-0.005,0.239-0.012,0.479-0.022,0.719
					c-0.071,1.751-0.296,3.519-1.132,5.066c-0.536,0.991-1.365,1.863-2.38,2.416c-0.528,0.288-1.111,0.493-1.716,0.564
					C124.788,313.935,124.264,313.855,124.135,313.964z"/>
				<path d="M117.991,291.59c2.668-0.06,5.369,0.32,7.776,1.411c2.65,1.202,4.913,3.335,5.824,6.007
					c0.12,0.352,0.206,0.771-0.027,1.066c-0.2,0.253-0.563,0.319-0.893,0.354c-3.075,0.332-6.261-0.383-8.863-1.988
					c-0.932,1.238-2.665,3.228-4.501,2.734c-0.451-0.122-0.839-0.401-1.179-0.71c-1.798-1.638-3.898-6.819-1.011-8.391
					c0.62-0.337,1.354-0.412,2.065-0.451C117.452,291.607,117.721,291.596,117.991,291.59z"/>
				<path d="M104.647,326.171c-1.072-0.101-1.949-0.016-3.014-0.368c-0.321-0.106-0.646-0.214-0.924-0.401
					c-0.377-0.253-0.64-0.632-0.878-1.011c-0.308-0.491-0.594-1.009-0.691-1.575c-0.2-1.17,0.367-2.285,1.135-3.142
					c0.764-0.853,1.333-1.757,1.95-2.723c1.381-2.16,2.82-4.309,3.783-6.679c1.026-2.522,1.483-5.219,2.244-7.826
					c0.784-2.684,1.893-5.279,3.299-7.719c0.56-0.971,1.201-1.953,2.181-2.544c1.032-0.622,2.305-0.732,3.524-0.747
					c1.509-0.018,3.051,0.091,4.442,0.651c0.361,0.146,0.72,0.328,0.971,0.616c0.897,1.028,0.07,2.375-0.159,3.474
					c-0.233,1.119-0.174,2.265-0.164,3.398c0.005,0.538-0.024,1.066-0.073,1.598c-0.042,0.458,0.077,0.954-0.268,1.341
					c-0.178,0.2-0.447,0.313-0.719,0.346c-0.272,0.033-0.549-0.008-0.815-0.076c-0.107-0.028-0.216-0.06-0.326-0.053
					c-0.237,0.016-0.4,0.273-0.499,0.453c-0.654,1.194-0.755,3.021-1.024,4.34c-0.337,1.649-0.62,3.308-0.967,4.956
					c-0.424,2.008-0.854,4.035-1.722,5.908c-1.52,3.28-4.418,5.968-7.919,7.238C106.94,326.017,105.79,326.278,104.647,326.171z"/>
				<path style="fill:#DA9372;" d="M116.075,304.574c0,1.247,1.149,2.257,2.566,2.257c1.417,0,2.566-1.01,2.566-2.257
					c0-1.246-1.149-2.257-2.566-2.257C117.224,302.317,116.075,303.328,116.075,304.574z"/>
				<path d="M118.219,303.32c0.8,0.306,1.156,1.372,0.688,2.066"/>
				<path style="fill:none;stroke:#000000;stroke-width:0.5;stroke-miterlimit:10;" d="M178.47,395.662
					c-10.699-20.272-8.259-25.904-20.085-25.904c-5.895,0-10.161-1.353-16.018-2.019c-2.657-0.302-5.373-0.618-7.984-0.038"/>
				<path style="fill:none;stroke:#000000;stroke-width:0.5;stroke-miterlimit:10;" d="M105.399,363.4
					c1.942-4.413,3.042-9.164,3.23-13.95c0.147-3.722-0.252-7.473,0.29-11.161"/>
				<path style="fill:#D96F48;" d="M125.111,433.301H67.719c-3.537,0-6.404-2.867-6.404-6.404v-60.332
					c0-3.537,2.867-6.404,6.404-6.404h36.151c11.731,0,21.241,9.51,21.241,21.241V433.301z"/>
				<path style="fill:none;stroke:#EB845E;stroke-miterlimit:10;" d="M68.233,367.694h31.705c9.315,0,16.866,7.551,16.866,16.866
					v41.209"/>
				<path style="fill:none;stroke:#000000;stroke-width:0.5;stroke-miterlimit:10;" d="M190.278,317.247
					c5.405,1.096,10.055,4.26,14.677,7.161c8.809,5.53,32.639,20.31,42.191,10.356c2.043-2.129,3.233-4.898,3.932-7.713
					c1.003-4.042,1.065-8.296,0.179-12.362c-0.238-1.092-0.566-2.214-1.337-3.05s-2.098-1.297-3.136-0.794
					c-0.698,0.339-1.131,1.027-1.446,1.713c-1.713,3.728-0.93,8.096,0.636,11.883c0.795,1.921,1.806,3.803,3.331,5.264
					c1.525,1.461,3.628,2.465,5.78,2.348c4.014-0.218,6.731-4.022,8.11-7.643c1.159-3.042,1.841-6.25,2.019-9.484
					c0.109-1.975,0.188-3.195-0.971-4.832c-0.863-1.219-2.108,0.377-2.329,1.242c-0.262,1.029-0.112,2.188,0.11,3.212
					c0.424,1.952,1.505,3.779,2.984,5.175c0.576,0.544,1.219,1.043,1.968,1.337c0.714,0.28,1.502,0.364,2.272,0.307
					c2.587-0.192,4.824-1.943,6.191-4.057c1.367-2.114,2.007-4.574,2.629-6.989c0.622-2.415,1.264-4.875,2.632-6.988"/>
				<path style="fill:none;stroke:#000000;stroke-width:0.5;stroke-miterlimit:10;" d="M185.811,316.481
					c-7.407-2.246-15.061-2.26-21.607,2.055c-7.381,4.866-13.829,11.361-21.894,15.158c-5.205,2.451-10.663,3.822-15.745,6.513
					c-5.252,2.782-8.629,6.802-11.29,11.941c-5.019,9.693-11.605,26.556-25.828,24.979c-6.156-0.682-11.519-3.878-14.913-8.881
					c-2.579-3.803-3.953-8.244-4.859-12.696c-0.998-4.902-1.347-10.438-4.585-14.551c-2.344-2.977-6.559-2.43-8.479,0.996
					c-0.815,1.454-0.94,3.161-1.027,4.809c-0.059,1.123-0.109,2.25-0.292,3.361c-0.085,0.521-0.202,1.043-0.444,1.516
					c-0.241,0.471-0.599,0.879-0.997,1.239c-1.084,0.98-2.568,1.636-4.049,1.474"/>
				<path style="fill:none;stroke:#000000;stroke-width:0.5;stroke-miterlimit:10;" d="M155.485,390.326
					c1.797-1.198,3.532-2.49,5.193-3.869"/>
			</g>
			<path style="fill:#FFFFFF;" d="M125.131,306.796c0.143,0.432,0.401,0.828,0.743,1.14c0.366,0.334,0.873,0.577,1.369,0.483
				c0.721-0.137,1.115-0.929,1.101-1.633"/>
			<path d="M121.174,313.234c0.433,0.416,0.727,0.911,1.223,1.288c0.238,0.181,0.492,0.344,0.757,0.487
				c0.197,0.106,0.564,0.175,0.685,0.36c0.066-0.071,0.086-0.169,0.107-0.261c0.1-0.441,0.27-0.867,0.502-1.26
				c-0.535,0.242-0.995-0.03-1.52-0.164c-0.315-0.081-0.63-0.161-0.945-0.242C121.802,313.395,121.303,313.358,121.174,313.234z"/>
		</g>
		<g>
			<path style="fill:#3C8775;" d="M225.498,403.21c-2.346-3.234-4.378-6.684-5.775-10.397c-4.221-11.224,0.894-24.174,3.505-35.256
				c-0.248,1.051,6.505,7.789,7.463,8.906c4.142,4.835,7.183,11.25,8.935,17.244c1.534,5.25,1.611,10.453,0.093,15.7
				c-1.508,5.212-3.868,10.263-3.597,15.788c-0.089-1.819-7.61-8.076-8.972-9.805C226.586,404.675,226.034,403.948,225.498,403.21z"
				/>
			<path style="fill:#3C8775;" d="M257.266,378.492c3.012-2.774,6.813-4.771,11.586-5.582c4.971-0.845,10.069-0.456,15.1-0.065
				c-1.736,2.983-3.508,6.151-4.51,9.425c-1.185,3.871-3.453,7.029-6.887,9.448c-3.413,2.404-7.504,3.819-11.671,4.545
				c-2.599,0.452-5.341,0.452-7.673,1.678c-1.885,0.991-3.825,2.181-5.675,3.275c0.353-0.209,0.546-4.943,0.711-5.639
				C249.794,389.032,252.57,382.818,257.266,378.492z"/>
			<path style="fill:#3C8775;" d="M262.126,410.806c1.844-0.149,3.687-0.125,5.44,0.032c3.457,0.309,6.879,0.959,10.347,1.115
				c0.274,2.913-1.134,5.838-3.358,7.841c-2.223,2.003-5.182,3.145-8.194,3.607c-3.203,0.492-6.431-0.193-9.566,0.3
				c-0.816,0.128-10.27,0.721-10.168,1.17c-0.735-3.221,0.632-6.673,3.024-9.042C252.867,412.643,257.498,411.18,262.126,410.806z"
				/>
			<path style="fill:#3C8775;" d="M233.145,417.302c-5.789-6.376-12.749-6.533-23.267-11.875c0.408,6.362,2.041,12.649,4.793,18.451
				c1.477,3.113,3.29,6.11,5.699,8.632c4.596,4.813,11.34,7.674,18.147,7.698C238.86,431.209,238.19,422.858,233.145,417.302z"/>
			<path style="fill:none;stroke:#000000;stroke-width:0.5;stroke-miterlimit:10;" d="M228.099,379.644
				c1.942,11.127,4.47,22.16,7.57,33.044c3.818,13.401,8.556,27.144,6.423,40.885"/>
			<path style="fill:none;stroke:#000000;stroke-width:0.5;stroke-miterlimit:10;" d="M264.068,383.027
				c-11.472,9.987-24.414,24.558-21.793,40.63c0.838,5.137,3.402,9.876,4.556,14.957c1.364,6.006,0.674,12.424-1.941,18.036"/>
			<path style="fill:none;stroke:#000000;stroke-width:0.5;stroke-miterlimit:10;" d="M243.068,453.716
				c2.123-3.667,2.029-8.114,1.586-12.286c-0.443-4.172-1.171-8.437-0.136-12.512c2.538-9.985,13.23-8.477,20.403-12.978"/>
			<path style="fill:none;stroke:#000000;stroke-width:0.5;stroke-miterlimit:10;" d="M241.845,453.322
				c-0.319-5.62-2.924-10.856-5.482-15.923c-0.73-1.445-1.466-2.901-2.484-4.176c-2.84-3.559-7.62-5.412-10.182-9.161"/>
			<g>
				<ellipse style="fill:#EAD1D0;" cx="243.717" cy="466.26" rx="18.095" ry="4.379"/>
				<path d="M252.474,466.342c0,1.41-3.986,2.554-8.903,2.554c-4.917,0-8.904-1.143-8.904-2.554c0-1.41,3.986-2.553,8.904-2.553
					C248.488,463.788,252.474,464.932,252.474,466.342z"/>
				<path style="fill:#EB845E;" d="M243.717,468.086L243.717,468.086c-5.471,0-10.174-3.716-11.22-8.864l-2.738-13.473h27.916
					l-2.737,13.473C253.892,464.37,249.188,468.086,243.717,468.086z"/>
				<rect x="229.035" y="445.373" width="29.365" height="4.029"/>
			</g>
		</g>
		<path style="fill:none;stroke:#000000;stroke-width:0.5;stroke-miterlimit:10;" d="M287.651,299.305
			c7.221-4.06,22.557-3.139,28.087,2.885c1.861,2.027,3.359,4.566,5.942,5.644c2.884,1.203,6.445,0.089,8.53-2.168
			c2.085-2.257,2.849-5.42,2.698-8.432c-0.051-1.003-0.228-2.075-0.948-2.805c-0.72-0.73-2.144-0.876-2.745-0.053
			c-0.312,0.428-0.33,0.989-0.286,1.509c0.211,2.505,1.643,4.89,3.795,6.324c0.721,0.48,1.548,0.865,2.426,0.888
			c2.023,0.052,3.539-1.761,4.392-3.52c1.075-2.218,1.659-4.653,1.704-7.098c0.016-0.865-0.408-2.041-1.295-1.879
			c-1.986,3.242-0.373,7.992,3.223,9.492c1.051,0.439,2.301,0.612,3.327,0.122c0.992-0.473,1.59-1.465,2.028-2.441
			c0.707-1.577,2.775-11.389-0.378-9.241c-2.541,1.731-0.914,6.783,1.811,7.451c2.011,0.493,3.792-1.257,5.068-2.826"/>
		<path style="fill:#F5BA9F;" d="M290.611,310.134c0.093,0.017,0.185,0.044,0.273,0.089c0.202,0.103,0.36,0.288,0.511,0.469
			c1.526,1.833,2.896,3.814,4.081,5.904c1.862-1.373,3.662-2.836,5.394-4.385c-0.942-1.065-1.44-2.462-2.028-3.772
			c-2.46-5.482-7.443-10.559-13.114-11.167c-1.385-0.148-2.663,0.637-3.924,1.001c-0.858,0.248-1.765,0.356-2.578,0.718
			c-0.813,0.362-1.549,1.05-1.677,2.008c-0.216,1.619,1.302,2.269,2.502,2.407c1.238,0.142,2.094-0.725,3.269-0.764
			c0.864-0.029,1.775,0.428,2.359,1.185c0.181,0.234,0.338,0.52,0.315,0.806c-0.017,0.215-0.135,0.397-0.279,0.534
			c-0.405,0.388-1.022,0.471-1.587,0.322c-1.186-0.313-1.977-1.469-3.194-1.79c-2.02-0.533,0.961,3.076,1.283,3.499
			c0.121,0.158,0.243,0.318,0.39,0.447c0.343,0.299,0.782,0.4,1.2,0.502c2.272,0.551,4.062,1.917,6.411,1.961
			C290.349,310.107,290.482,310.111,290.611,310.134z"/>
		<path style="fill:#E8BC92;" d="M249.534,263.317c-4.148,0.623-7.325,4.054-7.325,8.206s3.177,7.583,7.325,8.206V263.317z"/>
		<path style="fill:#E8BC92;" d="M273.295,279.071c4.148-0.623,7.325-4.054,7.325-8.206c0-4.152-3.177-7.583-7.325-8.206V279.071z"
			/>
		<path style="fill:#3C8775;" d="M404.553,269.893c-4.148,0.623-7.325,4.054-7.325,8.206s3.177,7.583,7.325,8.206V269.893z"/>
		<path style="fill:#9EB5AB;" d="M182.862,285.121c-0.65-3.977-4.229-7.023-8.559-7.023c-4.331,0-7.91,3.046-8.559,7.023H182.862z"
			/>
		<path style="fill:#3C8775;" d="M155.097,272.208c-4.148,0.623-7.325,4.054-7.325,8.206c0,4.152,3.177,7.583,7.325,8.206V272.208z"
			/>
		<path style="fill:#9EB5AB;" d="M432.538,303.533c-0.65-3.977-4.229-7.023-8.559-7.023s-7.91,3.046-8.559,7.023H432.538z"/>
		<rect x="252.933" y="262.733" style="fill:#9EB5AB;" width="16.964" height="16.263"/>
		<path style="fill:#9EB5AB;" d="M182.697,277.23c-0.566-3.965-4.103-7.023-8.394-7.023l0,0c-4.291,0-7.829,3.058-8.394,7.023
			H182.697z"/>
		<path d="M201.775,288.23c0.566,3.965,4.103,7.023,8.394,7.023l0,0c4.291,0,7.829-3.058,8.394-7.023H201.775z"/>
		<g>
			<rect x="268.023" y="338.355" style="fill:#FFFFFF;" width="16.964" height="16.263"/>
			<polyline style="fill:#E8BC92;" points="268.023,338.355 284.987,338.355 284.987,354.618 			"/>
		</g>
		<g>
			<polyline style="fill:#FFFFFF;" points="218.44,280.646 201.476,280.646 201.476,264.383 			"/>
			<polyline style="fill:#E8BC92;" points="199.014,257.342 215.978,257.342 215.978,273.606 			"/>
		</g>
		<path style="fill:#FFFFFF;" d="M310.563,281.412c3.132-0.554,5.713-2.603,8.14-4.58c3.322-2.706,14.071-8.803,12.842-14.026
			c-1.194-5.075-5.342-1.839-8.824-0.111c-4.507,2.237-12.866,5.377-16.427,8.61C301.667,275.505,302.818,282.782,310.563,281.412z"
			/>
		<path style="fill:#FFFFFF;" d="M230.221,317.341c2.17-1.226,3.536-3.654,3.413-6.066c-0.242-4.726-7.195-5.974-8.939-1.579
			C223.187,313.496,224.623,320.503,230.221,317.341z"/>
		<path style="fill:#FFFFFF;" d="M417.577,279.813c1.341-0.757,2.185-2.258,2.109-3.748c-0.15-2.921-4.446-3.691-5.524-0.976
			C413.23,277.438,414.117,281.768,417.577,279.813z"/>
		<path style="fill:none;stroke:#EB845E;stroke-miterlimit:10;" d="M426.804,367.694h-31.705c-9.315,0-16.866,7.551-16.866,16.866
			v41.209"/>
	</g>
	<path style="fill:none;stroke:#000000;stroke-width:0.5;stroke-miterlimit:10;" d="M155.57,390.406
		c1.554-1.668,4.071-5.443,5.256-7.391"/>
</g>
</svg>
