<?xml version="1.0" encoding="utf-8"?>
<!-- Generator: Adobe Illustrator 27.5.0, SVG Export Plug-In . SVG Version: 6.00 Build 0)  -->
<svg version="1.1" id="_x31_" xmlns="http://www.w3.org/2000/svg" xmlns:xlink="http://www.w3.org/1999/xlink" x="0px" y="0px"
	 viewBox="0 0 617.442 423.865" style="enable-background:new 0 0 617.442 423.865;" xml:space="preserve">
<g>
	<defs>
		<rect id="SVGID_1_" x="0" y="0" width="617.442" height="423.865"/>
	</defs>
	<clipPath id="SVGID_00000081640070339203530310000016921629131130206861_">
		<use xlink:href="#SVGID_1_"  style="overflow:visible;"/>
	</clipPath>
	<g style="clip-path:url(#SVGID_00000081640070339203530310000016921629131130206861_);">
		<rect x="-0.025" y="213.792" style="fill:#EDD4CA;" width="617.467" height="210.074"/>
		<polygon style="fill:#F7E0D7;" points="617.417,215.397 249.83,215.397 -0.025,215.397 -0.025,0 617.417,0 		"/>
		<g>
			<rect x="0.134" y="387.177" style="fill:#EDC9BB;" width="617.416" height="3"/>
			<rect x="0.134" y="359.337" style="fill:#EDC9BB;" width="617.416" height="3"/>
			<rect x="0.134" y="332.121" style="fill:#EDC9BB;" width="617.416" height="3"/>
			<rect x="0.134" y="306.489" style="fill:#EDC9BB;" width="617.416" height="3"/>
			<rect x="0.134" y="282.057" style="fill:#EDC9BB;" width="617.416" height="3"/>
			<rect x="0.134" y="259.817" style="fill:#EDC9BB;" width="617.416" height="3"/>
			<rect x="0.134" y="240.37" style="fill:#EDC9BB;" width="617.416" height="3"/>
			<rect x="0.134" y="223.301" style="fill:#EDC9BB;" width="617.416" height="3"/>
		</g>
		<g>
			<ellipse style="fill:#EDBCA8;" cx="347.943" cy="324.581" rx="152.719" ry="46.253"/>
			<ellipse style="fill:#EDCBBE;" cx="347.943" cy="324.581" rx="126.672" ry="33.868"/>
			<path style="fill:#EDD6CE;" d="M347.944,353.142c-30.152,0-58.542-2.588-79.938-7.287c-23.819-5.231-35.897-12.389-35.897-21.274
				c0-8.885,12.078-16.043,35.897-21.273c21.397-4.699,49.786-7.287,79.938-7.287c30.152,0,58.541,2.588,79.938,7.287
				c23.819,5.23,35.898,12.389,35.898,21.273c0,8.886-12.078,16.043-35.898,21.274C406.485,350.555,378.096,353.142,347.944,353.142
				z M347.944,304.02c-29.593,0-57.372,2.522-78.222,7.101c-23.425,5.145-29.614,11.054-29.614,13.46
				c0,2.406,6.189,8.316,29.614,13.461c20.849,4.579,48.629,7.1,78.222,7.1c29.593,0,57.372-2.521,78.221-7.1
				c23.425-5.145,29.614-11.055,29.614-13.461c0-2.406-6.189-8.315-29.613-13.46C405.316,306.542,377.536,304.02,347.944,304.02z"/>
			<path style="fill:#EDD6CE;" d="M347.944,365.309c-38.342,0-74.4-4.145-101.534-11.673c-27.521-7.635-42.679-17.953-42.679-29.056
				c0-11.102,15.157-21.42,42.679-29.055c27.134-7.527,63.193-11.673,101.534-11.673c38.341,0,74.4,4.146,101.534,11.673
				c27.522,7.635,42.679,17.953,42.679,29.055c0,11.103-15.157,21.421-42.679,29.056
				C422.343,361.164,386.284,365.309,347.944,365.309z M347.944,285.853c-38.166,0-74.035,4.119-101,11.6
				c-26.191,7.266-41.213,17.153-41.213,27.128s15.021,19.863,41.213,27.129c26.965,7.48,62.834,11.6,101,11.6
				c38.166,0,74.034-4.119,100.999-11.6c26.192-7.266,41.214-17.154,41.214-27.129s-15.022-19.862-41.214-27.128
				C421.978,289.973,386.109,285.853,347.944,285.853z"/>
			<path style="fill:#EDD6CE;" d="M347.944,361.764c-77.751,0-138.656-16.333-138.656-37.184c0-20.85,60.905-37.183,138.656-37.183
				c77.751,0,138.656,16.333,138.656,37.183C486.6,345.431,425.695,361.764,347.944,361.764z M347.944,289.398
				c-36.687,0-71.164,3.752-97.083,10.565c-25.149,6.61-39.573,15.583-39.573,24.618c0,9.035,14.424,18.008,39.573,24.618
				c25.919,6.814,60.397,10.565,97.083,10.565c36.686,0,71.164-3.752,97.083-10.565c25.149-6.61,39.573-15.583,39.573-24.618
				c0-9.035-14.424-18.008-39.573-24.618C419.108,293.15,384.63,289.398,347.944,289.398z"/>
			<ellipse style="fill:#EDD2C7;" cx="347.943" cy="324.581" rx="74.266" ry="11.032"/>
		</g>
		<g>
			<polygon style="fill:#EDC9BB;" points="158.501,169.667 52.771,169.007 52.771,31.532 158.501,32.193 			"/>
			<g>
				<polygon style="fill:#FFE7DE;" points="102.55,162.905 58.736,162.631 58.736,37.983 102.55,38.257 				"/>
				<polygon style="fill:#FFE7DE;" points="152.536,163.217 108.722,162.943 108.722,38.295 152.536,38.569 				"/>
			</g>
			<polygon style="fill:#EDB7A1;" points="164.519,46.932 46.531,46.094 46.531,41.674 164.519,42.512 			"/>
			<polygon style="fill:#EDB7A1;" points="164.519,40.031 46.531,39.194 46.531,34.774 164.519,35.612 			"/>
			<polygon style="fill:#EDB7A1;" points="164.519,53.832 46.531,52.994 46.531,48.575 164.519,49.412 			"/>
			<polygon style="fill:#EDB7A1;" points="164.519,60.732 46.531,59.894 46.531,55.475 164.519,56.312 			"/>
			<polygon style="fill:#EDB7A1;" points="164.519,67.632 46.531,66.794 46.531,62.375 164.519,63.212 			"/>
			<polygon style="fill:#EDB7A1;" points="164.519,74.532 46.531,73.695 46.531,69.275 164.519,70.112 			"/>
			<polygon style="fill:#EDB7A1;" points="164.519,81.432 46.531,80.595 46.531,76.175 164.519,77.013 			"/>
			<polygon style="fill:#EDB7A1;" points="164.519,88.332 46.531,87.495 46.531,83.075 164.519,83.913 			"/>
			<path style="fill:#EDC9BB;" d="M142.825,122.229c-0.252,0.031-0.458-0.065-0.458-0.213V35.782c0-0.149,0.206-0.294,0.458-0.325
				c0.252-0.031,0.458,0.065,0.458,0.213v86.234C143.283,122.053,143.077,122.199,142.825,122.229z"/>
			<polygon style="fill:#EDC9BB;" points="145.523,123.077 140.144,123.039 141.555,117.271 144.105,117.28 			"/>
		</g>
		<rect x="0" y="204.43" style="fill:#EDC9BB;" width="617.442" height="11.496"/>
		<g>
			<path style="fill:#E0AD98;" d="M5.515,147.764c1.212,0.101,2.413,0.629,3.286,1.521c0.903,0.863,1.523,1.969,2.015,3.099
				c0.945,2.292,1.378,4.735,1.703,7.158c0.608,4.867,0.571,9.757,0.753,14.607c0.082,4.807,1.18,9.585,3.356,13.861
				c1.111,2.125,2.531,4.09,4.202,5.823c1.653,1.752,3.578,3.269,5.74,4.388c-4.517-1.901-8.162-5.585-10.618-9.844
				c-2.39-4.333-3.519-9.288-3.679-14.2c-0.099-4.873-0.079-9.735-0.516-14.551c-0.229-2.4-0.574-4.81-1.396-7.063
				c-0.407-1.12-0.938-2.217-1.75-3.095C7.823,148.572,6.715,147.975,5.515,147.764z"/>
			<path style="fill:#EDB7A1;" d="M13.398,168.173c0,0,1.83,1.299,1.938-0.546c0.109-1.844,1.41-6.618,0-15.08
				c-1.41-8.462-12.367-11.066-16.273-9.221c-3.906,1.844,4.156,5.641,6.608,8.462c2.451,2.821,3.428,18.443,5.055,18.443
				S13.398,168.173,13.398,168.173z"/>
			<path style="fill:#E0AD98;" d="M43.808,153.243c-1.455,1.222-2.69,2.671-3.725,4.237c-1.056,1.553-1.906,3.235-2.556,4.985
				c-0.66,1.749-1.073,3.576-1.37,5.415c-0.242,1.861-0.283,3.701-0.256,5.608c-0.039,3.797-0.035,7.593-0.115,11.39l-0.139,5.695
				c-0.083,1.898-0.132,3.796-0.245,5.694c-0.113-1.898-0.162-3.795-0.245-5.693l-0.14-5.692c-0.08-3.795-0.076-7.59-0.115-11.384
				c0.002-1.889,0.075-3.849,0.357-5.751c0.35-1.894,0.76-3.797,1.556-5.563C38.319,158.649,40.649,155.394,43.808,153.243z"/>
			<path style="fill:#EDB7A1;" d="M35.4,176.254c0,0,1.85,0.094,2.038-2.351c0.188-2.445,0.203-9.405,4.992-14.201
				s4.804-10.815,0-8.652c-4.804,2.163-11.642,13.543-10.151,20.784C33.77,179.075,35.4,176.254,35.4,176.254z"/>
			<path style="fill:#EDB7A1;" d="M29.172,166.625c0,0,2.412,2.743,4.213,1.421c1.801-1.322-0.632-12.227,2.017-18.505
				c2.649-6.279,10.359-28.199,5.402-30.732c-4.957-2.533-7.357,7.821-8.525,15.421c-1.168,7.6-8.816,30.539-7.117,33.276
				C26.861,170.241,29.172,166.625,29.172,166.625z"/>
			<path style="fill:#EDB7A1;" d="M40.406,172.228c0,0-0.551,1.889,2.024,2.527c2.575,0.638,2.975-6.314,11.561-9.826
				c8.586-3.512,10.908-18.187,9.005-21.855c-1.902-3.669-4.086-2.644-5.959,0.4c-1.873,3.044-1.512,8.81-5.05,13.493
				c-3.538,4.683-15.324,9.913-15.402,13.66C36.506,174.373,40.406,172.228,40.406,172.228z"/>
			<path style="fill:#EDB7A1;" d="M26.673,179.051c0,0-0.417,3.24-2.308,1.66c-1.891-1.58-2.711-9.309-8.296-12.183
				c-5.585-2.874-12.046,0.275-14.345-1.904c-2.3-2.179,1.155-8.807,11.238-6.057c10.083,2.75,16.217,13.256,16.711,18.333
				C30.167,183.977,26.673,179.051,26.673,179.051z"/>
			<path style="fill:#EDB7A1;" d="M41.368,181.594c0,0-0.881,2.295,1.734,1.186c2.614-1.109,1.664-6.497,6.338-7.289
				s12.835,8.718,14.815,5.706c1.981-3.012,2.912-8.846-6.19-10.643s-17.842,4.304-19.414,8.503
				C37.08,183.255,41.368,181.594,41.368,181.594z"/>
			<path style="fill:#EDB7A1;" d="M23.595,137.784c0,0,2.639,1.706,4.941-0.838c2.302-2.544-2.302-9.381,0-19.239
				c2.302-9.858,7.965-20.988,4.974-23.85c-2.991-2.862-14.121,11.13-16.506,23.214c-2.385,12.084-0.13,21.943,2.227,23.173
				C21.588,141.474,23.595,137.784,23.595,137.784z"/>
			<path style="fill:#E0AD98;" d="M30.832,201.246c-1.536-1.385-2.931-2.931-4.189-4.58c-1.242-1.658-2.432-3.374-3.373-5.235
				c-1.96-3.669-3.143-7.812-3.15-12.023c0.004-0.526-0.007-1.053,0.01-1.578l0.206-1.566c0.083-0.519,0.108-1.052,0.252-1.559
				l0.427-1.522c0.524-2.054,1.322-3.909,1.772-5.928c1.048-3.965,1.648-8.044,1.792-12.141c0.177-4.097-0.092-8.209-0.641-12.287
				c-0.536-4.084-1.417-8.121-1.947-12.25c-0.557-4.165-0.141-8.363,0.568-12.441c0.781-4.075,1.838-8.093,3.257-11.981
				c-1.203,3.956-2.16,7.985-2.773,12.061c-0.607,4.067-0.925,8.213-0.29,12.256c0.642,4.059,1.499,8.118,2.087,12.23
				c0.583,4.111,0.892,8.282,0.737,12.451c-0.176,4.167-0.818,8.314-1.912,12.335c-0.465,2.02-1.316,3.988-1.823,5.941l-0.423,1.461
				c-0.146,0.486-0.163,0.999-0.259,1.496l-0.233,1.504c-0.027,0.506-0.027,1.014-0.042,1.522
				c-0.086,4.066,0.976,8.136,2.819,11.797C25.498,194.904,27.932,198.303,30.832,201.246z"/>
			<path style="fill:#E0AD98;" d="M30.314,201.246c0.273-3.01,0.498-6.022,0.625-9.038c0.148-3.011,0.251-6.034,0.208-9.038
				c-0.021-1.49-0.201-2.969-0.425-4.442c-0.26-1.471-0.59-2.937-0.925-4.412c-0.675-2.951-1.183-6.008-1.122-9.081
				c0.053-3.069,0.539-6.102,1.225-9.065l1.125-4.396c0.353-1.462,0.702-2.927,1.028-4.399c0.653-2.943,1.228-5.907,1.768-8.877
				c0.571-2.966,1.068-5.945,1.581-8.924c-0.608,6.016-1.465,12.007-2.596,17.957c-0.276,1.489-0.59,2.972-0.942,4.448l-1.078,4.396
				c-0.648,2.925-1.087,5.897-1.113,8.873c-0.088,2.981,0.37,5.935,1.011,8.874c0.319,1.474,0.639,2.96,0.89,4.467
				c0.227,1.512,0.368,3.045,0.339,4.579C31.788,189.235,31.262,195.272,30.314,201.246z"/>
			<path style="fill:#E0AD98;" d="M62.996,177.422c-1.437-1.252-3.005-2.345-4.688-3.19c-1.668-0.859-3.477-1.472-5.316-1.573
				c-3.694-0.281-7.214,1.899-9.137,5.002c-1.046,1.517-1.769,3.266-2.373,5.038c-0.634,1.771-1.005,3.628-1.428,5.47
				c-0.379,1.855-0.659,3.732-0.884,5.618c-0.253,1.885-0.398,3.782-0.518,5.687c-0.188-3.816,0.065-7.648,0.645-11.442
				c0.309-1.894,0.715-3.78,1.32-5.617c0.595-1.834,1.308-3.661,2.404-5.305c1.092-1.637,2.538-3.078,4.293-4.014
				c1.728-0.965,3.772-1.437,5.741-1.2C57.023,172.354,60.397,174.679,62.996,177.422z"/>
			<path style="fill:#E0AD98;" d="M27.536,200.199c-0.009-2.172-0.015-4.339-0.103-6.505c-0.062-2.165-0.143-4.329-0.312-6.484
				c-0.185-2.153-0.336-4.309-0.66-6.438c-0.296-2.13-0.703-4.251-1.369-6.265c-0.608-2.031-1.604-3.898-3.065-5.423
				c-1.436-1.541-3.227-2.729-5.123-3.687c-1.908-0.945-3.969-1.608-6.081-1.963c-2.097-0.355-4.324-0.508-6.364,0.277
				c1.966-1.003,4.276-0.963,6.433-0.762c2.179,0.264,4.32,0.858,6.339,1.752c2.023,0.885,3.897,2.153,5.455,3.756
				c1.575,1.592,2.701,3.63,3.356,5.743c0.666,2.116,1.047,4.282,1.318,6.449c0.284,2.167,0.459,4.342,0.524,6.519
				C28.029,191.52,27.942,195.873,27.536,200.199z"/>
			<path style="fill:#E0AD98;" d="M33.674,199.474c-0.619-4.788-0.48-9.685,0.391-14.47c0.882-4.763,2.701-9.495,5.926-13.267
				c0.825-0.918,1.719-1.78,2.708-2.524l0.742-0.556l0.782-0.498l1.534-0.96c2.056-1.208,3.912-2.716,5.645-4.337
				c1.719-1.639,3.223-3.517,4.375-5.604c1.171-2.069,2.047-4.352,2.288-6.755c-0.015,2.427-0.806,4.796-1.855,6.984
				c-1.091,2.183-2.564,4.167-4.265,5.919c-1.697,1.757-3.63,3.288-5.706,4.565l-1.519,0.977l-0.737,0.481l-0.698,0.537
				c-0.931,0.716-1.767,1.548-2.544,2.428c-3.135,3.541-4.905,8.121-5.928,12.762c-0.529,2.33-0.844,4.713-1.019,7.105
				C33.593,194.656,33.561,197.065,33.674,199.474z"/>
			<path style="fill:#EDB7A1;" d="M33.563,221.992h-4.053c-5.201,0-9.657-3.721-10.586-8.838l-2.307-12.717
				c-0.394-2.172,1.275-4.171,3.483-4.171h22.872c2.208,0,3.876,1.999,3.483,4.171l-2.307,12.717
				C43.221,218.271,38.764,221.992,33.563,221.992z"/>
		</g>
		<g>
			<g>
				<path style="fill:#ED9572;" d="M480.635,229.67H236.853c-4.563,0-8.261-3.699-8.261-8.261v-57.147
					c0-4.563,3.699-8.261,8.261-8.261h243.783c4.563,0,8.261,3.699,8.261,8.261v57.147
					C488.897,225.971,485.198,229.67,480.635,229.67z"/>
				<path style="fill:#ED9572;" d="M487.754,270.528h-258.02c-6.5,0-12.11-5.3-13.442-12.699l-8.943-49.681
					c-1.786-9.922,4.725-19.243,13.442-19.243h275.906c8.717,0,15.228,9.322,13.442,19.243l-8.943,49.681
					C499.865,265.229,494.255,270.528,487.754,270.528z"/>
				<path style="fill:#F7B094;" d="M457.29,217.771H260.198c-3.582,0-6.485-2.904-6.485-6.485v-41.688
					c0-3.582,2.903-6.485,6.485-6.485H457.29c3.582,0,6.485,2.904,6.485,6.485v41.688
					C463.775,214.867,460.872,217.771,457.29,217.771z"/>
				<path style="fill:#F7BDA5;" d="M479.604,214.704h-241.72c-3.582,0-6.485,2.904-6.485,6.485v7.839
					c0,3.582,2.903,6.485,6.485,6.485h241.72c3.582,0,6.485-2.904,6.485-6.485v-7.839
					C486.089,217.607,483.186,214.704,479.604,214.704z"/>
				<polygon style="fill:#5E4A27;" points="259.778,270.525 252.348,284.455 241.248,284.455 244.548,270.525 				"/>
				<polygon style="fill:#5E4A27;" points="476.698,284.455 465.598,284.455 458.168,270.525 473.398,270.525 				"/>
			</g>
			<path style="fill:#F2B2A5;" d="M379.649,166.179c-2.137-0.439-4.055-1.123-6.18-1.481c1.069-0.311,2.194-0.126,3.242,0.115
				C377.749,165.131,378.771,165.514,379.649,166.179z"/>
			<path style="fill:#F2B2A5;" d="M371.819,166.939c1.046-0.297,2.119-0.3,3.187-0.249c1.052,0.126,2.16,0.303,3.065,0.929
				C375.968,167.311,373.945,167.311,371.819,166.939z"/>
			<path style="fill:#F2B2A5;" d="M372.644,169.156c0.856-0.287,1.727-0.321,2.598-0.346c0.865,0.048,1.759,0.091,2.583,0.48
				C376.072,169.469,374.394,169.522,372.644,169.156z"/>
		</g>
		<g>
			<path style="fill:#EDC9BB;" d="M242.875,60.16c-4.223,0-7.658-3.436-7.658-7.658c0-4.223,3.436-7.658,7.658-7.658
				c4.223,0,7.658,3.435,7.658,7.658C250.534,56.725,247.098,60.16,242.875,60.16z M242.875,45.669
				c-3.769,0-6.834,3.065-6.834,6.833c0,3.769,3.065,6.834,6.834,6.834c3.769,0,6.834-3.065,6.834-6.834
				C249.709,48.734,246.644,45.669,242.875,45.669z"/>
			<path style="fill:#EDC9BB;" d="M256.983,28.343v-4.922c0-0.723-0.852-1.309-1.902-1.309h-24.307
				c-1.051,0-1.903,0.586-1.903,1.309v4.505c0,0.075-0.009,0.149-0.028,0.222l-6.962,22.822c-0.201,0.8,0.695,1.531,1.875,1.531
				h38.239c1.18,0,2.075-0.731,1.875-1.531l-6.858-22.406C256.993,28.492,256.983,28.418,256.983,28.343z"/>
			<rect x="241.639" y="0" style="fill:#EDC9BB;" width="2.472" height="26.382"/>
		</g>
		<g>
			<rect x="517.567" y="14.654" style="fill:#EDC9BB;" width="6.058" height="206.848"/>
			<rect x="588.557" y="14.654" style="fill:#EDC9BB;" width="6.058" height="206.848"/>
			<rect x="520.596" y="52.638" style="fill:#EDC9BB;" width="70.991" height="7.464"/>
			<rect x="520.596" y="14.654" style="fill:#EDC9BB;" width="70.991" height="7.464"/>
			<rect x="520.596" y="90.622" style="fill:#EDC9BB;" width="70.991" height="7.464"/>
			<rect x="520.596" y="128.606" style="fill:#EDC9BB;" width="70.991" height="7.464"/>
			<rect x="520.596" y="166.59" style="fill:#EDC9BB;" width="70.991" height="7.464"/>
			<rect x="520.596" y="204.574" style="fill:#EDC9BB;" width="70.991" height="7.464"/>
		</g>
		<g>
			<rect x="580.441" y="140.852" style="fill:#EDB7A1;" width="4.69" height="28.093"/>
			<rect x="574.109" y="140.852" style="fill:#EDB7A1;" width="4.69" height="28.093"/>
			<rect x="568.418" y="140.852" style="fill:#EDB7A1;" width="4.69" height="28.093"/>
			
				<rect x="524.864" y="140.852" transform="matrix(0.968 -0.251 0.251 0.968 -22.0029 137.3134)" style="fill:#EDB7A1;" width="4.69" height="28.093"/>
			
				<rect x="558.08" y="140.852" transform="matrix(0.9087 0.4173 -0.4173 0.9087 115.7847 -219.7541)" style="fill:#EDB7A1;" width="4.69" height="28.093"/>
			
				<rect x="546.489" y="143.454" transform="matrix(0.7071 0.7071 -0.7071 0.7071 272.1192 -341.9536)" style="fill:#EDB7A1;" width="4.69" height="28.093"/>
		</g>
		<path style="fill:#EDB7A1;" d="M553.209,48.028c0-2.039-0.947-3.854-2.424-5.035c-0.992-0.793-1.638-1.936-1.638-3.206v-2.883
			c0-0.54,0.438-0.978,0.978-0.978l0,0c0.52,0,1.241-1.339,0.941-1.639c-0.762-0.762-2.536-0.143-4.309-0.143
			s-3.547-0.619-4.309,0.143c-0.3,0.3,0.421,1.639,0.941,1.639l0,0c0.54,0,0.978,0.438,0.978,0.978v2.883
			c0,1.27-0.647,2.413-1.638,3.206c-1.477,1.181-2.424,2.997-2.424,5.035c0,1.582,0.573,3.028,1.519,4.149
			c0.36,0.427,0.556,0.968,0.556,1.527v0.319c0,0.253,0.205,0.458,0.458,0.458h7.838c0.253,0,0.458-0.205,0.458-0.458v-0.319
			c0-0.559,0.196-1.1,0.556-1.527C552.636,51.056,553.209,49.611,553.209,48.028z"/>
		<g>
			<g>
				<path style="fill:#E8AE97;" d="M564.744,48.061l-0.498-0.033c0.007-0.104,0.729-10.53,3.305-16.408l0.457,0.2
					C565.468,37.619,564.752,47.957,564.744,48.061z"/>
				<path style="fill:#E8AE97;" d="M564.023,44.534c-0.003-0.07-0.347-7.043-1.755-9.459l0.432-0.252
					c1.47,2.521,1.81,9.396,1.823,9.688L564.023,44.534z"/>
				<path style="fill:#E8AE97;" d="M564.588,44.812c-0.653-1.582-1.994-4.17-2.809-4.381c-0.899-0.232-2.369,1.286-2.865,1.891
					l-0.387-0.317c0.202-0.248,2.021-2.402,3.377-2.058c1.322,0.343,2.963,4.232,3.146,4.674L564.588,44.812z"/>
				<path style="fill:#E8AE97;" d="M558.464,43.537c-0.507,0-0.919-0.412-0.919-0.918c0-0.507,0.412-0.919,0.919-0.919
					c0.507,0,0.919,0.412,0.919,0.919C559.383,43.125,558.971,43.537,558.464,43.537z M558.464,42.2
					c-0.232,0-0.419,0.188-0.419,0.419s0.188,0.418,0.419,0.418c0.231,0,0.419-0.188,0.419-0.418S558.695,42.2,558.464,42.2z"/>
				<path style="fill:#E8AE97;" d="M562.242,35.465c-0.467,0-0.846-0.379-0.846-0.846s0.379-0.847,0.846-0.847
					s0.847,0.38,0.847,0.847S562.709,35.465,562.242,35.465z M562.242,34.272c-0.19,0-0.346,0.156-0.346,0.347
					s0.155,0.346,0.346,0.346c0.191,0,0.347-0.155,0.347-0.346S562.434,34.272,562.242,34.272z"/>
				<path style="fill:#E8AE97;" d="M568.08,32.105c-0.513,0-0.931-0.417-0.931-0.931c0-0.513,0.418-0.931,0.931-0.931
					s0.931,0.417,0.931,0.931C569.011,31.687,568.593,32.105,568.08,32.105z M568.08,30.743c-0.237,0-0.431,0.193-0.431,0.431
					c0,0.238,0.193,0.431,0.431,0.431s0.431-0.193,0.431-0.431C568.511,30.936,568.318,30.743,568.08,30.743z"/>
				<path style="fill:#E8AE97;" d="M563.667,36.083c-0.376,0-0.682-0.306-0.682-0.682c0-0.375,0.306-0.681,0.682-0.681
					c0.376,0,0.682,0.306,0.682,0.681C564.349,35.778,564.043,36.083,563.667,36.083z M563.667,35.221
					c-0.101,0-0.182,0.081-0.182,0.181c0,0.1,0.081,0.182,0.182,0.182s0.182-0.082,0.182-0.182
					C563.849,35.302,563.768,35.221,563.667,35.221z"/>
				<path style="fill:#E8AE97;" d="M562.315,37.161c-0.325,0-0.59-0.265-0.59-0.59c0-0.325,0.265-0.59,0.59-0.59
					c0.324,0,0.589,0.265,0.589,0.59C562.904,36.897,562.639,37.161,562.315,37.161z M562.315,36.482c-0.05,0-0.09,0.041-0.09,0.09
					c0.001,0.098,0.179,0.1,0.179,0C562.404,36.522,562.364,36.482,562.315,36.482z"/>
				<path style="fill:#E8AE97;" d="M564.439,39.316c-0.325,0-0.59-0.265-0.59-0.59c0-0.325,0.265-0.59,0.59-0.59
					s0.59,0.265,0.59,0.59C565.029,39.052,564.764,39.316,564.439,39.316z M564.439,38.637c-0.05,0-0.09,0.041-0.09,0.09
					c0,0.099,0.18,0.099,0.18,0C564.529,38.677,564.489,38.637,564.439,38.637z"/>
				<path style="fill:#E8AE97;" d="M565.606,36.94c-0.325,0-0.59-0.265-0.59-0.59c0-0.325,0.265-0.59,0.59-0.59
					c0.325,0,0.59,0.265,0.59,0.59C566.195,36.675,565.931,36.94,565.606,36.94z M565.606,36.26c-0.05,0-0.09,0.04-0.09,0.09
					c0,0.099,0.18,0.099,0.18,0C565.695,36.301,565.656,36.26,565.606,36.26z"/>
				<path style="fill:#E8AE97;" d="M563.378,41.425c-0.325,0-0.59-0.265-0.59-0.59s0.265-0.589,0.59-0.589s0.59,0.264,0.59,0.589
					S563.703,41.425,563.378,41.425z M563.378,40.745c-0.05,0-0.09,0.04-0.09,0.089c0,0.099,0.18,0.099,0.18,0
					C563.468,40.785,563.428,40.745,563.378,40.745z"/>
				<path style="fill:#E8AE97;" d="M566.285,39.656c-0.325,0-0.59-0.264-0.59-0.589s0.265-0.59,0.59-0.59s0.59,0.265,0.59,0.59
					S566.611,39.656,566.285,39.656z M566.285,38.976c-0.05,0-0.09,0.041-0.09,0.09c0,0.099,0.18,0.099,0.18,0
					C566.375,39.017,566.335,38.976,566.285,38.976z"/>
				<path style="fill:#E8AE97;" d="M564.183,37.636c-0.399,0-0.725-0.325-0.725-0.725c0-0.399,0.325-0.725,0.725-0.725
					c0.399,0,0.725,0.325,0.725,0.725C564.907,37.311,564.582,37.636,564.183,37.636z M564.183,36.687
					c-0.124,0-0.225,0.101-0.225,0.225s0.101,0.225,0.225,0.225c0.124,0,0.225-0.101,0.225-0.225S564.307,36.687,564.183,36.687z"/>
				<path style="fill:#E8AE97;" d="M562.654,39.122c-0.405,0-0.735-0.33-0.735-0.735s0.33-0.735,0.735-0.735
					c0.405,0,0.735,0.33,0.735,0.735S563.059,39.122,562.654,39.122z M562.654,38.151c-0.13,0-0.235,0.105-0.235,0.235
					c0,0.13,0.105,0.235,0.235,0.235c0.13,0,0.235-0.105,0.235-0.235C562.889,38.257,562.783,38.151,562.654,38.151z"/>
				<path style="fill:#E8AE97;" d="M566.947,33.009c-0.361,0-0.655-0.294-0.655-0.655c0-0.361,0.294-0.655,0.655-0.655
					c0.361,0,0.655,0.294,0.655,0.655C567.603,32.715,567.309,33.009,566.947,33.009z M566.947,32.199
					c-0.086,0-0.155,0.069-0.155,0.155c0,0.171,0.31,0.171,0.31,0C567.103,32.268,567.033,32.199,566.947,32.199z"/>
				<path style="fill:#E8AE97;" d="M567.979,33.963c-0.378,0-0.685-0.307-0.685-0.684c0-0.378,0.307-0.685,0.685-0.685
					c0.378,0,0.685,0.307,0.685,0.685C568.663,33.657,568.357,33.963,567.979,33.963z M567.979,33.095
					c-0.102,0-0.185,0.083-0.185,0.185c0,0.101,0.083,0.184,0.185,0.184c0.102,0,0.185-0.083,0.185-0.184
					C568.163,33.178,568.08,33.095,567.979,33.095z"/>
				<path style="fill:#E8AE97;" d="M566.138,34.671c-0.358,0-0.649-0.292-0.649-0.649c0-0.358,0.291-0.649,0.649-0.649
					s0.649,0.291,0.649,0.649C566.787,34.38,566.496,34.671,566.138,34.671z M566.138,33.873c-0.082,0-0.149,0.067-0.149,0.149
					c0,0.165,0.299,0.165,0.299,0C566.287,33.94,566.22,33.873,566.138,33.873z"/>
				<path style="fill:#E8AE97;" d="M567.17,36.129c-0.4,0-0.727-0.326-0.727-0.727c0-0.4,0.326-0.726,0.727-0.726
					s0.727,0.326,0.727,0.726C567.897,35.803,567.57,36.129,567.17,36.129z M567.17,35.175c-0.125,0-0.227,0.101-0.227,0.226
					s0.102,0.227,0.227,0.227s0.227-0.102,0.227-0.227S567.295,35.175,567.17,35.175z"/>
				<path style="fill:#E8AE97;" d="M558.883,41.786c-0.369,0-0.669-0.3-0.669-0.669c0-0.369,0.3-0.669,0.669-0.669
					c0.369,0,0.669,0.3,0.669,0.669C559.552,41.486,559.252,41.786,558.883,41.786z M558.883,40.948
					c-0.093,0-0.169,0.076-0.169,0.169c0,0.187,0.338,0.187,0.338,0C559.052,41.024,558.976,40.948,558.883,40.948z"/>
				<path style="fill:#E8AE97;" d="M560.307,42.522c-0.435,0-0.789-0.354-0.789-0.789c0-0.436,0.354-0.79,0.789-0.79
					c0.436,0,0.789,0.354,0.789,0.79C561.096,42.168,560.742,42.522,560.307,42.522z M560.307,41.444
					c-0.159,0-0.289,0.13-0.289,0.29c0,0.159,0.13,0.289,0.289,0.289s0.289-0.13,0.289-0.289
					C560.596,41.574,560.466,41.444,560.307,41.444z"/>
				<path style="fill:#E8AE97;" d="M560.052,40.745c-0.386,0-0.7-0.314-0.7-0.7c0-0.386,0.314-0.7,0.7-0.7
					c0.386,0,0.699,0.314,0.699,0.7C560.751,40.431,560.438,40.745,560.052,40.745z M560.052,39.846c-0.11,0-0.2,0.09-0.2,0.2
					c0,0.11,0.09,0.2,0.2,0.2c0.109,0,0.199-0.089,0.199-0.2C560.251,39.935,560.161,39.846,560.052,39.846z"/>
				<path style="fill:#E8AE97;" d="M561.408,41.32c-0.337,0-0.611-0.274-0.611-0.611c0-0.337,0.274-0.611,0.611-0.611
					c0.337,0,0.611,0.274,0.611,0.611C562.02,41.045,561.745,41.32,561.408,41.32z M561.408,40.597c-0.062,0-0.111,0.05-0.111,0.111
					c0,0.123,0.223,0.123,0.223,0C561.52,40.647,561.47,40.597,561.408,40.597z"/>
			</g>
			<path style="fill:#EDB7A1;" d="M568.176,49.018c0-1.604-0.693-2.998-1.73-3.788c-0.561-0.427-0.837-1.133-0.837-1.838V42.79
				c0-0.19,0.154-0.345,0.345-0.345c0,0,0.972,0.209,1.181,0c0.116-0.116,0.127-0.551,0-0.654c-0.513-0.414-1.575,0.004-2.638,0.004
				c-1.062,0-2.125-0.418-2.638-0.004c-0.127,0.103-0.116,0.538,0,0.654c0.209,0.209,1.181,0,1.181,0
				c0.19,0,0.345,0.154,0.345,0.345v0.603c0,0.705-0.276,1.411-0.837,1.838c-1.037,0.79-1.73,2.184-1.73,3.788
				c0,1.998,1.659,2.942,2.552,4.255c0.103,0.151,0.081,0.561,0.048,0.862c-0.02,0.186,0.125,0.346,0.312,0.346h1.536
				c0.187,0,0.332-0.16,0.312-0.346c-0.033-0.301-0.055-0.711,0.048-0.862C566.516,51.96,568.176,51.016,568.176,49.018z"/>
		</g>
		<g>
			<path style="fill:#DEAB97;" d="M583.463,135.127l-0.494-0.072c0.031-0.218,0.715-5.378-4.31-7.697
				c-2.494-1.151-4.299-1.221-5.892-1.282c-1.665-0.064-3.103-0.12-4.568-1.567c-2.714-2.68-5.351-11.965-5.461-12.359l0.48-0.136
				c0.027,0.095,2.712,9.552,5.332,12.14c1.327,1.311,2.548,1.358,4.236,1.423c1.559,0.06,3.497,0.135,6.081,1.328
				C584.238,129.382,583.472,135.07,583.463,135.127z"/>
			<path style="fill:#EDB7A1;" d="M561.638,130.893h-11.778c-1.251,0-2.323-0.895-2.546-2.126l-2.473-13.635
				c-0.288-1.588,0.932-3.05,2.546-3.05h16.724c1.614,0,2.834,1.462,2.546,3.05l-2.473,13.635
				C563.962,129.998,562.89,130.893,561.638,130.893z"/>
			<path style="fill:#DEAB97;" d="M540.485,137.838c-2.341,0-4.137-0.847-4.17-0.863l0.219-0.45
				c0.235,0.115,5.854,2.752,10.02-1.932c2.217-2.495,1.763-6.705,1.323-10.778c-0.398-3.694-0.81-7.514,0.826-10.008
				c1.179-1.797,2.511-2.796,3.959-2.97c1.859-0.221,3.201,1.009,3.258,1.062l-0.342,0.365c-0.012-0.011-1.232-1.124-2.862-0.93
				c-1.293,0.157-2.502,1.082-3.595,2.747c-1.538,2.344-1.153,5.907-0.747,9.68c0.451,4.181,0.918,8.503-1.447,11.164
				C544.89,137.217,542.488,137.838,540.485,137.838z"/>
			<path style="fill:#DEAB97;" d="M541.123,127.154c-0.256-4.936,1.206-12.043,5.018-15.982c1.662-1.718,3.531-2.578,5.607-2.53
				c4.666,0.089,5.384,3.357,5.391,3.39l-0.49,0.101c-0.024-0.119-0.66-2.91-4.91-2.991c-1.884-0.05-3.675,0.764-5.238,2.377
				c-3.543,3.661-5.136,10.623-4.877,15.608L541.123,127.154z"/>
			<path style="fill:#DEAB97;" d="M531.158,116.076c-0.006-0.187-0.106-4.61,2.803-6.687c1.506-1.074,3.481-0.782,5.392-0.498
				c1.853,0.276,3.769,0.559,5.32-0.347c1.183-0.691,1.927-2.199,2.646-3.656c0.812-1.645,1.579-3.198,2.951-3.643
				c0.784-0.256,1.67-0.111,2.705,0.435c4.917,2.595,5.894,10.054,5.934,10.371l-0.496,0.062c-0.01-0.075-0.986-7.518-5.67-9.99
				c-0.912-0.481-1.673-0.613-2.318-0.402c-1.172,0.379-1.894,1.841-2.657,3.388c-0.752,1.523-1.53,3.099-2.843,3.866
				c-1.703,0.996-3.708,0.698-5.646,0.41c-1.898-0.282-3.687-0.548-5.027,0.411c-2.689,1.92-2.595,6.222-2.594,6.265
				L531.158,116.076z"/>
			<path style="fill:#DEAB97;" d="M560.662,112.119l-0.494-0.074c0.008-0.057,0.921-5.656,8.174-6.614
				c4.125-0.543,5.409,0.394,6.896,1.481c1.141,0.833,2.433,1.778,5.323,2.298l-0.088,0.492c-3.005-0.541-4.347-1.522-5.53-2.387
				c-1.458-1.066-2.61-1.909-6.535-1.389C561.54,106.834,560.695,111.904,560.662,112.119z"/>
			<path style="fill:#DEAB97;" d="M576.469,122.832c-0.952-0.558-1.242-1.432-1.643-2.642c-0.508-1.53-1.204-3.626-3.685-6.418
				c-4.236-4.763-9.103-1.618-9.309-1.482l-0.277-0.416c0.054-0.037,5.434-3.526,9.959,1.566c2.55,2.868,3.265,5.021,3.786,6.593
				c0.381,1.147,0.632,1.905,1.421,2.368L576.469,122.832z"/>
			<g>
				<path style="fill:#DEA38C;" d="M560.159,105.103c0.61,0.61,0.61,1.6,0,2.211c-0.611,0.61-1.763,1.817-2.373,1.207
					c-0.611-0.61-0.448-2.807,0.162-3.417C558.559,104.492,559.549,104.492,560.159,105.103z"/>
				<path style="fill:#DEA38C;" d="M557.115,107.367c-0.3,0.639-2.467,0.646-3.106,0.346c-0.64-0.3-0.915-1.061-0.615-1.701
					c0.3-0.639,1.061-0.915,1.701-0.615C555.734,105.697,557.415,106.728,557.115,107.367z"/>
				<path style="fill:#DEA38C;" d="M557.086,102.318c-0.3,0.64-0.88,2.222-1.52,1.922c-0.639-0.3-1.096-2.369-0.796-3.008
					c0.3-0.639,1.061-0.915,1.701-0.615C557.111,100.917,557.386,101.679,557.086,102.318z"/>
				<path style="fill:#DEA38C;" d="M554.605,103.585c-0.125,0.695-2.561,1.384-3.257,1.259c-0.695-0.125-1.157-0.79-1.032-1.485
					s0.79-1.157,1.485-1.032C552.497,102.452,554.73,102.89,554.605,103.585z"/>
				<path style="fill:#DEA38C;" d="M552.421,99.032c0.184,0.682,0.173,2.292-0.509,2.475c-0.682,0.184-1.776-1.128-1.96-1.81
					c-0.184-0.682,0.22-1.384,0.902-1.568C551.535,97.946,552.237,98.35,552.421,99.032z"/>
				<path style="fill:#DEA38C;" d="M542.527,119.187c0.624-0.331,2.36,0.965,2.692,1.589c0.331,0.624,0.094,1.398-0.53,1.729
					c-0.624,0.331-1.398,0.094-1.729-0.53S541.903,119.518,542.527,119.187z"/>
				<path style="fill:#DEA38C;" d="M538.922,123.242c0.624-0.331,2.039-1.248,2.37-0.624c0.331,0.624-0.546,2.552-1.17,2.883
					c-0.624,0.331-1.398,0.094-1.729-0.53C538.061,124.347,538.298,123.573,538.922,123.242z"/>
				<path style="fill:#DEA38C;" d="M541.666,123.718c0.518-0.481,2.879,0.432,3.36,0.949c0.481,0.517,0.451,1.327-0.067,1.807
					c-0.518,0.481-1.327,0.451-1.807-0.067C542.671,125.891,541.149,124.199,541.666,123.718z"/>
				<path style="fill:#DEA38C;" d="M579.758,130.758c0.624-0.331,2.038-1.248,2.37-0.624c0.331,0.624-0.546,2.552-1.17,2.883
					c-0.624,0.331-1.398,0.094-1.729-0.53S579.134,131.09,579.758,130.758z"/>
				<path style="fill:#DEA38C;" d="M583.122,131.408c0.517-0.481,2.879,0.432,3.36,0.949c0.481,0.518,0.451,1.327-0.067,1.807
					c-0.517,0.481-1.327,0.451-1.807-0.067C584.127,133.581,582.604,131.889,583.122,131.408z"/>
				<path style="fill:#DEA38C;" d="M539.659,128.671c0.263-0.656,1.238-1.936,1.894-1.674c0.656,0.262,0.743,1.968,0.481,2.624
					c-0.262,0.656-1.007,0.974-1.662,0.712S539.397,129.327,539.659,128.671z"/>
				<path style="fill:#DEA38C;" d="M581.217,136.719c0.263-0.656,1.238-1.936,1.894-1.674c0.656,0.262,0.743,1.968,0.481,2.624
					c-0.262,0.656-1.007,0.974-1.663,0.712S580.955,137.374,581.217,136.719z"/>
				<path style="fill:#DEA38C;" d="M548.726,102.853c-0.3,0.639-2.085,1.284-2.725,0.984c-0.639-0.3-0.915-1.061-0.615-1.701
					c0.3-0.639,1.061-0.915,1.701-0.615C547.727,101.82,549.026,102.213,548.726,102.853z"/>
				<path style="fill:#DEA38C;" d="M549.406,107.94c-0.63,0.319-1.4,0.066-1.718-0.564c-0.319-0.63-0.501-2.392,0.129-2.71
					c0.63-0.319,1.835,0.926,2.153,1.556C550.289,106.852,550.037,107.622,549.406,107.94z"/>
				<path style="fill:#DEA38C;" d="M545.503,108.078c-0.3,0.64-2.012,0.591-2.651,0.291c-0.64-0.3-0.915-1.061-0.615-1.701
					c0.3-0.64,1.061-0.915,1.701-0.615C544.577,106.354,545.803,107.439,545.503,108.078z"/>
				<path style="fill:#DEA38C;" d="M541.312,111.604c-0.3,0.639-1.061,0.915-1.701,0.615c-0.64-0.3-0.915-1.061-0.615-1.701
					c0.3-0.64,1.829-1.425,2.468-1.125C542.104,109.693,541.612,110.965,541.312,111.604z"/>
				<path style="fill:#DEA38C;" d="M580.825,106.776c0.108,0.857-0.498,1.639-1.355,1.747c-0.857,0.108-2.506,0.355-2.615-0.501
					c-0.108-0.856,1.367-2.492,2.223-2.6C579.934,105.313,580.716,105.92,580.825,106.776z"/>
				<path style="fill:#DEA38C;" d="M573.343,105.858c-0.126-0.695,1.638-1.954,2.333-2.08c0.695-0.125,1.36,0.336,1.486,1.031
					c0.125,0.695-0.336,1.36-1.031,1.486C575.435,106.421,573.468,106.553,573.343,105.858z"/>
				<path style="fill:#DEA38C;" d="M580.511,127.922c-0.125-0.695,1.638-1.954,2.333-2.08c0.695-0.126,1.36,0.336,1.486,1.031
					c0.125,0.695-0.336,1.36-1.031,1.486C582.604,128.484,580.636,128.617,580.511,127.922z"/>
				<path style="fill:#DEA38C;" d="M577.789,111.358c-0.184-0.682-0.763-2.265-0.081-2.449s2.366,1.101,2.55,1.783
					s-0.219,1.384-0.901,1.568C578.675,112.443,577.973,112.04,577.789,111.358z"/>
				<path style="fill:#DEA38C;" d="M571.919,128.459c-0.184-0.682-0.763-2.265-0.081-2.449s2.366,1.101,2.55,1.783
					c0.184,0.682-0.219,1.384-0.901,1.568S572.103,129.141,571.919,128.459z"/>
				<path style="fill:#DEA38C;" d="M568.166,105.817c0.504-0.495,2.89,0.351,3.385,0.855c0.495,0.504,0.488,1.314-0.016,1.809
					c-0.504,0.495-1.314,0.488-1.809-0.016C569.232,107.961,567.662,106.312,568.166,105.817z"/>
				<path style="fill:#DEA38C;" d="M573.354,109.202c-0.088-0.701,0.146-2.293,0.846-2.381c0.701-0.088,1.604,1.362,1.692,2.063
					c0.088,0.701-0.409,1.34-1.11,1.428C574.081,110.4,573.442,109.903,573.354,109.202z"/>
				<path style="fill:#DEA38C;" d="M576.56,129.327c-0.088-0.701,0.146-2.293,0.846-2.381c0.701-0.088,1.604,1.362,1.691,2.063
					c0.088,0.701-0.409,1.34-1.11,1.428C577.288,130.524,576.648,130.027,576.56,129.327z"/>
				<path style="fill:#DEA38C;" d="M582.121,111.315c-0.657-0.258-1.944-1.225-1.686-1.882c0.258-0.657,1.963-0.757,2.621-0.499
					c0.658,0.258,0.981,1,0.723,1.658C583.521,111.25,582.779,111.574,582.121,111.315z"/>
				<path style="fill:#DEA38C;" d="M563.614,107.333c0.454-0.541,2.344-0.706,2.886-0.252c0.541,0.454,0.612,1.261,0.158,1.802
					s-1.26,0.612-1.802,0.158C564.315,108.587,563.16,107.874,563.614,107.333z"/>
				<path style="fill:#DEA38C;" d="M572.729,102.724c0.508,0.491,0.522,1.3,0.031,1.808c-0.491,0.508-2.095,1.258-2.602,0.768
					c-0.508-0.491,0.272-2.037,0.763-2.545C571.412,102.247,572.221,102.233,572.729,102.724z"/>
				<path style="fill:#DEA38C;" d="M573.397,110.95c0.235,0.666-0.114,1.397-0.779,1.632c-0.666,0.235-2.436,0.191-2.671-0.475
					c-0.235-0.666,1.153-1.701,1.819-1.936C572.431,109.935,573.162,110.284,573.397,110.95z"/>
				<path style="fill:#DEA38C;" d="M574.695,118.698c0.305-0.637,2.473-0.624,3.109-0.318c0.637,0.306,0.905,1.069,0.6,1.706
					c-0.305,0.637-1.069,0.905-1.706,0.6C576.062,120.38,574.39,119.334,574.695,118.698z"/>
				<path style="fill:#DEA38C;" d="M573.276,122.122c0.456-0.539,1.43-1.916,1.969-1.459c0.539,0.456,0.44,2.572-0.016,3.112
					c-0.456,0.539-1.263,0.606-1.802,0.15C572.887,123.468,572.82,122.661,573.276,122.122z"/>
				<path style="fill:#DEA38C;" d="M570.529,113.019c0.661,0.248,0.902,2.768,0.655,3.43c-0.248,0.661-0.985,0.997-1.646,0.749
					c-0.661-0.248-0.997-0.985-0.749-1.646C569.036,114.89,569.867,112.771,570.529,113.019z"/>
				<path style="fill:#DEA38C;" d="M571.558,118.872c0.339-0.619,1.461-1.773,2.081-1.434c0.619,0.339,0.502,2.043,0.162,2.663
					c-0.339,0.619-1.117,0.847-1.736,0.507C571.446,120.269,571.219,119.491,571.558,118.872z"/>
				<path style="fill:#DEA38C;" d="M576.92,125.06c-0.382-0.594-0.858-2.132-0.264-2.513c0.594-0.382,2.034,0.537,2.416,1.131
					c0.382,0.594,0.209,1.385-0.385,1.767S577.302,125.655,576.92,125.06z"/>
				<path style="fill:#DEA38C;" d="M576.72,115.021c0.124,0.695-0.339,1.36-1.034,1.484c-0.695,0.124-2.435-0.208-2.559-0.903
					c-0.124-0.695,1.414-1.491,2.109-1.615C575.931,113.862,576.595,114.325,576.72,115.021z"/>
				<path style="fill:#DEA38C;" d="M565.351,106.14c-0.562-0.428-0.152-2.091,0.277-2.653c0.428-0.562,1.231-0.67,1.792-0.241
					c0.562,0.428,0.669,1.231,0.241,1.793C567.233,105.6,565.913,106.568,565.351,106.14z"/>
				<path style="fill:#DEA38C;" d="M569.752,125.185c-0.562-0.428-0.152-2.091,0.277-2.653c0.428-0.562,1.231-0.669,1.792-0.241
					c0.562,0.428,0.669,1.231,0.241,1.792C571.634,124.645,570.314,125.614,569.752,125.185z"/>
				<path style="fill:#DEA38C;" d="M560.79,106.722c-0.06-0.704,0.463-1.323,1.167-1.382c0.704-0.06,1.322,0.463,1.382,1.166
					c0.06,0.704-0.873,2.148-1.577,2.207C561.058,108.773,560.85,107.425,560.79,106.722z"/>
				<path style="fill:#DEA38C;" d="M539.009,108.891c-0.499,0.499-1.991-0.465-2.491-0.964c-0.499-0.499-0.499-1.309,0-1.809
					c0.499-0.499,1.309-0.499,1.809,0C538.827,106.617,539.509,108.391,539.009,108.891z"/>
				<path style="fill:#DEA38C;" d="M536.83,111.604c-0.3,0.639-1.061,0.915-1.701,0.615c-0.639-0.3-0.915-1.061-0.615-1.701
					c0.3-0.64,1.679-1.788,2.318-1.488C537.472,109.33,537.13,110.965,536.83,111.604z"/>
				<path style="fill:#DEA38C;" d="M534.276,109.328c-0.3,0.64-2.018,0.851-2.657,0.551c-0.639-0.3-0.915-1.061-0.615-1.701
					c0.3-0.64,1.061-0.915,1.701-0.615C533.344,107.863,534.576,108.688,534.276,109.328z"/>
				<path style="fill:#DEA38C;" d="M532.116,111.845c0.161,0.688-1.22,2.028-1.908,2.189c-0.688,0.161-1.376-0.267-1.536-0.954
					c-0.161-0.688,0.267-1.376,0.954-1.536C530.314,111.383,531.955,111.158,532.116,111.845z"/>
				<path style="fill:#DEA38C;" d="M543.926,115.265c0.63-0.32,1.749,1.059,2.069,1.688c0.32,0.63,0.069,1.4-0.56,1.72
					c-0.63,0.32-1.399,0.069-1.72-0.561C543.395,117.483,543.296,115.585,543.926,115.265z"/>
				<path style="fill:#DEA38C;" d="M547.091,110.989c0.697-0.112,1.341,1.544,1.453,2.241c0.112,0.697-0.363,1.353-1.06,1.465
					c-0.697,0.112-1.353-0.363-1.465-1.06C545.907,112.938,546.394,111.101,547.091,110.989z"/>
				<path style="fill:#DEA38C;" d="M544.738,113.209c-0.3,0.639-2.018,0.851-2.657,0.551c-0.639-0.3-0.915-1.061-0.615-1.701
					c0.3-0.64,1.061-0.915,1.701-0.615C543.806,111.744,545.038,112.569,544.738,113.209z"/>
				<path style="fill:#DEA38C;" d="M542.662,117.012c0.161,0.688-1.22,2.029-1.908,2.189c-0.688,0.161-1.376-0.267-1.536-0.954
					c-0.161-0.688,0.267-1.376,0.954-1.536C540.86,116.55,542.501,116.325,542.662,117.012z"/>
				<path style="fill:#DEA38C;" d="M548.784,125.991c0.624-0.331,2.36,0.965,2.692,1.589c0.331,0.624,0.094,1.398-0.53,1.729
					c-0.624,0.331-1.398,0.094-1.729-0.53C548.886,128.156,548.161,126.322,548.784,125.991z"/>
				<path style="fill:#DEA38C;" d="M547.849,133.756c0.073-0.702,0.101-2.388,0.804-2.315c0.703,0.073,1.813,1.877,1.74,2.58
					c-0.073,0.702-0.702,1.213-1.404,1.14C548.286,135.087,547.776,134.458,547.849,133.756z"/>
				<path style="fill:#DEA38C;" d="M548.107,121.066c0.45-0.545,2.027,0.273,2.571,0.722c0.545,0.45,0.622,1.256,0.172,1.8
					c-0.45,0.545-1.256,0.622-1.8,0.172C548.505,123.312,547.657,121.611,548.107,121.066z"/>
				<path style="fill:#DEA38C;" d="M548.337,115.645c0.577-0.407,1.883,0.797,2.291,1.374c0.407,0.577,0.269,1.375-0.308,1.782
					c-0.577,0.407-1.375,0.27-1.782-0.308C548.131,117.916,547.76,116.052,548.337,115.645z"/>
				<path style="fill:#DEA38C;" d="M565.865,120.045c0.02-0.706,1.767-1.03,2.473-1.009c0.706,0.02,1.262,0.609,1.242,1.315
					c-0.02,0.706-0.609,1.262-1.315,1.242C567.559,121.572,565.845,120.751,565.865,120.045z"/>
				<path style="fill:#DEA38C;" d="M547.823,122.566c0.502,0.497,0.127,2.186-0.369,2.689c-0.496,0.502-1.306,0.507-1.809,0.011
					s-0.507-1.306-0.011-1.809C546.131,122.955,547.32,122.07,547.823,122.566z"/>
				<path style="fill:#DEA38C;" d="M568.103,124.22c0.674,0.21,1.12,1.882,0.91,2.557c-0.209,0.674-0.926,1.051-1.601,0.842
					c-0.674-0.209-1.052-0.926-0.842-1.601C566.78,125.344,567.428,124.011,568.103,124.22z"/>
				<path style="fill:#DEA38C;" d="M548.396,128.168c0.161,0.688-1.22,2.028-1.908,2.189c-0.688,0.161-1.376-0.267-1.536-0.954
					s0.267-1.376,0.954-1.536C546.593,127.705,548.235,127.48,548.396,128.168z"/>
				<path style="fill:#DEA38C;" d="M534.357,115.315c-0.569,0.418-1.37,0.295-1.788-0.275c-0.418-0.569-0.941-2.084-0.371-2.502
					c0.569-0.418,2.016,0.42,2.433,0.989C535.049,114.097,534.926,114.897,534.357,115.315z"/>
				<path style="fill:#DEA38C;" d="M532.441,118.788c-0.3,0.639-1.061,0.915-1.701,0.615c-0.639-0.3-0.915-1.061-0.615-1.701
					c0.3-0.639,0.733-1.888,1.372-1.588C532.137,116.414,532.74,118.148,532.441,118.788z"/>
				<path style="fill:#DEA38C;" d="M542.545,139.798c-0.141,0.692-0.816,1.139-1.508,0.998c-0.692-0.141-1.139-0.816-0.998-1.508
					c0.141-0.692,1.442-1.815,2.134-1.674C542.865,137.755,542.686,139.106,542.545,139.798z"/>
				<path style="fill:#DEA38C;" d="M547.566,132.715c0.131,0.694-1.507,1.382-2.201,1.513c-0.694,0.131-1.363-0.326-1.493-1.02
					c-0.131-0.694,0.326-1.363,1.02-1.493C545.586,131.583,547.435,132.021,547.566,132.715z"/>
				<path style="fill:#DEA38C;" d="M547.145,137.966c-0.131,0.694-0.8,1.15-1.494,1.02c-0.694-0.131-1.15-0.8-1.019-1.494
					c0.131-0.694,1.18-2.15,1.874-2.019C547.2,135.603,547.276,137.272,547.145,137.966z"/>
				<path style="fill:#DEA38C;" d="M543.868,136.814c-0.546,0.448-2.188-0.102-2.635-0.648c-0.448-0.546-0.368-1.352,0.178-1.8
					c0.546-0.448,1.352-0.368,1.8,0.178C543.659,135.091,544.414,136.366,543.868,136.814z"/>
				<path style="fill:#DEA38C;" d="M539.672,137.492c-0.677,0.203-2.1-1.093-2.302-1.77c-0.203-0.677,0.181-1.389,0.858-1.592
					c0.677-0.203,1.389,0.181,1.592,0.858C540.022,135.665,540.349,137.289,539.672,137.492z"/>
				<path style="fill:#DEA38C;" d="M536.549,140.52c-0.6-0.373-0.784-1.161-0.411-1.761c0.373-0.6,1.584-1.65,2.184-1.277
					c0.6,0.373,0.362,2.027-0.011,2.627C537.937,140.709,537.149,140.893,536.549,140.52z"/>
				<path style="fill:#DEA38C;" d="M534.417,138.791c-0.705-0.04-1.244-0.644-1.204-1.349c0.04-0.705,0.644-1.244,1.349-1.204
					c0.705,0.04,2.025-0.023,1.985,0.682C536.507,137.624,535.122,138.831,534.417,138.791z"/>
			</g>
		</g>
		<g>
			<polygon style="fill:#DEAB97;" points="575.929,84.021 579.934,94.276 577.26,93.261 574.704,87.981 			"/>
			<polygon style="fill:#EDB7A1;" points="574.68,95.983 559.906,92.095 564.057,73.663 578.832,77.551 			"/>
			<polygon style="fill:#EDC9BB;" points="573.905,94.354 561.287,91.034 564.833,75.292 577.45,78.612 			"/>
		</g>
		<g>
			<path style="fill:#EDB7A1;" d="M363.791,51.406v30.782c0,1.334-1.082,2.416-2.416,2.416h-39.721
				c-1.334,0-2.416-1.082-2.416-2.416V51.406c0-1.334,1.082-2.416,2.416-2.416h39.721C362.709,48.99,363.791,50.072,363.791,51.406z
				"/>
			<path style="fill:#EDC9BB;" d="M359.276,55.254V78.34c0,1.467-1.189,2.656-2.656,2.656h-30.213c-1.467,0-2.656-1.189-2.656-2.656
				V55.254c0-1.467,1.189-2.656,2.656-2.656h30.213C358.087,52.599,359.276,53.788,359.276,55.254z"/>
			<path style="fill:#FFE7DE;" d="M356.653,57.022v19.549c0,1.36-1.103,2.463-2.463,2.463h-25.352c-1.361,0-2.463-1.103-2.463-2.463
				V57.022c0-1.36,1.103-2.463,2.463-2.463h25.352C355.551,54.559,356.653,55.662,356.653,57.022z"/>
		</g>
		<g>
			<path style="fill:#EDB7A1;" d="M433.996,59.326h-26.283c-1.334,0-2.416-1.082-2.416-2.416V22.817
				c0-1.334,1.082-2.416,2.416-2.416h26.283c1.334,0,2.416,1.082,2.416,2.416V56.91C436.412,58.244,435.33,59.326,433.996,59.326z"
				/>
			<path style="fill:#EDC9BB;" d="M430.604,55.382h-19.498c-1.467,0-2.656-1.189-2.656-2.656V27.001
				c0-1.467,1.189-2.656,2.656-2.656h19.498c1.467,0,2.656,1.189,2.656,2.656v25.725C433.259,54.193,432.07,55.382,430.604,55.382z"
				/>
			<path style="fill:#FFE7DE;" d="M427.992,52.372h-14.276c-1.36,0-2.463-1.103-2.463-2.463V29.817c0-1.36,1.103-2.463,2.463-2.463
				h14.276c1.36,0,2.463,1.103,2.463,2.463v20.092C430.456,51.27,429.353,52.372,427.992,52.372z"/>
		</g>
		<g>
			<path style="fill:#FFFFFF;" d="M440.293,87.12c0.427-1.607,1.489-2.915,2.947-3.836c-1.701-1.617-2.747-3.804-2.747-6.215
				c0-4.975,4.448-9.008,9.934-9.008c1.257,0,2.459,0.214,3.566,0.6c1.197-4.12,5.432-7.165,10.473-7.165
				c4.947,0,9.115,2.935,10.4,6.939c1.709-1.224,3.891-1.959,6.269-1.959c5.26,0,9.561,3.592,9.902,8.134
				c5.498,1.931,8.94,6.667,7.794,10.979c-0.949,3.57-4.761,5.796-9.288,5.822c0.373,0.758,0.578,1.568,0.578,2.409
				c0,4.277-5.216,7.744-11.649,7.744c-3.166,0-6.035-0.841-8.134-2.203c-1.756,1.718-4.273,2.802-7.079,2.802
				c-3.659,0-6.839-1.833-8.46-4.528c-1.928,0.474-4.146,0.468-6.395-0.144C442.806,95.97,439.175,91.326,440.293,87.12z"/>
			<path style="fill:#EDB7A1;" d="M467,82.331l4.01,3.243l-4.569,9.413c2.729-1.74,18.307-12.02,14.578-17.663
				c-3.107-4.702-8.807-2.91-11.302-2.003L467,82.331z"/>
			<path style="fill:#EDB7A1;" d="M469.076,85.817l-3.518-3.7l3.352-6.901c-2.965-2.614-9.262-7.066-13.109-1.827
				c-3.987,5.431,9.615,21.635,9.692,21.713L469.076,85.817z"/>
			<ellipse style="fill:#FFFFFF;" cx="460.197" cy="110.888" rx="7.45" ry="6.298"/>
			<ellipse style="fill:#FFFFFF;" cx="449.463" cy="121.874" rx="4.47" ry="4.011"/>
		</g>
		<g>
			<ellipse style="fill:#FFFFFF;" cx="271.877" cy="111.753" rx="7.45" ry="6.298"/>
			<ellipse style="fill:#FFFFFF;" cx="282.003" cy="122.129" rx="4.47" ry="4.011"/>
			<path style="fill:#FFFFFF;" d="M290.16,125.13c0,1.562,1.411,2.828,3.152,2.828c1.741,0,3.152-1.266,3.152-2.828
				c0-1.562-1.411-2.828-3.152-2.828C291.571,122.302,290.16,123.568,290.16,125.13z"/>
			<path style="fill:#FFFFFF;" d="M215.233,93.767c0.439-1.651,1.53-2.995,3.028-3.941c-1.747-1.661-2.822-3.908-2.822-6.385
				c0-5.111,4.569-9.254,10.205-9.254c1.292,0,2.526,0.22,3.663,0.617c1.23-4.233,5.58-7.361,10.759-7.361
				c5.083,0,9.365,3.015,10.684,7.128c1.756-1.258,3.998-2.013,6.441-2.013c5.404,0,9.823,3.691,10.172,8.357
				c5.648,1.984,9.184,6.849,8.007,11.279c-0.974,3.667-4.891,5.954-9.542,5.981c0.383,0.779,0.594,1.611,0.594,2.475
				c0,4.394-5.358,7.956-11.968,7.956c-3.252,0-6.2-0.864-8.357-2.263c-1.804,1.765-4.39,2.879-7.273,2.879
				c-3.759,0-7.026-1.883-8.691-4.652c-1.981,0.487-4.26,0.48-6.569-0.148C217.815,102.859,214.084,98.088,215.233,93.767z"/>
			<path style="fill:#EDB7A1;" d="M268.191,91.004c-1.616-2.265-0.094-5.295-0.995-7.789c-1.046-2.894-4.169-2.559-6.533-1.709
				c-1.16,0.417-2.336,0.777-3.52,1.035c-0.047-0.37-0.117-0.74-0.223-1.107c-0.915-3.154-4.23-5.303-7.495-4.647
				c-0.018,0.004-0.035,0.01-0.052,0.014c0.082-0.789,0.074-1.601-0.063-2.424c-0.043-0.256-0.351-0.471-0.603-0.459
				c-2.635,0.128-4.076,3.003-3.473,5.384c-0.39,0.4-0.756,0.828-1.099,1.274c-0.111-1.591-0.796-3.159-2.343-3.82
				c-2.583-1.103-5.056,0.965-5.933,3.287c-0.393,1.039-0.541,2.082,0.172,2.889c-0.402-0.106-0.807-0.182-1.21-0.24
				c-0.471-0.544-1.034-1.005-1.685-1.312c-2.462-1.162-5.028,0.234-7.037,1.657c-1.15,0.814-2.254,1.694-3.301,2.636
				c-0.887,0.798-2.1,1.734-2.244,3.01c-0.259,2.291,2.534,2.775,4.192,3c0.929,0.126,1.876,0.216,2.826,0.268
				c1.15,1.715,3.943,0.788,5.368-0.051c0.137-0.081,0.266-0.175,0.398-0.265c0.155-0.029,0.307-0.066,0.461-0.099
				c-2.572,1.884-4.256,4.875-4.39,8.258c-0.008,0.201,0.121,0.453,0.31,0.54c1.997,0.921,4.147,0.573,5.941-0.578
				c0.158,0.647,0.466,1.251,0.959,1.732c1.541,1.501,4.738,1.432,6.724,1.454c2.299,0.025,4.63-0.489,6.365-2.083
				c0.41-0.377,0.749-0.803,1.021-1.262c1.29-0.253,2.378-1.103,3.252-2.081c-0.298,1.279-0.543,3.369,0.298,4.169
				c1.042,0.991,2.504-0.196,3.134-1.036c0.525-0.699,0.97-1.508,1.376-2.344c1.223,0.906,2.923,0.515,4.031-0.387
				c1.199-0.975,2.314-3.064,2.384-4.628c0.073-1.619-2.174-1.845-3.353-1.886c-0.182-0.006-0.362-0.002-0.542,0.004
				c0.146-0.781,0.2-1.557,0.082-2.269c-0.269-1.623-2.044-2.103-3.465-2.253c-0.086-0.009-0.173-0.01-0.259-0.016
				c-0.035-0.388-0.074-0.775-0.151-1.154c-0.088-0.433-0.221-0.839-0.391-1.219c0.029-0.204,0.05-0.41,0.062-0.617
				c0.919-0.182,1.827-0.43,2.714-0.759c1.605-0.594,4.112-1.861,5.584-0.361c1.153,1.175,0.754,3.27,0.711,4.749
				c-0.042,1.445,0.046,2.91,0.912,4.125C267.575,92.284,268.66,91.661,268.191,91.004z M252.893,88.004
				c-0.828,0.472-1.544,1.074-2.159,1.76c-0.522,0.12-1.061,0.18-1.607,0.175c-0.706-1.278-1.88-2.11-3.232-2.592
				c-0.001-0.232,0.024-0.479,0.079-0.74c0.322-1.544,1.393-2.767,2.738-3.524c1.567,0.73,3.393,1.044,5.002,1.099
				c0.596,0.02,1.186-0.005,1.774-0.055c0.132,0.18,0.253,0.366,0.353,0.562c-0.184,0.943-0.587,1.796-1.141,2.532
				C254.07,87.414,253.463,87.679,252.893,88.004z M249.919,98.43c-0.178-0.015-0.359-0.06-0.539-0.121
				c-0.099-1.231-0.014-2.489,0.27-3.686c0.363,0.674,0.59,1.415,0.603,2.201C250.263,97.402,250.134,97.936,249.919,98.43z
				 M238.949,95.632c1.664-0.471,3.417,0.362,4.496,1.646c-1.664,1.148-3.817,1.098-5.398,0.094
				C238.402,96.824,238.702,96.241,238.949,95.632z M237.984,94.648c-0.549,0.244-1.042,0.623-1.454,1.152
				c-0.206-0.36-0.367-0.759-0.475-1.194c-0.285-1.155-0.183-2.197,0.194-3.093c0.789-0.34,1.646-0.59,2.554-0.736
				c-0.055,0.358-0.111,0.701-0.156,1.014C238.509,92.745,238.301,93.719,237.984,94.648z M245.82,80.638
				c0.106,0.173,0.221,0.338,0.343,0.496c-0.516,0.551-1.121,1.018-1.797,1.383c0.332-0.491,0.682-0.969,1.058-1.419
				C245.552,80.944,245.684,80.791,245.82,80.638z M246.966,80.104c-0.09-0.13-0.176-0.261-0.249-0.4
				c0.266-0.251,0.546-0.484,0.838-0.699C247.388,79.388,247.192,79.756,246.966,80.104z M243.467,84.207
				c1.361-0.433,2.562-1.201,3.523-2.212c0.166,0.141,0.339,0.275,0.519,0.4c-1.556,1.091-2.769,2.755-2.883,4.605
				c-0.678-0.133-1.374-0.194-2.058-0.196c0.047-0.383,0.12-0.755,0.225-1.106c0.047-0.155,0.116-0.302,0.171-0.455
				C243.152,84.908,243.317,84.56,243.467,84.207z M238.792,89.548c0.062-0.04,0.125-0.076,0.187-0.117
				c-0.003,0.033-0.006,0.065-0.009,0.098C238.911,89.536,238.85,89.541,238.792,89.548z M240.172,88.905
				c0.008-0.126,0.015-0.252,0.022-0.379c0.101-0.085,0.199-0.175,0.298-0.263c0.244-0.057,0.492-0.102,0.744-0.134
				c0.011,0.437,0.055,0.869,0.135,1.293c-0.421-0.011-0.834-0.003-1.242,0.016C240.141,89.26,240.161,89.083,240.172,88.905z
				 M242.519,88.044c0.738-0.005,1.489,0.064,2.208,0.239c0.012,0.054,0.017,0.107,0.031,0.162c0.195,0.748,0.572,1.31,1.06,1.732
				c-0.995-0.334-2.045-0.548-3.098-0.66C242.605,89.034,242.539,88.538,242.519,88.044z M248.304,91.153
				c0.03,0.09,0.054,0.18,0.076,0.271c-0.169-0.116-0.34-0.229-0.518-0.333C248.008,91.116,248.155,91.138,248.304,91.153z
				 M246.567,89.046c0.197,0.125,0.383,0.264,0.559,0.415C246.919,89.342,246.728,89.208,246.567,89.046z M247.364,92.242
				c0.315,0.193,0.612,0.421,0.895,0.666c-0.227,0.382-0.645,0.632-1.336,0.592c-1.848-0.105-3.087-1.243-3.771-2.73
				C244.693,91.012,246.161,91.505,247.364,92.242z M249.634,91.295c-0.009-0.041-0.014-0.085-0.024-0.126
				c0.034-0.002,0.068-0.005,0.103-0.008C249.687,91.206,249.661,91.251,249.634,91.295z M250.505,82.411
				c1.232-0.253,2.517-0.108,3.611,0.512C252.917,82.946,251.712,82.785,250.505,82.411z M249.758,77.992
				c3.13-0.577,5.731,1.847,6.14,4.76c-1.561-1.51-3.939-2.104-6.183-1.44c-0.325,0.096-0.65,0.223-0.97,0.371
				c-0.334-0.193-0.651-0.418-0.945-0.667c0.603-0.854,1.051-1.822,1.325-2.857C249.331,78.089,249.541,78.032,249.758,77.992z
				 M248.171,75.266c0.059,0.66,0.028,1.318-0.082,1.958c-0.609,0.273-1.191,0.638-1.74,1.07
				C246.311,77.042,246.963,75.643,248.171,75.266z M237.682,79.246c0.686-0.958,1.77-1.645,2.985-1.494
				c2.047,0.254,2.467,2.649,2.154,4.338c-0.062,0.332-0.163,0.656-0.268,0.977c-0.023,0.045-0.049,0.09-0.072,0.135
				c-1.585,0.326-3.792,0.249-5.092-0.773C236.36,81.621,237.033,80.152,237.682,79.246z M239.889,84.542
				c0.684,0.084,1.348,0.08,1.989,0.009c-0.018,0.047-0.034,0.095-0.052,0.143c-0.382,0.664-0.832,1.289-1.344,1.845
				c-0.101,0.109-0.214,0.2-0.318,0.304c-0.086-0.658-0.289-1.289-0.72-1.862c-0.173-0.23-0.37-0.437-0.583-0.628
				C239.205,84.435,239.551,84.5,239.889,84.542z M237.77,85.091c0.75,0.553,1.09,1.386,1.212,2.316
				c-1.219,0.47-2.284,1.219-3.056,2.197c-0.258,0.103-0.522,0.19-0.786,0.278c0.663-0.928,1.093-2.012,1.135-3.169
				c0.032-0.875-0.164-1.761-0.528-2.572C236.486,84.351,237.185,84.66,237.77,85.091z M230.131,90.76
				c-0.572,0.019-1.148,0.016-1.725,0.001c-0.069-0.36-0.054-0.783-0.075-1.087c-0.066-0.975-0.114-1.989,0.146-2.942
				c0.497-1.825,2.091-2.723,3.883-2.894c0.564-0.054,1.168-0.049,1.774,0.007c0.05,0.072,0.106,0.126,0.154,0.204
				c1.475,2.342,0.475,4.958-1.498,6.432C231.913,90.635,231.022,90.73,230.131,90.76z M224.023,90.323
				c-0.652-0.115-1.732-0.279-2.065-0.934c-0.561-1.102,1.14-2.316,1.892-2.984c2.092-1.858,6.022-5.215,8.856-3.839
				c-1.892,0.089-3.826,0.776-4.857,2.456c-0.6,0.979-0.796,2.137-0.816,3.269c-0.013,0.705-0.051,1.602,0.085,2.409
				C226.079,90.628,225.042,90.502,224.023,90.323z M230.706,99.377c0.238-2.802,1.712-5.454,4.026-7.049
				c-0.056,0.353-0.088,0.717-0.081,1.097c0.025,1.351,0.469,2.586,1.206,3.582c-0.157,0.413-0.256,0.85-0.295,1.296
				C234.196,99.396,232.386,99.972,230.706,99.377z M247.365,100.948c-1.796,0.866-3.863,0.818-5.802,0.643
				c-1.609-0.146-4.048-0.084-4.646-1.955c-0.078-0.245-0.113-0.5-0.128-0.756c0.17-0.16,0.327-0.329,0.48-0.502
				c0.947,0.647,2.098,1.024,3.361,1.026c1.548,0.002,2.972-0.562,4.132-1.571c0.196-0.171,0.244-0.541,0.098-0.757
				c-1.18-1.751-3.443-2.905-5.467-2.768c0.134-0.471,0.25-0.946,0.339-1.425c0.137-0.745,0.228-1.497,0.301-2.251
				c0.554-0.036,1.114-0.038,1.673-0.008c0.451,1.203,1.231,2.284,2.391,3.108c1.154,0.82,2.855,1.348,4.255,0.844
				c-0.175,0.802-0.278,1.621-0.288,2.438c-0.007,0.567-0.143,1.72,0.286,2.173c0.2,0.212,0.503,0.328,0.826,0.402
				C248.678,100.151,248.054,100.616,247.365,100.948z M251.331,98.116c0.23-0.944,0.212-1.95-0.093-2.93
				c-0.248-0.796-0.63-1.487-1.096-2.1c0.333-0.815,0.776-1.571,1.325-2.242c0.634-0.177,1.225-0.409,1.721-0.677
				c0.872-0.471,1.623-1.106,2.237-1.845c0.333-0.085,0.671-0.149,1.013-0.187c-0.014,0.326-0.036,0.649-0.07,0.965
				c-0.229,2.097-0.952,4.14-2.071,5.926C253.666,96.034,252.59,97.482,251.331,98.116z M256.091,100.293
				c-0.226,0.317-0.532,0.441-0.918,0.372c-0.07-0.31-0.113-0.624-0.129-0.942c-0.034-0.565,0-1.135,0.107-1.691
				c0.394-2.062,1.698-3.862,3.615-4.757c0.265-0.124,0.538-0.228,0.818-0.315c-0.173,0.579-0.375,1.15-0.598,1.713
				c-0.271-0.195-0.686-0.214-0.919,0.148c-0.463,0.719-0.491,1.58-0.183,2.324c-0.057,0.118-0.114,0.237-0.172,0.354
				C257.252,98.428,256.841,99.552,256.091,100.293z M262.039,92.66c0.356,0.023,0.943,0.045,1.286,0.222
				c0.702,0.362,0.547,0.735,0.307,1.415c-0.416,1.179-0.991,2.466-2.19,3.034c-0.664,0.314-1.561,0.186-2.096-0.236
				c0.315-0.737,0.611-1.476,0.881-2.177c0.259-0.672,0.544-1.439,0.777-2.234C261.347,92.652,261.694,92.638,262.039,92.66z
				 M258.299,88.193c0.343,0.066,0.724,0.158,1.046,0.297c0.906,0.39,0.871,1.139,0.771,1.982c-0.044,0.373-0.11,0.741-0.185,1.108
				c-1.229,0.27-2.362,0.836-3.313,1.628c0.663-1.622,1.055-3.364,1.09-5.085C257.906,88.14,258.104,88.155,258.299,88.193z
				 M256.42,86.882c-0.017,0.001-0.033,0.004-0.05,0.005c0.015-0.03,0.029-0.061,0.044-0.091
				C256.417,86.825,256.418,86.854,256.42,86.882z"/>
		</g>
		<g>
			<g>
				<path style="fill:#6867F6;" d="M331.969,206.643c-2.691,1.387-11.992,10.665-23.672,8.637
					c-22.42-3.892-28.365-5.013-28.131-6.696c2.16-15.526-0.698-48.119-0.698-49.946c-0.004-11.372,2.373-14.771,4.933-16.658
					c2.399-1.769,11.945-4.72,14.59-5.401c0.909,1.994-1.004,7.977,6.448,6.856c7.005-1.057,10.11-7.24,10.279-10.227l9.326,3.396
					c3.07,1.437,9.389,2.734,11.886,8.589c2.497,5.855,1.172,13.79,0,16.695C325.634,189.885,335.139,205.01,331.969,206.643z"/>
				<path style="fill:#F2A696;" d="M317.97,125.453c-0.435,0.809-3.834,2.636-3.09,3.147l1.119,5.311
					c0.347,2.801-2.111,7.832-8.474,10.018c-5.743,1.976-8.418-2.068-9.139-3.546c-0.138-0.273-0.197-0.433-0.225-0.502
					c-0.21-0.62-0.235-1.278-0.188-1.917c0.067-1.018,0.303-1.977,0.124-2.482c-0.003-0.047-0.032-0.115-0.059-0.16
					c-0.055-0.114-0.131-0.179-0.23-0.242c-0.368-0.208-1.998,0.052-3.583-1.009c-1.094-0.791-0.996-5.556-1.121-6.936
					c-0.123-1.357-3.444-0.713-3.417-1.963c0.024-1.274,0.894-2.256,1.966-5.302c1.122-3.003-0.484-8.207-0.01-10.409
					c1.837-8.354,10.134-9.221,14.058-8.378c5.171,1.152,11.306,3.881,12.961,12.309
					C319.828,119.311,319.003,123.469,317.97,125.453z"/>
				<path style="fill:#1D1D1B;" d="M296.864,120.569c-0.283,0.638-1.029,0.926-1.667,0.643c-0.638-0.283-0.926-1.029-0.643-1.667
					c0.283-0.638,1.029-0.926,1.667-0.643C296.858,119.185,297.146,119.931,296.864,120.569z"/>
				<path style="fill:#1D1D1B;" d="M293.849,117.263c0.015-0.554,0.521-0.937,0.947-1.174c0.449-0.257,0.94-0.344,1.417-0.411
					c0.96-0.067,1.911,0.073,2.778,0.584c-0.944,0.36-1.817,0.429-2.669,0.526l-1.254,0.111
					C294.662,116.964,294.252,116.988,293.849,117.263z"/>
				<path style="fill:#362316;" d="M291.89,104.47c-0.989,1.225-2.258,6.125,1.052,5.77c3.31-0.355,7.832-2.814,9.836-1.496
					c1.169,0.769,0.619,4.211,2.321,5.371c4.121,2.81,2.895,5.111,3.679,5.814c1.439,1.29,1.169-3.979,4.736-3.799
					c2.46,0.124,3.807,1.943,1.127,5.715c-0.527,0.742-0.663,5.692,0.48,8.877c3.307-0.477,6.476-9.56,7.036-13.299
					c1.078-7.2-0.071-13.669-5.324-17.117c-8.945-5.872-14.524-2.475-18.567-1.146C294.201,100.498,293.568,102.391,291.89,104.47z"
					/>
				<path style="fill:#F29480;" d="M307.854,133.636c0.007,0.094,0.094,2.56-9.88,4.328c0.067-1.018,0.303-1.977,0.124-2.482
					c-0.003-0.047-0.032-0.115-0.059-0.16C301.013,135.08,305.748,134.78,307.854,133.636z"/>
				<path style="fill:#A7787C;" d="M294.043,130.37c0.277-0.902,0.942-1.539,1.702-1.989c0.77-0.414,1.745-0.637,2.62-0.266
					c-0.392,0.274-0.743,0.449-1.08,0.659c-0.329,0.221-0.67,0.381-0.999,0.583C295.599,129.718,294.929,130.09,294.043,130.37z"/>
				<path style="fill:#A7787C;" d="M314.442,118.811c-0.383-0.153-0.804-0.265-1.072-0.169c-0.267,0.059-0.388,0.381-0.514,0.727
					l-0.417-0.265c0.292-0.203,0.648-0.311,0.996-0.179c0.347,0.116,0.514,0.431,0.591,0.7c-0.452-0.443-0.925-0.397-1.258-0.117
					l-0.596,0.503l0.178-0.768c0.051-0.218,0.108-0.447,0.269-0.648c0.134-0.208,0.396-0.384,0.663-0.42
					C313.836,118.147,314.197,118.476,314.442,118.811z"/>
				<path style="fill:#A7787C;" d="M315.849,119.764c-0.141,0.887-0.667,1.668-1.355,2.271c-0.367,0.274-0.785,0.498-1.234,0.604
					c-0.448,0.123-0.92,0.063-1.341-0.049c0.436-0.094,0.841-0.183,1.208-0.359c0.364-0.172,0.719-0.356,1.019-0.631
					C314.792,121.109,315.294,120.449,315.849,119.764z"/>
				<g>
					<path style="fill:#5251F6;" d="M294.839,137.293l0.035,1.114c0.006,0.051-0.031,0.098-0.082,0.104
						c-0.051,0.006-0.098-0.031-0.104-0.083c0-0.005,0-0.018,0.001-0.023L294.839,137.293z"/>
					<path style="fill:#5251F6;" d="M295.167,140.67c0.166,0.738,0.349,1.467,0.637,2.151c0.074,0.175-0.009,0.376-0.184,0.45
						c-0.175,0.074-0.376-0.009-0.45-0.184c-0.004-0.009-0.008-0.02-0.011-0.03c-0.242-0.76-0.408-1.536-0.464-2.319
						c-0.01-0.132,0.09-0.246,0.221-0.256C295.036,140.475,295.142,140.557,295.167,140.67z"/>
					<path style="fill:#5251F6;" d="M296.918,144.692c0.468,0.541,1.013,0.998,1.632,1.33c0.237,0.127,0.327,0.423,0.199,0.66
						c-0.127,0.237-0.423,0.327-0.66,0.199c-0.002-0.001-0.008-0.004-0.009-0.005c-0.73-0.407-1.369-0.98-1.843-1.652
						c-0.138-0.195-0.091-0.465,0.104-0.603C296.522,144.492,296.773,144.527,296.918,144.692z"/>
					<path style="fill:#5251F6;" d="M300.569,146.641c0.717,0.092,1.435,0.071,2.185-0.007c0.3-0.031,0.568,0.187,0.599,0.486
						c0.031,0.3-0.186,0.568-0.486,0.599c-0.003,0-0.018,0.002-0.021,0.002c-0.781,0.066-1.613,0.069-2.421-0.056
						c-0.282-0.043-0.476-0.307-0.432-0.59C300.035,146.798,300.293,146.606,300.569,146.641z"/>
					<path style="fill:#5251F6;" d="M304.995,146.348l2.204-0.466l0.053-0.011c0.283-0.06,0.562,0.121,0.621,0.405
						c0.059,0.28-0.117,0.555-0.395,0.619l-2.299,0.533c-0.295,0.068-0.589-0.115-0.657-0.41c-0.068-0.295,0.115-0.589,0.41-0.657
						c0.003-0.001,0.005-0.001,0.008-0.002L304.995,146.348z"/>
					<path style="fill:#5251F6;" d="M309.332,145.183c0.695-0.276,1.372-0.595,2.022-0.961c0.231-0.13,0.524-0.049,0.654,0.182
						c0.129,0.228,0.05,0.517-0.174,0.649c-0.682,0.402-1.393,0.754-2.121,1.06c-0.256,0.107-0.551-0.013-0.658-0.269
						c-0.107-0.256,0.013-0.55,0.269-0.658C309.325,145.186,309.329,145.184,309.332,145.183z"/>
					<path style="fill:#5251F6;" d="M313.231,143.005c0.598-0.449,1.161-0.945,1.681-1.486c0.138-0.144,0.367-0.149,0.511-0.011
						c0.138,0.133,0.147,0.351,0.025,0.495c-0.512,0.601-1.076,1.16-1.68,1.673c-0.181,0.154-0.452,0.132-0.606-0.049
						c-0.154-0.181-0.132-0.452,0.049-0.606C313.217,143.016,313.225,143.01,313.231,143.005z"/>
					<path style="fill:#5251F6;" d="M316.334,139.773c0.424-0.622,0.824-1.267,1.156-1.95c0.046-0.094,0.159-0.133,0.253-0.088
						c0.089,0.043,0.128,0.147,0.094,0.238c-0.278,0.728-0.603,1.445-1.011,2.117c-0.084,0.138-0.264,0.182-0.402,0.099
						c-0.138-0.084-0.182-0.264-0.099-0.402C316.328,139.782,316.331,139.777,316.334,139.773z"/>
					<path style="fill:#5251F6;" d="M318.328,135.696c0.109-0.354,0.207-0.712,0.272-1.078c-0.017,0.372-0.068,0.743-0.13,1.113
						c-0.007,0.04-0.044,0.067-0.084,0.06c-0.04-0.007-0.067-0.044-0.06-0.084C318.326,135.703,318.327,135.699,318.328,135.696z"/>
				</g>
				<path style="fill:#FFCDC2;" d="M281.672,157.842c0,0-5.61,16.984-6.095,20.868c-0.25,1.998,0.323,5.205,0.938,7.848
					c0.62,2.664,2.911,4.594,5.64,4.766c12.29,0.774,45.943,2.874,47.417,2.772c1.805-0.124,1.182-2.489,1.182-2.489
					s2.054-0.685,1.991-2.116c-0.062-1.431-0.56-1.867-0.56-1.867s2.116-0.685,2.116-1.618c0-0.934-1.556-2.116-1.556-2.116
					s1.805-0.498,1.556-1.12s-1.805-2.116-1.805-2.116l-17.077,3.223l-27.36-3.391l0.074-19.292L281.672,157.842z"/>
				<path style="fill:#6867F6;" d="M309.505,193.014c-11.984-0.721-25.719-1.586-30.252-1.873c-0.94-0.059-1.724-0.696-1.976-1.604
					c-0.724-2.608-2.058-7.96-1.699-10.827c0.486-3.885,5.197-29.968,5.197-29.968l7.36,12.452l-0.074,19.292l22.565,2.797
					c0,0,1.971,3.459,1.868,4.725C312.375,189.461,309.505,193.014,309.505,193.014z"/>
				<path style="fill:#FFCDC2;" d="M336.929,161.888c0,0-1.158,11.335-7.482,21.798c-6.324,10.463-8.394,13.108-8.394,13.108
					s-1.035,0.92-4.829,0c-3.794-0.92-36.909-8.164-36.909-8.164s-3.751,2.132-5.402,2.263c-1.651,0.13-1.304-2.608-1.304-2.608
					s-1.869-0.304-1.478-1.825c0.391-1.521,0.391-1.521,0.391-1.521s-1.434-1.13-1.043-2.13c0.391-1,0.565-1.26,0.565-1.26
					s-0.043-1.347,0.739-2.043c0.782-0.695,2.13-1.738,2.13-1.738s-1.13,0.478-1.347,0.087c-0.217-0.391,0.608-2.39,1.608-2.303
					c1,0.087,4.787,1.692,6.474,4.343s34.947,2.571,34.947,2.571l8.114-21.272L336.929,161.888z"/>
				<path style="fill:#081224;" d="M293.133,277.954c0,0-1.083,12.684-4.022,15.004c-2.939,2.32-7.115,4.331-7.115,9.281
					s14.849,2.629,17.324,1.856c2.475-0.773,2.291-4.121,4.259-5.979c1.967-1.858,3.811-2.625,4.441-3.7
					c0.978-1.669-0.287-9.635-0.506-11.383s-2.623-5.078-2.623-5.078H293.133z"/>
				<path style="fill:#081224;" d="M252.631,274.412c0,0-3.195,12.322-6.481,14.117c-3.286,1.794-7.741,3.076-8.571,7.956
					c-0.83,4.88,14.198,5.083,16.767,4.736c2.57-0.347,2.95-3.678,5.201-5.18c2.251-1.502,4.197-1.949,4.999-2.903
					c1.244-1.482,1.333-9.546,1.411-11.307c0.078-1.761-1.734-5.446-1.734-5.446L252.631,274.412z"/>
				<path style="fill:#122852;" d="M294.54,231.838c-9.984,4.137-20.812,1.61-20.812,1.61c0.049,7.557-2.032,20.712-3.815,30.796
					c-0.025,0.05-0.025,0.074-0.025,0.099c-1.412,7.755-2.651,13.651-2.651,13.651s-2.676,2.23-7.433,2.23
					c-5.228,0-8.052-2.8-8.052-2.8s-3.486-68.516,6.573-72.257c10.034-3.766,38.549,0.008,38.549,0.008s1.729,9.838,2.076,17.197
					C299.148,226.561,298.157,230.326,294.54,231.838z"/>
				<path style="fill:#0F2142;" d="M294.54,231.838c-9.984,4.137-20.812,1.61-20.812,1.61c0.049,7.557-2.032,20.712-3.815,30.796
					c0.644-10.406,2.884-23.313,1.803-31.345c-0.125-0.93-0.429-6.145-1.853-12.37c0.421,0.619,5.104,4.966,14.296,5.387
					c6.739,0.297,12.214-2.131,14.791-3.543C299.148,226.561,298.157,230.326,294.54,231.838z"/>
				<path style="fill:#142C59;" d="M329.944,226.016c-1.784,1.536-4.633,2.725-7.705,3.592h-0.025
					c-4.162,1.189-8.721,1.858-11.545,2.18c-1.685,0.198-2.725,0.272-2.725,0.272c0.545,5.624-1.784,47.049-1.784,47.049
					s-1.908,2.552-7.185,2.552c-5.079,0-6.491-2.725-6.491-2.725s-2.807-18.999-4.427-40.945
					c-1.539-20.865-5.13-36.282,17.632-36.181c19.137,0.084,26.281,4.833,26.281,4.833S335.94,220.788,329.944,226.016z"/>
				<path style="fill:#0F2142;" d="M322.214,229.608c-4.162,1.189-8.721,1.858-11.545,2.18c-1.685,0.198-2.725,0.272-2.725,0.272
					s-0.248-6.07,0-9.91C308.191,218.31,309.306,230.252,322.214,229.608z"/>
				<path style="fill:#EEAEA1;" d="M331.175,180.571c-0.427,1.23-0.946,2.437-1.528,3.602c-0.599,1.149-1.273,2.254-1.948,3.359
					c-1.389,2.183-2.848,4.326-4.584,6.275c1.005-2.431,2.286-4.668,3.637-6.865c0.696-1.086,1.392-2.171,2.163-3.211
					C329.643,182.669,330.336,181.593,331.175,180.571z"/>
				<path style="fill:#6867F6;" d="M289.334,190.826c10.078,2.212,24.467,5.38,26.891,5.968c3.794,0.92,4.829,0,4.829,0
					s2.07-2.645,8.394-13.108c6.324-10.463,7.482-21.798,7.482-21.798l-13.219-0.693l-8.114,21.272c0,0-14.178,0.034-24.49-0.68
					c0,0-3.039,1.984-3.049,4.815C288.046,189.753,289.334,190.826,289.334,190.826z"/>
				<path style="fill:#5251F6;" d="M289.334,190.826c2.686,0.386,5.354,0.861,8.015,1.369c2.671,0.466,5.306,1.087,7.961,1.624
					c2.654,0.543,5.278,1.213,7.918,1.813c1.314,0.29,2.643,0.667,3.921,0.979c1.248,0.274,2.707,0.492,3.77,0.031l-0.025,0.026
					c0.653-0.835,1.302-1.678,1.985-2.505c-0.534,0.926-1.102,1.837-1.666,2.755l-0.011,0.019l-0.014,0.008
					c-1.372,0.829-2.822,0.552-4.178,0.397c-1.369-0.251-2.678-0.477-4.008-0.768c-2.645-0.573-5.305-1.076-7.936-1.705
					c-2.63-0.635-5.279-1.188-7.893-1.895C294.549,192.311,291.932,191.613,289.334,190.826z"/>
				<path style="fill:#5251F6;" d="M323.71,161.194c-1.147,3.624-2.396,7.208-3.668,10.784c-1.254,3.583-2.625,7.121-3.932,10.684
					l-0.13,0.355l-0.383-0.001c-4.092-0.013-8.177-0.096-12.263-0.262c-4.083-0.198-8.169-0.453-12.228-0.968l24.488,0.13
					l-0.512,0.354c1.398-3.528,2.731-7.08,4.182-10.588C320.697,168.167,322.152,164.661,323.71,161.194z"/>
				<path style="fill:#5251F6;" d="M288.134,161.194c0.305,3.217,0.444,6.432,0.494,9.648c0.032,3.215,0.007,6.431-0.155,9.646
					l-0.362-0.411c1.972,0.33,3.941,0.686,5.896,1.147c-2.009-0.03-4.005-0.165-5.998-0.327l-0.346-0.028l-0.016-0.384
					c-0.137-3.216-0.137-6.431-0.081-9.646C287.64,167.623,287.804,164.408,288.134,161.194z"/>
				<path style="fill:#5251F6;" d="M293.112,192.009c-1.99,0.36-3.96,0.388-5.925,0.337c-1.962-0.093-3.92-0.267-5.856-0.776
					c1.991-0.363,3.961-0.39,5.925-0.337C289.219,191.328,291.176,191.502,293.112,192.009z"/>
			</g>
			<g>
				<path style="fill:#262024;" d="M453.989,270.941c0,0-1.103,2.329-2.697,5.149c-1.594,2.819-2.744,9.684-2.744,9.684l7.067,4.032
					l0.784-1.098c0,0,4.78,3.866,5.835,5.905c1.054,2.039,4.984,5.972,12.084,6.042c7.1,0.07,5.835-2.812,5.483-3.585
					c-0.351-0.773-7.655-6.534-8.921-7.729c-1.265-1.195-5.694-14.551-5.694-14.551L453.989,270.941z"/>
				<path style="fill:#262024;" d="M474.717,227.917c0,0,2.977,2.277,7.268,3.24c4.291,0.963,12.522,1.226,13.748,3.152
					c1.226,1.926,0.788,5.692-4.816,7.18c-5.604,1.489-13.66-1.576-15.149-1.751c-1.489-0.175-6.742,0.438-7.618,0.088
					c-0.876-0.35-1.694-4.919-1.694-4.919L474.717,227.917z"/>
				<path style="fill:#F04637;" d="M420.683,174.246c0,0,3.34,11.948,5.606,14.443c2.266,2.495,9.691,5.835,9.691,5.835
					l12.892-6.799l-17.499-8.367l-1.811-26.639L420.683,174.246z"/>
				<path style="fill:#6867F6;" d="M387.992,208.501c0,0-3.705,11.042,4.318,18.061c8.022,7.02,29.674,5.521,37.865-1.766
					c8.191-7.287,19.694-18.148,19.694-18.148s1.35,4.982,2.136,6.502c3.037,5.876,15.73,21.273,15.73,21.273s4.773,0.052,7.4-3.586
					c2.627-3.638-15.272-34.911-17.732-39.753c-2.459-4.841-10.43-3.439-15.926,0c-5.496,3.439-20.526,9.331-20.526,9.331
					L387.992,208.501z"/>
				<path style="fill:#FF6558;" d="M429.919,156.811c-0.049,0.322-0.124,0.595-0.223,0.842c-0.495,1.264-1.833,4.385-3.295,8.027
					c-1.61,4.038-3.419,8.696-4.41,12.066c-0.248,0.867-0.471,1.932-0.644,3.097c-1.041,7.457-0.397,19.573-0.397,19.573
					s-1.412,1.635-5.55,1.734c-4.113,0.099-8.572,5.104-13.007,8.572c-4.46,3.469-14.122,0.545-14.122,0.545
					s-2.701-2.056-2.378-13.032c0.322-10.951,9.216-39.492,9.216-39.492l14.122-17.814c0,0,15.089,1.412,18.037,3.915
					C429.943,147.148,430.612,153.614,429.919,156.811z"/>
				<path style="fill:#F2A696;" d="M437.67,132.49c0,0.51-0.06,0.95-0.22,1.28c-0.97,1.98-6.57,3.27-6.57,3.27s-0.03,0.05-0.08,0.15
					c-0.17,0.31-0.58,1.08-1.1,2.13c-1.44,2.9-3.7,7.93-3.77,10.97c-0.1,4.51-2.23,7.36-2.23,7.36s-5.13-8.99-8.72-10.82
					c-3.57-1.86-3.99-4.84-3.99-4.84s1.81-1.45,1.81-4c0-2.58-4.86-5.29-7.01-7.44c-2.16-2.16-7.98-10.36,1.01-18.11
					c9.02-7.78,20.17-3.67,22.23,0c0,0,3.74,6.79,4.78,8.12c1.01,1.37,2.53,0.87,3.15,1.99c0.64,1.11-1.89,1.73-1.42,2.6
					C435.93,125.87,437.65,129.99,437.67,132.49z"/>
				<path style="fill:#F29480;" d="M437.67,132.49c0,0.51-0.06,0.95-0.22,1.28c-0.97,1.98-6.57,3.27-6.57,3.27s-0.03,0.05-0.08,0.15
					h-1.78c0,0,2.98-0.92,5.13-2.19C435.55,134.17,436.9,133.11,437.67,132.49z"/>
				<path style="fill:#F29480;" d="M432.649,136.432c0,0-2.259,1.499-2.953,2.887c-0.644,0-1.363,0.025-2.18,0.025
					c-9.885,0.074-9.142-5.03-9.142-5.03s0.743,1.809,2.255,2.329C422.114,137.163,432.649,136.432,432.649,136.432z"/>
				<path style="fill:#362316;" d="M429.017,112.429c0,0-4.305-2.366-6.239-1.495c-1.934,0.87-4.448,12.378-6.189,13.635
					c-1.741,1.257-5.609-0.483-5.996,2.418c-0.387,2.901,3.095,5.851,3.095,5.851s1.159,1.871-0.641,6.201
					c-1.696,4.082-5.423,3.696-9.295,9.641c-3.871,5.945-2.35,12.029-7.466,13.411c-5.116,1.383-2.229-7.441-2.355-10.708
					c-0.126-3.267-0.377-6.283,3.016-8.294c3.393-2.011-1.349-19.031,4.237-25.939c2.217-2.742,4.471-7.17,9.32-9.134
					C417.874,105.032,428.147,105.891,429.017,112.429z"/>
				<path style="fill:#F2A696;" d="M448.872,150.22c-1.734,0.52-4.708,0.917-6.59,1.165c-0.619-2.453-1.115-3.964-1.115-3.964
					s-1.189-1.14-3.493-1.734c-2.304-0.57-5.921-3.667-5.921-3.667s-0.842-0.768-1.487-0.57c-0.619,0.198-3.295,1.858-3.295,0.991
					c0-0.842,1.833-2.007,1.833-2.007s-2.007-1.759-1.065-2.478c0.966-0.719,2.502,0.322,2.502,0.322s0.322-0.173,1.412-1.09
					c2.007-1.66,4.41-2.725,6.417-3.468c2.007-0.768,3.37-0.396,4.162,0.595c0.793,0.991,4.757,10.331,5.55,12.14
					C447.98,146.876,448.401,148.436,448.872,150.22z"/>
				<path style="fill:#F29480;" d="M432.955,139.186c0.642-0.552,1.32-1.061,2.173-1.358c0.22-0.064,0.458-0.121,0.769-0.022
					c0.156,0.031,0.346,0.262,0.331,0.447c0.01,0.189-0.05,0.308-0.1,0.429c-0.237,0.438-0.544,0.764-0.961,1.008
					c-0.172,0.131-0.567,0.205-0.783,0.126c-0.223-0.045-0.423-0.105-0.629-0.164c-0.409-0.115-0.806-0.254-1.199-0.405
					c-0.792-0.283-1.563-0.621-2.328-0.975c0.821,0.188,1.641,0.374,2.447,0.594l1.21,0.31c0.199,0.05,0.403,0.101,0.592,0.132
					c0.196,0.038,0.235,0.016,0.416-0.086c0.29-0.198,0.605-0.477,0.771-0.774c0.067-0.183,0.088-0.188,0.044-0.189
					c-0.087-0.041-0.284-0.026-0.467,0.007C434.481,138.442,433.71,138.824,432.955,139.186z"/>
				<path style="fill:#F29480;" d="M430.582,141.425c-0.408,0.038-0.714-0.112-1.027-0.246c-0.282-0.192-0.573-0.368-0.759-0.735
					c0.409-0.04,0.714,0.111,1.027,0.246C430.105,140.882,430.395,141.059,430.582,141.425z"/>
				<path style="fill:#1D1D1B;" d="M424.314,118.187c0.566-0.888,1.567-1.319,2.535-1.501c0.497-0.063,1.01-0.087,1.52,0.051
					c0.476,0.115,1.098,0.374,1.233,0.932c-0.465-0.2-0.866-0.116-1.299-0.076l-1.279,0.194L424.314,118.187z"/>
				<path style="fill:#A7787C;" d="M436.674,128.312c-0.847,0.297-1.508,0.478-2.172,0.732l-1.008,0.369
					c-0.356,0.124-0.695,0.299-1.143,0.428c0.212-0.885,0.944-1.546,1.779-1.849C434.967,127.71,435.951,127.739,436.674,128.312z"
					/>
				<path style="fill:#1D1D1B;" d="M429.562,120.568c-0.303,0.73-0.962,1.276-1.745,1.538c-0.399,0.102-0.835,0.118-1.229,0
					c-0.404-0.096-0.732-0.357-1.001-0.629c0.755,0.203,1.427,0.32,2.077,0.093C428.327,121.406,428.915,120.993,429.562,120.568z"
					/>
				<path style="fill:#A7787C;" d="M413.422,130.163c0.147-0.388,0.409-0.801,0.95-0.92c0.267-0.036,0.566,0.065,0.751,0.229
					c0.209,0.151,0.325,0.357,0.431,0.554l0.375,0.693l-0.708-0.327c-0.395-0.183-0.863-0.101-1.182,0.446
					c0.004-0.279,0.081-0.628,0.385-0.831c0.301-0.219,0.673-0.21,1.008-0.091l-0.333,0.366c-0.212-0.3-0.415-0.578-0.688-0.565
					C414.127,129.694,413.75,129.914,413.422,130.163z"/>
				<path style="fill:#A7787C;" d="M412.318,131.454c0.716,0.514,1.375,1.017,2.129,1.319c0.361,0.185,0.753,0.269,1.149,0.338
					c0.4,0.072,0.815,0.051,1.26,0.026c-0.376,0.22-0.815,0.403-1.28,0.403c-0.461,0.017-0.923-0.088-1.35-0.255
					C413.403,132.887,412.688,132.272,412.318,131.454z"/>
				<path style="fill:#FF6558;" d="M454.942,186.244c-0.077,0.784-0.743,3.543-11.521,1.982
					c-10.753-1.561-31.168-16.947-36.495-22.075c-1.734-1.685-2.304-3.468-2.081-5.153l0.05-0.248l0.173-0.719
					c0.966-2.998,4.41-5.376,7.705-5.376c5.451,0,12.883,10.554,14.196,11.694c1.338,1.164,17.814,10.777,17.814,10.777
					s-0.51-5.267-1.352-13.84c-0.446-4.658-1.937-9.63-2.68-12.554c1.883-0.248,7.419-1.034,9.153-1.554
					C450.623,151.929,455.955,175.9,454.942,186.244z"/>
				<path style="fill:#F04637;" d="M421.991,177.746c-0.248,0.867-0.471,1.932-0.644,3.097l-15.881-16.575L421.991,177.746z"/>
				<g>
					<path style="fill:#FFCDC2;" d="M460.373,196.521c0,0,2.177,3.975,2.284,4.458c0.107,0.482-2.371,4.555-2.284,5.519
						c0.087,0.964,1.143,0.697,1.143,0.697s-0.957,2.102,0,2.599c0.957,0.497,1.525-0.745,1.525-0.745s-0.39,1.349,0.426,1.562
						c0.816,0.213,1.952-1.562,1.952-1.562s0.71,1.171,1.313,0.568c0.603-0.604,1.065-4.508,0.994-4.65
						c-0.071-0.142-0.426-0.32-0.426-0.32s-0.213-1.044-0.603-1.072c0,0-0.32-1.554-1.029-1.448c0,0-1.592-4.728-2.023-5.218
						c-2.792-3.17-4.401-2.384-4.401-2.384L460.373,196.521z"/>
					<path style="fill:#F29480;" d="M465.668,202.126c-0.514,0.99-1.194,1.845-1.86,2.711c-0.717,0.824-1.42,1.66-2.292,2.357
						c0.513-0.992,1.193-1.846,1.86-2.711C464.093,203.66,464.798,202.825,465.668,202.126z"/>
					<path style="fill:#F29480;" d="M466.697,203.574c-0.418,1.04-1.014,1.961-1.596,2.892c-0.636,0.895-1.258,1.798-2.06,2.582
						c0.417-1.041,1.014-1.962,1.596-2.892C465.274,205.262,465.897,204.359,466.697,203.574z"/>
					<path style="fill:#F29480;" d="M467.3,204.646c-0.102,0.824-0.401,1.564-0.684,2.31c-0.343,0.721-0.67,1.449-1.197,2.091
						c0.1-0.825,0.4-1.564,0.684-2.31C466.447,206.017,466.775,205.29,467.3,204.646z"/>
				</g>
				<path style="fill:#605FF0;" d="M468.767,232.178l-0.149,2.18l-2.701,40.558c-7.383,2.948-14.122-5.005-14.122-5.005l1.115-5.451
					c0,0-0.173-11.744-0.743-16.575c-0.545-4.807,0.743-17.046,0.743-17.046l-20.49-8.077c5.649-5.079,12.14-11.124,15.386-14.172
					c0.917,0.396,1.908,0.842,2.998,1.313c4.608,2.007,10.208,4.435,13.106,5.599C469.386,217.734,468.767,232.178,468.767,232.178z
					"/>
			</g>
			<g>
				<polygon style="fill:#5E4A27;" points="68.46,363.922 62.183,363.922 59.416,339.984 71.226,339.984 				"/>
				<path style="fill:#F2A696;" d="M151.393,172.119c0,0,1.453,2.246-1.849,3.831c-3.302,1.585-10.991,4.822-10.991,4.822
					l33.712,15.577c0,0-5.034-5.516-3.772-9.655C169.755,182.555,151.393,172.119,151.393,172.119z"/>
				<polygon style="fill:#5E4A27;" points="151.266,395.709 144.989,395.709 142.222,368.877 154.032,368.877 				"/>
				<polygon style="fill:#5E4A27;" points="212.863,375.177 206.586,375.177 203.82,348.344 215.629,348.344 				"/>
				<path style="fill:#BB600F;" d="M146.873,299.493l50.547-13.095c0,0,13.542,4.111,16.796,6.694
					c3.254,2.582,5.162,6.402,5.162,6.402s1.739-23.491-8.807-35.44c-5.039-5.71-65.279-19.56-65.279-19.56l-4.182,20.992
					L146.873,299.493z"/>
				<polygon style="fill:#E0E9F1;" points="217.546,253.921 174.954,253.921 201.902,223.698 244.494,223.698 				"/>
				<polygon style="fill:#A1520D;" points="148.127,262.926 182.463,258.386 169.072,244.493 152.741,243.612 				"/>
				<path style="fill:#F04637;" d="M151.662,245.844c0,0,8.595,7.282,25.905,7.401s-16.841-26.144-16.841-26.144L151.662,245.844z"
					/>
				<path style="fill:#F2A696;" d="M214.743,233.538c0,0,2.082-9.743,4.433-13.541c2.351-3.798,7.518-3.364,8.597-2.27
					c1.079,1.094-3.472,1.939-4.462,2.434c-0.99,0.495-0.935,1.65-0.605,2.035c0.33,0.385,4.894-0.44,6.544-1.375
					c1.65-0.935,0.789-3.048,1.439-3.861c0.65-0.813,2.63,0.93,2.905,2.203c0.275,1.273-0.77,3.968-2.09,5.013
					c0,0,0.604,3.357-1.76,4.784c0,0,1.541,2.145,0.221,3.629c-1.32,1.485-9.899,7.584-9.899,7.584L214.743,233.538z"/>
				<path style="fill:#F2A696;" d="M171.19,138.602c0,0,11.229,2.096,13.775,12.427c2.545,10.331,1.048,32.539-3.294,35.509
					c-4.342,2.97-19.165-0.176-23.806-4.667c-4.641-4.491-15.422-21.249-8.834-34.505C155.618,134.11,171.19,138.602,171.19,138.602
					z"/>
				<path style="fill:#1D1D1B;" d="M172.128,136.689c8.36,1.55,14.01,9.443,13.138,17.9c-0.335,3.252-1.06,7.087-2.597,10.05
					c-3.3,6.36-2.891-1.229-4.051-3.13c-1.16-1.901-5.076-1.073-6.236,6.787s-1.317,8.813-9.336,8.412
					c-3.025-0.152-12.487-2.666-13.557-3.83c-1.07-1.164-6.689-12.581-3.478-23.106c3.211-10.525,12.13-13.914,17.571-13.646
					C165.761,136.233,168.856,136.082,172.128,136.689z"/>
				<circle style="fill:#1F140C;" cx="156.317" cy="146.433" r="11.286"/>
				<circle style="fill:#1D1D1B;" cx="153.907" cy="144.549" r="11.286"/>
				<path style="fill:#FF6558;" d="M220.68,239.916c0.76,1.521-17.956,20.998-30.124,24.04c-11.799,2.944-28.775-30.32-29.78-32.307
					c-0.025-0.025-0.025-0.074-0.049-0.098c0,0-0.932,3.459-2.674,8.512c-2.993,8.807-8.389,22.446-15.43,31.056
					c-11.088,13.541-46.535-28.456-46.535-28.456s1.713-28.954,24.836-50.144c5.507-5.046,18.409-14.099,22.331-12.899
					c22.014,6.737,28.379,14.478,34.649,23.001c7.825,10.646,16.601,37.147,16.601,37.147s1.104-0.392,2.797-0.957
					c5.053-1.717,15.381-5.176,17.441-5.274C214.743,233.538,219.919,238.395,220.68,239.916z"/>
				<path style="fill:#F04637;" d="M160.726,231.551c0,0-0.932,3.459-2.674,8.512c-1.447-4.759-3.091-10.965-4.146-16.877
					c-2.11-12.02-0.711-15.921-0.711-15.921S157.807,224.192,160.726,231.551z"/>
				<path style="fill:#F04637;" d="M197.13,247.79c-0.564-3.287-2.625-8.022-2.625-8.022s1.104-0.392,2.797-0.957
					C197.645,243.08,197.13,247.79,197.13,247.79z"/>
				<path style="fill:#C03512;" d="M239.166,215.163l-16.212,7.114c0,0,0.874,0.129,3.188-0.415c0.4-0.094,1.589-0.427,1.589-0.427
					l12.049-4.957L239.166,215.163z"/>
				
					<rect x="236.599" y="215.85" transform="matrix(0.9151 -0.4032 0.4032 0.9151 -67.2288 114.0873)" style="fill:#A72E10;" width="1.515" height="1.739"/>
				<path style="fill:#ED9572;" d="M220.699,316.573v30.345l-85.563,28.259l-84.288-31.964c0,0-2.895-109.996,0-117.429
					c0.098-0.245,0.196-0.491,0.319-0.711c3.189-6.746,12.069-7.236,16.755-6.353c4.857,0.932,76.217,31.596,76.217,31.596
					s0.098,0.392,0.294,1.128c1.423,5.618,7.923,30.541,11.873,34.736c0,0,0.025,0,0.049,0.025c0.294,0.319,0.711,0.515,1.202,0.638
					l0.025,0.024c7.089,1.717,32.675-13.148,47.173-10.426c4.17,0.785,7.261,4.023,9.542,8.365
					C220.503,296.629,220.699,316.573,220.699,316.573z"/>
				<path style="fill:#F7B094;" d="M144.434,251.444c-3.238,3.484-8.046,7.752-12.535,7.874
					c-5.765,0.196-56.028-22.764-80.731-34.245c3.189-6.746,12.069-7.236,16.755-6.353c4.857,0.932,76.217,31.596,76.217,31.596
					S144.237,250.708,144.434,251.444z"/>
				<path style="fill:#F7B094;" d="M214.297,284.806c-12.413,3.434-38.359,12.375-43.175,11.977
					c-8.794-0.727-15.33-9.469-16.693-13.666c7.034-4.498,36.925-12.03,51.423-9.308
					C210.021,274.593,217.443,280.347,214.297,284.806z"/>
				<g>
					
						<rect x="131.252" y="259.318" transform="matrix(0.9995 -0.0305 0.0305 0.9995 -7.8788 4.1504)" style="fill:#F7B094;" width="1.333" height="1.323"/>
					<path style="fill:#F7B094;" d="M134.402,371.395l-0.06-2.643l1.332-0.031l0.06,2.643L134.402,371.395z M134.277,366.114
						l-0.066-2.64l1.332-0.034l0.066,2.64L134.277,366.114z M134.144,360.835l-0.069-2.636l1.332-0.034l0.069,2.637L134.144,360.835
						z M134.006,355.562l-0.072-2.638l1.332-0.036l0.072,2.638L134.006,355.562z M133.863,350.287l-0.072-2.637l1.332-0.036
						l0.072,2.636L133.863,350.287z M133.719,345.016l-0.073-2.637l1.332-0.036l0.073,2.636L133.719,345.016z M133.571,339.741
						l-0.073-2.635l1.332-0.036l0.073,2.635L133.571,339.741z M133.425,334.472l-0.075-2.637l1.332-0.036l0.075,2.634
						L133.425,334.472z M133.275,329.2l-0.075-2.637l1.332-0.036l0.076,2.634L133.275,329.2z M133.124,323.93l-0.076-2.637
						l1.332-0.036l0.075,2.634L133.124,323.93z M132.974,318.657l-0.073-2.57l1.329-0.107l0.075,2.638L132.974,318.657z
						 M132.82,313.383l-0.072-2.486l1.328-0.181l0.075,2.627L132.82,313.383z M132.669,308.117l-0.077-2.634l1.332-0.039
						l0.077,2.637L132.669,308.117z M132.516,302.844l-0.077-2.634l1.332-0.039l0.077,2.637L132.516,302.844z M132.362,297.577
						l-0.077-2.635l1.332-0.039l0.077,2.638L132.362,297.577z M132.209,292.304l-0.078-2.635l1.332-0.039l0.078,2.635
						L132.209,292.304z M132.054,287.032l-0.078-2.637l1.332-0.039l0.078,2.637L132.054,287.032z M131.898,281.76l-0.078-2.638
						l1.332-0.039l0.078,2.638L131.898,281.76z M131.742,276.484l-0.078-2.638l1.332-0.039l0.078,2.638L131.742,276.484z
						 M131.586,271.208l-0.078-2.639l1.332-0.039l0.078,2.639L131.586,271.208z M131.43,265.929l-0.079-2.644l1.332-0.039
						l0.079,2.642L131.43,265.929z"/>
					<polygon style="fill:#F7B094;" points="134.471,375.183 134.451,373.866 135.783,373.843 135.803,375.168 					"/>
				</g>
				<path style="fill:#A7787C;" d="M175.608,164.94c0.548-0.165,1.217-0.23,1.799,0.233c0.266,0.247,0.417,0.64,0.403,0.976
					c0.02,0.348-0.093,0.652-0.206,0.938l-0.334,0.847l-0.256-0.873c-0.082-0.281-0.272-0.578-0.527-0.738
					c-0.265-0.148-0.659-0.199-1.055-0.12c0.31-0.232,0.749-0.438,1.221-0.292c0.484,0.13,0.795,0.53,0.959,0.98l-0.589-0.027
					c0.143-0.497,0.261-0.991-0.021-1.294C176.745,165.235,176.167,165.047,175.608,164.94z"/>
				<path style="fill:#A7787C;" d="M173.364,164.305c0.266,1.706,0.487,3.404,1.113,4.935c0.27,0.778,0.705,1.487,1.309,1.991
					c0.602,0.51,1.42,0.734,2.293,0.747c-0.826,0.234-1.809,0.2-2.596-0.334c-0.791-0.512-1.285-1.342-1.624-2.157
					C173.258,167.804,173.084,166.023,173.364,164.305z"/>
				<path style="fill:#F04637;" d="M218.509,243.301c-1.372-1.458-2.469-3.017-3.607-4.54l-1.674-2.286
					c-0.574-0.75-1.152-1.484-1.878-2.171c1.006,0.205,1.861,0.824,2.622,1.466c0.777,0.645,1.417,1.415,2.007,2.207
					C217.117,239.592,218.048,241.346,218.509,243.301z"/>
			</g>
		</g>
		<g>
			<g>
				<rect x="452.797" y="318.168" style="fill:#ED9572;" width="6.16" height="52.361"/>
				<rect x="561.806" y="318.168" style="fill:#ED9572;" width="6.16" height="52.361"/>
				<polygon style="fill:#ED9572;" points="464.168,330.318 586.337,330.318 586.337,324.154 452.797,311.825 452.797,317.989 				
					"/>
				<polygon style="fill:#F7B094;" points="464.168,324.154 586.337,324.154 567.966,311.825 452.797,311.825 				"/>
				<rect x="464.168" y="330.318" style="fill:#ED9572;" width="6.16" height="52.361"/>
				<rect x="580.177" y="330.318" style="fill:#ED9572;" width="6.16" height="52.361"/>
			</g>
			<g>
				<path style="fill:#ED9572;" d="M493.13,318.775h2.943c5.927,0,10.732-4.805,10.732-10.732v-8.839
					c0-1.411-1.144-2.555-2.555-2.555h-19.296c-1.411,0-2.555,1.144-2.555,2.555v8.839
					C482.398,313.97,487.203,318.775,493.13,318.775z"/>
				<path style="fill:#ED9572;" d="M484.316,315.875c-3.118,0-9.469-4.36-9.469-9.418c0-3.16,2.572-5.732,5.732-5.732
					c3.161,0,5.733,2.572,5.733,5.732c0,0.602,0.114,1.471,0.236,2.393c0.322,2.44,0.654,4.964-0.48,6.256
					C485.628,315.61,485.022,315.875,484.316,315.875z M480.579,303c-1.907,0-3.458,1.551-3.458,3.458
					c0,3.67,5.236,7.144,7.195,7.144c0.506-0.446,0.137-3.255-0.022-4.453c-0.131-0.997-0.255-1.94-0.255-2.691
					C484.038,304.551,482.487,303,480.579,303z"/>
			</g>
			<g>
				<g>
					<path style="fill:#F7B094;" d="M547.677,300.087c-0.782,0-1.437,0.52-1.655,1.231c-0.243-0.123-0.514-0.198-0.804-0.198
						c-0.529,0-0.999,0.232-1.327,0.596c-0.236-1.126-1.234-1.972-2.43-1.972c-1.372,0-2.484,1.112-2.484,2.484
						s1.112,2.483,2.484,2.483c0.878,0,1.646-0.458,2.087-1.146c0.261,0.67,0.908,1.146,1.67,1.146c0.823,0,1.51-0.557,1.721-1.313
						c0.225,0.106,0.473,0.17,0.738,0.17c0.961,0,1.74-0.779,1.74-1.74C549.417,300.866,548.638,300.087,547.677,300.087z"/>
					<path style="fill:#F7B094;" d="M536.648,300.591c0.022-0.167,0.051-0.331,0.051-0.504c0-2.139-1.734-3.872-3.872-3.872
						c-2.139,0-3.873,1.734-3.873,3.872c0,0.574,0.133,1.115,0.358,1.605c-0.036,0.024-0.068,0.054-0.102,0.08
						c-0.265-1.002-1.169-1.745-2.255-1.745c-1.293,0-2.341,1.048-2.341,2.341s1.048,2.341,2.341,2.341
						c0.672,0,1.274-0.287,1.701-0.741c0.287,0.635,0.923,1.079,1.666,1.079c0.779,0,1.44-0.488,1.704-1.174
						c0.259,0.054,0.526,0.085,0.801,0.085c0.619,0,1.196-0.159,1.715-0.417c0.337,0.689,1.038,1.168,1.857,1.168
						c1.145,0,2.072-0.928,2.072-2.072C538.471,301.579,537.673,300.715,536.648,300.591z"/>
					<path style="fill:#F7B094;" d="M557.603,301.119c-0.42,0-0.8,0.168-1.08,0.439c0.021-0.145,0.044-0.288,0.044-0.439
						c0-1.721-1.395-3.116-3.116-3.116c-1.721,0-3.116,1.395-3.116,3.116c0,1.721,1.395,3.116,3.116,3.116
						c1.094,0,2.052-0.566,2.608-1.419c0.072,0.794,0.731,1.419,1.544,1.419c0.861,0,1.558-0.698,1.558-1.558
						C559.161,301.817,558.464,301.119,557.603,301.119z"/>
				</g>
				<path style="fill:#ED9572;" d="M551.622,318.168h-18.548c-6.842,0-12.388-5.547-12.388-12.388v-1.867
					c0-0.678,0.55-1.228,1.228-1.228h40.869c0.678,0,1.228,0.55,1.228,1.228v1.867C564.01,312.622,558.464,318.168,551.622,318.168z
					"/>
			</g>
		</g>
	</g>
</g>
</svg>
