<?xml version="1.0" encoding="utf-8"?>
<!-- Generator: Adobe Illustrator 27.5.0, SVG Export Plug-In . SVG Version: 6.00 Build 0)  -->
<svg version="1.1" id="Layer_1" xmlns="http://www.w3.org/2000/svg" xmlns:xlink="http://www.w3.org/1999/xlink" x="0px" y="0px"
	 viewBox="0 0 2300 2000" style="enable-background:new 0 0 2300 2000;" xml:space="preserve">
<rect x="0" y="0" style="fill:#FFFFFF;" width="2300" height="2000"/>
<g>
	<g>
		<path style="fill:#DEEBE9;" d="M2060.601,458.397V1537.6c0,73.423-19.364,136.723-51.563,187.049
			c-75.273,117.597-185.025,134.034-310.353,140.339c-193.353,9.775-455.645-28.329-591.869-31.332
			c-191.534-4.284-476.599,15.465-629.999,17.281c-131.119,1.551-237.418-140.291-237.418-313.338V458.397
			c0-173.048,106.524-323.511,237.418-313.338c57.983,4.514,130.906,15.611,208.134,23.086
			c86.104,8.358,181.337,12.838,278.634,0.876c108.784-13.366,243.119-23.252,353.277-28.704h0.011
			c0.448-0.025,0.886-0.05,1.334-0.075c184.435-9.172,378.973-10.523,504.954,4.818
			C1953.881,160.982,2060.601,285.529,2060.601,458.397z"/>
	</g>
	<g>
		<g>
			<g>
				<g>
					<path style="fill:#B2C9C6;" d="M766.452,548.124c-14.567,4.087-20.199,0.675-21.802-5.034c-1.601-5.709,1.433-11.554,16-15.641
						c26.536-7.445,42.262-0.706,42.262-0.706S793.375,540.57,766.452,548.124z"/>
				</g>
				<g>
					<path style="fill:#B2C9C6;" d="M740.872,642.771c-12.461,8.582-18.895,7.175-22.258,2.291
						c-3.363-4.884-2.383-11.396,10.078-19.977c22.699-15.632,39.76-14.344,39.76-14.344S763.902,626.912,740.872,642.771z"/>
				</g>
				<g>
					<g>
						<g>
							<path style="fill:#B2C9C6;" d="M670.117,887.989l-2.697-0.966c0.148-0.414,14.901-42.334,17.016-108.868
								c1.948-61.39-6.77-156.893-59.385-263.244l2.567-1.27c52.905,106.938,61.652,202.987,59.674,264.733
								C685.149,845.32,670.266,887.569,670.117,887.989z"/>
						</g>
					</g>
					<g>
						<g>
							<path style="fill:#B2C9C6;" d="M673.099,642.405l-1.94-2.107c76.522-70.419,70.894-181.848,70.829-182.966l2.858-0.169
								C744.912,458.293,750.638,571.05,673.099,642.405z"/>
						</g>
					</g>
					<g>
						<g>
							<path style="fill:#B2C9C6;" d="M643.219,586.5c-28.129-7.402-45.682-27.078-45.881-27.306l2.152-1.889
								c0.222,0.253,22.727,25.426,57.409,28.744l-0.272,2.851C651.935,588.451,647.454,587.615,643.219,586.5z"/>
						</g>
					</g>
					<g>
						<g>
							<path style="fill:#B2C9C6;" d="M681.862,824.368c-55.182-21.436-93.981-61.3-115.325-118.483
								c-0.74-1.98-1.439-3.852-1.695-4.221c0.003,0.004,0.078,0.112,0.246,0.22l1.565-2.396c0.708,0.462,1.021,1.256,2.565,5.396
								c21.047,56.385,59.293,95.687,113.68,116.814L681.862,824.368z"/>
						</g>
					</g>
					<g>
						<g>
							<path style="fill:#B2C9C6;" d="M609.277,773.385l-2.484-1.427c19.372-33.694,9.217-93.407,9.113-94.005l2.82-0.495
								c0.026,0.153,2.667,15.445,2.828,34.764C621.704,730.119,619.697,755.261,609.277,773.385z"/>
						</g>
					</g>
					<g>
						<g>
							<path style="fill:#B2C9C6;" d="M627.264,498.984c11.174,17.071,10.476,24.782,5.515,28.03
								c-4.962,3.247-12.308,0.803-23.483-16.269c-20.355-31.098-21.21-52.008-21.21-52.008S606.612,467.433,627.264,498.984z"/>
						</g>
					</g>
					<g>
						<g>
							<path style="fill:#B2C9C6;" d="M607.121,552.195c15.801,12.909,17.46,20.471,13.709,25.063
								c-3.752,4.592-11.493,4.476-27.294-8.431c-28.785-23.514-35.904-43.194-35.904-43.194S577.916,528.34,607.121,552.195z"/>
						</g>
					</g>
					<g>
						<g>
							<path style="fill:#B2C9C6;" d="M626.529,671.114c3.28,14.77-0.437,20.205-6.226,21.492
								c-5.789,1.285-11.458-2.066-14.738-16.836c-5.975-26.905,1.619-42.237,1.619-42.237S620.466,643.817,626.529,671.114z"/>
						</g>
					</g>
					<g>
						<g>
							<path style="fill:#B2C9C6;" d="M683.149,549.84c-0.412,15.124-5.34,19.492-11.267,19.331
								c-5.928-0.161-10.611-4.791-10.2-19.915c0.75-27.551,11.845-40.574,11.845-40.574S683.909,521.887,683.149,549.84z"/>
						</g>
					</g>
					<g>
						<g>
							<path style="fill:#B2C9C6;" d="M649.767,768.354c-4.646,14.399-10.603,17.206-16.247,15.385
								c-5.643-1.821-8.836-7.58-4.191-21.979c8.463-26.229,22.771-35.609,22.771-35.609S658.353,741.742,649.767,768.354z"/>
						</g>
					</g>
					<g>
						<g>
							<path style="fill:#B2C9C6;" d="M579.698,706.7c6.366,13.725,3.9,19.83-1.48,22.326c-5.379,2.495-11.634,0.436-18-13.289
								c-11.599-25.001-7.463-41.604-7.463-41.604S567.931,681.334,579.698,706.7z"/>
						</g>
					</g>
					<g>
						<g>
							<path style="fill:#B2C9C6;" d="M753.636,447.482c-0.45,20.398-5.391,26.359-11.319,26.228
								c-5.928-0.131-10.601-6.304-10.15-26.703c0.82-37.159,11.951-54.881,11.951-54.881S754.468,409.781,753.636,447.482z"/>
						</g>
					</g>
				</g>
			</g>
		</g>
		<g>
			<path style="fill:#B2C9C6;" d="M968.252,1389.264c0,0-74.533-590.296-233.948-564.054
				c-159.416,26.242,137.586,384.484,153.838,557.011L968.252,1389.264z"/>
		</g>
		<g>
			<g>
				<path style="fill:#9BBCB6;" d="M867.078,1268.15c0,0-195.951-560.798-373.788-505.421
					c-177.836,55.377,229.704,348.613,280.634,513.552L867.078,1268.15z"/>
			</g>
			<g>
				<g>
					<path style="fill:#74A1BD;" d="M815.008,1273.158c-33.102-114.549-108.172-226.661-165.318-300.538
						c-61.955-80.092-116.743-133.714-117.29-134.247l3.325-3.412c0.549,0.535,55.577,54.391,117.734,134.745
						c57.4,74.205,132.816,186.857,166.125,302.128L815.008,1273.158z"/>
				</g>
			</g>
		</g>
		<g>
			<g>
				<g>
					<path style="fill:#CFD3A3;" d="M816.8,1531.706c-56.215-20.605-176.949-105.656-277.471-125.122
						c-90.684-17.561-100.923-102.817-114.902-156.416c-0.247-0.977-0.516-1.952-0.784-2.927
						c-5.63-19.998-15.327-38.519-35.015-52.335c-20.888-14.64-41.074-32.987-57.436-52.842c-1.363-1.64-2.696-3.3-4.002-4.981
						c-31.941-40.796-47.023-86.981-19.016-119.715c0.658-0.777,1.343-1.546,2.053-2.296c4.967-5.3,11.126-10.228,18.591-14.687
						c77.808-46.435,125.736-3.834,186.851,28.54c33.793,17.893,100.426-9.972,157.935-14.308c0.822-0.065,1.65-0.117,2.47-0.173
						c45.465-2.891,84.793,9.693,96.919,72.494c-0.003,0.009,0.006,0.012,0.003,0.022c0.248,1.274,0.498,2.54,0.746,3.783
						c27.691,138.642,75.424,108.644,163.085,162.8c16.3,10.084,29.91,20.452,37.96,33.009
						C1182.89,1611.128,918.563,1559.388,816.8,1531.706z"/>
				</g>
			</g>
			<g>
				<g>
					<g>
						<path style="fill:#C4C695;" d="M863.845,1421.923l4.909-3.217c-1.416-2.164-146.591-218.718-559.38-404.016l-2.405,5.357
							C718.208,1204.651,862.433,1419.771,863.845,1421.923z"/>
					</g>
				</g>
				<g>
					<g>
						<path style="fill:#C4C695;" d="M672.255,1151.706c75.828-26.334,102.049-61.546,103.127-63.031l-4.747-3.452
							c-0.255,0.349-26.417,35.277-100.31,60.938L672.255,1151.706z"/>
					</g>
				</g>
				<g>
					<g>
						<path style="fill:#C4C695;" d="M638.156,1206.059c26.913-20.723,41.972-60.575,43.552-115.248
							c1.184-40.943-5.62-76.306-5.689-76.657l-5.759,1.124c0.27,1.379,26.196,138.482-35.688,186.134L638.156,1206.059z"/>
					</g>
				</g>
				<g>
					<g>
						<path style="fill:#C4C695;" d="M532.398,1150.45c8.85-2.721,13.887-4.791,14.116-4.887l-2.276-5.41
							c-1.057,0.446-107.164,43.928-215.832-5.735l-2.438,5.336C413.53,1179.773,499.424,1160.589,532.398,1150.45z"/>
					</g>
				</g>
				<g>
					<g>
						<path style="fill:#C4C695;" d="M425.658,1252.781c36.917-17.448,55.876-42.433,65.279-60.32
							c10.236-19.47,11.669-34.676,11.727-35.314l-5.849-0.517c-0.053,0.586-6.073,58.901-73.668,90.845L425.658,1252.781z"/>
					</g>
				</g>
			</g>
		</g>
		<g>
			<path style="fill:#B2C9C6;" d="M392.919,909.845c-15.089-13.476-15.295-22.279-10.013-28.192c5.281-5.914,14.052-6.7,29.14,6.776
				c27.486,24.547,31.207,47.119,31.207,47.119S420.805,934.75,392.919,909.845z"/>
		</g>
	</g>
	<g>
		<ellipse style="fill:#BED5DC;" cx="1152.624" cy="1608.657" rx="717.462" ry="91.561"/>
	</g>
	<g>
		<g>
			<g>
				<path style="fill:#2F1A31;" d="M1093.123,1630.934L1093.123,1630.934c3.636-0.091,6.244-10.115,5.333-19.344l-14.993-154.034
					h-20.325l21.76,162.653C1085.782,1630.935,1090.821,1630.992,1093.123,1630.934z"/>
			</g>
		</g>
		<g>
			<g>
				<path style="fill:#2F1A31;" d="M805.053,1630.934L805.053,1630.934c-3.636-0.091-6.242-10.115-5.333-19.344l14.993-154.034
					h20.325l-21.76,162.653C812.395,1630.935,807.355,1630.992,805.053,1630.934z"/>
			</g>
		</g>
		<g>
			<path style="fill:#A2BEE0;" d="M1422.573,1453.488c-1.531,3.865-3.374,7.123-7.054,7.123h-360.481
				c-7.639,0-296.193-132.058-296.193-132.058l-9.609-35.266l-0.656-11.366l-19.363-335.926h23.79l229.646-0.055h0.432
				c35.063,0.976,61.984,10.565,82.851,25.905c83.128,61.092,70.173,213.49,93.062,276.586c4.84,13.379,11.309,22.732,20.64,26.38
				c8.8,3.421,17.438,5.174,25.931,5.715h0.009c54.183,3.42,102.824-42.518,153.167-19.754c12.615,5.703,23.15,12.729,31.931,20.707
				C1454.406,1339.226,1425.461,1446.193,1422.573,1453.488z"/>
		</g>
		<g>
			<path style="fill:#96B4E0;" d="M1390.675,1281.478c-173.661,0.238-342.107,0.595-342.107,0.595l-226.478,40.56l-72.854-29.345
				l0.126-11.366l3.644-335.926l229.646-0.055h0.432c35.063,0.976,61.984,10.565,82.851,25.905
				c83.128,61.092,70.173,213.49,93.062,276.586c4.84,13.379,11.309,22.732,20.64,26.38c8.8,3.421,17.438,5.174,25.931,5.715h0.009
				c54.183,3.42,102.824-42.518,153.167-19.754C1371.358,1266.474,1381.894,1273.5,1390.675,1281.478z"/>
		</g>
		<g>
			<path style="fill:#7CA1CE;" d="M703.689,1004.459l62.816,421.684c3.46,23.229,17.069,39.638,32.687,39.414l311.586-4.459
				c21.161-0.303,38.3-26.234,38.31-58.2c0.016-49.841,4.389-173.522-46.144-199.835c-83.782-43.625-194.741,41.163-246.436,15.906
				c-45.417-22.19-6.934-210.442-111.583-270.021C721.555,935.642,697.902,967.452,703.689,1004.459z"/>
		</g>
	</g>
	<g style="opacity:0.5;">
		<g>
			<path style="fill:#74A1BD;" d="M1656.369,503.3c-2.175-47.015-44.408-86.768-91.473-86.768
				c-66.678,0-88.549,51.083-91.178,98.074c-2.731,48.808,40.291,82.213,87.355,82.213
				C1608.139,596.82,1659.069,561.707,1656.369,503.3z"/>
		</g>
		<g>
			<path style="fill:#C4D7D4;" d="M1639.825,508.222c0-37.44-37.373-77.325-74.792-78.523
				c-55.359-1.773-77.811,54.391-77.811,91.831c0,37.44,38.646,59.758,76.086,59.758S1639.825,545.662,1639.825,508.222z"/>
		</g>
		<g>
			<path style="fill:#74A1BD;" d="M1573.05,506.956c-0.502-5.111-5.936-8.517-11.071-8.517c-5.135,0-10.647,6.187-10.647,11.324
				c0,5.135,5.511,9.331,10.647,9.331C1567.115,519.094,1573.981,516.433,1573.05,506.956z"/>
		</g>
		<g>
			<g>
				<path style="fill:#74A1BD;" d="M1561.979,511.641h-1.86c-1.02,0-1.845-0.826-1.845-1.846c0-1.021-2.326-4.479-1.306-4.479
					l1.035-2.172l2.216-50.572l-2.302,1.412c-0.584,0.84-1.734,1.042-2.568,0.472c-0.835-0.578-1.048-1.728-0.468-2.567l5.68-8.236
					c0.458-0.668,1.295-0.958,2.071-0.713c0.77,0.239,1.293,0.954,1.293,1.764l3.075,64.955
					C1567.001,510.675,1562.996,511.641,1561.979,511.641z"/>
			</g>
			<g>
				<path style="fill:#74A1BD;" d="M1568.355,454.25c-0.534,0-1.067-0.232-1.432-0.679l-7.008-5.018
					c-0.644-0.792,0.207-4.64,1-5.284c0.786-0.641,1.95-0.525,2.596,0.265l6.275,7.705c0.645,0.791,0.525,1.953-0.267,2.595
					C1569.177,454.114,1568.766,454.25,1568.355,454.25z"/>
			</g>
		</g>
		<g>
			<g>
				<path style="fill:#74A1BD;" d="M1528.538,517.618c-0.484,0-0.966-0.19-1.328-0.565l-5.481-5.678
					c-0.515-0.534-0.663-1.323-0.37-2.004c0.288-0.682,0.957-1.123,1.697-1.123h0.003l43.554-2.286
					c1.016,0.002,1.595,3.213,1.595,4.231v1.861c0,1.019-0.826,1.845-1.846,1.845c-1.02,0-3.317,0.916-3.317-0.103l1.472-1.761
					l-37.104-0.085l2.452,2.541c0.709,0.735,0.688,1.902-0.045,2.609C1529.461,517.448,1529,517.618,1528.538,517.618z"/>
			</g>
			<g>
				<path style="fill:#74A1BD;" d="M1523.056,511.941c-0.411,0-0.826-0.138-1.168-0.417c-0.789-0.646-0.906-1.808-0.263-2.596
					l5.126-6.278c0.652-0.791,1.813-0.902,2.599-0.261c0.789,0.645,0.904,1.808,0.263,2.597l-2.015,4.699
					C1527.23,510.132,1523.59,511.941,1523.056,511.941z"/>
			</g>
		</g>
	</g>
	<g>
		<g>
			<path style="fill:#2F1A31;" d="M1176.996,1564.39c0,0,1.2,26.243,19.117,33.283c17.92,7.038,69.533,12.658,50.648,29.936
				c-10.837,9.913-62.982,4.73-77.665,5.032c-14.688,0.302-28.342,6.988-39.458-2.616c-12.229-10.565-1.333-64.63-1.333-64.63
				s12.809,6.339,24.199,5.808C1168.919,1570.437,1176.996,1564.39,1176.996,1564.39z"/>
		</g>
		<g>
			<path style="fill:#2F1A31;" d="M1472.288,1549.328c0,0,1.483,26.227,19.477,33.072c17.993,6.846,69.665,11.907,50.968,29.388
				c-10.729,10.03-62.927,5.41-77.607,5.872c-14.682,0.462-28.264,7.295-39.484-2.189c-12.343-10.432-2.034-64.612-2.034-64.612
				s12.877,6.201,24.261,5.547C1464.275,1555.463,1472.288,1549.328,1472.288,1549.328z"/>
		</g>
		<g>
			<g>
				<path style="fill:#6F4975;" d="M1460.302,1571.035c30.335-3.455,52.607-30.17,50.512-60.63
					c-11.835-172.107-45.074-287.781-103.223-359.498c-37.358-46.075-113.936-93.884-233.22-89.102
					c-60.01,2.404-76.254-20.33-137.925-18.63c-100.57,2.776-81.038,17.157-81.038,17.157
					c-61.647,162.668,57.789,173.248,145.185,170.018c2.885-0.106,5.785-0.194,8.7-0.261c52.974-1.223,147.809,4.087,187.779,53.383
					c31.651,39.038,56.155,95.561,77.311,244.981c4.059,28.672,30.152,48.931,58.924,45.655L1460.302,1571.035z"/>
			</g>
		</g>
		<path style="fill:#2F1A31;" d="M1485.781,1106.123c-3.462,3.189-60.89,89.678-54.163,92.058
			c41.778,32.54,60.278,13.04,58.278,8.04c-1.936-4.495,25.135-90.421,24.548-96.193
			C1513.397,1099.72,1493.817,1098.72,1485.781,1106.123z"/>
		<path style="fill:#BD735A;" d="M1527.911,1222.892c-101.808-21.034-87.906-58.751-140.014-77.665
			c-25.833-9.377-39.206,9.546-39.206,9.546c5.459,18.082,45.042,31.375,45.042,31.375c73.8,42.42,117.323,104.171,140.604,89.877
			C1557.618,1261.731,1527.911,1222.892,1527.911,1222.892z"/>
		<g>
			<g>
				<path style="fill:#6F4975;" d="M1224.685,1587.949c79.125-164.152,114.057-314.928,55.907-386.644
					c-37.357-46.076-90.379-78.716-157.593-97.014c-47.969-13.057-103.564-18.816-165.235-17.116
					c-100.568,2.775-146.576-5.436-146.576-5.436c-63.753,206.921,228.828,138.939,313.293,217.477
					c36.805,34.222-12.892,92.506-7.38,261.573C1118.043,1589.732,1211.428,1615.451,1224.685,1587.949z"/>
			</g>
		</g>
		<g>
			<path style="fill:#020202;" d="M1310.123,1300.524l-1.151-0.082c3.607-50.39-19.568-76.874-33.703-88.175l0.721-0.9
				C1290.302,1222.808,1313.767,1249.608,1310.123,1300.524z"/>
		</g>
		<g>
			<g>
				<path style="fill:#F7B686;" d="M1285.279,1081.258c-12.659,0-25.194-2.746-37.22-8.231
					c-38.952-17.761-69.052-61.755-97.598-142.646c-13.149-37.258-43.401-80.359-43.705-80.791l76.167-53.865
					c1.542,2.179,37.985,53.953,55.509,103.611c9.917,28.101,3.259-127.112-3.838-165.678l54.387-23.288
					c9.086,22.643,33.028,85.093,51.112,156.866c10.951,43.461,17.718,79.393,20.114,106.796
					c1.692,19.332,1.308,35.094-1.173,48.189c-6.544,34.549-27.572,47.622-39.524,52.341
					C1308.19,1079.027,1296.686,1081.258,1285.279,1081.258z"/>
			</g>
		</g>
		<g>
			<path style="fill:#CED891;" d="M1220.599,849.56c0,0-14.944-68.139-93.418-98.715c-0.034-0.012-0.068-0.029-0.101-0.044
				c-14.007-7.06-27.206-14.897-42.287-18.12c-324.313-69.288-325.1,433.897-282.613,443.546
				c211.187,47.966,415.141-66.409,392.857-118.249c-26.103-100.904-28.271-128.748-13.384-160.637
				c4.848-10.383,15.352-11.808,28.734-26.765C1218.807,861.166,1220.599,849.56,1220.599,849.56z"/>
		</g>
		<g>
			<path style="fill:#F7B686;" d="M1190.278,669.996l-27.572,44.659l-14.975,24.233l-1.582,2.562l-5.243,8.491
				c-3.554,5.762-0.945,9.246-0.071,16.921c0.355,3.118,3.047,22.365-12.835,19.508c-19.791-3.565-41.402-33.017-43.209-53.682
				c0.095,0.036,21.835,4.429,29.971-2.102l25.153-20.169l7.321-5.881L1190.278,669.996z"/>
		</g>
		<g>
			<path style="fill:#2F1A31;" d="M1148.015,735.746l-0.285,3.141l-1.582,2.562l-5.243,8.491
				c-10.439-12.518-8.95-31.754-8.95-31.754L1148.015,735.746z"/>
		</g>
		<g>
			<g>
				<path style="fill:#56335B;" d="M1241.321,704.051c0,0-6.752,11.329-20.487,20.187c-13.734,8.859,2.856-30.338,2.856-30.338
					L1241.321,704.051z"/>
			</g>
			<g>
				<path style="fill:#F7B686;" d="M1218.906,728.857c19.184-24.608,18.193-57.455-2.215-73.364
					c-20.408-15.911-52.505-8.859-71.688,15.748c-19.185,24.607-18.194,57.455,2.214,73.365
					C1167.626,760.515,1199.721,753.465,1218.906,728.857z"/>
			</g>
			<g>
				<path style="fill:#2F1A31;" d="M1155.701,659.055l17.595,14.502c3.868,3.189,8.978,4.559,13.882,3.515
					c8.44-1.796,21.945,0.139,30.11,22.241c10.899,29.504,41.079,14.128,53.095,6.35c12.263-7.938,9.548-24.51-4.755-29.304
					c-14.303-4.798,1.666-12.426-6.152-22.888c-14.607-19.55-31.062-9.695-44.525-24.22c-17.654-19.045-64.339-38.318-81.405,9.46
					L1155.701,659.055z"/>
			</g>
			<g>
				<g>
					<path style="fill:#060633;" d="M1185.37,700.143c0.281,0.066,0.588,0.004,0.826-0.195c0.401-0.335,0.458-0.933,0.121-1.336
						c-0.196-0.237-4.262-6.164-12.122-3.423c-0.495,0.172-0.771,0.7-0.608,1.197c0.163,0.499,0.676,0.66,1.199,0.609
						c5.231-0.51,9.906,2.638,10.072,2.834C1184.995,699.992,1185.176,700.098,1185.37,700.143z"/>
				</g>
			</g>
			<g>
				<g>
					<path style="fill:#060633;" d="M1212.041,723.192c0.181,0.129,0.436,0.151,0.698,0.033c0.44-0.2,0.734-0.719,0.655-1.163
						c-0.047-0.262-0.567-6.593-7.58-6.127c-0.443,0.031-0.87,0.431-0.96,0.919c-0.089,0.487,0.224,0.76,0.636,0.847
						c4.111,0.865,6.263,4.862,6.302,5.08C1211.827,722.961,1211.916,723.101,1212.041,723.192z"/>
				</g>
			</g>
			<g>
				<path style="fill:#56335B;" d="M1133.547,638.711c0,0-13.083,34.877,0.741,52.438c0,0,5.742-30.871,43.492-14.928
					C1177.78,676.221,1157.28,647.628,1133.547,638.711z"/>
			</g>
			<g>
				<path style="fill:#F7B686;" d="M1142.238,674.105c1.182,5.505,6.127,9.111,11.047,8.055c4.919-1.056,7.949-6.375,6.768-11.879
					c-1.182-5.506-6.127-9.111-11.047-8.057C1144.087,663.282,1141.057,668.6,1142.238,674.105z"/>
			</g>
			<g>
				<path style="fill:#2F1A31;" d="M1230.998,632.469c-8.249,0-10.075-7.344-10.094-7.427c-0.117-0.499,0.193-0.999,0.693-1.116
					c0.498-0.119,0.998,0.191,1.117,0.689c0.075,0.313,1.893,7.297,10.707,5.776c0.506-0.087,0.987,0.252,1.074,0.758
					c0.087,0.506-0.253,0.986-0.758,1.074C1232.754,632.391,1231.842,632.469,1230.998,632.469z"/>
			</g>
			<g>
				<path style="fill:#FFFFFF;" d="M1254.479,700.806c-12.099,0-26.506-7.955-27.314-8.406l0.312-0.558
					c0.261,0.146,26.286,14.518,37.568,5.058c3.19-2.675,4.665-5.102,4.509-7.422c-0.25-3.718-4.715-6.541-8.655-9.029
					c-0.605-0.382-1.197-0.758-1.758-1.125l0.349-0.535c0.558,0.366,1.149,0.739,1.75,1.12c4.069,2.57,8.68,5.484,8.95,9.526
					c0.171,2.538-1.379,5.14-4.736,7.956C1262.494,699.873,1258.621,700.806,1254.479,700.806z"/>
			</g>
			<g>
				<path style="fill:#FFFFFF;" d="M1240.635,646.315c-4.207,0-22.217-1.241-37.256-21.293l0.512-0.383
					c8.802,11.737,18.556,16.824,25.187,19.026c7.187,2.386,12.364,1.993,12.413,1.988l0.053,0.637
					C1241.52,646.292,1241.202,646.315,1240.635,646.315z"/>
			</g>
			<g>
				<path style="fill:#060633;" d="M1177.195,743.468c-0.593,0-1.103-0.445-1.172-1.048c-1.231-10.777-14.855-12.028-14.993-12.039
					c-0.65-0.053-1.133-0.623-1.08-1.274c0.054-0.65,0.619-1.137,1.275-1.08c0.156,0.014,15.697,1.443,17.144,14.125
					c0.074,0.648-0.391,1.233-1.038,1.308C1177.284,743.465,1177.24,743.468,1177.195,743.468z"/>
			</g>
			<g>
				<path style="fill:#060633;" d="M1171.377,709.162c-0.562,1.265,0.203,2.83,1.706,3.499c1.503,0.667,3.176,0.183,3.737-1.083
					c0.562-1.263-0.202-2.83-1.705-3.498C1173.611,707.413,1171.937,707.898,1171.377,709.162z"/>
			</g>
			<g>
				<path style="fill:#060633;" d="M1192.971,724.865c-0.561,1.264,0.203,2.831,1.706,3.498c1.503,0.668,3.177,0.182,3.737-1.081
					c0.561-1.265-0.201-2.831-1.705-3.499C1195.206,723.115,1193.532,723.599,1192.971,724.865z"/>
			</g>
		</g>
		<g>
			<path style="fill:#F7B686;" d="M1275.139,680.064c-7.676-13.482-12.951-16.236-12.951-16.236s-27.667-22.346-30.091-13.613
				c-2.423,8.734,21.824,27.937,21.824,27.937s-35.04-23.968-34.659-14.976c0.382,8.992,27.129,27.011,27.129,27.011
				s-33.492-20.998-32.805-10.564c0.689,10.434,21.979,19.939,19.555,28.671c-0.207,0.746-19.285-18.107-18.279-3.418
				c0.4,5.855,7.58,19.891,7.58,19.891c-0.132,1.912,2.28,5.315,3.498,7.057c5.478,7.837,8.142,12.962,11.319,24.191l57.76-29.407
				C1295.019,726.606,1284.932,697.266,1275.139,680.064z"/>
		</g>
		<g>
			<path style="fill:#DD8964;" d="M1264.937,692.446c-0.323,0-0.618-0.216-0.705-0.541c-2.238-8.284-10.585-13.069-10.669-13.118
				c-0.353-0.196-0.477-0.642-0.279-0.993c0.198-0.351,0.645-0.478,0.995-0.279c0.365,0.205,8.964,5.123,11.363,14.01
				c0.105,0.39-0.125,0.791-0.515,0.897C1265.063,692.436,1265,692.446,1264.937,692.446z"/>
		</g>
		<g>
			<path style="fill:#DD8964;" d="M1256.738,703.654c-0.318,0-0.611-0.208-0.703-0.527c-2.745-9.538-9.822-12.228-9.893-12.254
				c-0.378-0.138-0.573-0.558-0.436-0.937c0.138-0.379,0.557-0.574,0.934-0.437c0.318,0.116,7.839,2.937,10.8,13.224
				c0.111,0.387-0.113,0.792-0.5,0.904C1256.872,703.646,1256.804,703.654,1256.738,703.654z"/>
		</g>
		<g>
			<path style="fill:#DD8964;" d="M1238.522,767.444c-0.39,0-0.714-0.309-0.729-0.702c-0.008-0.177-0.778-17.801-6.973-26.663
				c-5.406-7.735-19.852-32.2-16.051-38.385c1.1-1.79,2.363-2.786,3.86-3.045c3.006-0.516,6.26,2.097,10.029,5.125l0.157,0.125
				c5.352,4.301,12.184,9.87,12.184,9.87l-0.924,1.133c0,0-6.826-5.564-12.176-9.862l-0.156-0.126
				c-3.495-2.808-6.514-5.232-8.863-4.823c-1.061,0.183-1.998,0.959-2.865,2.369c-2.939,4.782,9.03,26.808,16.003,36.784
				c6.442,9.215,7.206,26.703,7.236,27.443c0.015,0.402-0.298,0.742-0.702,0.759
				C1238.542,767.444,1238.533,767.444,1238.522,767.444z"/>
		</g>
		<g>
			<g>
				<g>
					<path style="fill:#F7B686;" d="M1166.113,1135.896c0,0,56.097,2.196,76.975,27.574c20.876,25.378,28.358,73.58,12.075,60.597
						c-16.281-12.983-32.503-35.32-32.503-35.32s32.412,49.351,17.588,51.932c-14.823,2.582-42.599-40.609-42.599-40.609
						s33.89,61.797,19.097,59.701c-14.794-2.095-40.207-49.222-40.207-49.222s29.234,58.755,12.106,55.919
						c-17.126-2.836-23.843-48.712-38.667-46.13c-14.824,2.58-74.58,7.823-86.788-32.506L1166.113,1135.896z"/>
				</g>
			</g>
			<g>
				<path style="fill:#DD8964;" d="M1221.56,1189.256c-0.068-0.149-6.964-14.852-16.359-16.404l0.395-2.393
					c10.664,1.761,17.865,17.127,18.167,17.78L1221.56,1189.256z"/>
			</g>
			<g>
				<path style="fill:#DD8964;" d="M1196.539,1200.559c-0.065-0.146-6.611-14.718-19.932-19.763l0.859-2.27
					c14.292,5.412,21.014,20.42,21.293,21.057L1196.539,1200.559z"/>
			</g>
			<g>
				<path style="fill:#DD8964;" d="M1175.438,1211.056c-0.082-0.176-8.243-17.662-18.354-18.467l0.192-2.418
					c11.527,0.917,20.01,19.097,20.366,19.871L1175.438,1211.056z"/>
			</g>
		</g>
		<g>
			<path style="fill:#2F1A31;" d="M1015.738,843.055c-1.262,9.107-31.105,12.501-66.656,7.579
				c-35.553-4.923-63.352-16.295-62.091-25.402c1.261-9.107,31.104-12.5,66.656-7.578
				C989.199,822.575,1016.998,833.948,1015.738,843.055z"/>
		</g>
		<g>
			<g>
				<path style="fill:#F7B686;" d="M1063.192,1187.833c-105.436-58.6-145.833-138.023-160.535-205.151
					c-19.027-86.869-1.748-148.793-0.883-151.904c0,0,7.298-9.01,52.188-0.819c40.006,7.299,42.302,16.762,42.302,16.762
					c-0.154,0.57-16.851,54.435-1.762,119.176c19.27,82.682,73.983,137.703,171.612,170.001
					C1166.113,1135.896,1086.058,1200.541,1063.192,1187.833z"/>
			</g>
		</g>
		<g>
			<path style="fill:#2F1A31;" d="M1015.738,843.645c-0.045,0-0.09-0.004-0.137-0.015c-0.316-0.075-0.514-0.394-0.438-0.71
				c0.07-0.291,6.825-29.293,3.343-50.184c-0.053-0.323,0.165-0.626,0.486-0.68c0.325-0.049,0.625,0.165,0.679,0.486
				c3.521,21.128-3.291,50.356-3.359,50.648C1016.248,843.463,1016.006,843.645,1015.738,843.645z"/>
		</g>
		<g>
			<path style="fill:#DD8964;" d="M952.646,1057.43c-1.772,0-3.801-0.773-5.935-2.291c-3.008-2.139-5.957-5.557-8.305-9.624
				c-2.348-4.068-3.834-8.33-4.181-12.003c-0.381-4.004,0.637-6.918,2.865-8.203c2.227-1.286,5.26-0.711,8.538,1.62
				c3.007,2.138,5.957,5.556,8.304,9.622l0,0c5.092,8.818,5.67,17.695,1.316,20.208
				C954.471,1057.207,953.595,1057.43,952.646,1057.43z M939.702,1027.066c-0.53,0-1.001,0.113-1.399,0.343
				c-1.339,0.773-1.945,2.914-1.664,5.873c0.316,3.334,1.691,7.248,3.868,11.019c2.179,3.773,4.88,6.92,7.611,8.861
				c2.421,1.724,4.578,2.268,5.918,1.495c2.677-1.546,2.432-8.865-2.205-16.894c-2.178-3.772-4.88-6.918-7.61-8.859
				C942.52,1027.694,940.95,1027.066,939.702,1027.066z"/>
		</g>
		<g>
			<path style="fill:#DD8964;" d="M1291.79,1070.998c-2.937,0-5.684-0.37-8.005-1.095c-3.838-1.203-6.129-3.271-6.452-5.822
				c-0.629-4.987,6.79-9.893,16.891-11.169l0,0c4.661-0.589,9.166-0.306,12.687,0.796c3.838,1.203,6.129,3.269,6.452,5.821
				c0.323,2.553-1.382,5.125-4.801,7.244c-3.137,1.944-7.43,3.337-12.09,3.925C1294.884,1070.899,1293.31,1070.998,1291.79,1070.998
				z M1294.53,1055.317c-9.199,1.162-15.176,5.39-14.79,8.458c0.193,1.534,1.933,2.922,4.769,3.811
				c3.198,1.002,7.341,1.25,11.658,0.705c4.322-0.546,8.27-1.818,11.118-3.581c2.527-1.566,3.865-3.343,3.672-4.876
				c-0.193-1.533-1.933-2.921-4.769-3.811C1302.991,1055.021,1298.849,1054.775,1294.53,1055.317L1294.53,1055.317z"/>
		</g>
		<g>
			<path style="fill:#F7B686;" d="M1293.428,722.133c0,0-1.56-13.318-1.56-25.579c0-12.26,7.084-22.852,0-26.559
				c-7.085-3.709-16.533,15.45-16.238,24.469C1275.927,703.484,1293.428,722.133,1293.428,722.133z"/>
		</g>
		<g>
			<path style="fill:#DD8964;" d="M1240.536,994.008c-0.541,0-1.034-0.365-1.174-0.914c-0.128-0.501-12.636-50.647,1.326-92.896
				c0.21-0.636,0.893-0.982,1.533-0.771c0.636,0.208,0.98,0.895,0.771,1.531c-13.742,41.586-1.405,91.041-1.279,91.537
				c0.166,0.649-0.226,1.309-0.876,1.475C1240.735,993.997,1240.635,994.008,1240.536,994.008z"/>
		</g>
	</g>
	<g>
		<g>
			<path style="fill:#BED5DC;" d="M534.799,1575.386c0,0-35.989-37.047-23.606-58.147c12.383-21.1,33.28,45.326,33.28,45.326
				s-10.836-78.546,11.609-79.91c22.444-1.364,0,79.91,0,79.91s8.32-18.952,16.445-20.124c8.127-1.172,5.804,16.069-8.706,32.944
				H534.799z"/>
		</g>
		<g>
			<path style="fill:#42428E;" d="M537.365,1576.308c-1.695-1.745-41.355-43.026-26.965-67.545c2.274-3.874,5.004-5.66,8.121-5.305
				c6.301,0.714,13.395,10.335,21.686,29.407c2.482,5.712,4.681,11.421,6.407,16.15c-1.986-20.606-4.28-61.613,6.984-75.358
				c2.424-2.959,5.378-4.564,8.776-4.77c3.32-0.204,6.043,0.986,8.103,3.53c10.145,12.518,1.025,57.097-3.989,77.961
				c3.734-6.101,9.024-12.888,14.431-13.668c2.546-0.368,4.586,0.585,5.735,2.679c3.309,6.029-1.18,21.465-14.418,36.859
				l-2.007-1.724c13.019-15.141,16.557-29.394,14.105-33.862c-0.615-1.12-1.58-1.542-3.037-1.333
				c-6.964,1.005-15.089,16.254-17.631,22.047l-2.488-0.885c0.05-0.178,4.981-18.122,8.282-37.748
				c4.317-25.668,3.959-42.493-1.038-48.658c-1.514-1.869-3.438-2.699-5.888-2.557c-2.67,0.163-4.923,1.409-6.889,3.806
				c-14.229,17.366-5.14,84.652-5.047,85.329l-2.573,0.578c-4.698-14.934-19.211-53.952-29.802-55.153
				c-2.004-0.236-3.821,1.086-5.542,4.016c-13.38,22.8,26.182,63.948,26.583,64.362L537.365,1576.308z"/>
		</g>
	</g>
	<g>
		<g>
			<path style="fill:#BED5DC;" d="M1754.391,1586.943c0,0-32.245-37.048-21.15-58.147c11.094-21.1,29.818,45.325,29.818,45.325
				s-9.708-78.545,10.401-79.909c20.11-1.364,0,79.909,0,79.909s7.455-18.951,14.736-20.124c7.281-1.172,5.2,16.071-7.801,32.945
				H1754.391z"/>
		</g>
		<g>
			<path style="fill:#42428E;" d="M1756.69,1587.866c-1.518-1.745-37.053-43.025-24.161-67.545c2.037-3.874,4.481-5.659,7.278-5.305
				c5.646,0.714,12.001,10.333,19.429,29.408c2.224,5.711,4.195,11.419,5.741,16.149c-1.778-20.607-3.835-61.615,6.257-75.36
				c2.172-2.958,4.818-4.563,7.864-4.769c2.967-0.203,5.413,0.986,7.26,3.531c9.089,12.517,0.919,57.095-3.573,77.958
				c3.345-6.1,8.085-12.887,12.93-13.667c2.277-0.366,4.107,0.582,5.138,2.678c2.964,6.029-1.057,21.466-12.919,36.861l-1.798-1.725
				c11.666-15.141,14.835-29.393,12.638-33.862c-0.552-1.12-1.419-1.542-2.72-1.333c-6.241,1.004-13.52,16.255-15.798,22.047
				l-2.228-0.884c0.045-0.179,4.462-18.122,7.419-37.75c3.869-25.667,3.547-42.493-0.93-48.658
				c-1.357-1.868-3.076-2.696-5.275-2.557c-2.392,0.163-4.412,1.407-6.173,3.807c-12.748,17.359-4.605,84.651-4.521,85.329
				l-2.305,0.577c-4.21-14.933-17.214-53.953-26.703-55.155c-1.783-0.229-3.423,1.085-4.964,4.017
				c-11.985,22.79,23.456,63.949,23.815,64.362L1756.69,1587.866z"/>
		</g>
	</g>
	<g>
		<g>
			<path style="fill:#BED5DC;" d="M834.859,1657.679c0,0-20.592-21.199-13.507-33.272c7.086-12.073,19.043,25.935,19.043,25.935
				s-6.2-44.944,6.643-45.724c12.843-0.781,0,45.724,0,45.724s4.761-10.844,9.411-11.515c4.65-0.671,3.321,9.196-4.982,18.852
				H834.859z"/>
		</g>
		<g>
			<path style="fill:#42428E;" d="M836.328,1658.206c-0.06-0.06-5.951-6.159-10.772-13.86c-6.578-10.508-8.145-18.849-4.658-24.79
				c1.3-2.217,2.859-3.246,4.648-3.036c3.606,0.408,7.664,5.912,12.408,16.828c1.42,3.267,2.678,6.535,3.666,9.24
				c-1.136-11.791-2.449-35.256,3.997-43.12c1.387-1.694,3.077-2.611,5.022-2.73c1.894-0.106,3.456,0.564,4.638,2.021
				c5.804,7.163,0.586,32.67-2.283,44.609c2.137-3.491,5.164-7.374,8.258-7.82c1.457-0.214,2.623,0.333,3.281,1.532
				c1.893,3.451-0.676,12.283-8.25,21.093l-1.148-0.987c7.449-8.664,9.474-16.819,8.07-19.376c-0.351-0.642-0.907-0.884-1.738-0.763
				c-3.982,0.574-8.633,9.302-10.088,12.617l-1.424-0.506c0.03-0.102,2.85-10.37,4.738-21.601
				c2.471-14.687,2.266-24.314-0.593-27.843c-0.866-1.07-1.974-1.55-3.368-1.463c-1.529,0.094-2.818,0.805-3.942,2.178
				c-8.143,9.935-2.941,48.438-2.889,48.826l-1.471,0.331c-2.689-8.546-10.994-30.873-17.054-31.561
				c-1.151-0.13-2.186,0.622-3.17,2.298c-7.656,13.047,14.98,36.594,15.21,36.829L836.328,1658.206z"/>
		</g>
	</g>
	<g>
		<g>
			<path style="fill:#BED5DC;" d="M904.408,1556.648c0,0-23.218-23.9-15.229-37.513c7.99-13.611,21.471,29.242,21.471,29.242
				s-6.991-50.673,7.49-51.553c14.479-0.88,0,51.553,0,51.553s5.367-12.226,10.609-12.982c5.243-0.756,3.745,10.367-5.617,21.253
				H904.408z"/>
		</g>
		<g>
			<path style="fill:#42428E;" d="M906.065,1557.244c-0.066-0.069-6.71-6.943-12.147-15.626
				c-7.416-11.846-9.183-21.249-5.251-27.949c1.468-2.5,3.234-3.649,5.239-3.423c4.067,0.461,8.643,6.667,13.99,18.972
				c1.602,3.684,3.021,7.368,4.133,10.418c-1.28-13.294-2.76-39.749,4.506-48.616c1.563-1.91,3.47-2.945,5.662-3.077
				c2.146-0.128,3.898,0.636,5.228,2.277c6.545,8.077,0.662,36.836-2.572,50.295c2.409-3.936,5.821-8.314,9.309-8.818
				c1.644-0.233,2.958,0.378,3.699,1.729c2.135,3.889-0.76,13.848-9.302,23.779l-1.294-1.114c8.4-9.767,10.681-18.962,9.099-21.845
				c-0.397-0.721-1.021-0.996-1.959-0.86c-4.492,0.649-9.734,10.486-11.375,14.223l-1.603-0.57
				c0.031-0.116,3.211-11.691,5.341-24.353c2.785-16.56,2.554-27.415-0.67-31.392c-0.977-1.205-2.218-1.745-3.798-1.65
				c-1.723,0.106-3.177,0.909-4.445,2.456c-9.179,11.2-3.315,54.611-3.255,55.048l-1.66,0.373
				c-3.031-9.634-12.395-34.807-19.227-35.581c-1.297-0.143-2.466,0.7-3.575,2.591c-8.629,14.703,16.889,41.255,17.149,41.521
				L906.065,1557.244z"/>
		</g>
	</g>
	<g>
		<path style="fill:#CF7E63;" d="M1571.813,1361.391c-15.962,40.643-10.476,90.64,19.752,125.017
			c40.319,45.853,18.13,88.033,7.577,90.198c-17.81,3.653-35.99,2.221-28.683,20.974c5.683,0.069,29.861,0.649,40.049-2.032
			c10.283-2.706,37.268-36.582,41.131-43.293c8.93-15.512,6.719-13.753-2.706-31.071c-13.38-24.587,37.397-69.974,13.801-118.957
			C1625.39,1363.104,1571.813,1361.391,1571.813,1361.391z"/>
		<g>
			<path style="fill:#E28569;" d="M1521.436,1109.643c0,0-43.295-16.876-70.026,23.271c-33.781,30.409,17.018,77.24,53.915,76.019
				C1542.221,1207.713,1591.781,1152.265,1521.436,1109.643z"/>
		</g>
		<g>
			<path style="fill:#2F1A31;" d="M1478.129,1127.963c-1.83,3.063-5.009,4.535-7.098,3.287c-2.089-1.249-2.297-4.745-0.467-7.808
				c1.83-3.063,5.008-4.536,7.097-3.288C1479.75,1121.403,1479.959,1124.9,1478.129,1127.963z"/>
		</g>
		<g>
			<path style="fill:#2F1A31;" d="M1510.845,1147.487c-1.83,3.063-5.009,4.535-7.097,3.288c-2.089-1.249-2.298-4.745-0.468-7.808
				c1.83-3.063,5.009-4.536,7.098-3.287C1512.466,1140.927,1512.675,1144.423,1510.845,1147.487z"/>
		</g>
		<path style="fill:#2F1A31;" d="M1710.487,1398.844c85.116-12.818,104.777-83.656,99.779-125.153
			c-5.247-5.963-12.253,70.514-72.068,91.397c-34.521,12.052-38.191-21.312-38.191-21.312
			C1698.581,1373.667,1710.487,1398.844,1710.487,1398.844z"/>
		<g>
			<path style="fill:#E28569;" d="M1465.069,1190.557c0,0,9.863,10.87,0.611,28.577c-10.465,20.029-39.813,76.225,14.847,134.534
				c45.513,48.55,90.685,47.414,223.062,106.14c16.764-20.401,50.604-106.273-49.219-150.741
				c-67.992-30.287-96.563-141.71-96.563-141.71S1513.005,1210.684,1465.069,1190.557z"/>
		</g>
		<path style="fill:#2F1A31;" d="M1533.191,1130.286c23.399,8.496,34.984,16.579,37.651,46.174s43.571,74.711,5.452,83.486
			c-38.119,8.775-89.291,16.762-69.457-29.352c19.834-46.114,23.585-76.514,22.251-85.367
			C1527.755,1136.374,1524.655,1127.186,1533.191,1130.286z"/>
		<path style="fill:#F9CBC0;" d="M1589.682,1414.266c-9.028-25.61-51.822-38.42-92.013-60.608
			c-40.572-22.398-40.064-65.286-32.988-104.446c3.177-17.58-0.087-21.567-5.071-18.829c-13.881,26.314-27.909,73.209,18.74,122.972
			C1508.029,1385.014,1533.09,1395.59,1589.682,1414.266z"/>
		<g>
			<path style="fill:#F9CBC0;" d="M1482,1184.736c0,0-17.372-1.834-17.314-10.425c0.056-8.59,1.806-6.994,1.806-6.994
				s-7.17,5.511-12.15,1.984c-4.979-3.528-11.873-12.25-10.258-18.777c1.614-6.528,5.475-11.219,11.73-3.927
				c6.254,7.291,38.051,18.278,40.319,23.213C1498.403,1174.742,1492.361,1189.413,1482,1184.736z"/>
		</g>
		<g>
			<path style="fill:#2F1A31;" d="M1460.107,1137.874c0,0,31.204,14.611,33.55,22.289c2.344,7.679-21.568,9.081-26.747,5.54
				C1461.734,1162.16,1448.62,1136.838,1460.107,1137.874z"/>
		</g>
		<g>
			<path style="fill:#F9CBC0;" d="M1496.514,1134.004c0,0,4.495-4.66,12.926-7.349c8.431-2.69,12.879-8.901,6.798-14.483
				c-6.082-5.584-10.658,1.013-17.632,5.289c-6.974,4.275-16.264,14.137-11.535,16.971
				C1491.802,1137.268,1492.261,1139.505,1496.514,1134.004z"/>
		</g>
		<path style="fill:#E28569;" d="M1506.793,1255.945c-63.536-28.503-70.368-75.511-116.338-96.463
			c-38.943-17.749-45.308,8.066-45.308,8.066c14,28.172,50.459,34.627,50.459,34.627c28.465,31.527,31.067,79.216,90.175,86.045
			C1512.92,1291.356,1506.793,1255.945,1506.793,1255.945z"/>
		<path style="fill:#E28569;" d="M1609.887,1378.799c-15.962,40.643,0.159,73.232,30.388,107.61
			c40.319,45.853,18.13,88.033,7.577,90.198c-17.81,3.653-35.99,2.221-28.683,20.974c5.683,0.069,29.861,0.649,40.049-2.032
			c10.283-2.706,37.268-36.582,41.131-43.293c8.93-15.512,6.719-13.753-2.706-31.071c-13.38-24.587,37.397-69.974,13.801-118.957
			C1674.099,1363.104,1609.887,1378.799,1609.887,1378.799z"/>
	</g>
</g>
</svg>
