<?xml version="1.0" encoding="utf-8"?>
<!-- Generator: Adobe Illustrator 27.5.0, SVG Export Plug-In . SVG Version: 6.00 Build 0)  -->
<svg version="1.1" id="Layer_1" xmlns="http://www.w3.org/2000/svg" xmlns:xlink="http://www.w3.org/1999/xlink" x="0px" y="0px"
	 viewBox="0 0 3000 2000" style="enable-background:new 0 0 3000 2000;" xml:space="preserve">
<rect y="0" style="fill:#FFFFFF;" width="3000" height="2000"/>
<g>
	<g>
		<path style="fill:#DAEBE8;" d="M2508.53,1788.962c-228.644,25.495-464.204,14.872-945.518-11.806
			c-270.269-14.98-813.684,9.839-1084.93,11.806c-197.751,1.434-358.074-130.07-358.074-290.521v-489.397V497.82
			c0-160.45,160.657-299.958,358.074-290.52c183.333,8.764,452.994,43.462,734.095,22.216
			c334.328-25.269,968.907-46.741,1296.352-22.216c196.922,14.749,358.074,130.07,358.074,290.52v1000.622
			C2866.604,1658.892,2704.447,1767.116,2508.53,1788.962z"/>
	</g>
	<g>
		<g>
			<path style="fill:#ACC9C5;" d="M1879.134,1139.927c0,0,121.307-407.226,248.983-373.937
				c127.676,33.288-151.823,256.934-182.755,376.471L1879.134,1139.927z"/>
		</g>
		<g>
			<g>
				<path style="fill:#68A1BF;" d="M1913.467,1141.028c11.027-46.016,38.74-121.764,108.15-221.313
					c41.494-59.511,78.759-99.859,79.131-100.259l1.589,1.497c-0.371,0.399-37.549,40.657-78.957,100.049
					c-69.198,99.251-96.812,174.708-107.792,220.531L1913.467,1141.028z"/>
			</g>
		</g>
	</g>
	<g>
		<ellipse style="fill:#B8D5DC;" cx="1480.181" cy="1509.477" rx="1204.399" ry="127.278"/>
	</g>
	<g>
		<g>
			<g>
				<g>
					<path style="fill:#CCD39C;" d="M2303.744,1033.107c-52.169,38.701-3.399,122.699-76.497,136.023
						c-73.119,13.286-69.548,6.566-88.403,49.743c0,0,2.562,38.063-24.073,49.939c-83.442,37.206-88.512-44.275-180.467-70.642
						c-25.75-7.383-50.101-15.33-72.114-23.442c-1.529-16.119-0.09-41.572,17.782-65.237c6.545-8.695,15.34-17.13,27.001-24.775
						c63.279-41.427,98.466-19.449,116.146-124.622c17.689-105.203,141.933-21.894,185.746-46.571
						c43.812-24.678,77.891-56.644,135.097-23.854C2401.191,922.498,2355.934,994.445,2303.744,1033.107z"/>
				</g>
			</g>
			<g>
				<g>
					<g>
						<path style="fill:#C2C68E;" d="M1962.671,1206.909l-3.614-2.279c0.992-1.608,102.784-162.536,399.244-304.79l1.833,3.886
							C2064.787,1045.448,1963.66,1205.31,1962.671,1206.909z"/>
					</g>
				</g>
				<g>
					<g>
						<path style="fill:#C2C68E;" d="M2097.262,1005.938c-55.444-18.095-75.042-43.477-75.849-44.547l3.388-2.604
							c0.191,0.252,19.741,25.426,73.77,43.058L2097.262,1005.938z"/>
					</g>
				</g>
				<g>
					<g>
						<path style="fill:#C2C68E;" d="M2122.889,1045.217c-19.864-14.756-31.44-43.714-33.479-83.739
							c-1.527-29.974,2.832-55.987,2.877-56.246l4.196,0.733c-0.173,1.014-16.745,101.86,28.931,135.791L2122.889,1045.217z"/>
					</g>
				</g>
				<g>
					<g>
						<path style="fill:#C2C68E;" d="M2198.71,1002.811c-6.465-1.854-10.153-3.291-10.321-3.358l1.563-3.998
							c0.774,0.31,78.467,30.489,156.495-7.606l1.855,3.871C2285.429,1022.417,2222.798,1009.719,2198.71,1002.811z"/>
					</g>
				</g>
				<g>
					<g>
						<path style="fill:#C2C68E;" d="M2277.821,1076.09c-27.069-12.199-41.231-30.203-48.345-43.157
							c-7.744-14.102-9.031-25.218-9.084-25.685l4.235-0.47c0.048,0.428,5.367,43.053,54.929,65.386L2277.821,1076.09z"/>
					</g>
				</g>
				<g>
					<g>
						<path style="fill:#C2C68E;" d="M2124.781,1193.09c-61.043-17.504-94.7-68.059-95.073-68.634l3.555-2.367
							c0.411,0.63,42.117,63.174,116.657,71.635l-0.471,4.276C2140.79,1197.016,2132.561,1195.321,2124.781,1193.09z"/>
					</g>
				</g>
				<g>
					<g>
						<path style="fill:#C2C68E;" d="M2068.086,1161.807l-2.862-3.187c17.696-16.194,53.503-34.495,123.589-29.728
							c41.69,2.834,76.368,12.66,76.714,12.758l-1.16,4.139C2263.007,1145.398,2127.499,1107.443,2068.086,1161.807z"/>
					</g>
				</g>
			</g>
		</g>
	</g>
	<g>
		<g>
			<g>
				<g>
					<path style="fill:#ACC9C5;" d="M2293.871,482.394c-1.604,0-2.543-0.087-2.585-0.092l0.101-1.021
						c0.198,0.02,19.977,1.835,35.439-12.052l0.675,0.767C2315.042,481.186,2299.846,482.394,2293.871,482.394z"/>
				</g>
			</g>
		</g>
		<g>
			<g>
				<g>
					<path style="fill:#ACC9C5;" d="M2316.75,494.013c-7-1.019-11.41-4.221-13.877-6.728c-2.686-2.729-3.697-5.197-3.739-5.3
						l0.942-0.387c0.038,0.095,4.004,9.534,16.82,11.399L2316.75,494.013z"/>
				</g>
			</g>
		</g>
		<g>
			<path style="fill:#C7DDDA;" d="M1986.29,631.148h-36.944l-3.857-147.413c0,0,5.638-2.738,14.427-3.576
				c11.905-1.134,22.718-0.67,22.718-0.67L1986.29,631.148z"/>
		</g>
		<g>
			<polygon style="fill:#ACC9C5;" points="2081.023,631.148 1986.29,631.148 1982.634,479.49 2081.023,483.735 			"/>
		</g>
		<g>
			<path style="fill:#C7DDDA;" d="M2046.65,631.148h-27.59V448.237c0,0,5.712-1.623,13.24-2.233c8.292-0.672,18.987,0,18.987,0
				L2046.65,631.148z"/>
		</g>
		<g>
			<polygon style="fill:#92BCB5;" points="2117.396,631.148 2046.65,631.148 2051.287,446.004 2117.396,448.237 			"/>
		</g>
		<g>
			<path style="fill:#A8C6E7;" d="M2112.806,631.148h-20.768l-28.839-137.683c0,0,3.51-0.914,8.816-1.165
				c6.156-0.292,11.951,1.165,11.951,1.165L2112.806,631.148z"/>
		</g>
		<g>
			<polygon style="fill:#83B4DE;" points="2166.059,631.148 2112.806,631.148 2083.967,493.465 2136.771,501.076 			"/>
		</g>
		<g>
			<path style="fill:#ACC9C5;" d="M1946.111,503.103l-0.256-0.967c0.079-0.021,7.967-2.074,16.578-1.559
				c8.45,0.508,19.967-2.291,20.082-2.319l0.238,0.971c-0.117,0.029-11.789,2.865-20.38,2.346
				C1953.94,501.071,1946.189,503.083,1946.111,503.103z"/>
		</g>
		<g>
			<path style="fill:#ACC9C5;" d="M2019.134,462.722l-0.148-0.989c0.192-0.029,19.38-2.846,32.005,0.007l-0.22,0.975
				C2038.328,459.908,2019.324,462.693,2019.134,462.722z"/>
		</g>
		<g>
			<path style="fill:#ACC9C5;" d="M2050.429,472.52c-10.363-4.641-31.118-2.931-31.326-2.913l-0.086-0.996
				c0.863-0.075,21.223-1.75,31.822,2.996L2050.429,472.52z"/>
		</g>
		<g>
			<path style="fill:#ACC9C5;" d="M2019.139,608.244l-0.158-0.987c0.773-0.125,19.047-2.998,28.407,0.018l-0.306,0.952
				C2037.947,605.284,2019.327,608.214,2019.139,608.244z"/>
		</g>
		<g>
			<path style="fill:#ACC9C5;" d="M2019.126,613.269l-0.132-0.991c0.176-0.024,17.78-2.329,28.224,0.008l-0.218,0.976
				C2036.73,610.963,2019.302,613.246,2019.126,613.269z"/>
		</g>
		<g>
			<g>
				<path style="fill:#83B4DE;" d="M2066.514,509.286l-0.207-0.982c0.545-0.117,13.442-2.84,21.045,0.02l-0.347,0.942
					C2079.669,506.505,2066.644,509.259,2066.514,509.286z"/>
			</g>
		</g>
		<g>
			<g>
				<path style="fill:#83B4DE;" d="M2067.376,513.491l-0.172-0.99c0.5-0.089,12.36-2.154,20.919,0.007l-0.241,0.975
					C2079.529,511.376,2067.497,513.469,2067.376,513.491z"/>
			</g>
		</g>
		<g>
			<g>
				<path style="fill:#83B4DE;" d="M2086.938,606.906l-0.162-0.991c0.515-0.086,12.714-2.085,20.97,0.008l-0.242,0.974
					C2099.449,604.853,2087.062,606.885,2086.938,606.906z"/>
			</g>
		</g>
		<g>
			<g>
				<path style="fill:#83B4DE;" d="M2108.635,612.223c-10.395-2.248-20.424-0.023-20.523-0.001l-0.218-0.979
					c0.102-0.024,10.347-2.296,20.95-0.001L2108.635,612.223z"/>
			</g>
		</g>
		<g>
			<g>
				<path style="fill:#C7DDDA;" d="M2303.928,597.72c0,0-0.673,1.761-2.142,4.678c-0.045,0.075-0.084,0.162-0.123,0.244
					c-0.006,0.006-0.006,0.006-0.011,0.013c-2.577,5.059-7.485,13.391-15.344,21.948c-2.682,2.923-6.316,5.203-10.585,6.895h-0.006
					l-0.089,0.037c-0.913,0.356-1.853,0.693-2.816,0.993c0,0,0,0-0.006,0c-13.74,4.372-32.607,3.435-47.421-1.318h-0.006
					l-2.549-0.874h-0.005c-1.269-0.462-2.499-0.949-3.69-1.468c-3.834-1.668-6.951-3.779-9.483-6.115
					c-0.323-0.3-0.635-0.6-0.941-0.906c-10.274-10.262-10.09-24.128-10.09-24.128H2303.928z"/>
			</g>
			<g>
				<path style="fill:#ACC9C5;" d="M2307.306,576.759v15.171c0,9.388-25.4,16.995-56.738,16.995
					c-31.333,0-56.738-7.607-56.738-16.995v-15.171c0-4.766,14.631-8.85,35.373-10.537c6.595-0.544,13.807-0.843,21.365-0.843
					C2281.906,565.379,2307.306,570.469,2307.306,576.759z"/>
			</g>
			<g>
				<path style="fill:#92BCB5;" d="M2307.306,576.759c0,0.918-0.534,1.805-1.547,2.655c-5.949,4.997-28.394,8.732-55.191,8.732
					c-7.502,0-14.676-0.294-21.226-0.831c-20.82-1.686-35.512-5.771-35.512-10.556c0-4.766,14.631-8.85,35.373-10.537
					c6.595-0.544,13.807-0.843,21.365-0.843C2281.906,565.379,2307.306,570.469,2307.306,576.759z"/>
			</g>
			<g>
				<g>
					<path style="fill:#ACC9C5;" d="M2253.987,419.558c-5.443,3.586-8.077,2.712-9.33,0.317c-1.252-2.394-0.649-5.402,4.794-8.988
						c9.915-6.533,16.975-5.354,16.975-5.354S2264.047,412.931,2253.987,419.558z"/>
				</g>
				<g>
					<path style="fill:#ACC9C5;" d="M2253.714,465.459c-4.116,5.37-6.861,5.499-8.736,3.689c-1.875-1.811-2.171-4.876,1.945-10.246
						c7.498-9.782,14.518-11.231,14.518-11.231S2261.322,455.534,2253.714,465.459z"/>
				</g>
				<g>
					<g>
						<g>
							<path style="fill:#ACC9C5;" d="M2251.199,584.917l-1.191-0.117c0.016-0.205,1.518-20.943-4.691-51.32
								c-5.73-28.028-19.385-70.23-51.901-112.115l0.901-0.881c32.695,42.116,46.419,84.563,52.176,112.755
								C2252.734,563.806,2251.215,584.709,2251.199,584.917z"/>
						</g>
					</g>
					<g>
						<g>
							<path style="fill:#ACC9C5;" d="M2226.333,473.367l-1.006-0.723c23.396-41,9.298-90.782,9.153-91.28l1.135-0.417
								C2235.762,381.451,2250.041,431.822,2226.333,473.367z"/>
						</g>
					</g>
					<g>
						<g>
							<path style="fill:#ACC9C5;" d="M2208.344,451.614c-12.134,0-21.304-6.818-21.408-6.897l0.667-1.111
								c0.117,0.088,11.868,8.805,26.212,6.175l0.193,1.323C2212.068,451.46,2210.171,451.614,2208.344,451.614z"/>
						</g>
					</g>
					<g>
						<g>
							<path style="fill:#ACC9C5;" d="M2249.184,554.711c-24.538-3.132-44.422-16.559-59.103-39.908
								c-0.509-0.808-0.989-1.573-1.132-1.709c0.001,0.002,0.043,0.041,0.122,0.07l0.377-1.271c0.334,0.125,0.545,0.447,1.607,2.138
								c14.477,23.022,34.078,36.261,58.262,39.347L2249.184,554.711z"/>
						</g>
					</g>
					<g>
						<g>
							<path style="fill:#ACC9C5;" d="M2214.489,540.275l-1.154-0.35c4.239-17.564-6.197-43.39-6.302-43.649l1.085-0.56
								c0.027,0.066,2.716,6.675,4.831,15.403C2214.909,519.205,2216.769,530.827,2214.489,540.275z"/>
						</g>
					</g>
					<g>
						<g>
							<path style="fill:#ACC9C5;" d="M2192.618,413.89c6.32,6.398,6.857,9.973,5.2,12.034c-1.657,2.061-4.88,1.83-11.2-4.569
								c-11.513-11.655-14.077-21.021-14.077-21.021S2180.937,402.065,2192.618,413.89z"/>
						</g>
					</g>
					<g>
						<g>
							<path style="fill:#ACC9C5;" d="M2190.14,440.383c7.745,3.962,9.217,7.188,8.191,9.715c-1.026,2.526-4.161,3.396-11.906-0.566
								c-14.109-7.217-19.07-15.279-19.07-15.279S2175.825,433.061,2190.14,440.383z"/>
						</g>
					</g>
					<g>
						<g>
							<path style="fill:#ACC9C5;" d="M2210.593,491.914c2.891,6.297,1.969,9.201-0.231,10.472c-2.199,1.272-4.842,0.43-7.733-5.867
								c-5.267-11.47-3.831-19.317-3.831-19.317S2205.249,480.277,2210.593,491.914z"/>
						</g>
					</g>
					<g>
						<g>
							<path style="fill:#ACC9C5;" d="M2220.562,430.259c1.44,6.897-0.085,9.462-2.494,10.095c-2.408,0.633-4.789-0.905-6.229-7.802
								c-2.622-12.563,0.472-19.782,0.472-19.782S2217.902,417.512,2220.562,430.259z"/>
						</g>
					</g>
					<g>
						<g>
							<path style="fill:#ACC9C5;" d="M2230.29,533.173c-0.346,7.073-2.451,9.053-4.921,8.901c-2.47-0.152-4.37-2.379-4.024-9.452
								c0.63-12.884,5.407-18.836,5.407-18.836S2230.929,520.101,2230.29,533.173z"/>
						</g>
					</g>
					<g>
						<g>
							<path style="fill:#ACC9C5;" d="M2195.477,513.605c4.025,5.456,3.678,8.514,1.773,10.285
								c-1.905,1.771-4.647,1.583-8.673-3.872c-7.333-9.939-7.427-17.948-7.427-17.948S2188.037,503.522,2195.477,513.605z"/>
						</g>
					</g>
					<g>
						<g>
							<path style="fill:#ACC9C5;" d="M2238.134,375.516c1.983,9.29,0.623,12.577-1.782,13.224s-4.946-1.592-6.929-10.881
								c-3.613-16.922-1.004-26.272-1.004-26.272S2234.468,358.348,2238.134,375.516z"/>
						</g>
					</g>
				</g>
			</g>
			<g>
				<path style="fill:#92BCB5;" d="M2252.059,586.708c0,0-31.117-130.34-62.313-119.535s38.094,82.154,46.081,120.419
					L2252.059,586.708z"/>
			</g>
			<g>
				<g>
					<path style="fill:#ACC9C5;" d="M2247.49,580.824c0,0-47.612-104.587-77.326-88.967c-29.714,15.62,48.428,62.119,61.262,93.06
						L2247.49,580.824z"/>
				</g>
				<g>
					<g>
						<path style="fill:#ACC9C5;" d="M2238.302,583.311c-16.278-41.184-59.215-77.113-59.646-77.471l0.784-1.191
							c0.434,0.36,43.648,36.516,60.068,78.061L2238.302,583.311z"/>
					</g>
				</g>
			</g>
			<g>
				<g>
					<path style="fill:#C7DDDA;" d="M2337.735,506.873c-11.145,16.092,8.363,37.09-10.346,47.372
						c-18.718,10.272-18.133,6.911-19.953,21.481c0,0,0.289,2.227-1.675,3.688c-5.95,5.001-28.395,8.73-55.192,8.73
						c-7.504,0-14.674-0.289-21.225-0.829c-1.631-4.703-3.168-12.46-0.137-21.094c1.107-3.17,2.842-6.456,5.409-9.752
						c13.935-17.866,25.089-14.3,21.903-47.362c-3.185-33.072,36.628-18.771,46.58-29.94c9.951-11.168,16.726-23.686,34.636-18.771
						C2355.654,465.322,2348.888,490.79,2337.735,506.873z"/>
				</g>
			</g>
			<g>
				<g>
					<g>
						<path style="fill:#ACC9C5;" d="M2258.88,589.334l-1.147-0.373c0.146-0.567,15.432-57.583,84.638-125.739l0.788,1.008
							C2274.213,532.13,2259.026,588.769,2258.88,589.334z"/>
					</g>
				</g>
				<g>
					<g>
						<path style="fill:#ACC9C5;" d="M2279.984,517.488c-16.324-0.659-23.53-6.585-23.828-6.837l0.717-1.072
							c0.07,0.059,7.248,5.928,23.155,6.57L2279.984,517.488z"/>
					</g>
				</g>
				<g>
					<g>
						<path style="fill:#ACC9C5;" d="M2289.868,527.064c-6.474-2.717-11.787-10.406-15.364-22.234
							c-2.679-8.858-3.471-17.034-3.478-17.116l1.187-0.141c0.03,0.319,3.187,31.988,18.074,38.236L2289.868,527.064z"/>
					</g>
				</g>
				<g>
					<g>
						<path style="fill:#ACC9C5;" d="M2307.112,507.827c-1.884,0-2.988-0.114-3.038-0.119l0.119-1.334
							c0.232,0.026,23.471,2.396,41.637-15.739l0.793,1.001C2331.986,506.249,2314.132,507.827,2307.112,507.827z"/>
					</g>
				</g>
				<g>
					<g>
						<path style="fill:#ACC9C5;" d="M2333.993,523c-8.224-1.331-13.406-5.512-16.304-8.785c-3.155-3.563-4.344-6.786-4.393-6.922
							l1.107-0.505c0.045,0.124,4.704,12.45,19.761,14.886L2333.993,523z"/>
					</g>
				</g>
				<g>
					<g>
						<path style="fill:#ACC9C5;" d="M2301.562,571.249c-17.789,0-30.691-12.267-30.835-12.408l0.78-1.015
							c0.158,0.153,16.139,15.324,36.885,11.451l0.196,1.323C2306.177,571.049,2303.829,571.249,2301.562,571.249z"/>
					</g>
				</g>
				<g>
					<g>
						<path style="fill:#ACC9C5;" d="M2283.904,566.742l-1.013-0.71c3.549-6.378,11.823-14.946,31.088-19.544
							c11.46-2.735,21.557-2.77,21.657-2.771v1.341C2335.239,545.059,2295.818,545.329,2283.904,566.742z"/>
					</g>
				</g>
			</g>
		</g>
		<g>
			<polygon style="fill:#ACC9C5;" points="2348.646,648.941 1940.449,652.995 1940.449,628.838 2345.026,628.838 			"/>
		</g>
	</g>
	<g>
		<g>
			<path style="fill:#73A0D1;" d="M1613.187,509.828c0,6.821-51.08,12.349-114.095,12.349s-113.864,9.858-113.865,3.037
				c-0.003-48.775,50.849-94.554,113.865-94.554S1613.187,466.104,1613.187,509.828z"/>
		</g>
		<g>
			<path style="fill:#ACC9C5;" d="M1612.959,510.519c0.294,4.762-24.331,10.497-60.67,14.914c-2.093,0.249-4.234,0.499-6.409,0.748
				c-14.041,1.579-29.612,2.957-46.005,4.013c-13.924,0.902-27.272,1.484-39.631,1.781c-4.481,0.119-8.82,0.19-13.018,0.226
				c-36.55,0.297-61.693-2.221-61.999-6.982c-0.259-4.109,18.052-8.941,46.429-13.014c2.258-0.321,4.574-0.641,6.962-0.962
				c12.007-1.591,25.531-3.04,40.02-4.239c6.397-0.534,12.959-1.033,19.674-1.461c4.681-0.309,9.314-0.57,13.842-0.796
				c19.181-0.986,36.938-1.366,52.015-1.176c0.365,0,0.718,0.012,1.07,0.012C1593.908,503.977,1612.689,506.423,1612.959,510.519z"
				/>
		</g>
		<g>
			<path style="fill:#FFFFFF;" d="M1564.167,503.573c-3.328,6.341-7.538,12.136-12.465,17.218c-1.846,1.9-3.787,3.705-5.821,5.391
				c-12.713,10.592-29.036,16.957-46.828,16.957c-14.241,0-27.542-4.085-38.808-11.162c-5.045-3.159-9.69-6.935-13.818-11.198
				c-2.858-2.957-5.48-6.139-7.809-9.535c12.007-1.591,25.531-3.04,40.02-4.239c6.397-0.534,12.959-1.033,19.674-1.461
				c4.681-0.309,9.314-0.57,13.842-0.796C1531.333,503.763,1549.091,503.383,1564.167,503.573z"/>
		</g>
		<g>
			<path style="fill:#73A0D1;" d="M1499.092,438.841L1499.092,438.841c-2.706,0-4.9-2.194-4.9-4.9v-80.77c0-2.706,2.194-4.9,4.9-4.9
				l0,0c2.706,0,4.9,2.194,4.9,4.9v80.77C1503.991,436.647,1501.798,438.841,1499.092,438.841z"/>
		</g>
		<g>
			<path style="fill:#73A0D1;" d="M1484.888,432.803c0-7.921,6.359-14.342,14.204-14.342c7.844,0,14.204,6.421,14.204,14.342
				c0,7.921-6.359,14.342-14.204,14.342C1491.247,447.145,1484.888,440.724,1484.888,432.803z"/>
		</g>
	</g>
	<g>
		<g>
			<g>
				<polygon style="fill:#5794BF;" points="2139.619,1185.89 2361.925,1185.89 2361.925,1427.315 2164.6,1427.315 				"/>
			</g>
			<g>
				<polygon style="fill:#73A0D1;" points="2248.702,1185.89 2476.653,1185.89 2466.646,1427.315 2248.702,1427.315 				"/>
			</g>
			<g>
				<polygon style="fill:#8FB3E3;" points="2144.615,1168.064 2484.46,1168.064 2490.333,1193.906 2144.615,1198.244 				"/>
			</g>
			<g>
				<path style="fill:#8FB3E3;" d="M2283.729,1391.311h154.904c4.721,0,8.653-3.657,9.041-8.408l5.074-62.245
					c0.435-5.337-3.737-9.911-9.041-9.911h-159.979c-5.01,0-9.071,4.101-9.071,9.159v62.245
					C2274.658,1387.21,2278.719,1391.311,2283.729,1391.311z"/>
			</g>
			<g>
				<path style="fill:#8FB3E3;" d="M2283.729,1292.609h154.904c4.721,0,8.653-3.657,9.041-8.408l5.074-62.245
					c0.435-5.337-3.737-9.911-9.041-9.911h-159.979c-5.01,0-9.071,4.101-9.071,9.159v62.245
					C2274.658,1288.508,2278.719,1292.609,2283.729,1292.609z"/>
			</g>
			<g>
				<polygon style="fill:#366F90;" points="2242.873,1168.064 2242.873,1197.011 2144.615,1198.244 2144.615,1168.064 				"/>
			</g>
			<g>
				<g>
					<path style="fill:#331832;" d="M2429.682,1427.312l2.57,11.983c0.821,6.285,5.549,6.326,7.708,6.285
						c3.404-0.054,5.854-5.924,4.993-11.341l-1.073-6.927H2429.682z"/>
				</g>
			</g>
			<g>
				<g>
					<path style="fill:#331832;" d="M2282.38,1427.312l-2.569,11.983c-0.821,6.285-5.549,6.326-7.708,6.285
						c-3.404-0.054-5.854-5.924-4.993-11.341l1.073-6.927H2282.38z"/>
				</g>
			</g>
			<g>
				<g>
					<g>
						<path style="fill:#331832;" d="M2356.35,1226.043c0-4.372,4.278-6.984,8.415-6.984c3.765,0,6.708,2.91,7.679,7.594l0,0
							c0.399,1.924,0.005,3.694-1.139,5.116c-1.408,1.749-3.914,2.836-6.541,2.836
							C2359.497,1234.604,2356.35,1230.251,2356.35,1226.043z M2370.753,1227.009c-0.302-1.456-1.626-6.208-5.989-6.208
							c-3.287,0-6.688,1.961-6.688,5.241c0,3.351,2.502,6.818,6.688,6.818c2.12,0,4.112-0.84,5.2-2.192
							C2370.781,1229.653,2371.046,1228.422,2370.753,1227.009L2370.753,1227.009z"/>
					</g>
				</g>
				<g>
					<g>
						<path style="fill:#331832;" d="M2364.472,1243.857L2364.472,1243.857c1.159,0,2.108-0.948,2.108-2.108v-8.239
							c0-1.159-0.948-2.108-2.108-2.108l0,0c-1.159,0-2.108,0.948-2.108,2.108v8.239
							C2362.365,1242.909,2363.313,1243.857,2364.472,1243.857z"/>
					</g>
				</g>
			</g>
			<g>
				<g>
					<g>
						<path style="fill:#331832;" d="M2356.35,1327.205c0-4.372,4.278-6.985,8.415-6.985c3.766,0,6.708,2.91,7.679,7.595l0,0
							c0.399,1.924,0.005,3.694-1.139,5.115c-1.408,1.749-3.914,2.836-6.541,2.836
							C2359.497,1335.766,2356.35,1331.413,2356.35,1327.205z M2370.753,1328.172c-0.302-1.456-1.626-6.208-5.989-6.208
							c-3.287,0-6.688,1.961-6.688,5.241c0,3.352,2.502,6.818,6.688,6.818c2.12,0,4.113-0.84,5.2-2.192
							C2370.781,1330.816,2371.046,1329.585,2370.753,1328.172L2370.753,1328.172z"/>
					</g>
				</g>
				<g>
					<g>
						<path style="fill:#331832;" d="M2364.472,1345.019L2364.472,1345.019c1.159,0,2.108-0.948,2.108-2.108v-8.239
							c0-1.159-0.948-2.108-2.108-2.108l0,0c-1.159,0-2.108,0.949-2.108,2.108v8.239
							C2362.365,1344.071,2363.313,1345.019,2364.472,1345.019z"/>
					</g>
				</g>
			</g>
		</g>
		<g>
			<g>
				<path style="fill:#EF8062;" d="M2298.831,1099.061l64.027-2.161l72.563,1.903l0.183,5.518l-70.187-3.155
					c-7.054,0.238-12.563,6.756-12.305,14.559l0,0c0.258,7.803,6.186,13.935,13.24,13.697l70.005-2.362l0.135,4.075l-136.447,4.604
					c-9.157,0.309-16.852-7.651-17.187-17.78l0,0C2282.522,1107.831,2289.674,1099.37,2298.831,1099.061z"/>
			</g>
			<g>
				<path style="fill:#EF8062;" d="M2346.885,1115.799L2346.885,1115.799c-0.335-10.129,6.816-18.59,15.973-18.899l72.563,1.903
					l0.183,5.518l-70.187-3.155c-7.054,0.238-12.563,6.756-12.305,14.559l0,0c0.258,7.803,6.186,13.935,13.24,13.697l70.005-2.362
					l0.135,4.075l-72.42,2.444C2354.915,1133.888,2347.22,1125.927,2346.885,1115.799z"/>
			</g>
			<g>
				<path style="fill:#E4ECFF;" d="M2365.417,1101.181l70.187,3.14l0,0c-6.333,1.023-8.245,7.519-9.124,10.985
					c-1.781,7.029,3.487,11.078,9.874,11.672l0.003,0.097l-70.004,2.362c-7.054,0.238-12.982-5.895-13.24-13.697l0,0
					C2352.854,1107.937,2358.363,1101.419,2365.417,1101.181z"/>
			</g>
			<g>
				<polygon style="fill:#331832;" points="2369.712,1120.823 2369.7,1120.439 2426.205,1118.533 2426.217,1118.916 				"/>
			</g>
			<g style="opacity:0.4;">
				<g>
					<path style="fill:#366F90;" d="M2353.679,1131.848c0.246,0,0.488-0.121,0.636-0.343c0.233-0.354,0.139-0.832-0.21-1.069
						c-0.056-0.038-5.572-3.902-6.459-14.701c-0.881-10.729,6.568-14.845,6.644-14.885c0.373-0.199,0.515-0.666,0.318-1.042
						c-0.199-0.378-0.66-0.517-1.032-0.321c-0.344,0.184-8.414,4.643-7.451,16.375c0.953,11.6,6.884,15.689,7.136,15.858
						C2353.389,1131.807,2353.535,1131.848,2353.679,1131.848z"/>
				</g>
			</g>
			<g>
				<polygon style="fill:#331832;" points="2426.478,1115.499 2383.072,1114.769 2383.078,1114.386 2426.483,1115.115 				"/>
			</g>
			<g style="opacity:0.4;">
				<g>
					<path style="fill:#366F90;" d="M2330.514,1127.757c-0.09-0.106-8.881-10.744-0.757-22.467c0.137-0.199,0.36-0.32,0.6-0.329
						l12.984-0.438c0.313,0.015,0.553,0.143,0.693,0.395c0.14,0.252,0.128,0.562-0.031,0.802c-0.036,0.056-3.645,5.618-2.322,10.963
						c1.374,5.552,3.736,9.681,3.76,9.723c0.135,0.234,0.138,0.523,0.008,0.761c-0.13,0.237-0.374,0.389-0.642,0.398l-13.686,0.461
						c-0.009,0-0.018,0.001-0.026,0.001C2330.872,1128.028,2330.659,1127.929,2330.514,1127.757z M2340.198,1117.058
						c-1.099-4.442,0.73-8.855,1.818-10.946l-11.222,0.378c-6.475,9.707-0.627,18.304,0.657,19.984l12.076-0.407
						C2342.703,1124.433,2341.209,1121.147,2340.198,1117.058z"/>
				</g>
			</g>
		</g>
		<g>
			<g>
				<path style="fill:#366F90;" d="M2434.887,1131.503h-64.063l-72.46,4.349v5.521l70.043-5.521c7.058,0,12.78,6.329,12.78,14.136
					l0,0c0,7.807-5.722,14.136-12.78,14.136h-70.043v4.078h136.523c9.162,0,16.589-8.215,16.589-18.35l0,0
					C2451.476,1139.719,2444.049,1131.503,2434.887,1131.503z"/>
			</g>
			<g>
				<path style="fill:#366F90;" d="M2387.413,1149.853L2387.413,1149.853c0-10.134-7.427-18.35-16.589-18.35l-72.46,4.349v5.521
					l70.043-5.521c7.058,0,12.78,6.329,12.78,14.136l0,0c0,7.807-5.722,14.136-12.78,14.136h-70.043v4.078h72.46
					C2379.986,1168.202,2387.413,1159.987,2387.413,1149.853z"/>
			</g>
			<g>
				<path style="fill:#E4ECFF;" d="M2368.407,1135.868l-70.043,5.506l0,0c6.363,0.809,8.489,7.237,9.482,10.671
					c2.013,6.965-3.119,11.189-9.482,11.999v0.096h70.043c7.058,0,12.78-6.329,12.78-14.136l0,0
					C2381.187,1142.197,2375.465,1135.868,2368.407,1135.868z"/>
			</g>
			<g>
				<rect x="2308.229" y="1155.261" style="fill:#331832;" width="56.536" height="0.383"/>
			</g>
			<g>
				<path style="fill:#331832;" d="M2381.573,1165.975l-0.895-1.246c0.052-0.038,5.438-4.087,5.968-14.915
					c0.526-10.757-7.056-14.62-7.133-14.657l0.679-1.378c0.35,0.173,8.563,4.358,7.988,16.111
					C2387.611,1161.512,2381.82,1165.799,2381.573,1165.975z"/>
			</g>
			<g>
				<polygon style="fill:#331832;" points="2307.856,1152.236 2307.836,1151.853 2351.193,1149.661 2351.213,1150.044 				"/>
			</g>
			<g>
				<path style="fill:#331832;" d="M2403.573,1139.235h-12.99c0,0,4.038,5.707,2.809,11.488c-1.229,5.781-3.511,10.049-3.511,10.049
					h13.693C2403.573,1160.772,2411.824,1150.332,2403.573,1139.235z"/>
			</g>
		</g>
	</g>
	<g>
		<g>
			<g>
				<path style="fill:#366F90;" d="M826.042,1437.678L826.042,1437.678c-4.197-0.057-7.208-6.413-6.156-12.264l17.711-98.692h22.773
					l-28.216,104.633C831.111,1435.22,828.7,1437.714,826.042,1437.678z"/>
			</g>
		</g>
		<g>
			<path style="fill:#366F90;" d="M837.072,1329.646c0,0,12.396-1.746,20.051,9.113l3.246-12.037l-22.652-1.258L837.072,1329.646z"
				/>
		</g>
	</g>
	<g>
		<path style="fill:#9BBDE2;" d="M752.12,841.407l109.353,333.809l282.757,160.826l1044.277,0c8.837,0,15.993-7.241,15.993-16.165
			c0,0,30.994-146.512-90.627-188.443c-121.637-41.93-244.863,20.873-319.911-3.391c-10.782-3.497-15.547,0.96-21.15-11.906
			c-33.423-76.586-1.296-274.103-209.776-274.846L752.12,841.407z"/>
	</g>
	<g>
		<g>
			<path style="fill:#366F90;" d="M2166.351,1444.661L2166.351,1444.661c4.204-0.057,7.219-6.413,6.166-12.264l-17.336-97.658
				h-23.502l25.163,103.123C2157.862,1444.661,2163.688,1444.698,2166.351,1444.661z"/>
		</g>
	</g>
	<g>
		<path style="fill:#8FB3E3;" d="M752.12,841.407l149.012,277.79c0,0,299.194,41.516,479.246,4.461
			c127.087-26.155,304.763-2.158,407.518-2.2c-33.423-76.586-16.38-279.425-224.86-280.167L752.12,841.407z"/>
	</g>
	<g>
		<path style="fill:#73A0D1;" d="M704.915,897.605l91.197,405.305c5.023,22.326,24.779,38.098,47.453,37.883l300.665-4.752
			c0,0,61.103-72.179-4.672-134.884c-50.75-48.381-132.094-19.436-207.145-43.712c-65.936-21.328-15.705-255.93-167.632-313.195
			C730.853,831.461,696.512,862.035,704.915,897.605z"/>
	</g>
	<g>
		<path style="fill:#68A1BF;" d="M871.067,932.85c-0.753,0-1.452-0.484-1.69-1.24c-13.362-42.447-51.795-70.161-52.181-70.436
			c-0.797-0.567-0.985-1.674-0.417-2.472c0.567-0.798,1.674-0.984,2.47-0.418c0.397,0.281,39.782,28.652,53.509,72.26
			c0.294,0.934-0.225,1.929-1.158,2.223C871.422,932.823,871.243,932.85,871.067,932.85z"/>
	</g>
	<g>
		<path style="fill:#68A1BF;" d="M901.131,1018.315c-0.76,0-1.462-0.492-1.695-1.255l-12.501-40.977
			c-0.285-0.936,0.242-1.927,1.178-2.213c0.938-0.285,1.927,0.243,2.213,1.178l12.501,40.977c0.286,0.936-0.242,1.927-1.178,2.213
			C901.477,1018.29,901.303,1018.315,901.131,1018.315z"/>
	</g>
	<g>
		<path style="fill:#4D86B5;" d="M1149.806,1287.525c-1.289,0-2.373-1.005-2.455-2.309c-0.01-0.167-1.152-16.878-10.158-36.085
			c-12.01-25.609-31.564-43.29-58.12-52.549c-1.284-0.447-1.962-1.852-1.515-3.136c0.447-1.283,1.851-1.965,3.136-1.514
			c34.775,12.125,52.388,36.756,61.039,55.284c9.352,20.029,10.489,36.984,10.532,37.697c0.083,1.356-0.948,2.523-2.305,2.608
			C1149.909,1287.523,1149.857,1287.525,1149.806,1287.525z"/>
	</g>
	<g>
		<g>
			<path style="fill:#FFB27D;" d="M1424.205,783.667c-16.255,8.5-28.136,11.247-28.136,11.247s-26.489-27.969-25.318-31.676
				c2.701-8.548,11.831-24.215,14.695-32.71c1.242-3.683,6.271-15.784,10.088-15.05c3.318,0.637,3.877,12.135,3.486,17.642
				c20.579-15.31,64.175-36.31,16.618,6.76c0.019,0.022,0.039,0.046,0.058,0.068c4.454-3.181,36.112-27.427,37.997-19.83
				c1.664,6.706-22.433,26.663-29.704,31.972c0.042,0.073,0.083,0.146,0.124,0.218c7.856-4.757,30.299-18.898,29.817-12.006
				c-0.606,8.651-22.314,26.941-22.314,26.941s24.09-18.823,24.616-8.76c0.359,6.862-21.548,19.1-28.961,23.717
				C1426.202,782.865,1425.185,783.337,1424.205,783.667z"/>
		</g>
		<g>
			<g>
				<path style="fill:#FFB27D;" d="M1409.448,789.622c9.124-8.986-34.789-28.979-34.789-28.979s-48.221,40.081-117.469,31.067
					c-39.424-5.132-84.453-35.96-86.817-42.123c-0.315-0.821-45.49,26.733-45.49,26.733c4.281,11.162,24.877,36.084,50.395,59.572
					C1228.066,884.482,1352.528,869.409,1409.448,789.622z"/>
			</g>
		</g>
		<g>
			<path style="fill:#331832;" d="M1346.443,1409.924c0,0,0.521,21.228,14.882,27.223c14.361,5.995,55.976,11.418,40.418,25.058
				c-8.927,7.827-50.979,2.746-62.851,2.74c-11.874-0.006-23.024,5.163-31.843-2.788c-9.703-8.747,0.026-52.254,0.026-52.254
				s10.243,5.342,19.457,5.108C1339.811,1414.674,1346.443,1409.924,1346.443,1409.924z"/>
		</g>
		<g>
			<path style="fill:#331832;" d="M1465.789,1400.164c0,0-0.172,21.234,13.985,27.694c14.157,6.461,55.573,13.241,39.578,26.365
				c-9.178,7.531-51.041,1.08-62.907,0.686c-11.868-0.394-23.18,4.408-31.735-3.827c-9.411-9.06,1.733-52.225,1.733-52.225
				s10.063,5.674,19.28,5.74C1459.006,1404.695,1465.789,1400.164,1465.789,1400.164z"/>
		</g>
		<g>
			<g>
				<path style="fill:#764678;" d="M1475.647,1415.46c24.52-2.792,42.523-24.387,40.83-49.008
					c-9.567-139.119-22.513-209.186-69.516-267.157c-30.197-37.243-74.297-72.585-127.19-91.897
					c-45.602-16.65-84.023-23.694-133.873-22.32c-81.292,2.243-118.368,17.569-118.368,17.569
					c-49.831,131.488,46.712,140.041,117.356,137.43c2.332-0.086,4.677-0.157,7.033-0.211
					c42.821-0.988,119.478,3.303,151.787,43.151c25.585,31.555,45.391,77.244,62.492,198.024
					c3.281,23.176,24.373,39.553,47.63,36.904L1475.647,1415.46z"/>
			</g>
		</g>
		<g>
			<g>
				<path style="fill:#764678;" d="M1359.069,1432.764c24.52-2.793,42.523-24.387,40.83-49.008
					c-9.567-139.119-22.513-209.187-69.516-267.157c-30.197-37.243-73.056-63.628-127.387-78.417
					c-38.775-10.555-83.713-15.211-133.563-13.837c-81.292,2.243-118.481-4.394-118.481-4.394
					c-51.532,167.259,184.967,112.308,253.242,175.792c29.75,27.663,68.324,81.821,85.425,202.601
					c3.281,23.176,24.373,39.553,47.63,36.905L1359.069,1432.764z"/>
			</g>
		</g>
		<g>
			<path style="fill:#CAD887;" d="M972.347,784.253c0,0,24.98-66.107,110.347-61.526c85.367,4.581,156.33,28.012,168.722,266.259
				c0,0,0.08,15.551-71.746,35.107c-46.645,12.7-97.063-0.599-190.386,60.804c-21.985,14.465-59.456-2.412-60.907-28.688
				C925.486,1003.875,936.253,903.927,972.347,784.253z"/>
		</g>
		<g>
			<path style="fill:#CAD887;" d="M897.349,794.698l75.01,23.763c0,0,155.307,18.18,196.709,11.541
				c41.401-6.639,67.513-48.625,67.513-48.625s-17.882-24.349-94.056-48.886c-22.361-7.203-52.283-9.088-59.827-9.76
				c-12.664-1.118-24.84-2.278-37.268-0.975C923.976,734.491,897.349,794.698,897.349,794.698z"/>
		</g>
		<g>
			<path style="fill:#331832;" d="M897.349,794.698c-4.016,8.945,13.556,17.336,35.098,25.322
				c21.542,7.985,40.755,9.595,42.913,3.596c2.158-6-13.556-17.336-35.098-25.322C918.72,790.309,899.961,788.88,897.349,794.698z"
				/>
		</g>
		<g>
			<path style="fill:#FFB27D;" d="M1067.309,711.227l12.856-22.673l3.741-6.601l22.003-38.813l-7.36,41.785l-4.421,25.08
				l-1.399,7.939c-0.95,5.389,2.06,7.224,5.008,12.732c1.194,2.231,8.973,15.881-3.813,18.482
				c-15.927,3.242-40.954-12.414-48.493-27.4C1045.515,721.756,1063.155,718.554,1067.309,711.227z"/>
		</g>
		<g>
			<g>
				<path style="fill:#5C305D;" d="M1142.518,634.765c0,0,0.426,10.653-4.967,22.713c-5.394,12.06-11.452-21.808-11.452-21.808
					L1142.518,634.765z"/>
			</g>
			<g>
				
					<ellipse transform="matrix(0.0847 -0.9964 0.9964 0.0847 351.4782 1699.1095)" style="fill:#FFB27D;" cx="1100.544" cy="658.249" rx="45.668" ry="37.874"/>
			</g>
			<g>
				<path style="fill:#331832;" d="M1064.676,642.069l18.316,2.059c4.027,0.452,8.091-0.875,10.952-3.745
					c4.924-4.941,9.986-6.924,26.555-2.643c20.981,5.42,37.707-4.136,42.413-14.706c4.803-10.787-4.347-20.813-16.151-17.75
					c-11.804,3.063-4.354-9.149-14.264-12.786c-18.52-6.796-25.316,7.14-40.843,3.243c-20.359-5.11-60.481,2.435-50.959,42.325
					L1064.676,642.069z"/>
			</g>
			<g>
				<g>
					<path style="fill:#080435;" d="M1102.899,656.806c0.219-0.08,0.399-0.257,0.473-0.497c0.124-0.405-0.102-0.833-0.506-0.958
						c-0.238-0.073-5.607-2.294-9.721,3.03c-0.259,0.336-0.214,0.814,0.117,1.08c0.331,0.266,0.748,0.148,1.08-0.117
						c3.318-2.653,7.874-2.585,8.072-2.525C1102.579,656.869,1102.748,656.861,1102.899,656.806z"/>
				</g>
			</g>
			<g>
				<path style="fill:#080435;" d="M1097.543,665.716c0.094,1.83,1.245,3.258,2.573,3.19c1.328-0.068,2.328-1.606,2.235-3.435
					c-0.093-1.83-1.245-3.258-2.573-3.19C1098.45,662.348,1097.45,663.886,1097.543,665.716z"/>
			</g>
			<g>
				<g>
					<path style="fill:#080435;" d="M1131.133,660.648c0.18,0.008,0.362-0.09,0.487-0.285c0.211-0.329,0.18-0.811-0.07-1.078
						c-0.147-0.157-3.293-4.215-7.837-0.804c-0.286,0.215-0.399,0.676-0.245,1.046c0.155,0.37,0.487,0.416,0.804,0.293
						c3.166-1.228,6.387,0.53,6.51,0.659C1130.886,660.587,1131.009,660.642,1131.133,660.648z"/>
				</g>
			</g>
			<g>
				<path style="fill:#080435;" d="M1122.613,666.839c-0.611,1.727-0.09,3.487,1.164,3.93c1.253,0.443,2.765-0.598,3.375-2.325
					c0.611-1.727,0.089-3.487-1.164-3.93C1124.734,664.07,1123.223,665.111,1122.613,666.839z"/>
			</g>
			<g>
				<path style="fill:#5C305D;" d="M1040.695,638.065c0,0,6.529,29.394,23.64,35.188c0,0-9.733-23.442,22.869-29.3
					C1087.203,643.953,1060.703,633.633,1040.695,638.065z"/>
			</g>
			<g>
				<path style="fill:#FFB27D;" d="M1062.199,658.201c3.229,3.207,8.17,3.467,11.036,0.582c2.866-2.886,2.571-7.825-0.658-11.031
					c-3.229-3.207-8.17-3.467-11.036-0.582C1058.675,650.055,1058.97,654.994,1062.199,658.201z"/>
			</g>
			<g>
				<path style="fill:#5C305D;" d="M1087.203,643.953c0,0-7.292,21.874-3.659,27.105c3.633,5.231,33.335,13.636,48.57,11.28l0,0
					c-2.912,14.435-15.828,24.917-30.537,24.197c-4.866-0.238-9.723-1.294-14.361-3.192l0,0
					c-9.458-3.87-18.129-10.028-20.188-20.037c-0.627-3.046,6.697-19.337,6.697-19.337s3.541-9.727-1.148-16.216
					C1072.577,647.752,1080.63,643.175,1087.203,643.953z"/>
			</g>
			<g>
				<path style="fill:#FFFFFF;" d="M1122.932,688.794c0,0-12.216,0.599-24.551-3.378c0,0-0.703,12.074,12.557,12.538
					C1118.649,698.224,1122.932,688.794,1122.932,688.794z"/>
			</g>
			<g>
				<path style="fill:#331832;" d="M1145.183,603.087c-5.877-1.096-5.31-6.173-5.304-6.224l1.026,0.127
					c-0.02,0.17-0.436,4.167,4.468,5.082L1145.183,603.087z"/>
			</g>
			<g>
				<path style="fill:#FFFFFF;" d="M1127.791,633.12l-0.035-0.515c0.242-0.016,24.209-1.767,27.675-13.151
					c0.98-3.219,0.908-5.514-0.221-7.016c-1.809-2.409-6.08-2.346-9.845-2.297c-0.579,0.008-1.147,0.02-1.687,0.015l0.001-0.516
					c0.539-0.004,1.103-0.006,1.679-0.014c3.892-0.054,8.298-0.115,10.266,2.502c1.235,1.643,1.334,4.089,0.303,7.477
					c-1.482,4.867-6.829,8.748-15.463,11.223C1133.979,632.686,1127.851,633.116,1127.791,633.12z"/>
			</g>
			<g>
				<path style="fill:#FFFFFF;" d="M1097.974,600.965c-4.641,0-10.017-0.792-16.023-2.983l0.177-0.485
					c21.337,7.783,34.607-2.256,34.738-2.358l0.318,0.407C1117.087,595.622,1110.021,600.965,1097.974,600.965z"/>
			</g>
		</g>
		<g>
			<path style="fill:#020202;" d="M1393.693,1305.528l-0.932-0.002c0.001-0.528-0.076-53.49-19.757-110.368
				c-11.552-33.384-27.498-61.565-47.394-83.76c-24.857-27.729-55.992-46.145-92.541-54.737l0.214-0.907
				c36.742,8.636,68.042,27.152,93.03,55.031c19.98,22.293,35.988,50.585,47.579,84.092
				C1393.619,1251.902,1393.694,1304.999,1393.693,1305.528z"/>
		</g>
		<g>
			<g>
				<g>
					<path style="fill:#FFB27D;" d="M1117.981,1025.97c14.606-2.167,26.056-7.642,34.698-16.426
						c16.318-16.587,16.447-39.187,11.599-53.5l-19.096-7.612c-1.589-4.694-32.853,18.265-32.798,18.238
						c-0.147,0.075-15.494,7.094-75.31-13.067c-41.639-14.034-65.312-39.21-72.372-76.965c-5.323-28.462,3.933-43.075,5.91-50.489
						c0.263-0.987-5.133-13.399-27.362-20.75c-24.002-7.937-32.721-1.751-32.721-1.751c-3.582,13.428-10.886,44.119-3.465,83.811
						c7.71,41.233,33.326,95.92,111.573,122.293C1061.305,1024.134,1093.921,1029.54,1117.981,1025.97z"/>
				</g>
			</g>
			<g style="opacity:0.3;">
				<path style="fill:#EC865C;" d="M965.262,963.294c-0.272,0-0.551-0.016-0.836-0.049c-3.471-0.399-7.635-3.198-10.867-7.304
					c-4.949-6.289-6.111-13.388-2.645-16.163c1.083-0.866,2.521-1.225,4.163-1.036c3.471,0.399,7.635,3.198,10.867,7.304
					c4.949,6.288,6.111,13.388,2.645,16.163C967.695,962.925,966.557,963.294,965.262,963.294z M954.228,940.729
					c-0.825,0-1.51,0.214-2.041,0.639c-2.496,1.998-1.135,8.095,2.973,13.314c2.864,3.639,6.593,6.206,9.499,6.54
					c1.106,0.128,1.999-0.076,2.657-0.602c2.495-1.998,1.134-8.095-2.973-13.314c-2.864-3.639-6.593-6.206-9.499-6.54
					C954.631,940.741,954.425,940.729,954.228,940.729z"/>
			</g>
			<g>
				<g>
					<path style="fill:#FFFFFF;" d="M1102.519,799.731c1.569,2.538,3.858,4.535,6.112,6.491c4.865,4.222,9.73,8.444,14.595,12.666
						c5.67,4.92,11.706,10.478,12.844,17.898c0.821,5.352-1.062,11.087,0.962,16.11c2.149,5.331,8.11,8.151,13.8,8.969
						c5.69,0.818,20.961,1.547,26.173,9.988c1.67,2.705,5.694,4.287,9.807,3.662c7.355-1.117,9.497-8.938,4.44-14.796
						c-2.862-3.316-5.497-6.818-8.038-10.386c-4.315-6.059-6.837-13.379-7.17-20.811c-0.42-9.374,2.354-19.663-2.676-27.584
						c-2.972-4.68-8.102-7.455-12.992-10.068c-9.417-5.032-19.734-11.472-21.797-21.948c-0.856-4.346-0.254-9.276-2.966-12.778
						c-2.154-2.78-5.86-3.845-9.359-4.198c-3.182-0.32-6.961,0.112-8.62,2.846c-1.51,2.488-0.547,5.676-0.801,8.576
						c-0.686,7.814-9.612,11.848-13.889,18.423C1099.691,787.788,1099.385,794.66,1102.519,799.731z M1115.474,788.391
						c1.744-2.923,5.535-4.45,8.819-3.554c1.123,0.307,2.184,0.874,3.006,1.698c1.241,1.245,1.85,2.966,2.741,4.481
						c1.299,2.213,3.256,4.035,5.555,5.175c3.114,1.543,6.685,1.804,10.153,2.014c5.58,0.338,16.328,1.724,16.128,9.624
						c-0.116,4.574-4.815,5.735-8.644,5.917c-5.916,0.28-10.459-2.312-15.717-4.453c-6.763-2.755-14.948-3.288-20.12-9.034
						C1114.522,797.069,1113.275,792.077,1115.474,788.391z"/>
				</g>
				<g>
					<path style="fill:#EF8062;" d="M1119.586,898.942c0,0,14.616,102.644,25.298,103.591c10.682,0.947,50.709,3.091,62.913,0
						c12.204-3.091,18.938-105.068,15.571-107.525C1220.001,892.551,1115.121,887.237,1119.586,898.942z"/>
				</g>
			</g>
			<g>
				<g>
					<g>
						<path style="fill:#FFB27D;" d="M1118.657,962.28c0,0,9.414-28.492,25.533-35.468c16.12-6.976,41.984-3.7,32.911,2.746
							c-9.074,6.446-22.943,11.48-22.943,11.48s30.137-9.361,29.274-1.365c-0.863,7.996-27.152,15.885-27.152,15.885
							s36.749-8.282,33.488-0.992c-3.261,7.29-31.223,13.383-31.223,13.383s34.499-6.339,30.513,2.04
							c-3.987,8.379-28.544,5.054-29.407,13.05c-0.863,7.996-6.996,39.466-29.515,39.78L1118.657,962.28z"/>
					</g>
				</g>
				<g>
					<path style="fill:#E9845C;" d="M1143.413,947.66l-1.172-0.556c2.48-5.218,11.438-6.647,11.818-6.706l0.197,1.281
						C1154.17,941.692,1145.598,943.064,1143.413,947.66z"/>
				</g>
				<g>
					<path style="fill:#E9845C;" d="M1143.271,963.521l-1.039-0.776c4.891-6.541,13.593-7.78,13.961-7.829l0.173,1.285
						C1156.282,956.213,1147.83,957.423,1143.271,963.521z"/>
				</g>
				<g>
					<path style="fill:#E9845C;" d="M1146.446,975.292l-1.214-0.456c2.173-5.786,12.766-7.459,13.215-7.527l0.195,1.282
						C1158.54,968.606,1148.352,970.216,1146.446,975.292z"/>
				</g>
			</g>
		</g>
	</g>
	<g>
		<g>
			<path style="fill:#68A1BF;" d="M770.543,1397.724c0,0-1.494,3.515-4.753,9.337c-0.099,0.15-0.185,0.324-0.272,0.486
				c-0.012,0.013-0.012,0.013-0.025,0.025c-5.716,10.097-16.605,26.726-34.036,43.804c-5.951,5.834-14.012,10.384-23.481,13.762
				h-0.012l-0.198,0.075c-2.025,0.71-4.111,1.384-6.247,1.982c0,0,0,0-0.012,0c-30.481,8.726-72.332,6.856-105.196-2.63h-0.012
				l-5.654-1.745h-0.012c-2.815-0.922-5.543-1.895-8.185-2.929c-8.506-3.328-15.42-7.542-21.037-12.204
				c-0.716-0.598-1.407-1.197-2.086-1.808c-22.79-20.481-22.382-48.155-22.382-48.155H770.543z"/>
		</g>
		<g>
			<path style="fill:#366F90;" d="M778.037,1355.89v30.279c0,18.736-56.345,33.919-125.862,33.919
				c-69.505,0-125.862-15.183-125.862-33.919v-30.279c0-9.511,32.456-17.664,78.468-21.03c14.63-1.084,30.629-1.683,47.394-1.683
				C721.692,1333.177,778.037,1343.337,778.037,1355.89z"/>
		</g>
		<g>
			<path style="fill:#080435;" d="M778.037,1355.89c0,1.833-1.185,3.603-3.432,5.298c-13.197,9.973-62.987,17.427-122.43,17.427
				c-16.642,0-32.555-0.586-47.086-1.658c-46.184-3.366-78.776-11.518-78.776-21.067c0-9.511,32.456-17.664,78.468-21.03
				c14.63-1.084,30.629-1.683,47.394-1.683C721.692,1333.177,778.037,1343.337,778.037,1355.89z"/>
		</g>
		<g>
			<g>
				<path style="fill:#331832;" d="M659.759,1042.145c-12.074,7.157-17.918,5.412-20.696,0.634
					c-2.778-4.779-1.439-10.781,10.635-17.939c21.995-13.038,37.656-10.687,37.656-10.687S682.075,1028.917,659.759,1042.145z"/>
			</g>
			<g>
				<path style="fill:#331832;" d="M659.154,1133.755c-9.131,10.717-15.22,10.976-19.38,7.362c-4.16-3.614-4.817-9.731,4.314-20.448
					c16.633-19.523,32.205-22.416,32.205-22.416S676.029,1113.947,659.154,1133.755z"/>
			</g>
			<g>
				<g>
					<g>
						<path style="fill:#331832;" d="M653.574,1372.171l-2.641-0.233c0.035-0.409,3.367-41.798-10.407-102.425
							c-12.711-55.939-43.002-140.168-115.133-223.762l1.998-1.758c72.529,84.056,102.974,168.772,115.743,225.04
							C656.979,1330.039,653.609,1371.756,653.574,1372.171z"/>
					</g>
				</g>
				<g>
					<g>
						<path style="fill:#331832;" d="M598.414,1149.537l-2.232-1.442c51.901-81.829,20.626-181.185,20.304-182.179l2.518-0.832
							C619.33,966.089,651.005,1066.621,598.414,1149.537z"/>
					</g>
				</g>
				<g>
					<g>
						<path style="fill:#331832;" d="M558.509,1106.123c-26.917,0-47.258-13.607-47.491-13.766l1.481-2.218
							c0.258,0.176,26.327,17.573,58.147,12.324l0.428,2.641C566.769,1105.814,562.562,1106.123,558.509,1106.123z"/>
					</g>
				</g>
				<g>
					<g>
						<path style="fill:#331832;" d="M649.104,1311.886c-54.432-6.25-98.543-33.049-131.109-79.648
							c-1.129-1.613-2.195-3.138-2.511-3.412c0.004,0.004,0.097,0.083,0.272,0.141l0.837-2.537c0.742,0.249,1.209,0.892,3.566,4.266
							c32.114,45.949,75.596,72.371,129.243,78.531L649.104,1311.886z"/>
					</g>
				</g>
				<g>
					<g>
						<path style="fill:#331832;" d="M572.139,1283.074l-2.559-0.699c9.403-35.054-13.746-86.599-13.98-87.116l2.407-1.118
							c0.059,0.132,6.025,13.323,10.717,30.742C573.073,1241.022,577.197,1264.218,572.139,1283.074z"/>
					</g>
				</g>
				<g>
					<g>
						<path style="fill:#331832;" d="M523.623,1030.833c14.02,12.77,15.211,19.904,11.535,24.018
							c-3.676,4.114-10.826,3.651-24.846-9.118c-25.54-23.262-31.228-41.955-31.228-41.955S497.711,1007.231,523.623,1030.833z"/>
					</g>
				</g>
				<g>
					<g>
						<path style="fill:#331832;" d="M518.125,1083.707c17.181,7.907,20.446,14.347,18.17,19.389
							c-2.276,5.042-9.232,6.777-26.413-1.13c-31.297-14.404-42.303-30.495-42.303-30.495S486.372,1069.093,518.125,1083.707z"/>
					</g>
				</g>
				<g>
					<g>
						<path style="fill:#331832;" d="M563.497,1186.554c6.414,12.567,4.367,18.363-0.511,20.901
							c-4.878,2.538-10.74,0.858-17.154-11.709c-11.683-22.892-8.497-38.553-8.497-38.553S551.643,1163.328,563.497,1186.554z"/>
					</g>
				</g>
				<g>
					<g>
						<path style="fill:#331832;" d="M585.612,1063.501c3.193,13.765-0.188,18.884-5.531,20.147
							c-5.343,1.264-10.624-1.806-13.818-15.571c-5.817-25.075,1.046-39.482,1.046-39.482S579.71,1038.061,585.612,1063.501z"/>
					</g>
				</g>
				<g>
					<g>
						<path style="fill:#331832;" d="M607.191,1268.9c-0.767,14.116-5.437,18.069-10.917,17.765
							c-5.48-0.304-9.693-4.748-8.926-18.865c1.397-25.715,11.994-37.593,11.994-37.593S608.609,1242.81,607.191,1268.9z"/>
					</g>
				</g>
				<g>
					<g>
						<path style="fill:#331832;" d="M529.965,1229.846c8.93,10.889,8.159,16.993,3.933,20.527
							c-4.227,3.534-10.309,3.16-19.239-7.729c-16.267-19.836-16.475-35.821-16.475-35.821S513.461,1209.722,529.965,1229.846z"/>
					</g>
				</g>
				<g>
					<g>
						<path style="fill:#331832;" d="M624.591,954.245c4.4,18.54,1.383,25.102-3.954,26.393
							c-5.337,1.291-10.972-3.177-15.372-21.717c-8.015-33.774-2.227-52.435-2.227-52.435S616.459,919.979,624.591,954.245z"/>
					</g>
				</g>
			</g>
		</g>
		<g>
			<path style="fill:#366F90;" d="M655.481,1375.747c0,0-69.027-260.135-138.23-238.571
				c-69.203,21.564,84.505,163.965,102.223,240.335L655.481,1375.747z"/>
		</g>
		<g>
			<g>
				<path style="fill:#ACC9C5;" d="M645.346,1364.002c0,0-105.619-208.738-171.533-177.563
					c-65.914,31.176,107.429,123.979,135.899,185.731L645.346,1364.002z"/>
			</g>
			<g>
				<g>
					<path style="fill:#C7DDDA;" d="M624.966,1368.967c-36.109-82.197-131.357-153.903-132.314-154.618l1.739-2.376
						c0.963,0.719,96.824,72.879,133.25,155.797L624.966,1368.967z"/>
				</g>
			</g>
		</g>
		<g>
			<g>
				<path style="fill:#CCD39C;" d="M863.847,1184.397c-0.6,1.478-1.215,2.956-1.874,4.434c-4.318,9.755-10.057,19.289-16.439,27.581
					c-7.129,9.267-8.607,19.348-8.08,29.502c0,0.281,0.029,0.562,0.044,0.857c0.937,15.106,6.06,30.33,3.25,43.174
					c-0.205,0.902-0.439,1.803-0.732,2.69c-2.254,7.065-7.334,13.317-17.434,18.313c-33.843,16.717-39.245,15.357-42.26,30.02
					c-0.19,0.872-0.351,1.803-0.527,2.794c-0.468,2.793-0.922,6.09-1.478,10.066c0,0,0.644,4.449-3.704,7.361
					c-11.754,8.883-52.463,15.756-103.155,17.16c-0.937,0.03-1.859,0.045-2.796,0.074c-5.387,0.133-10.891,0.192-16.483,0.192
					c-16.658,0-32.555-0.576-47.091-1.655c-3.615-9.386-7.026-24.861-0.307-42.095c2.459-6.326,6.309-12.889,12.003-19.466
					c30.301-34.942,54.659-28.808,48.965-90.635c-0.059-0.694-0.132-1.404-0.205-2.128c-0.059-0.577-0.117-1.168-0.176-1.759
					c-7.055-66.011,81.257-37.469,103.331-59.758c22.074-22.289,37.108-47.269,76.836-37.469
					C873.479,1130.551,874.358,1157.718,863.847,1184.397z"/>
			</g>
		</g>
		<g>
			<g>
				<g>
					<path style="fill:#C2C68E;" d="M857.568,1131.304c-33.243,29.458-60.851,57.852-83.716,84.265
						c-0.747,0.857-1.479,1.714-2.21,2.572c-33.478,39.006-56.533,73.593-72.078,100.73c-0.454,0.798-0.893,1.582-1.332,2.35
						c-16.805,29.739-24.416,50.166-26.773,57.127c-0.937,0.03-1.859,0.045-2.796,0.074c3.177-9.637,20.259-56.699,69.18-122.325
						c0.542-0.739,1.098-1.478,1.654-2.217c27.74-36.893,65.462-79.52,116.33-124.587L857.568,1131.304z"/>
				</g>
			</g>
			<g>
				<g>
					<path style="fill:#C2C68E;" d="M717.429,1237.596c-36.211-1.315-52.196-13.143-52.859-13.646l1.59-2.14
						c0.156,0.118,16.078,11.831,51.365,13.111L717.429,1237.596z"/>
				</g>
			</g>
			<g>
				<g>
					<path style="fill:#C2C68E;" d="M739.354,1256.708c-14.361-5.423-26.146-20.769-34.081-44.376
						c-5.943-17.679-7.699-33.997-7.715-34.16l2.634-0.282c0.067,0.637,7.07,63.842,40.093,76.312L739.354,1256.708z"/>
				</g>
			</g>
			<g>
				<g>
					<path style="fill:#C2C68E;" d="M777.607,1218.313c-4.179,0-6.627-0.227-6.739-0.239l0.264-2.661
						c0.515,0.052,52.066,4.781,92.364-31.412l1.759,1.999C832.785,1215.165,793.18,1218.313,777.607,1218.313z"/>
				</g>
			</g>
			<g>
				<g>
					<path style="fill:#C2C68E;" d="M837.238,1248.596c-18.243-2.656-29.738-11.001-36.168-17.534
						c-6.999-7.112-9.635-13.544-9.745-13.815l2.455-1.009c0.1,0.248,10.435,24.848,43.838,29.71L837.238,1248.596z"/>
				</g>
			</g>
			<g>
				<g>
					<path style="fill:#C2C68E;" d="M765.296,1344.893c-39.463,0-68.083-24.483-68.403-24.763l1.73-2.027
						c0.352,0.306,35.8,30.584,81.821,22.855l0.435,2.641C775.533,1344.495,770.325,1344.893,765.296,1344.893z"/>
				</g>
			</g>
			<g>
				<g>
					<path style="fill:#C2C68E;" d="M726.123,1335.899l-2.247-1.416c7.872-12.73,26.227-29.83,68.963-39.005
						c25.421-5.459,47.82-5.529,48.043-5.53v2.676C840.002,1292.623,752.553,1293.162,726.123,1335.899z"/>
				</g>
			</g>
		</g>
		<g>
			<g>
				<g>
					<path style="fill:#366F90;" d="M596.299,1464.565c11.987-1.022,25.901-2.618,40.74-5.098c2-0.324,4.012-0.673,6.037-1.035
						c41.752-7.554,89.591-22.251,122.418-50.86c0.161-0.125,0.309-0.249,0.457-0.386l-0.16-0.125l-1.778-1.384
						c-47.505,41.735-127.455,53.74-173.368,57.143c-0.012,0-0.012,0-0.012,0L596.299,1464.565z"/>
				</g>
			</g>
			<g>
				<g>
					<path style="fill:#366F90;" d="M701.52,1467.196c0,0,0,0-0.012,0c-0.198,0-0.395,0-0.605-0.012
						c-17.21-0.524-38.555-2.618-63.863-7.691v-0.025h0.012l0.58-2.094c1.839,0.374,3.654,0.723,5.444,1.06
						c26.247,4.924,47.937,6.582,64.888,6.707c0.012,0,0.012,0,0.012,0L701.52,1467.196z"/>
				</g>
			</g>
			<g>
				<g>
					<path style="fill:#366F90;" d="M684.174,1397.724c-22.642,16.766-60.839,36.936-122.763,49.963
						c-0.716-0.598-1.407-1.197-2.086-1.808c5.876-1.222,11.531-2.506,16.975-3.839c0.012,0,0.012,0,0.012,0h0.013
						c2.728-0.673,5.42-1.359,8.037-2.057c0.012,0,0.012,0,0.012,0h0.012c46.036-12.204,76.394-28.297,95.826-42.259H684.174z"/>
				</g>
			</g>
			<g>
				<g>
					<path style="fill:#366F90;" d="M619.682,1397.724c-7.148,14.373-20.086,31.65-43.37,44.315c0,0,0,0-0.012,0
						c-0.062,0.037-0.111,0.062-0.173,0.1l1.457,1.82c2.358-1.284,4.617-2.605,6.778-3.977c0.012,0,0.012,0,0.012,0
						c20.123-12.727,31.629-28.821,38.16-42.259H619.682z"/>
				</g>
			</g>
		</g>
	</g>
	<g>
		<g>
			<path style="fill:#B8D5DC;" d="M406.658,1468.305c0,0-36.503-37.577-23.943-58.978c12.56-21.401,33.755,45.973,33.755,45.973
				s-10.99-79.668,11.775-81.051c22.765-1.384,0,81.051,0,81.051s8.439-19.221,16.681-20.41c8.242-1.189,5.888,16.299-8.831,33.415
				H406.658z"/>
		</g>
		<g>
			<path style="fill:#444092;" d="M409.263,1469.24c-0.104-0.107-10.548-10.915-19.096-24.568
				c-11.659-18.625-14.437-33.41-8.256-43.942c2.306-3.93,5.075-5.734,8.238-5.382c6.391,0.725,13.586,10.482,21.995,29.83
				c2.518,5.793,4.749,11.583,6.499,16.381c-2.013-20.902-4.341-62.495,7.084-76.436c2.459-3.001,5.454-4.629,8.902-4.839
				c3.359-0.208,6.129,1,8.22,3.582c10.289,12.696,1.04,57.912-4.046,79.073c3.786-6.187,9.153-13.071,14.637-13.862
				c2.584-0.368,4.65,0.592,5.816,2.718c3.356,6.116-1.197,21.772-14.623,37.387l-2.036-1.75
				c13.205-15.356,16.793-29.813,14.306-34.346c-0.623-1.136-1.604-1.563-3.08-1.352c-7.064,1.019-15.305,16.488-17.884,22.362
				l-2.522-0.897c0.05-0.181,5.05-18.381,8.398-38.289c4.379-26.034,4.015-43.1-1.053-49.353c-1.535-1.896-3.491-2.739-5.971-2.593
				c-2.709,0.165-4.995,1.428-6.989,3.861c-14.43,17.608-5.214,85.861-5.119,86.548l-2.61,0.586
				c-4.766-15.146-19.487-54.723-30.228-55.941c-2.037-0.231-3.876,1.101-5.62,4.073c-13.566,23.115,26.555,64.862,26.962,65.282
				L409.263,1469.24z"/>
		</g>
	</g>
	<g>
		<g>
			<path style="fill:#B8D5DC;" d="M930.799,1452.209c0,0-36.503-37.577-23.942-58.978c12.56-21.401,33.755,45.974,33.755,45.974
				s-10.99-79.668,11.775-81.052c22.765-1.384,0,81.052,0,81.052s8.439-19.222,16.681-20.411c8.242-1.189,5.888,16.299-8.831,33.415
				H930.799z"/>
		</g>
		<g>
			<path style="fill:#444092;" d="M933.403,1453.145c-0.104-0.107-10.549-10.916-19.096-24.568
				c-11.659-18.625-14.437-33.41-8.256-43.942c2.306-3.93,5.078-5.737,8.238-5.382c6.392,0.725,13.586,10.483,21.995,29.829
				c2.518,5.793,4.749,11.583,6.499,16.38c-2.013-20.901-4.34-62.493,7.084-76.435c2.46-3.001,5.455-4.629,8.903-4.839
				c3.363-0.208,6.128,1,8.219,3.582c10.289,12.697,1.04,57.911-4.046,79.073c3.786-6.188,9.152-13.071,14.636-13.862
				c2.585-0.369,4.65,0.592,5.816,2.718c3.356,6.116-1.196,21.772-14.623,37.387l-2.036-1.75
				c13.205-15.356,16.793-29.813,14.306-34.346c-0.623-1.135-1.602-1.562-3.08-1.352c-7.059,1.018-15.302,16.487-17.883,22.362
				l-2.522-0.897c0.05-0.181,5.05-18.38,8.399-38.289c4.379-26.034,4.015-43.1-1.053-49.353c-1.536-1.896-3.49-2.737-5.971-2.593
				c-2.709,0.165-4.995,1.428-6.989,3.861c-14.431,17.609-5.214,85.861-5.119,86.548l-2.61,0.586
				c-4.766-15.146-19.486-54.723-30.228-55.941c-2.045-0.231-3.876,1.102-5.62,4.073c-13.566,23.115,26.555,64.862,26.962,65.282
				L933.403,1453.145z"/>
		</g>
	</g>
	<g>
		<g>
			<path style="fill:#B8D5DC;" d="M2561.007,1473.439c0,0-36.502-37.576-23.942-58.978c12.56-21.401,33.755,45.974,33.755,45.974
				s-10.99-79.668,11.775-81.052c22.765-1.383,0,81.052,0,81.052s8.439-19.222,16.681-20.411c8.243-1.189,5.888,16.299-8.831,33.415
				H2561.007z"/>
		</g>
		<g>
			<path style="fill:#444092;" d="M2563.612,1474.374c-0.104-0.107-10.549-10.915-19.095-24.567
				c-11.66-18.625-14.438-33.41-8.256-43.942c2.306-3.929,5.079-5.729,8.238-5.382c6.391,0.725,13.585,10.482,21.994,29.829
				c2.518,5.793,4.749,11.583,6.499,16.38c-2.012-20.901-4.341-62.494,7.084-76.436c2.46-3.001,5.454-4.628,8.903-4.838
				c3.364-0.208,6.127,1,8.219,3.582c10.289,12.696,1.04,57.913-4.046,79.074c3.787-6.188,9.154-13.072,14.637-13.863
				c2.584-0.369,4.65,0.592,5.816,2.718c3.357,6.116-1.195,21.772-14.623,37.386l-2.036-1.75
				c13.205-15.355,16.793-29.812,14.305-34.345c-0.622-1.135-1.601-1.562-3.079-1.352c-7.058,1.018-15.302,16.487-17.884,22.361
				l-2.522-0.897c0.05-0.181,5.05-18.38,8.399-38.289c4.379-26.034,4.015-43.1-1.053-49.353c-1.536-1.896-3.488-2.734-5.971-2.593
				c-2.71,0.165-4.996,1.427-6.99,3.86c-14.43,17.608-5.213,85.862-5.118,86.549l-2.61,0.586
				c-4.765-15.146-19.486-54.724-30.228-55.941c-2.032-0.229-3.876,1.101-5.62,4.073c-13.572,23.126,26.554,64.861,26.962,65.281
				L2563.612,1474.374z"/>
		</g>
	</g>
	<g>
		<g>
			<path style="fill:#B8D5DC;" d="M2221.944,1550.792c0,0-25.276-26.02-16.579-40.839c8.697-14.819,23.374,31.834,23.374,31.834
				s-7.61-55.166,8.154-56.124s0,56.124,0,56.124s5.844-13.31,11.551-14.133s4.077,11.286-6.115,23.138H2221.944z"/>
		</g>
		<g>
			<path style="fill:#444092;" d="M2223.748,1551.44c-0.073-0.074-7.305-7.558-13.223-17.012
				c-8.073-12.896-9.997-23.133-5.716-30.428c1.597-2.722,3.522-3.979,5.703-3.726c7.405,0.84,15.515,20.271,19.72,31.873
				c-1.391-14.513-2.972-43.177,4.916-52.803c1.704-2.078,3.777-3.205,6.166-3.351c2.338-0.137,4.244,0.694,5.691,2.48
				c7.125,8.792,0.72,40.102-2.802,54.755c2.623-4.285,6.338-9.051,10.135-9.599c1.79-0.256,3.22,0.41,4.027,1.882
				c2.324,4.235-0.828,15.076-10.127,25.889l-1.408-1.213c9.144-10.634,11.628-20.645,9.906-23.783
				c-0.432-0.787-1.119-1.083-2.132-0.936c-4.888,0.705-10.597,11.416-12.384,15.484l-1.747-0.621
				c0.035-0.126,3.498-12.727,5.816-26.512c3.032-18.028,2.781-29.845-0.729-34.175c-1.062-1.311-2.398-1.9-4.135-1.795
				c-1.876,0.114-3.459,0.988-4.839,2.673c-9.995,12.196-3.609,59.454-3.544,59.93l-1.808,0.406
				c-3.3-10.488-13.494-37.893-20.931-38.736c-1.422-0.162-2.685,0.762-3.892,2.82c-9.397,16.013,18.387,44.914,18.669,45.205
				L2223.748,1551.44z"/>
		</g>
	</g>
	<g>
		<g>
			<path style="fill:#B8D5DC;" d="M766.485,1568.585c0,0-32.763-33.727-21.49-52.936c11.273-19.209,30.297,41.264,30.297,41.264
				s-9.864-71.507,10.569-72.749c20.433-1.242,0,72.749,0,72.749s7.574-17.253,14.972-18.32c7.398-1.067,5.284,14.63-7.927,29.992
				H766.485z"/>
		</g>
		<g>
			<path style="fill:#444092;" d="M768.822,1569.424c-0.094-0.096-9.468-9.797-17.139-22.051
				c-10.465-16.717-12.958-29.986-7.41-39.44c2.07-3.528,4.564-5.155,7.394-4.831c5.736,0.65,12.194,9.408,19.742,26.773
				c2.26,5.198,4.262,10.395,5.833,14.702c-1.807-18.761-3.896-56.092,6.359-68.606c2.208-2.694,4.896-4.155,7.991-4.343
				c3.014-0.18,5.5,0.899,7.378,3.215c9.235,11.395,0.933,51.979-3.632,70.973c3.399-5.554,8.215-11.733,13.137-12.443
				c2.322-0.335,4.174,0.531,5.221,2.44c3.012,5.489-1.074,19.542-13.126,33.556l-1.827-1.57
				c11.853-13.783,15.073-26.759,12.84-30.827c-0.56-1.021-1.441-1.41-2.765-1.214c-6.34,0.915-13.736,14.798-16.051,20.07
				l-2.264-0.805c0.045-0.163,4.533-16.498,7.539-34.367c3.93-23.367,3.604-38.684-0.945-44.298c-1.379-1.701-3.133-2.46-5.36-2.326
				c-2.431,0.148-4.483,1.281-6.273,3.465c-12.952,15.805-4.68,77.065-4.595,77.682l-2.342,0.526
				c-4.277-13.595-17.49-49.118-27.132-50.21c-1.832-0.218-3.479,0.989-5.045,3.656c-12.176,20.748,23.835,58.218,24.2,58.594
				L768.822,1569.424z"/>
		</g>
	</g>
	<g>
		<g>
			<path style="fill:#B8D5DC;" d="M2014.602,1464.078c0,0-31.44-32.364-20.622-50.797c10.818-18.433,29.073,39.597,29.073,39.597
				s-9.466-68.618,10.142-69.81c19.608-1.192,0,69.81,0,69.81s7.268-16.556,14.367-17.58c7.099-1.024,5.071,14.038-7.606,28.78
				H2014.602z"/>
		</g>
		<g>
			<path style="fill:#444092;" d="M2016.844,1464.882c-0.09-0.092-9.086-9.4-16.447-21.16c-10.042-16.041-12.435-28.775-7.11-37.846
				c1.986-3.385,4.37-4.938,7.095-4.635c5.504,0.624,11.701,9.028,18.944,25.691c2.168,4.989,4.09,9.976,5.597,14.109
				c-1.734-18.003-3.737-53.827,6.103-65.834c2.118-2.585,4.698-3.987,7.668-4.168c2.889-0.181,5.277,0.861,7.079,3.084
				c8.861,10.936,0.895,49.88-3.485,68.106c3.261-5.33,7.883-11.258,12.607-11.939c2.219-0.327,4.004,0.51,5.009,2.34
				c2.89,5.268-1.03,18.752-12.596,32.202l-1.753-1.508c11.374-13.226,14.464-25.677,12.322-29.582
				c-0.537-0.978-1.38-1.348-2.653-1.164c-6.084,0.878-13.181,14.201-15.402,19.26l-2.173-0.772
				c0.044-0.157,4.351-15.832,7.234-32.978c3.771-22.423,3.458-37.122-0.907-42.508c-1.322-1.632-2.994-2.37-5.143-2.233
				c-2.333,0.142-4.302,1.229-6.02,3.326c-12.429,15.167-4.491,73.951-4.41,74.543l-2.247,0.505
				c-4.105-13.045-16.783-47.132-26.035-48.182c-1.772-0.208-3.34,0.95-4.841,3.509c-11.684,19.909,22.871,55.865,23.221,56.226
				L2016.844,1464.882z"/>
		</g>
	</g>
	<g>
		<g>
			<path style="fill:#B8D5DC;" d="M1688.106,1587.724c0,0-30.809-31.716-20.208-49.779c10.601-18.063,28.49,38.803,28.49,38.803
				s-9.276-67.242,9.938-68.41c19.214-1.168,0,68.41,0,68.41s7.123-16.224,14.079-17.227c6.957-1.004,4.969,13.757-7.454,28.203
				H1688.106z"/>
		</g>
		<g>
			<path style="fill:#444092;" d="M1690.305,1588.514c-0.089-0.091-8.904-9.213-16.117-20.736
				c-9.842-15.721-12.186-28.198-6.969-37.088c1.947-3.316,4.279-4.844,6.953-4.542c5.395,0.611,11.467,8.847,18.564,25.176
				c2.125,4.889,4.008,9.776,5.485,13.825c-1.699-17.641-3.663-52.747,5.98-64.514c2.076-2.533,4.604-3.907,7.514-4.084
				c2.831-0.179,5.172,0.845,6.938,3.023c8.684,10.716,0.878,48.879-3.415,66.74c3.196-5.224,7.726-11.032,12.354-11.7
				c2.177-0.32,3.924,0.498,4.909,2.293c2.833,5.161-1.01,18.376-12.343,31.555l-1.718-1.476
				c11.146-12.962,14.174-25.164,12.074-28.989c-0.526-0.96-1.361-1.324-2.599-1.141c-5.963,0.86-12.917,13.916-15.094,18.874
				l-2.128-0.757c0.042-0.153,4.263-15.514,7.088-32.317c3.697-21.974,3.389-36.378-0.888-41.656c-1.296-1.6-2.942-2.324-5.04-2.188
				c-2.286,0.139-4.216,1.204-5.899,3.258c-12.18,14.863-4.402,72.47-4.322,73.05l-2.202,0.495
				c-4.022-12.784-16.447-46.188-25.513-47.217c-1.722-0.189-3.271,0.93-4.744,3.439c-11.45,19.51,22.413,54.746,22.757,55.099
				L1690.305,1588.514z"/>
		</g>
	</g>
	<g>
		<g>
			<path style="fill:#B8D5DC;" d="M1193.038,1568.123c0,0-23.709-24.407-15.551-38.308c8.158-13.901,21.925,29.861,21.925,29.861
				s-7.138-51.746,7.648-52.645c14.787-0.899,0,52.645,0,52.645s5.481-12.485,10.835-13.257c5.354-0.772,3.824,10.587-5.736,21.704
				H1193.038z"/>
		</g>
		<g>
			<path style="fill:#444092;" d="M1194.73,1568.73c-0.068-0.07-6.852-7.089-12.403-15.958c-7.573-12.097-9.378-21.699-5.362-28.541
				c1.498-2.552,3.297-3.726,5.35-3.496c4.151,0.47,8.825,6.809,14.286,19.375c1.635,3.762,3.084,7.523,4.221,10.639
				c-1.307-13.576-2.819-40.591,4.602-49.647c1.598-1.949,3.543-3.007,5.782-3.143c2.18-0.138,3.981,0.649,5.339,2.326
				c6.683,8.247,0.675,37.615-2.628,51.36c2.459-4.019,5.945-8.49,9.507-9.004c1.679-0.242,3.02,0.385,3.777,1.765
				c2.18,3.973-0.777,14.143-9.499,24.284l-1.321-1.137c8.577-9.974,10.907-19.364,9.292-22.309
				c-0.406-0.737-1.042-1.017-2.001-0.878c-4.584,0.661-9.939,10.709-11.616,14.525l-1.639-0.582
				c0.033-0.118,3.28-11.939,5.456-24.87c2.844-16.91,2.608-27.995-0.684-32.057c-0.997-1.231-2.271-1.772-3.878-1.684
				c-1.76,0.107-3.245,0.928-4.54,2.508c-9.375,11.441-3.386,55.77-3.325,56.216l-1.695,0.38
				c-3.096-9.838-12.657-35.544-19.634-36.336c-1.324-0.145-2.517,0.715-3.651,2.647c-8.815,15.021,17.248,42.128,17.512,42.401
				L1194.73,1568.73z"/>
		</g>
	</g>
	<g>
		<g>
			<path style="fill:#2F1A31;" d="M1770.233,1076.029c0,0,45.307,51.482,89.354,37.274c44.044-14.209,31.967,9.945,18.471,16.338
				c-13.499,6.395-77.829,24.155-107.825-16.338C1740.238,1072.81,1770.233,1076.029,1770.233,1076.029z"/>
		</g>
		<g>
			<path style="fill:#2F1A31;" d="M1556.077,840.174c0,0-37.486,12.004-48.142,83.755c-10.656,71.75-15.629,101.588,13.497,102.298
				c29.126,0.709,44.245-42.625,30.648-71.752C1538.482,925.349,1562.305,847.349,1556.077,840.174z"/>
		</g>
		<g>
			<path style="fill:#E28569;" d="M1569.929,835.359c0,0-41.557,7.004-43.689,50.695c-2.131,43.689,49.183,52.215,77.339,34.098
				C1631.735,902.037,1644.521,835.814,1569.929,835.359z"/>
		</g>
		<g>
			<path style="fill:#2F1A31;" d="M1556.077,871.667c0,3.236-1.79,5.861-3.997,5.861c-2.207,0-3.996-2.625-3.996-5.861
				c0-3.236,1.788-5.861,3.996-5.861C1554.288,865.805,1556.077,868.43,1556.077,871.667z"/>
		</g>
		<g>
			<path style="fill:#2F1A31;" d="M1590.442,871.667c0,3.236-1.789,5.861-3.996,5.861c-2.207,0-3.997-2.625-3.997-5.861
				c0-3.236,1.789-5.861,3.997-5.861C1588.653,865.805,1590.442,868.43,1590.442,871.667z"/>
		</g>
		<g>
			<path style="fill:#E28569;" d="M1537.711,917.105c0,0,14.047,10.727,3.769,25.647c-10.278,14.92-45.745,56.479-3.769,133.203
				c41.975,76.724,232.186,76.828,244.973,56.58c12.788-20.247,33.568-101.335-61.272-130.108
				c-64.597-19.596-102.859-116.648-102.859-116.648S1583.115,929.818,1537.711,917.105z"/>
		</g>
		<g>
			<path style="fill:#E28569;" d="M1521.433,1026.227l26.652,85.959c0,0-24.876-15.985-41.925,0
				c-17.05,15.984,0.733,28.771,49.918,26.64c49.183-2.13,12.952-95.484,12.952-95.484L1521.433,1026.227z"/>
		</g>
		<g>
			<path style="fill:#E28569;" d="M1727.451,1033.153c0,0-48.308-8.524-55.412,32.678c-7.105,41.204,12.595,47.598,12.595,47.598
				s-56.64-7.815-68.006,9.236c-11.367,17.05-4.263,20.601,18.471,19.18c22.732-1.42,139.238,12.995,150.605-15.88
				s0.755-73.928-9.761-89.195C1765.426,1021.504,1727.451,1033.153,1727.451,1033.153z"/>
		</g>
		<g>
			<path style="fill:#E28569;" d="M1573.444,1013.263l32.776,105.713c0,0-30.592-19.659-51.561,0
				c-20.967,19.656-1.361,27.854,59.126,25.232c60.487-2.621,18.193-109.897,18.193-109.897L1573.444,1013.263z"/>
		</g>
		<g>
			<path style="fill:#F9CBC0;" d="M1542.39,1052.511c0,0-13.853-13.853-11.012-34.455c2.842-20.602-3.196-43.335,11.012-49.373
				c14.208-6.039,18.134,26.156,26.995,36.231c8.862,10.075,20.248,21.797,16.694,38.427c-3.551,16.63,17.405,33.324,2.842,36.52
				C1574.358,1083.058,1560.149,1080.573,1542.39,1052.511z"/>
		</g>
		<g>
			<path style="fill:#2F1A31;" d="M1548.548,1139.456c-0.071-0.125-7.016-12.641,5.727-24.656
				c5.334-5.031,14.706-6.806,27.858-5.272c7.434,0.865,14.035,2.603,16.741,3.376l-5.522-26.184l1.565-0.329l6.08,28.837
				l-1.306-0.415c-0.322-0.103-32.374-10.112-44.321,1.151c-11.836,11.16-5.502,22.584-5.435,22.698L1548.548,1139.456z"/>
		</g>
		<g>
			<path style="fill:#2F1A31;" d="M1648.202,1142.27c-0.056-0.152-1.384-3.785-1.249-8.257c0.184-6.016,2.956-10.613,8.017-13.298
				c10.479-5.557,37.495-1.532,44.493-0.363c-1.82-3.436-6.449-12.549-10.275-23.178c-6.557-18.221-7.76-31.991-3.571-40.923
				c2.756-5.882,7.865-9.554,15.183-10.918c38.374-7.145,44.905,10.429,45.166,11.181l-1.509,0.523
				c-0.063-0.172-6.46-17.009-43.365-10.133c-6.784,1.262-11.502,4.635-14.028,10.024c-9.59,20.455,14.336,63.669,14.579,64.103
				l0.828,1.483l-1.67-0.307c-0.337-0.061-33.743-6.095-45.084-0.078c-10.977,5.82-6.068,19.448-6.017,19.585L1648.202,1142.27z"/>
		</g>
		<g>
			<path style="fill:#F9CBC0;" d="M1543.1,913.983c0,0,13.831,7.727,18.281,1.331c4.451-6.394,2.32-6.127,2.32-6.127
				s2.43,7.833,7.964,7.825c5.534-0.01,16.372-2.145,18.589-7.826c2.218-5.681,0.643-11.898-7.805-9.766
				c-8.447,2.131-37.752-6.359-42.014-3.889C1536.175,897.999,1532.978,912.029,1543.1,913.983z"/>
		</g>
		<g>
			<path style="fill:#2F1A31;" d="M1544.979,887.956c0,0,31.09-3.142,36.488,1.744c5.397,4.888-12.567,17.104-18.245,16.756
				C1557.545,906.105,1535.555,892.493,1544.979,887.956z"/>
		</g>
		<g>
			<path style="fill:#2F1A31;" d="M1597.447,847.915c0,0,39.071,39.071,18.471,93.063c-20.602,53.991-4.973,104.428,48.307,102.298
				c53.28-2.131-12.166-167.42-33.389-182.575C1609.612,845.549,1596.026,835.127,1597.447,847.915z"/>
		</g>
		<g>
			<path style="fill:#F9CBC0;" d="M1571.339,866.741c0,0-0.355-5.861,3.019-13.142c3.375-7.282,1.954-14.063-5.505-13.425
				c-7.461,0.638-5.861,7.741-7.282,15.022c-1.422,7.281-0.533,19.536,4.261,18.115
				C1570.629,871.891,1572.406,872.956,1571.339,866.741z"/>
		</g>
	</g>
</g>
</svg>
