<?xml version="1.0" encoding="utf-8"?>
<!-- Generator: Adobe Illustrator 27.5.0, SVG Export Plug-In . SVG Version: 6.00 Build 0)  -->
<svg version="1.1" id="_x3C_Layer_x3E_" xmlns="http://www.w3.org/2000/svg" xmlns:xlink="http://www.w3.org/1999/xlink" x="0px"
	 y="0px" viewBox="0 0 2760 1840" style="enable-background:new 0 0 2760 1840;" xml:space="preserve">
<rect style="fill:#FFFFFF;" width="2760" height="1840"/>
<g>
	<g>
		<path style="fill:#DEEBE9;" d="M2326.275,1633.885c-213.539,24.323-433.536,14.189-883.053-11.264
			c-252.413-14.291-759.927,9.387-1013.253,11.264c-184.687,1.368-334.418-124.093-334.418-277.169V889.81v-487.73
			c0-153.076,150.043-286.173,334.418-277.169c171.222,8.362,423.066,41.465,685.597,21.195
			c312.241-24.107,904.896-44.593,1210.709-21.195c183.912,14.071,334.418,124.093,334.418,277.169v954.635
			C2660.693,1509.792,2509.25,1613.043,2326.275,1633.885z"/>
	</g>
	<g>
		<ellipse style="fill:#BED5DC;" cx="1396.661" cy="1387.628" rx="1156.747" ry="113.409"/>
	</g>
	<g style="opacity:0.5;">
		<g>
			<path style="fill:#74A1BD;" d="M1741.557,364.378c-1.606-34.74-32.813-64.114-67.592-64.114c-49.27,0-65.431,37.747-67.373,72.47
				c-2.019,36.066,29.771,60.749,64.548,60.749C1705.917,433.482,1743.552,407.538,1741.557,364.378z"/>
		</g>
		<g>
			<path style="fill:#C4D7D4;" d="M1729.332,368.015c0-27.665-27.615-57.136-55.267-58.022
				c-40.905-1.31-57.495,40.192-57.495,67.857c0,27.665,28.557,44.157,56.222,44.157S1729.332,395.681,1729.332,368.015z"/>
		</g>
		<g>
			<path style="fill:#74A1BD;" d="M1679.991,367.081c-0.371-3.777-4.387-6.294-8.182-6.294s-7.867,4.572-7.867,8.368
				c0,3.795,4.072,6.895,7.867,6.895S1680.679,374.083,1679.991,367.081z"/>
		</g>
		<g>
			<g>
				<path style="fill:#74A1BD;" d="M1671.81,370.542h-1.374c-0.754,0-1.363-0.61-1.363-1.364c0-0.753-1.719-3.31-0.965-3.31
					l0.765-1.605l1.639-37.369l-1.702,1.043c-0.432,0.621-1.281,0.771-1.897,0.349c-0.618-0.427-0.774-1.277-0.346-1.896
					l4.198-6.085c0.337-0.494,0.955-0.707,1.528-0.527c0.57,0.177,0.956,0.706,0.956,1.304l2.272,47.997
					C1675.521,369.829,1672.561,370.542,1671.81,370.542z"/>
			</g>
			<g>
				<path style="fill:#74A1BD;" d="M1676.521,328.135c-0.395,0-0.788-0.172-1.058-0.502l-5.179-3.708
					c-0.477-0.585,0.152-3.429,0.738-3.904c0.581-0.474,1.441-0.389,1.918,0.196l4.638,5.693c0.476,0.585,0.389,1.443-0.198,1.919
					C1677.129,328.035,1676.825,328.135,1676.521,328.135z"/>
			</g>
		</g>
		<g>
			<g>
				<path style="fill:#74A1BD;" d="M1647.1,374.96c-0.357,0-0.714-0.14-0.98-0.417l-4.051-4.196
					c-0.381-0.395-0.49-0.977-0.274-1.481c0.213-0.503,0.708-0.829,1.254-0.829h0.003l32.183-1.69
					c0.751,0.001,1.179,2.374,1.179,3.126v1.375c0,0.753-0.61,1.363-1.363,1.363c-0.755,0-2.452,0.678-2.452-0.076l1.088-1.301
					l-27.416-0.062l1.811,1.877c0.525,0.542,0.509,1.405-0.032,1.928C1647.781,374.833,1647.439,374.96,1647.1,374.96z"/>
			</g>
			<g>
				<path style="fill:#74A1BD;" d="M1643.048,370.763c-0.303,0-0.609-0.101-0.862-0.308c-0.584-0.477-0.668-1.336-0.195-1.919
					l3.788-4.638c0.482-0.584,1.34-0.667,1.92-0.193c0.583,0.477,0.669,1.335,0.194,1.918l-1.488,3.473
					C1646.134,369.427,1643.442,370.763,1643.048,370.763z"/>
			</g>
		</g>
	</g>
	<g>
		<g>
			<g>
				<g>
					<polygon style="fill:#2F1A31;" points="508.42,1344.182 487.961,1344.182 487.961,1121.234 501.391,1136.047 					"/>
				</g>
				<g>
					<path style="fill:#2F1A31;" d="M559.583,1356.404c0,0-91.676,1.646-122.237,1.881c-3.376,0.025-5.799-4.616-5.799-7.992v-0.001
						c0-3.374,4.931-7.382,8.306-7.364c29.934,0.156,119.731,1.254,119.731,1.254c3.374,0,6.111,2.736,6.111,6.11v0.001
						C565.694,1353.669,562.957,1356.404,559.583,1356.404z"/>
				</g>
				<g>
					<path style="fill:#2F1A31;" d="M435.935,1367.373c1.118-6.705,6.993-10.969,13.79-10.969c6.798,0,13.79,4.485,13.79,11.282
						c0,8.463-8.559,14.418-15.356,14.418C441.36,1382.104,434.524,1375.836,435.935,1367.373z"/>
				</g>
				<g>
					<path style="fill:#2F1A31;" d="M533.72,1367.373c1.117-6.705,6.992-10.969,13.79-10.969c6.798,0,13.79,4.485,13.79,11.282
						c0,8.463-8.56,14.418-15.357,14.418C539.146,1382.104,532.31,1375.836,533.72,1367.373z"/>
				</g>
				<g>
					<path style="fill:#2F1A31;" d="M457.403,1134.979c0,0-3.29,14.573,30.558,19.274c33.849,4.702,48.423-19.274,48.423-19.274
						H457.403z"/>
				</g>
			</g>
			<g>
				<path style="fill:#96A7E2;" d="M553.475,1074.159c0.36-40.931-20.304-168.171-78.597-178.976
					c-22.879-4.24-103.816-14.697-114.708,20.049c-18.555,59.189,31.769,206.002,31.769,206.002s4.542,15.602,21.114,17.347
					c16.572,1.743,219.011,7.606,221.008,0C641.928,1108.618,582.331,1082.525,553.475,1074.159z"/>
			</g>
		</g>
		<g>
			<g>
				<path style="fill:#2F1A31;" d="M690.394,1353.959c0,0,0.937,20.493,14.931,25.99c13.993,5.497,54.299,9.886,39.551,23.379
					c-8.463,7.742-49.184,3.693-60.651,3.93c-11.468,0.236-22.133,5.457-30.813-2.042c-9.551-8.251-1.042-50.473-1.042-50.473
					s10.003,4.951,18.897,4.536C684.085,1358.682,690.394,1353.959,690.394,1353.959z"/>
			</g>
			<g>
				<path style="fill:#2F1A31;" d="M920.994,1342.196c0,0,1.158,20.481,15.21,25.827c14.053,5.346,54.404,9.299,39.803,22.949
					c-8.379,7.834-49.141,4.227-60.604,4.587c-11.467,0.36-22.073,5.695-30.835-1.709c-9.639-8.147-1.587-50.458-1.587-50.458
					s10.056,4.842,18.944,4.331C914.737,1346.988,920.994,1342.196,920.994,1342.196z"/>
			</g>
			<g>
				<g>
					<path style="fill:#E28569;" d="M911.636,1359.147c23.689-2.698,41.082-23.561,39.444-47.347
						c-9.242-134.404-35.198-224.736-80.608-280.741c-29.174-35.981-88.976-73.316-182.128-69.583
						c-46.863,1.878-59.549-15.877-107.709-14.549c-78.537,2.167-63.284,13.398-63.284,13.398
						c-48.143,127.031,45.129,135.295,113.378,132.772c2.253-0.084,4.519-0.152,6.795-0.204
						c41.369-0.955,115.429,3.191,146.642,41.688c24.718,30.484,43.853,74.626,60.374,191.312
						c3.171,22.391,23.548,38.212,46.016,35.653L911.636,1359.147z"/>
				</g>
			</g>
			<g>
				<g>
					<path style="fill:#E28569;" d="M727.635,1372.356c61.791-128.19,89.07-245.935,43.659-301.94
						c-29.173-35.982-70.579-61.472-123.067-75.76c-37.462-10.197-80.877-14.695-129.037-13.368
						c-78.537,2.167-114.465-4.244-114.465-4.244c-49.786,161.589,178.697,108.501,244.659,169.833
						c28.74,26.725-10.068,72.24-5.765,204.27C644.355,1373.749,717.282,1393.834,727.635,1372.356z"/>
				</g>
			</g>
			<g>
				<path style="fill:#020202;" d="M794.356,1147.898l-0.898-0.064c2.816-39.35-15.282-60.032-26.32-68.858l0.563-0.702
					C778.877,1087.209,797.201,1108.138,794.356,1147.898z"/>
			</g>
			<g>
				<g>
					<path style="fill:#F7B686;" d="M774.954,976.668c-9.884,0-19.674-2.144-29.065-6.428
						c-30.418-13.869-53.925-48.226-76.217-111.396c-10.268-29.096-33.893-62.755-34.13-63.092l59.479-42.064
						c1.205,1.701,29.664,42.132,43.35,80.911c7.743,21.945,2.544-99.265-2.998-129.382l42.473-18.186
						c7.096,17.683,25.792,66.451,39.914,122.5c8.551,33.941,13.836,62.002,15.708,83.4c1.321,15.098,1.021,27.406-0.916,37.632
						c-5.11,26.981-21.532,37.19-30.866,40.874C792.847,974.925,783.861,976.668,774.954,976.668z"/>
				</g>
			</g>
			<g>
				<path style="fill:#9BBCB6;" d="M724.444,795.729c0,0-11.671-53.212-72.953-77.089c-0.026-0.01-0.052-0.022-0.077-0.034
					c-10.939-5.515-21.246-11.635-33.024-14.15c-253.265-54.109-253.879,338.841-220.7,346.376
					c164.922,37.459,324.195-51.861,306.793-92.344c-20.384-78.8-22.078-100.542-10.452-125.444
					c3.786-8.109,11.989-9.223,22.439-20.903C723.045,804.793,724.444,795.729,724.444,795.729z"/>
			</g>
			<g>
				<path style="fill:#F7B686;" d="M700.766,655.502l-21.532,34.876l-11.693,18.923l-1.235,2.001l-4.095,6.631
					c-2.775,4.5-0.737,7.22-0.056,13.214c0.277,2.435,2.38,17.466-10.023,15.234c-15.456-2.784-32.331-25.783-33.742-41.922
					c0.074,0.028,17.051,3.459,23.404-1.641l19.642-15.751l5.717-4.593L700.766,655.502z"/>
			</g>
			<g>
				<path style="fill:#2F1A31;" d="M667.762,706.848l-0.222,2.453l-1.235,2.001l-4.095,6.631c-8.152-9.775-6.99-24.797-6.99-24.797
					L667.762,706.848z"/>
			</g>
			<g>
				<g>
					<path style="fill:#56335B;" d="M740.627,682.097c0,0-5.274,8.848-15.999,15.766c-10.726,6.918,2.231-23.692,2.231-23.692
						L740.627,682.097z"/>
				</g>
				<g>
					<path style="fill:#F7B686;" d="M723.122,701.469c14.982-19.217,14.208-44.868-1.73-57.293
						c-15.937-12.425-41.001-6.919-55.983,12.298c-14.981,19.218-14.207,44.868,1.73,57.294
						C683.075,726.191,708.14,720.685,723.122,701.469z"/>
				</g>
				<g>
					<path style="fill:#2F1A31;" d="M673.764,646.958l13.74,11.325c3.02,2.49,7.012,3.56,10.841,2.745
						c6.592-1.402,17.139,0.108,23.514,17.369c8.512,23.04,32.081,11.032,41.464,4.958c9.576-6.199,7.456-19.141-3.713-22.886
						c-11.171-3.744,1.301-9.702-4.804-17.872c-11.408-15.269-24.258-7.571-34.771-18.915
						c-13.786-14.873-50.243-29.923-63.571,7.388L673.764,646.958z"/>
				</g>
				<g>
					<g>
						<path style="fill:#060633;" d="M696.933,679.045c0.219,0.052,0.459,0.003,0.645-0.153c0.313-0.263,0.357-0.727,0.096-1.042
							c-0.154-0.185-3.33-4.815-9.467-2.674c-0.388,0.135-0.604,0.546-0.476,0.936c0.128,0.389,0.527,0.515,0.937,0.475
							c4.084-0.398,7.737,2.06,7.865,2.213C696.64,678.928,696.781,679.011,696.933,679.045z"/>
					</g>
				</g>
				<g>
					<g>
						<path style="fill:#060633;" d="M717.762,697.044c0.142,0.102,0.341,0.118,0.545,0.026c0.345-0.156,0.573-0.563,0.512-0.909
							c-0.036-0.204-0.444-5.148-5.92-4.783c-0.345,0.022-0.679,0.336-0.749,0.717c-0.069,0.381,0.175,0.594,0.497,0.662
							c3.21,0.675,4.89,3.796,4.921,3.966C717.593,696.865,717.664,696.975,717.762,697.044z"/>
					</g>
				</g>
				<g>
					<path style="fill:#56335B;" d="M656.463,631.07c0,0-10.217,27.237,0.579,40.95c0,0,4.483-24.107,33.964-11.657
						C691.006,660.363,674.996,638.034,656.463,631.07z"/>
				</g>
				<g>
					<path style="fill:#F7B686;" d="M663.251,658.711c0.923,4.298,4.784,7.115,8.626,6.291c3.842-0.825,6.208-4.979,5.284-9.277
						c-0.922-4.298-4.784-7.114-8.626-6.291C664.694,650.259,662.328,654.412,663.251,658.711z"/>
				</g>
				<g>
					<path style="fill:#2F1A31;" d="M732.566,626.196c-6.442,0-7.869-5.735-7.883-5.799c-0.092-0.392,0.15-0.781,0.541-0.873
						c0.392-0.09,0.778,0.149,0.871,0.539c0.058,0.234,1.461,5.698,8.362,4.511c0.396-0.07,0.77,0.195,0.839,0.591
						c0.068,0.396-0.197,0.771-0.593,0.839C733.938,626.137,733.226,626.196,732.566,626.196z"/>
				</g>
				<g>
					<path style="fill:#FFFFFF;" d="M750.914,679.526c-2.871,0-6.183-0.566-9.876-1.701c-6.227-1.914-11.413-4.798-11.466-4.826
						l0.244-0.436c0.203,0.114,20.528,11.336,29.336,3.949c2.492-2.089,3.645-3.984,3.523-5.797
						c-0.195-2.903-3.682-5.106-6.759-7.051c-0.474-0.298-0.936-0.591-1.374-0.878l0.273-0.418c0.437,0.286,0.896,0.577,1.367,0.874
						c3.177,2.008,6.777,4.283,6.989,7.44c0.134,1.981-1.076,4.014-3.697,6.212C757.385,678.648,754.491,679.526,750.914,679.526z"
						/>
				</g>
				<g>
					<path style="fill:#FFFFFF;" d="M740.092,637.009c-3.286,0-17.35-0.969-29.096-16.628l0.399-0.299
						c6.875,9.165,14.491,13.139,19.67,14.858c5.614,1.862,9.653,1.555,9.694,1.552l0.041,0.497
						C740.781,636.99,740.533,637.009,740.092,637.009z"/>
				</g>
				<g>
					<path style="fill:#060633;" d="M686.006,686.088c-0.438,0.988,0.158,2.211,1.331,2.731c1.175,0.522,2.482,0.144,2.92-0.845
						c0.438-0.986-0.158-2.21-1.332-2.731C687.75,684.723,686.444,685.101,686.006,686.088z"/>
				</g>
				<g>
					<path style="fill:#060633;" d="M702.869,698.351c-0.438,0.987,0.158,2.211,1.332,2.731c1.173,0.522,2.48,0.143,2.919-0.845
						c0.439-0.987-0.157-2.21-1.332-2.731C704.614,696.984,703.308,697.363,702.869,698.351z"/>
				</g>
				<g>
					<path style="fill:#FFFFFF;" d="M686,709.986c-1.055,1.583-3.194,2.013-4.778,0.956c-1.584-1.055-2.013-3.194-0.957-4.779
						c1.055-1.583,3.194-2.013,4.779-0.956C686.628,706.262,687.057,708.401,686,709.986z"/>
				</g>
			</g>
			<g>
				<path style="fill:#F7B686;" d="M767.035,663.365c-5.994-10.528-10.113-12.68-10.113-12.68s-21.605-17.451-23.499-10.632
					c-1.893,6.821,17.044,21.818,17.044,21.818s-27.364-18.719-27.066-11.696c0.298,7.022,21.186,21.094,21.186,21.094
					s-26.155-16.398-25.618-8.25c0.538,8.149,17.162,15.57,15.271,22.392c-0.162,0.582-15.06-14.142-14.274-2.671
					c0.313,4.572,5.919,15.533,5.919,15.533c-0.103,1.492,1.78,4.15,2.731,5.511c4.278,6.121,6.358,10.123,8.84,18.892
					l45.105-22.965C782.56,699.711,774.684,676.799,767.035,663.365z"/>
			</g>
			<g>
				<path style="fill:#DD8964;" d="M759.068,673.034c-0.252,0-0.482-0.167-0.55-0.423c-1.75-6.481-8.266-10.206-8.331-10.243
					c-0.275-0.153-0.373-0.502-0.219-0.776c0.155-0.275,0.503-0.372,0.777-0.218c0.285,0.16,7,4,8.874,10.94
					c0.082,0.305-0.098,0.617-0.402,0.699C759.168,673.026,759.118,673.034,759.068,673.034z"/>
			</g>
			<g>
				<path style="fill:#DD8964;" d="M752.666,681.788c-0.248,0-0.477-0.163-0.548-0.413c-2.153-7.479-7.669-9.549-7.725-9.568
					c-0.297-0.107-0.45-0.435-0.344-0.731c0.107-0.296,0.434-0.449,0.73-0.343c0.249,0.09,6.121,2.294,8.434,10.326
					c0.088,0.304-0.088,0.62-0.39,0.706C752.771,681.78,752.718,681.788,752.666,681.788z"/>
			</g>
			<g>
				<path style="fill:#DD8964;" d="M738.441,731.602c-0.305,0-0.559-0.241-0.57-0.548c-0.005-0.138-0.607-13.901-5.445-20.821
					c-4.223-6.041-15.503-25.146-12.535-29.977c0.859-1.398,1.846-2.176,3.016-2.378c2.341-0.407,4.888,1.638,7.832,4.003
					l0.121,0.098c4.181,3.358,9.516,7.707,9.516,7.707l-0.722,0.884c0,0-5.331-4.346-9.509-7.701l-0.121-0.098
					c-2.729-2.193-5.085-4.08-6.923-3.768c-0.828,0.143-1.56,0.749-2.237,1.852c-2.295,3.734,7.053,20.934,12.498,28.725
					c5.03,7.196,5.627,20.853,5.65,21.43c0.013,0.315-0.232,0.581-0.547,0.594C738.456,731.602,738.449,731.602,738.441,731.602z"/>
			</g>
			<g>
				<g>
					<g>
						<path style="fill:#F7B686;" d="M681.894,1019.337c0,0,43.808,1.716,60.111,21.533c16.304,19.819,22.146,57.46,9.431,47.321
							c-12.714-10.139-25.382-27.581-25.382-27.581s25.311,38.538,13.735,40.554c-11.577,2.017-33.268-31.713-33.268-31.713
							s26.466,48.259,14.913,46.623c-11.553-1.636-31.397-38.439-31.397-38.439s22.829,45.884,9.454,43.669
							c-13.375-2.216-18.62-38.04-30.196-36.024c-11.577,2.016-58.241,6.109-67.774-25.385L681.894,1019.337z"/>
					</g>
				</g>
				<g>
					<path style="fill:#DD8964;" d="M725.195,1061.007c-0.054-0.115-5.439-11.599-12.775-12.811l0.309-1.869
						c8.327,1.376,13.951,13.376,14.187,13.886L725.195,1061.007z"/>
				</g>
				<g>
					<path style="fill:#DD8964;" d="M705.656,1069.832c-0.051-0.113-5.162-11.492-15.566-15.433l0.671-1.772
						c11.161,4.229,16.411,15.947,16.63,16.443L705.656,1069.832z"/>
				</g>
				<g>
					<path style="fill:#DD8964;" d="M689.177,1078.03c-0.063-0.138-6.437-13.792-14.333-14.421l0.15-1.888
						c9.002,0.716,15.626,14.913,15.904,15.518L689.177,1078.03z"/>
				</g>
			</g>
			<g>
				<path style="fill:#2F1A31;" d="M564.463,790.649c-0.984,7.112-24.29,9.762-52.054,5.918
					c-27.764-3.844-49.473-12.725-48.488-19.838c0.984-7.111,24.29-9.761,52.054-5.917
					C543.738,774.656,565.448,783.537,564.463,790.649z"/>
			</g>
			<g>
				<g>
					<path style="fill:#F7B686;" d="M601.521,1059.895c-82.338-45.762-113.886-107.785-125.367-160.207
						c-14.858-67.84-1.364-116.198-0.689-118.627c0,0,5.698-7.036,40.755-0.64c31.241,5.699,33.033,13.09,33.033,13.09
						c-0.119,0.444-13.158,42.511-1.375,93.067c15.048,64.568,57.775,107.536,134.016,132.759
						C681.894,1019.337,619.378,1069.82,601.521,1059.895z"/>
				</g>
			</g>
			<g>
				<path style="fill:#2F1A31;" d="M564.463,791.11c-0.035,0-0.07-0.004-0.106-0.013c-0.248-0.059-0.402-0.307-0.344-0.555
					c0.054-0.227,5.33-22.875,2.611-39.189c-0.043-0.252,0.127-0.489,0.379-0.531c0.251-0.046,0.488,0.128,0.53,0.378
					c2.75,16.501-2.569,39.325-2.623,39.554C564.861,790.968,564.672,791.11,564.463,791.11z"/>
			</g>
			<g>
				<path style="fill:#DD8964;" d="M515.23,958.046c-3.384,0.001-7.883-3.617-11.158-9.29c-1.833-3.177-2.994-6.506-3.266-9.375
					c-0.296-3.126,0.498-5.401,2.237-6.405c1.739-1.004,4.108-0.556,6.668,1.265c2.348,1.669,4.65,4.339,6.485,7.516
					c1.834,3.176,2.993,6.506,3.266,9.374c0.297,3.127-0.498,5.401-2.238,6.406C516.627,957.882,515.954,958.046,515.23,958.046z
					 M505.084,934.348c-0.413,0-0.78,0.089-1.092,0.268c-1.045,0.603-1.52,2.274-1.3,4.586c0.247,2.604,1.32,5.66,3.021,8.607
					c3.62,6.27,8.472,9.293,10.565,8.087c1.044-0.604,1.519-2.275,1.299-4.587c-0.248-2.604-1.32-5.66-3.021-8.605l0,0
					c-1.701-2.946-3.811-5.403-5.942-6.919C507.285,934.839,506.06,934.348,505.084,934.348z"/>
			</g>
			<g>
				<path style="fill:#DD8964;" d="M780.056,968.655c-6.181,0.001-10.892-2.126-11.306-5.401c-0.491-3.896,5.303-7.727,13.19-8.723
					l0,0c3.639-0.462,7.157-0.238,9.908,0.622c2.997,0.938,4.787,2.552,5.038,4.546c0.492,3.894-5.302,7.725-13.19,8.723
					C782.443,968.579,781.224,968.655,780.056,968.655z M785.61,956.19c-1.111,0-2.263,0.074-3.433,0.222l0,0
					c-7.182,0.907-11.851,4.209-11.549,6.606c0.304,2.396,5.645,4.434,12.83,3.525c7.183-0.907,11.851-4.21,11.549-6.605
					c-0.151-1.198-1.51-2.282-3.726-2.976C789.651,956.45,787.705,956.19,785.61,956.19z"/>
			</g>
			<g>
				<path style="fill:#F7B686;" d="M781.318,696.217c0,0-1.219-10.4-1.219-19.974c0-9.574,5.533-17.846,0-20.741
					c-5.533-2.896-12.91,12.065-12.68,19.109C767.65,681.654,781.318,696.217,781.318,696.217z"/>
			</g>
			<g>
				<path style="fill:#DD8964;" d="M740.013,908.532c-0.423,0-0.807-0.284-0.917-0.713c-0.1-0.392-9.866-39.552,1.036-72.546
					c0.164-0.496,0.7-0.766,1.196-0.602c0.497,0.164,0.767,0.7,0.603,1.196c-10.732,32.475-1.098,71.097-0.999,71.482
					c0.129,0.507-0.177,1.022-0.684,1.152C740.169,908.523,740.091,908.532,740.013,908.532z"/>
			</g>
		</g>
	</g>
	<g>
		<g>
			<g>
				<g>
					<path style="fill:#2F1A31;" d="M2039.489,1315.997L2039.489,1315.997c3.304-0.053,5.673-5.877,4.847-11.238l-13.941-90.438
						h-17.924l22.208,95.882C2035.5,1313.745,2037.397,1316.03,2039.489,1315.997z"/>
				</g>
			</g>
			<g>
				<path style="fill:#2F1A31;" d="M2030.808,1216.999c0,0-9.757-1.599-15.782,8.352l-2.555-11.03l17.829-1.153L2030.808,1216.999z"
					/>
			</g>
		</g>
		<g>
			<path style="fill:#A2BEE0;" d="M2142.244,769.591l-86.071,305.894c0,0-0.597,147.376-7.552,147.376H1011.664
				c-6.957,0-1.351-18.616-1.351-26.794c0,0,4.355-135.693,49.466-151.024c97.676-33.195,201.665,36.398,260.734,14.163
				c8.485-3.205,14.376-11.442,18.785-23.232c26.309-70.182,0.579-265.807,164.673-266.487L2142.244,769.591z"/>
		</g>
		<g>
			<g>
				<path style="fill:#2F1A31;" d="M1622.795,1322.396L1622.795,1322.396c-3.31-0.053-5.683-5.877-4.854-11.238l13.646-89.491
					h18.498l-19.806,94.498C1629.477,1322.396,1624.891,1322.43,1622.795,1322.396z"/>
			</g>
		</g>
		<g>
			<g>
				<path style="fill:#7CA1CE;" d="M2179.537,821.09l-61.945,371.411c-3.412,20.458-16.831,34.911-32.232,34.714l-340.748-4.355
					c0,0-27.235-139.392,55.387-177.815c82.62-38.426,174.031,36.401,225.01,14.155c44.788-19.543,10.668-234.527,113.865-287.003
					C2161.919,760.477,2185.246,788.494,2179.537,821.09z"/>
			</g>
			<g>
				<path style="fill:#5986B2;" d="M1753.117,1145.872c-0.03,0-0.06-0.001-0.091-0.002c-1.071-0.05-1.899-0.958-1.852-2.029
					c0.03-0.646,0.795-16.042,7.105-34.275c8.407-24.289,22.759-41.788,41.505-50.606c0.968-0.453,2.127-0.042,2.585,0.932
					c0.456,0.97,0.039,2.127-0.932,2.584c-43.062,20.257-46.354,80.934-46.382,81.544
					C1755.008,1145.06,1754.148,1145.872,1753.117,1145.872z"/>
			</g>
		</g>
	</g>
	<g>
		<g>
			<g>
				<path style="fill:#F7B686;" d="M1284.313,826.117c32.706-32.068,60.883-78.867,60.96-79.989c0,0,0.582-25.966-20.619-26.246
					c-30.348-0.402-46.865,7.014-46.865,7.014s-37.924,64.12-59.824,69.415c-19.132,4.625-53.928,2.104-92.192-97.074
					l-38.366,23.991c20.444,52.992,37.632,89.653,61.546,112.382C1183.771,868.703,1241.788,867.815,1284.313,826.117z"/>
			</g>
		</g>
		<g>
			<path style="fill:#2F1A31;" d="M1136.422,1278.694c0,0-0.845,18.468-13.456,23.422c-12.61,4.954-48.935,8.91-35.644,21.069
				c7.627,6.978,44.324,3.329,54.659,3.542c10.337,0.214,19.946,4.918,27.77-1.841c8.607-7.436,0.939-45.485,0.939-45.485
				s-9.016,4.461-17.032,4.088C1142.106,1282.951,1136.422,1278.694,1136.422,1278.694z"/>
		</g>
		<g>
			<path style="fill:#2F1A31;" d="M1026.185,1268.094c0,0-1.044,18.459-13.708,23.275c-12.663,4.817-49.029,8.38-35.869,20.682
				c7.55,7.061,44.285,3.809,54.617,4.133c10.333,0.326,19.892,5.134,27.787-1.539c8.687-7.343,1.432-45.473,1.432-45.473
				s-9.063,4.363-17.074,3.903C1031.823,1272.411,1026.185,1268.094,1026.185,1268.094z"/>
		</g>
		<g>
			<g>
				<path style="fill:#6F4975;" d="M1034.619,1283.37c-21.349-2.432-37.023-21.233-35.55-42.669
					c8.331-121.126,19.603-182.131,60.525-232.603c26.292-32.427,64.688-63.197,110.739-80.011
					c39.704-14.496,73.155-20.63,116.558-19.435c70.778,1.953,103.06,15.298,103.06,15.298
					c43.386,114.481-40.671,121.928-102.178,119.655c-2.03-0.076-4.071-0.137-6.123-0.185c-37.282-0.86-104.025,2.876-132.155,37.57
					c-22.275,27.474-39.52,67.253-54.409,172.411c-2.857,20.179-21.22,34.438-41.469,32.132L1034.619,1283.37z"/>
			</g>
		</g>
		<g>
			<g>
				<path style="fill:#6F4975;" d="M1136.118,1298.436c-21.349-2.432-37.022-21.232-35.548-42.67
					c8.329-121.125,19.601-182.13,60.524-232.603c26.291-32.427,63.606-55.398,110.91-68.274
					c33.76-9.191,72.886-13.244,116.288-12.048c70.778,1.953,103.157-3.825,103.157-3.825
					c44.867,145.626-161.044,97.782-220.488,153.055c-25.901,24.086-59.487,71.239-74.376,176.397
					c-2.857,20.179-21.221,34.438-41.47,32.131L1136.118,1298.436z"/>
			</g>
		</g>
		<g>
			<path style="fill:#CFD3A3;" d="M1472.822,733.803c0,0-19.662-50.563-93.988-46.574c-74.326,3.988-118.329,14.958-129.118,222.391
				c0,0,92.28,5.525,209.556,74.563c19.744,11.624,50.57,9.279,51.834-13.599C1513.622,925.019,1504.248,837.998,1472.822,733.803z"
				/>
		</g>
		<g>
			<path style="fill:#CFD3A3;" d="M1538.119,742.896l-65.308,20.689c0,0-135.22,15.828-171.267,10.048
				c-36.047-5.779-46.344-34.28-46.344-34.28s22.406-44.143,102.547-56.417c6.143-0.939,12.427-2.114,18.996-2.699
				c11.025-0.974,21.627-1.982,32.447-0.848C1514.938,690.477,1538.119,742.896,1538.119,742.896z"/>
		</g>
		<g>
			<path style="fill:#2F1A31;" d="M1538.119,742.896c3.497,7.788-11.803,15.094-30.559,22.047
				c-18.755,6.953-35.483,8.354-37.362,3.131c-1.879-5.224,11.804-15.095,30.559-22.048
				C1519.513,739.074,1535.846,737.831,1538.119,742.896z"/>
		</g>
		<g>
			<path style="fill:#F7B686;" d="M1390.143,670.222l-11.193-19.741l-3.257-5.747l-19.157-33.793l6.407,36.38l3.851,21.836
				l1.219,6.912c0.826,4.692-1.796,6.289-4.361,11.085c-1.039,1.942-7.813,13.827,3.32,16.092
				c13.867,2.822,35.656-10.809,42.221-23.856C1409.117,679.389,1393.76,676.601,1390.143,670.222z"/>
		</g>
		<g>
			<path style="fill:#56335B;" d="M1324.662,603.649c0,0-0.372,9.274,4.324,19.774c4.695,10.5,9.971-18.987,9.971-18.987
				L1324.662,603.649z"/>
		</g>
		<g>
			<path style="fill:#F7B686;" d="M1328.35,626.889c-1.859-21.882,11.344-40.869,29.489-42.412
				c18.147-1.542,34.364,14.946,36.225,36.827c1.858,21.881-11.345,40.869-29.49,42.411
				C1346.428,665.257,1330.209,648.769,1328.35,626.889z"/>
		</g>
		<g>
			<g>
				<path style="fill:#060633;" d="M1359.155,622.839c-0.19-0.069-0.348-0.224-0.41-0.432c-0.109-0.353,0.088-0.727,0.44-0.836
					c0.207-0.063,4.882-1.997,8.464,2.639c0.226,0.292,0.186,0.709-0.102,0.94c-0.288,0.231-0.651,0.13-0.94-0.102
					c-2.889-2.311-6.856-2.25-7.029-2.198C1359.435,622.894,1359.287,622.887,1359.155,622.839z"/>
			</g>
		</g>
		<g>
			<path style="fill:#060633;" d="M1363.819,630.597c-0.082,1.593-1.085,2.837-2.241,2.777c-1.155-0.059-2.026-1.397-1.945-2.991
				c0.081-1.594,1.084-2.837,2.24-2.777C1363.028,627.665,1363.9,629.003,1363.819,630.597z"/>
		</g>
		<g>
			<g>
				<path style="fill:#060633;" d="M1334.573,626.184c-0.156,0.008-0.315-0.079-0.424-0.248c-0.184-0.287-0.157-0.706,0.061-0.938
					c0.128-0.137,2.867-3.669,6.823-0.7c0.25,0.188,0.348,0.589,0.213,0.91c-0.135,0.322-0.424,0.362-0.7,0.257
					c-2.756-1.07-5.562,0.461-5.668,0.573C1334.789,626.131,1334.681,626.18,1334.573,626.184z"/>
			</g>
		</g>
		<g>
			<path style="fill:#060633;" d="M1341.991,631.574c0.532,1.504,0.079,3.035-1.013,3.422c-1.092,0.385-2.407-0.521-2.939-2.025
				c-0.53-1.504-0.077-3.036,1.014-3.421C1340.145,629.163,1341.461,630.07,1341.991,631.574z"/>
		</g>
		<g>
			<path style="fill:#56335B;" d="M1413.314,606.521c0,0-5.684,25.592-20.582,30.637c0,0,8.475-20.409-19.911-25.51
				C1372.821,611.648,1395.895,602.663,1413.314,606.521z"/>
		</g>
		<g>
			<path style="fill:#F7B686;" d="M1394.592,624.054c-2.812,2.792-7.113,3.019-9.608,0.507c-2.495-2.512-2.238-6.813,0.572-9.604
				c2.813-2.792,7.114-3.02,9.609-0.507S1397.403,621.263,1394.592,624.054z"/>
		</g>
		<g>
			<path style="fill:#56335B;" d="M1372.821,611.648c0,0,6.35,19.045,3.187,23.599c-3.163,4.555-29.023,11.872-42.288,9.822l0,0
				c2.535,12.567,13.781,21.693,26.587,21.066c4.236-0.207,8.465-1.127,12.504-2.779l0,0c8.234-3.369,15.784-8.73,17.577-17.445
				c0.546-2.651-5.831-16.836-5.831-16.836s-3.083-8.469,0.999-14.119C1385.556,614.956,1378.545,610.971,1372.821,611.648z"/>
		</g>
		<g>
			<path style="fill:#FFFFFF;" d="M1355.086,651.579c0.536,2.03-0.326,4.019-1.93,4.443c-1.601,0.424-3.335-0.878-3.872-2.909
				c-0.537-2.029,0.327-4.019,1.928-4.441C1352.815,648.248,1354.549,649.55,1355.086,651.579z"/>
		</g>
		<g>
			<path style="fill:#020202;" d="M1105.973,1187.656c-0.001-0.461,0.065-46.69,17.239-96.339
				c10.093-29.173,24.03-53.807,41.426-73.215c21.756-24.273,49.008-40.396,80.998-47.915l0.187,0.791
				c-31.826,7.48-58.937,23.518-80.579,47.666c-17.324,19.327-31.206,43.868-41.264,72.94c-17.132,49.519-17.196,95.61-17.194,96.07
				L1105.973,1187.656z"/>
		</g>
		<g>
			<g>
				<path style="fill:#F7B686;" d="M1101.044,728.69c0,0-38.86-11.536-45.786-23.089c-6.926-11.554-7.038-31.549-1.224-25.299
					c5.813,6.25,11.036,16.288,11.036,16.288s-10.149-21.971-3.983-22.119c6.167-0.148,14.81,19.045,14.81,19.045
					s-9.994-27.106-4.123-25.361c5.87,1.747,13.317,22.393,13.317,22.393s-8.292-25.593-1.52-23.404
					c6.771,2.188,9.506,17.818,15.672,17.669c6.166-0.148,23.94-1.636,26.685,15.849L1101.044,728.69z"/>
			</g>
			<g>
				<path style="fill:#DD8964;" d="M1071.033,705.065c-0.092,0-0.186-0.026-0.27-0.08c-5.247-3.383-6.146-8.107-6.183-8.307
					c-0.048-0.27,0.131-0.527,0.401-0.576c0.268-0.049,0.527,0.131,0.577,0.4c0.009,0.045,0.877,4.509,5.743,7.646
					c0.231,0.148,0.298,0.456,0.148,0.688C1071.356,704.984,1071.196,705.065,1071.033,705.065z"/>
			</g>
			<g>
				<path style="fill:#DD8964;" d="M1083.016,703.538c-0.081,0-0.165-0.021-0.242-0.063c-5.465-3.062-7.281-9.552-7.356-9.827
					c-0.071-0.266,0.085-0.538,0.35-0.61c0.264-0.072,0.538,0.084,0.61,0.35c0.018,0.063,1.787,6.367,6.884,9.22
					c0.239,0.135,0.324,0.438,0.19,0.677C1083.359,703.446,1083.19,703.538,1083.016,703.538z"/>
			</g>
			<g>
				<path style="fill:#DD8964;" d="M1091.777,699.99c-0.085,0-0.171-0.022-0.249-0.068c-6.297-3.663-6.909-9.096-6.933-9.324
					c-0.027-0.273,0.172-0.516,0.443-0.544c0.285-0.025,0.518,0.171,0.547,0.444c0.005,0.05,0.604,5.168,6.441,8.565
					c0.237,0.139,0.318,0.443,0.18,0.68C1092.115,699.9,1091.948,699.99,1091.777,699.99z"/>
			</g>
		</g>
		<g>
			<g>
				<path style="fill:#F7B686;" d="M1367.155,957.685c0,0-36.854-2.098-46.369,5.806c-9.517,7.903-15.697,25.193-8.759,21.547
					c6.94-3.646,14.52-10.755,14.52-10.755s-15.479,15.948-10.182,17.953c5.298,2.005,18.627-11.996,18.627-11.996
					s-16.907,20.446-11.29,20.72c5.618,0.273,18.352-15.35,18.352-15.35s-14.97,19.651-8.438,19.815
					c6.532,0.165,12.266-16.32,17.563-14.315c5.298,2.005,20.464,13.561,27.834-0.484L1367.155,957.685z"/>
			</g>
			<g>
				<path style="fill:#DD8964;" d="M1326.918,974.549l-0.742-0.532c0.157-0.221,3.891-5.37,7.976-5.286l-0.023,0.913
					C1330.528,969.515,1326.953,974.499,1326.918,974.549z"/>
			</g>
			<g>
				<path style="fill:#DD8964;" d="M1335.367,980.499l-0.752-0.518c0.148-0.216,3.697-5.287,9.364-6.275l0.157,0.9
					C1338.843,975.529,1335.401,980.449,1335.367,980.499z"/>
			</g>
			<g>
				<path style="fill:#DD8964;" d="M1342.426,985.875l-0.744-0.529c0.187-0.262,4.613-6.377,8.938-5.904l-0.101,0.907
					C1346.729,979.924,1342.467,985.816,1342.426,985.875z"/>
			</g>
		</g>
		<g>
			<g>
				<path style="fill:#F7B686;" d="M1503.002,917.026c-27.143,44.438-61.888,62.282-123.986,73.601l-11.864-32.939
					c45.213-8.24,68.366-40.968,86.563-70.758c25.875-42.383,21.215-94.018,17.337-116.834c-0.367-2.164,0.487-4.342,2.23-5.678
					c5.779-4.428,20.758-13.43,47.523-13.96c2.382-0.047,4.49,1.551,5.102,3.853
					C1537.104,796.486,1537.182,861.059,1503.002,917.026z"/>
			</g>
		</g>
		<g style="opacity:0.3;">
			<path style="fill:#E08B65;" d="M1489.362,908.006c-1.026,0-2.021-0.2-2.96-0.601c-4.905-2.095-6.629-9.165-3.843-15.762
				c1.593-3.773,4.446-6.793,7.633-8.08c2.196-0.887,4.383-0.917,6.327-0.087c4.904,2.096,6.629,9.165,3.844,15.761l0,0
				c-1.595,3.773-4.448,6.794-7.636,8.08C1491.593,907.775,1490.46,908.006,1489.362,908.006z M1493.559,885.033
				c-0.825,0-1.687,0.176-2.56,0.528c-2.667,1.076-5.08,3.663-6.456,6.92c-2.325,5.507-1.111,11.313,2.706,12.942
				c1.404,0.601,3.02,0.564,4.673-0.104c2.668-1.077,5.081-3.665,6.457-6.921l0,0c2.325-5.506,1.111-11.312-2.706-12.942
				C1495.01,885.174,1494.299,885.033,1493.559,885.033z"/>
		</g>
		<g>
			<path style="fill:#2F1A31;" d="M1372.821,611.648c0,0-2.1-13.555-13.077-14.554c-10.979-0.998-18.955-0.356-24.055,3.992
				c-6.704,5.717-7.497,20.456-7.497,20.456s-14.907-29.877,1.784-45.23c10.474-9.634,46.219-20.804,68.675-5.162
				c22.457,15.642,14.663,35.37,14.663,35.37S1397.57,610.415,1372.821,611.648z"/>
		</g>
		<g>
			<path style="fill:#2F1A31;" d="M1386.217,571.151c0,0,16.552-13.67,12.809-23.778c-3.743-10.109-21.263-6.909-28.035-5.328
				c-6.772,1.582-7.918,13.673-2.479,21.475C1373.949,571.322,1386.217,571.151,1386.217,571.151z"/>
		</g>
	</g>
	<g>
		<g>
			<path style="fill:#F7B686;" d="M1585.475,769.894c0,0-8.753,22.861-18.605,56.872c-14.117,48.727-34.412,118.097-67.746,156.894
				l89.896-13.555l35.832-79.703l-2.06-123.052L1585.475,769.894z"/>
		</g>
		<g>
			<path style="fill:#2F1A31;" d="M1513.333,1285.182c0,0,0.501,16.998-10.724,22.413s-44.271,11.553-31.238,21.787
				c7.477,5.873,40.885-0.008,50.379-0.526c9.496-0.519,18.636,3.133,25.344-3.606c7.381-7.415-2.281-41.785-2.281-41.785
				s-7.96,4.715-15.338,4.926C1518.841,1288.693,1513.333,1285.182,1513.333,1285.182z"/>
		</g>
		<g>
			<path style="fill:#2F1A31;" d="M1409.905,1285.073c0,0,0.501,16.998-10.723,22.413c-11.226,5.415-44.271,11.552-31.239,21.787
				c7.479,5.873,40.886-0.008,50.38-0.526c9.495-0.519,18.635,3.133,25.344-3.607c7.381-7.414-2.28-41.784-2.28-41.784
				s-7.961,4.715-15.339,4.925C1415.415,1288.585,1409.905,1285.073,1409.905,1285.073z"/>
		</g>
		<g>
			<g>
				<path style="fill:#436E8E;" d="M1397.594,1256.993c8.406-111.36,10.387-186.501,45.626-234.776
					c38.567-52.835,141.968-90.204,181.837-92.535c65.018-3.802,95.654,5.878,95.654,5.878
					c48.803,101.485-27.641,114.949-84.187,117.725c-1.867,0.092-3.742,0.196-5.626,0.315
					c-34.234,2.156-95.104,10.852-118.142,44.869c-18.244,26.937-30.904,64.755-36.243,162.3
					c-1.024,18.718-16.727,33.235-35.466,32.721C1441.048,1293.489,1394.571,1297.046,1397.594,1256.993z"/>
			</g>
		</g>
		<g>
			<g>
				<path style="fill:#436E8E;" d="M1489.875,1262.728c-1.106-111.671-4.572-168.683,28.943-218.17
					c21.533-31.793,53.915-55.793,96.248-71.331c30.212-11.088,65.748-17.893,105.617-20.225
					c65.018-3.801,94.234-11.654,94.234-11.654c52.619,129.91-139.861,102.331-189.971,157.681
					c-21.835,24.117-48.889,69.982-54.227,167.528c-1.024,18.718-16.728,33.235-35.466,32.722
					C1535.255,1299.278,1490.279,1303.56,1489.875,1262.728z"/>
			</g>
		</g>
		<g>
			<path style="fill:#020202;" d="M1490.197,1153.045l-0.746-0.036c0.032-0.667,3.342-67.063,14.506-90.337
				c14.128-29.449,55.087-60.186,97.393-73.085l0.218,0.713c-42.123,12.845-82.891,43.417-96.937,72.695
				C1493.531,1086.134,1490.229,1152.378,1490.197,1153.045z"/>
		</g>
		<g>
			<path style="fill:#E28569;" d="M1768.795,735.085c0,0-27.661-47.28-91.423-32.771c-63.764,14.509-89.743,79.634-94.31,236.031
				c0,0,59.032-2.169,214.126,49.274c18.371,6.093,45.319,1.261,35.887-30.036C1815.541,899.411,1798.558,783.376,1768.795,735.085z
				"/>
		</g>
		<g>
			<path style="fill:#E28569;" d="M1838.939,748.892l-65.588,12.328c0,0-114.688,33.919-146.795,34.187
				c-32.106,0.268-45.394-23.214-45.394-23.214s25.895-43.955,80.167-64.692c5.098-1.956,10.439-3.696,16.039-5.183
				c9.4-2.487,18.955-4.666,28.519-4.776C1814.152,696.3,1838.939,748.892,1838.939,748.892z"/>
		</g>
		<g>
			<path style="fill:#2F1A31;" d="M1838.939,748.892c1.418,5.171-12.33,13.799-30.708,19.271
				c-18.378,5.474-34.427,5.718-35.845,0.547c-1.419-5.17,12.329-13.798,30.706-19.271
				C1821.472,743.966,1837.521,743.721,1838.939,748.892z"/>
		</g>
		<g>
			<g>
				<path style="fill:#F7B686;" d="M1675.897,958.606c0,0-36.853-2.099-46.369,5.805c-9.517,7.904-15.696,25.194-8.758,21.548
					c6.939-3.646,14.519-10.755,14.519-10.755s-15.479,15.949-10.181,17.953c5.297,2.004,18.626-11.996,18.626-11.996
					s-16.907,20.447-11.289,20.72c5.617,0.273,18.351-15.35,18.351-15.35s-14.97,19.651-8.437,19.815
					c6.532,0.165,12.266-16.319,17.563-14.315c5.297,2.005,20.464,13.562,27.833-0.484L1675.897,958.606z"/>
			</g>
			<g>
				<path style="fill:#DD8964;" d="M1635.66,975.469l-0.742-0.532c0.158-0.221,3.937-5.4,7.976-5.286l-0.023,0.913
					c-0.032-0.001-0.065-0.001-0.099-0.001C1639.223,970.563,1635.696,975.419,1635.66,975.469z"/>
			</g>
			<g>
				<path style="fill:#DD8964;" d="M1644.111,981.419l-0.753-0.517c0.147-0.216,3.696-5.287,9.364-6.276l0.156,0.9
					C1647.586,976.449,1644.146,981.369,1644.111,981.419z"/>
			</g>
			<g>
				<path style="fill:#DD8964;" d="M1651.168,986.795l-0.744-0.529c0.187-0.262,4.608-6.388,8.938-5.904l-0.101,0.908
					C1655.457,980.851,1651.211,986.736,1651.168,986.795z"/>
			</g>
		</g>
		<g>
			<g>
				<path style="fill:#F7B686;" d="M1811.745,917.946c-27.143,44.438-61.888,62.282-123.988,73.601l-11.863-32.938
					c45.214-8.24,68.367-40.968,86.563-70.758c25.875-42.383,21.214-94.018,17.337-116.834c-0.367-2.164,0.487-4.342,2.229-5.677
					c5.78-4.429,20.759-13.431,47.524-13.96c2.382-0.048,4.49,1.55,5.101,3.853C1845.846,797.406,1845.924,861.979,1811.745,917.946
					z"/>
			</g>
		</g>
		<g style="opacity:0.3;">
			<path style="fill:#E08B65;" d="M1798.105,908.926c-1.026,0-2.021-0.2-2.96-0.601c-4.905-2.095-6.63-9.165-3.844-15.762
				c1.593-3.772,4.446-6.794,7.634-8.08c2.196-0.887,4.384-0.917,6.325-0.087c4.906,2.095,6.631,9.164,3.844,15.761l0,0
				c-1.593,3.773-4.446,6.794-7.633,8.08C1800.336,908.696,1799.203,908.926,1798.105,908.926z M1802.301,885.953
				c-0.826,0-1.688,0.176-2.559,0.528c-2.668,1.076-5.081,3.663-6.456,6.92c-2.325,5.507-1.111,11.313,2.706,12.942
				c1.404,0.6,3.021,0.564,4.673-0.104c2.667-1.077,5.08-3.664,6.456-6.921l0,0c2.326-5.507,1.112-11.313-2.706-12.942
				C1803.752,886.094,1803.04,885.953,1802.301,885.953z"/>
		</g>
		<g>
			<path style="fill:#436E8E;" d="M1640.496,706.055c0,0,16.471-6.589,19.059-15.766c2.589-9.178,8.707-6.354,12.236-8.706
				c3.53-2.354-6.353-27.296-6.353-27.296l-34.119-12.471l3.528,43.767L1640.496,706.055z"/>
		</g>
		<g>
			<path style="fill:#F7B686;" d="M1696.202,690.305l-8.955-20.796l-2.793-6.489l-16.426-38.15l2.848,39.536l1.713,23.731
				l0.488,6.765c0.398,5.518-3.363,8.599-8.907,11.382l-0.095,0.018c-2.923,4.753,1.27,16.805,11.818,16.789
				c18.617-0.029,26.531-12.346,34.759-25.568C1710.61,697.517,1699.275,697.44,1696.202,690.305z"/>
		</g>
		<g>
			<path style="fill:#2F1A31;" d="M1687.288,668.854c-0.007,0.219-0.021,0.436-0.041,0.655
				c-0.942,12.744-14.575,18.698-14.575,18.698l-0.083-0.07l-1.713-23.731c4.169-1.527,10.105-3.096,13.578-1.386
				C1686.271,663.913,1687.412,665.701,1687.288,668.854z"/>
		</g>
		<g>
			<path style="fill:#F7B686;" d="M1631.371,635.069c0-23.913,15.713-43.299,35.096-43.299s35.096,19.386,35.096,43.299
				c0,23.913-15.713,43.3-35.096,43.3S1631.371,658.982,1631.371,635.069z"/>
		</g>
		<g>
			<g>
				<path style="fill:#060633;" d="M1663.072,635.487c-0.233-0.063-0.436-0.232-0.532-0.475c-0.164-0.408,0.034-0.872,0.442-1.036
					c0.241-0.097,5.613-2.86,10.334,2.304c0.299,0.325,0.292,0.825-0.027,1.129c-0.32,0.304-0.764,0.218-1.13-0.029
					c-3.665-2.463-8.382-1.999-8.582-1.921C1663.41,635.525,1663.234,635.531,1663.072,635.487z"/>
			</g>
		</g>
		<g>
			<g>
				<path style="fill:#060633;" d="M1672.785,642.95c0.241-0.03,0.492,0.049,0.674,0.235c0.306,0.317,0.3,0.82-0.016,1.128
					c-0.187,0.181-4.105,4.779-10.435,1.798c-0.399-0.188-0.583-0.652-0.403-1.055c0.181-0.402,0.622-0.492,1.056-0.403
					c4.327,0.885,8.514-1.336,8.669-1.485C1672.459,643.043,1672.619,642.971,1672.785,642.95z"/>
			</g>
		</g>
		<g>
			<g>
				<path style="fill:#060633;" d="M1663.168,662.716c-0.256,0.025-0.52-0.063-0.707-0.266c-0.317-0.341-0.301-0.873,0.04-1.191
					c0.201-0.188,4.447-4.969,11.081-1.677c0.418,0.207,0.604,0.703,0.404,1.125c-0.2,0.422-0.67,0.507-1.126,0.403
					c-4.561-1.03-9.038,1.229-9.206,1.384C1663.516,662.624,1663.344,662.696,1663.168,662.716z"/>
			</g>
		</g>
		<g>
			<g>
				<path style="fill:#060633;" d="M1647.546,645.035c0.24-0.029,0.491,0.049,0.673,0.236c0.307,0.316,0.3,0.82-0.016,1.127
					c-0.186,0.181-4.104,4.78-10.435,1.797c-0.398-0.187-0.583-0.652-0.402-1.055c0.18-0.402,0.622-0.491,1.055-0.402
					c4.328,0.886,8.514-1.336,8.669-1.485C1647.219,645.129,1647.381,645.057,1647.546,645.035z"/>
			</g>
		</g>
		<g>
			<path style="fill:#436E8E;" d="M1683.498,607.342c-26.853,6.412-45.896,30.461-46.751,58.055
				c-0.049,1.602-0.075,3.249-0.075,4.94c0,0,18.147,4.025,19.119,21.834c0.305,5.581-15.82,15.089-16.942,14.589
				c-8.451-3.765-30.511-24.339-25.511-65.174c5-40.835,20.834-70.836,58.335-72.086c37.502-1.251,32.502,23.751,32.502,23.751
				S1697.593,603.977,1683.498,607.342z"/>
		</g>
		<g>
			<path style="fill:#436E8E;" d="M1678.236,607.417c0,0,0.636,0.412,1.666,1.208c3.969,3.074,13.785,11.892,15.521,25.044
				c2.188,16.563-13.75,26.876-9.375,39.689c4.376,12.813,15.938-1.562,25.313,0.625c9.376,2.188,16.251-2.187,16.876-20.938
				c0.625-18.752-3.75-62.503-25.938-62.503L1678.236,607.417z"/>
		</g>
		<g>
			<path style="fill:#F7B686;" d="M1700.904,641.601c-3.975,3.796-9.533,4.185-12.415,0.868c-2.882-3.315-1.995-9.081,1.98-12.877
				c3.975-3.796,9.534-4.185,12.415-0.869C1705.767,632.038,1704.881,637.805,1700.904,641.601z"/>
		</g>
		<g>
			<path style="fill:#2F1A31;" d="M1627.53,685.842c-2.586-27.032,7.146-53.252,17.937-67.244
				c8.792-11.401,17.848-15.94,23.896-17.739c6.573-1.956,10.996-1.215,11.181-1.182l-0.09,0.512
				c-0.175-0.03-17.939-2.845-34.575,18.727c-10.728,13.912-20.402,39.986-17.83,66.879L1627.53,685.842z"/>
		</g>
		<g>
			<path style="fill:#2F1A31;" d="M1711.91,659.198l-0.47-0.223c8.329-17.491,4.092-47.783-2.888-56.815
				c-6.873-8.896-17.912-4.139-18.023-4.088l-0.211-0.477c0.115-0.051,11.52-4.976,18.646,4.246
				C1716.018,610.97,1720.313,641.555,1711.91,659.198z"/>
		</g>
		<g>
			<path style="fill:#2F1A31;" d="M1625.682,652.435l-0.52-0.029c0.029-0.51,3.16-51.098,23.491-59.811
				c10.615-4.55,19.747-3.623,25.536-2.043c6.278,1.712,10.103,4.546,10.141,4.574l-0.313,0.416
				c-0.148-0.111-15.119-11.057-35.159-2.469C1628.82,601.66,1625.71,651.928,1625.682,652.435z"/>
		</g>
	</g>
	<g>
		<g style="opacity:0.6;">
			<g>
				<path style="fill:#B2C9C6;" d="M2085.289,534.876c0-74.902-66.584-126.541-140.765-126.541
					c-107.428,0-144.32,60.721-144.32,135.622c0,74.903,85.131,127.95,159.312,127.95
					C2033.695,671.907,2085.289,609.778,2085.289,534.876z"/>
			</g>
			<g>
				<path style="fill:#B2C9C6;" d="M2108.766,655.101c0,0-46.955-7.321-50.309-54.459l-36.894,27.229
					C2021.563,627.87,2039.172,671.187,2108.766,655.101z"/>
			</g>
		</g>
		<g>
			<path style="fill:#2F1A31;" d="M1961.646,687.729c-37.098,0-77.437-13.468-107.905-36.029
				c-33.618-24.892-52.132-57.794-52.132-92.646c0-40.906,10.788-73.337,32.066-96.392c24.47-26.514,62.482-39.957,112.979-39.957
				c37.098,0,72.14,12.558,98.673,35.357c27.611,23.728,42.816,56.368,42.816,91.91c0,30.035-8.154,58.33-23.588,81.852
				c11.138,31.801,46.1,37.6,46.453,37.655l3.708,0.579l-3.656,0.844c-21.188,4.898-50.991,7.162-73.045-9.683
				C2016.476,678.565,1990.08,687.729,1961.646,687.729z M1946.653,424.156c-50.075,0-87.728,13.286-111.912,39.489
				c-21.023,22.779-31.683,54.879-31.683,95.408c0,34.381,18.305,66.868,51.545,91.479c30.228,22.383,70.243,35.745,107.042,35.745
				c28.296,0,54.542-9.18,75.901-26.546l0.447-0.363l0.455,0.354c20.566,16.034,48.317,14.804,69.07,10.473
				c-9.187-2.336-35.179-11.2-44.453-38.237l-0.115-0.337l0.195-0.297c15.404-23.344,23.547-51.476,23.547-81.352
				c0-35.112-15.027-67.362-42.313-90.81C2018.111,436.589,1983.404,424.156,1946.653,424.156z"/>
		</g>
	</g>
	<g>
		<g>
			<g>
				<path style="fill:#9BBCB6;" d="M1254.617,454.676c0-74.902-66.584-126.541-140.765-126.541
					c-107.429,0-144.321,60.721-144.321,135.622c0,74.903,85.132,127.95,159.312,127.95S1254.617,529.578,1254.617,454.676z"/>
			</g>
			<g>
				<path style="fill:#9BBCB6;" d="M1278.094,574.899c0,0-46.954-7.319-50.309-54.458l-36.894,27.229
					C1190.892,547.67,1208.5,590.986,1278.094,574.899z"/>
			</g>
		</g>
		<g>
			<path style="fill:#2F1A31;" d="M1130.974,607.529c-37.099,0-77.437-13.469-107.905-36.029
				c-33.618-24.893-52.133-57.795-52.133-92.647c0-40.906,10.789-73.337,32.067-96.392c24.47-26.513,62.481-39.957,112.979-39.957
				c37.098,0,72.14,12.557,98.674,35.358c27.61,23.727,42.816,56.367,42.816,91.908c0,30.036-8.155,58.33-23.589,81.853
				c11.131,31.778,46.1,37.6,46.453,37.655l3.702,0.579l-3.65,0.845c-21.188,4.897-50.991,7.159-73.046-9.684
				C1185.803,598.365,1159.408,607.529,1130.974,607.529z M1115.981,343.957c-50.075,0-87.728,13.286-111.913,39.489
				c-21.023,22.778-31.683,54.878-31.683,95.408c0,34.381,18.307,66.868,51.546,91.48c30.228,22.383,70.243,35.745,107.042,35.745
				c28.296,0,54.542-9.181,75.9-26.547l0.448-0.363l0.455,0.354c20.566,16.035,48.318,14.805,69.07,10.474
				c-9.187-2.335-35.18-11.2-44.454-38.237l-0.114-0.337l0.195-0.297c15.404-23.344,23.547-51.476,23.547-81.353
				c0-35.111-15.027-67.361-42.313-90.808C1187.438,356.389,1152.732,343.957,1115.981,343.957z"/>
		</g>
	</g>
	<g>
		<g>
			<path style="fill:#2F1A31;" d="M2002.573,1362.402c0,0-0.809,17.685-12.885,22.429c-12.075,4.743-46.858,8.531-34.13,20.175
				c7.302,6.682,42.442,3.188,52.338,3.391c9.898,0.205,19.101,4.71,26.592-1.763c8.24-7.12,0.898-43.554,0.898-43.554
				s-8.632,4.271-16.308,3.914C2008.017,1366.479,2002.573,1362.402,2002.573,1362.402z"/>
		</g>
		<g>
			<path style="fill:#2F1A31;" d="M1897.014,1380.556c0,0-1,17.676-13.125,22.288c-12.127,4.612-46.949,8.023-34.348,19.805
				c7.23,6.759,42.406,3.646,52.299,3.957c9.895,0.311,19.049,4.915,26.608-1.475c8.319-7.031,1.37-43.543,1.37-43.543
				s-8.677,4.179-16.35,3.738C1902.414,1384.689,1897.014,1380.556,1897.014,1380.556z"/>
		</g>
		<g>
			<g>
				<path style="fill:#6F4975;" d="M1905.091,1395.184c-20.443-2.328-35.452-20.332-34.041-40.858
					c7.977-115.985,18.771-174.401,57.956-222.732c25.177-31.05,61.943-60.515,106.041-76.615
					c38.019-13.881,70.05-19.754,111.61-18.608c67.774,1.871,98.686,14.647,98.686,14.647
					c41.546,109.624-38.944,116.754-97.841,114.577c-1.945-0.072-3.9-0.131-5.864-0.177c-35.699-0.823-99.609,2.755-126.546,35.976
					c-21.33,26.308-37.843,64.4-52.1,165.095c-2.736,19.323-20.32,32.977-39.71,30.769L1905.091,1395.184z"/>
			</g>
		</g>
		<g>
			<g>
				<path style="fill:#6F4975;" d="M2007.447,1374.816c-20.434-2.391-35.65-19.003-34.509-37.701
					c6.443-105.656,16.451-158.781,54.929-202.338c24.721-27.984,60.096-47.574,105.143-58.226
					c32.149-7.601,69.491-10.65,110.985-9.062c67.667,2.592,98.54-2.048,98.54-2.048c45.454,177.978-152.686,83.361-208.804,130.878
					c-24.452,20.705-55.959,61.456-68.871,153.088c-2.479,17.582-19.85,29.803-39.229,27.535L2007.447,1374.816z"/>
			</g>
		</g>
		<g>
			<path style="fill:#020202;" d="M1974.959,1302.043l-0.764-0.146c0.051-0.263,5.324-26.545,27.31-54.006
				c12.911-16.125,28.974-29.502,47.743-39.761c23.453-12.818,51.219-20.772,82.527-23.646l0.07,0.774
				c-31.201,2.862-58.866,10.786-82.225,23.553c-18.68,10.209-34.664,23.521-47.51,39.565
				C1980.244,1275.689,1975.01,1301.783,1974.959,1302.043z"/>
		</g>
		<g>
			<path style="fill:#F7B686;" d="M2212.588,741.496l-6.516-28.218l-1.896-8.215l-11.149-48.301l-5.386,46.832l-3.229,28.11
				l-1.021,8.898c-0.694,6.039-4.481,7.042-9.364,11.976c-1.978,1.999-14.582,14.075-1.788,20.892
				c15.938,8.492,47.547-0.261,60.319-13.836C2232.468,759.607,2214.695,750.615,2212.588,741.496z"/>
		</g>
		<g>
			<path style="fill:#F7B686;" d="M2152.751,666.025c5.679-27.443,28.732-45.871,51.491-41.16
				c22.758,4.709,36.604,30.774,30.924,58.216c-5.679,27.442-28.732,45.87-51.49,41.16
				C2160.916,719.531,2147.071,693.467,2152.751,666.025z"/>
		</g>
		<g>
			<path style="fill:#2F1A31;" d="M2171.626,655.185c-24.061-0.867-34.679-15.569-34.011-28.407
				c0.856-16.464,12.279-30.263,23.882-23.264c11.603,6.997,7.532-8.367,19.239-9.104c21.875-1.378,24.806,14.324,42.474,16.379
				c23.306,2.712,47.093,43.628,25.405,70.617C2248.615,681.407,2190.628,655.87,2171.626,655.185z"/>
		</g>
		<g>
			<path style="fill:#2F1A31;" d="M2151.482,637.035c0,0,23.818,26.571,19.414,40.213c-4.404,13.64-3.949,19.144,10.479,27.653
				c14.428,8.512,0.318,19.57,20.209,21.907c19.891,2.339,46.075-19.441,48.923-58.206c1.589-21.612-9.782-36.667-9.782-36.667
				L2151.482,637.035z"/>
		</g>
		<g>
			<path style="fill:#F7B686;" d="M2157.999,675.68c3.208-3.907,8.641-4.751,12.133-1.884c3.492,2.868,3.722,8.36,0.513,12.269
				s-8.641,4.751-12.133,1.884C2155.02,685.08,2154.79,679.588,2157.999,675.68z"/>
		</g>
		<g>
			<path style="fill:#2F1A31;" d="M2243.551,675.899c-0.25,0-0.486-0.154-0.58-0.402c-1.886-5.024-7.262-7.304-7.316-7.327
				c-0.314-0.131-0.466-0.493-0.334-0.809c0.131-0.318,0.492-0.467,0.809-0.337c0.24,0.1,5.924,2.498,8.003,8.036
				c0.12,0.322-0.042,0.679-0.363,0.799C2243.697,675.887,2243.624,675.899,2243.551,675.899z"/>
		</g>
		<g>
			<path style="fill:#2F1A31;" d="M2235.47,665.231c-0.287,0-0.546-0.201-0.605-0.494c-0.069-0.336,0.146-0.663,0.481-0.732
				c0.064-0.013,6.425-1.39,6.643-6.5c0.014-0.343,0.288-0.595,0.646-0.594c0.343,0.016,0.608,0.304,0.593,0.647
				c-0.259,6.082-7.559,7.646-7.632,7.662C2235.553,665.229,2235.511,665.231,2235.47,665.231z"/>
		</g>
		<g>
			<path style="fill:#2F1A31;" d="M2163.344,600.361c-0.538,0-1.09-0.106-1.656-0.32c-2.051-0.776-3.53-1.973-4.962-3.13
				c-2.65-2.142-4.94-3.991-10.299-2.686c-0.347,0.085-0.7-0.129-0.785-0.478c-0.085-0.35,0.129-0.701,0.478-0.785
				c5.984-1.455,8.75,0.777,11.424,2.938c1.352,1.094,2.749,2.224,4.604,2.925c0.941,0.356,1.788,0.309,2.586-0.148
				c2.99-1.712,4.146-8.286,4.157-8.352c0.061-0.354,0.401-0.592,0.751-0.53c0.354,0.06,0.591,0.396,0.53,0.75
				c-0.05,0.295-1.275,7.247-4.793,9.26C2164.731,600.176,2164.051,600.361,2163.344,600.361z"/>
		</g>
		<g>
			<path style="fill:#2F1A31;" d="M2223.656,603.481c-9.594,0-16.685-7.656-16.998-8c-0.241-0.266-0.222-0.676,0.044-0.918
				c0.263-0.24,0.677-0.223,0.917,0.042c0.076,0.084,7.767,8.354,17.469,7.514c0.35-0.032,0.672,0.233,0.704,0.592
				c0.03,0.357-0.234,0.674-0.593,0.704C2224.68,603.459,2224.164,603.481,2223.656,603.481z"/>
		</g>
		<g>
			<path style="fill:#2F1A31;" d="M2163.914,690.129c-1.296,0-2.147-0.348-2.17-0.357c-0.151-0.065-0.221-0.238-0.157-0.391
				c0.064-0.151,0.239-0.224,0.392-0.159c0.213,0.09,5.283,2.126,9.499-4.933c0.085-0.14,0.269-0.188,0.409-0.102
				c0.142,0.084,0.188,0.268,0.104,0.409C2169.222,689.231,2165.996,690.129,2163.914,690.129z"/>
		</g>
		<g>
			<path style="fill:#E28569;" d="M2205.643,744.582c-105.92,0.002-126.619,69.862-126.619,69.862s33.566,9.587,33.453,20.536
				c-0.389,37.484-23.594,143.245-18.814,208.148c0,0,112.97,187.95,261.005,30.755
				C2354.667,1073.884,2415.099,744.58,2205.643,744.582z"/>
		</g>
		<g>
			<g>
				<g>
					<polygon style="fill:#2F1A31;" points="2232.315,1378.263 2250.993,1378.263 2250.993,1174.734 2238.732,1188.258 					"/>
				</g>
				<g>
					<path style="fill:#2F1A31;" d="M2185.61,1389.421c0,0,83.69,1.502,111.59,1.717c3.081,0.023,5.293-4.214,5.293-7.296l0,0
						c0-3.082-4.5-6.74-7.582-6.724c-27.327,0.144-109.301,1.145-109.301,1.145c-3.082,0-5.579,2.497-5.579,5.579l0,0
						C2180.031,1386.924,2182.528,1389.421,2185.61,1389.421z"/>
				</g>
				<g>
					<path style="fill:#2F1A31;" d="M2298.488,1399.436c-1.021-6.121-6.384-10.015-12.59-10.015
						c-6.205,0-12.589,4.095-12.589,10.301c0,7.725,7.814,13.161,14.02,13.161
						C2293.535,1412.883,2299.775,1407.16,2298.488,1399.436z"/>
				</g>
				<g>
					<path style="fill:#2F1A31;" d="M2209.221,1399.436c-1.021-6.121-6.384-10.015-12.59-10.015
						c-6.205,0-12.589,4.095-12.589,10.301c0,7.725,7.813,13.161,14.02,13.161S2210.508,1407.16,2209.221,1399.436z"/>
				</g>
				<g>
					<path style="fill:#2F1A31;" d="M2278.889,1187.281c0,0,3.004,13.305-27.896,17.596c-30.901,4.292-44.205-17.596-44.205-17.596
						H2278.889z"/>
				</g>
			</g>
			<g>
				<path style="fill:#96A7E2;" d="M2204.282,1166.65c-0.329-37.365,5.438-188.414,58.653-198.277
					c20.887-3.871,94.774-13.418,104.719,18.302c16.938,54.035-29.002,188.06-29.002,188.06s-4.146,14.242-19.275,15.836
					c-15.129,1.592-199.936,6.944-201.758,0C2110.438,1163.217,2177.939,1174.287,2204.282,1166.65z"/>
			</g>
		</g>
		<g>
			<path style="fill:#2F1A31;" d="M2173.71,834.115c-0.907,4.369-22.839,3.507-48.986-1.925
				c-26.147-5.431-46.608-13.376-45.7-17.746c0.908-4.368,22.84-3.508,48.986,1.925
				C2154.157,821.801,2174.619,829.746,2173.71,834.115z"/>
		</g>
		<g>
			<g>
				<path style="fill:#F7B686;" d="M1919.556,959.398c-11.335-5.504,3.388-45.355,3.388-45.355
					c2.479-3.378,73.981,29.657,129.391-10.977c19.733-14.472,33.203-76.598,33.466-83.086c0.018-0.427,14.533-3.576,38.315,1.017
					c19.612,3.787,39.226,15.896,39.226,15.896c-0.477,11.754-10.554,59.604-26.944,89.536
					C2102.486,988.348,1985.719,1005.207,1919.556,959.398z"/>
			</g>
		</g>
		<g style="opacity:0.5;">
			<path style="fill:#E08B65;" d="M2062.926,952.565c-2.418,0-4.579-0.799-6.057-2.449c-3.475-3.883-1.857-11.018,3.604-15.907
				c5.463-4.89,12.733-5.711,16.208-1.828c3.475,3.882,1.857,11.018-3.604,15.907l0,0
				C2069.937,951.099,2066.197,952.565,2062.926,952.565z M2070.64,932.419c-2.657,0-5.846,1.273-8.5,3.648
				c-4.362,3.904-5.923,9.575-3.41,12.384c2.514,2.808,8.321,1.879,12.682-2.023l0,0c4.362-3.904,5.924-9.576,3.411-12.383
				C2073.838,932.945,2072.349,932.419,2070.64,932.419z"/>
		</g>
		<g>
			<g>
				<path style="fill:#F7B686;" d="M1908.883,933.892L1908.883,933.892c-1.872,3.22-6.038,4.323-9.258,2.452l-42.275-24.57
					c-3.22-1.871-4.323-6.037-2.451-9.257l0,0c1.871-3.22,6.037-4.323,9.257-2.452l42.275,24.569
					C1909.65,926.506,1910.754,930.672,1908.883,933.892z"/>
			</g>
			<g>
				<path style="fill:#F7B686;" d="M1917.593,918.904L1917.593,918.904c-1.872,3.22-6.038,4.323-9.258,2.451l-54.806-31.852
					c-3.22-1.873-4.323-6.038-2.451-9.258l0,0c1.871-3.22,6.037-4.323,9.257-2.453l54.806,31.853
					C1918.361,911.518,1919.464,915.684,1917.593,918.904z"/>
			</g>
			<g>
				<path style="fill:#F7B686;" d="M1949.04,931.79l-2.245,0.877c-4.194,1.637-8.966-0.454-10.604-4.649l-15.954-40.864
					c-1.638-4.194,0.455-8.967,4.649-10.604l2.244-0.877c4.195-1.638,8.968,0.455,10.605,4.649l15.953,40.863
					C1955.327,925.381,1953.235,930.152,1949.04,931.79z"/>
			</g>
			<g>
				<path style="fill:#F7B686;" d="M1926.318,903.924L1926.318,903.924c-1.872,3.221-6.037,4.324-9.258,2.452l-44.807-26.04
					c-3.22-1.872-4.323-6.038-2.452-9.258l0,0c1.872-3.22,6.038-4.324,9.258-2.452l44.806,26.041
					C1927.086,896.538,1928.189,900.703,1926.318,903.924z"/>
			</g>
			<g>
				<path style="fill:#F7B686;" d="M1931.451,960.614c0,0-38.7,0.176-55.764-21.388c-5.904-7.463,9.772-56.816,20.405-56.042
					c10.634,0.773,50.361,27.247,50.361,27.247L1931.451,960.614z"/>
			</g>
			<g>
				<path style="fill:#F7B686;" d="M1900.409,948.606l-0.238,0.41c-1.802,3.1-5.813,4.163-8.915,2.36l-34.145-19.844
					c-3.101-1.802-4.163-5.813-2.36-8.915l0.237-0.409c1.803-3.101,5.814-4.163,8.915-2.36l34.145,19.844
					C1901.148,941.493,1902.211,945.505,1900.409,948.606z"/>
			</g>
		</g>
	</g>
	<g>
		<g>
			<path style="fill:#BED5DC;" d="M1280.703,1344.311c0,0-32.063-33.006-21.031-51.805c11.033-18.798,29.649,40.382,29.649,40.382
				s-9.653-69.979,10.344-71.194c19.996-1.214,0,71.194,0,71.194s7.412-16.884,14.652-17.929c7.239-1.044,5.171,14.317-7.758,29.352
				H1280.703z"/>
		</g>
		<g>
			<path style="fill:#42428E;" d="M1282.99,1345.132c-0.092-0.095-9.266-9.587-16.772-21.58
				c-10.241-16.359-12.682-29.346-7.252-38.597c2.025-3.451,4.458-5.042,7.236-4.728c5.613,0.637,11.933,9.207,19.319,26.201
				c2.211,5.088,4.171,10.173,5.708,14.388c-1.769-18.359-3.812-54.894,6.223-67.14c2.161-2.636,4.792-4.066,7.819-4.25
				c2.963-0.17,5.384,0.879,7.22,3.146c9.038,11.151,0.914,50.868-3.553,69.456c3.325-5.436,8.04-11.482,12.855-12.177
				c2.27-0.325,4.084,0.52,5.109,2.388c2.948,5.371-1.05,19.124-12.845,32.84l-1.788-1.539
				c11.599-13.488,14.751-26.187,12.565-30.166c-0.546-0.998-1.407-1.378-2.704-1.188c-6.206,0.896-13.443,14.481-15.708,19.642
				l-2.217-0.787c0.044-0.16,4.437-16.146,7.377-33.633c3.848-22.867,3.527-37.858-0.924-43.352
				c-1.35-1.664-3.058-2.406-5.245-2.276c-2.38,0.145-4.388,1.253-6.14,3.391c-12.677,15.471-4.578,75.419-4.496,76.022
				l-2.292,0.515c-4.186-13.305-17.116-48.068-26.551-49.138c-1.79-0.192-3.405,0.967-4.938,3.578
				c-11.92,20.313,23.326,56.973,23.684,57.341L1282.99,1345.132z"/>
		</g>
	</g>
	<g>
		<g>
			<path style="fill:#BED5DC;" d="M2374.702,1352.563c0,0-47.706-49.109-31.29-77.079c16.415-27.971,44.114,60.083,44.114,60.083
				s-14.363-104.119,15.39-105.928s0,105.928,0,105.928s11.029-25.121,21.802-26.675s7.694,21.302-11.542,43.671H2374.702z"/>
		</g>
		<g>
			<path style="fill:#42428E;" d="M2378.106,1353.784c-2.248-2.313-54.821-57.033-35.747-89.536
				c3.014-5.136,6.616-7.507,10.768-7.034c8.353,0.948,17.756,13.7,28.745,38.985c3.309,7.613,6.239,15.225,8.533,21.517
				c-0.838-8.8-1.727-20.428-2.051-32.662c-0.911-34.448,2.88-57.106,11.27-67.344c3.214-3.923,7.128-6.05,11.635-6.324
				c4.385-0.256,8.008,1.308,10.742,4.681c13.446,16.595,1.358,75.688-5.288,103.345c4.949-8.088,11.963-17.084,19.13-18.118
				c3.384-0.489,6.078,0.774,7.601,3.552c4.388,7.992-1.563,28.454-19.112,48.861l-2.659-2.287
				c17.259-20.068,21.948-38.964,18.697-44.887c-0.815-1.485-2.096-2.045-4.025-1.768c-9.225,1.332-20,21.548-23.373,29.227
				l-3.297-1.173c0.066-0.237,6.602-24.022,10.978-50.041c5.723-34.024,5.247-56.329-1.376-64.502
				c-2.008-2.477-4.556-3.585-7.805-3.388c-3.539,0.215-6.527,1.865-9.133,5.046c-18.864,23.018-6.814,112.214-6.69,113.112
				l-3.41,0.767c-6.229-19.797-25.468-71.521-39.507-73.112c-2.649-0.302-5.064,1.438-7.345,5.323
				c-17.729,30.21,34.706,84.77,35.236,85.317L2378.106,1353.784z"/>
		</g>
	</g>
	<g>
		<g>
			<path style="fill:#BED5DC;" d="M367.968,1364.558c0,0-34.671-35.691-22.742-56.019c11.93-20.328,32.062,43.667,32.062,43.667
				s-10.439-75.671,11.184-76.985c21.623-1.313,0,76.985,0,76.985s8.016-18.258,15.845-19.387s5.592,15.481-8.389,31.738H367.968z"
				/>
		</g>
		<g>
			<path style="fill:#42428E;" d="M370.441,1365.446c-0.099-0.103-10.02-10.368-18.138-23.335
				c-11.074-17.691-13.713-31.733-7.841-41.737c2.19-3.732,4.821-5.45,7.824-5.112c6.071,0.689,12.904,9.957,20.892,28.333
				c2.391,5.502,4.51,11.001,6.173,15.558c-1.912-19.853-4.123-59.358,6.729-72.601c2.336-2.851,5.181-4.397,8.455-4.596
				c3.189-0.195,5.82,0.95,7.808,3.401c9.772,12.06,0.987,55.006-3.843,75.105c3.596-5.877,8.693-12.415,13.901-13.166
				c2.453-0.357,4.417,0.563,5.524,2.581c3.189,5.81-1.136,20.681-13.89,35.511l-1.934-1.662
				c12.543-14.585,15.951-28.316,13.589-32.622c-0.593-1.078-1.52-1.488-2.926-1.285c-6.704,0.968-14.534,15.661-16.986,21.241
				l-2.396-0.853c0.048-0.173,4.797-17.459,7.978-36.367c4.159-24.729,3.813-40.938-1-46.878c-1.459-1.801-3.312-2.606-5.672-2.463
				c-2.572,0.157-4.744,1.356-6.638,3.668c-13.709,16.729-4.952,81.552-4.862,82.205l-2.479,0.557
				c-4.526-14.387-18.509-51.977-28.711-53.134c-1.939-0.225-3.682,1.047-5.339,3.868c-12.885,21.955,25.223,61.607,25.61,62.005
				L370.441,1365.446z"/>
		</g>
	</g>
	<g>
		<g>
			<path style="fill:#BED5DC;" d="M1557.454,1455.688c0,0-29.323-30.185-19.233-47.377c10.089-17.191,27.115,36.932,27.115,36.932
				s-8.828-63.998,9.459-65.109s0,65.109,0,65.109s6.778-15.442,13.4-16.396c6.621-0.955,4.729,13.093-7.095,26.842H1557.454z"/>
		</g>
		<g>
			<path style="fill:#42428E;" d="M1559.546,1456.439c-0.084-0.086-8.474-8.768-15.339-19.734
				c-9.367-14.962-11.599-26.838-6.633-35.298c1.853-3.157,4.072-4.617,6.618-4.323c8.604,0.976,18.028,23.593,22.899,37.042
				c-0.512-5.391-1.05-12.478-1.247-19.932c-0.56-21.173,1.771-35.1,6.927-41.392c1.976-2.411,4.383-3.719,7.151-3.888
				c2.707-0.161,4.924,0.804,6.603,2.878c8.265,10.198,0.836,46.52-3.249,63.52c3.042-4.973,7.353-10.501,11.758-11.137
				c2.078-0.303,3.735,0.477,4.672,2.184c2.695,4.912-0.962,17.489-11.747,30.032l-1.636-1.405
				c10.608-12.336,13.49-23.949,11.492-27.59c-0.501-0.912-1.286-1.261-2.475-1.086c-5.674,0.818-12.293,13.244-14.365,17.963
				l-2.026-0.72c0.04-0.146,4.058-14.766,6.747-30.758c3.518-20.914,3.225-34.623-0.847-39.646
				c-1.232-1.521-2.807-2.198-4.795-2.082c-2.177,0.133-4.013,1.146-5.615,3.101c-11.592,14.146-4.188,68.973-4.111,69.525
				l-2.098,0.471c-3.828-12.168-15.652-43.959-24.281-44.938c-1.642-0.184-3.114,0.886-4.516,3.272
				c-10.901,18.576,21.332,52.103,21.659,52.439L1559.546,1456.439z"/>
		</g>
	</g>
	<g>
		<g>
			<path style="fill:#BED5DC;" d="M1117.391,1455.688c0,0-33.322-34.302-21.856-53.839c11.465-19.536,30.813,41.969,30.813,41.969
				s-10.032-72.727,10.749-73.989c20.781-1.264,0,73.989,0,73.989s7.703-17.548,15.228-18.633
				c7.524-1.086,5.375,14.879-8.062,30.503H1117.391z"/>
		</g>
		<g>
			<path style="fill:#42428E;" d="M1119.768,1456.542c-1.57-1.615-38.291-39.836-24.968-62.539c2.106-3.588,4.642-5.239,7.521-4.913
				c5.834,0.662,12.401,9.569,20.078,27.229c2.298,5.288,4.334,10.573,5.932,14.953c-1.837-19.081-3.963-57.05,6.467-69.775
				c2.246-2.739,4.979-4.226,8.127-4.417c3.072-0.183,5.595,0.914,7.504,3.27c9.393,11.591,0.949,52.865-3.694,72.183
				c3.457-5.648,8.355-11.932,13.361-12.654c2.355-0.341,4.245,0.541,5.31,2.48c3.064,5.582-1.092,19.875-13.349,34.129
				l-1.858-1.597c12.055-14.019,15.33-27.216,13.06-31.354c-0.569-1.036-1.462-1.43-2.812-1.233
				c-6.449,0.93-13.971,15.051-16.325,20.413l-2.303-0.819c0.046-0.165,4.61-16.778,7.667-34.951
				c3.998-23.767,3.666-39.346-0.961-45.055c-1.402-1.729-3.185-2.493-5.451-2.366c-2.473,0.15-4.56,1.303-6.38,3.523
				c-13.173,16.074-4.759,78.38-4.672,79.008l-2.383,0.535c-4.351-13.827-17.789-49.955-27.595-51.067
				c-1.86-0.209-3.538,1.005-5.13,3.719c-12.39,21.11,24.24,59.21,24.612,59.592L1119.768,1456.542z"/>
		</g>
	</g>
	<g>
		<g>
			<g>
				<path style="fill:#CFD3A3;" d="M814.284,537.185c0-61.383,54.567-103.702,115.358-103.702
					c88.039,0,118.273,49.762,118.273,111.145c0,61.385-69.768,104.858-130.56,104.858
					C856.564,649.485,814.284,598.568,814.284,537.185z"/>
			</g>
			<g>
				<path style="fill:#CFD3A3;" d="M795.044,635.711c0,0,38.479-6,41.229-44.631l30.234,22.315
					C866.507,613.396,852.077,648.894,795.044,635.711z"/>
			</g>
		</g>
		<g>
			<path style="fill:#2F1A31;" d="M915.612,662.45c-23.304,0-44.935-7.511-62.587-21.724c-10.081,7.693-28.576,15.167-59.861,7.934
				l-2.992-0.691l3.035-0.475c0.289-0.045,28.947-4.817,38.068-30.859c-12.648-19.277-19.331-42.464-19.331-67.079
				c0-29.128,12.462-55.876,35.089-75.322c21.745-18.685,50.463-28.975,80.864-28.975c41.384,0,72.534,11.017,92.587,32.745
				c17.439,18.893,26.28,45.472,26.28,78.994c0,28.561-15.173,55.525-42.723,75.925C979.072,651.413,946.015,662.45,915.612,662.45z
				 M853.042,639.208l0.367,0.299c17.504,14.233,39.015,21.756,62.203,21.756c30.157,0,62.95-10.952,87.723-29.294
				c27.239-20.17,42.241-46.795,42.241-74.97c0-33.216-8.736-59.522-25.965-78.188c-19.819-21.475-50.676-32.363-91.714-32.363
				c-30.117,0-58.561,10.188-80.089,28.688c-22.361,19.216-34.676,45.645-34.676,74.42c0,24.485,6.673,47.539,19.297,66.669
				l0.161,0.244l-0.095,0.277c-7.602,22.158-28.906,29.423-36.434,31.335c29.616,6.204,47.094-1.166,56.606-8.583L853.042,639.208z"
				/>
		</g>
	</g>
</g>
</svg>
