<?xml version="1.0" encoding="utf-8"?>
<!-- Generator: Adobe Illustrator 27.5.0, SVG Export Plug-In . SVG Version: 6.00 Build 0)  -->
<svg version="1.1" id="Слой_1" xmlns="http://www.w3.org/2000/svg" xmlns:xlink="http://www.w3.org/1999/xlink" x="0px" y="0px"
	 viewBox="0 0 3200 2000" style="enable-background:new 0 0 3200 2000;" xml:space="preserve">
<rect x="0" style="fill:#FFFFFF;" width="3200" height="2000"/>
<g>
	<g>
		<path style="fill:#EBF3FA;" d="M2989.185,1487.526c0,0,218.646-294.725-74.636-564.965
			c-569.78-525.014-1132.067,58.221-1380.887-161.451C1122.071,397.737,240.475,517.152,310.83,1037.075
			c31.048,229.446-295.859,229.529-95.573,450.92L2989.185,1487.526z"/>
		<path style="fill:#2E3552;" d="M139.029,1484.626v1.072c0,1.712,1.506,3.122,3.336,3.122h2937.401c1.829,0,3.336-1.41,3.336-3.122
			v-1.072c0-1.712-1.507-3.121-3.336-3.121H142.365C140.535,1481.505,139.029,1482.914,139.029,1484.626z"/>
		<g>
			<g>
				<path style="fill:#C8DBF4;" d="M950.63,1298.487c0,0-28.768-33.562-1.774-54.879c0,0,19.717-11.938,35.794-10.968
					c0,0-22.781,38.201-15.411,42c7.37,3.801,22.316-44.396,22.316-44.396s44.87-4.351,59.304,2.589c0,0-38.358,31.39-30.28,33.258
					c8.079,1.869,49.51-28.94,49.51-28.94s41.761,7.106,39.534,32.582c-2.227,25.476-16.616,33.342-22.94,32.665
					c-6.325-0.678-43.32-14.8-44.126-9.618c-0.806,5.182,21.464,22.117,37.058,22.909c0,0-29.442,32.47-49.01,23.1
					c-19.567-9.371-21.238-24.226-33.436-29.797c-12.197-5.571-22.61-5.558-17.574,0.125c5.036,5.682,27.111,11.204,34.087,23.543
					c6.976,12.339,13.234,20.66-7.011,17.614c-20.245-3.047-53.153-17.86-54.598-34.823
					C950.63,1298.487,950.63,1298.487,950.63,1298.487z"/>
				<g>
					<path style="fill:#C8DBF4;" d="M1089.105,1270.42c0,0-113.426-4.371-138.475,28.067c0,0-5.54,16.591-22.586,31.699
						l-2.657,7.241c0,0,19.655-20.724,26.688-21.978C952.074,1315.45,941.076,1275.263,1089.105,1270.42z"/>
					<path style="fill:#C8DBF4;" d="M928.043,1330.187c0,0-24.346,18.005-26.037,50.176l4.419,0.396c0,0,7.775-33.265,21.83-46.273
						C942.309,1321.477,928.043,1330.187,928.043,1330.187z"/>
				</g>
			</g>
			<g>
				<path style="fill:#C8DBF4;" d="M850.049,1256.28c0,0,45.762-25.626,24.406-60.405c0,0-17.084-21.355-35.389-26.847
					c0,0,9.762,51.863,0,53.083c-9.763,1.221-6.712-58.574-6.712-58.574s-48.203-23.187-67.117-21.355
					c0,0,29.897,50.643,20.135,49.422c-9.762-1.22-43.321-52.473-43.321-52.473s-49.423-9.152-57.354,20.135
					c-7.932,29.287,4.881,43.931,12.203,45.762c7.322,1.83,54.304,1.221,53.083,7.322c-1.22,6.101-32.948,15.863-50.643,10.372
					c0,0,19.525,48.202,45.151,45.762c25.626-2.44,33.559-18.305,49.423-19.525c15.864-1.22,27.457,3.051,19.525,7.322
					c-7.932,4.271-34.779,1.399-47.592,12.293c-12.813,10.893-23.186,17.604,0.61,22.486c23.796,4.881,66.507,1.83,75.049-16.475
					C850.049,1256.28,850.049,1256.28,850.049,1256.28z"/>
				<g>
					<path style="fill:#C8DBF4;" d="M707.272,1168.418c0,0,128.133,41.49,142.776,87.862c0,0-0.61,20.745,12.203,44.541v9.153
						c0,0-13.423-31.118-20.745-35.39C841.507,1274.585,870.184,1234.314,707.272,1168.418z"/>
					<path style="fill:#C8DBF4;" d="M862.252,1300.821c0,0,19.76,30.007,8.495,66.534l-5.084-1.365c0,0,4.935-40.232-5.403-60.467
						C849.921,1285.289,862.252,1300.821,862.252,1300.821z"/>
				</g>
			</g>
			<g>
				<path style="fill:#D4E4F8;" d="M922.852,1220.938c0,0-60.322-33.78-32.172-79.625c0,0,22.521-28.15,46.649-35.39
					c0,0-12.869,68.365,0,69.975c12.869,1.608,8.847-77.213,8.847-77.213s63.54-30.563,88.473-28.15c0,0-39.41,66.757-26.542,65.148
					c12.869-1.609,57.105-69.17,57.105-69.17s65.148-12.064,75.604,26.542c10.456,38.605-6.434,57.909-16.086,60.322
					c-9.651,2.412-71.583,1.608-69.974,9.651c1.609,8.043,43.433,20.912,66.757,13.673c0,0-25.737,63.54-59.518,60.322
					c-33.78-3.217-44.236-24.129-65.148-25.737c-20.912-1.608-36.193,4.021-25.738,9.651c10.456,5.631,45.845,1.846,62.735,16.205
					c16.89,14.358,30.563,23.206-0.804,29.641c-31.368,6.434-87.668,2.412-98.929-21.717S922.852,1220.938,922.852,1220.938z"/>
				<g>
					<path style="fill:#D4E4F8;" d="M1111.058,1105.119c0,0-168.903,54.692-188.206,115.818c0,0,0.804,27.347-16.086,58.714v12.064
						c0,0,17.695-41.019,27.346-46.649C934.112,1245.066,896.31,1191.983,1111.058,1105.119z"/>
					<path style="fill:#D4E4F8;" d="M906.766,1279.651c0,0-26.047,39.555-11.198,87.704l6.701-1.801c0,0-6.505-53.032,7.123-79.705
						C923.02,1259.177,906.766,1279.651,906.766,1279.651z"/>
				</g>
			</g>
			<path style="fill:#D4E4F8;" d="M920.819,1471.769c65.259,0,118.162-52.903,118.162-118.162H802.657
				C802.657,1418.865,855.56,1471.769,920.819,1471.769z"/>
			<path style="fill:#D4E4F8;" d="M1040.613,1477.781H801.026l0,0c0-8.052,6.527-14.578,14.578-14.578h210.431
				C1034.086,1463.203,1040.613,1469.729,1040.613,1477.781L1040.613,1477.781z"/>
			<rect x="798.772" y="1353.605" style="fill:#9FC1F4;" width="242.897" height="3.625"/>
		</g>
		<g>
			<path style="fill:#F9DDBF;" d="M963.92,1391.023c-8.704,55.776-65.623,91.298-124.004,91.298H724.282l9.044-325.105
				c0,0,110.33-35.412,138.039-1.726c24.277,29.512,90.112,146.332,93.575,215.476
				C965.287,1377.906,964.927,1384.603,963.92,1391.023z"/>
			<path style="fill:#D39E7A;" d="M656.963,1191.643c0,0,155.989-79.62,185.535-27.61c15.688,27.615,58.859,137.788,62.047,206.931
				c3.097,67.182-55.106,111.356-114.979,111.356H683.227L656.963,1191.643z"/>
			<path style="fill:#EFCBAB;" d="M686.292,1235.802c-1.315,6.767-13.944,13.046-32.686,18.601
				c-3.303,0.981-6.793,1.938-10.449,2.873c-63.789,16.292-176.773,25.388-187.542,20.583
				c-14.88-6.639-106.218-331.154-106.218-331.154s87.187-3.277,156.428-4.875c23.687-0.539,45.27-0.885,60.549-0.84
				c1.86,0.006,3.611,0.128,5.253,0.366c6.613,0.943,11.52,3.701,15.407,7.883c11.148,11.981,13.912,35.643,24.232,61.8
				c10.205,25.861,22.732,58.138,34.611,90.169c3.06,8.256,6.081,16.491,9.005,24.605c0.827,2.289,1.642,4.566,2.457,6.83
				C674.894,1181.769,688.415,1224.84,686.292,1235.802z"/>
			<path style="fill:#EAC3A0;" d="M963.92,1391.023c-8.704,55.776-65.623,91.298-124.004,91.298h-56.72
				C821.02,1456.685,855.22,1377.675,963.92,1391.023z"/>
			<path style="fill:#EFCBAB;" d="M872.865,1432.368c-22.321,31.013-56.56,50.89-94.698,50.274l-163.957,0.083l-78.554,0.038
				l88.38-291.079c0,0,223.699-22.257,251.279,7.422c12.809,13.777,20,76.174,24.027,139.07
				C901.613,1373.641,891.293,1406.795,872.865,1432.368z"/>
			<path style="fill:#D39E7A;" d="M872.865,1432.368c-22.321,31.013-56.56,50.89-94.698,50.274l-163.957,0.083
				c19.293-16.196,79.971-62.153,144.94-59.979C808.397,1424.396,847.504,1423.69,872.865,1432.368z"/>
			<g>
				<path style="fill:#F4A269;" d="M659.325,978.896c0,0,20.617,12.918,44.878,48.522c21.248,31.182,32.251,41.296,44.318,44.276
					c12.067,2.981,71.229,1.363,71.229,1.363l0.14,10.428c0,0-77.805,22.495-91.477,13.881
					c-13.672-8.615-77.178-67.162-82.127-84.93C641.336,994.669,659.325,978.896,659.325,978.896z"/>
				<g>
					<path style="fill:#FFB27D;" d="M867.814,1430.656c-0.722,7.826,10.174,9.729,22.794,10.358
						c12.62,0.628,8.806,3.213,26.101,6.345c17.294,3.133,24.226-1.6,25.477-3.937c1.115-2.073-6.926-5.315-15.495-8.98
						c-1.079-0.457-2.158-0.929-3.238-1.401c-9.644-4.24-15.055-12.89-22.574-20.908c-7.122-7.597-13.884-31.916-13.884-31.916
						l-23.502-5.02c0,0,6.599,21.889,8.89,31.233c1.347,5.496-0.641,11.642-2.406,16.318
						C869.025,1425.293,868.065,1427.898,867.814,1430.656z"/>
					<path style="fill:#163560;" d="M890.608,1441.015c12.62,0.628,8.806,3.213,26.101,6.345c17.294,3.133,24.226-1.6,25.477-3.937
						c1.115-2.073-6.926-5.315-15.495-8.98l-0.134,0.146c0,0-12.161,4.129-26.196,0.313c-11.441-3.106-22.503-9.943-30.385-12.152
						c-0.951,2.544-1.911,5.149-2.162,7.907C867.092,1438.482,877.988,1440.386,890.608,1441.015z"/>
				</g>
				<path style="fill:#163560;" d="M633.779,1151.962c0,0,156.171-11.754,185.573,6.802
					c29.401,18.556,76.555,234.689,76.555,234.689s-2.91,2.333-9.41,3.036c-6.044,0.654-19.358-2.899-19.358-2.899
					s-67.767-96.706-72.54-121.068c-4.773-24.363-3.608-46.102-14.478-46.685c-10.869-0.582-146.362,16.473-166.857-19.634
					c-20.495-36.105-3.552-71.848-3.552-71.848L633.779,1151.962z"/>
				<g>
					<path style="fill:#FFB27D;" d="M808.056,1455.739c-0.722,7.827,10.174,9.73,22.794,10.358
						c12.62,0.629,8.806,3.214,26.101,6.346c17.294,3.133,24.225-1.6,25.477-3.938c1.115-2.072-6.926-5.314-15.495-8.979
						c-1.079-0.457-2.158-0.93-3.238-1.401c-9.644-4.24-15.056-12.89-22.575-20.909c-7.122-7.596-13.884-31.915-13.884-31.915
						l-23.502-5.02c0,0,6.599,21.889,8.89,31.233c1.348,5.496-0.641,11.642-2.405,16.318
						C809.267,1450.377,808.306,1452.982,808.056,1455.739z"/>
					<path style="fill:#163560;" d="M830.85,1466.098c12.62,0.629,8.806,3.214,26.101,6.346c17.294,3.133,24.225-1.6,25.477-3.938
						c1.115-2.072-6.926-5.314-15.495-8.979l-0.134,0.146c0,0-12.161,4.13-26.196,0.313c-11.441-3.106-22.503-9.943-30.385-12.152
						c-0.951,2.544-1.912,5.149-2.162,7.906C807.333,1463.566,818.229,1465.47,830.85,1466.098z"/>
				</g>
				<path style="fill:#1C468A;" d="M603.191,1161.64c0,0,138.734,6.566,167.39,26.253c28.657,19.686,67.362,237.491,67.362,237.491
					s-2.999,2.218-9.521,2.667c-6.065,0.419-19.231-3.65-19.231-3.65s-63.951-99.271-67.773-123.801
					c-3.821-24.529-1.811-46.207-12.649-47.212c-10.838-1.005-146.893,10.763-165.967-26.113
					C543.729,1190.398,603.191,1161.64,603.191,1161.64z"/>
				<path style="fill:#163560;" d="M637.654,853.56c-6.665-3.161-14.359-2.988-19.696-2.273c1.275-1.528,3.951-2.248,3.951-2.248
					c-3.361-0.248-10.536,3.6-10.536,3.6c-47.563-14.384-50.564,49.346-47.629,69.986c4.117,28.955-18.531,30.724-30.423,55.151
					c-30.498,62.646,39.448,109.831,39.448,109.831c0.373,0.184,46.764-88.624,76.034-111.11c6.672-11.583,7.888-31.262,7.973-32.81
					c-0.146,15.542-2.145,24.402-4.145,29.456C676.907,947.229,655.321,861.934,637.654,853.56z"/>
				<path style="fill:#FFB27D;" d="M597.361,964.734c0,0,12.921-1.227,25.838,0c8.779,0.833,17.475,3.559,22.423,5.627
					c12.227,5.111,10.944,26.759-14.712,22.75C605.253,989.102,595.563,971.154,597.361,964.734z"/>
				<path style="fill:#FFB27D;" d="M644.538,980.521c0.149,0.08,3.66,18.623-13.14,17.881
					c-11.028-0.487-34.812-13.831-32.712-23.274c0.999-4.488,9.332-16.133,11.008-42.713l2.008,0.536l33.755,9.054
					c0,0-1.496,10.713-2.195,20.853C642.671,971.372,642.649,979.481,644.538,980.521z"/>
				<path style="fill:#F4A269;" d="M645.457,942.005c0,0-1.496,10.713-2.195,20.853c-19.106-1.815-28.059-19.952-31.56-29.907
					L645.457,942.005z"/>
				<path style="fill:#163560;" d="M604.068,931.683c0,0-11.202-15.097-14.614-28.464c-2.436-9.543-0.172-45.755,36.233-43.267
					c0,0,10.539,0.254,20.866,6.166c8.213,4.702,20.347,15.267,10.049,47.485l-2.494,10.81L604.068,931.683z"/>
				<path style="fill:#FFB27D;" d="M649.667,948.498c0,0-45.209,4.107-47.333-24.086c-2.124-28.193-9.39-46.651,19.385-50.465
					c28.775-3.814,35.2,6.521,38.198,15.758C662.915,898.943,661.373,946.703,649.667,948.498z"/>
				<path style="fill:#163560;" d="M642.283,871.725c0,0-9.938,33.999-28.594,40.302c-18.657,6.303-27.285,1.819-27.285,1.819
					s13.729-12.672,15.254-33.128C601.658,880.719,631.766,856.675,642.283,871.725z"/>
				<path style="fill:#163560;" d="M639.411,874.639c0,0,9.804,6.698,12.593,13.71c2.789,7.012,4.902,21.718,9.172,20.895
					c0,0,7.668-23.177-3.77-35.116C645.279,861.467,639.411,874.639,639.411,874.639z"/>
				<path style="fill:#FFFFFF;" d="M696.573,1154.319c-3.668,4.387-15.124,5.734-27.369,7.748
					c-9.634,1.591-19.755,3.586-26.952,7.813c-16.343,9.596-69.741,42.025-85.391,40.55c-6.068-0.57-4.933-12.154-1.257-27.522
					c5.786-24.271,17.896-57.978,17.896-72.634c0-7.998,2.662-26.927,6.215-48.567c0.289-1.745,0.583-3.503,0.878-5.279
					c7.03-42.076,16.767-91.689,16.767-91.689s10.859,23.694,32.02,23.694c21.154,0,16.24-18.069,16.24-18.069
					s19.307,2.271,23.867,7.184c4.567,4.914,16.131,26.15,18.428,31.942c0,0,0.468,7.37-17.78,10.879c0,0,4.445,20.006,4.971,33.34
					c0.391,9.853-6.722,40.686-8.768,59.863c-0.725,6.793-0.821,12.123,0.282,14.541c1.411,3.098,5.978,6.184,11.173,9.211
					C688.107,1143.325,700.929,1149.104,696.573,1154.319z"/>
				<path style="fill:#EBEEF2;" d="M677.793,1137.322c11.712,19.967-31.763,25.97-38.96,30.197
					c-16.343,9.596-66.322,44.386-81.972,42.91c-6.068-0.57-4.933-12.154-1.257-27.522c5.786-24.271,17.896-57.978,17.896-72.634
					c0-7.998,2.662-26.927,6.215-48.567l18.838-18.088c0,0,20.186,52.172,39.428,60.723c10.083,4.477,20.615,7.434,28.357,9.229
					c-0.725,6.793-0.821,12.123,0.282,14.541C668.031,1131.209,672.598,1134.295,677.793,1137.322z"/>
				<path style="fill:#FFB27D;" d="M591.571,980.353c0,0-16.106-9.781-31.68,8.774c-15.573,18.555,11.068,151.198,34.144,158.011
					c25.632,7.569,102.539,7.181,102.539,7.181l-2.5-9.249c0,0-80.614-25.828-83.89-30.04
					C606.908,1110.819,599.76,982.493,591.571,980.353z"/>
				<path style="fill:#FFFFFF;" d="M597.361,964.734c0,0-33.079,2.984-42.685,13.864c-9.607,10.88-12.415,40.362-12.415,40.362
					s29.13,23.515,64.227,14.39L597.361,964.734z"/>
				<path style="fill:#F4A269;" d="M850.869,1081.658c-1.176-0.142-2.675-0.093-4.087,0.023c4.551-2.195,9.128-4.57,9.128-4.57
					s-2.081-2.078-9.913,0.827c-0.884,0.328-1.768,0.413-2.648,0.329l10.969-5.113c-1.992-1.742-7.257-0.259-11.352,1.308
					c-2.925,1.118-6.212,0.683-8.71-1.205c-0.041-0.031-0.082-0.063-0.123-0.093c0.181-0.022,0.348-0.035,0.541-0.066
					c6.425-1.036,8.015-4.741,6.232-4.295c-1.782,0.445-12.565,1.381-12.565,1.381c-4.88-0.214-14.499,3.648-14.499,3.648
					l5.546,9.905c0,0,15.584,2.675,19.612,1.367c0.327-0.106,0.716-0.251,1.147-0.421l0,0l14.116-1.125
					C854.262,1083.559,853.989,1082.036,850.869,1081.658z"/>
				<path style="fill:#FFB27D;" d="M692.364,1145.519c0,0,20.255-5.48,25.753-4.399c5.498,1.082,16.171,6.903,17.788,9.49
					c1.617,2.588-12.29,2.23-20.052,1.965c-7.762-0.267-10.431,2.645-13.827,2.159c-3.396-0.485-5.454-0.414-5.454-0.414
					L692.364,1145.519z"/>
			</g>
			<path style="fill:#F9DDBF;" d="M736.995,1393.941c-9.377,54.097-60.831,88.38-113.575,88.38H517.081l8.319-325.105
				c0,0,101.458-35.412,126.942-1.726c22.328,29.512,82.87,146.332,86.058,215.476
				C738.766,1378.965,738.271,1386.636,736.995,1393.941z"/>
			<path style="fill:#EAC3A0;" d="M736.995,1393.941c-9.377,54.097-60.831,88.38-113.575,88.38h-85.096
				C578.156,1455.324,631.788,1380.729,736.995,1393.941z"/>
			<path style="fill:#D39E7A;" d="M572.146,1482.084c-0.795,0.058-1.591,0.109-2.386,0.154c-1.68,0.09-3.367,0.147-5.061,0.173
				c-0.558,0.007-1.122,0.013-1.687,0.013H456.673l-0.006-0.051c-2.02,0.025-4.073,0.051-6.139,0.076
				c-10.949,0.135-22.385,0.264-32.994,0.354c-1.777,0.02-3.528,0.032-5.253,0.045c-0.642,0.006-1.283,0.006-1.912,0.013
				c-10.48,0.07-19.749,0.103-26.362,0.058c-9.294-0.064-18.056-0.719-26.298-2.027c-10.628-1.68-20.384-4.438-29.306-8.383
				c-3.213-1.418-6.318-2.995-9.32-4.733c-4.035-2.322-7.883-4.945-11.533-7.864c-9.435-7.536-17.594-17.067-24.534-28.806
				c-4.83-8.165-9.076-17.401-12.745-27.779c-4.618-13.015-8.332-27.824-11.186-44.571c-4.086-23.906-6.42-51.743-7.126-83.929
				c-0.282-12.963-0.302-26.625-0.065-41.025c0.378-23.001,1.418-47.875,3.079-74.718c2.334-37.695,5.907-79.278,10.628-125.05
				c4.304-41.807,9.269-71.03,16.491-77.688c10.654-9.82,32.872-13.771,48.331-15.355c0.006,0,0.006,0,0.013,0
				c9.596-0.982,16.568-1.059,16.568-1.059c18.883,0,35.669,13.559,41.73,33.706c12.341,41.025,34.373,114.37,57.304,191.089
				c0.116,0.385,0.231,0.77,0.346,1.154c1.315,4.406,2.636,8.826,3.958,13.252c0.199,0.674,0.404,1.347,0.609,2.021
				c1.289-0.577,2.63-1.181,4.016-1.79c0.044-0.025,0.089-0.045,0.141-0.063c5.497-2.438,11.718-5.106,18.434-7.825h0.006
				c3.483-1.411,7.087-2.842,10.808-4.266c10.494-4.021,21.821-7.999,33.302-11.424c5.093-1.526,10.224-2.944,15.323-4.201
				c6.549-1.623,13.046-2.995,19.377-4.016c0.218-0.038,0.398-0.063,0.552-0.09c0.75-0.121,1.495-0.23,2.239-0.34
				c27.305-4.009,50.999-1.225,60.799,16.067c15.689,27.696,58.856,138.192,62.044,207.535
				C680.942,1434.684,628.654,1477.845,572.146,1482.084z"/>
			<path style="fill:#F9DDBF;" d="M401.566,1194.147c0,0-54.579-222.358-58.519-241.045c-1.753-8.329-7.164-11.339-12.614-12.114
				c9.593-0.982,16.573-1.055,16.573-1.055c18.884,0,35.667,13.516,41.728,33.605c13.218,43.815,37.559,124.615,62.214,206.912
				C449.702,1180.418,401.566,1194.147,401.566,1194.147z"/>
		</g>
		<g>
			<path style="fill:#DFEBFB;" d="M1144.116,1391.023c8.704,55.776,65.623,91.298,124.004,91.298h115.634l-9.044-325.105
				c0,0-110.329-35.412-138.038-1.726c-24.277,29.512-90.112,146.332-93.576,215.476
				C1142.75,1377.906,1143.109,1384.603,1144.116,1391.023z"/>
			<path style="fill:#B1CBEF;" d="M1451.073,1191.643c0,0-155.989-79.62-185.535-27.61
				c-15.688,27.615-58.859,137.788-62.047,206.931c-3.097,67.182,55.106,111.356,114.979,111.356h106.338L1451.073,1191.643z"/>
			<path style="fill:#CDE3FD;" d="M1421.745,1235.802c1.315,6.767,13.944,13.046,32.686,18.601
				c3.304,0.981,6.793,1.938,10.449,2.873c63.789,16.292,176.773,25.388,187.542,20.583
				c14.881-6.639,106.218-331.154,106.218-331.154s-87.188-3.277-156.428-4.875c-23.687-0.539-45.271-0.885-60.549-0.84
				c-1.86,0.006-3.611,0.128-5.253,0.366c-6.613,0.943-11.52,3.701-15.407,7.883c-11.147,11.981-13.912,35.643-24.232,61.8
				c-10.205,25.861-22.731,58.138-34.61,90.169c-3.06,8.256-6.081,16.491-9.006,24.605c-0.827,2.289-1.642,4.566-2.456,6.83
				C1433.143,1181.769,1419.622,1224.84,1421.745,1235.802z"/>
			<path style="fill:#B1CBEF;" d="M1144.116,1391.023c8.704,55.776,65.623,91.298,124.004,91.298h56.72
				C1287.016,1456.685,1252.816,1377.675,1144.116,1391.023z"/>
			<path style="fill:#CDE3FD;" d="M1235.171,1432.368c22.321,31.013,56.56,50.89,94.698,50.274l163.958,0.083l78.554,0.038
				L1484,1191.685c0,0-223.699-22.257-251.279,7.422c-12.809,13.777-19.999,76.174-24.027,139.07
				C1206.423,1373.641,1216.743,1406.795,1235.171,1432.368z"/>
			<path style="fill:#BBD3F4;" d="M1235.171,1432.368c22.321,31.013,56.56,50.89,94.698,50.274l163.958,0.083
				c-19.293-16.196-79.971-62.153-144.939-59.979C1299.639,1424.396,1260.532,1423.69,1235.171,1432.368z"/>
			<g>
				<g>
					<path style="fill:#FFB27D;" d="M1355.376,1417.019c4.281,6.592-4.478,13.347-15.356,19.775s-6.299,6.942-20.149,17.763
						c-13.851,10.82-22.188,9.856-24.383,8.37c-1.952-1.315,3.656-7.928,9.536-15.159c0.742-0.906,1.478-1.826,2.214-2.747
						c6.563-8.241,7.328-18.415,10.252-29.012c2.77-10.037-2.562-34.71-2.562-34.71l18.467-15.379c0,0,4.344,22.444,6.665,31.782
						c1.365,5.491,5.984,10.006,9.723,13.324C1351.809,1412.836,1353.871,1414.694,1355.376,1417.019z"/>
					<path style="fill:#C65447;" d="M1340.021,1436.794c-10.878,6.429-6.299,6.942-20.149,17.763
						c-13.851,10.82-22.188,9.856-24.383,8.37c-1.952-1.315,3.656-7.928,9.536-15.159l0.186,0.067c0,0,12.685-2.004,23.333-11.913
						c8.681-8.073,15.291-19.272,21.24-24.896c2.026,1.81,4.088,3.668,5.593,5.992
						C1359.657,1423.61,1350.898,1430.365,1340.021,1436.794z"/>
				</g>
				<path style="fill:#163560;" d="M1427,1130.104c0,0-111.881,6.054-127.735,23.388c-22.969,25.111,14.092,251.092,14.092,251.092
					s26.051-2.212,31.584-10.95c0,0,35.034-145.939,17.14-169.824c-17.895-23.886,127.818-24.641,124.043-56.351
					C1482.349,1135.75,1427,1130.104,1427,1130.104z"/>
				<path style="fill:#F4A269;" d="M1423.829,984.8c0,0-0.392-4.556-1.854,38.504c-0.932,27.42,0.652,52.881-7.017,62.664
					c-13.038,16.632-31.204,47.669-31.204,47.669l9.639,4.378c0,0,37.261-25.408,46.274-38.82
					c9.014-13.413,22.86-85.765,20.193-104.015C1457.192,976.93,1423.829,984.8,1423.829,984.8z"/>
				<g>
					<path style="fill:#FFB27D;" d="M1297.603,1437.575c0.722,7.827-10.174,9.729-22.794,10.358
						c-12.62,0.629-8.806,3.213-26.101,6.346s-24.225-1.6-25.477-3.938c-1.115-2.072,6.926-5.315,15.495-8.979
						c1.079-0.458,2.158-0.93,3.238-1.401c9.644-4.24,15.056-12.891,22.575-20.909c7.122-7.596,13.884-31.916,13.884-31.916
						l23.502-5.019c0,0-6.599,21.889-8.89,31.233c-1.347,5.496,0.641,11.641,2.406,16.317
						C1296.391,1432.213,1297.352,1434.817,1297.603,1437.575z"/>
					<path style="fill:#C65447;" d="M1274.808,1447.934c-12.62,0.629-8.806,3.213-26.101,6.346s-24.225-1.6-25.477-3.938
						c-1.115-2.072,6.926-5.315,15.495-8.979l0.134,0.146c0,0,12.161,4.129,26.197,0.313c11.44-3.105,22.502-9.943,30.385-12.152
						c0.951,2.545,1.911,5.149,2.162,7.907C1298.324,1445.402,1287.428,1447.305,1274.808,1447.934z"/>
				</g>
				<path style="fill:#1C468A;" d="M1502.466,1143.476c0,0-138.734,6.566-167.39,26.252
					c-28.657,19.686-67.362,237.491-67.362,237.491s2.999,2.218,9.521,2.668c6.065,0.419,19.231-3.651,19.231-3.651
					s63.951-99.27,67.772-123.8c3.822-24.53,1.812-46.207,12.65-47.212s146.893,10.763,165.967-26.113
					C1561.929,1172.233,1502.466,1143.476,1502.466,1143.476z"/>
				<path style="fill:#B5453C;" d="M1449.31,975.438c31.389,19.42,46.996-34.684,70.403,16.346c0,0,57.945-20.196,43.684-62.044
					c-8.764-25.716-30.985-18.207-29.528-34.029c2.643-28.689-22.645-81.581-68.515-62.475c0,0-11.479-1.699-19.594,5.474
					c-39.353,34.78-5.109,68.433-19.886,82.294C1406.838,938.859,1414.755,974.169,1449.31,975.438z"/>
				<path style="fill:#FFB27D;" d="M1508.297,946.569c0,0-12.922-1.227-25.838,0c-8.779,0.833-17.475,3.559-22.423,5.627
					c-12.227,5.111-10.944,26.758,14.712,22.75C1500.405,970.937,1510.095,952.989,1508.297,946.569z"/>
				<path style="fill:#FFB27D;" d="M1461.119,962.356c-0.149,0.08-3.659,18.623,13.14,17.881
					c11.028-0.487,34.812-13.831,32.712-23.273c-0.999-4.489-9.332-16.134-11.008-42.714l-2.008,0.536l-33.755,9.054
					c0,0,1.496,10.713,2.195,20.853C1462.986,953.207,1463.008,961.317,1461.119,962.356z"/>
				<path style="fill:#F4A269;" d="M1460.2,923.841c0,0,1.496,10.713,2.195,20.853c19.105-1.815,28.059-19.952,31.56-29.907
					L1460.2,923.841z"/>
				<path style="fill:#B5453C;" d="M1497.941,912.904c0,0,9.622-16.149,11.669-29.792c1.462-9.74-4.442-45.539-40.411-39.393
					c0,0-10.459,1.315-20.138,8.238c-7.697,5.506-18.704,17.241-5.21,48.256l3.57,10.503L1497.941,912.904z"/>
				<path style="fill:#FFB27D;" d="M1454.269,934.231c0,0,45.393-0.472,44.664-28.735c-0.729-28.264,4.639-47.36-24.374-48.253
					c-29.013-0.894-34.363,10.036-36.415,19.529C1436.093,886.265,1442.442,933.625,1454.269,934.231z"/>
				<path style="fill:#B5453C;" d="M1453.875,857.106c0,0,13.315,32.824,32.512,37.213c19.197,4.39,24.549,16.159,24.549,16.159
					s-4.63-39.23-8.21-59.427C1502.725,851.051,1462.821,841.072,1453.875,857.106z"/>
				<path style="fill:#B5453C;" d="M1457.026,859.715c0,0-9.078,7.652-11.147,14.91c-2.068,7.258-7.019,21.713-7.019,21.713
					s-9.965-22.286,0.21-35.318C1449.86,847.202,1457.026,859.715,1457.026,859.715z"/>
				<path style="fill:#F99746;" d="M1409.084,1136.154c3.669,4.388,15.125,5.734,27.369,7.749
					c9.634,1.591,19.755,3.585,26.952,7.813c16.343,9.596,69.741,42.025,85.391,40.55c6.068-0.571,4.933-12.154,1.257-27.523
					c-5.786-24.271-17.896-57.977-17.896-72.633c0-7.999-2.662-26.927-6.215-48.568c-0.289-1.744-0.583-3.502-0.878-5.278
					c-7.03-42.077-16.767-91.69-16.767-91.69s-10.859,23.694-32.02,23.694c-21.154,0-16.24-18.068-16.24-18.068
					s-19.307,2.271-23.867,7.184c-4.567,4.913-16.131,26.15-18.428,31.942c0,0-0.468,7.37,17.78,10.878
					c0,0-4.445,20.006-4.971,33.341c-0.391,9.853,6.722,40.685,8.768,59.863c0.725,6.792,0.821,12.122-0.282,14.541
					c-1.411,3.098-5.978,6.183-11.173,9.21C1417.551,1125.161,1404.729,1130.94,1409.084,1136.154z"/>
				<path style="fill:#ED7D2B;" d="M1427.865,1119.157c-11.712,19.968,31.763,25.971,38.959,30.198
					c16.343,9.595,66.322,44.386,81.972,42.91c6.068-0.571,4.933-12.154,1.257-27.523c-5.786-24.271-17.896-57.977-17.896-72.633
					c0-7.999-2.662-26.927-6.215-48.568l-18.838-18.087c0,0-20.185,52.172-39.427,60.722c-10.083,4.478-20.615,7.434-28.357,9.23
					c0.725,6.792,0.821,12.122-0.282,14.541C1437.627,1113.045,1433.06,1116.13,1427.865,1119.157z"/>
				<path style="fill:#FFB27D;" d="M1514.087,962.188c0,0,16.106-9.781,31.68,8.774c15.573,18.555-11.068,151.197-34.144,158.012
					c-25.632,7.569-81.698,20.202-81.698,20.202l-2.132-8.224c0,0,64.405-39.875,67.681-44.087
					C1498.75,1092.654,1505.897,964.329,1514.087,962.188z"/>
				<path style="fill:#F99746;" d="M1508.297,946.569c0,0,33.078,2.984,42.685,13.864c9.607,10.88,12.415,40.362,12.415,40.362
					s-29.13,23.515-64.228,14.39L1508.297,946.569z"/>
				<path style="fill:#F4A269;" d="M1383.754,1133.638c0,0-14.095,8.155-16.738,15.539c-2.643,7.383-1.51,17.953,0,18.708
					c1.51,0.755,13.846-9.498,16.738-12.487c2.892-2.99-1.638,7.202,1.76,6.825c3.397-0.378,7.879-24.207,7.879-24.207
					L1383.754,1133.638z"/>
				<path style="fill:#FFB27D;" d="M1427.793,1140.953c0,0-11.136-0.885-14.817,0s-22.746,12.775-19.583,15.041
					c3.163,2.265,17.602,0.849,20.716-1.416s12.579-4.666,15.817-5.401S1427.793,1140.953,1427.793,1140.953z"/>
			</g>
			<path style="fill:#DFEBFB;" d="M1371.041,1393.941c9.377,54.097,60.832,88.38,113.575,88.38h106.34l-8.319-325.105
				c0,0-101.458-35.412-126.942-1.726c-22.327,29.512-82.87,146.332-86.058,215.476
				C1369.271,1378.965,1369.765,1386.636,1371.041,1393.941z"/>
			<path style="fill:#CDE0FB;" d="M1371.041,1393.941c9.377,54.097,60.832,88.38,113.575,88.38h85.096
				C1529.88,1455.324,1476.249,1380.729,1371.041,1393.941z"/>
			<path style="fill:#B1CBEF;" d="M1535.89,1482.084c0.795,0.058,1.591,0.109,2.386,0.154c1.681,0.09,3.367,0.147,5.061,0.173
				c0.558,0.007,1.123,0.013,1.687,0.013h106.339l0.007-0.051c2.021,0.025,4.073,0.051,6.138,0.076
				c10.949,0.135,22.386,0.264,32.994,0.354c1.777,0.02,3.528,0.032,5.254,0.045c0.642,0.006,1.282,0.006,1.911,0.013
				c10.48,0.07,19.749,0.103,26.362,0.058c9.294-0.064,18.056-0.719,26.298-2.027c10.628-1.68,20.384-4.438,29.306-8.383
				c3.214-1.418,6.318-2.995,9.32-4.733c4.034-2.322,7.883-4.945,11.532-7.864c9.435-7.536,17.594-17.067,24.534-28.806
				c4.83-8.165,9.076-17.401,12.744-27.779c4.619-13.015,8.332-27.824,11.187-44.571c4.086-23.906,6.421-51.743,7.126-83.929
				c0.282-12.963,0.302-26.625,0.064-41.025c-0.379-23.001-1.418-47.875-3.079-74.718c-2.335-37.695-5.907-79.278-10.628-125.05
				c-4.304-41.807-9.269-71.03-16.49-77.688c-10.654-9.82-32.873-13.771-48.331-15.355c-0.006,0-0.006,0-0.013,0
				c-9.596-0.982-16.567-1.059-16.567-1.059c-18.884,0-35.669,13.559-41.73,33.706c-12.341,41.025-34.373,114.37-57.304,191.089
				c-0.115,0.385-0.23,0.77-0.347,1.154c-1.314,4.406-2.636,8.826-3.957,13.252c-0.199,0.674-0.404,1.347-0.609,2.021
				c-1.289-0.577-2.63-1.181-4.016-1.79c-0.044-0.025-0.09-0.045-0.141-0.063c-5.497-2.438-11.719-5.106-18.435-7.825h-0.006
				c-3.483-1.411-7.088-2.842-10.808-4.266c-10.494-4.021-21.821-7.999-33.303-11.424c-5.093-1.526-10.224-2.944-15.323-4.201
				c-6.548-1.623-13.046-2.995-19.377-4.016c-0.218-0.038-0.397-0.063-0.552-0.09c-0.75-0.121-1.494-0.23-2.238-0.34
				c-27.305-4.009-50.999-1.225-60.8,16.067c-15.688,27.696-58.855,138.192-62.043,207.535
				C1427.094,1434.684,1479.382,1477.845,1535.89,1482.084z"/>
			<path style="fill:#DFEBFB;" d="M1706.47,1194.147c0,0,54.579-222.358,58.52-241.045c1.753-8.329,7.163-11.339,12.613-12.114
				c-9.593-0.982-16.573-1.055-16.573-1.055c-18.884,0-35.667,13.516-41.728,33.605c-13.218,43.815-37.559,124.615-62.214,206.912
				C1658.335,1180.418,1706.47,1194.147,1706.47,1194.147z"/>
		</g>
		<g>
			<path style="fill:#B0D4FF;" d="M1997.187,1237.619c3.178,6.71,33.696,12.936,78.985,18.443c7.981,0.973,16.414,1.92,25.248,2.849
				c154.141,16.153,576.317,25.171,602.342,20.407c35.958-6.582,41.545-331.916,41.545-331.916s-144.715,0.333-312.03-1.25
				c-57.239-0.534-256.339-1.882-293.259-1.882C2082.834,944.269,1992.057,1226.751,1997.187,1237.619z"/>
			<path style="fill:#D2E3FC;" d="M2055.501,1196.32c0,0,64.682-220.463,69.351-238.992c2.077-8.258,8.489-11.243,14.948-12.011
				c-11.369-0.973-19.641-1.046-19.641-1.046c-22.38,0-42.269,13.4-49.451,33.319c-15.664,43.442-44.51,123.554-73.729,205.149
				C1998.456,1182.708,2055.501,1196.32,2055.501,1196.32z"/>
			<path style="fill:#D2E3FC;" d="M1663.457,1391.52c10.315,55.302,77.77,90.52,146.956,90.52h137.036l-10.718-322.336
				c0,0-130.75-35.11-163.588-1.711c-28.771,29.26-106.79,145.086-110.895,213.641
				C1661.838,1378.514,1662.264,1385.153,1663.457,1391.52z"/>
			<path style="fill:#8BB9EF;" d="M1663.457,1391.52c10.315,55.302,77.77,90.52,146.956,90.52h67.218
				C1832.807,1456.621,1792.276,1378.285,1663.457,1391.52z"/>
			<path style="fill:#77A4E5;" d="M2027.229,1193.836c0,0-184.861-78.94-219.876-27.375
				c-18.592,27.381-69.754,136.615-73.531,205.169c-3.67,66.609,65.306,110.407,136.261,110.407h126.021L2027.229,1193.836z"/>
			<path style="fill:#9FC3F7;" d="M1783.658,1428.215c2.046,1.457,4.146,2.889,6.295,4.299
				c26.701,17.513,61.528,31.442,101.362,40.082c30.103,6.524,63.064,10.024,97.54,9.761l59.924,0.015h0.813l283.646,0.068
				l162.588,0.041h2.403l0.014-0.063l5.641-26.256l56.321-262.281c0,0-717.471-22.066-775.403,7.358
				c-26.9,13.66-42.004,75.523-50.468,137.885C1729.83,1372.33,1748.921,1403.498,1783.658,1428.215z"/>
			<path style="fill:#8BB3EE;" d="M1783.658,1428.215c2.046,1.457,4.146,2.889,6.295,4.299
				c26.701,17.513,61.528,31.442,101.362,40.082c30.103,6.524,63.064,10.024,97.54,9.761l59.924,0.015h0.813l283.646,0.068
				l162.588,0.041l2.417-0.063l5.641-26.256c-99.655-17.135-237.552-34.539-381.4-33.19
				C1985.103,1424.263,1870.076,1424.097,1783.658,1428.215z"/>
			<g>
				<path style="fill:#163560;" d="M2170.754,1475.389c-0.014,2.324-0.11,4.524-0.233,6.505c-0.014,0.179-0.028,0.357-0.028,0.536
					c-0.247,3.603-0.618,6.463-0.866,8.1h-114.739c0.838-3.163,2.502-5.845,4.73-8.127c0.164-0.165,0.329-0.344,0.508-0.509
					c10.63-10.272,32.729-12.418,40.471-15.979c6.696-3.08,19.141-22.662,26.389-34.804c1.595-2.668,2.942-4.979,3.904-6.684
					c1.101-1.911,1.733-3.053,1.733-3.053l12.733,1.128l18.592,1.637c0,0,0.082,0.701,0.233,1.925
					c0.316,2.503,0.936,7.22,1.747,12.816v0.014c0.935,6.394,2.145,13.943,3.465,20.654
					C2170.451,1464.896,2170.781,1470.438,2170.754,1475.389z"/>
				<path style="fill:#FFB27D;" d="M2421.852,977.205c0,0-61.03,167.287-73.106,166.374c-26.294-1.987-36.1,4.362-41.118,4.155
					c-5.019-0.208,23.3,8.546,32.093,7.29c8.792-1.255,75.794-3.306,75.794-3.306l40.583-143.261L2421.852,977.205z"/>
				<path style="fill:#1F426D;" d="M2271.014,1481.894c-0.014,0.192-0.027,0.371-0.027,0.55c-0.262,3.589-0.618,6.449-0.866,8.086
					h-114.74c0.839-3.163,2.489-5.831,4.703-8.113c0.179-0.179,0.357-0.344,0.536-0.522c2.764-2.668,6.284-4.786,10.135-6.505
					c10.987-4.978,24.601-6.834,30.349-9.475c6.56-3.025,18.62-14.906,25.88-22.441c3.616-3.754,6.051-6.436,6.051-6.436
					l7.893-1.815l10.259-2.352l13.793-3.163c0,0,0.22,1.733,0.646,4.635c0.344,2.488,0.854,5.857,1.485,9.75
					c0.757,4.62,1.692,9.969,2.778,15.456C2271.44,1467.399,2271.412,1475.664,2271.014,1481.894z"/>
				<path style="fill:#1C468A;" d="M2114.694,1421.862c0,0,11.514,10.075,18.535,12.411c11.056,3.686,42.073,5.221,42.073,5.221
					s38.543-105.095,49.649-130.916c10.526-24.48,20.84-76.505,20.84-76.505c8.035-0.433,76.188,7.648,129.007,1.937
					c28.1-3.033,51.863-9.972,59.918-24.163c23.207-40.879-33.018-54.088-33.018-54.088s-167.04-20.636-200.329,0.372
					C2168.081,1177.138,2114.694,1421.862,2114.694,1421.862z"/>
				<path style="fill:#163560;" d="M2245.792,1232.073c8.035-0.433,76.188,7.648,129.007,1.937
					c14.334-26.074,33.166-60.435,33.166-60.435S2311.228,1162.637,2245.792,1232.073z"/>
				<path style="fill:#1C468A;" d="M2220.054,1440.953c0,0,3.395,2.511,10.778,3.021c6.867,0.478,43.971,0.038,43.971,0.038
					s41.123-88.127,57.123-130.794c7.492-19.968,7.653-47.197,9.39-59.95c0.542-3.988,1.233-6.557,2.35-7.061
					c0,0,0.007,0,0.02-0.006c0.271-0.123,0.626-0.227,1.058-0.323c0.007-0.006,0.014-0.006,0.026-0.006
					c17.793-3.879,165.755,11.487,186.813-29.229c3.414-6.603,4.608-12.979,4.188-19.033c-2.2-32.204-39.48-41.851-39.48-41.851
					s-167.521-5.998-199.964,16.294C2263.876,1194.344,2220.054,1440.953,2220.054,1440.953z"/>
				<path style="fill:#163560;" d="M2133.229,1434.273c11.056,3.686,42.073,5.221,42.073,5.221s38.543-105.095,49.649-130.916
					c10.526-24.48,20.84-76.505,20.84-76.505S2165.099,1415.234,2133.229,1434.273z"/>
				<path style="fill:#163560;" d="M2344.769,1245.872c17.793-3.879,165.755,11.487,186.813-29.229
					c3.414-6.603,4.608-12.979,4.188-19.033l-34.134-37.684c0,0-2.672,53.6-47.063,59.634
					C2413.535,1225.143,2353.598,1243.174,2344.769,1245.872z"/>
				<path style="fill:#163560;" d="M2230.832,1443.974c6.867,0.478,43.971,0.038,43.971,0.038s41.123-88.127,57.123-130.794
					c7.492-19.968,7.653-47.197,9.39-59.95C2325.091,1287.809,2256.118,1432.092,2230.832,1443.974z"/>
				<path style="fill:#FFB27D;" d="M2572.093,943.778c-17.802,22.027-51.437,58.391-73.804,50.18
					c-7.508-2.752-70.61-24.96-36.545-46.182c8.629-5.368,24.201-12.344,37.123-13.647c-0.328-4.077-0.521-7.599-0.635-10.509
					c-0.26-6.354-0.124-9.808-0.124-9.808l25.64-18.743l0.033-0.022c0.396,0.124,0.793,0.249,1.189,0.385
					c5.934,1.892,11.358,3.624,14.326,4.564c0.146,1.585,0.328,3.137,0.555,4.655c1.767,11.97,5.765,21.607,9.943,28.878
					c3.283,5.708,9.218,9.377,15.81,9.784C2567.857,943.461,2570.031,943.619,2572.093,943.778z"/>
				<path style="fill:#ED985F;" d="M2539.852,904.651c-6.195,11.279-17.916,16.206-41.619,18.969
					c-0.26-6.354-0.124-9.808-0.124-9.808l25.64-18.743l0.033-0.011c0.396,0.125,0.793,0.249,1.189,0.374
					c5.934,1.892,11.358,3.624,14.326,4.564C2539.443,901.581,2539.625,903.133,2539.852,904.651z"/>
				<path style="fill:#FFB27D;" d="M2489.195,916.193c0,0,50.372,8.835,55.392-22.619c5.019-31.454,14.9-51.497-17.049-58.468
					c-31.948-6.971-40.128,4.032-44.356,14.123C2478.952,859.321,2476.222,913.084,2489.195,916.193z"/>
				<path style="fill:#2B478B;" d="M2539.303,905.624c0,0,4.119-9.946-0.088-17.96c0,0,5.762-9.397,2.332-12.491
					c-3.431-3.093-7.281,5.157-8.652,3.167c-1.37-1.991-7.335-11.252-7.545-21.876c-0.211-10.624-36.421-10.614-40.771-10.248
					s-14.228-10.086-14.801-15.94c0,0,8.593-2.998,13.026-5.956c4.434-2.958,35.117-22.658,61.889-4.552
					c26.771,18.106,25.83,33.598,19.901,45.071C2558.665,876.312,2552.807,905.834,2539.303,905.624z"/>
				<path style="fill:#F99746;" d="M2392.891,1136.32c1.756,4.544,5.942,8.678,40.289,24.405
					c49.024,22.453,109.864,44.906,121.501,34.845c9.062-7.828,13.386-61.389,15.412-117.183
					c2.407-66.127,0.337-134.737,0.337-134.737s-39.842,21.62-60.171,12.797c-20.033-8.693-13.837-21.655-13.578-22.088
					l-51.839,50.905C2444.842,985.265,2388.631,1125.291,2392.891,1136.32z"/>
				<path style="fill:#ED7D2B;" d="M2433.18,1160.726c49.024,22.453,109.864,44.906,121.501,34.845
					c9.062-7.828,13.386-61.389,15.412-117.183c-2.201-31.508-5.208-56.316-5.208-56.316s-23.395,54.68-45.985,69.88
					C2465.7,1127.746,2395.425,1112.245,2433.18,1160.726z"/>
				<path style="fill:#FFB27D;" d="M2618.695,1002.38c0,0-10.916,102.212-29.028,142.768c0,0-53.815,12.2-143.54,0l2.151-17.047
					c0,0,111.562-22.213,111.562-25.655s7.603-123.961,7.229-131.706C2566.695,962.995,2618.695,1002.38,2618.695,1002.38z"/>
				<path style="fill:#F99746;" d="M2556.365,1020.503c11.675,2.988,23.201,2.311,33.302,0.136
					c19.194-4.125,33.212-13.638,33.212-13.638s-2.582-24.847-7.744-42.763c-1.756-6.092-7.346-10.494-13.954-13.656
					c-12.823-6.138-30.751-6.931-30.751-6.931S2522.521,1011.842,2556.365,1020.503z"/>
				<path style="fill:#F99746;" d="M2496.681,934.36c0,0-34.231,0.296-52.034,13.244s-29.133,27.852-29.133,27.852
					s4.258,22.813,20.986,26.767C2453.229,1006.177,2496.681,934.36,2496.681,934.36z"/>
			</g>
			<g>
				<path style="fill:#D2E3FC;" d="M2245.773,1394.412c11.113,53.637,72.09,87.627,134.596,87.627h126.021l-9.858-322.336
					c0,0-120.237-35.11-150.438-1.711c-26.46,29.26-98.208,145.086-101.986,213.641
					C2243.675,1379.563,2244.26,1387.169,2245.773,1394.412z"/>
				<path style="fill:#AFCDFB;" d="M2245.773,1394.412c11.113,53.637,72.09,87.627,134.596,87.627h100.846
					C2434.012,1455.272,2370.453,1381.312,2245.773,1394.412z"/>
				<path style="fill:#77A4E5;" d="M2820.582,1276.309c-0.838,31.913-3.602,59.512-8.448,83.215
					c-3.374,16.602-7.78,31.29-13.25,44.189c-4.349,10.294-9.377,19.455-15.107,27.542c-8.222,11.642-17.893,21.098-29.07,28.561
					c-4.327,2.899-8.891,5.504-13.669,7.803c-3.557,1.722-7.236,3.284-11.042,4.688c-10.577,3.919-22.141,6.647-34.733,8.313
					c-9.773,1.303-20.146,1.948-31.166,2.016c-7.836,0.046-18.821,0.012-31.245-0.057c-0.747-0.011-1.506-0.011-2.265-0.022
					c-2.039-0.011-4.123-0.022-6.218-0.034c-12.581-0.09-26.126-0.227-39.104-0.351c-2.445-0.034-4.881-0.057-7.281-0.079v0.045
					h-126.023c-0.668,0-1.336,0-2.004-0.012c-2.005-0.022-3.998-0.079-5.991-0.17c-0.939-0.045-1.891-0.09-2.831-0.146
					c-66.963-4.213-128.933-46.998-125.434-110.395c3.771-68.753,55.48-177.946,73.521-205.771
					c18.742-28.901,79.183-24.881,80.077-24.768c0.181,0.034,134.063,0.385,134.199,0c27.179-76.058,40.372-122.512,54.993-163.19
					c7.191-19.966,27.078-33.419,49.455-33.419c0,0,8.268,0.079,19.638,1.053c0.011,0,0.011,0,0.011,0
					c5.391,0.464,11.483,1.133,17.713,2.084c14.926,2.299,30.656,6.274,39.568,13.137c8.562,6.603,14.439,35.583,19.535,77.032
					c5.595,45.378,9.83,86.611,12.604,123.983c1.96,26.613,3.193,51.279,3.646,74.087
					C2820.944,1249.91,2820.922,1263.455,2820.582,1276.309z"/>
				<path style="fill:#D2E3FC;" d="M2745.307,947.402v0.011c0,0-34.031,1.053-40.826,29.796
					c-6.795,28.731-48.323,166.373-48.323,166.373s-31.71-3.851-52.66-2.707c27.179-76.058,40.372-122.512,54.993-163.19
					c7.191-19.966,27.078-33.419,49.455-33.419c0,0,8.268,0.079,19.638,1.053c0.011,0,0.011,0,0.011,0
					C2732.984,945.782,2739.077,946.451,2745.307,947.402z"/>
			</g>
			<path style="fill:#FFB27D;" d="M1818.025,1421.366c0,0-2.449,14.666-5.656,23.74c-3.208,9.075-6.094,33.705,1.674,35.394
				s22.001-21.381,23.805-29.598c1.804-8.218,10.555-30.313,6.579-33.667C1840.451,1413.88,1818.025,1421.366,1818.025,1421.366z"/>
			<path style="fill:#B5453C;" d="M1846.04,1423.1c0,0,6.047,7.25,1.415,16.502c-4.632,9.251-10.12,21.108-13.185,28.412
				c-3.065,7.304-15.162,14.578-20.228,12.486c-5.066-2.091-4.605-20.622-4.605-20.622s10.852,5.004,15.364,1.063
				c4.513-3.941,11.332-12.848,15.047-20.848C1843.563,1432.093,1846.04,1423.1,1846.04,1423.1z"/>
			<path style="fill:#FFFFFF;" d="M2149.973,1011.882c0,0-59.494-12.622-102.175,8.24c0,0-17.895,56.519-17.054,66.507
				c0.842,9.989,0.886,54.013-7.733,69.729c-8.619,15.718,79.156,43.641,94.966,33.915
				C2133.786,1180.547,2152.564,1022.71,2149.973,1011.882z"/>
			<path style="fill:#163560;" d="M1864.705,1173.028c0,0-26.994,94.023-46.68,248.338c0,0,25.993,8.177,37.333-4.996
				c0,0,14.503-39.505,33.307-75.229c25.905-49.217,58.149-100.992,55.372-120.517
				C1941.524,1202.965,1888.663,1130.692,1864.705,1173.028z"/>
			<path style="fill:#FFB27D;" d="M2013.827,1426.727c0,0,3.956,14.333,4.868,23.914c0.912,9.582,8.669,33.137,16.425,31.396
				s10.95-28.658,9.125-36.871c-1.825-8.212-3.193-31.938-8.212-33.306C2031.014,1410.491,2013.827,1426.727,2013.827,1426.727z"/>
			<path style="fill:#163560;" d="M1878.02,1160.954c0,0,18.201-10.432,59.56-1.455c41.357,8.977,75.2,30.465,75.2,30.465
				l-105.474,4.379L1878.02,1160.954z"/>
			<path style="fill:#B5453C;" d="M2039.966,1416.499c0,0,8.538,4.029,8.233,14.371s-0.288,23.408,0.008,31.323
				c0.297,7.914-7.612,19.607-13.087,19.844c-5.476,0.237-12.862-16.765-12.862-16.765s11.95-0.031,14.384-5.507
				c2.433-5.475,4.866-16.425,4.866-25.245C2041.508,1425.699,2039.966,1416.499,2039.966,1416.499z"/>
			<path style="fill:#FFB27D;" d="M2133.499,1011.732c0,0,26.387-4.832,30.056,16.651c3.668,21.482,0.428,151.205-19.783,157.742
				c-20.212,6.537-99.721-17.578-99.721-17.578v-7.836c0,0,76.976-3.66,79.841-4.857
				C2126.756,1154.657,2133.499,1011.732,2133.499,1011.732z"/>
			<path style="fill:#1C468A;" d="M1913.614,1176.623c0,0,28.71,105.516,89.397,248.754c0,0,21.525,6.469,36.954-8.878
				c0,0-12.736-211.995-33.844-238.694C1995.06,1163.812,1913,1127.982,1913.614,1176.623z"/>
			<path style="fill:#FFFFFF;" d="M2120.922,1008.423c0,0,34.283,0.212,40.692,7.748c14.654,17.231,11.179,96.074,11.179,96.074
				s-13.786-3.698-26.15-0.854s-28.666,0-28.666,0L2120.922,1008.423z"/>
			<path style="fill:#FFB27D;" d="M2048.038,1030.596c0,0-0.851,0.788-2.381,2.189c-12.381,11.342-69.289,62.864-80.88,62.482
				c-13.023-0.428-63.419-14.018-63.419-14.018l-1.847,9.142c0,0,61.422,33.326,79.422,29.929s59.558-33.125,59.558-33.125
				L2048.038,1030.596z"/>
			<path style="fill:#FFFFFF;" d="M2075.746,1011.071c0,0-31.821,6.652-40.188,16.386c-8.367,9.733-34.32,40.097-34.32,40.097
				s6.792,5.38,15.634,20.774c8.6,14.971,32.843,11.861,32.843,11.861L2075.746,1011.071z"/>
			<path style="fill:#FFB27D;" d="M1901.358,1081.25c0,0-6.229-5.489-12.08-5.67c-5.851-0.182-12.269-1.896-11.891,0
				c0.377,1.895,8.683,3.594,7.173,3.971c-1.511,0.378-9.627,0.378-11.703,0c-2.076-0.377-7.172-2.453-7.172-0.377
				s12.835,9.626,19.063,10.381s14.763,0.837,14.763,0.837L1901.358,1081.25z"/>
			<path style="fill:#FFB27D;" d="M2044.051,1160.712c0,0-16.821-3.688-19.523-3.237c-3.304,0.551-16.008,6.163-16.008,10.41
				s46.367,3.797,46.367,3.797L2044.051,1160.712z"/>
			<path style="fill:#1C468A;" d="M1922.625,1156.263c0,0,31.314-28.109,159.116,32.428l-104.953,1.583L1922.625,1156.263z"/>
			<g>
				<path style="fill:#233862;" d="M2093.44,953.151c0,0,22.175,12.136,5.084,36.384c0,0,19.267,2.778,24.284-2.642
					c0,0-0.802,2.413-1.689,3.572c0,0,18.794-1.927,25.704-8.834c6.91-6.906-11.353-101.902-61.772-83.989
					c0,0-44.459,2.795-33.282,53.132c11.176,50.337-5.436,52.648-5.436,52.648s4.937,1.635,7.167,1.325c0,0,3.087-1.697,3.479-3.589
					c0,0-0.25,2.921-0.961,3.938c0,0,18.167-0.795,26.179-8.807C2090.21,988.277,2097.456,963.298,2093.44,953.151z"/>
				<path style="fill:#233862;" d="M2101.272,978.467c0,0,12.064-17.012,15.53-31.919c2.474-10.643,15.893-54.396-24.428-50.768
					c0,0-28.477,4.176-39.79,10.979c-8.997,5.411-22.204,17.419-10.014,52.908l3.024,11.931L2101.272,978.467z"/>
				<path style="fill:#FFB27D;" d="M2075.297,1029.563c2.995,2.189,16.154,4.893,26.689-0.322
					c9.91-4.896,14.44-15.517,12.957-19.852c-1.49-4.356-6.077-5.813-11.091-32.008l-1.927,0.786l-32.395,13.247
					c0,0,2.836,10.455,4.808,20.439C2075.999,1020.237,2073.554,1028.288,2075.297,1029.563z"/>
				<path style="fill:#ED975D;" d="M2069.531,991.414c0,0,2.836,10.455,4.808,20.439c18.752-4.21,25.363-23.356,27.587-33.687
					L2069.531,991.414z"/>
				<path style="fill:#FFB27D;" d="M2065.08,1002.102c0,0,44.756-7.969,39.364-35.764c-5.392-27.795-3.246-47.544-32.05-43.631
					c-28.803,3.913-32.281,15.593-32.738,25.308C2039.199,957.73,2053.299,1003.458,2065.08,1002.102z"/>
				<path style="fill:#233862;" d="M2053.012,916.125c0,0,22.022,37.137,43.729,39.613c21.707,2.476,26.717-6.99,26.717-6.99
					s-17.851-10.536-24.285-32.363C2099.172,916.384,2060.9,897.345,2053.012,916.125z"/>
				<path style="fill:#233862;" d="M2056.808,918.613c0,0-9.067,9.555-10.454,17.812c-1.387,8.257-0.241,24.699-5.064,24.805
					c0,0-13.732-23.344-4.118-38.965C2047.365,905.699,2056.808,918.613,2056.808,918.613z"/>
				<path style="fill:#233862;" d="M2055.084,920.107c0,0,15.035,36.816,43.178,45.364c0,0-29.703-19.774-35.451-44.658
					C2057.063,895.929,2055.084,920.107,2055.084,920.107z"/>
				<path style="fill:#233862;" d="M2146.824,981.627c-6.907,6.909-25.702,8.84-25.702,8.84c0.89-1.159,1.685-3.577,1.685-3.577
					c-9.845,7.531-33.319,1.199-33.319,1.199c18.972-3.633,13.633-31.014,7.253-32.353c-3.159-20.626-9.85-46.382-12.998-57.953
					c0.838-0.113,1.313-0.144,1.313-0.144C2135.47,879.727,2153.731,974.727,2146.824,981.627z"/>
			</g>
		</g>
		<g>
			<g>
				<path style="fill:#82B378;" d="M2777.02,1317.633c0,0,26.296-30.678,1.622-50.164c0,0-18.023-10.91-32.719-10.024
					c0,0,20.823,34.918,14.087,38.392c-6.736,3.473-20.398-40.582-20.398-40.582s-41.014-3.978-54.208,2.366
					c0,0,35.062,28.692,27.678,30.4c-7.385,1.708-45.256-26.454-45.256-26.454s-38.172,6.496-36.137,29.782
					s15.188,30.477,20.97,29.857s39.598-13.528,40.334-8.791c0.736,4.736-19.619,20.217-33.874,20.94
					c0,0,26.913,29.68,44.799,21.114s19.413-22.144,30.562-27.236c11.15-5.092,20.668-5.08,16.064,0.114
					c-4.604,5.193-24.781,10.241-31.157,21.52s-12.097,18.886,6.408,16.101c18.505-2.784,48.585-16.325,49.905-31.83
					S2777.02,1317.633,2777.02,1317.633z"/>
				<g>
					<path style="fill:#82B378;" d="M2650.444,1291.977c0,0,103.679-3.995,126.575,25.656c0,0,5.064,15.165,20.646,28.975
						l2.428,6.619c0,0-17.966-18.943-24.395-20.089C2775.699,1333.138,2785.753,1296.403,2650.444,1291.977z"/>
					<path style="fill:#82B378;" d="M2797.666,1346.607c0,0,22.253,16.458,23.799,45.864l-4.039,0.361
						c0,0-7.107-30.405-19.953-42.296C2784.625,1338.646,2797.666,1346.607,2797.666,1346.607z"/>
				</g>
			</g>
			<g>
				<path style="fill:#A8D29F;" d="M2868.957,1279.053c0,0-41.828-23.425-22.309-55.215c0,0,15.617-19.521,32.348-24.54
					c0,0-8.923,47.406,0,48.522c8.924,1.115,6.136-53.542,6.136-53.542s44.06-21.193,61.35-19.521c0,0-27.329,46.291-18.405,45.176
					s39.599-47.964,39.599-47.964s45.176-8.366,52.426,18.404c7.251,26.771-4.462,40.156-11.154,41.829
					c-6.692,1.674-49.638,1.116-48.522,6.693c1.116,5.577,30.117,14.501,46.291,9.481c0,0-17.847,44.06-41.271,41.829
					c-23.424-2.23-30.674-16.731-45.175-17.848c-14.501-1.115-25.098,2.789-17.848,6.693c7.251,3.904,31.79,1.279,43.503,11.236
					c11.712,9.957,21.193,16.092-0.559,20.554c-21.75,4.462-60.791,1.673-68.6-15.059S2868.957,1279.053,2868.957,1279.053z"/>
				<g>
					<path style="fill:#82B378;" d="M2999.465,1198.74c0,0-117.121,37.925-130.508,80.313c0,0,0.559,18.962-11.154,40.714v8.365
						c0,0,12.271-28.443,18.963-32.348C2876.766,1295.784,2850.553,1258.975,2999.465,1198.74z"/>
					<path style="fill:#82B378;" d="M2857.803,1319.767c0,0-18.062,27.428-7.765,60.815l4.647-1.248c0,0-4.511-36.774,4.938-55.271
						C2869.074,1305.568,2857.803,1319.767,2857.803,1319.767z"/>
				</g>
			</g>
			<g>
				<path style="fill:#A8D29F;" d="M2802.41,1246.747c0,0,55.14-30.878,29.408-72.783c0,0-20.586-25.731-42.641-32.348
					c0,0,11.763,62.49,0,63.961c-11.764,1.47-8.088-70.578-8.088-70.578s-58.079-27.937-80.869-25.731
					c0,0,36.023,61.021,24.261,59.55c-11.763-1.47-52.198-63.226-52.198-63.226s-59.55-11.027-69.107,24.261
					c-9.557,35.289,5.882,52.934,14.704,55.139c8.822,2.206,65.431,1.471,63.961,8.822c-1.471,7.353-39.7,19.115-61.021,12.498
					c0,0,23.525,58.08,54.403,55.14c30.878-2.941,40.436-22.056,59.55-23.526c19.115-1.471,33.084,3.676,23.526,8.822
					s-41.905,1.687-57.345,14.812c-15.438,13.125-27.937,21.213,0.735,27.094c28.672,5.882,80.135,2.206,90.428-19.85
					C2802.41,1246.747,2802.41,1246.747,2802.41,1246.747z"/>
				<g>
					<path style="fill:#82B378;" d="M2630.378,1140.881c0,0,154.389,49.992,172.032,105.866c0,0-0.734,24.996,14.704,53.668v11.028
						c0,0-16.174-37.494-24.996-42.641C2792.118,1268.803,2826.672,1220.28,2630.378,1140.881z"/>
					<path style="fill:#82B378;" d="M2817.114,1300.415c0,0,23.81,36.156,10.235,80.167l-6.125-1.645c0,0,5.945-48.477-6.511-72.857
						C2802.257,1281.7,2817.114,1300.415,2817.114,1300.415z"/>
				</g>
			</g>
			<path style="fill:#F99746;" d="M2804.269,1476.023c-59.651,0-108.008-48.357-108.008-108.009h216.016
				C2912.276,1427.666,2863.92,1476.023,2804.269,1476.023z"/>
			<path style="fill:#FFAC6E;" d="M2836.166,1475.196c-4.393,0.549-8.872,0.827-13.42,0.827
				c-59.649,0-108.002-48.359-108.002-108.009h26.832C2741.576,1423.123,2782.846,1468.589,2836.166,1475.196z"/>
			<path style="fill:#ED7D2B;" d="M2694.77,1481.52h218.999l0,0c0-7.36-5.966-13.326-13.326-13.326h-192.349
				C2700.734,1468.193,2694.77,1474.159,2694.77,1481.52L2694.77,1481.52z"/>
			
				<rect x="2693.805" y="1368.015" transform="matrix(-1 -1.224647e-16 1.224647e-16 -1 5609.6328 2739.3418)" style="fill:#ED7D2B;" width="222.023" height="3.313"/>
		</g>
		<path style="fill:#FFB27D;" d="M2448.278,1127.938c0,0-29.824-2.664-32.397-1.964s-24.537,18.554-25.303,20.13
			c-0.765,1.575-3.567,11.713-0.72,12.077c8.583,1.098,16.737-10.219,30.035-11.483c7.698-0.732,26.733-5.518,26.733-5.518
			L2448.278,1127.938z"/>
		<path style="fill:#CDE3FD;" d="M1987.445,797.228c2.789-69.029-55.068-99.697-114.228-99.697
			c-59.16,0-123.539,15.328-129.117,107.117c-3.589,59.051,27.891,95.386,118.535,95.386c30.57,0,54.329-4.822,72.526-13.42
			l45.312,40.262l-22.267-55.652C1977.932,852.884,1986.242,827.016,1987.445,797.228z"/>
		<path style="fill:#CDE3FD;" d="M724.29,770.098c-3.021-74.744,59.628-107.951,123.685-107.951
			c64.057,0,133.766,16.597,139.806,115.985c3.886,63.939-30.199,103.282-128.348,103.282c-33.102,0-58.827-5.221-78.531-14.532
			l-49.062,43.595l24.11-60.259C734.591,830.361,725.593,802.351,724.29,770.098z"/>
		<path style="fill:#DFEDFB;" d="M1373.108,797.104c2.414-59.751-47.667-86.297-98.875-86.297
			c-51.207,0-106.933,13.268-111.761,92.719c-3.106,51.114,24.142,82.565,102.602,82.565c26.461,0,47.027-4.174,62.778-11.617
			l39.22,34.851l-19.273-48.171C1364.873,845.278,1372.066,822.887,1373.108,797.104z"/>
	</g>
</g>
</svg>
