<?xml version="1.0" encoding="utf-8"?>
<!-- Generator: Adobe Illustrator 27.5.0, SVG Export Plug-In . SVG Version: 6.00 Build 0)  -->
<svg version="1.1" id="_x3C_Layer_x3E_" xmlns="http://www.w3.org/2000/svg" xmlns:xlink="http://www.w3.org/1999/xlink" x="0px"
	 y="0px" viewBox="0 0 3000 2000" style="enable-background:new 0 0 3000 2000;" xml:space="preserve">
<rect style="fill:#FFFFFF;" width="3000" height="2000"/>
<g>
	<defs>
		<path id="SVGID_1_" d="M2479.898,1771.601c-71.386,22.862-158.338,29.055-227.399,24.29c0,0-1269.708,122.314-1728.672-3.088
			c-339.681-92.81-298.674-423.214-194.721-634.694c105.138-213.89-170.849-627.333,272.798-867.076
			c255.179-137.897,484.054,82.774,925.196-80.135c398.277-147.079,912.033-15.524,1037.666,292.944
			c86.425,212.201-22.526,440.946,86.425,551.819C2827.894,1235.481,2746.64,1686.177,2479.898,1771.601z"/>
	</defs>
	<clipPath id="SVGID_00000085958729082748896610000010168795447927773066_">
		<use xlink:href="#SVGID_1_"  style="overflow:visible;"/>
	</clipPath>
	<g style="clip-path:url(#SVGID_00000085958729082748896610000010168795447927773066_);">
		<g>
			<path style="fill:#DAE6FF;" d="M2479.898,1771.601c-71.386,22.862-158.338,29.055-227.399,24.29
				c0,0-1269.708,122.314-1728.672-3.088c-339.681-92.81-298.674-423.214-194.721-634.694
				c105.138-213.89-170.849-627.333,272.798-867.076c255.179-137.897,484.054,82.774,925.196-80.135
				c398.277-147.079,912.033-15.524,1037.666,292.944c86.425,212.201-22.526,440.946,86.425,551.819
				C2827.894,1235.481,2746.64,1686.177,2479.898,1771.601z"/>
		</g>
	</g>
	
		<ellipse style="clip-path:url(#SVGID_00000085958729082748896610000010168795447927773066_);fill:#C1CFEA;" cx="1270.274" cy="1601.255" rx="840.153" ry="104.561"/>
	<g style="clip-path:url(#SVGID_00000085958729082748896610000010168795447927773066_);">
		<path style="fill:#FF6760;" d="M1203.687,1083.749c-94.14-122.303-218.351,27.617-218.351,27.617s-124.211-149.92-218.351-27.617
			s218.351,357.702,218.351,357.702S1297.826,1206.052,1203.687,1083.749z"/>
	</g>
	<g style="clip-path:url(#SVGID_00000085958729082748896610000010168795447927773066_);">
		<g>
			<g>
				<path style="fill:#E96F5F;" d="M1695.33,563.424c0,0,28.38,81.695,19.915,110.089c-8.465,28.395-43.747,107.535-41.843,139.147
					c0.592,9.841,10.529,85.977,27.398,98.525c11.412,8.489,42.526-15.45,38.209-54.265c-7.505-67.47,17.662-103.081,32.278-129.252
					c24.93-44.637,35.925-71.78,33.301-48.78c0,0-18.437,69.407-19.379,100.646c-0.254,8.44,9.179,74.792,25.982,83.119
					c9.09,4.505,41.218-7.196,37.638-67.473c-2.353-39.613,22.78-61.873,42.346-86.294c16.933-21.135,91.98-70.229,91.98-70.229
					l-80.827-81.526L1695.33,563.424z"/>
			</g>
			<g>
				<path style="fill:#FFA089;" d="M2493.381,715.564c-29.831-11.326-325.865,63.225-346.383,77.341
					c-50.847,34.964-199.646,53.86-318.893,50.026c-65.034-2.068-144.79,14.008-175.159,21.881
					c-23.886,6.198-116.267,40.424-136.921,33.463c-12.151-4.113-16.044-48.778-7.604-66.53
					c18.061-38.049,72.172-63.212,165.567-93.276c88.983-28.637,143.988-100.435,91.457-111.426
					c-138.474-28.972-242.658,234.965-307.263,218.938c-17.374-4.31-1.309-66.543,19.205-118.942
					c8.435-21.545,76.997-147.695,118.736-194.351c26.117-29.193,232.77-184.742,328.635-205.025
					c44.13-9.337,334.712,82.441,343.247,86.447l0.03,0.02c53.568-2.077,166.457-59.272,173.67-57.657
					C2457.407,500.188,2511.639,608.805,2493.381,715.564z"/>
			</g>
			<g>
				<path style="fill:#080435;" d="M1214.287,1604.216c-27.803,15.445-58.629,28.915-91.913,40.173
					c-4.839,1.826-9.705,3.528-14.594,5.103c-44.467,14.326-87.112,17.002-123.917,8.199
					c-31.779,10.25-69.291,15.013-113.091,10.035c-67.415-7.663-125.159-31.933-171.629-72.139
					c-40.958-35.436-70.85-81.783-86.445-134.031c-2.441-8.18-4.503-16.405-6.182-24.637
					c-26.122-41.179-47.268-87.51-60.409-133.288c-20.258-70.569-20.445-134.926-0.527-181.217
					c21.146-49.146,52.159-94.894,87.326-128.818c16.52-15.936,33.838-29.219,51.587-39.657
					c19.979-30.488,43.092-56.465,68.919-77.423c34.329-27.856,73.763-47.068,117.206-57.102
					c206.015-47.579,352.66-4.915,435.86,126.807c18.174,28.774,36.37,58.395,52.603,88.972
					c23.686-23.193,46.217-48.656,67.475-76.281c39.822-51.751,75.279-111.149,105.387-176.545
					c51.276-111.373,69.422-202.598,69.6-203.506l7.121,1.39c-0.18,0.918-18.495,92.996-70.131,205.151
					c-30.335,65.888-66.074,125.755-106.226,177.935c-21.929,28.498-45.208,54.725-69.706,78.561
					c22.657,43.67,41.043,89.266,49.438,137.071c9.727,55.39,4.745,108.392-15.252,160.051
					c-6.782,67.094-30.634,125.638-71.474,175.103c-28.582,34.617-65.657,64.773-110.193,89.632
					C1214.842,1603.907,1214.563,1604.062,1214.287,1604.216z M1195.156,1606.17c5.589-2.842,11.063-5.767,16.425-8.752
					c43.746-24.417,80.128-53.997,108.134-87.916c12.873-15.593,24.018-32.115,33.434-49.557
					c-16.538,27.694-44.172,58.605-77.24,85.442c-14.238,11.555-28.351,21.488-42.08,29.694
					C1221.897,1586.265,1208.906,1596.694,1195.156,1606.17z M1119.947,1637.551c30.28-11.439,59.387-27.778,85.108-47.549
					c-24.993,10.881-47.856,15.118-66.692,11.93c-15.53-2.629-38.362-0.352-65.587,4.049
					c-19.655,17.738-44.678,34.945-75.654,46.998c30.56,5.093,64.858,2.46,100.623-7.993l-0.102-0.342
					C1105.195,1642.389,1112.63,1640.023,1119.947,1637.551z M1082.027,1597.219c23.386-3.411,43.179-4.872,57.546-2.441
					c23.741,4.018,55.763-5.399,90.156-25.795c7.939-7.499,15.394-15.343,22.276-23.473c9.06-10.701,15.488-26.393,18.984-45.412
					c-25.416,16.547-54.545,30.244-86.836,40.785c-21.006,30.028-45.257,50.591-89.37,42.766
					C1090.869,1588.107,1086.622,1592.655,1082.027,1597.219z M1279.365,1494.448c-3.312,23.391-10.706,42.619-21.823,55.75
					c-0.189,0.224-0.379,0.446-0.568,0.669c4.777-3.516,9.57-7.224,14.364-11.115c45.219-36.697,81.141-82.705,89.389-114.484
					c1.749-6.738,2.424-13.688,2.264-20.822c-8.575,13.229-18.18,26.397-28.821,39.521
					C1318.944,1462.745,1300.554,1479.642,1279.365,1494.448z M1100.297,1577.169c33.854,4.607,54.417-9.649,72.221-32.665
					c-7.767,2.301-15.701,4.423-23.804,6.366c-11.061,2.653-22.338,4.939-33.772,6.858c-1.285,1.872-2.592,3.727-3.918,5.562
					C1107.846,1567.684,1104.276,1572.346,1100.297,1577.169z M983.497,1650.132c30.444-10.113,55.401-25.394,75.406-41.803
					c-11.855,2.085-24.383,4.455-37.374,6.913c-26.715,5.055-55.137,10.433-83.578,14.449c3.227,2.439,6.459,4.565,9.693,6.363
					C958.698,1642.201,970.712,1646.897,983.497,1650.132z M1190.781,1530.979c30.457-10.696,57.861-24.327,81.701-40.591
					c0.559-4.454,0.97-9.058,1.232-13.795c-19.752,21.207-48.252,37.928-79.258,48.587
					C1193.235,1527.136,1192.01,1529.072,1190.781,1530.979z M1281.339,1467.606c-0.072,5.892-0.358,11.607-0.854,17.124
					c18.421-13.493,34.525-28.655,48.05-45.334c12.643-15.592,23.793-31.242,33.46-46.981c-2.26-16.347-8.021-33.55-14.655-51.335
					c-12.748,16.952-28.325,34.385-45.476,52.118c1.182,9.443,0.726,21.127-2.189,35.576
					C1296.853,1442.757,1290.437,1455.776,1281.339,1467.606z M930.397,1623.407c30.462-4.07,61.122-9.871,89.783-15.294
					c17.397-3.292,33.968-6.428,49.277-8.939c6.272-5.75,11.967-11.544,17.109-17.218c-13.741-2.812-36.812-4.7-65.649-7.062
					c-5.081-0.416-10.316-0.845-15.693-1.294c-11.967,12.402-25.243,22.873-39.681,31.182c-12.424,7.158-25.818,11.79-40.075,13.901
					C927.107,1620.337,928.747,1621.909,930.397,1623.407z M618.228,1454.554c0.458,1.642,0.932,3.287,1.422,4.927
					c15.199,50.921,44.328,96.089,84.24,130.62c45.344,39.231,101.766,62.922,167.701,70.416c37.715,4.286,70.63,1.148,99.125-6.542
					c-9.334-3.062-18.224-6.923-26.6-11.581c-5.338-2.969-10.693-6.773-16.027-11.368c-77.555,10.04-153.865,8.506-194.946-38.756
					c-12.357-14.217-27.64-33.677-41.573-56.727c-16.286-13.354-32.206-29.141-47.293-46.979
					C635.236,1477.876,626.525,1466.486,618.228,1454.554z M1369.531,1394.013c1.326,11.328,1,22.365-1.78,33.078
					c-0.536,2.068-1.176,4.182-1.914,6.342c9.235-21.981,15.981-45.251,20.239-69.806
					C1381.155,1373.799,1375.639,1383.927,1369.531,1394.013z M1120.445,1549.402c8.977-1.631,17.844-3.494,26.577-5.588
					c11.19-2.683,22.053-5.714,32.58-9.084c1.365-1.995,2.723-4.036,4.077-6.119c-18.614,5.464-37.856,8.751-56.428,9.533
					C1125.066,1541.951,1122.797,1545.704,1120.445,1549.402z M1200.51,1515.318c10.307-3.99,20.246-8.68,29.566-14.004
					c18.36-10.486,33.221-22.788,43.976-36.187c0.046-10.108-0.548-20.712-1.811-31.654c-0.365-3.156-0.778-6.311-1.24-9.468
					c-4.371,4.247-8.792,8.507-13.244,12.776c-23.283,22.326-39.557,49.264-53.916,73.03
					C1202.725,1511.657,1201.616,1513.494,1200.51,1515.318z M1011.453,1566.838c3.431,0.284,6.778,0.558,10.057,0.827
					c30.598,2.505,54.765,4.483,68.7,7.656c0.616,0.141,1.224,0.274,1.832,0.403c4.873-5.724,9.171-11.26,12.91-16.418
					c-30.002,4.442-60.989,6.394-92.025,5.838C1012.437,1565.713,1011.948,1566.276,1011.453,1566.838z M1131.402,1530.666
					c19.396-1.219,39.268-5.159,58.212-11.438c2.643-4.273,5.301-8.673,8.017-13.168c14.591-24.151,31.128-51.525,55.104-74.514
					c5.812-5.573,11.429-11,16.857-16.301c-2.241-12.809-5.275-25.587-9.048-38.195c-9.804,12.926-21.846,23.379-36.06,31.276
					c-0.036,0.02-0.069,0.038-0.104,0.058c-13.165,7.297-28.062,12.345-44.579,15.127c-5.742,10.001-12.606,19.937-20.457,29.575
					c-0.343,1.814-0.71,3.641-1.102,5.476C1153.079,1482.775,1143.821,1507.501,1131.402,1530.666z M1018.822,1557.967
					c31.057,0.242,61.997-2.06,91.866-6.889c2.794-4.169,5.481-8.424,8.056-12.75c-21.727,0.008-41.57-3.524-58.316-10.319
					c-6.364,2.7-12.745,5.052-19.101,7.029c-2.743,0.854-5.467,1.636-8.174,2.347
					C1028.681,1544.629,1023.899,1551.497,1018.822,1557.967z M1277.379,1417.783c0.808,4.955,1.498,9.907,2.069,14.859
					c0.889,7.703,1.464,15.21,1.732,22.494c5.613-8.947,9.461-18.277,11.382-27.797c2.049-10.151,2.901-19.259,2.576-27.252
					C1289.356,1405.959,1283.427,1411.855,1277.379,1417.783z M1069.838,1523.758c14.805,4.962,31.885,7.459,50.423,7.307
					c0.893-0.007,1.786-0.02,2.682-0.04c11.824-21.277,20.912-44.021,26.479-66.494c-0.009,0.01-0.018,0.019-0.026,0.028
					C1126.612,1489.283,1098.651,1509.952,1069.838,1523.758z M1352.46,1334.079c6.319,16.709,12.087,32.965,15.262,48.7
					c8.656-15.069,15.955-30.215,21.917-45.488c5.337-54.114-0.602-113.923-17.861-179.143
					c-8.925-33.724-20.329-64.848-34.121-93.181c-3.59,3.154-7.21,6.263-10.848,9.319c12.502,48.422,14.86,91.732,5.579,115.493
					c-4.784,12.246-7.012,24.5-7.387,36.724c29.457,2.858,52.443,5.56,55.726,23.068
					C1385.595,1275.532,1373.813,1304.012,1352.46,1334.079z M708.454,1548.421c10.487,15.431,21.122,28.686,30.165,39.089
					c37.89,43.591,109.01,46.018,182.528,37.077c-1.579-1.569-3.153-3.205-4.725-4.909c-9.418,0.68-19.182,0.307-29.264-1.123
					c-15.372-2.18-31.263-6.775-47.523-13.728c-18.784-1.554-35.109-8.464-48.717-20.6c-16.813-2.701-33.868-8.339-51.069-16.902
					C729.379,1562.112,718.875,1555.779,708.454,1548.421z M919.343,1612.134c15.273-1.565,29.519-6.126,42.581-13.637
					c12.17-7.004,23.485-15.617,33.856-25.693c-13.67-1.173-28.15-2.495-43.206-4.081c-16.145,9.778-32.291,18.084-48.079,24.288
					C909.344,1600.032,914.306,1606.431,919.343,1612.134z M962.638,1562.444c13.942,1.403,27.25,2.583,39.72,3.635
					c0.368-0.394,0.728-0.784,1.093-1.184c-13.451-0.463-26.907-1.397-40.265-2.804
					C963.002,1562.211,962.823,1562.326,962.638,1562.444z M972.803,1555.74c12.236,1.093,24.524,1.786,36.814,2.08
					c4.725-5.688,9.203-11.724,13.423-18.088c-10.979,2.207-21.625,3.211-31.858,3.022
					C985.091,1547.234,978.954,1551.577,972.803,1555.74z M859.477,1604.58c9.758,3.196,19.336,5.464,28.699,6.791
					c7.585,1.076,14.974,1.52,22.154,1.335c-4.319-5.201-8.592-10.906-12.801-17.09
					C884.502,1600.244,871.75,1603.354,859.477,1604.58z M1265.815,1369.53c4.136,13.043,7.497,26.284,10.031,39.579
					c6.375-6.286,12.471-12.398,18.286-18.366c-2.237-12.176-7.959-20.929-17.069-25.87c-2.089-1.134-4.351-2.064-6.774-2.791
					C1268.867,1364.636,1267.373,1367.122,1265.815,1369.53z M1060.36,1520.107c31.032-13.641,60.512-35.303,83.701-60.465
					c2.941-3.191,5.771-6.431,8.482-9.704c1.479-8.256,2.424-16.301,2.84-24.005c-9.498,0.338-19.429,0.044-29.779-0.884
					c-12.542,10.375-25.218,21.827-37.885,34.252c-9.911,9.723-20.412,19.695-31.35,29.636c-2.983,8.211-6.273,16.128-9.855,23.729
					c1.292,0.842,2.62,1.658,3.979,2.447C1053.62,1516.927,1056.912,1518.593,1060.36,1520.107z M1038.501,1528.273
					c4.285-1.316,8.564-2.8,12.821-4.439c-1.523-0.785-3.015-1.601-4.473-2.448c-1.205-0.699-2.386-1.418-3.543-2.155
					C1041.754,1522.3,1040.152,1525.315,1038.501,1528.273z M1273.7,1355.543c2.396,0.802,4.672,1.785,6.822,2.951
					c7.789,4.227,15.819,11.94,19.647,25.999c16.616-17.357,30.794-33.552,42.543-49.385c0.529-0.714,1.053-1.425,1.569-2.133
					c-0.731-1.918-1.468-3.845-2.206-5.776c-11.739-30.695-23.75-62.101-24.407-94.116c-9.286-0.906-19.019-1.92-28.826-3.44
					c-1.54,4.516-3.293,8.773-5.255,12.803c7.684,29.551,7.951,57.864,0.766,84.378
					C1281.548,1337.178,1277.993,1346.754,1273.7,1355.543z M1001.244,1535.206c9.018-0.52,18.149-1.952,27.289-4.185
					c3.076-5.132,5.994-10.454,8.752-15.958c-1.917-1.441-3.759-2.943-5.52-4.502
					C1021.805,1519.009,1011.599,1527.284,1001.244,1535.206z M900.392,1586.879c12.741-4.885,26.183-11.385,40.281-19.452
					c-12.395-1.397-25.133-2.985-38.089-4.823c-4.301,2.037-8.706,3.976-13.215,5.818
					C892.951,1574.919,896.632,1581.085,900.392,1586.879z M914.053,1556.805c12.654,1.691,25.047,3.153,37.039,4.439
					c0.253-0.155,0.5-0.307,0.753-0.463c-11.625-1.464-23.162-3.287-34.575-5.474c-0.119-0.023-0.239-0.046-0.358-0.069
					C915.957,1555.765,915.01,1556.289,914.053,1556.805z M926.461,1549.62c11.594,2.042,23.311,3.709,35.098,5.002
					c6.028-3.929,12.159-8.119,18.395-12.57c-11.085-1.201-21.627-3.887-31.523-8.049c-1.823,1.481-3.677,2.934-5.563,4.36
					C937.64,1542.319,932.166,1546.073,926.461,1549.62z M1343.286,1059.965c14.4,29.245,26.269,61.424,35.506,96.327
					c14.644,55.339,21.244,106.874,19.826,154.447c12.119-42.319,14.155-85.634,6.273-130.516
					c-8.12-46.243-25.837-90.546-47.749-133.076C1352.567,1051.5,1347.943,1055.777,1343.286,1059.965z M1037.347,1505.787
					c1.026,0.887,2.079,1.752,3.162,2.597c1.33-2.862,2.618-5.766,3.864-8.718
					C1042.047,1501.713,1039.703,1503.754,1037.347,1505.787z M841.389,1597.685c0.505,0.035,1.011,0.066,1.52,0.093
					c15.175,0.803,32.077-2.021,50.524-8.366c-3.413-5.324-6.777-10.965-10.08-16.907c-0.261-0.47-0.522-0.941-0.781-1.413
					c-11.361,4.293-23.337,7.981-35.896,11.05c-9.431,2.305-18.987,3.598-28.645,3.885
					C825.899,1590.457,833.69,1594.344,841.389,1597.685z M954.741,1528.664c10.986,4.115,22.547,6.255,34.416,6.683
					c12.11-8.995,24.577-18.932,37.397-29.808c-10.715-11.255-17.916-25.129-21.497-41.478c-0.227-1.038-0.466-2.122-0.716-3.252
					c-1.542,3.528-3.185,7.002-4.924,10.41C988.281,1493.049,973.287,1512.319,954.741,1528.664z M1162.723,1425.538
					c-0.213,4.131-0.574,8.361-1.086,12.674c3.214-4.435,6.207-8.911,8.966-13.405
					C1168.013,1425.103,1165.385,1425.346,1162.723,1425.538z M1184.278,1415.256c27.968-5.776,54.674-19.441,73.559-46.835
					c-0.912-2.781-1.859-5.547-2.843-8.306c-14.785,0.136-33.041,5.141-53.519,14.85c-1.134,0.537-2.275,1.089-3.417,1.652
					c-0.296,1.526-0.624,3.058-0.985,4.602C1194.473,1392.311,1190.138,1403.78,1184.278,1415.256z M1324.994,1233.793
					c0.843,30.637,12.482,61.068,23.858,90.815c0.157,0.41,0.314,0.821,0.47,1.229c20.215-29.599,28.164-54.186,24.275-74.929
					C1371.318,1238.757,1351.084,1236.331,1324.994,1233.793z M1009.099,1448.901c1.174,5.138,2.191,9.703,3.046,13.608
					c3.311,15.114,9.992,27.924,19.946,38.292c5.945-5.128,11.961-10.454,18.047-15.976c4.966-13.929,9.043-28.733,12.164-44.301
					c1.745-8.701,3.18-17.563,4.306-26.566c-2.489-0.686-4.994-1.404-7.502-2.146c-14.162,12.568-31.047,24.849-49.669,36.148
					C1009.325,1448.274,1009.213,1448.588,1009.099,1448.901z M1162.945,1418.218c4.093-0.314,8.196-0.764,12.286-1.367
					c6.652-12.1,11.557-24.226,14.447-35.91c-9.106,4.897-18.442,10.571-27.951,16.969
					C1162.599,1404.298,1163.007,1411.092,1162.945,1418.218z M1073.682,1415.842c-1.128,8.841-2.55,17.552-4.265,26.109
					c-2.27,11.321-5.035,22.248-8.273,32.746c7.076-6.603,14.243-13.463,21.495-20.576c11.041-10.831,22.075-20.896,33.002-30.148
					C1102.123,1422.269,1088.074,1419.534,1073.682,1415.842z M1133.825,1418.387c7.118,0.422,14.422,0.541,21.795,0.254
					c0.058-5.579-0.177-10.943-0.704-16.043C1147.956,1407.492,1140.919,1412.761,1133.825,1418.387z M1260.109,1352.971
					c2.199,0.145,4.334,0.398,6.397,0.761c4.287-8.528,7.941-18.09,10.845-28.804c6.234-23.007,6.567-47.498,1.022-73.072
					c-11.54,18.412-28.043,31.139-47.968,40.156C1242.191,1311.135,1252.179,1331.688,1260.109,1352.971z M874.199,1537.558
					c13.38,3.871,27.236,7.232,41.477,10.048c8.066-4.615,15.674-9.625,22.813-15.028c0.872-0.66,1.736-1.325,2.595-1.997
					c-5.018-2.572-9.852-5.549-14.487-8.929c-10.743-7.835-21.815-16.373-33.018-25.274c-11.354,2.714-22.419,4.725-33.091,6.018
					C864.721,1514.659,869.315,1526.425,874.199,1537.558z M901.526,1555.065c1.42-0.688,2.829-1.39,4.225-2.1
					c-9.397-2.022-18.621-4.28-27.643-6.766c0.892,1.913,1.794,3.81,2.704,5.682
					C887.767,1553.019,894.677,1554.078,901.526,1555.065z M885.913,1561.994c1.108-0.448,2.212-0.904,3.307-1.365
					c-1.452-0.223-2.914-0.451-4.37-0.681C885.202,1560.631,885.558,1561.317,885.913,1561.994z M805.505,1578.559
					c13.375,0.841,26.543-0.311,39.448-3.465c11.944-2.918,23.341-6.408,34.16-10.453c-1.058-2.023-2.102-4.065-3.137-6.134
					c-26.475-4.419-53.511-10.003-80.152-17.233c-10.201-2.768-20.085-5.718-29.638-8.843c2.84,9.642,7.552,19.179,14.125,28.573
					C788.651,1567.376,797.062,1573.244,805.505,1578.559z M902.435,1494.133c9.65,7.606,19.174,14.899,28.438,21.655
					c5.263,3.838,10.751,7.071,16.413,9.734c19.091-16.227,34.425-35.558,45.67-57.6c2.335-4.577,4.487-9.271,6.455-14.069
					c-14.839,8.457-30.607,16.226-46.863,23.033C935.525,1484.013,918.72,1489.775,902.435,1494.133z M1199.396,1367.967
					c19.675-9.242,37.635-14.418,52.935-15.07c-7.733-20.258-17.373-39.808-28.682-58.017c-12.209,4.853-25.548,8.486-39.702,11.302
					C1196.812,1323.642,1202.062,1344.705,1199.396,1367.967z M1074.54,1408.583c16.866,4.367,33.233,7.395,48.829,8.965
					c10.303-8.404,20.48-16.063,30.445-22.934c-1.298-7.417-3.29-14.132-5.968-19.941c-7.084-15.37-18.23-23.775-33.127-24.983
					c-2.972-0.241-6.111-0.312-9.399-0.231c-5.711,12.801-11.865,23.738-18.396,32.593c-3.3,4.475-7.045,8.985-11.183,13.494
					C1075.41,1399.916,1075.009,1404.268,1074.54,1408.583z M764.193,1524.046c34.998,11.749,71.884,20.155,107.852,26.362
					c-1.064-2.258-2.115-4.541-3.151-6.847c-37.851-11.253-71.908-26.577-100.188-45.21c-1.448-0.954-2.876-1.912-4.29-2.88
					c-0.025,0.13-0.05,0.259-0.075,0.389C762.551,1505.314,762.505,1514.722,764.193,1524.046z M1108.439,1342.174
					c2.365,0.012,4.654,0.104,6.866,0.283c17.452,1.416,30.983,11.505,39.13,29.178c2.566,5.566,4.556,11.778,5.963,18.532
					c10.699-7.073,21.111-13.203,31.14-18.339c3.942-24.555-1.39-46.557-15.603-64.152c-18.201,3.182-37.6,5.187-57.551,6.825
					C1115.261,1324.418,1111.94,1333.662,1108.439,1342.174z M770.232,1490.649c0.817,0.551,1.639,1.098,2.466,1.643
					c26.227,17.281,57.574,31.667,92.386,42.526c-4.291-10.151-8.312-20.723-12.03-31.63c-24.262,2.215-46.274,0.572-64.696-5.104
					C781.876,1496.086,775.832,1493.604,770.232,1490.649z M697.136,1530.727c15.149,12.318,30.596,22.461,45.946,30.103
					c13.094,6.518,26.086,11.271,38.925,14.248c-0.337-0.396-0.673-0.798-1.006-1.202c-2.132-2.588-4.13-5.187-5.993-7.8
					c-19.286-14.833-38.143-32.28-55.92-51.656c-13.058-5.82-25.256-12.046-36.537-18.656c-1.638-0.96-3.259-1.929-4.863-2.908
					C683.402,1506.26,690.078,1518.956,697.136,1530.727z M895.331,1488.497c17.569-4.409,35.845-10.529,54.415-18.303
					c17.792-7.45,34.981-16.077,50.951-25.447c-3.27-14.091-7.553-31.75-12.796-51.717c-33.889,23.813-75.252,41.982-120.529,52.856
					c-6.347,1.524-12.72,2.89-19.109,4.102c0.161,0.133,0.325,0.27,0.486,0.402C864.159,1463.148,879.866,1476.152,895.331,1488.497
					z M1020.829,1398.619c-1.551,13.274-4.182,26.222-7.888,38.647c13.989-8.901,26.821-18.326,38.027-27.948
					C1041.025,1406.163,1030.963,1402.59,1020.829,1398.619z M1065.35,1406.086c0.698,0.198,1.402,0.396,2.098,0.591
					c0.102-0.966,0.2-1.925,0.295-2.895C1066.957,1404.55,1066.159,1405.318,1065.35,1406.086z M994.202,1388.472
					c4.652,17.612,8.58,33.519,11.744,46.88c3.798-12.683,6.434-25.921,7.909-39.525c-6.22-2.541-12.462-5.229-18.712-8.059
					C994.832,1388.003,994.516,1388.239,994.202,1388.472z M1021.586,1391.138c12.026,4.769,23.967,8.973,35.709,12.568
					c4.062-3.725,7.871-7.472,11.396-11.218c0.873-12.535,1.175-25.294,0.908-38.224c-14.688,3.065-30.646,7.287-47.123,11.766
					C1022.59,1374.486,1022.293,1382.872,1021.586,1391.138z M858.131,1495.401c9.12-1.053,18.556-2.651,28.235-4.788
					c-12.916-10.381-25.954-21.149-38.813-31.793C850.705,1471.371,854.249,1483.598,858.131,1495.401z M1076.822,1352.833
					c0.244,10.391,0.128,20.675-0.351,30.83c1.624-1.978,3.164-3.952,4.615-5.918c5.747-7.794,11.1-17.153,16.055-27.812
					C1090.783,1350.494,1083.979,1351.499,1076.822,1352.833z M735.739,1521.435c9.347,9.51,18.948,18.466,28.704,26.762
					c-2.887-6.127-5.061-12.31-6.52-18.541C750.304,1527.03,742.909,1524.289,735.739,1521.435z M768.407,1481.323
					c6.59,4.043,13.955,7.321,22.088,9.827c17.14,5.281,37.604,6.894,60.215,4.993c-4.648-14.314-8.781-29.17-12.337-44.403
					c-19.41,3.198-38.815,4.986-57.547,5.433C775.502,1465.267,771.359,1473.319,768.407,1481.323z M1226.521,1285.862
					c23.063-10.255,39.185-24.659,49.35-44.186c-1.273-4.639-2.735-9.31-4.387-14.013c-0.169-0.482-0.339-0.962-0.513-1.444
					c-26.115-6.117-51.1-17.609-67.72-42.147c-4.318-6.375-7.907-13.4-10.765-21.089c-13.437,7.312-26.756,14.189-39.932,20.622
					c-3.223,2.646-6.461,5.279-9.71,7.897c-0.331,2.897-0.674,5.785-1.032,8.668c-0.006,0.046-0.011,0.09-0.017,0.136
					c30.858,19.615,58.183,46.413,80.535,79.243C1223.749,1281.632,1225.146,1283.738,1226.521,1285.862z M1178.796,1299.831
					c12.148-2.262,23.657-5.092,34.357-8.751c2.239-0.766,4.423-1.561,6.553-2.388c-1.11-1.7-2.235-3.387-3.375-5.062
					c-21.093-30.98-46.708-56.439-75.563-75.351c-2.533,19.029-5.553,37.035-9.015,53.861
					C1149.463,1272.71,1165.628,1284.878,1178.796,1299.831z M1291.001,1222.62c9.072,1.384,18.09,2.333,26.718,3.178
					c0.45-12.792,2.842-25.68,7.911-38.657c8.421-21.558,6.209-62.4-5.034-107.701c-14.081,11.529-28.507,22.328-43.248,32.372
					C1294.853,1150.876,1299.843,1190.37,1291.001,1222.62z M1076.591,1345.504c8.458-1.544,16.468-2.634,23.89-3.091
					c3.583-8.438,6.944-17.58,10.071-27.288c-6.934,0.538-13.933,1.044-20.953,1.552c-4.969,0.359-9.945,0.72-14.933,1.093
					C1075.586,1327.078,1076.228,1336.327,1076.591,1345.504z M1001.63,1382.745c4.315,1.917,8.622,3.766,12.921,5.543
					c0.432-5.672,0.667-11.4,0.702-17.168C1010.886,1375.105,1006.344,1378.983,1001.63,1382.745z M1120.661,1307.035
					c17.272-1.448,33.945-3.183,49.667-5.731c-11.478-12.221-25.195-22.523-40.167-31.641
					C1127.269,1282.924,1124.095,1295.404,1120.661,1307.035z M1279.267,1227.985c0.402,1.192,0.79,2.376,1.168,3.565
					c0.399-1.03,0.783-2.073,1.155-3.128C1280.814,1228.279,1280.042,1228.134,1279.267,1227.985z M723.288,1508.274
					c10.753,4.752,21.83,9.104,33.12,13.091c-1.169-8.874-0.903-17.836,0.806-26.855c0.226-1.194,0.477-2.389,0.753-3.583
					c-16.111-11.694-29.891-24.351-41.294-37.913c-16.945-2.823-32.304-7.019-45.336-12.501
					C686.881,1464.743,704.465,1487.612,723.288,1508.274z M1030.059,1356.468c13.684-3.66,26.924-7.022,39.326-9.565
					c-0.351-9.45-1.002-18.987-1.954-28.583c-2.924,0.227-5.85,0.459-8.774,0.7
					C1050.466,1332.301,1040.926,1344.794,1030.059,1356.468z M843.924,1443.425c7.299-1.335,14.565-2.867,21.753-4.594
					c45.379-10.897,86.697-29.239,120.24-53.29c-0.208-0.781-0.418-1.561-0.628-2.348c-3.199-1.522-6.401-3.081-9.6-4.676
					c-43.377,10.899-87.51,18.846-124.207,11.035c-5.337,3.749-10.428,7.486-15.286,11.226
					C838.237,1415.095,840.814,1429.332,843.924,1443.425z M1276.4,1219.968c2.46,0.529,4.931,1.013,7.403,1.459
					c8.594-30.465,3.984-68.057-12.564-105.507c-3.098,2.055-6.215,4.081-9.341,6.069c-10.484,6.671-20.931,13.105-31.328,19.293
					C1251.034,1167.167,1266.402,1193.546,1276.4,1219.968z M991.426,1378.086c0.915,0.429,1.846,0.862,2.76,1.285
					c0.204-0.158,0.407-0.317,0.611-0.474c3.332-2.603,6.578-5.262,9.737-7.976c-4.649,1.263-9.329,2.525-14.03,3.769
					C990.815,1375.827,991.122,1376.959,991.426,1378.086z M1073.898,1310.551c5.069-0.38,10.127-0.745,15.177-1.111
					c8.021-0.58,15.966-1.156,23.8-1.773c3.955-13.124,7.51-27.174,10.664-41.917c-11.367-6.521-23.344-12.448-35.532-18.08
					c-1.058,4.288-2.248,8.696-3.572,13.215c-3.414,11.654-7.625,22.88-12.624,33.666
					C1072.597,1299.9,1073.292,1305.23,1073.898,1310.551z M988.583,1367.692c7.967-2.108,15.88-4.269,23.68-6.397
					c0.945-0.258,1.891-0.516,2.832-0.774c-0.429-12.058-1.712-24.253-3.851-36.466c-11.369,1.577-22.594,3.476-33.579,5.837
					C981.593,1342.92,985.236,1355.594,988.583,1367.692z M1198.974,1159.424c2.707,7.588,6.139,14.458,10.284,20.579
					c14.263,21.057,35.655,31.84,58.55,37.911c-9.848-24.444-24.44-48.874-43.542-72.905
					C1215.798,1149.979,1207.361,1154.783,1198.974,1159.424z M1018.435,1323.102c1.817,10.449,3.025,20.902,3.624,31.262
					c10.372-10.792,19.546-22.321,27.508-34.565C1039.134,1320.731,1028.736,1321.796,1018.435,1323.102z M976.506,1370.827
					c1.687-0.429,3.375-0.862,5.059-1.298c-3.368-12.169-7.038-24.93-10.995-38.039c-14.229,3.358-28.014,7.56-41.143,12.918
					C944.969,1354.037,960.722,1362.869,976.506,1370.827z M859.992,1383.707c31.592,4.854,68.727-1.288,105.815-10.228
					c-14.933-7.789-29.811-16.338-44.474-25.579c-4.881,2.224-9.656,4.62-14.324,7.213
					C889.813,1364.666,874.139,1374.2,859.992,1383.707z M785.967,1449.837c15.022-0.575,30.292-2.026,45.496-4.329
					c-8.081-6.672-16.16-13.309-24.193-19.806C799.027,1433.78,791.922,1441.829,785.967,1449.837z M812.574,1420.646
					c7.622,6.179,15.329,12.512,23.097,18.927c-2.344-11.131-4.362-22.353-6.051-33.621
					C823.523,1410.86,817.842,1415.758,812.574,1420.646z M1063.174,1311.375c1.162-0.092,2.324-0.183,3.486-0.273
					c-0.19-1.663-0.389-3.325-0.598-4.991C1065.122,1307.879,1064.159,1309.634,1063.174,1311.375z M742.809,1456.18
					c5.221,8.212,11.702,15.206,19.435,20.971c2.571-6.602,5.898-13.228,9.972-19.866
					C762.156,1457.304,752.316,1456.933,742.809,1456.18z M1017.097,1315.953c12.323-1.567,24.787-2.795,37.262-3.855
					c3.603-6.056,6.921-12.274,9.952-18.654c-1.932-12.755-4.382-25.586-7.35-38.44c-16.16,10.871-32.107,20.968-47.8,30.264
					C1012.394,1295.439,1015.041,1305.695,1017.097,1315.953z M624.244,1450.501c8.148,11.71,16.699,22.887,25.573,33.378
					c10.046,11.877,20.457,22.82,31.091,32.71c-4.206-8.08-8.149-16.494-11.682-25.184c-0.716-1.762-1.412-3.525-2.083-5.281
					C650.904,1475.278,636.579,1463.379,624.244,1450.501z M673.07,1481.282c10.692,7.001,21.993,13.407,33.758,19.268
					c-16.303-19.142-31.501-39.859-45.06-61.594C663.955,1452.772,667.722,1466.893,673.07,1481.282z M727.763,1454.637
					c5.861,6.388,12.29,12.558,19.294,18.51c-4.989-5.285-9.32-11.217-12.978-17.775
					C731.953,1455.146,729.848,1454.902,727.763,1454.637z M1089.692,1240.455c12.097,5.56,24.016,11.401,35.401,17.822
					c3.508-17.386,6.47-35.626,8.873-54.298c-1.289-0.786-2.588-1.561-3.89-2.321c-4.032,3.168-8.073,6.306-12.12,9.408
					c-8.817,6.762-17.593,13.317-26.313,19.658C1091.069,1233.894,1090.419,1237.144,1089.692,1240.455z M738.524,1448.607
					c12.409,1.181,25.286,1.666,38.407,1.47c6.674-9.611,14.912-19.254,24.703-28.918c-25.864-20.757-51.069-39.759-73.78-53.268
					c-1.063,9.665-1.411,19.582-1.029,29.714C727.577,1417.563,731.489,1434.58,738.524,1448.607z M975.545,1322.918
					c11.25-2.437,22.733-4.39,34.351-6.007c-1.886-9.317-4.27-18.626-7.152-27.875c-10.877,6.32-21.621,12.247-32.23,17.777
					C972.236,1312.223,973.914,1317.597,975.545,1322.918z M1063.394,1250.645c2.417,10.221,4.51,20.431,6.282,30.605
					c2.952-7.276,5.552-14.747,7.797-22.405c1.416-4.833,2.688-9.58,3.817-14.243c-1.853-0.837-3.711-1.67-5.569-2.496
					C1071.602,1245,1067.488,1247.849,1063.394,1250.645z M728.889,1360.002c23.869,13.841,50.323,33.784,78.033,56.078
					c6.549-6.127,13.726-12.266,21.519-18.406c-0.75-5.542-1.421-11.103-2.013-16.662c-6.944-3.43-13.459-7.709-19.473-12.966
					c-3.127-2.734-6.073-5.692-8.843-8.882c-24.647,0.212-46.939-4.016-66.656-12.62
					C730.44,1350.964,729.583,1355.455,728.889,1360.002z M921.931,1339.691c14.793-6.429,30.395-11.335,46.52-15.164
					c-1.456-4.744-2.95-9.531-4.479-14.345c-0.432,0.219-0.864,0.438-1.295,0.657c-17.28,8.745-34.021,16.317-50.182,22.705
					C915.631,1335.626,918.772,1337.673,921.931,1339.691z M834.098,1384.395c0.309,2.72,0.638,5.443,0.985,8.158
					c2.359-1.779,4.763-3.555,7.225-5.336C839.521,1386.383,836.781,1385.443,834.098,1384.395z M833.221,1376.154
					c5.344,2.345,10.961,4.193,16.801,5.6c15.849-10.992,33.677-21.993,53.464-32.985c3.484-1.935,7.022-3.764,10.616-5.495
					c-3.308-2.148-6.601-4.328-9.883-6.545c-25.78,9.66-50.038,16.225-72.619,19.65
					C832.027,1362.975,832.568,1369.568,833.221,1376.154z M720.583,1446.353c3.157,0.5,6.377,0.952,9.652,1.353
					c-6.35-14.16-9.944-30.828-10.659-49.826c-0.437-11.596,0.048-22.927,1.435-33.932c-15.649-8.715-29.967-14.508-42.315-16.074
					c3.431,14.532,7.441,29.158,12.03,43.854C696.82,1411.25,706.806,1429.499,720.583,1446.353z M611.55,1424.076
					c14.032,19.351,31.501,35.965,51.411,50.273c-4.802-14.668-7.993-29.069-9.568-43.165c-5.303-3.424-9.912-7.166-13.735-11.217
					c-11.555-12.246-15.221-26.792-10.601-42.067c0.045-0.149,0.09-0.296,0.136-0.444c-6.333-14.481-11.685-28.871-16.024-43.056
					C607.183,1363.104,606.668,1393.556,611.55,1424.076z M1082.603,1237.235c0.112,0.05,0.223,0.1,0.336,0.151
					c0.033-0.154,0.066-0.307,0.098-0.461C1082.891,1237.029,1082.749,1237.13,1082.603,1237.235z M664.21,1429.068
					c12.218,6.497,27.759,11.74,45.651,15.357c-11.755-15.735-20.465-32.607-26.062-50.534
					c-4.638-14.854-8.693-29.647-12.163-44.341c-2.655,6.388-4.875,12.885-6.664,19.502c-4.566,16.892-6.27,34.484-5.121,52.663
					c1.311,2.255,2.643,4.506,4,6.758C663.971,1428.673,664.089,1428.869,664.21,1429.068z M968.261,1299.804
					c10.591-5.545,21.321-11.488,32.183-17.825c-1.831-5.38-3.832-10.731-6.003-16.048c-3.464-8.483-8.135-16.124-13.909-22.824
					c-10.555,1.85-20.754,3.221-30.542,4.115C956.532,1264.74,962.63,1282.429,968.261,1299.804z M988.693,1241.596
					c5.064,6.479,9.243,13.7,12.466,21.594c2.034,4.982,3.922,9.992,5.665,15.031c15.862-9.435,31.993-19.698,48.34-30.754
					c-0.155-0.628-0.312-1.263-0.47-1.892c-1.2-4.795-2.473-9.588-3.814-14.366c-2.627-1.15-5.248-2.304-7.845-3.456
					c-14.707,4.558-29.06,8.393-43.01,11.481C996.204,1240.08,992.43,1240.867,988.693,1241.596z M905.178,1328.612
					c17.378-6.668,35.466-14.755,54.223-24.247c0.776-0.393,1.551-0.787,2.328-1.184c-5.597-17.316-11.658-34.952-18.164-52.425
					c-25.605,22.248-50.696,39.743-74.003,51.631c3.917,3.104,7.912,6.19,11.988,9.26
					C889.316,1317.496,897.206,1323.158,905.178,1328.612z M1059.429,1234.944c0.732,2.72,1.44,5.442,2.126,8.167
					c2.132-1.465,4.27-2.943,6.409-4.434C1065.118,1237.428,1062.27,1236.184,1059.429,1234.944z M807.754,1358.861
					c1.291,1.293,2.615,2.533,3.976,3.723c4.324,3.779,8.948,7.015,13.841,9.761c-0.456-4.991-0.847-9.977-1.176-14.972
					C818.737,1358.073,813.19,1358.57,807.754,1358.861z M1056.922,1225.933c1.351,0.59,2.703,1.181,4.058,1.772
					c4.632,2.021,9.277,4.048,13.922,6.1c3.362-2.379,6.736-4.793,10.114-7.237c0.817-4.83,1.463-9.553,1.937-14.167
					c-10.389,4.025-20.636,7.728-30.736,11.104C1056.455,1224.316,1056.689,1225.123,1056.922,1225.933z M831.175,1349.108
					c20.497-3.159,42.44-8.972,65.712-17.403c-6.638-4.618-13.21-9.374-19.701-14.262c-5.068-3.816-10.01-7.657-14.835-11.529
					c-11.16,5.216-21.86,9.081-31.957,11.497C830.362,1327.953,830.622,1338.53,831.175,1349.108z M1094.482,1209.438
					c-0.299,3.598-0.704,7.302-1.224,11.115c6.733-4.957,13.492-10.037,20.283-15.244c3.266-2.505,6.494-5.004,9.689-7.5
					c-0.176-0.095-0.352-0.19-0.528-0.284C1113.2,1201.745,1103.788,1205.718,1094.482,1209.438z M1196.726,1152.377
					c7.62-4.21,15.248-8.577,22.917-13.069c-2.26-2.733-4.58-5.462-6.956-8.184c-5.647,5.258-11.445,10.548-17.359,15.839
					C1195.759,1148.802,1196.225,1150.607,1196.726,1152.377z M1176.994,1163.055c4.373-2.307,8.751-4.656,13.151-7.056
					c-0.349-1.162-0.685-2.346-1.004-3.536C1185.138,1155.998,1181.088,1159.53,1176.994,1163.055z M1217.984,1126.161
					c2.738,3.132,5.398,6.268,7.985,9.416c10.631-6.316,21.306-12.883,32.033-19.708c3.405-2.167,6.79-4.371,10.162-6.617
					c-1.914-3.987-3.964-7.968-6.146-11.933c-1.785-3.242-3.641-6.445-5.56-9.599c-7.169,7.678-14.058,14.662-18.843,19.429
					C1231.336,1113.404,1224.776,1119.756,1217.984,1126.161z M1144.119,1179.632c1.519-0.73,3.045-1.468,4.567-2.21
					c13.725-11.266,26.634-22.317,38.586-32.93c-2.595-12.819-3.606-27.107-3.033-42.926
					c-11.159-10.562-22.993-20.693-35.391-30.321C1149.363,1106.261,1147.786,1143.302,1144.119,1179.632z M1122.973,1189.462
					c4.447-1.997,8.922-4.051,13.408-6.156c4.136-39.275,5.856-79.745,5.069-117.696c-13.649-10.2-27.919-19.785-42.68-28.673
					c-7.386,22.823-19.696,48.135-35.856,74.245c0.622,0.574,1.234,1.154,1.839,1.743c13.081,12.736,25.888,32.84,29.422,63.899
					C1104.025,1180.395,1113.634,1184.616,1122.973,1189.462z M1261.567,1082.176c2.364,3.814,4.637,7.701,6.807,11.644
					c2.072,3.763,4.027,7.543,5.865,11.33c15.131-10.355,29.928-21.518,44.356-33.461c-2.459-9.179-5.278-18.499-8.444-27.85
					c-7.289-21.526-15.932-41.991-25.626-60.914c-21.796-25.506-46.617-47.022-74.166-64.329
					c3.941,10.918,6.074,22.705,6.376,35.275c45.034,31.161,74.695,72.225,71.697,90.934
					C1287.233,1052.295,1274.644,1067.79,1261.567,1082.176z M1094.981,1201.42c6.418-2.598,12.89-5.319,19.403-8.158
					c-6.389-3.116-12.898-5.933-19.524-8.446C1095.167,1190.059,1095.22,1195.592,1094.981,1201.42z M1054.132,1216.556
					c10.983-3.676,22.151-7.744,33.482-12.196c0.47-7.737,0.429-15.143-0.125-22.197c-15.944-5.443-32.495-9.203-49.622-11.282
					C1043.975,1185.939,1049.408,1201.187,1054.132,1216.556z M801.499,1351.85c1.123-0.029,2.254-0.067,3.388-0.115
					c6.204-0.26,12.564-0.801,19.077-1.618c-0.555-10.412-0.831-20.822-0.827-31.202c-0.388,0.068-0.777,0.133-1.163,0.196
					c-13.23,2.156-26.137,1.692-38.454-1.315C788.045,1331.146,794.052,1342.525,801.499,1351.85z M1304.532,1008.663
					c4.503,10.623,8.682,21.597,12.492,32.848c2.851,8.421,5.424,16.788,7.711,25.031c3.211-2.728,6.402-5.493,9.577-8.299
					C1325.333,1040.574,1315.4,1024.033,1304.532,1008.663z M1191.432,1108.527c-0.016,2.337,0.005,4.635,0.065,6.892
					c0.218,8.248,0.948,16.036,2.184,23.344c4.914-4.426,9.664-8.776,14.223-13.019
					C1202.621,1119.902,1197.119,1114.153,1191.432,1108.527z M1043.486,1220.013c1.244-0.391,2.503-0.793,3.752-1.194
					c-5.046-16.431-10.916-32.733-17.564-48.801c-2.727-0.243-5.475-0.446-8.23-0.606c-7.44,9.238-15.255,18.423-23.402,27.484
					C1011.417,1205.211,1027.038,1212.67,1043.486,1220.013z M1290.564,978.826c0.703,0.826,1.403,1.657,2.099,2.491
					c17.838,21.366,33.611,45.395,47.241,71.927c4.623-4.182,9.205-8.446,13.746-12.794c-16.376-31.041-34.855-61.14-53.308-90.354
					c-81.376-128.833-225.407-170.423-428.093-123.612c-42.358,9.782-80.805,28.512-114.267,55.667
					c-21.924,17.792-41.864,39.308-59.548,64.221c14.295-7.123,28.802-12.41,43.359-15.776c7.147-5.525,14.607-10.896,22.384-16.115
					c62.272-41.779,142.689-70.721,220.631-79.402c57.947-6.454,110.549-1.308,150.595,14.138c0.134,0.007,0.268,0.014,0.402,0.022
					c27.685,1.506,54.536,12.468,79.808,32.583C1243.517,904.029,1269.484,937.913,1290.564,978.826z M983.234,1235.258
					c4.917-0.916,9.991-1.949,15.222-3.107c11.24-2.487,22.754-5.469,34.504-8.929c-14.367-6.574-27.966-13.347-39.882-20.861
					c-2.047,2.227-4.111,4.444-6.197,6.653c-5.142,5.448-10.287,10.721-15.435,15.822
					C975.709,1227.99,979.645,1231.47,983.234,1235.258z M1191.714,1098.672c7.48,7.185,14.657,14.566,21.486,22.11
					c15.515-14.633,28.741-27.976,39.296-39.365c-13.801-21.257-30.572-40.188-49.02-55.509
					C1196.701,1052.968,1192.765,1077.316,1191.714,1098.672z M733.256,1339.398c17.551,7.849,37.318,12.026,59.124,12.477
					c-7.292-10.232-13.078-22.413-17.367-36.593c-9.175-3.192-17.97-7.853-26.265-13.946
					C742.102,1313.278,736.922,1326.012,733.256,1339.398z M634.404,1388.922c-0.477,9.395,3.045,18.132,10.531,26.065
					c1.704,1.806,3.61,3.559,5.708,5.256C644.738,1409.804,639.324,1399.353,634.404,1388.922z M956.303,1239.334
					c5.786-0.659,11.846-1.5,18.166-2.539c-2.595-2.426-5.36-4.697-8.289-6.805C962.883,1233.181,959.594,1236.292,956.303,1239.334
					z M1034.692,1163.214c17.913,1.897,35.24,5.569,51.938,11.013c-0.12-0.86-0.248-1.713-0.385-2.562
					c-3.503-21.783-12.436-39.797-26.552-53.541c-0.236-0.23-0.475-0.459-0.713-0.686c-8.224,12.864-17.349,25.882-27.26,38.871
					C1032.726,1158.607,1033.716,1160.906,1034.692,1163.214z M863.238,1297.306c22.505-11.149,47.045-27.869,72.01-49.082
					c-38.393,1.661-69.622-4.671-90.761-18.814c-2.127-1.423-4.136-2.922-6.027-4.492c-0.975,5.559-1.862,11.151-2.665,16.788
					c-1.347,9.459-2.442,19.007-3.285,28.614C842.054,1279.384,852.311,1288.401,863.238,1297.306z M830.465,1309.906
					c8.075-2.079,16.619-5.161,25.522-9.169c-8.479-6.999-16.557-14.07-24.207-21.182
					C831.068,1289.621,830.63,1299.743,830.465,1309.906z M1205.469,1018.177c19.59,15.789,37.42,35.493,52.078,57.713
					c14.658-16.277,23.011-27.793,23.722-32.232c1.259-7.854-7.388-26.923-29.346-50.226c-7.359-7.809-19.254-19.237-35.267-30.799
					c-0.532,12.793-2.863,26.342-7.013,40.566C1208.162,1008.276,1206.771,1013.268,1205.469,1018.177z M636.944,1377.062
					c4.603,10.34,9.714,20.729,15.318,31.114c0.212-14.036,2.112-27.727,5.705-41.018c1.736-6.422,3.86-12.735,6.374-18.944
					c-0.969,0.2-1.921,0.439-2.852,0.72C650.264,1352.321,642.217,1361.532,636.944,1377.062z M781.013,1309.656
					c12.154,3.622,25.455,4.63,39.794,2.294c0.788-0.128,1.581-0.267,2.38-0.417c0.169-12.873,0.77-25.69,1.805-38.406
					c-9.541-9.207-18.357-18.461-26.407-27.704c-8.831,6.429-17.072,13.648-24.587,21.579c0.779,10.481,2.059,20.232,3.837,29.226
					C778.756,1300.884,779.815,1305.36,781.013,1309.656z M937.853,1216.232c2.933,7.132,5.851,14.482,8.754,22.053
					c4.443-3.998,8.886-8.128,13.332-12.393c-4.848-2.898-10.074-5.403-15.653-7.491
					C942.186,1217.615,940.041,1216.892,937.853,1216.232z M845.102,1220.938c1.098,0.837,2.239,1.651,3.42,2.442
					c13.202,8.833,40.628,20.493,91.275,17.408c-3.561-9.282-7.137-18.219-10.735-26.827c-18.983-4.115-40.456-3.902-62.006,0.75
					C859.602,1216.321,852.266,1218.407,845.102,1220.938z M676.979,1340.401c13.374,1.129,28.588,6.848,45.162,15.817
					c0.722-4.33,1.588-8.608,2.595-12.825c-8.219-4.132-15.955-9.07-23.195-14.811c-4.277-3.391-8.386-7.068-12.33-11.032
					c-4.773,6.902-8.976,13.961-12.604,21.171C676.729,1339.279,676.854,1339.841,676.979,1340.401z M934.309,1207.736
					c4.311,1.073,8.494,2.363,12.52,3.87c6.635,2.483,12.808,5.514,18.488,9.061c5.444-5.356,10.88-10.906,16.286-16.634
					c1.791-1.898,3.568-3.803,5.333-5.719c-11.091-7.651-20.402-16.104-27.075-25.879c-12.385,1.849-24.994,4.433-37.823,7.754
					C926.154,1188.949,930.247,1198.138,934.309,1207.736z M1148.663,1061.966c12.611,9.563,24.686,19.645,36.094,30.16
					c1.534-21.15,5.696-44.838,12.488-71.205c-10.688-8.241-21.872-15.272-33.314-20.857c-6.781-3.31-13.602-6.074-20.422-8.288
					C1146.308,1013.318,1148.026,1037.054,1148.663,1061.966z M611.427,1145.12c-3.017,6.859-5.889,13.897-8.619,21.119
					c-20.143,53.277-29.682,101.912-28.353,144.551c1.155,37.055,10.557,70.496,27.96,99.475
					c-2.85-27.444-1.428-54.639,4.319-80.431c0.731-3.281,1.529-6.522,2.392-9.721c-7.582-29.145-10.727-57.195-9.105-83.036
					C602.012,1205.333,605.843,1174.577,611.427,1145.12z M968.038,1171.318c6.112,7.964,14.266,15.048,23.84,21.571
					c7.057-7.838,13.888-15.81,20.452-23.852C997.928,1168.682,983.156,1169.442,968.038,1171.318z M693.512,1311.578
					c4,4.09,8.179,7.862,12.537,11.318c6.434,5.102,13.292,9.536,20.559,13.298c3.903-13.856,9.373-27.037,16.364-39.401
					c-0.711-0.597-1.418-1.206-2.121-1.826c-5.721-5.044-11.085-10.77-16.032-17.075
					C712.714,1288.655,702.269,1299.892,693.512,1311.578z M752.407,1295.083c6.279,4.693,13.038,8.62,20.251,11.606
					c-2.436-9.853-4.224-20.576-5.368-32.185C761.783,1281.032,756.818,1287.901,752.407,1295.083z M963.499,1164.588
					c18.687-2.527,36.87-3.4,54.517-2.62c1.781-2.246,3.546-4.504,5.283-6.757c-10.242-22.889-22.061-45.242-35.335-66.809
					c-6.009-0.559-12.181-0.805-18.449-0.745c-12.635,24.94-16.468,45.892-11.708,63.447
					C959.099,1155.867,961.023,1160.35,963.499,1164.588z M804.522,1241.28c6.583,7.517,13.694,15.051,21.305,22.567
					c0.765-7.767,1.694-15.496,2.786-23.164c0.668-4.691,1.394-9.354,2.18-13.992
					C821.645,1230.826,812.851,1235.711,804.522,1241.28z M840.306,1214.957c8.207-3.025,16.634-5.484,25.219-7.338
					c20.702-4.47,41.394-5.01,60.122-1.716c-3.553-8.265-7.122-16.201-10.707-23.808c-7.699,2.141-15.471,4.543-23.32,7.208
					c-17.635,5.985-34.286,12.274-49.937,18.855C841.209,1210.419,840.751,1212.684,840.306,1214.957z M997.136,1089.517
					c11.539,19.166,21.957,38.942,31.157,59.127c9.048-12.065,17.437-24.175,25.043-36.134
					C1038.65,1100.738,1019.48,1092.888,997.136,1089.517z M616.632,1320.177c4.142,15.548,9.573,31.418,16.24,47.433
					c6.102-13.547,14.994-22.147,26.524-25.622c2.671-0.805,5.457-1.331,8.343-1.594c0.404-0.871,0.819-1.744,1.239-2.611
					c-4.515-20.943-7.833-41.671-9.945-62.074c-3.491-6.616-6.741-13.616-9.749-20.998
					C634.624,1273.257,623.568,1295.373,616.632,1320.177z M730.305,1273.145c4.963,6.376,10.439,12.22,16.4,17.356
					c4.83-7.767,10.287-15.187,16.355-22.218c1.119-1.298,2.259-2.58,3.414-3.845c-0.357-5.553-0.579-11.29-0.665-17.219
					C752.788,1255.524,740.952,1264.167,730.305,1273.145z M668.197,1291.345c1.615,12.018,3.644,24.133,6.09,36.338
					c2.977-5.251,6.26-10.426,9.835-15.509C678.435,1305.863,673.125,1298.919,668.197,1291.345z M918.862,1173.519
					c12.516-3.285,24.837-5.887,36.95-7.804c-2.109-4.014-3.794-8.241-5.007-12.713c-5.002-18.444-1.558-39.95,10.528-65.096
					c-18.182,0.929-36.938,4.35-54.751,10.09c-9.086,2.928-17.609,6.327-25.464,10.11
					C893.9,1126.098,906.494,1147.92,918.862,1173.519z M992.255,1081.552c25.826,2.954,48.042,11.449,64.955,24.769
					c15.998-25.973,28.154-51.053,35.153-73.18c-17.627-10.274-35.91-19.547-54.584-27.652
					c-15.911,10.596-30.73,25.27-44.326,43.926c-4.116,5.648-7.893,11.135-11.328,16.46
					C985.587,1071.05,988.964,1076.278,992.255,1081.552z M1100.946,1029.79c13.873,8.288,27.332,17.191,40.263,26.63
					c-0.757-23.75-2.521-46.356-5.318-66.888c-9.945-2.631-19.852-4.084-29.603-4.341c1.183,12.825-0.561,27.702-5.274,44.36
					C1100.991,1029.631,1100.968,1029.709,1100.946,1029.79z M666.104,1273.558c6.609,12.32,14.083,23.208,22.399,32.627
					c9.001-11.845,19.665-23.22,31.981-34.115c-10.931-15.474-19.493-33.911-24.905-53.983c-0.516-1.915-1.005-3.852-1.461-5.797
					c-6.896,6.113-14.029,12.246-21.448,18.41c-3.067,2.549-6.034,5.211-8.904,7.988
					C664.14,1250.189,664.919,1261.815,666.104,1273.558z M773.089,1242.688c0.019,4.983,0.132,9.833,0.337,14.548
					c6.383-6.263,13.22-12.058,20.434-17.343c-1.752-2.091-3.463-4.177-5.134-6.264
					C783.335,1236.596,778.134,1239.62,773.089,1242.688z M843.57,1199.519c14.432-5.944,29.679-11.642,45.717-17.087
					c7.56-2.566,15.049-4.893,22.475-6.983c-12.208-25.173-24.597-46.542-37.131-64.053c-0.885,0.474-1.753,0.953-2.621,1.432
					C859.935,1140.41,850.44,1169.348,843.57,1199.519z M813.813,1227.116c5.785-3.214,11.742-6.128,17.842-8.724
					c-1.263-1.403-2.447-2.849-3.554-4.336c-11.57,5.189-22.562,10.557-32.955,16.091c1.507,1.864,3.043,3.725,4.617,5.594
					C804.316,1232.664,809.004,1229.787,813.813,1227.116z M1142.413,983.833c8.254,2.473,16.507,5.712,24.7,9.711
					c11.015,5.375,21.792,12.039,32.137,19.795c1.085-4,2.227-8.054,3.428-12.172c4.493-15.402,6.745-29.952,6.784-43.541
					c-12.08-8.099-26.163-16.017-42.108-22.548c-13.105-5.367-26.167-9.277-39.151-11.727c5.123,14.085,9.836,32.336,13.528,55.974
					C1141.965,980.817,1142.191,982.318,1142.413,983.833z M675.631,968.103c-12.891,8.695-25.501,18.958-37.688,30.714
					c-34.49,33.271-64.925,78.183-85.699,126.464c-19.258,44.757-18.961,107.384,0.836,176.347
					c5.505,19.179,12.436,38.456,20.562,57.399c-3.764-15.251-5.917-31.279-6.439-48.011c-1.358-43.596,8.338-93.169,28.819-147.342
					c6.456-17.077,13.711-33.178,21.733-48.251c12.363-52.099,30.477-99.523,53.828-140.389
					C672.915,972.7,674.265,970.391,675.631,968.103z M700.313,1206.745c0.674,3.19,1.431,6.344,2.27,9.454
					c4.897,18.161,12.808,35.885,23.423,51.11c11.846-9.952,25.106-19.494,39.77-28.616c0.075-11.097,0.595-22.816,1.56-35.172
					c-8.93-14.457-15.689-28.607-20.064-42.161C732.516,1176.508,717.101,1191.579,700.313,1206.745z M830.711,1204.974
					c1.547-0.676,3.095-1.345,4.662-2.015c6.297-29.004,14.97-56.906,25.976-83.597c-20.262,13.643-33.346,30.251-36.384,47.404
					C822.402,1181.245,824.383,1194.139,830.711,1204.974z M790.583,1224.377c10.574-5.671,21.749-11.162,33.518-16.469
					c-6.861-12.183-9.077-26.612-6.281-42.406c3.809-21.511,21.499-42.067,48.487-57.73c0.699-1.575,1.406-3.144,2.121-4.71
					c-11.489-14.828-23.097-26.433-34.792-34.769c-10.649,11.43-20.987,22.754-31.26,34.009c-5.43,5.948-10.818,11.85-16.207,17.719
					c-3.117,16.21-5.645,32.167-7.691,47.53c-1.587,11.917-2.824,23.362-3.711,34.329
					C779.455,1209.303,784.738,1216.817,790.583,1224.377z M773.938,1213.684c-0.42,7.06-0.685,13.907-0.794,20.532
					c3.608-2.144,7.29-4.259,11.059-6.355C780.565,1223.116,777.142,1218.388,773.938,1213.684z M1205.372,907.089
					c23.235,13.581,44.659,29.982,64.125,49.094c-17.478-28.366-37.39-51.962-58.401-68.685
					c-16.868-13.426-34.419-22.568-52.414-27.325c4.684,2.67,9.112,5.526,13.26,8.562
					C1186.714,879.546,1197.879,892.407,1205.372,907.089z M624.592,1118.018c-8.862,37.601-14.706,77.684-17.331,119.514
					c-1.355,21.586,0.726,44.798,6.035,68.934c7.684-22.437,18.802-42.509,32.959-59.541c-3.953-10.642-7.432-22.018-10.431-34.116
					c-8.933-36.044-10.909-70.918-5.955-104.3C628.075,1111.629,626.316,1114.8,624.592,1118.018z M1045.257,1000.855
					c16.806,7.491,33.26,15.901,49.217,25.13c3.416-12.524,5.894-27.132,4.521-40.763c-7.317,0.259-14.522,1.206-21.564,2.848
					C1066.302,990.665,1055.573,994.936,1045.257,1000.855z M973.375,1080.405c3.3,0.034,6.568,0.15,9.801,0.35
					c-1.734-2.723-3.493-5.433-5.274-8.129C976.305,1075.26,974.797,1077.851,973.375,1080.405z M1125.101,915.431
					c14.92,2.452,29.941,6.765,45.003,12.934c13.796,5.65,26.917,12.659,39.065,20.46c-0.936-13.248-4.106-25.498-9.479-36.642
					c-11.613-6.675-23.684-12.633-36.187-17.86c-24.081-10.066-49.773-17.346-76.47-21.758c5.125,2.784,9.945,5.791,14.374,8.99
					C1108.581,886.735,1117.171,896.631,1125.101,915.431z M654.563,1248.365c0.89,2.283,1.803,4.531,2.738,6.74
					c-0.198-3.085-0.369-6.166-0.51-9.233C656.042,1246.693,655.296,1247.527,654.563,1248.365z M753.01,1155.435
					c3.325,11.499,8.509,23.498,15.411,35.805c0.783-7.964,1.738-16.184,2.866-24.646c1.668-12.519,3.545-24.701,5.628-36.532
					C769.035,1138.572,761.109,1147.018,753.01,1155.435z M876.852,1102.139c8.474-4.167,17.675-7.878,27.505-11.047
					c19.749-6.364,40.637-9.97,60.733-10.598c2.504-4.704,5.296-9.533,8.375-14.485c-5.993-8.805-12.23-17.45-18.708-25.922
					c-7.486-9.79-15.093-18.932-22.807-27.412c-4.368,5.497-8.678,11.233-12.933,17.21
					C902.765,1052.716,888.697,1076.834,876.852,1102.139z M1105.259,977.91c9.731,0.163,19.602,1.452,29.508,3.852
					c-0.067-0.439-0.135-0.879-0.204-1.316c-3.662-23.44-8.561-43.051-14.539-58.445c-24.253-3.438-48.198-1.751-71.589,5.077
					c-0.368,0.107-0.732,0.215-1.1,0.325c16.58,4.161,30.488,10.856,40.932,19.887
					C1097.131,954.955,1102.812,965.267,1105.259,977.91z M640.485,1091.239c-8.102,34.969-8.767,74.843,2.382,119.825
					c2.586,10.434,5.535,20.313,8.838,29.618c1.542-1.681,3.114-3.328,4.72-4.942c-1.103-42.235,3.215-82.724,13.002-120.492
					c9.433-36.399,23.867-69.768,42.999-99.462c-13.627,9.582-26.395,20.57-38.235,32.917
					C662.002,1061.411,650.75,1075.618,640.485,1091.239z M936.568,1006.975c8.11,8.864,16.099,18.438,23.951,28.705
					c5.929,7.754,11.664,15.658,17.193,23.69c3.05-4.634,6.344-9.378,9.879-14.227c13.001-17.841,27.128-32.205,42.269-43.011
					c-11.959-4.95-24.068-9.419-36.263-13.366c-10.681-3.457-21.291-6.477-31.821-9.062
					C953.188,987.951,944.782,997.045,936.568,1006.975z M728.243,1005.522c-23.597,32.451-41.019,69.97-51.794,111.545
					c-9.11,35.154-13.397,72.735-12.903,111.919c1.472-1.315,2.969-2.604,4.487-3.866c8.466-7.035,16.562-14.032,24.358-21.01
					c-10.875-58.008,5.038-125.751,66.705-151.969c4.209-7.873,9.159-15.587,14.844-23.126c12.622-16.74,28.804-32.34,47.818-46.219
					c1.926-3.955,3.901-7.832,5.917-11.616c-20.162,2.813-39.548,7.641-57.963,14.485
					C755.226,991.049,741.382,997.682,728.243,1005.522z M1043.308,993.617c10.407-5.781,21.24-9.993,32.475-12.613
					c7.223-1.685,14.603-2.683,22.085-3.001c-2.077-9.619-6.483-18.425-14.348-25.226c-12.149-10.505-29.335-17.388-49.644-20.742
					c-22.871,8.915-44.846,22.88-65.776,41.777c9.19,2.359,18.435,5.042,27.73,8.051c13.891,4.496,27.668,9.659,41.25,15.432
					C1039.139,996.006,1041.216,994.78,1043.308,993.617z M751.818,1063.758c-48.118,26.731-61.262,83.914-53.065,134.604
					c16.466-15.024,31.623-29.972,46.193-45.022c-1.7-6.621-2.801-13.084-3.277-19.349c-1.884-24.851,2.251-48.747,12.32-71.406
					C753.259,1062.969,752.532,1063.361,751.818,1063.758z M838.624,1062.959c11.19,8.133,22.267,19.078,33.215,32.805
					c11.7-24.499,25.465-47.887,41.266-70.086c4.552-6.396,9.168-12.521,13.853-18.382c-5.368-5.671-10.785-11.022-16.249-16.053
					C883.776,1015.894,860.465,1039.671,838.624,1062.959z M764.309,1057.84c-12.235,23.843-17.409,49.172-15.405,75.602
					c0.338,4.46,1.013,9.031,2.012,13.692c9.64-10.08,19.06-20.216,28.473-30.455c4.38-22.607,9.549-43.881,15.491-63.775
					c-9.674-0.801-19.375,0.642-29.035,4.336C765.329,1057.438,764.819,1057.637,764.309,1057.84z M1084.37,864.794
					c28.631,4.426,56.177,12.07,81.931,22.836c9.009,3.766,17.799,7.904,26.359,12.406c-6.481-9.484-14.825-17.996-25.004-25.447
					c-9.712-7.109-21.033-13.183-33.706-18.177C1117.706,855.739,1101.128,858.549,1084.37,864.794z M802.255,1053.951
					c-5.225,17.324-9.617,34.903-13.302,52.291c2.682-2.934,5.368-5.876,8.065-8.83c10.026-10.983,20.114-22.033,30.489-33.182
					c-1.527-0.937-3.052-1.817-4.582-2.643C816.076,1057.89,809.178,1055.344,802.255,1053.951z M1033.115,924.556
					c4.397-1.659,8.825-3.14,13.287-4.443c23.033-6.723,46.557-8.673,70.359-5.861c-5.718-12.503-12.291-21.537-19.6-26.815
					c-8.326-6.012-18.121-11.32-28.758-15.68c-7.795,3.89-15.61,8.508-23.45,13.855c-18.468,12.599-35.583,24.904-51.556,36.961
					C1007.599,922.006,1020.923,922.687,1033.115,924.556z M804.413,1046.964c7.36,1.566,14.687,4.313,21.958,8.239
					c2.062,1.113,4.123,2.322,6.179,3.625c22.041-23.53,45.545-47.547,72.732-72.464c-7.508-6.586-15.094-12.566-22.757-17.937
					c-8.267-0.28-16.437-0.26-24.51,0.061c-10.767,5.855-20.915,12.209-30.355,18.99
					C818.562,1006.423,810.885,1026.491,804.413,1046.964z M916.096,986.344c5.205,4.813,10.368,9.909,15.483,15.283
					c7.13-8.575,14.408-16.542,21.825-23.89c-7.59-1.703-15.133-3.178-22.622-4.424
					C925.768,977.682,920.869,982.032,916.096,986.344z M937.876,967.184c7.212,1.308,14.472,2.824,21.769,4.545
					c19.102-17.851,39.105-31.693,59.9-41.438c-11.489-0.931-23.743-0.875-36.466,0.156
					C966.881,942.948,951.893,955.177,937.876,967.184z M769.614,1048.326c9.15-2.655,18.313-3.498,27.441-2.533
					c5.437-17.355,11.482-33.622,18.126-48.768c-13.786,11.242-25.719,23.455-35.447,36.357
					C776.034,1038.289,772.66,1043.272,769.614,1048.326z M895.728,969.124c5.02,3.854,10.002,7.963,14.95,12.326
					c3.514-3.179,7.089-6.371,10.731-9.581C912.77,970.646,904.202,969.731,895.728,969.124z M884.917,961.255
					c14.31,0.572,28.885,2.024,43.662,4.353c12.74-11.032,26.29-22.258,40.822-33.701c-29.097,3.837-60.064,12.509-89.715,25.848
					C881.433,958.891,883.175,960.057,884.917,961.255z M1070.145,862.87c14.931-6.893,29.783-11.218,44.47-12.948
					c-36.147-10.22-80.607-13.023-129.002-7.634c-76.82,8.556-156.055,37.064-217.392,78.216c-3.337,2.239-6.782,4.626-10.3,7.154
					c0.48-0.064,0.958-0.125,1.438-0.184c13.151-1.629,26.265-1.687,39.293-0.182c7.427-5.096,15.114-9.922,23.057-14.472
					c27.95-16.017,59.707-28.858,93.016-37.834c6.175-3.596,12.52-6.796,19.024-9.595c29.696-12.783,62.765-16.892,95.631-11.882
					c11.7,1.783,23.307,4.744,34.26,8.663C1065.812,862.386,1067.984,862.62,1070.145,862.87z M872.314,953.154
					c34.568-16.139,72.269-26.518,107.982-29.725c18.514-14.234,38.59-28.816,60.569-43.81c5.766-3.933,11.533-7.487,17.29-10.671
					c-24.132-2.08-48.888-1.903-73.851,0.589c-22.502,2.247-44.988,6.385-66.798,12.211c-25.537,15.024-46.68,36.259-64.171,61.313
					c1.954,0.912,3.904,1.86,5.85,2.846C863.582,948.135,867.958,950.549,872.314,953.154z M689.634,959.338
					c-4.051,6.242-7.969,12.674-11.752,19.295c-19.229,33.652-34.859,71.838-46.596,113.485c0.822-1.3,1.648-2.585,2.483-3.865
					c4.063-17.104,10.013-33.786,17.845-49.998c17.109-35.41,42.588-67.619,75.997-96.142
					C714.836,946.347,702.126,952.116,689.634,959.338z M836.608,970.07c-0.727,1.321-1.452,2.661-2.164,3.995
					c2.348-1.524,4.736-3.025,7.155-4.498C839.932,969.722,838.267,969.889,836.608,970.07z M856.037,961.309
					c2.43-1.305,4.885-2.582,7.375-3.836c0.34-0.172,0.683-0.344,1.024-0.514c-2.834-1.608-5.679-3.135-8.529-4.578
					c-2.228-1.128-4.462-2.206-6.701-3.234c-2.834,4.299-5.567,8.698-8.203,13.19C845.974,961.879,850.986,961.536,856.037,961.309z
					 M949.583,867.122c11.276-2.059,22.635-3.668,33.999-4.803c14.018-1.399,27.979-2.081,41.801-2.056
					C999.533,856.764,973.639,859.127,949.583,867.122z M745.099,937.286c-36.951,28.985-78.67,72.885-98.688,132.933
					c7.118-9.441,14.637-18.295,22.542-26.539c16.417-17.12,34.583-31.705,54.299-43.626c0.09-0.123,0.182-0.248,0.272-0.37
					c18.487-25.09,40.608-47.161,66.025-65.915c-9.734-0.608-19.51-0.307-29.3,0.905
					C755.203,935.299,750.15,936.171,745.099,937.286z M739.472,991.029c8.959-4.572,18.198-8.628,27.714-12.165
					c20.532-7.631,42.226-12.819,64.824-15.567c1.153-2.032,2.322-4.042,3.503-6.021c2.26-3.789,4.57-7.482,6.927-11.075
					c-13.826-5.696-27.829-9.488-41.94-11.363C777.44,950.955,757.014,969.758,739.472,991.029z M809.333,928.88
					c12.528,2.278,24.959,6.008,37.244,11.184c14.347-20.692,30.381-37.889,47.983-51.483
					c-24.639,8.114-48.054,18.401-69.246,30.534C819.864,922.238,814.536,925.493,809.333,928.88z"/>
			</g>
			<g>
				<path style="fill:#FFA089;" d="M2123.572,805.246c-64.171,26.992-191.138,41.028-295.467,37.702
					c-65.022-2.081-144.789,13.979-175.164,21.853c-23.865,6.212-116.263,40.444-136.922,33.483
					c-12.147-4.133-16.032-48.797-7.595-66.54c18.064-38.047,72.172-63.227,165.549-93.276
					c88.995-28.629,122.223-58.834,142.596-94.479c7.027-12.295,156.244,23.436,116.448-67.505
					c-19.988-45.676,97.357-150.011,123.92-133.279C2276.785,581.687,2123.572,805.246,2123.572,805.246z"/>
			</g>
		</g>
	</g>
	<path style="clip-path:url(#SVGID_00000085958729082748896610000010168795447927773066_);fill:#FF6760;" d="M2432.872,772.573
		c0,0-73.562-14.277-39.157-88.518c57.126-123.272-68.01-102.961-35.548-188.151c15.826-41.53,7.66-62.499-34.707-102.874
		c-31.497-30.016,19.478-62.138,50.228-60.845c30.75,1.293,84.582-36.216,84.582-36.216s217.05,77.029,224.659,225.936
		c7.609,148.907-69.125,293.659-69.125,293.659L2432.872,772.573z"/>
</g>
</svg>
