<?xml version="1.0" encoding="utf-8"?>
<!-- Generator: Adobe Illustrator 27.5.0, SVG Export Plug-In . SVG Version: 6.00 Build 0)  -->
<svg version="1.1" xmlns="http://www.w3.org/2000/svg" xmlns:xlink="http://www.w3.org/1999/xlink" x="0px" y="0px"
	 viewBox="0 0 700 450" style="enable-background:new 0 0 700 450;" xml:space="preserve">
<g id="Layer_2">
	<rect style="fill:#FFFFFF;" width="700" height="450"/>
</g>
<g id="Layer_1">
	<g>
		<path style="fill:#F9CCFF;" d="M53.554,308.267c32.962,79.109,115.485,130.456,309.386,114.772s272.324-62.723,285.352-102.414
			c99.321-302.587-69.268-147.878-74.779-158.171c-7.842-14.649,14.257-44.752,0-89.004c-6.845-21.245-64.436-29.676-124.508-29.676
			c-137.046,0-131.736,148.966-141.63,147.03c-39.884-7.805,39.498-187.615-101.347-171.932
			C-4.484,42.312,69.608,110.262,78.086,122.415c69.371,99.447,17.528,81.238-11.7,102.023
			C34.708,246.966,42.861,282.604,53.554,308.267z"/>
		<path style="opacity:0.23;fill:#E0A3E6;" d="M609.481,329.048c-24.159,48.047-84.642,79.232-226.758,69.707
			c-142.115-9.525-186.642-45.397-195.409-69.707c-13.585-37.668,30.968-40.206,35.006-46.457
			c5.747-8.897-30.304-18.421-19.854-45.298c5.017-12.903,30.205-30.421,60.073-33.773c27.001-3.031,62.436,92.878,69.499,91.077
			c13.585-3.464-8.385-113.418,93.006-128.776c153.199-23.206,121.486,102.363,128.008,109.518
			c6.792,7.451,25.602-9.828,47.023,2.796C623.293,291.817,617.318,313.461,609.481,329.048z"/>
		<path style="fill:#F9CCFF;" d="M595.062,40.188c23.663-17.663,57.264,4.02,62.827,19.007
			c5.564,14.987,12.926,52.788-11.295,51.242C622.372,108.892,564.587,62.936,595.062,40.188z"/>
		<path style="opacity:0.23;fill:#E0A3E6;" d="M600.398,40.345c16.569-12.368,40.097,2.815,43.993,13.309
			c3.896,10.494,9.051,36.963-7.909,35.881C619.521,88.453,579.059,56.274,600.398,40.345z"/>
	</g>
	<g>
		<path style="fill:#68122E;" d="M307.172,417.618c-0.733,2.834,1.786,7.402,5.66,6.975c12.565-1.384,46.816-0.356,52.302-3.41
			c5.554-3.093-3.941-5.223-17.102-6.492c-9.059-0.874-19.855-1.34-28.675-1.431C310.67,413.171,307.854,414.98,307.172,417.618z"/>
		<path style="fill:#EDB29F;" d="M296.008,350.22c0,0,13.243,48.387,21.603,62.89c34.735,2.881-3.445,7.023-9.034,4.507
			c-5.105-13.069-35.768-51.415-35.768-51.415L296.008,350.22z"/>
		<path style="opacity:0.47;fill:#68122E;" d="M296.818,353.127c0,0-0.023,11.378-3.495,16.687
			c-3.471,5.309-9.42,10.688-9.42,10.688l-11.094-14.301L296.818,353.127z"/>
		<path style="fill:#C01A5D;" d="M114.019,198.474c1.407-21.262,26.823-12.461,40.694-1.929
			c24.306,18.455,28.271,22.58,24.073,36.466c1.634,13.769,3.31,21.078,8.891,28.98c8.127,11.506,26.971,21.786,36.853,25.529
			c29.424,2.08,50.886,4.598,58.014,19.257c1.026,2.11,17.015,39.695,15.612,43.444c-4.839,12.926-25.195,27.147-35.617,27.49
			c-4.269-19.059-19.663-41.207-21.561-42.957c-13.464-12.416-81.902-11.16-81.902-11.16S109.721,263.407,114.019,198.474z"/>
		<path style="fill:#68122E;" d="M118.091,233.011c0,0,20.834,36.572,46.571,45.626c25.737,9.054,55.888,10.922,55.888,10.922
			s-56.602,18.965-75.475,2.645C124.94,274.792,118.091,233.011,118.091,233.011z"/>
		<path style="fill:#CF446F;" d="M153.33,228.069c0,0,7.199,31.64,8.665,33.922c1.495,2.329,8.87,7.611,15.365,11.03
			c22.845,12.027,38.079,5.211,38.079,5.211s8.728,0.099,5.595,8.675c-2.722,7.451-35.003,5.755-48.805,2.692
			c-9.024-2.002-23.694-3.753-28.576-9.39c-2.781-3.211-21.535-27.261-26.316-50.566
			C106.999,179.243,146.933,207.475,153.33,228.069z"/>
		<g>
			<path style="fill:#FFFFFF;" d="M73.059,163.788c0,0-20.707,4.108-27.751,12.671c-7.044,8.563,0,46.287,0,46.287
				s-22.49-15.412-13.777-41.822S73.059,163.788,73.059,163.788z"/>
			<path style="fill:#8BB7FF;" d="M69.309,224.828c0,0-29.814,12.252-33.898-22.871c-3.892-33.472,17.153-45.271,39.616-37.542
				c22.463,7.728,36.621,24.609,38.527,48.842c1.906,24.232,1.634,74.875,17.97,94.207c16.336,19.332,1.906,18.515,1.906,18.515
				s5.99-2.178,45.742-2.178c39.752,0,75.108,6.535,65.054,21.237c-10.054,14.703-16.861,12.797-35.648,13.886
				s-84.405,5.99-99.652,0c-15.247-5.99-7.351-14.703-5.173-28.044C105.93,317.538,109.742,266.35,69.309,224.828z"/>
			<path style="opacity:0.36;fill:#12274C;" d="M108.925,358.923c0,0,8.578,4.195,52.073,2.54
				c43.495-1.655,67.379-1.766,75.041-7.428c7.662-5.662,11.133-12.401-4.591-15.26c-15.724-2.859-105.166,4.517-116.601,9.61
				C103.411,353.478,103.6,357.63,108.925,358.923z"/>
			<path style="fill:#FFFFFF;" d="M102.587,368.038c0,0-4.5,15.374-3.105,22.656s-2.842,20.299-2.842,20.299
				s-3.66-13.821-3.542-23.237C93.212,378.584,102.587,368.038,102.587,368.038z"/>
			<path style="fill:#12274C;" d="M114.978,352.187c-10.393,8.32-19.62,25.692-18.218,43.829c1.314,16.99-2.471,26.173-2.471,26.173
				s-5.224-3.391-9.092,1.742c-4.233,5.617,12.26,7.569,16.872-1.651c2.005-4.008-0.41-15.166,9.219-30.023
				c9.629-14.857,39.435-30.389,39.435-30.389S124.593,344.49,114.978,352.187z"/>
			<path style="fill:#FFFFFF;" d="M244.461,366.202c0,0,4.5,15.374,3.105,22.656c-1.395,7.283,2.842,20.299,2.842,20.299
				s3.66-13.821,3.542-23.238C253.837,376.749,244.461,366.202,244.461,366.202z"/>
			<path style="fill:#12274C;" d="M232.07,350.352c10.392,8.32,19.62,25.692,18.218,43.829c-1.314,16.99,2.471,26.173,2.471,26.173
				s5.224-3.391,9.092,1.742c4.233,5.617-12.26,7.569-16.872-1.651c-2.005-4.008,0.41-15.166-9.219-30.023
				c-9.629-14.857-39.435-30.389-39.435-30.389S222.455,342.654,232.07,350.352z"/>
			<ellipse style="opacity:0.36;fill:#12274C;" cx="53.825" cy="196.545" rx="9.393" ry="12.457"/>
			<path style="opacity:0.2;fill:#12274C;" d="M136.817,325.366c0,0-12.985,7.692-17.069,8.508
				c-4.084,0.817,6.314,1.388,23.892-4.254c17.578-5.642,12.26-5.5,12.26-5.5L136.817,325.366z"/>
			<path style="opacity:0.2;fill:#12274C;" d="M69.188,225.11c0,0,8.44-3.812,15.792-13.069c7.351-9.257-7.896-25.322-7.896-25.322
				s8.353,11.708,3.54,23.143C75.81,221.298,69.188,225.11,69.188,225.11z"/>
		</g>
		<path style="fill:#EDB29F;" d="M129.315,117.77c11.716-0.048,22.838,12.183,24.978,30.453c2.075,17.714-3.93,29.009-9.676,29.315
			c-8.261,0.439-16.286-2.943-16.286-2.943s5.416,11.947,14.209,13.598c-2.288,6.022-27.162,1.024-27.162,1.024l0.861-30.156
			c0,0-3.707,3.928-7.166,2.342c-3.459-1.586-7.537-15.07-1.155-15.791c6.382-0.722,10.225,5.416,10.225,5.416
			S114.646,117.83,129.315,117.77z"/>
		<path style="fill:#12274C;" d="M121.186,152.12c0,0,2.04-17.231,9.145-22.092c7.105-4.86,12.21-6.83,12.21-6.83
			s-2.731-5.748-4.357-6.58c-11.734-6.012-23.727-6.31-32.007,0.71c-8.28,7.02-17.099,20.114-9.865,35.792
			s4.679,28.979,4.679,28.979s-17.522-12.542-22.906-4.351c-5.384,8.191,12.221,40.015,31.691,25.684
			c10.598-7.8,15.819-17.623,11.947-32.55c-1.076-4.147-5.483-11.821-5.483-11.821s-3.246,3.012-6.665,1.8
			c-4.514-1.601-7.735-16.668-0.052-15.287c5.245,0.943,8.622,5.454,8.622,5.454L121.186,152.12z"/>
		<path style="fill:#E88C80;" d="M152.858,144.412c0,0,2.035,7.976,5.504,10.134c3.469,2.158,1.12,3.058-0.54,4.044
			c-1.66,0.986-4.423,0.774-4.423,0.774L152.858,144.412z"/>
		<linearGradient id="SVGID_1_" gradientUnits="userSpaceOnUse" x1="117.3373" y1="133.7914" x2="140.7936" y2="133.7914">
			<stop  offset="0" style="stop-color:#8BB7FF"/>
			<stop  offset="1" style="stop-color:#4D68EE"/>
		</linearGradient>
		<path style="fill:url(#SVGID_1_);" d="M140.794,119.916c-4.25-0.611-12.328,1.078-18.697,15.725
			c-3.931,9.04-3.951,15.386-3.951,15.386s-3.094-11.047,2.828-22.176c5.922-11.129,12.933-12.665,17.211-12.233
			C139.185,116.941,139.489,117.77,140.794,119.916z"/>
		<path style="fill:#12274C;" d="M151.117,135.707c0,0,2.53,5.907,8.043,1.21c5.514-4.697,11.644-15.462,7.662-15.155
			c-3.982,0.306-12.499,8.295-12.499,8.295s-0.422-4.473-6.462-7.605c-14.347-7.437-18.22,3.844-18.22,3.844l-2.336,4.086
			C127.304,130.383,141.235,127.145,151.117,135.707z"/>
		<g>
			<path style="fill:#EDB29F;" d="M217.51,276.007c-3.299,3.868-5.294,4.038-3.242,9.186c2.052,5.148,8.188,5.256,13.402,3.017
				c5.214-2.238,7.808-3.674,10.131-5.222c0.815-0.543,1.798-2.883,0.863-2.82c-0.935,0.063-2.802,0.746-2.802,0.746
				s3.384-0.993,3.789-2.95c0.405-1.956-4.873,0.4-4.873,0.4s4.375-2.864,4.363-3.863c-0.012-0.998-3.785,0.272-5.407,1.408
				c-1.622,1.136,4.781-3.011,4.01-4.758c-0.771-1.748-7.996,3.89-10.321,5.213c-2.324,1.323-5.803,1.115-5.803,1.115
				s2.514-2.461,4.803-3.143c2.289-0.681,4.169-3.45,0.4-2.291C223.055,273.206,219.828,273.289,217.51,276.007z"/>
			
				<linearGradient id="SVGID_00000040561746438442124510000017435469150197927101_" gradientUnits="userSpaceOnUse" x1="214.3871" y1="295.2374" x2="217.1346" y2="295.2374" gradientTransform="matrix(0.295 0.6935 0.8551 -0.3637 -86.4096 236.5003)">
				<stop  offset="0" style="stop-color:#EFBF9E"/>
				<stop  offset="1" style="stop-color:#EF9DA4"/>
			</linearGradient>
			<path style="opacity:0.5;fill:url(#SVGID_00000040561746438442124510000017435469150197927101_);" d="M233.734,275.911
				c0,0-2.761,1.932-4.238,2.822c-1.477,0.891-4.278,1.82-4.278,1.82s3.493,0.031,4.868-0.888
				C231.46,278.745,233.734,275.911,233.734,275.911z"/>
			
				<linearGradient id="SVGID_00000047043317125436231160000006809256724668807351_" gradientUnits="userSpaceOnUse" x1="217.9267" y1="295.2372" x2="220.2286" y2="295.2372" gradientTransform="matrix(0.295 0.6935 0.8551 -0.3637 -86.4096 236.5003)">
				<stop  offset="0" style="stop-color:#EFBF9E"/>
				<stop  offset="1" style="stop-color:#EF9DA4"/>
			</linearGradient>
			<path style="opacity:0.5;fill:url(#SVGID_00000047043317125436231160000006809256724668807351_);" d="M234.385,278.533
				c0,0-3.527,1.89-4.181,2.503s-3.656,1.555-3.656,1.555s3.598-0.025,4.844-0.973C232.639,280.669,234.385,278.533,234.385,278.533
				z"/>
			
				<linearGradient id="SVGID_00000042730693993137435400000011127615135527542405_" gradientUnits="userSpaceOnUse" x1="221.6025" y1="295.7476" x2="223.6557" y2="295.7476" gradientTransform="matrix(0.295 0.6935 0.8551 -0.3637 -86.4096 236.5003)">
				<stop  offset="0" style="stop-color:#EFBF9E"/>
				<stop  offset="1" style="stop-color:#EF9DA4"/>
			</linearGradient>
			<path style="opacity:0.5;fill:url(#SVGID_00000042730693993137435400000011127615135527542405_);" d="M235.862,280.915
				c0,0-2.68,1.698-3.788,2.336c-1.108,0.638-3.921,1.78-3.921,1.78s2.293,0.251,4.393-1.144
				C234.647,282.491,235.862,280.915,235.862,280.915L235.862,280.915z"/>
		</g>
		<path style="opacity:0.47;fill:#68122E;" d="M179.013,232.178c0,0,0.522,6.51-7.646,10.186c-8.168,3.676-9.371-1.945-9.371-1.945
			S174.429,241.751,179.013,232.178z"/>
		<path style="fill:#12274C;" d="M150.046,144.657c0,0-4.032-7.338-6.025-5.67c-1.993,1.668-6.776,4.646-4.734,8.244
			c2.042,3.598,3.997,14.275,6.6,10.76c2.603-3.515,6.796-5.757,5.074-8.546c-1.723-2.789-5.144-9.478-6.392-8.417
			c-1.248,1.06-2.88,1.87-1.861,5.126c1.018,3.255-0.23,8.198,2.293,6.492c2.523-1.706,3.051-2.289,2.161-4.102
			c-0.891-1.813-2.379-6.422-2.37-4.412c0.009,2.011,0.327,4.558,0.327,4.558s0.041-2.938,0.496-2.19
			c0.455,0.747,1.589,2.486,1.427,3.226c-0.162,0.74-1.878,2.319-2.558,1.535s-1.571-4.048-1.47-5.043
			c0.101-0.995-0.213-3.963,1.236-4.067c1.448-0.104,3.768,3.318,4.302,3.93c0.535,0.612,2.272,4.934,1.795,6.06
			c-0.477,1.126-4.22,4.809-5.515,4.382c-1.295-0.427-3.827-5.065-4.169-6.93c-0.342-1.865-0.793-6.712,0.322-7.65
			c1.115-0.938,2.59-2.448,4.062-2.137C146.516,140.116,150.046,144.657,150.046,144.657z"/>
		<path style="fill:#12274C;" d="M144.136,168.456c0.371,0.73,1.759,0.77,3.099,0.089c1.341-0.681,2.127-1.826,1.755-2.556
			c-0.371-0.73-1.759-0.77-3.099-0.089C144.551,166.581,143.765,167.725,144.136,168.456z"/>
		<g>
			<path style="fill:#852735;" d="M256.938,361.475c-0.254,0-0.471-0.192-0.497-0.45c-0.027-0.274,0.173-0.52,0.448-0.547
				c28.85-2.886,37.659-22.344,37.745-22.54c0.11-0.253,0.405-0.369,0.658-0.259c0.253,0.11,0.369,0.404,0.259,0.657
				c-0.087,0.201-9.101,20.189-38.562,23.136C256.972,361.474,256.955,361.475,256.938,361.475z"/>
		</g>
		<g>
			<path style="fill:#C17A61;" d="M112.655,158.495c-0.12,0-0.235-0.012-0.344-0.032c-2.71-0.499-5.615-7.228-5.657-8.538
				c-0.018-0.564,0.345-0.7,0.457-0.728c0.657-0.165,5.119,0.254,7.163,2.628c0.772,0.898,1.489,2.456,0.516,4.779
				C114.158,158.112,113.331,158.495,112.655,158.495z M107.681,150.155c0.301,1.513,2.827,6.837,4.748,7.311
				c0.205,0.051,0.83,0.204,1.437-1.247c0.616-1.47,0.522-2.668-0.286-3.663C112.156,150.801,108.833,150.194,107.681,150.155z"/>
		</g>
		<g>
			<path style="fill:#852735;" d="M161.374,276.981c-0.118,0-0.236-0.041-0.331-0.125c-0.207-0.184-0.227-0.499-0.044-0.706
				c3.194-3.613,2.483-8.215,1.528-11.112c-0.074,0.401-0.194,0.825-0.376,1.263c-0.956,2.292-3.262,4.116-6.852,5.424
				c-0.259,0.094-0.546-0.039-0.641-0.299c-0.095-0.26,0.039-0.546,0.299-0.641c3.306-1.204,5.413-2.836,6.263-4.851
				c0.847-2.008,0.097-3.719,0.089-3.736c-0.109-0.242-0.01-0.528,0.226-0.65c0.235-0.122,0.526-0.038,0.66,0.191
				c0.051,0.087,5.062,8.84-0.448,15.073C161.65,276.925,161.512,276.981,161.374,276.981z"/>
		</g>
	</g>
	<g>
		<g>
			<path style="fill:#12274C;" d="M375.812,159.468l-20.499,47.129c0,0,6.878-11.759,8.779-16.001
				C365.994,186.355,375.812,159.468,375.812,159.468z"/>
			<path style="fill:#12274C;" d="M362.081,211.455c0.991,4.783-2.083,9.464-6.866,10.456c-4.783,0.991-9.464-2.083-10.456-6.866
				c-0.991-4.783,2.083-9.464,6.866-10.456C356.408,203.598,361.089,206.672,362.081,211.455z"/>
		</g>
		<g style="opacity:0.4;">
			<path style="fill:#12274C;" d="M375.47,159.539l-3.505,51.274c0,0,2.536-13.385,2.904-18.018
				C375.238,188.161,375.47,159.539,375.47,159.539z"/>
			<path style="fill:#12274C;" d="M379.97,213.12c2.538,4.173,1.212,9.615-2.961,12.153c-4.174,2.538-9.615,1.212-12.153-2.961
				c-2.538-4.174-1.212-9.614,2.961-12.153C371.991,207.621,377.432,208.947,379.97,213.12z"/>
		</g>
		<g style="opacity:0.2;">
			<path style="fill:#12274C;" d="M375.862,159.458l16.055,48.822c0,0-2.69-13.355-4.092-17.786
				C386.422,186.062,375.862,159.458,375.862,159.458z"/>
			<path style="fill:#12274C;" d="M400.202,207.403c3.923,2.911,4.743,8.451,1.832,12.373c-2.911,3.923-8.451,4.743-12.373,1.832
				c-3.923-2.911-4.743-8.451-1.832-12.373C390.74,205.312,396.279,204.492,400.202,207.403z"/>
		</g>
		<g>
			<g>
				<path style="fill:#EFBF9E;" d="M400.264,146.365c0,0-3.244-1.464-5.236-3.282c-8.036-7.337-9.184-5.561-13.359-5.505
					c-0.448,0.006-1.248,0.806-0.806,1.806c-3.042,0.233-2.413,2.323-1.739,2.754c-3.068,0.738-1.245,3.831-1.245,3.831
					s-2.312-0.221-5.512,0.86c-3.2,1.081-4.122,3.23-3.496,6.321c0.614,3.034,4.496,7.782,5.947,7.129
					c1.451-0.654-3.922-6.287-1.912-7.896c2.01-1.61,9.113-1.669,10.753,2.078c1.64,3.747,1.716,4.533-0.806,6.022
					c-2.675,1.579-6.722-1.433-6.698,0.64c0.024,2.072,5.522,4.807,9.107,4.118c4.045-0.778,7.517-1.839,9.261-4.846
					c1.745-3.007,6.481-3.436,6.481-3.436s3.058-0.487,2.751-3.072C403.448,151.298,400.264,146.365,400.264,146.365z"/>
				
					<linearGradient id="SVGID_00000041254567612476690710000008008310504642311092_" gradientUnits="userSpaceOnUse" x1="138.115" y1="-66.339" x2="142.8593" y2="-66.339" gradientTransform="matrix(-0.1869 -0.9824 0.9824 -0.1869 472.0662 271.4683)">
					<stop  offset="0" style="stop-color:#EFBF9E"/>
					<stop  offset="1" style="stop-color:#EF9DA4"/>
				</linearGradient>
				<path style="opacity:0.5;fill:url(#SVGID_00000041254567612476690710000008008310504642311092_);" d="M384.002,147.627
					c-1.505-1.379-6.124-1.66-6.124-1.66s-0.611-1.103-0.534-1.877C378.85,143.532,381.782,144.838,384.002,147.627z"/>
				
					<linearGradient id="SVGID_00000183246699176967484160000014946291582165241755_" gradientUnits="userSpaceOnUse" x1="91.6549" y1="5.0551" x2="93.8011" y2="5.0551" gradientTransform="matrix(0.1084 -0.9941 0.9941 0.1084 366.6873 233.6177)">
					<stop  offset="0" style="stop-color:#EFBF9E"/>
					<stop  offset="1" style="stop-color:#EF9DA4"/>
				</linearGradient>
				<path style="opacity:0.5;fill:url(#SVGID_00000183246699176967484160000014946291582165241755_);" d="M384.92,143.408
					c-2.866-1.309-5.796-1.272-5.796-1.272s-0.757-0.505-0.505-1.507C380.287,140.623,382.898,140.978,384.92,143.408z"/>
				
					<linearGradient id="SVGID_00000107574658201819142140000013646260424023740835_" gradientUnits="userSpaceOnUse" x1="94.2821" y1="6.0686" x2="96.6265" y2="6.0686" gradientTransform="matrix(0.1084 -0.9941 0.9941 0.1084 366.6873 233.6177)">
					<stop  offset="0" style="stop-color:#EFBF9E"/>
					<stop  offset="1" style="stop-color:#EF9DA4"/>
				</linearGradient>
				<path style="opacity:0.5;fill:url(#SVGID_00000107574658201819142140000013646260424023740835_);" d="M385.338,140.811
					c-2.866-1.309-4.475-1.429-4.475-1.429s-0.413-0.714,0.139-1.355C382.671,138.022,383.316,138.38,385.338,140.811z"/>
			</g>
			<path style="fill:#EC6B7B;" d="M400.415,146.229c6.986,2.982,48.12,26.173,53.43,24.806
				c22.598-5.815,56.002-10.403,61.468-10.899c5.466-0.496-38.681,41.781-38.681,41.781s-25.493,17.415-52.668-10.435
				c-20.482-20.991-30.505-31.259-30.505-31.259S397.421,144.951,400.415,146.229z"/>
			<g>
				<path style="fill:#FFFFFF;" d="M633.834,161.406c0,0,20.808,3.561,28.075,11.936c7.267,8.375,1.219,46.271,1.219,46.271
					s22.076-15.999,12.671-42.171C666.394,151.271,633.834,161.406,633.834,161.406z"/>
				<path style="fill:#8BB7FF;" d="M639.19,222.327c0,0,30.126,11.463,33.284-23.756c3.009-33.563-18.339-44.804-40.591-36.486
					s-35.96,25.565-37.227,49.839c-1.267,24.274,0.338,74.893-15.484,94.647c-15.822,19.755-1.418,18.558-1.418,18.558
					s-6.045-2.02-45.784-0.973c-39.738,1.047-74.91,8.51-64.472,22.943c10.438,14.433,17.192,12.349,36.001,12.943
					c18.809,0.594,84.533,3.766,99.618-2.624c15.084-6.389,6.962-14.891,4.433-28.171
					C605.022,315.968,599.864,264.898,639.19,222.327z"/>
				<path style="opacity:0.36;fill:#12274C;" d="M603.118,357.418c0,0-8.465,4.419-51.988,3.91
					c-43.523-0.509-67.402,0.009-75.21-5.45c-7.808-5.459-11.456-12.104,4.187-15.376c15.643-3.272,105.248,1.746,116.814,6.536
					C608.487,351.829,608.407,355.985,603.118,357.418z"/>
				<path style="fill:#FFFFFF;" d="M609.694,366.362c0,0,4.903,15.25,3.7,22.567s3.376,20.217,3.376,20.217
					s3.294-13.913,2.929-23.323C619.344,376.659,609.694,366.362,609.694,366.362z"/>
				<path style="fill:#12274C;" d="M596.89,350.844c10.608,8.044,20.29,25.166,19.365,43.334c-0.866,17.019,3.16,26.099,3.16,26.099
					s5.133-3.527,9.135,1.502c4.38,5.504-12.056,7.89-16.909-1.206c-2.109-3.953,0.011-15.171-10.006-29.77
					c-10.017-14.598-40.222-29.34-40.222-29.34S587.076,343.402,596.89,350.844z"/>
				<path style="fill:#FFFFFF;" d="M467.82,368.263c0,0-4.094,15.487-2.507,22.73c1.586,7.243-2.307,20.367-2.307,20.367
					s-4.022-13.72-4.153-23.136C458.726,379.053,467.82,368.263,467.82,368.263z"/>
				<path style="fill:#12274C;" d="M479.79,352.092c-10.17,8.591-18.937,26.199-17.057,44.293
					c1.761,16.949-1.781,26.229-1.781,26.229s-5.311-3.252-9.043,1.98c-4.084,5.726,12.455,7.244,16.822-2.094
					c1.898-4.059-0.809-15.15,8.425-30.255c9.235-15.105,38.622-31.417,38.622-31.417S489.199,344.144,479.79,352.092z"/>
				<path style="opacity:0.36;fill:#12274C;" d="M644.534,193.893c0.181,6.877,4.532,12.342,9.718,12.205s9.243-5.822,9.062-12.7
					c-0.181-6.877-4.532-12.341-9.718-12.205C648.41,181.33,644.353,187.015,644.534,193.893z"/>
				<path style="opacity:0.2;fill:#12274C;" d="M574.352,324.607c0,0,13.183,7.347,17.287,8.056
					c4.104,0.709-6.275,1.554-23.996-3.624c-17.72-5.177-12.401-5.176-12.401-5.176L574.352,324.607z"/>
				<path style="opacity:0.2;fill:#12274C;" d="M639.318,222.605c0,0-8.538-3.588-16.131-12.649
					c-7.593-9.061,7.227-25.521,7.227-25.521s-8.042,11.924-2.929,23.229C632.598,218.969,639.318,222.605,639.318,222.605z"/>
			</g>
		</g>
		<path style="fill:#12274C;" d="M426.503,387.627c0,0-55.808-7.441-66.395-8.412c-10.586-0.971,34.172-11.066,54.986-10.262
			C435.91,369.757,426.503,387.627,426.503,387.627z"/>
		<path style="fill:#7061A3;" d="M467.558,258.08c0,0-64.383,7.652-71.841,17.047c-7.458,9.395,12.123,97.501,12.123,97.501
			l15.332,2.777c0,0,9.612-46.64,5.998-54.07c3.727-2.378,44.506-5.069,47.3-5.928c2.794-0.858-6.203-57.212-6.203-57.212
			L467.558,258.08z"/>
		<g>
			<path style="fill:#12274C;" d="M367.855,434.027c0,0-31.767-37.785-38.051-44.67c-6.284-6.884,28.616,13.075,41.621,25.899
				C384.429,428.08,367.855,434.027,367.855,434.027z"/>
			<path style="fill:#7061A3;" d="M483.862,289.967c0,0-21.761,15.874-64.548,55.576c-24.774,22.988-39.291,56.217-45.687,63.462
				c-6.258-6.867-9.193,1.293-9.193,1.293s11.145,5.622,10.232,19.886c33.163-10.471,65.55-40.652,96.94-48.618
				c42.762-10.851,70.379-44.489,70.379-44.489L483.862,289.967z"/>
			<path style="opacity:0.47;fill:#12274C;" d="M373.627,409.005c0,0,4.927,7.514,4.639,11.82c2.552-1.529,2.098-5.841,1.363-9.469
				c-0.735-3.627-2.376-6.397-2.376-6.397L373.627,409.005z"/>
		</g>
		<path style="opacity:0.47;fill:#12274C;" d="M429.477,336.196l-23.966,24.269c0,0,11.335-18.246,14.771-22.442
			c3.436-4.196,9.196-5.467,9.196-5.467V336.196z"/>
		<path style="opacity:0.47;fill:#12274C;" d="M452.77,280.84c0.005-0.002,0.011-0.001,0.016-0.003
			c-8.55-13.021-11.601-23.353-7.933-33.821c3.113-1.574,10.928-3.99,10.928-3.99l24.628,40.781c0,0-0.524,7.686-12.299,16.282
			c0,0,0.001,0.002,0.001,0.002l-17.483,17.24C450.628,317.332,462.117,294.953,452.77,280.84z"/>
		<path style="fill:#FFFFFF;" d="M505.854,131.485c-3.508-9.899-3.763-15.916,1.933-16.295c5.697-0.379,37.589-6.329,40.83-3.463
			c3.24,2.866,12.237,21.076,8.156,23.768S507.503,136.137,505.854,131.485z"/>
		<path style="fill:#A53945;" d="M533.844,145.317c23.583,12.41,24.135,10.402,39.16,31.781
			c26.28,37.393,18.361,89.104,1.018,123.907c-13.754,27.601-37.034,41.954-37.034,41.954s-44.027-23.36-61.727-47.882
			c-20.452-28.334-19.138-34.878-16.946-40.586c-0.892-56.231,17.141-47.814,34.401-70.422
			C513.303,157.104,520.637,138.367,533.844,145.317z"/>
		<path style="fill:#852735;" d="M518.286,182.447c0,0-20.01,18.084-25.362,22.824c-5.069,4.489-18.44,13.535-17.898,33.874
			c0.542,20.338-8.988,38.643-8.988,38.643s11.44-24.568,10.232-34.379c-1.208-9.811,3.773-18.414,7.027-23.949
			C486.551,213.926,518.286,182.447,518.286,182.447z"/>
		<path style="fill:#852735;" d="M583.978,222.259c-1.118,7.933-2.126,17.54-15.423,37.562
			c-12.853,19.354-30.837,35.41-62.817,30.055c-19.974-3.344-26.937-14.337-36.371-22.559c0,0,11.885,22.721,27.424,31.323
			C559.716,333.471,586.189,235.966,583.978,222.259z"/>
		<path style="fill:#852735;" d="M475.494,246.419c-0.329,2.131,0.315,3.999,1.439,4.172c1.124,0.174,2.302-1.413,2.631-3.544
			c0.329-2.131-0.315-3.999-1.439-4.172C477.001,242.702,475.823,244.288,475.494,246.419z"/>
		<polygon style="fill:#FFFFFF;" points="420.887,208.849 474.522,211.547 477.997,274.9 438.416,274.33 		"/>
		<g>
			<path style="fill:#EFBF9E;" d="M483.424,252.221c2.415,6.874,5.031,8.006-0.495,14.266c-5.526,6.26-13.909,3.658-19.79-1.802
				c-5.881-5.46-8.636-8.626-10.964-11.827c-0.817-1.123-0.904-4.828,0.332-4.32c1.235,0.508,3.404,2.297,3.404,2.297
				s-4.062-2.903-3.57-5.813c0.492-2.91,6.399,2.744,6.399,2.744s-4.41-5.957-3.862-7.344c0.548-1.387,4.991,2.077,6.586,4.389
				c1.595,2.312-4.883-6.343-2.905-8.435c1.977-2.092,8.777,9.012,11.226,11.9c2.449,2.888,6.975,4.07,6.975,4.07
				s-0.481-5.61-0.345-7.455C479.518,246.893,482.18,248.679,483.424,252.221z"/>
			
				<linearGradient id="SVGID_00000019644029922477659850000001504687155798549382_" gradientUnits="userSpaceOnUse" x1="2158.9749" y1="2032.9719" x2="2161.7673" y2="2032.9719" gradientTransform="matrix(-0.7573 0.8216 -0.9354 -0.8622 4003.1179 228.4514)">
				<stop  offset="0" style="stop-color:#EFBF9E"/>
				<stop  offset="1" style="stop-color:#EF9DA4"/>
			</linearGradient>
			<path style="opacity:0.5;fill:url(#SVGID_00000019644029922477659850000001504687155798549382_);" d="M461.464,244.809
				c0,0,2.717,3.933,4.247,5.837c1.529,1.905,4.835,4.457,4.835,4.457s-4.756-1.523-6.131-3.422
				C463.039,249.783,461.464,244.809,461.464,244.809z"/>
			
				<linearGradient id="SVGID_00000033340685142416504470000004176836220355688626_" gradientUnits="userSpaceOnUse" x1="2162.5723" y1="2032.972" x2="2164.9116" y2="2032.972" gradientTransform="matrix(-0.7573 0.8216 -0.9354 -0.8622 4003.1179 228.4514)">
				<stop  offset="0" style="stop-color:#EFBF9E"/>
				<stop  offset="1" style="stop-color:#EF9DA4"/>
			</linearGradient>
			<path style="opacity:0.5;fill:url(#SVGID_00000033340685142416504470000004176836220355688626_);" d="M459.184,248.174
				c0,0,3.778,4.218,4.339,5.366c0.561,1.148,4.132,3.809,4.132,3.809s-4.868-1.649-6.054-3.53
				C460.415,251.937,459.184,248.174,459.184,248.174z"/>
			
				<linearGradient id="SVGID_00000150804202791629951130000000305141570129486210_" gradientUnits="userSpaceOnUse" x1="2166.3079" y1="2033.4995" x2="2168.3945" y2="2033.4995" gradientTransform="matrix(-0.7573 0.8216 -0.9354 -0.8622 4003.1179 228.4514)">
				<stop  offset="0" style="stop-color:#EFBF9E"/>
				<stop  offset="1" style="stop-color:#EF9DA4"/>
			</linearGradient>
			<path style="opacity:0.5;fill:url(#SVGID_00000150804202791629951130000000305141570129486210_);" d="M455.911,250.834
				c0,0,2.733,3.57,3.895,4.957c1.163,1.387,4.372,4.241,4.372,4.241s-3.245-0.679-5.351-3.567
				C456.72,253.578,455.911,250.834,455.911,250.834L455.911,250.834z"/>
		</g>
		<path style="fill:#852735;" d="M514.697,170.958c0,0-5.891,19.653,24.519,11.209c24.198-6.719,14.743-34.611,14.743-34.611
			L514.697,170.958z"/>
		<path style="fill:#EFBF9E;" d="M513.244,116.48c-5.182,5.512-10.525,24.04-5.305,40.947c5.165,16.726,14.544,19.582,23.617,16.589
			c9.114-3.007,13.938-7.666,17.213-12.73c3.274-5.064,2.362-12.044,2.362-12.044s5.663,4.016,9.887-3.015
			c4.224-7.03-2.574-9.233-3.62-9.509c-1.046-0.276-4.203,2.691-4.203,2.691s-1.414-16.878-4.347-21.445
			C544.873,111.776,525.403,103.547,513.244,116.48z"/>
		<path style="fill:#12274C;" d="M529.476,145.259l0.021-4.258c0.002-0.466,0.385-0.845,0.851-0.842l0.71,0.003
			c0.466,0.002,0.845,0.385,0.842,0.851l-0.021,4.258c-0.002,0.466-0.385,0.845-0.851,0.843l-0.71-0.004
			C529.852,146.107,529.473,145.725,529.476,145.259z"/>
		<path style="fill:#12274C;" d="M510.236,145.445l0.021-4.258c0.002-0.465,0.385-0.845,0.851-0.842l0.71,0.003
			c0.466,0.002,0.845,0.385,0.842,0.851l-0.021,4.258c-0.002,0.466-0.385,0.845-0.851,0.842l-0.71-0.003
			C510.613,146.294,510.234,145.911,510.236,145.445z"/>
		<path style="fill:#FFFFFF;" d="M518.126,147.25c-0.01,2.038-3.888,3.672-8.662,3.649c-4.774-0.023-8.636-1.694-8.626-3.732
			c0.01-2.038,3.888-3.672,8.662-3.649C514.274,143.541,518.136,145.212,518.126,147.25z"/>
		<path style="fill:#FFFFFF;" d="M541.718,147.365c-0.01,2.038-3.888,3.672-8.662,3.649c-4.774-0.023-8.636-1.694-8.626-3.732
			c0.01-2.038,3.888-3.672,8.662-3.649C537.866,143.655,541.728,145.327,541.718,147.365z"/>
		<path style="fill:#FFFFFF;" d="M553.195,139.41c-1.826,1.022-3.641,2.965-4.561-3.005c-0.92-5.971-9.55-15.911-5.882-17.249
			c3.667-1.338,5.544-2.175,4.393-3.141c-1.151-0.966,2.909-6.857,6.158,1.294c3.249,8.151,4.866,18.328,4.095,19.409
			C556.626,137.799,554.491,138.684,553.195,139.41z"/>
		<path style="fill:#EE9776;" d="M520.4,142.037c0,0-2.238,5.841-4.454,9.768c-2.636,4.671-2.112,7.018-0.066,6.778
			c2.018-0.237,5.192,1.187,6.016-0.252C523.659,155.251,520.4,142.037,520.4,142.037z"/>
		<polygon style="fill:#12274C;" points="432.79,205.736 434.699,213.882 460.978,214.998 459.902,205.272 		"/>
		<path style="fill:#12274C;" d="M524.57,148.43l-8.323-0.04c-0.466-0.002-0.845-0.385-0.842-0.851l0.003-0.71
			c0.002-0.466,0.385-0.845,0.851-0.842l8.323,0.04c0.466,0.002,0.845,0.385,0.842,0.851l-0.003,0.71
			C525.419,148.053,525.036,148.432,524.57,148.43z"/>
		<path style="opacity:0.5;fill:#12274C;" d="M531.887,143.659l-0.007,1.492c-0.003,0.531-0.439,0.964-0.971,0.961l-0.471-0.002
			c-0.531-0.003-0.964-0.439-0.961-0.971l0.006-1.193C530.233,143.803,531.039,143.705,531.887,143.659z"/>
		<path style="opacity:0.5;fill:#12274C;" d="M512.647,143.783l-0.008,1.555c-0.003,0.531-0.44,0.964-0.971,0.961l-0.471-0.002
			c-0.531-0.003-0.964-0.439-0.961-0.971l0.009-1.796C511.087,143.565,511.892,143.652,512.647,143.783z"/>
		<path style="opacity:0.47;fill:#12274C;" d="M434.092,320.184c0,0-0.294-3.512-3.363-7.656c-3.561-4.808-8.9-10.864-8.9-10.864
			s1.94,7.004,4.197,11.375c2.686,5.203,3.145,8.296,3.145,8.296L434.092,320.184z"/>
		<path style="fill:#852735;" d="M508.606,197.167c-1.461,1.585-1.968,3.495-1.132,4.266c0.836,0.771,2.699,0.11,4.16-1.475
			c1.461-1.585,1.968-3.495,1.132-4.266C511.93,194.921,510.068,195.582,508.606,197.167z"/>
		<path style="fill:#852735;" d="M517.959,187.826c-1.461,1.585-1.968,3.495-1.132,4.266c0.836,0.771,2.699,0.111,4.16-1.475
			c1.461-1.585,1.968-3.495,1.132-4.266C521.283,185.581,519.42,186.241,517.959,187.826z"/>
		<path style="fill:#852735;" d="M498.49,208.142c-1.461,1.585-1.968,3.495-1.132,4.266c0.836,0.771,2.699,0.111,4.16-1.475
			c1.461-1.585,1.968-3.495,1.132-4.266C501.814,205.897,499.951,206.557,498.49,208.142z"/>
		<path style="fill:#852735;" d="M488.728,219.54c-1.461,1.585-1.968,3.495-1.132,4.266c0.836,0.771,2.699,0.111,4.16-1.475
			c1.461-1.585,1.968-3.495,1.132-4.266S490.189,217.954,488.728,219.54z"/>
		<path style="fill:#852735;" d="M480.648,232.439c-0.913,1.953-0.818,3.927,0.213,4.409c1.03,0.482,2.606-0.712,3.519-2.665
			c0.913-1.953,0.818-3.927-0.213-4.409C483.136,229.292,481.561,230.485,480.648,232.439z"/>
		<path style="fill:#EC6B7B;" d="M538.308,217.312c0,0-6.13,37.016-10.54,40.008c-4.172,2.831-21.275,5.29-41.555,1.054
			c0.903,6.137-6.686,12.004-14.543,11.345c5.911,9.226,12.805,16.061,34.083,20.477c12.683,2.632,29.418,1.11,35.059-1.423
			c9.947-4.466,22.994-20.194,31.747-35.13c12.151-20.734,10.381-25.742,11.434-31.064
			C586.423,194.598,548.953,163.906,538.308,217.312z"/>
		<g>
			<path style="fill:#12274C;" d="M515.553,138.806c-0.149,0-0.298-0.067-0.396-0.195c-0.019-0.025-1.91-2.445-3.886-2.363
				c-0.894,0.044-1.703,0.63-2.402,1.745c-0.148,0.235-0.457,0.305-0.69,0.158c-0.234-0.146-0.305-0.455-0.158-0.689
				c0.885-1.41,1.963-2.154,3.205-2.213c2.522-0.102,4.634,2.635,4.724,2.752c0.168,0.219,0.127,0.532-0.092,0.701
				C515.767,138.772,515.659,138.806,515.553,138.806z"/>
		</g>
		<g>
			<path style="fill:#12274C;" d="M536.935,139.727c-0.124,0-0.249-0.046-0.346-0.139c-0.035-0.034-3.615-3.425-7.058-3.131
				c-1.39,0.118-2.586,0.84-3.557,2.147c-0.165,0.223-0.481,0.266-0.699,0.103c-0.222-0.165-0.269-0.478-0.104-0.7
				c1.149-1.547,2.589-2.404,4.277-2.547c3.89-0.329,7.673,3.252,7.832,3.405c0.199,0.191,0.206,0.507,0.016,0.707
				C537.198,139.675,537.067,139.727,536.935,139.727z"/>
		</g>
		<g>
			<path style="fill:#12274C;" d="M519.392,159.361c-0.003,0-0.006,0-0.009,0c-4.513-0.081-5.033-0.281-5.573-2.132l-0.032-0.112
				c-0.477-1.624,2.849-7.645,3.879-9.451c0.138-0.24,0.444-0.324,0.683-0.186c0.239,0.137,0.323,0.442,0.187,0.682
				c-2.057,3.604-4.035,7.835-3.789,8.675l0.033,0.113c0.353,1.208,0.39,1.335,4.631,1.412c0.276,0.005,0.496,0.233,0.491,0.509
				C519.887,159.143,519.664,159.361,519.392,159.361z"/>
		</g>
		<g>
			<path style="fill:#12274C;" d="M530.288,165.774c-0.068,0-0.127-0.01-0.164-0.016c-0.124-0.021-0.229-0.085-0.303-0.175
				c-1.026-0.388-5.12-1.63-8.991-2.111c-2.396-0.296-6.324,0.385-6.363,0.392c-0.268,0.049-0.531-0.133-0.579-0.405
				c-0.048-0.272,0.134-0.531,0.405-0.579c0.167-0.029,4.118-0.714,6.66-0.4c3.133,0.389,9.557,1.93,9.827,2.597l0.11,0.272
				l-0.185,0.234C530.58,165.739,530.417,165.774,530.288,165.774z"/>
		</g>
		<g>
			<path style="fill:#474789;" d="M374.519,425.992c-0.167,0-0.33-0.084-0.425-0.237c-0.146-0.234-0.073-0.543,0.162-0.688
				c0.692-0.43,69.5-42.991,84.716-50.114c15.137-7.086,59.742-42.385,60.191-42.74c0.216-0.172,0.53-0.137,0.702,0.081
				c0.172,0.217,0.136,0.531-0.081,0.702c-0.449,0.356-45.146,35.728-60.389,42.863c-15.163,7.098-83.921,49.629-84.614,50.058
				C374.7,425.968,374.608,425.992,374.519,425.992z"/>
		</g>
		<g>
			<path style="fill:#852735;" d="M482.54,281.965c-0.288,0.006-0.526-0.216-0.526-0.5c0-0.276,0.224-0.5,0.5-0.5l0,0
				c0.009,0,0.018,0,0.026,0c6.943,0,11.636-1.824,13.947-5.421c3.884-6.043-0.233-15.212-0.276-15.304
				c-0.114-0.251-0.004-0.548,0.247-0.662c0.248-0.116,0.547-0.006,0.662,0.246c0.182,0.395,4.388,9.752,0.211,16.257
				C494.824,279.985,489.847,281.965,482.54,281.965z"/>
		</g>
		<g>
			<path style="fill:#852735;" d="M404.895,171.074c-0.26,0-0.479-0.202-0.498-0.466c-1.153-16.869,5.703-19.62,5.995-19.729
				c0.26-0.096,0.548,0.036,0.644,0.294c0.096,0.258-0.034,0.545-0.291,0.642c-0.081,0.032-6.444,2.717-5.35,18.725
				c0.019,0.275-0.189,0.514-0.465,0.533C404.919,171.073,404.907,171.074,404.895,171.074z"/>
		</g>
		<path style="fill:#C17A61;" d="M553.66,147.785c-0.515,0-1.193-0.242-1.638-1.334c-0.477-1.171-0.337-2.289,0.402-3.23
			c1.614-2.054,5.704-2.739,6.284-2.655c0.231,0.034,0.47,0.225,0.48,0.572c0.028,0.929-2.913,6.131-5.166,6.608
			C553.918,147.769,553.795,147.785,553.66,147.785z M558.046,141.602c-1.197,0.185-3.871,0.917-4.891,2.311
			c-0.47,0.642-0.537,1.349-0.207,2.162c0.317,0.778,0.663,0.724,0.816,0.704C555.175,146.564,557.453,142.993,558.046,141.602z"/>
		<path style="fill:#852735;" d="M529.079,270.429c-0.142,0-0.282-0.06-0.381-0.177c-5.384-6.342-0.197-14.993-0.144-15.079
			c0.141-0.229,0.435-0.306,0.667-0.178c0.233,0.128,0.326,0.417,0.21,0.656c-0.008,0.016-0.793,1.712,0.014,3.736
			c0.81,2.031,2.883,3.705,6.164,4.976c0.258,0.1,0.386,0.389,0.285,0.646c-0.1,0.258-0.39,0.385-0.646,0.285
			c-3.563-1.379-5.831-3.25-6.741-5.56c-0.173-0.44-0.284-0.866-0.35-1.27c-1.014,2.878-1.817,7.464,1.304,11.141
			c0.179,0.21,0.153,0.525-0.058,0.704C529.309,270.39,529.193,270.429,529.079,270.429z"/>
	</g>
</g>
</svg>
