<?xml version="1.0" encoding="utf-8"?>
<!-- Generator: Adobe Illustrator 27.5.0, SVG Export Plug-In . SVG Version: 6.00 Build 0)  -->
<svg version="1.1" id="Layer_1" xmlns="http://www.w3.org/2000/svg" xmlns:xlink="http://www.w3.org/1999/xlink" x="0px" y="0px"
	 viewBox="0 0 450 450" style="enable-background:new 0 0 450 450;" xml:space="preserve">
<g>
	<g>
		<path style="fill:#FFC9B6;" d="M281.588,224.733c2.579,1.118,4.25,1.086,6.935,1.928c-0.268-1.178-0.087-2.266,0.602-3.469
			c0.231-0.403,0.904-0.336,1.012,0.132c0.682,2.956,1.374,5.098,2.79,7.705c1.067,1.115,3.552,4.572,6.287,7.173
			c2.379,2.261,5.022,5.451,5.022,5.451s-0.517,7.514-1.671,7.787c-1.154,0.273-2.202,0.085-3.794-1.229
			c-1.591-1.314-6.706-12.439-9.631-17.623c-2.863-1.986-3.123-0.994-6.528-1.773c-1.536-0.351-3.436-1.919-4.508-3.282
			C276.592,225.61,279.539,223.845,281.588,224.733z"/>
		<path style="fill:#F4D4C3;" d="M308.472,242.619c0,0-0.449-1.499-2.348-0.97c-0.908,0.253-2.542,0.559-3.839,1.775
			c-0.511,0.479-2.329,8.865-0.485,10.13c1.844,1.266,3.368,0.843,4.652,1.031c1.283,0.187,3.772-0.588,3.626-2.493
			C309.932,250.187,308.472,242.619,308.472,242.619z"/>
		<path style="fill:#FFE8DE;" d="M305.538,248.074c-0.108-2.273-0.05-3.207,0.719-5.291c3.704-2.499,6.403-5.2,10.008-6.897
			c2.456-1.156,5.532-4.335,8.337-1.821c2.992,2.681,3.686,9.36,1.39,12.927c-3.29,5.112-7.327,3.934-12.297,4.922
			c-1.735,0.345-4.002,1.185-5.982,1.626C306.21,252.01,305.651,250.443,305.538,248.074z"/>
		<path style="fill:#2B1822;" d="M311.866,343.525c0,0,0.2,1.678,0.725,3.433c0.525,1.754-0.12,4.201-0.12,4.201
			s-0.38,1.078-2.005,1.398c-1.514,0.298-2.739-0.066-2.739-0.066s-1.489,1.799-3.435,3.177c-1.946,1.377-6.239,2.447-7.407,2.269
			c-1.884-0.287-2.893-1.756-2.749-2.704c0.145-0.947,2.365-3.571,4.185-4.707c1.184-0.739,3.874-3.234,4.68-4.103
			c1.336-1.438,2.322-3.025,2.322-3.025L311.866,343.525z"/>
		<path style="fill:#2B1822;" d="M313.27,271.96c0,0-5.457,13.919-6.302,19.553c-0.845,5.634-3.385,10.547-4.403,17.645
			c-1.017,7.097-0.163,17.626,0.311,24.557c0.188,2.751-0.059,7.056-0.59,10.962c4.437,3.825,9.765,1.98,11.541,1.229
			c0.438-1.831,1.974-16.481,2.437-21.581c0.462-5.1-0.743-8.754-0.743-8.754s7.433-15.913,10.039-22.174
			c2.606-6.261,0.833-14.02,0.833-14.02L313.27,271.96z"/>
		<path style="fill:#2B1822;" d="M338.705,359.291c0,0,1.007,3.738,0.881,5.901c-0.126,2.164-0.642,2.679-1.296,3.409
			c-0.654,0.729-1.421,0.415-1.421,0.415s-0.301,4.461-2.416,6.264c-2.114,1.803-5.95,1.974-7.711,1.32
			c-1.761-0.654-0.603-3.849,1.121-6.981c1.724-3.132,3.922-6.501,4.471-9.332C336.551,359.706,338.705,359.291,338.705,359.291z"/>
		<path style="fill:#2B1822;" d="M332.82,277.727c0,0,2.672,3.778,4.802,10.426c1.497,4.673,1.254,15.882,1.254,15.882
			s0.384,11.036-0.328,14.853c-0.712,3.816-0.651,4.59-0.651,4.59s3.101,5.872,2.628,16.692c-0.473,10.82,0.625,20.08,0.625,20.08
			s-2.607,4.1-5.399,4.106c-6.136,0.013-7.38-3.288-7.38-3.288s-1.641-21.116-3.36-26.338c-1.719-5.221-2.353-11.24-2.353-11.24
			l-3.513-25.722c0,0-6.953-4.538-3.389-15.984C317.988,274.616,332.82,277.727,332.82,277.727z"/>
		<path style="fill:#2B1822;" d="M342.065,250.603c-0.541-2.745-0.92-4.694-3.029-6.592c-4.139-3.725-12.933-8.135-17.866-7.422
			c-3.567,2.841-6.215,4.999-7.501,8.403c-1.165,3.081-2.112,5.466-2.112,10.494c0,9.735-1.651,20.669-2.485,24.355
			c0.669,1.263,2.799,3.605,3.732,4.547c0.967-0.593,1.746-1.882,2.953-2.606c1.134,2.814,2.265,5.24,3.255,5.389
			c6.585,0.994,18.179-0.784,19.01-2.783c-0.497-6.457,0.671-15.02,3.379-22.326C342.848,258.158,342.911,254.898,342.065,250.603z"
			/>
		<path style="fill:#FFB9A4;" d="M322.741,233.519c0,0,0.712,4.715-1.015,6.347c-1.727,1.632-1.74,4.988,1.719,6.115
			c4.194,1.367,7.153-1.656,9.766-3.738c-1.129-2.392-1.681-2.378-1.681-9.092C331.53,227.689,322.741,233.519,322.741,233.519z"/>
		<path style="fill:#FFE8DE;" d="M327.356,246.818c-2.803,2.41-5.413,9.075-7.306,11.682c-1.893,2.606-3.644,3.561-4.36,0.628
			c-0.916-3.749,0.358-12.817,3.084-16.344c1.185,0.779,2.089,2.587,3.691,3.091C324.729,246.585,326.885,245.366,327.356,246.818z"
			/>
		<path style="fill:#FF5E4C;" d="M320.587,249.773c0,0-0.341,4.624-0.512,7.903c-0.009,0.166-0.017,0.451-0.025,0.824
			c-1.029,1.504-2.143,2.951-3.277,4.4c-0.399-1.238-0.768-2.499-1.084-3.772c0.068-0.337,0.13-0.646,0.186-0.917
			c0.91-4.388,1.579-6.446,2.153-8.967c-0.574-2.33,0.655-4.977,0.655-4.977c1.163-0.844,4.954,0.575,4.761,1.714
			C323.039,248.378,320.587,249.773,320.587,249.773z"/>
		<path style="fill:#F4D4C3;" d="M331.681,237.624c0,0-0.809,2.85-2.977,4.482c-2.615,1.969-7.534,2.291-7.534,3.635
			c1.428,0,1.706,0.083,1.706,1.113c0,1.931,0.569,2.374,0.569,2.374s3.55-1.011,6.108-2.077c3.205-1.335,4.662-5.768,4.662-5.768
			S333.587,237.445,331.681,237.624z"/>
		<polygon style="fill:#FFE8DE;" points="325.941,273.468 334.677,279.103 333.211,280.757 324.553,275.309 		"/>
		<path style="fill:#F4D4C3;" d="M321.17,237.771c0,0-2.077,2.258-2.968,3.296c-0.89,1.039-0.371,2.953-0.816,3.814
			c-0.445,0.86-0.643,1.443-0.643,1.443s1.855-0.374,2.213-1.443c0.359-1.069,2.214,0.86,2.214,0.86l1.31-1.077
			c0,0-1.978-1.265-1.31-2.616c0.667-1.351,1.78-3.132,1.78-3.132L321.17,237.771z"/>
		<g>
			<path style="fill:#FFC9B6;" d="M330.335,221.895c-2.599-2.875-9.448-4.056-11.903,0.156c-1.848,3.17-1.924,8.813-1.423,11.406
				c1.053,5.444,5.521,8.686,10.67,4.502C332.588,233.969,334.816,226.853,330.335,221.895z"/>
			<path style="fill:#2B1822;" d="M317.418,219.885c2.153-2.501,2.612-3.266,5.532-4.019c3.378-0.871,11.718,1.769,10.261,7.313
				c3.855,1.831,2.665,6.109,1.662,7.851c-1.02,1.77-3.313,5.273-3.313,5.273s-2.168-2.63-2.858-9.623
				c-1.632,1.392-5.752,2.07-8.115-1.048c-3.496,0.446-6.824-1.293-6.853-2.293C313.734,223.339,315.567,222.035,317.418,219.885z"
				/>
			<path style="fill:#FFC9B6;" d="M327.653,230.192c0,0,1.502-2.275,2.837-0.544c1.335,1.731-1.403,3.412-1.403,3.412
				L327.653,230.192z"/>
		</g>
		<path style="fill:#FFE8DE;" d="M339.794,272.951c-3.865-3.897-6.425-13.079-7.036-15.766c-0.98-4.306-0.488-8.188,1.919-11.256
			c2.48-3.161,3.436-4.393,7.496-1.169c4.76,3.781,4.982,6.788,6.273,12.732c0.392,1.804,0.984,6.397,1.956,11.996
			c0,2.783-3.547,4.137-6.508,5.305C342.103,275.501,341.564,274.734,339.794,272.951z"/>
		<path style="fill:#FFC9B6;" d="M318.029,235.605c0,0,1.174-0.46,1.818-1.787c0.4,1.344,2.617,2.484,2.617,2.484
			s-1.472,1.567-2.617,0.933C318.701,236.601,318.029,235.605,318.029,235.605z"/>
		<path style="fill:#FFC9B6;" d="M342.439,264.105c0,0,1.126-1.802,3.136-4.269c2.01-2.467,6.59-7.441,7.751-9.335
			c1.722-2.809,4.756-4.217,5.577-5.646c0.82-1.428,1.148,0.454,0.984,1.317c-0.164,0.863-1.312,2.352-0.328,2.503
			c0.984,0.151,5.331,1.914,7.463-0.246c2.132-2.16,3.137,0.188,1.825,3.428c-1.312,3.24-7.237,2.346-8.713,2.313
			s-3.356-0.528-3.933,0.925c-0.577,1.453-3.048,9.417-4.492,11.499c-1.444,2.081-1.662,5.208-4.778,4.388
			C343.813,270.162,340.905,266.311,342.439,264.105z"/>
		<path style="fill:#F4D4C3;" d="M348.898,273.468c-0.31,0.103-2.116,1.326-5.656-0.81c-3.54-2.136-4.3-4.173-4.672-5.874
			c-0.372-1.701,0.863-3.971,1.672-4.754c0.808-0.782,4.146-1.098,4.146-1.098s-1.327,2.358-1.772,3.651
			c0.224,1.059,3.003,4.02,6.201,4.02c2.12,0,2.892-2.009,2.892-2.009s0.471,0.123,0.881,2.091
			C352.909,270.224,351.604,272.566,348.898,273.468z"/>
	</g>
	<g>
		<g>
			<g>
				<path style="fill:#FFB8A3;" d="M172.779,284.62c0,0-44-61.312-59.622-81.302c1.032-0.031,2.077-0.037,3.151,0.012
					c7.014-0.569,32.312-12.722,32.312-12.722s21.947,0.068,41.318-5.699c26.565-7.908,39.461-17.6,48.525-24.679
					c3.532-2.758,11.26-13.944,11.26-13.944l4.549-16.333c0,0,4.514,32.852-3.39,57.686c-1.199,3.768-7.86,16.121-11.582,19.801
					c-2.975,5.709-4.482,15.246-4.837,25.33c5.551,3.96,10.607,9.185,15.333,13.9c3.466,3.459,6.809,7.041,10.042,10.719
					c0.241,0.061-11.969,3.861-34.844,29.126c-9.248,10.214-25.757,24.594-39.721,34.257
					c-17.022,11.778-29.019,12.275-37.948,12.277c-24.276,0.007-35.716-10.882-44.236-33.484c-0.74-1.963-1.507-4.249-2.251-6.793
					C131.774,306.017,172.779,284.62,172.779,284.62z"/>
				<path style="fill:#FFB8A3;" d="M111.416,203.392c0.572-0.04,1.157-0.056,1.741-0.073c15.622,19.989,59.622,81.302,59.622,81.302
					s-41.005,21.396-71.94,8.151C95.142,273.283,90.856,237.863,111.416,203.392z"/>
				<path style="opacity:0.3;fill:#F6987C;" d="M111.416,203.392c0.572-0.04,1.157-0.056,1.741-0.073
					c15.622,19.989,59.622,81.302,59.622,81.302s-41.005,21.396-71.94,8.151C95.142,273.283,90.856,237.863,111.416,203.392z"/>
			</g>
			<path style="fill:#F48B76;" d="M216.984,231.793c0,0,0.829,3.378-7.801,19.147c-5.158,9.424-15.69,20.82-25.048,26.968
				c-11.474,7.537-24.527,14.393-38.709,13.105c-7.006-0.636-15.075-6.891-19.158-12.996c-7.485-11.194-6.801-20.873-6.538-27.294
				c0.857-20.961,13.104-32.321,13.104-32.321L216.984,231.793z"/>
			<path style="fill:#FFB8A3;" d="M106.149,164.778c-0.164,12.491-1.868,25.92,5.274,49.991c1.252,4.219,3.242,9.62,6.116,17.495
				c0,3.867-1.641,9.131,0,13.726c0.589,1.65,3.357,2.335,7.15,2.789c0.669,1.692,1.277,5.932,1.622,6.971
				c-2.006,2.006-1.622,6.327,3.569,9.93c3.412,7.757,1.401,15.134,15.544,16.376c9.578,0.841,25.019-6.492,37.214-14.57
				c15.633-10.356,29.658-22.874,35.153-38.228c9.601-26.828,19.159-68.16,19.159-68.16l-131.839-23.092
				C105.113,138.006,106.24,157.886,106.149,164.778z"/>
			<path style="opacity:0.3;fill:#F6987C;" d="M175.54,212.675c0,0-5.525,5.726-15.657,5.726c-7.785,0-15.422-3.08-20.435-5.321
				c-3.303,7.028,0,17.564,2.104,25.939c1.689,5.25-2.18,7.771-10.249,7.651c-6.613,4.958-10.182,1.711-10.182,1.711
				s3.737-1.716,4.639-6.88c0.775-4.439-1.224-9.159,0-17.48c1.25-8.499,1.097-12.53,3.779-13.692
				c8.929-3.867,24.435-8.696,32.018-4.519C169.14,209.987,175.54,212.675,175.54,212.675z"/>
			<path style="fill:#F48B76;" d="M221.68,221.227c3.874-0.67,6.35-6.096,3.017-8.405c0.462-4.086,2.385-11.259,5.695-14.061
				c1.554-1.315,3.835-3.06,4.621,1.229c0.074,0.401-0.986,1.334-1.016,1.275c-2.24-4.45-6.3,4.442-6.634,5.511
				c-0.5,1.603-0.72,3.166-0.813,4.784c4.685,1.041,2.962,6.871,1.273,9.838c-1.508,2.649-5.722,5.696-7.056,1.152
				C220.595,221.964,221.124,221.323,221.68,221.227z"/>
			<path style="fill:#F48B76;" d="M175.54,212.675c0,0-6.584-3.492-16.572-5.516c-7.366-1.492-16.395-0.324-16.395-0.324
				s6.471-4.209,15.475-3.402C167.053,204.24,175.54,212.675,175.54,212.675z"/>
			<path style="fill:#F48B76;" d="M106.018,184.831c0,0,9.101,6.028,12.67,10.895c3.569,4.867,4.372,12.276,4.372,12.276
				s-4.39-7.382-8.761-11.938c-1.941-2.023-4.394-4.428-7.969-6.827C105.989,187.058,106.018,184.831,106.018,184.831z"/>
			<path style="fill:#F48B76;" d="M154.269,266.771c0,0-4.303-1.667-8.843-1.091c-5.786,0.735-10.206,1.513-12.462,0.94
				c-4.427-1.125-7.135-5.37-7.135-5.37s-1.008,6.733,4.702,8.699c3.036,1.046,5.887,0.652,10.714-0.802
				C145.416,267.891,150.276,266.65,154.269,266.771z"/>
			<path style="fill:#F48B76;" d="M131.016,256.737c2.5-0.248,4.943-0.286,8.35,1.174c3.407,1.46,6.06,2.852,6.06,2.852
				s-3.628-1.123-8.152-1.349c-2.589-0.13-5.162,0.608-5.162,0.608l-7.421-4.433C124.69,255.589,125.054,253.614,131.016,256.737z"
				/>
			<g>
				<path style="fill:#F48B76;" d="M170.015,328.936c10.526-7.419,42.736-39.535,49.302-47.508
					c19.267-23.395,35.589-28.411,38.368-26.455c1.352,0.952,4.381,5.635,4.651,9.383c0.798,11.075-8.687,17.943-16.79,23.768
					C220.011,306.481,193.409,320.598,170.015,328.936z"/>
			</g>
			<path style="fill:#F48B76;" d="M227.139,192.653c3.981-1.434,9.226-2.655,10.7-0.665c2.596,3.506,2.783,10.472-1.614,17.609
				c-2.028,3.292-2.852,5.383-3.392,10.194c-0.823,7.325-3.691,10.756-6.559,12.568c-4.906,3.1-9.29-0.566-9.29-0.566l-0.599,4.134
				c0,0,11.689,7.248,17.031-7.928c1.865-5.3,2.087-8.005,3.482-11.725c1.999-5.332,3.373-8.466,4.923-13.93
				c1.353-4.77,1.874-8.874-0.099-11.846C236.739,182.989,227.139,192.653,227.139,192.653z"/>
			<g>
				<path style="fill:#2B1822;" d="M282.701,198.135c0.349-10.468-8.087-19.95-17.477-23.966
					c3.781-11.904,5.722-27.231,5.805-30.716c0.207-8.79-0.845-18.692-5.633-26.514c-0.393-0.642-0.762-1.298-1.207-1.91
					c-8.138-11.175-23.171-12.788-27.236-13.908c0-12.643-1.934-24.654-18.106-31.64c-1.804-0.779-3.593-1.456-5.374-2.08
					c-34.704-12.171-64.714,4.116-79.016,13.383c-13.335,8.641-25.59,23.878-28.963,39.047
					c-9.049,2.121-18.253,11.198-22.102,18.993c-0.788,1.597-1.383,3.225-1.836,4.864c-1.035,3.746-1.241,7.551-0.698,11.187
					c1.394,9.327,7.643,17.525,17.074,20.638c9.829,3.245,27.829,0.86,37.127-12.063c2.699,8.088,8.111,17.768,15.564,24.164
					c14.354,12.318,35.14,16.368,53.1,10.651c-0.643,9.738,1.886,14.316,10.881,18.918c1.29,0.66,2.733,1.012,2.94-0.384
					c1.129-7.579,2.328-10.939,5.133-17.804c1.555-3.807,7.658-11.07,11.622-9.65c3.721-1.31,6.003,0.426,6.566,5.086
					c0.956,7.911-2.674,13.195-3.912,18.649c-0.777,3.421-4.091,16.375-9.02,20.256c-0.049,0.279-0.074,0.476-0.056,0.539
					c4.39,15.608,23.742,14.803,34.508,5.144c8.547-7.668,9.132-17.258,6.508-23.251
					C276.537,214.445,282.449,205.699,282.701,198.135z"/>
				<path style="fill:#4C3231;" d="M105.493,119.832c3.374-15.169,15.628-30.406,28.963-39.047
					c14.302-9.267,44.311-25.555,79.016-13.383c2.077,3.771,3.134,8.474,3.213,11.691c0.279,11.337-4.131,23.141-10.361,32.462
					c-11.587,17.338-33.136,29.361-54.295,27.427c14.49-6.621,16.685-13.943,18.336-15.841c-6.236,4.255-14.68,6.344-21.565,7.115
					c-6.038,0.676-17.362,1.432-22.694-3.317c-3.131,14.208-23.933,20.916-37.414,18.917c-2.744-0.407-5.099-1.159-7.137-2.166
					c0.453-1.638,1.048-3.267,1.836-4.863C87.24,131.03,96.445,121.953,105.493,119.832z"/>
				<path style="fill:#2B1822;" d="M126.107,126.938c5.332,4.75,16.656,3.993,22.694,3.317c6.885-0.771,15.33-2.86,21.565-7.115
					c-1.651,1.898-3.846,9.22-18.336,15.841c21.158,1.934,42.707-10.089,54.295-27.427c6.229-9.321,10.639-21.124,10.361-32.462
					c-0.079-3.217-1.136-7.92-3.213-11.691c1.781,0.624,3.57,1.301,5.374,2.08c16.172,6.986,18.106,18.997,18.106,31.64
					c4.065,1.119,19.098,2.732,27.236,13.907c0.445,0.612,0.814,1.268,1.207,1.91c-0.037-0.03-0.068-0.064-0.106-0.094
					c-2.921-2.332-6.078-3.829-9.678-4.867c-7.445-2.147-15.004-3.427-22.638-1.641c-0.709-6.739-3.339-12.699-6.398-16.895
					c-1.58,14.213-4.713,20.388-9.568,27.405c-6.664,9.631-17.072,19.273-26.639,26.128c-15.157,10.86-40.396,16.757-56.051,3.7
					c-7.574,9.656-21.741,14.338-33.426,12.964c-7.841-0.923-14.441-4.156-20.033-8.765c-0.543-3.636-0.337-7.441,0.698-11.187
					c2.039,1.007,4.394,1.759,7.137,2.166C102.173,147.854,122.976,141.146,126.107,126.938z"/>
			</g>
			<path style="fill:#4C3231;" d="M229.704,116.821c-0.06,12.505-5.198,25.971-12.576,33.476
				c-6.995,7.116-23.609,14.462-33.856,11.914C216.199,148.205,225.814,124.22,229.704,116.821z"/>
			<path style="fill:#F48B76;" d="M116.907,234.484c1.537-6.317,3.395-12.471,4.443-18.905c0.011-0.066,0.118-0.05,0.117,0.016
				c-0.123,4.718-0.412,9.43-1.337,14.07c-1.088,5.453-3.707,11.612-2.686,16.402C115.699,243.015,115.883,238.69,116.907,234.484z"
				/>
			<path style="fill:#F48B76;" d="M119.587,247.709c5.764,1.717,9.666-0.575,13.307-1.529c1.376-0.361,2.807-0.266,4.18-0.6
				c4.825-1.173,4.793-5.568,3.475-9.827c3.205,2.984,3.422,8.597-0.929,10.734c-1.14,0.56-2.371,0.625-3.602,0.783
				c-2.602,0.335-4.419,1.303-6.858,2.194C123.454,251.549,120.414,249.124,119.587,247.709z"/>
			<path style="fill:#5E4040;" d="M184.318,100.359c6.731-6.429,15.091-23.839,15.07-23.791c0.43,7.713-7.9,25.355-15.495,31.964
				c-9.611,8.364-22.72,8.865-22.771,8.832C169.808,110.777,175.686,108.603,184.318,100.359z"/>
			<path style="fill:#5E4040;" d="M159.092,93.442c8.336-2.945,20.696-10.34,26.55-15.183c-2.536,4.685-15.099,16.556-21.938,19.526
				c-7.78,3.379-18.656,4.868-27.102,4.633C143.858,98.279,152.416,95.801,159.092,93.442z"/>
		</g>
		<path style="fill:#5E4040;" d="M197.944,221.529c1.684-2.132,2.847-5.12,2.847-7.821c0-3.855-2.344-5.626-5.235-3.957
			s-5.235,6.147-5.235,10.002c0,2.538,1.027,4.146,2.547,4.49l-1.775,13.793l3.705-2.139l0.29-0.168l0.895-0.517l3.705-2.139
			L197.944,221.529z"/>
		<g>
			<path style="fill:#677DCE;" d="M274.477,237.376c-3.088-1.779-6.18-1.955-8.707-0.499l-3.584,1.965l0.734,0.935
				c-1.096,1.839-1.701,4.226-1.701,6.986v3.281l-62.079-36.015l-3.584,1.965l3.584,4.279v12.505l5.276,7.081l3.584-1.965v-6.708
				l1.779,5.061l3.584-1.965v-5.757l47.856,27.764v4.5c0,7.889,4.885,17.127,10.888,20.593c1.452,0.837,2.896,1.299,4.309,1.421
				l0.813,1.043l3.584-1.965c2.892-1.669,4.551-5.273,4.551-9.886v-14.026C285.363,250.08,280.48,240.842,274.477,237.376z
				 M265.955,260.789v-14.026c0-2.833,0.815-4.994,2.182-5.784c0.4-0.231,0.835-0.343,1.328-0.343c0.773,0,1.685,0.291,2.641,0.843
				c4.618,2.665,8.52,10.217,8.52,16.49v14.026c0,2.833-0.816,4.995-2.183,5.784c-1.282,0.74-2.865,0.137-3.969-0.5
				C269.857,274.613,265.955,267.062,265.955,260.789z"/>
			<path style="fill:#8EAAEF;" d="M270.893,239.341c-3.088-1.779-6.18-1.955-8.707-0.499c-2.892,1.67-4.551,5.273-4.551,9.886v3.281
				l-62.079-36.015v3.122v3.122v12.506l8.86,5.115v-6.708l5.363,3.096v-5.757l47.856,27.764v4.5c0,7.889,4.885,17.127,10.888,20.593
				c1.696,0.978,3.384,1.474,5.02,1.474c1.323,0,2.565-0.328,3.686-0.975c2.892-1.669,4.551-5.273,4.551-9.886v-14.026
				C281.779,252.046,276.896,242.808,270.893,239.341z M277.043,273.96c0,2.833-0.815,4.995-2.183,5.784
				c-1.282,0.739-2.865,0.137-3.969-0.5c-4.618-2.665-8.52-10.216-8.52-16.49v-14.026c0-2.832,0.816-4.994,2.183-5.784
				c0.4-0.231,0.835-0.343,1.328-0.343c0.773,0,1.686,0.291,2.641,0.843c4.618,2.665,8.52,10.217,8.52,16.49V273.96z"/>
		</g>
	</g>
	<g>
		<path style="fill:#FFC9B6;" d="M257.764,264.177c0,0-3.468,4.023-7.588,6.737c-4.12,2.714-8.221-2.343-8.221-2.343
			s8.057-4.339,10.271-5.322c3.408-1.513,5.01-3.842,5.408-3.453C257.635,261.343,257.764,264.177,257.764,264.177z"/>
		<path style="fill:#FFC9B6;" d="M255.635,261.735l0.72-1.231c0,0,0.971-1.785,1.761-3.078c0.79-1.293,1.58-1.58,1.221,0
			c-0.359,1.58-0.503,4.309-1.702,5.328c-1.199,1.019-0.883,0.148-0.883,0.148L255.635,261.735z"/>
		<g>
			<path style="fill:#EF4335;" d="M233.148,367.051c-0.213-3.236-0.505-6.941-1.283-10.965c-1.335-6.905-2.856-16.975,1.695-21.532
				c-5.111-13.003-3.31-20.196-2.55-24.176c-7.616-8.076-0.363-16.605,3.306-19.226c1.936,2.394,13.474,7.124,13.543,7.416
				c1.394,5.932,0.119,12.141-1.637,17.885c-1.094,3.579-2.04,9.624-4.585,19.428c1.185,4.876-0.158,12.261-0.652,17.78
				c-0.344,3.847-0.227,8.217-0.917,12.34C238.958,367.267,236.849,368.461,233.148,367.051z"/>
			<path style="fill:#FFB9A4;" d="M246.473,366.476c2.611,1.035,3.356,1.974,2.654,3.648c-1.035,2.464-3.663,3.99-5.99,4.473
				c-3.512,0.729-6.142,5.579-9.892,1.715c-0.962-0.99-0.114-3.599,0.216-4.968c-0.067-0.955-0.243-3.233-0.313-4.294
				c3.701,1.41,5.81,0.216,6.921-1.048c-0.15,0.895-0.325,1.782-0.565,2.645C240.843,368.238,244.725,365.784,246.473,366.476z"/>
		</g>
		<path style="fill:#2B1822;" d="M233.428,370.884c0,0,2.195,0.789,3.606,1.238c1.412,0.449,4.8,0.632,7.395-1.882
			c2.016-1.953-1.083-3.296-1.083-3.296s2.763-3.163,6.03-1.799c1.517,0.634,2.421,3.96,1.557,5.445
			c-0.921,1.581-2.831,3.268-4.298,3.638c-1.467,0.37-4.364,1.35-5.473,2.02c-2.039,1.231-5.503,3.354-7.832,1.107
			C231.001,375.107,233.428,370.884,233.428,370.884z"/>
		<path style="fill:#F4D4C3;" d="M230.831,256.452c3.396-1.217,7.529,0.718,7.698,4.204c1.87,3.17,0.035,7.822-2.887,9.945
			c-3.398,2.469-8.646-0.028-9.777-3.847C224.697,262.805,226.865,257.872,230.831,256.452z"/>
		<g>
			<path style="fill:#FF5E4C;" d="M242.845,317.321c-10.078-2.52-8.95-16.227-5.297-18.696c0.308-0.208,14.342-1.182,15.466,1.326
				c3.511,7.835,6.758,13.163,9.759,21.2c0.49,1.312,1.941,5.429,4.135,11.489c1.083,1.567,1.535,2.607,0.545,4.973
				c-2.11,5.041-4.294,12.185-6.048,16.705c-0.863,2.225-3.474,8.737-5.375,13.835c-1.328-0.512-3.166-1.646-5.807-2.876
				c0.367-2.362,0.382-5.499,0.382-8.45c0-7.426,1.202-14.759,6.047-20.861C254.764,334.939,244.054,324.778,242.845,317.321z"/>
			<path style="fill:#FFC9B6;" d="M254.704,371.657c-0.129,0.336,1.07,5.641,1.575,7.135c0.394,1.167,0.489,1.852,1.612,2.207
				c2.31,0.139,2.422,0.539,2.962,1.702c0.472,1.016-2.808,3.057-5.037,2.767c-0.595-0.077-3.287-0.142-4.162-1.561
				c-1.286-2.085,0.117-3.914-0.662-6.315c-0.876-2.697-4.387-2.591-3.335-5.463c0.314-0.855,1.261-2.585,1.684-3.31
				c0.274-0.469,0.645-1.994,0.959-4.017c2.479,1.155,4.779,2.078,6.026,2.558C255.723,368.976,255.161,370.47,254.704,371.657z"/>
		</g>
		<path style="fill:#FFC9B6;" d="M231.187,262.2c0.059-0.279,0.314-0.508,0.581-0.582c4.007-1.103,4.938-3.269,5.635-6.896
			c0.099-0.517,0.779-0.75,1.201-0.489c2.121,1.309,4.309,2.264,6.709,2.92c-2.246,6.706,1.822,8.139,3.589,10.802
			c0.446,0.673-4.192,4.047-6.672,3.698c-2.143-0.302-4.266-0.982-6.102-2.149C234.102,268.216,230.599,264.954,231.187,262.2z"/>
		<path style="fill:#FFC9B6;" d="M236.878,246.821c0.374-3.451,3.202-8.049,7.075-7.757c3.945,0.298,6.627,6.153,6.934,8.88
			c0.523,4.633,0.114,13.369-7.198,10.564C237.992,256.324,236.32,251.97,236.878,246.821z"/>
		<path style="fill:#FF5E4C;" d="M230.8,239.986c1.773-3.811,6.283-6.828,10.302-5.243c1.694-1.594,4.23-2.244,6.502-1.927
			c0.695,0.097,1.735,0.237,1.957,1.038c0.007,0.023,0.001,0.045,0.006,0.068c1.771-0.662,3.418-0.601,4.063,1.417
			c0.647,2.028-0.776,3.767-2.679,4.855c1.021,0.172,1.939,0.479,2.459,1.077c1.168,1.344,0.356,3.6-0.767,4.54
			c-1.866,1.562-4.942,3.011-7.474,1.663c0.178,4.244-4.711,8.41-7.084,9.485c-1.374-2.895-4.4-2.939-6.434-6.999
			C230.529,247.723,229.702,242.346,230.8,239.986z"/>
		<path style="fill:#FFC9B6;" d="M245.632,249.34c0,0-2.928-2.006-3.391,0.846c-0.463,2.852,2.319,3.835,2.319,3.835L245.632,249.34
			z"/>
		<path style="fill:#FFAF04;" d="M232.217,236.237c2.424-1.061,3.993-1.219,6.067,0.334c2.148,1.609,1.361,8.262-2.107,9.054
			c-2.227,0.508-5.101-0.092-6.288-2.062C228.378,241.054,228.635,237.804,232.217,236.237z"/>
		<path style="fill:#EF4335;" d="M208.528,250.013c-1.185-1.594-1.408-3.851,0.146-5.426c1.032-1.046,2.456-1.309,3.726-0.974
			c-0.208-2.115,0.612-4.6,1.711-5.959c2.621-3.242,6.955-3.648,10.617-2.298c0.162-1.599,1.001-3.123,2.641-3.648
			c1.267-0.406,2.587-0.026,3.47,0.833c1.078-1.856,3.342-2.837,5.343-1.181c1.863,1.542,1.388,4.187-0.495,5.21
			c0.55,0.459,0.951,1.115,1.066,1.924c0.261,1.836-1.005,3.15-2.525,3.865c2.243,2.126,1.049,6.037-1.991,7.346
			c-2.113,0.91-4.533,0.598-6.505-0.504c0.068,1.027-0.033,2.045-0.633,2.94c-0.406,0.605-0.92,1.105-1.605,1.388
			c1.78,2.49,0.313,5.266-2.826,5.619c0.172,2.586,0.793,3.605-0.87,6.063c-1.893,2.797-7.528,3.303-10.079,0.578
			c-1.292-1.38-1.632-3.085-1.235-4.636c-0.245-0.049-0.496-0.115-0.762-0.215c-1.68-0.633-3.107-2.133-3.569-3.882
			C203.288,253.778,205.644,251.049,208.528,250.013z"/>
		<path style="fill:#FFE8DE;" d="M228.948,275.951c-2.534-7.838-0.987-13.049,1.253-15.612c0.921-1.054,3.107-3.227,5.495-1.076
			c-0.775,3.569,5.386,4.713,9.853,4.713c3.382,2.524,6.416,4.288,8.348,7.702c2.046,3.617,3.026,7.29-1.338,9.926
			c1.338,3.965-0.77,8.072,0.394,18.207c-4.074,3.237-11.922,3.203-16.259,0.573c-3.387-2.054-5.188-4.344-5.019-6.821
			c1.124-2.411,2.766-2.974,2.643-5.971C234.164,283.809,230.11,279.543,228.948,275.951z"/>
		<g>
			<path style="fill:#2B1822;" d="M252.41,382.915c-0.284-1.916-0.284-5.889-1.206-7.379c-0.747-1.207-2.547-2.959-4.503-3.698
				c1.307-2.087,2.64-3.018,2.64-3.018s3.566,2.535,3.992,5.902c0.426,3.368,0.387,7.646,2.77,7.93
				c2.383,0.284,1.303-1.869,1.303-1.869s3.944-1.913,4.391,1.913c0.155,1.329-0.421,2.41-2.728,3.482
				c-1.17,0.544-2.512,0.835-3.83,0.754C253.819,386.339,252.693,384.828,252.41,382.915z"/>
			<path style="fill:#2B1822;" d="M249.912,378.318c-0.269-1.93-5.292-3.068-3.31-6.329c0.033-0.054,0.066-0.098,0.098-0.15
				c1.956,0.738,3.756,2.491,4.503,3.698c0.922,1.49,0.922,5.463,1.206,7.379c0.283,1.913,1.409,3.424,2.829,4.017
				c-1.28-0.079-2.536-0.511-3.586-1.42C249.524,383.668,250.181,380.248,249.912,378.318z"/>
		</g>
		<path style="fill:#FFC9B6;" d="M253.406,269.269c1.818,1.07,4.046,2.573,5.397,4.211c1.42,1.721,2.856,3.971,4.25,5.73
			c2.432-0.182,5.849-1.17,8.531-1.428c1.255-0.121,4.504-0.175,5.646-0.88c1.559-0.961,0.602-1.15,1.172-2.846
			c0.646-1.923,0.965-5.38,1.341-5.468c0.705-0.166,1.309,0.921,0.872,2.569c-0.284,1.073,0.618,2.373,0.564,3.282
			c0.789-0.345,2.381-0.69,3.46-1.343c0.512-0.31,0.592-1.749,0.723-2.168c1.246,0.091,1.409,1.44,1.07,2.264
			c1.296,0.65-0.012,3.405-0.339,4.071c-1.217,2.478-4.507,2.616-6.995,3.844c-4.469,2.207-3.97,1.797-8.485,3.783
			c-0.951,0.418-6.944,2.77-8.442,2.77c-2.514-1.138-2.345-0.772-7.155-4.073c-3.525-2.418-5.615-3.334-7.921-7.142
			C244.563,272.264,251.342,268.054,253.406,269.269z"/>
		<path style="fill:#F4D4C3;" d="M248.324,265.79c5.126-1.909,9.96,4.183,11.235,8.57c1.687,1.174-2.983,8.665-5.267,8.738
			c-4.448,2.229-9.109,0.469-11.559-4.135C240.354,274.491,243.775,267.485,248.324,265.79z"/>
		<path style="fill:#FFFFFF;" d="M259.56,274.36l1.533,1.68c0,0,0.847,1.498-0.868,4.285c-1.716,2.787-4.515,3.735-4.515,3.735
			l-1.417-0.961c0,0,2.684-1.688,4.077-3.889C259.763,277.01,259.56,274.36,259.56,274.36z"/>
	</g>
</g>
</svg>
