<?xml version="1.0" encoding="utf-8"?>
<!-- Generator: Adobe Illustrator 27.5.0, SVG Export Plug-In . SVG Version: 6.00 Build 0)  -->
<svg version="1.1" id="Layer_1" xmlns="http://www.w3.org/2000/svg" xmlns:xlink="http://www.w3.org/1999/xlink" x="0px" y="0px"
	 viewBox="0 0 728.7 399.8" style="enable-background:new 0 0 728.7 399.8;" xml:space="preserve">
<style type="text/css">
	.st0{fill:#85D4E8;}
	.st1{fill:#100200;}
	.st2{fill:#B56C49;}
	.st3{fill:#E5908F;}
	.st4{fill:#DB8282;}
	.st5{fill:#B21810;}
	.st6{fill:#D12012;}
	.st7{fill:#CE7C7C;}
	.st8{fill:#1072B6;}
	.st9{fill:#1066B6;}
	.st10{fill:#53915A;}
	.st11{fill:#448448;}
	.st12{fill:#EACF40;}
	.st13{fill:#EAB740;}
	.st14{fill:#995236;}
	.st15{fill:#7000FF;}
	.st16{clip-path:url(#SVGID_00000111178701521974285850000012744256462620669056_);}
	.st17{fill:#D6701D;}
	.st18{clip-path:url(#SVGID_00000170246933244745986280000004268805996625752715_);}
</style>
<g id="BACKGROUND">
	<path class="st0" d="M419.4,399.8c0,0,79.1-91,104.6-158.1c25.6-67.1,28.8-130.2-0.8-161.3s-87.8-33.5-158.9,39.9
		c-20,23.2-20,23.2-20,23.2s-105.4-47.9-143.8-12.8c-38.3,35.1-28.8,119,13.6,169.3C241.1,332,312.4,381.5,419.4,399.8z"/>
</g>
<g id="OBJECTS">
	<g>
		<path class="st1" d="M453.7,59.8c0,0-61.4,2.2-98.1-1.8c-36.7-4-92.3,0.3-110.1,10.1c-4.4,2.6-8.1,8-8.1,8s-11.2,183.1,2.4,240.7
			c139,26.4,279.8-8.5,279.8-8.5S500.9,197,488.1,154.7C475.3,112.3,453.7,59.8,453.7,59.8z"/>
		<path class="st1" d="M386.2,8.3c0,0-6.4-4.6-11.4-1.8c-5,2.8-6,7.1-6,7.1l-4.3,19.5l-3.2,16.7l1.4,6.7l26.3-4.6L386.2,8.3z"/>
		<path class="st2" d="M377.7,65.5c0,0-22.4,6.7-31.9,20.6c-9.6,13.8-6.7,34.1-6.7,34.1l35.8-10.6L377.7,65.5z"/>
		<path class="st3" d="M352.2,63.7c0,0,11.7-2.8,21.7,17.4c10.6,20.6,13.1,28.4,13.1,28.4l-7.8,29.5l-26.3-22L352.2,63.7z"/>
		<g>
			<path class="st3" d="M300.3,56.2c0,0-16-1.4-23.1,14.9c-7.1,16.3-17.7,51.5-17.7,51.5s0.7-53.2,1.1-58.6c0.4-5.3-6.7-2.5-6.7-2.5
				c-3.5-8.5-7.5-1.8-7.5-1.8c-3.5-5.7-6,2.8-6,2.8c-3.9-2.8-6.7,0-4.6,7.8c-3.5,3.9-2.1,8.2,1.8,8.2c-4.3,29.5-11,68.1,5,79.9
				s31.6,1.8,40.1-12.8c8.5-14.6,18.1-54,18.1-54L300.3,56.2z"/>
			<g>
				<path class="st1" d="M246.7,75.5c-0.5,0-0.9-0.4-0.9-0.9c-0.2-2.8,1.8-4.6,3.6-5.7c-0.8-0.3-1.6-0.9-2.3-1.7
					c-0.8-0.8-0.7-1.7-0.6-2.2c0.7-2.5,6.1-4,7.2-4.3c0.5-0.1,1,0.2,1.2,0.7c0.1,0.5-0.2,1-0.7,1.2c-2.6,0.7-5.6,2.1-5.8,3
					c0,0.1,0,0.2,0.2,0.4c1.9,2.1,4.1,1.7,4.3,1.6c0,0,0,0,0.1,0c0.5-0.1,1,0.2,1.1,0.7c0.1,0.5-0.2,1-0.7,1.1c0,0,0,0,0,0
					c-0.4,0.1-5.9,1.6-5.6,5.1C247.6,75,247.2,75.4,246.7,75.5C246.7,75.5,246.7,75.5,246.7,75.5z"/>
				<path class="st1" d="M247.7,70.9c-1.8,0-3.1-0.6-3.8-1.8c-1.9-3.2,1.3-9.1,1.7-9.8c0.3-0.5,0.8-0.6,1.3-0.4
					c0.5,0.3,0.6,0.8,0.4,1.3c-1.2,2.2-2.8,6.2-1.7,7.9c0.1,0.2,0.6,1,2.5,0.9c0.5,0,1,0.4,1,0.9c0,0.5-0.4,1-0.9,1
					C247.9,70.9,247.8,70.9,247.7,70.9z"/>
				<path class="st1" d="M242.3,72.2c-1,0-2.1-0.3-3-1.3c-2.9-2.9,0.1-8.5,0.2-8.7c0.2-0.5,0.8-0.6,1.3-0.4c0.5,0.2,0.6,0.8,0.4,1.3
					c-0.7,1.3-2.1,5-0.5,6.5c1.8,1.8,4.2-0.2,4.3-0.3c0.4-0.3,1-0.3,1.3,0.1c0.3,0.4,0.3,1-0.1,1.3
					C245.4,71.4,243.9,72.2,242.3,72.2z"/>
			</g>
			<path class="st4" d="M282.6,145.7c8.5-14.6,18.1-54,18.1-54l-0.4-35.5c0,0-16-1.4-23.1,14.9c-7.1,16.3-17.7,51.5-17.7,51.5
				s0-0.1,0-0.4c-0.3,1.4-0.5,2.8-0.8,4.3c-1.1,5.3-2.3,10.7-4.9,15.5s-6.5,9-11.6,10.9c-1.3,0.5-2.7,0.8-4.1,0.9
				c1.2,1.9,2.7,3.5,4.4,4.7C258.5,170.2,274.1,160.2,282.6,145.7z"/>
		</g>
		<g>
			<path class="st5" d="M386.4,156.5l5.2-0.3l-21-3.8c0,0,2,91.2,3,116.2c0.9,21.6,2.8,100.6,3.3,121.9c13.4,3.6,27.6,6.8,42.5,9.3
				c0,0,1.9-2.1,5.1-6l-1.6-72.5l-0.8-2.1L386.4,156.5z"/>
			<path class="st6" d="M478,323.7c-1.9-8-3.5-14.6-4.3-17.3c-1.1-59.1,4.1-102.1-21.1-147.6l-6-6l-54.9,3.4l-5.2,0.3l35.7,162.7
				l0.8,2.1l18.7,51.5C452.1,359.5,465.1,342.4,478,323.7z"/>
		</g>
		<g>
			<g>
				<path class="st4" d="M276.5,209.1c0-0.3,0-0.6,0-0.8C276.5,208.5,276.5,208.8,276.5,209.1z"/>
				<path class="st4" d="M276.6,208.1C276.6,208.1,276.6,208.1,276.6,208.1C276.6,208.1,276.6,208.1,276.6,208.1z"/>
				<path class="st4" d="M306,265.1c-4.4-16.5-22-27.9-30.3-32.4c0.3-11.7,0.6-20.2,0.7-23.5c-0.5,11.8-3.5,93.7,2.3,141.3
					c9.2,5.3,19.3,10.5,30,15.4C309.4,347.6,311,283.7,306,265.1z"/>
				<path class="st7" d="M276.6,207.8c0,0,0,0.1,0,0.3c0,0,0,0,0,0c0,0.1,0,0.1,0,0.2c0,0.2,0,0.5,0,0.8c0,0.1,0,0.1,0,0.2
					c-0.1,3.3-0.5,11.8-0.7,23.5c8.3,4.5,25.8,15.9,30.3,32.4c5,18.6,3.4,82.4,2.8,100.9c5.6,2.6,11.4,5.1,17.4,7.5l-0.7-148.4
					C325.6,225.2,279.1,207.8,276.6,207.8z"/>
				<path class="st3" d="M325.6,225.2l0.7,148.4c2.9,1.2,5.8,2.3,8.7,3.4c12.4,3.9,33.9,10.6,35.5,11.8c0,0,0.1,0,0.1,0
					c1.1-3.5,25.6-147.1,7.1-182C336.9,215.6,325.6,225.2,325.6,225.2z"/>
			</g>
			<g>
				<path class="st8" d="M281.9,157.8l-6.4,53.6c0,0,33,2.1,50.4,27c13.1-20.6,52.2-30.9,54-27.7c-6-27.3-18.8-54.7-22.4-57.9
					C291.8,154.9,281.9,157.8,281.9,157.8z"/>
				<path class="st9" d="M379.9,210.6c-5-22.5-14.5-44.9-19.7-54l-37.4,2.4c0,0-2.5,26-1.8,46.6c0.7,20.6,5,32.7,5,32.7
					C339,217.7,378.1,207.4,379.9,210.6z"/>
			</g>
		</g>
		<g>
			<path class="st10" d="M303.9,56.2l-6,0.7c0,0,0.7,21.3-1.1,31.9s-13.1,17-13.1,17l-3.9,55l80.9-3.5l-2.8-40.8c0,0,7.5-6.7,7.8-11
				c0.4-4.3-8.2-12.4-8.2-12.4s-5.3-9.2-5.3-29.5l-3.5,0.4L303.9,56.2z"/>
			<path class="st11" d="M365.7,105.6c0.4-4.3-8.2-12.4-8.2-12.4s-5.3-9.2-5.3-29.5l-3.5,0.4l-5.7-1c-5.7,2.1-5.7,2.1-5.7,2.1
				l-8.5,32.3c0,0,5.3,19.2-7.5,24.8c1.4,20.5,1.5,32.7,1.4,36.8l38-1.7l-2.8-40.8C357.9,116.6,365.3,109.8,365.7,105.6z"/>
		</g>
		<g>
			<g>
				<path class="st3" d="M343.7,30.3L312.8,57l-8.9-0.7c0,0-1.8,12.4,1.1,26.3c2.8,13.8,13.3,15.3,20.6,15.6
					c9.6,0.4,19.9-12.4,23.1-34.1l-4.6-1.4l6.4-17.4L343.7,30.3z"/>
				<path class="st7" d="M333.2,39.4c1.3,3.2,2.8,6.3,4.9,9.2c2.2,3.1,5.1,5.8,8.4,7.5l4-10.8l-6.7-14.9L333.2,39.4z"/>
			</g>
			<g>
				<path class="st3" d="M371.5,17c0,0,1.9,34.5-15,34.1c-16.9-0.4-18.1-14.8-17.2-30.2L371.5,17z"/>
				<path class="st12" d="M369.9,19l-1.1,21.7c0,0,5.3-2.5,5.7-11.7c0.4-9.2-0.7-16.3-7.8-19.9c-7.1-3.5-3.5-1.4-3.5-1.4l-3.2,6
					L369.9,19z"/>
				<path class="st12" d="M369.9,19c0,0-8.5,14.2-31.6,10.6c0,0-4.6-0.4-5.7-8.5s4.6-16,16-16.7C360,3.7,368.5,4.4,369.9,19z"/>
			</g>
		</g>
		<g>
			<path class="st13" d="M422.4,59.4c0,0-14.4,1.1-27,2.7l3.2,4.4l-1.6,6c-0.5,7.4-1,14.9-1.4,22.3c-0.1,1.4-0.2,2.8-0.8,4
				c-0.6,1.2-1.6,2.2-2.5,3.2c-5.7,6.6-5.9,17.3-0.5,24.1c0.7,1,1.6,1.9,2.1,3c0.5,1.2,0.5,2.6,0.5,3.9c0.1,9.8,0.1,19.5,0.2,29.3
				c26.7,3.2,57.9-3.7,57.9-3.7l1.1-82.3C443.7,52,422.4,59.4,422.4,59.4z"/>
			<path class="st12" d="M394,129.3c-0.5-1.1-1.3-2-2.1-3c-5.4-6.9-5.1-17.5,0.5-24.1c0.9-1,1.9-2,2.5-3.2c0.6-1.2,0.7-2.6,0.8-4
				c0.5-7.4,1-14.9,1.4-22.3l1.6-6l-3.2-4.4c-7.8,1-15,2.1-17.7,3.4c-7.1,3.2-9.2,21.3-9.2,30.2c-14.9,13.1-0.7,30.5-0.7,30.5
				s-0.7,3.9,1.4,28c6.8,4.6,15.8,7.1,25.5,8.3c-0.1-9.8-0.1-19.5-0.2-29.3C394.5,131.9,394.5,130.5,394,129.3z"/>
		</g>
		<g>
			<path class="st2" d="M383.4,49.1l9.9,24.8c0,0,6.4,3.9,15.3,1.1c8.9-2.8,11.7-10.6,13.8-15.6l-25.2-20.6L383.4,49.1z"/>
			<path class="st14" d="M397.2,38.9l-13.8,10.3l6.7,16.7c3-0.1,5.7-1.7,8-3.6c4.6-3.7,8.2-8.8,10.1-14.4L397.2,38.9z"/>
		</g>
		<path class="st2" d="M437.5,131c0,0-11.7-30.9-13.3-37.8c-1.6-6.9-5.9-28.8,11.2-30.9c17-2.1,23.4,14.9,28.8,33
			s15.4,62.8,10.1,70.8c-5.3,8-18.1,9.1-34.1,0.5c-10.5-5.6-19.9-13.4-29-20.9c-4.1-3.3-8.1-6.7-12.1-10.2c-1.2-1-2.3-2.2-3.5-3.1
			c-2.1-1.5-5-1.6-6.8-3.5c-1.5-1.5-1.8-4.3-0.1-5.5c-1.7-1.8-1.7-5.1,0.2-6.8c0.3-0.2,0.6-0.5,0.8-0.7c0.3-0.5,0.4-1,0.5-1.6
			c0.3-1.8,1.1-3.8,2.8-4.4c1.8-0.6,6.9,2.2,9,2.8c-0.5-1.8-1-5.4,1.6-5.9c3.2-0.5,4.3,8,4.3,8L437.5,131z"/>
		<g>
			<g>
				<path id="SVGID_1_" class="st15" d="M397.2,111.6c0,0,48.6-41.9,51.5-45.1c2.8-3.2,5-6.7,5-6.7s6-2.1,20.6,32.3
					c14.6,34.4,38.7,130.6,40.8,160.8c2.1,30.2,4.4,55.4,4.4,55.4l-17,20.2c0,0,5.1-39.5,1.1-75.6c-4.8-43.1-17.6-73.5-36.2-96.4
					C448.7,133.6,397.2,111.6,397.2,111.6z"/>
			</g>
			<g>
				<defs>
					<path id="SVGID_00000016793276951008984700000013586533021256751499_" d="M397.2,111.6c0,0,48.6-41.9,51.5-45.1
						c2.8-3.2,5-6.7,5-6.7s6-2.1,20.6,32.3c14.6,34.4,38.7,130.6,40.8,160.8c2.1,30.2,4.4,55.4,4.4,55.4l-17,20.2
						c0,0,5.1-39.5,1.1-75.6c-4.8-43.1-17.6-73.5-36.2-96.4C448.7,133.6,397.2,111.6,397.2,111.6z"/>
				</defs>
				<clipPath id="SVGID_00000173133108146968074530000017282113224743640740_">
					<use xlink:href="#SVGID_00000016793276951008984700000013586533021256751499_"  style="overflow:visible;"/>
				</clipPath>
				<g style="clip-path:url(#SVGID_00000173133108146968074530000017282113224743640740_);">
					<path class="st6" d="M429.1,135.7c0,0,47.8-28,55.5-43.1l-28.5-45.8l-35.5,32.8L387,100.5L429.1,135.7z"/>
					<path class="st17" d="M422.2,135l60.2-46.5c0,0,15.4,31.4,18.5,41l-52.5,36.9L422.2,135z"/>
					<polygon class="st12" points="446.1,166.5 466.9,195.2 509.4,174 500.9,127.5 					"/>
					<polygon class="st10" points="463.1,193.1 517.1,165.8 523.2,223.2 475.4,238.9 					"/>
					<polygon class="st8" points="522.5,221.2 523.2,265.6 493.9,295.7 488.5,252.6 474.6,236.9 					"/>
				</g>
			</g>
		</g>
		<g>
			
				<ellipse transform="matrix(0.1436 -0.9896 0.9896 0.1436 297.803 411.1921)" class="st2" cx="386.5" cy="33.5" rx="18.2" ry="15.4"/>
			<path class="st1" d="M384.1,12.2l7.5,13.1c0,0-1.4,7.8,1.8,9.2c3.2,1.4,3.2,1.4,3.2,1.4s-2.1,10.6,5.3,12.4
				c16-6,30.9-14.9,30.9-14.9s2.5-6.7-2.5-8.9c0,0,0.4-10.6-11-6.4c0,0-2.8-12.1-9.9-8.9c0,0-2.5-6.4-7.8-6.4c0,0-6.4-5.7-10.6-1.4
				C390.9,1.6,382,4.8,384.1,12.2z"/>
		</g>
		<g>
			<g>
				<defs>
					<path id="SVGID_00000103966638012834408220000012887372572336517005_" d="M237.3,78.5c0,0-5.3,50.8-8,93.4s2.1,137.9,4.3,151.7
						c37.8,10.1,40.5,6.4,40.5,6.4S238.4,98.5,237.3,78.5z"/>
				</defs>
				<clipPath id="SVGID_00000102507101432226446190000000222058691120947361_">
					<use xlink:href="#SVGID_00000103966638012834408220000012887372572336517005_"  style="overflow:visible;"/>
				</clipPath>
				<g style="clip-path:url(#SVGID_00000102507101432226446190000000222058691120947361_);">
					<path class="st6" d="M281.2,132.7c0,0-70.4-4-86.5-15.6l13.6-62.7L266,69.9l50.1,3.9L281.2,132.7z"/>
					<path class="st17" d="M289.3,128.3l-93.7-16.7c0,0-4.3,40.8-3.7,52.4l80,10.8L289.3,128.3z"/>
					<polygon class="st12" points="274.7,173.6 262.6,214.5 201.9,214.7 191,161.9 					"/>
					<polygon class="st10" points="273.5,206.4 197.3,209.6 208.3,260.3 272.3,249.7 					"/>
					<polygon class="st8" points="210.7,253.4 224.5,287.7 283.6,295.4 282,262.4 281.2,241.5 					"/>
					<polygon class="st15" points="215.8,288.9 227.9,324.8 287,332.5 285.4,299.5 282.5,285.5 					"/>
				</g>
			</g>
		</g>
	</g>
</g>
</svg>
