<?xml version="1.0" encoding="utf-8"?>
<!-- Generator: Adobe Illustrator 27.5.0, SVG Export Plug-In . SVG Version: 6.00 Build 0)  -->
<svg version="1.1" xmlns="http://www.w3.org/2000/svg" xmlns:xlink="http://www.w3.org/1999/xlink" x="0px" y="0px"
	 viewBox="0 0 500 500" style="enable-background:new 0 0 500 500;" xml:space="preserve">
<g id="BACKGROUND">
	<path style="fill:#85D4E8;" d="M311.85,441.101c0,0,79.063-91.043,104.619-158.127c25.556-67.084,28.75-130.175-0.799-161.321
		c-29.549-31.146-87.848-33.542-158.925,39.931c-19.965,23.16-19.965,23.16-19.965,23.16s-105.418-47.917-143.751-12.778
		c-38.334,35.139-28.75,118.994,13.577,169.307C133.517,373.263,204.835,422.733,311.85,441.101z"/>
</g>
<g id="OBJECTS">
	<g>
		<path style="fill:#100200;" d="M346.102,101.066c0,0-61.405,2.218-98.141-1.775c-36.736-3.993-92.327,0.33-110.053,10.148
			c-4.416,2.63-8.143,7.954-8.143,7.954s-11.181,183.15,2.396,240.651c138.96,26.354,279.783-8.519,279.783-8.519
			s-18.634-111.274-31.412-153.601C367.753,153.598,346.102,101.066,346.102,101.066z"/>
		<path style="fill:#100200;" d="M278.663,49.6c0,0-6.389-4.614-11.358-1.775c-4.969,2.84-6.034,7.099-6.034,7.099l-4.259,19.522
			l-3.195,16.682l1.42,6.744l26.266-4.614L278.663,49.6z"/>
		<path style="fill:#B56C49;" d="M270.144,106.746c0,0-22.361,6.744-31.945,20.587c-9.583,13.843-6.744,34.074-6.744,34.074
			l35.849-10.648L270.144,106.746z"/>
		<path style="fill:#E5908F;" d="M244.589,104.971c0,0,11.713-2.84,21.651,17.392c10.648,20.587,13.133,28.395,13.133,28.395
			l-7.809,29.46l-26.266-22.006L244.589,104.971z"/>
		<g>
			<path style="fill:#E5908F;" d="M192.767,97.517c0,0-15.972-1.42-23.071,14.908c-7.099,16.327-17.747,51.467-17.747,51.467
				s0.71-53.241,1.065-58.565c0.355-5.324-6.744-2.485-6.744-2.485c-3.549-8.519-7.454-1.775-7.454-1.775
				c-3.549-5.679-6.034,2.84-6.034,2.84c-3.904-2.84-6.744,0-4.614,7.809c-3.549,3.904-2.13,8.164,1.775,8.164
				c-4.259,29.46-11.003,68.149,4.969,79.862c15.972,11.713,31.59,1.775,40.108-12.778c8.519-14.553,18.102-53.951,18.102-53.951
				L192.767,97.517z"/>
			<g>
				<path style="fill:#100200;" d="M139.081,116.742c-0.497,0-0.913-0.387-0.943-0.89c-0.164-2.78,1.752-4.586,3.637-5.679
					c-0.771-0.345-1.575-0.889-2.332-1.73c-0.765-0.85-0.737-1.669-0.578-2.207c0.723-2.45,6.088-4.018,7.157-4.307
					c0.505-0.135,1.023,0.162,1.159,0.665c0.137,0.504-0.161,1.023-0.665,1.16c-2.598,0.705-5.563,2.086-5.838,3.017
					c-0.016,0.054-0.049,0.164,0.17,0.407c1.862,2.069,4.063,1.654,4.343,1.591c0.028-0.007,0.048-0.012,0.058-0.014
					c0.502-0.119,1.008,0.184,1.137,0.685c0.128,0.5-0.169,1.01-0.667,1.147c-0.007,0.002-0.023,0.006-0.045,0.011
					c-0.362,0.093-5.859,1.569-5.649,5.144c0.031,0.521-0.367,0.969-0.888,0.999C139.119,116.742,139.1,116.742,139.081,116.742z"/>
				<path style="fill:#100200;" d="M140.138,112.221c-1.823,0-3.116-0.604-3.844-1.797c-1.925-3.153,1.321-9.147,1.697-9.82
					c0.255-0.456,0.831-0.618,1.286-0.363c0.456,0.254,0.619,0.83,0.364,1.286c-1.212,2.172-2.755,6.241-1.734,7.912
					c0.144,0.236,0.58,0.957,2.472,0.886c0.541-0.03,0.96,0.389,0.979,0.911c0.018,0.522-0.39,0.96-0.911,0.979
					C140.342,112.22,140.239,112.221,140.138,112.221z"/>
				<path style="fill:#100200;" d="M134.765,113.48c-1.017,0-2.071-0.339-3.006-1.275c-2.855-2.855,0.061-8.501,0.187-8.74
					c0.242-0.461,0.813-0.639,1.276-0.397c0.462,0.242,0.641,0.813,0.399,1.276c-0.673,1.287-2.079,4.968-0.524,6.524
					c1.75,1.75,4.215-0.24,4.319-0.326c0.402-0.331,0.996-0.276,1.33,0.126c0.332,0.401,0.278,0.995-0.122,1.328
					C137.813,112.672,136.334,113.48,134.765,113.48z"/>
			</g>
			<path style="fill:#DB8282;" d="M175.02,186.962c8.519-14.553,18.102-53.951,18.102-53.951l-0.355-35.494
				c0,0-15.973-1.42-23.071,14.908c-7.099,16.327-17.747,51.467-17.747,51.467s0.002-0.15,0.006-0.421
				c-0.253,1.421-0.497,2.843-0.779,4.259c-1.059,5.33-2.346,10.69-4.902,15.486c-2.556,4.796-6.528,9.031-11.629,10.906
				c-1.323,0.487-2.725,0.784-4.141,0.894c1.229,1.855,2.678,3.456,4.407,4.725C150.884,211.453,166.501,201.515,175.02,186.962z"/>
		</g>
		<g>
			<path style="fill:#B21810;" d="M278.84,197.788l5.218-0.323l-21.013-3.847c0,0,1.952,91.22,3.017,116.243
				c0.919,21.59,2.828,100.638,3.335,121.927c13.449,3.616,27.606,6.765,42.453,9.313c0,0,1.854-2.136,5.075-5.98l-1.635-72.54
				l-0.779-2.141L278.84,197.788z"/>
			<path style="fill:#D12012;" d="M370.449,364.944c-1.923-8-3.537-14.561-4.293-17.281c-1.065-59.098,4.082-102.134-21.119-147.567
				l-6.034-6.034l-54.945,3.404l-5.218,0.323l35.672,162.652l0.779,2.141l18.731,51.511
				C344.525,400.81,357.567,383.647,370.449,364.944z"/>
		</g>
		<g>
			<g>
				<path style="fill:#DB8282;" d="M168.932,250.365c0.013-0.326,0.024-0.593,0.033-0.796
					C168.956,249.772,168.946,250.037,168.932,250.365z"/>
				<path style="fill:#DB8282;" d="M168.974,249.36c0-0.001,0-0.003,0-0.004C168.974,249.357,168.974,249.359,168.974,249.36z"/>
				<path style="fill:#DB8282;" d="M198.446,306.4c-4.435-16.529-21.987-27.862-30.253-32.394
					c0.279-11.666,0.601-20.211,0.733-23.473c-0.477,11.828-3.492,93.689,2.311,141.335c9.231,5.286,19.253,10.475,30.042,15.437
					C201.855,388.843,203.437,325.004,198.446,306.4z"/>
				<path style="fill:#CE7C7C;" d="M168.986,249.077c0,0-0.004,0.096-0.012,0.279c0,0.001,0,0.003,0,0.004
					c-0.003,0.06-0.005,0.13-0.009,0.209c-0.008,0.204-0.02,0.471-0.033,0.796c-0.002,0.054-0.005,0.11-0.007,0.168
					c-0.131,3.262-0.454,11.807-0.733,23.473c8.266,4.532,25.819,15.865,30.253,32.394c4.991,18.604,3.409,82.443,2.832,100.905
					c5.595,2.573,11.392,5.086,17.396,7.517l-0.706-148.353C217.968,266.469,171.471,249.077,168.986,249.077z"/>
				<path style="fill:#E5908F;" d="M217.968,266.469l0.706,148.353c2.865,1.16,5.78,2.3,8.738,3.422
					c12.42,3.86,33.868,10.617,35.526,11.754c0.048,0.014,0.095,0.027,0.143,0.041c1.112-3.486,25.58-147.089,7.064-182.026
					C229.326,256.886,217.968,266.469,217.968,266.469z"/>
			</g>
			<g>
				<path style="fill:#1072B6;" d="M174.31,199.031l-6.389,53.596c0,0,33.01,2.13,50.402,26.976
					c13.133-20.587,52.176-30.88,53.951-27.685c-6.034-27.33-18.812-54.661-22.361-57.855
					C184.248,196.191,174.31,199.031,174.31,199.031z"/>
				<path style="fill:#1066B6;" d="M272.274,251.917c-4.963-22.481-14.485-44.949-19.685-53.997l-37.438,2.421
					c0,0-2.507,26.021-1.797,46.607c0.71,20.587,4.969,32.655,4.969,32.655C231.456,259.016,270.499,248.722,272.274,251.917z"/>
			</g>
		</g>
		<g>
			<path style="fill:#53915A;" d="M196.317,97.517l-6.034,0.71c0,0,0.71,21.297-1.065,31.945
				c-1.775,10.648-13.133,17.037-13.133,17.037l-3.904,55.016l80.927-3.549l-2.84-40.818c0,0,7.454-6.744,7.809-11.003
				c0.355-4.259-8.164-12.423-8.164-12.423s-5.324-9.229-5.324-29.46l-3.549,0.355L196.317,97.517z"/>
			<path style="fill:#448448;" d="M258.076,146.854c0.355-4.259-8.164-12.423-8.164-12.423s-5.324-9.228-5.324-29.46l-3.549,0.355
				l-5.657-0.988c-5.699,2.052-5.701,2.053-5.701,2.053l-8.519,32.3c0,0,5.324,19.167-7.454,24.846
				c1.421,20.465,1.477,32.727,1.442,36.804l37.956-1.665l-2.84-40.818C250.268,157.857,257.721,151.113,258.076,146.854z"/>
		</g>
		<g>
			<g>
				<path style="fill:#E5908F;" d="M236.07,71.606l-30.88,26.621l-8.874-0.71c0,0-1.775,12.423,1.065,26.266
					c2.839,13.843,13.274,15.347,20.587,15.617c9.583,0.355,19.877-12.423,23.071-34.074l-4.614-1.42l6.389-17.392L236.07,71.606z"
					/>
				<path style="fill:#CE7C7C;" d="M225.585,80.645c1.321,3.22,2.845,6.341,4.862,9.169c2.193,3.076,5.065,5.795,8.384,7.543
					l3.983-10.844l-6.744-14.908L225.585,80.645z"/>
			</g>
			<g>
				<path style="fill:#E5908F;" d="M263.933,58.296c0,0,1.892,34.543-15.025,34.105c-16.917-0.437-18.073-14.774-17.213-30.16
					L263.933,58.296z"/>
				<path style="fill:#EACF40;" d="M262.336,60.248L261.271,81.9c0,0,5.324-2.485,5.679-11.713
					c0.355-9.229-0.71-16.327-7.809-19.877c-7.099-3.549-3.549-1.42-3.549-1.42l-3.194,6.034L262.336,60.248z"/>
				<path style="fill:#EACF40;" d="M262.336,60.248c0,0-8.519,14.198-31.59,10.648c0,0-4.614-0.355-5.679-8.519
					c-1.065-8.164,4.614-15.972,15.972-16.682C252.397,44.986,260.916,45.696,262.336,60.248z"/>
			</g>
		</g>
		<g>
			<path style="fill:#EAB740;" d="M314.867,100.712c0,0-14.367,1.084-27.02,2.667l3.239,4.432l-1.566,6.026
				c-0.478,7.449-0.956,14.899-1.434,22.348c-0.087,1.365-0.184,2.766-0.767,4.003c-0.579,1.229-1.587,2.19-2.47,3.223
				c-5.66,6.625-5.888,17.273-0.516,24.134c0.749,0.956,1.601,1.861,2.074,2.98c0.52,1.228,0.534,2.602,0.542,3.935
				c0.051,9.765,0.103,19.53,0.154,29.296c26.705,3.238,57.934-3.659,57.934-3.659l1.065-82.347
				C336.164,93.258,314.867,100.712,314.867,100.712z"/>
			<path style="fill:#EACF40;" d="M286.408,170.524c-0.473-1.118-1.326-2.023-2.074-2.98c-5.371-6.861-5.144-17.509,0.516-24.134
				c0.882-1.033,1.891-1.994,2.47-3.223c0.583-1.237,0.68-2.639,0.767-4.003c0.478-7.449,0.956-14.899,1.434-22.348l1.566-6.026
				l-3.239-4.432c-7.823,0.978-14.991,2.147-17.703,3.367c-7.099,3.194-9.228,21.297-9.228,30.17
				c-14.908,13.133-0.71,30.525-0.71,30.525s-0.71,3.904,1.42,28.04c6.78,4.614,15.834,7.105,25.477,8.274
				c-0.051-9.765-0.103-19.53-0.154-29.296C286.942,173.126,286.927,171.752,286.408,170.524z"/>
		</g>
		<g>
			<path style="fill:#B56C49;" d="M275.823,90.418l9.938,24.846c0,0,6.389,3.904,15.262,1.065
				c8.874-2.84,11.713-10.648,13.843-15.617l-25.201-20.587L275.823,90.418z"/>
			<path style="fill:#995236;" d="M289.666,80.125l-13.843,10.293l6.668,16.669c2.951-0.137,5.712-1.696,8.038-3.56
				c4.648-3.724,8.158-8.812,10.117-14.433L289.666,80.125z"/>
		</g>
		<path style="fill:#B56C49;" d="M329.952,172.232c0,0-11.713-30.88-13.31-37.801c-1.597-6.921-5.857-28.75,11.181-30.88
			c17.037-2.13,23.426,14.908,28.75,33.01c5.324,18.102,15.44,62.825,10.116,70.811c-5.324,7.986-18.102,9.051-34.074,0.532
			c-10.454-5.576-19.861-13.391-28.998-20.858c-4.079-3.334-8.11-6.729-12.096-10.174c-1.161-1.004-2.283-2.199-3.537-3.084
			c-2.112-1.49-4.965-1.573-6.849-3.483c-1.475-1.495-1.809-4.307-0.116-5.55c-1.749-1.803-1.665-5.051,0.174-6.761
			c0.26-0.242,0.551-0.458,0.757-0.747c0.323-0.453,0.403-1.029,0.494-1.578c0.297-1.797,1.057-3.822,2.797-4.356
			c1.837-0.565,6.908,2.174,9.042,2.818c-0.524-1.834-1.01-5.423,1.595-5.857c3.195-0.532,4.259,7.986,4.259,7.986L329.952,172.232z
			"/>
		<g>
			<defs>
				<path id="SVGID_1_" d="M289.666,152.888c0,0,48.627-41.883,51.467-45.078c2.84-3.195,4.969-6.744,4.969-6.744
					s6.034-2.13,20.587,32.3c14.553,34.429,38.689,130.619,40.818,160.789c2.13,30.17,4.437,55.371,4.437,55.371l-17.037,20.232
					c0,0,5.074-39.523,1.065-75.603c-4.792-43.126-17.57-73.473-36.204-96.367C341.133,174.894,289.666,152.888,289.666,152.888z"/>
			</defs>
			<use xlink:href="#SVGID_1_"  style="overflow:visible;fill:#7000FF;"/>
			<clipPath id="SVGID_00000147206772994271677610000008442420334126191752_">
				<use xlink:href="#SVGID_1_"  style="overflow:visible;"/>
			</clipPath>
			<g style="clip-path:url(#SVGID_00000147206772994271677610000008442420334126191752_);">
				<path style="fill:#D12012;" d="M321.546,176.981c0,0,47.831-28.028,55.546-43.068l-28.544-45.802l-35.487,32.814l-33.687,20.812
					L321.546,176.981z"/>
				<path style="fill:#D6701D;" d="M314.603,176.298l60.174-46.486c0,0,15.429,31.446,18.515,41.017l-52.46,36.915L314.603,176.298z
					"/>
				<polygon style="fill:#EACF40;" points="338.518,207.744 359.348,236.456 401.779,215.264 393.293,168.778 				"/>
				<polygon style="fill:#53915A;" points="355.491,234.405 409.493,207.061 415.665,264.484 367.834,280.207 				"/>
				<polygon style="fill:#1072B6;" points="414.894,262.434 415.665,306.869 386.349,336.948 380.949,293.88 367.063,278.157 				
					"/>
			</g>
		</g>
		<g>
			
				<ellipse transform="matrix(0.1436 -0.9896 0.9896 0.1436 164.8419 340.0621)" style="fill:#B56C49;" cx="278.902" cy="74.788" rx="18.17" ry="15.445"/>
			<path style="fill:#100200;" d="M276.533,53.504l7.454,13.133c0,0-1.42,7.809,1.775,9.229c3.194,1.42,3.194,1.42,3.194,1.42
				s-2.13,10.648,5.324,12.423c15.972-6.034,30.88-14.908,30.88-14.908s2.485-6.744-2.485-8.873c0,0,0.355-10.648-11.003-6.389
				c0,0-2.839-12.068-9.938-8.874c0,0-2.485-6.389-7.809-6.389c0,0-6.389-5.679-10.648-1.42
				C283.277,42.856,274.404,46.051,276.533,53.504z"/>
		</g>
		<g>
			<defs>
				<path id="SVGID_00000103964606394428668740000000381413135468387992_" d="M129.765,119.79c0,0-5.324,50.845-7.986,93.438
					c-2.662,42.593,2.13,137.895,4.259,151.738c37.801,10.116,40.463,6.389,40.463,6.389S130.83,139.755,129.765,119.79z"/>
			</defs>
			<clipPath id="SVGID_00000121957657533663129720000009818852256147902626_">
				<use xlink:href="#SVGID_00000103964606394428668740000000381413135468387992_"  style="overflow:visible;"/>
			</clipPath>
			<g style="clip-path:url(#SVGID_00000121957657533663129720000009818852256147902626_);">
				<path style="fill:#D12012;" d="M173.637,173.937c0,0-70.409-3.999-86.543-15.592l13.618-62.691l57.697,15.476l50.076,3.932
					L173.637,173.937z"/>
				<path style="fill:#D6701D;" d="M181.699,169.572l-93.677-16.714c0,0-4.323,40.848-3.697,52.433l80.027,10.813L181.699,169.572z"
					/>
				<polygon style="fill:#EACF40;" points="167.143,214.885 155.066,255.729 94.274,256.003 83.393,203.156 				"/>
				<polygon style="fill:#53915A;" points="165.924,247.722 89.759,250.835 100.693,301.574 164.721,290.953 				"/>
				<polygon style="fill:#1072B6;" points="103.134,294.714 116.966,328.93 175.989,336.625 174.391,303.646 173.645,282.822 				
					"/>
				<polygon style="fill:#7000FF;" points="108.202,330.19 120.345,366.095 179.368,373.791 177.77,340.811 174.931,326.812 				"/>
			</g>
		</g>
	</g>
</g>
</svg>
