<?xml version="1.0" encoding="utf-8"?>
<!-- Generator: Adobe Illustrator 27.5.0, SVG Export Plug-In . SVG Version: 6.00 Build 0)  -->
<svg version="1.1" xmlns="http://www.w3.org/2000/svg" xmlns:xlink="http://www.w3.org/1999/xlink" x="0px" y="0px"
	 viewBox="0 0 500 500" style="enable-background:new 0 0 500 500;" xml:space="preserve">
<g id="Background_Complete">
	<g>
		<rect y="382.398" style="fill:#EBEBEB;" width="500" height="0.25"/>
		<rect x="416.779" y="398.494" style="fill:#EBEBEB;" width="33.122" height="0.25"/>
		<rect x="322.527" y="401.208" style="fill:#EBEBEB;" width="8.693" height="0.25"/>
		<rect x="396.586" y="389.208" style="fill:#EBEBEB;" width="19.192" height="0.25"/>
		<rect x="52.459" y="390.888" style="fill:#EBEBEB;" width="43.193" height="0.25"/>
		<rect x="104.556" y="390.888" style="fill:#EBEBEB;" width="6.333" height="0.25"/>
		<rect x="131.471" y="395.111" style="fill:#EBEBEB;" width="93.676" height="0.25"/>
		<path style="fill:#EBEBEB;" d="M237.014,337.8H43.915c-3.147,0-5.708-2.561-5.708-5.708V60.66c0-3.147,2.561-5.708,5.708-5.708
			h193.099c3.146,0,5.707,2.561,5.707,5.708v271.432C242.721,335.239,240.16,337.8,237.014,337.8z M43.915,55.203
			c-3.01,0-5.458,2.448-5.458,5.458v271.432c0,3.01,2.448,5.458,5.458,5.458h193.099c3.009,0,5.457-2.448,5.457-5.458V60.66
			c0-3.009-2.448-5.458-5.457-5.458H43.915z"/>
		<path style="fill:#EBEBEB;" d="M453.31,337.8H260.212c-3.147,0-5.707-2.561-5.707-5.708V60.66c0-3.147,2.561-5.708,5.707-5.708
			H453.31c3.148,0,5.708,2.561,5.708,5.708v271.432C459.019,335.239,456.458,337.8,453.31,337.8z M260.212,55.203
			c-3.009,0-5.457,2.448-5.457,5.458v271.432c0,3.01,2.448,5.458,5.457,5.458H453.31c3.01,0,5.458-2.448,5.458-5.458V60.66
			c0-3.009-2.448-5.458-5.458-5.458H260.212z"/>
	</g>
	<g>
		<g>
			<path style="fill:#F0F0F0;" d="M362.89,380.47H43.57c0,0,9.85-15.17,18.06-27.33c5.2-7.69,9.73-14.18,10.71-14.88
				c2.52-1.8,8.99-2.88,11.87-9.55c2.87-6.68,2.87-9.51,6.99-17.06c4.11-7.55,19.98-28.05,21.65-28
				c1.68,0.05,15.95-22.34,21.43-24.14c5.49-1.8,6.02-7.19,11.89-15.28c5.86-8.09,25.42-33.99,33.69-34.59
				c8.27-0.61,28.52,38.34,36.35,41.24c7.84,2.89,16.51-9.71,19.28-6.65c2.77,3.06,8.38,14.56,14.09,23.91
				c5.72,9.35,11.47,13.66,11.98,17.2c0.51,3.54,12.15,9.77,17.95,9.77c1.96,0,6.21,4.36,10.99,10.14c0.02,0.02,0.03,0.03,0.03,0.03
				c9.33,11.29,20.64,27.95,20.64,27.95c1.55,2.25,4.26-1.08,8.93,0.71C324.78,335.74,362.89,380.47,362.89,380.47z"/>
			<path style="fill:#E6E6E6;" d="M362.89,380.47H43.57c0,0,9.85-15.17,18.06-27.33c4.76-5.25,8.58-9.18,10.03-10.01
				c5.21-2.96,9.25-9.81,12.39-10.68c3.15-0.87,6.87-3.74,6.87-3.74s4.87-15.25,6.05-17.94c1.18-2.69,15.83-19.46,19.12-20.65
				c3.29-1.19,5.42,2.77,7.38,4.93c1.97,2.16,16.99,29.09,16.99,29.09l9.53-6.33c0,0,5.54-7.12,7.65-10.68
				c2.11-3.56,4.15-2.77,4.15-2.77s9.96-11.47,10.48-14.56c0.52-3.09,6.6-1.66,7.04-1.66c0.45,0,10.32,4.75,10.32,4.75
				s-10.37-13.05-14.75-9.53c-4.38,3.53-29.24,27.41-29.24,27.41l-14.17-17.88l6.65-9.53c0,0,9.1-11.44,9.89-13.02
				c0.79-1.58,16.22-23.34,16.46-24.53c0.23-1.18,13.21-11.47,14.84-10.69c1.63,0.77,5.1,3.18,8.99,8.34
				c3.9,5.17,5.6,8.29,9.66,14.94c4.06,6.65,7.41,8.38,8.75,10.05c1.32,1.65,16.15,17.6,16.61,18.1l-11.25-18.1
				c0,0,5.57-5.23,9.17-8.79c3.61-3.56,4.71,1.19,9.43,4.75c4.73,3.56,5.56,5.93,9.12,11.41c3.56,5.47,20.42,24.98,20.42,24.98
				s-2.62,4.35-5.46,8.76c-2.83,4.4-4.75,11.54-4.75,11.54l4.96-2.89c0,0,10.55-10.29,12.39-12.93c1.85-2.64,6.86-7.64,11.24-7.25
				c4.22,0.39,11.4,6.77,11.91,7.22c0.02,0.02,0.03,0.03,0.03,0.03c9.33,11.29,20.64,27.95,20.64,27.95
				c1.55,2.25,4.26-1.08,8.93,0.71C324.78,335.74,362.89,380.47,362.89,380.47z"/>
		</g>
		<circle style="fill:#F5F5F5;" cx="100.191" cy="116.233" r="30.584"/>
		<g>
			<path style="fill:#EBEBEB;" d="M84.054,154.704c0-4.869,3.948-8.817,8.817-8.817c0.881,0,1.729,0.133,2.532,0.373
				c-0.129-0.884-0.198-1.787-0.198-2.707c0-10.312,8.359-18.671,18.671-18.671c1.175,0,2.324,0.114,3.439,0.322
				c2.87-4.697,8.028-7.842,13.935-7.842c8.94,0,16.192,7.183,16.325,16.092c0.091-0.002,0.18-0.014,0.272-0.014
				c8.307,0,15.041,6.734,15.041,15.041s-6.734,15.041-15.041,15.041H92.612l0.011-0.012
				C87.869,163.376,84.054,159.49,84.054,154.704z"/>
			<path style="fill:#EBEBEB;" d="M188.694,100.417c0-3.109,2.52-5.629,5.629-5.629c0.562,0,1.104,0.085,1.617,0.238
				c-0.082-0.565-0.126-1.141-0.126-1.728c0-6.584,5.337-11.921,11.921-11.921c0.75,0,1.484,0.073,2.196,0.205
				c1.832-2.999,5.126-5.007,8.897-5.007c5.708,0,10.338,4.586,10.423,10.274c0.058-0.001,0.115-0.009,0.174-0.009
				c5.304,0,9.603,4.299,9.603,9.603c0,5.304-4.299,9.603-9.603,9.603h-35.266l0.007-0.008
				C191.13,105.954,188.694,103.472,188.694,100.417z"/>
			<path style="fill:#EBEBEB;" d="M359.697,193.778c0-1.904,1.544-3.448,3.448-3.448c0.344,0,0.676,0.052,0.99,0.146
				c-0.05-0.346-0.077-0.699-0.077-1.059c0-4.033,3.27-7.303,7.303-7.303c0.46,0,0.909,0.044,1.345,0.126
				c1.122-1.837,3.14-3.067,5.45-3.067c3.497,0,6.333,2.809,6.385,6.294c0.036-0.001,0.07-0.005,0.106-0.005
				c3.249,0,5.883,2.634,5.883,5.883c0,3.249-2.634,5.883-5.883,5.883h-21.604l0.004-0.005
				C361.189,197.17,359.697,195.65,359.697,193.778z"/>
			<path style="fill:#EBEBEB;" d="M392.361,113.04c0-1.905,1.544-3.448,3.449-3.448c0.344,0,0.676,0.052,0.99,0.146
				c-0.05-0.346-0.077-0.699-0.077-1.059c0-4.033,3.27-7.303,7.303-7.303c0.46,0,0.909,0.044,1.345,0.126
				c1.122-1.837,3.14-3.067,5.45-3.067c3.497,0,6.333,2.81,6.385,6.294c0.036,0,0.07-0.005,0.106-0.005
				c3.249,0,5.883,2.634,5.883,5.883s-2.634,5.883-5.883,5.883h-21.604l0.004-0.005C393.853,116.432,392.361,114.912,392.361,113.04
				z"/>
		</g>
		<g>
			<path style="fill:#EBEBEB;" d="M446.56,380.461H112.854c0,0,10.544-23.506,15.934-21.243
				c5.381,2.263,22.425-11.853,24.879-17.534c2.454-5.69,10.972,1.854,22.479-0.545c11.508-2.4,28.287-39.314,33.469-37.405
				c5.181,1.918,20.225,36.441,23.797,37.723c3.572,1.282,6.981-9.908,11.953-10.871c4.981-0.954,8.926,7.672,9.89,10.071
				c0.954,2.4,5.79,10.072,5.79,10.072s7.636-2.4,10.053-4.318c2.418-1.918,14.362-25.888,16.88-29.297
				c2.518-3.409,7.554-6.181,15.153-4.745c7.599,1.436,10.617-11.99,19.025-20.17c8.399-8.181,12.69-5.245,15.607-5.636
				c2.927-0.391,18.661-26.933,22.497-24.688c3.836,2.245,21.088,34.669,24.197,38.505c3.118,3.836,10.317-2.391,11.171,0
				c0.854,2.4,14.225,21.098,14.225,21.098s6.018-0.482,9.635,2.4c0.609,0.482,1.782,2.409,3.309,5.281l0.309,0.582
				C430.78,344.32,446.56,380.461,446.56,380.461z"/>
			<path style="fill:#E0E0E0;" d="M446.56,380.461H286.806c-4.781-6.981-12.626-18.625-12.371-19.443
				c0.355-1.182,15.098-30.305,22.116-34.269c7.008-3.954,12.262-0.718,12.262-0.718l-5.672,15.416
				c0.418-0.545,13.78-17.761,17.325-20.343c3.59-2.627,2.3-4.781,1.691-5.863c-0.6-1.045-8.454,1.718-8.872,1.863
				c0.609-0.627,16.225-16.434,19.043-17.943c2.872-1.536,8.563-1.536,8.563-1.536s10.49-13.853,14.089-18.979
				c3.599-5.118,12.762,2.472,14.471,8.39c1.718,5.917,7.826,12.026,7.826,12.026l4.318,12.226c0,0-13.126-9.708-15.553-8.99
				c-2.427,0.718-8.099,1.082-8.099,1.082s-2.6-7.554-5.836-8.635c-3.236-1.073-10.071,3.963-15.107,10.79
				c-6.336,8.608,8.635-9.708,15.825,0c7.19,9.708,8.399,6.472,12.108,3.954c3.718-2.509,16.643,17.625,19.525,20.498
				c2.89,2.881,8.463-6.827,8.463-6.827s-5.572,5.036-4.854,1.436c0.718-3.6,1.027-16.344,6.399-16.898
				c5.381-0.555,10.826,15.098,10.826,15.098l-5.717,7.726l15.462-6.29l7.763,4.927l0.309,0.582
				C430.78,344.32,446.56,380.461,446.56,380.461z"/>
			<path style="fill:#E0E0E0;" d="M117.945,380.461c2.072-3.509,3.89-6.945,3.463-7.554c-0.918-1.318,9.19-5.517,11.426-6.863
				c2.245-1.336,4.59-2.254,10.39-1.918c5.799,0.327,3.908,0.745,5.454,1.918c1.545,1.182,1.827,9.572,1.827,9.572
				s3.1-5.708,3.163-9.572c0.064-3.854-4.99-6.827-4.99-6.827s1.336-2.263,2.509-3.872c1.173-1.618,6.736-9.89,10.335-10.971
				c3.59-1.082,10.063,1.8,12.944,3.59c2.872,1.8,2.872,1.8,5.39,3.236c2.518,1.445,1.8,2.882,2.882,8.017
				c1.082,5.136,2.872-0.464,5.999,1.8c3.127,2.254,6.436,7.336,6.436,7.336s-0.927-6.363-3.182-9.135
				c-2.245-2.781-3.254-10.171-3.254-10.171l3.254-7.59c0,0,7.29-12.544,11.644-18.298c4.363-5.754,4.272-3.236,9.381,1.8
				c5.1,5.027,4.6,4.309,7.545,10.199c2.945,5.881,12.417,20.188,12.417,20.188l-0.291-5.581c0,0,6.508-6.826,9.381-4.672
				c2.881,2.154,5.036,6.836,5.036,6.836l-3.254,3.418c0,0-3.936,7.726-5.608,8.781c-1.663,1.045,4.19-1.418,8.863-3.109
				c4.672-1.7,8.272-7.654,11.153-5.672c2.091,1.445,14.598,16.844,21.252,25.115H117.945z"/>
		</g>
	</g>
</g>
<g id="Background_Simple" style="display:none;">
	<g style="display:inline;">
		<path style="fill:#407BFF;" d="M166.147,76.575c88.842-19.78,75.323,51.836,86.27,90.81c10.947,38.974,50.821,32.765,64.18,14.256
			c13.359-18.509,70.326-61.777,86.15,10.89c15.824,72.667-68.995,189.766-211.333,141.502
			C49.076,285.769,86.206,94.373,166.147,76.575z"/>
		<path style="opacity:0.9;fill:#FFFFFF;" d="M166.147,76.575c88.842-19.78,75.323,51.836,86.27,90.81
			c10.947,38.974,50.821,32.765,64.18,14.256c13.359-18.509,70.326-61.777,86.15,10.89
			c15.824,72.667-68.995,189.766-211.333,141.502C49.076,285.769,86.206,94.373,166.147,76.575z"/>
	</g>
</g>
<g id="Birds">
	<g>
		<g>
			<path style="fill:#407BFF;" d="M108.203,220.395c0,0-0.317-3.557-1.151-4.113c-0.833-0.556-5.953-1.905-5.953-1.905
				s2.024,5.486,3.254,6.116C105.584,221.124,108.203,220.395,108.203,220.395z"/>
			<path style="opacity:0.5;fill:#FFFFFF;" d="M101.098,214.378c0,0,0,0,0.003,0.003c0.06,0.169,2.04,5.492,3.253,6.112
				c0.65,0.334,1.691,0.286,2.525,0.169c0.743-0.105,1.324-0.268,1.324-0.268s-0.319-3.557-1.153-4.111
				c-0.794-0.53-5.483-1.781-5.919-1.896c-0.012-0.003-0.021-0.003-0.024-0.006C101.101,214.378,101.098,214.378,101.098,214.378z"
				/>
			<path style="opacity:0.2;enable-background:new    ;" d="M101.101,214.381c0.06,0.169,2.04,5.492,3.253,6.112
				c0.65,0.334,1.691,0.286,2.525,0.169c1.171-0.782-1.306-1.64-1.673-1.92c-0.415-0.316-0.138-0.554-0.018-0.752
				c0.117-0.199-0.319-0.674-0.834-0.873c-0.518-0.199-0.677-0.596-0.557-1.192c0.111-0.557-2.353-1.426-2.666-1.538
				c-0.012-0.003-0.021-0.003-0.024-0.006C101.104,214.381,101.104,214.381,101.101,214.381z"/>
		</g>
		<path style="fill:#407BFF;" d="M110.812,218.257c-1.163-0.033-3.8,1.268-4.673,1.334c-0.873,0.065-5.199-2.919-6.131-3.411
			c-0.932-0.492-9.084-1.588-9.084-1.588s5.413,5.541,9.084,5.7c0,0-2.719,0.758-3.512,0.556c-3.155-0.804-7.649-0.744-7.649-0.744
			l5.03,1.637l-4.384,0.565c0,0,2.033,0.506,6.2,0.238c0,0,1.584,0.648,4.851,1.339c3.661,0.774,5.905-0.772,6.63-1.358
			c1.585-1.281,6.823-2.738,6.823-2.738l-1.786-0.637C112.211,219.15,111.854,218.287,110.812,218.257z"/>
		<path style="opacity:0.6;fill:#FFFFFF;" d="M93.876,221.739l-4.382,0.566c0,0,2.031,0.506,6.199,0.238c0,0,1.276,0.521,3.9,1.129
			c0.298,0.069,0.617,0.138,0.951,0.211c3.659,0.773,5.904-0.77,6.63-1.357c0.641-0.521,1.884-1.068,3.136-1.538
			c0.199-0.075,0.397-0.147,0.593-0.217h0.003c0.147-0.051,0.295-0.105,0.442-0.153c0.328-0.114,0.647-0.217,0.939-0.31
			c0.987-0.319,1.709-0.521,1.709-0.521l-1.785-0.638c0,0-0.358-0.861-1.399-0.891c-0.764-0.021-2.164,0.53-3.28,0.93
			c-0.587,0.211-1.092,0.379-1.393,0.403c-0.873,0.066-5.2-2.919-6.13-3.413c-0.451-0.238-2.585-0.614-4.671-0.942
			c-2.233-0.352-4.415-0.644-4.415-0.644s3.75,3.837,7.126,5.215c0.602,0.247,1.192,0.415,1.746,0.469c0.003,0,0.003,0,0.006,0
			c0.069,0.006,0.138,0.012,0.208,0.015c0,0-0.015,0.003-0.042,0.012c-0.346,0.093-2.735,0.728-3.47,0.542
			c-0.56-0.142-1.162-0.259-1.772-0.349c-0.003-0.003-0.006-0.003-0.009-0.003c-2.835-0.433-5.868-0.391-5.868-0.391L93.876,221.739
			z"/>
		<path style="opacity:0.2;enable-background:new    ;" d="M107.532,219.187c0.56,0.006,1.294,0.069,1.553,0.349
			c0.349,0.37,0.665,1.15,1.225,1.45c0.199-0.075,0.397-0.147,0.593-0.217h0.003c0.147-0.051,0.295-0.105,0.442-0.153
			c0.328-0.114,0.647-0.217,0.939-0.31c0.075-0.515-0.075-1.159-0.075-1.159s-0.358-0.861-1.399-0.891
			C110.048,218.236,108.649,218.787,107.532,219.187z"/>
		<path style="opacity:0.2;enable-background:new    ;" d="M90.924,214.592c0,0,3.75,3.837,7.126,5.215
			c0.647,0.223,1.246,0.385,1.746,0.469c0.003,0,0.003,0,0.006,0c0.057,0.009,0.111,0.018,0.165,0.027
			c2.732,0.424,3.048,0.006,3.048,0.006s-0.924-0.268-1.014-0.268c-0.087,0,0.388-0.298-0.208-0.527
			c-0.596-0.232-0.506-0.515-0.506-0.515s-1.637-0.566-1.697-0.743c-0.06-0.181,0.208-0.476-0.536-0.626
			c-0.743-0.147-0.03-0.536-1.189-0.951c-1.162-0.418-0.864-0.656-0.864-0.656c-1.011-0.268-1.475-0.548-1.664-0.788
			C93.105,214.884,90.924,214.592,90.924,214.592z"/>
		<path style="opacity:0.2;enable-background:new    ;" d="M93.876,221.739l-4.382,0.566c0,0,2.031,0.506,6.199,0.238
			c0,0,1.276,0.521,3.9,1.129c0.506-0.268-0.927-0.716-1.55-1.038c-0.803-0.418-0.686-0.328-0.388-0.536
			c0.298-0.211-0.03-0.268-0.951-0.479c-0.924-0.208-0.713-0.415-1.279-0.846c-0.123-0.093-0.379-0.19-0.701-0.277
			c-0.003-0.003-0.006-0.003-0.009-0.003c-2.835-0.433-5.868-0.391-5.868-0.391L93.876,221.739z"/>
		<polygon style="fill:#407BFF;" points="112.212,219.148 111.705,219.514 112.008,220.395 113.996,219.786 		"/>
	</g>
	<g>
		<g>
			<g>
				<path style="fill:#407BFF;" d="M359.57,93.818c-2.116-1.315-10.804,8.045-14.918,9.222c0,0,4.507,1.717,9.042,0.123
					C358.228,101.57,361.804,95.207,359.57,93.818z"/>
				<path style="opacity:0.4;fill:#FFFFFF;" d="M344.651,103.043c0,0,4.509,1.713,9.042,0.121c4.533-1.592,8.112-7.957,5.877-9.343
					c-0.498-0.313-1.368-0.027-2.456,0.606C353.605,96.468,347.793,102.144,344.651,103.043z"/>
			</g>
			<path style="opacity:0.2;enable-background:new    ;" d="M344.651,103.043c0,0,3.71,0.4,4.223-0.16
				c0.518-0.561,1.044-0.779,2.079-0.814c1.03-0.035,1.439-0.522,1.259-1.563c-0.176-1.042,1.29-0.483,2.166-0.832
				c0.877-0.349-0.099-0.661-0.121-1.389c-0.016-0.721,1.758-0.819,1.859-1.408c0.106-0.59-0.592-0.45-0.212-1.052
				c0.385-0.603,1.665-0.826,1.211-1.398C353.605,96.468,347.793,102.144,344.651,103.043z"/>
		</g>
		<path style="fill:#407BFF;" d="M366.423,92.016c-2.13-0.466-7.439,1.012-9.069,0.828c-1.461-0.165-11.534-0.846-11.534-0.846
			s-5.27,0.448-6.66-0.2c-5.529-2.578-13.826-4.034-13.826-4.034l8.692,4.766l-8.27-0.485c0,0,3.567,1.64,11.333,2.597
			c0,0,2.69,1.746,8.467,4.156c6.472,2.7,11.143,0.635,12.681-0.191c3.365-1.807,13.518-2.666,13.518-2.666l-3.067-1.794
			C368.688,94.147,368.331,92.433,366.423,92.016z"/>
		<path style="opacity:0.6;fill:#FFFFFF;" d="M334.024,92.535l-8.27-0.49c0,0,3.57,1.64,11.34,2.6c0,0,0.13,0.09,0.41,0.25
			c0.83,0.49,2.92,1.66,6.38,3.18c0.52,0.24,1.08,0.47,1.67,0.72c2.44,1.02,4.63,1.36,6.49,1.35c3.06-0.03,5.23-1.03,6.19-1.54
			c1.37-0.73,3.84-1.31,6.31-1.74c0.4-0.07,0.79-0.13,1.17-0.19h0.01c0.29-0.04,0.58-0.09,0.86-0.13c0.65-0.09,1.27-0.17,1.84-0.24
			c1.93-0.24,3.33-0.36,3.33-0.36l-3.06-1.8c0,0-0.36-1.71-2.27-2.13c-1.4-0.3-4.17,0.22-6.36,0.57c-1.16,0.19-2.15,0.32-2.71,0.26
			c-1.63-0.18-11.66-0.87-11.53-0.84c0,0-0.03,0-0.08,0c-0.67,0.05-5.3,0.39-6.58-0.21c-0.98-0.45-2.05-0.88-3.14-1.26
			c-0.01,0-0.01-0.01-0.02-0.01c-5.07-1.78-10.67-2.76-10.67-2.76L334.024,92.535z"/>
		<path style="opacity:0.2;enable-background:new    ;" d="M360.06,92.587c1.029,0.206,2.359,0.578,2.738,1.184
			c0.514,0.803,0.824,2.348,1.75,3.097c0.392-0.069,0.783-0.133,1.167-0.192l0.005,0.001c0.289-0.043,0.58-0.091,0.868-0.129
			c0.644-0.096,1.267-0.174,1.837-0.244c0.318-0.921,0.265-2.16,0.265-2.16s-0.36-1.71-2.267-2.128
			C365.023,91.712,362.255,92.239,360.06,92.587z"/>
		<path style="opacity:0.2;enable-background:new    ;" d="M334.024,92.53l-8.265-0.484c0,0,3.564,1.638,11.333,2.597
			c0,0,2.168,1.403,6.789,3.436c1.024-0.317-1.457-1.642-2.492-2.451c-1.334-1.05-1.149-0.843-0.528-1.122
			c0.622-0.284,0.038-0.504-1.585-1.212c-1.629-0.704-1.169-1.013-2.061-2.003c-0.195-0.215-0.632-0.481-1.195-0.754
			c-0.004-0.007-0.01-0.008-0.015-0.009c-5.069-1.785-10.67-2.764-10.67-2.764L334.024,92.53z"/>
		<polygon style="fill:#407BFF;" points="368.69,94.145 367.629,94.642 367.881,96.37 371.754,95.941 		"/>
		<path style="fill:#FFFFFF;" d="M345.57,91.936"/>
		<path style="opacity:0.3;enable-background:new    ;" d="M337.504,94.895c0.83,0.49,2.92,1.66,6.38,3.18
			c0.52,0.24,1.08,0.47,1.67,0.72c2.44,1.02,4.63,1.36,6.49,1.35c2.02-2.08,2.96-4.21,2.96-4.21s-0.59-1.78-3.69-2.89
			C349.274,92.325,342.154,93.795,337.504,94.895z"/>
		<g>
			<g>
				<path style="fill:#407BFF;" d="M354.942,92.915c-3.871-2.019-25.978,6.814-35.077,7.22c0,0,8.703,3.043,18.857,2.252
					C348.876,101.596,359.03,95.047,354.942,92.915z"/>
				<path style="opacity:0.6;fill:#FFFFFF;" d="M319.862,100.138c0,0,8.71,3.04,18.86,2.25c10.15-0.79,20.31-7.34,16.22-9.47
					c-0.91-0.48-2.85-0.35-5.39,0.13C341.352,94.598,326.811,99.828,319.862,100.138z"/>
			</g>
			<path style="opacity:0.2;enable-background:new    ;" d="M319.862,100.138c0,0,7.59,1.33,8.9,0.8c1.32-0.53,2.51-0.66,4.69-0.46
				c2.17,0.2,3.23-0.27,3.29-1.52c0.07-1.25,2.9-0.26,4.88-0.46c1.98-0.2,0.07-0.79,0.33-1.64c0.27-0.84,4.02-0.54,4.48-1.2
				c0.47-0.66-1.05-0.66,0-1.27c1.06-0.61,3.83-0.57,3.12-1.34C341.352,94.598,326.811,99.828,319.862,100.138z"/>
		</g>
	</g>
</g>
<g id="Water_2">
	<g>
		<path style="fill:#407BFF;" d="M330.306,399.111h141.705c0,0-1.78-3.94-19.582-1.979c-8.258,0.91-10.483-1.681-15.626-2.719
			c-5.143-1.039-8.703,2.968-17.011,2.349c-8.308-0.619-9.495-7.001-15.824-7.74c-7.344-0.857-5.934,4.905-12.659,5.617
			c-6.725,0.712-8.11-4.879-14.637-4.879c-6.897,0-10.91,8.287-24.84,4.565C337.901,390.604,330.306,399.111,330.306,399.111z"/>
		<path style="opacity:0.7;fill:#FFFFFF;enable-background:new    ;" d="M330.306,399.111h141.705c0,0-1.78-3.94-19.582-1.979
			c-8.258,0.91-10.483-1.681-15.626-2.719c-5.143-1.039-8.703,2.968-17.011,2.349c-8.308-0.619-9.495-7.001-15.824-7.74
			c-7.344-0.857-5.934,4.905-12.659,5.617c-6.725,0.712-8.11-4.879-14.637-4.879c-6.897,0-10.91,8.287-24.84,4.565
			C337.901,390.604,330.306,399.111,330.306,399.111z"/>
	</g>
	<g>
		<path style="fill:#407BFF;" d="M24.8,399.111h141.705c0,0-1.78-3.94-19.582-1.979c-8.258,0.91-10.483-1.681-15.626-2.719
			c-5.143-1.039-8.703,2.968-17.011,2.349c-8.308-0.619-9.495-7.001-15.824-7.74c-7.344-0.857-5.934,4.905-12.659,5.617
			c-6.725,0.712-8.11-4.879-14.637-4.879c-6.897,0-10.91,8.287-24.84,4.565S24.8,399.111,24.8,399.111z"/>
		<path style="opacity:0.7;fill:#FFFFFF;enable-background:new    ;" d="M24.8,399.111h141.705c0,0-1.78-3.94-19.582-1.979
			c-8.258,0.91-10.483-1.681-15.626-2.719c-5.143-1.039-8.703,2.968-17.011,2.349c-8.308-0.619-9.495-7.001-15.824-7.74
			c-7.344-0.857-5.934,4.905-12.659,5.617c-6.725,0.712-8.11-4.879-14.637-4.879c-6.897,0-10.91,8.287-24.84,4.565
			S24.8,399.111,24.8,399.111z"/>
	</g>
</g>
<g id="Character">
	<g>
		<path style="fill:#407BFF;" d="M376.76,268.45l-125.35,12.45c26.96-72.13-19.57-141.57-19.57-141.57
			c72.12,8.3,127.7-9.4,128.72-9.72c0.01-0.01,0.01-0.01,0.01-0.01C409.661,175.2,376.76,268.45,376.76,268.45z"/>
		<path style="opacity:0.2;enable-background:new    ;" d="M374.872,266.851c0,0,12.311-72.993-10.11-124.158
			c0,0,17.246,68.386-6.649,115.454c-29.523-9.066-66.412,4.674-66.412,4.674c23.2-4.63,47.15,1.31,48.23,1.58
			c-38.99-5.48-81.36,11.48-81.92,11.7c0.46-0.57,16.25-20.57,13.52-59.69c-2.73-39.08-31.14-68.56-32.03-69.47
			c30.86,20.17,72.69,11.6,72.69,11.6c-36.75,5.23-69.8-15.27-70.71-15.84c1.03,0.36,42.73,14.8,76.33,7.3
			c33.5-7.48,42.48-20,42.75-20.39c-1.02,0.32-56.6,18.02-128.72,9.72c0,0,46.53,69.44,19.57,141.57l125.35-12.45
			C376.144,267.894,375.511,267.366,374.872,266.851L374.872,266.851z"/>
		
			<rect x="226.388" y="131.891" transform="matrix(0.9963 -0.0854 0.0854 0.9963 -10.3386 25.5553)" width="134.281" height="3.453"/>
		<rect x="245.051" y="272.23" transform="matrix(0.9963 -0.0854 0.0854 0.9963 -22.2554 27.662)" width="134.281" height="3.453"/>
		
			<rect x="226.388" y="131.891" transform="matrix(0.9963 -0.0854 0.0854 0.9963 -10.3386 25.5553)" style="opacity:0.3;fill:#FFFFFF;enable-background:new    ;" width="134.281" height="3.453"/>
		
			<rect x="245.051" y="272.23" transform="matrix(0.9963 -0.0854 0.0854 0.9963 -22.2554 27.662)" style="opacity:0.3;fill:#FFFFFF;enable-background:new    ;" width="134.281" height="3.453"/>
	</g>
	<g id="_x3C_Group_x3E__14_">
		<path style="fill:#EBB376;" d="M267.353,208.363l11.153-0.527c0,0,0.056-1.871,1.111-2.584c1.055-0.713,9.626-1.8,9.626-1.8
			s1.319,5.703,0,7.417c-1.319,1.714-8.44,2.901-9.099,2.505c-0.659-0.396-1.385-1.319-1.385-1.319l-9.56,1.395L267.353,208.363z"/>
		<path style="fill:#407BFF;" d="M228.326,188.202c11.335,1.831,22.214,11.326,26.566,14.689c4.352,3.363,18.72,4.627,18.72,4.627
			v7.242c0,0-9.423,4.945-20.302,3.758c-10.879-1.187-28.088-16.874-28.088-16.874L228.326,188.202z"/>
		<path style="opacity:0.6;fill:#FFFFFF;enable-background:new    ;" d="M273.611,207.52v7.24c0,0-9.42,4.94-20.3,3.76
			c-5.67-0.62-13.06-5.18-18.84-9.4c-5.31-3.88-9.25-7.48-9.25-7.48l1.14-4.95l1.96-8.49c11.34,1.83,22.22,11.33,26.57,14.69
			C259.241,206.25,273.611,207.52,273.611,207.52z"/>
		<polygon style="fill:#407BFF;" points="272.1,206.358 272.1,216.407 274.741,215.452 274.741,206.358 		"/>
		<polygon style="opacity:0.7;fill:#FFFFFF;enable-background:new    ;" points="272.1,206.358 272.1,216.407 274.741,215.452 
			274.741,206.358 		"/>
		<path style="opacity:0.2;enable-background:new    ;" d="M234.471,209.12c-5.31-3.88-9.25-7.48-9.25-7.48l1.14-4.95
			c0.5,0.04,1.08,0.19,1.74,0.47C228.102,197.16,235.012,202.22,234.471,209.12z"/>
		<path style="fill:#EBB376;" d="M159.88,151.262v-7.847c0,0-2.416-1.67-2.126-2.171c0.29-0.501-0.338-7.847-0.024-9.016
			c0.314-1.169,6.774-4.007,6.967-3.673c0.193,0.334,1.529,10.158,1.195,11.34c-0.334,1.182-2.338,2.518-2.338,2.518l-0.167,9.851
			L159.88,151.262z"/>
		<path style="fill:#407BFF;" d="M188.305,182.132c-8.776-3.571-22.881-22.165-23.839-33.637l-6.892,2.769
			c0,0-4.549,24.036,3.165,33.48c7.714,9.443,25.15,11.633,25.15,11.633L188.305,182.132z"/>
		<path style="opacity:0.6;fill:#FFFFFF;enable-background:new    ;" d="M188.302,182.13l-1.66,9.79l-0.75,4.46
			c0,0-6.9-0.87-13.94-3.86c-4.15-1.77-8.35-4.28-11.21-7.78c-7.72-9.44-3.17-33.48-3.17-33.48l6.89-2.77
			C165.421,159.97,179.531,178.56,188.302,182.13z"/>
		<path style="opacity:0.2;enable-background:new    ;" d="M186.642,191.92l-0.75,4.46c0,0-6.9-0.87-13.94-3.86
			C176.912,191.48,183.582,191.73,186.642,191.92z"/>
		<g>
			<path style="fill:#263238;" d="M217.452,230.132h-37.817c-3.596,19.635-14.851,99.365-6.776,161.274h12.803
				c0,0-1.185-94.023,10.118-124.406c1.3,16.261,14.517,124.343,14.517,124.343h13.034c0,0-1.946-40.658-3.897-79.064
				C218.204,288.096,217.504,235.097,217.452,230.132z"/>
			<path style="opacity:0.2;enable-background:new    ;" d="M195.777,267.003c-1.668,4.478-3.055,10.07-4.224,16.36
				c-1.058-14.47,3.172-29.817,3.172-29.817L195.777,267.003z"/>
		</g>
		<path style="fill:#263238;" d="M212.861,390.583h8.656c0.292,0.001,0.544,0.204,0.607,0.489l1.405,6.345
			c0.12,0.568-0.243,1.126-0.811,1.246c-0.076,0.016-0.154,0.024-0.231,0.023c-2.801-0.045-4.84-0.218-8.357-0.218
			c-2.166,0-8.701,0.227-11.692,0.227c-2.991,0-3.381-2.955-2.157-3.227c5.492-1.196,9.625-2.855,11.384-4.432
			C211.991,390.737,212.419,390.575,212.861,390.583z"/>
		<path style="fill:#263238;" d="M176.154,390.357h8.656c0.292,0.002,0.544,0.205,0.607,0.49l1.405,6.345
			c0.12,0.568-0.243,1.126-0.811,1.246c-0.076,0.016-0.154,0.024-0.231,0.023c-2.801-0.045-4.84-0.218-8.357-0.218
			c-2.166,0-8.701,0.227-11.692,0.227c-2.991,0-3.381-2.955-2.157-3.227c5.493-1.196,9.626-2.855,11.384-4.432
			C175.283,390.511,175.712,390.348,176.154,390.357z"/>
		<g>
			<polygon points="184.528,234.718 178.831,234.649 179.317,230.585 184.528,230.585 			"/>
			<polygon points="205.148,230.585 217.384,230.585 217.384,235.117 205.148,234.968 			"/>
			<polygon points="203.789,234.952 185.888,234.734 185.888,230.585 203.789,230.585 			"/>
		</g>
		<rect x="189.627" y="229.792" style="fill:#FFFFFF;" width="7.041" height="5.073"/>
		<path style="fill:#407BFF;" d="M217.384,230.585h-38.067c0,0-0.485-27.166,8.988-48.454l40.021,6.07
			c1.829,0.277,2.87,2.238,2.076,3.909C227.284,198.668,220.559,214.028,217.384,230.585z"/>
		<path style="opacity:0.6;fill:#FFFFFF;enable-background:new    ;" d="M217.384,230.585h-38.067c0,0-0.485-27.166,8.988-48.454
			l40.021,6.07c1.829,0.277,2.87,2.238,2.076,3.909C227.284,198.668,220.559,214.028,217.384,230.585z"/>
		<path style="fill:#407BFF;" d="M201.873,201.643c0,0,12.292-6.396,16.045-10.423h7.303c0,0-4.143-8.233-13.148-10.051
			c-9.006-1.818-13.697,2.213-16.296,0c0,0-0.095,4.314,2.708,6.094C198.484,187.264,197.513,194.857,201.873,201.643z"/>
		<path style="opacity:0.7;fill:#FFFFFF;enable-background:new    ;" d="M201.873,201.643c0,0,12.292-6.396,16.045-10.423h7.303
			c0,0-4.143-8.233-13.148-10.051c-9.006-1.818-13.697,2.213-16.296,0c0,0-0.095,4.314,2.708,6.094
			C198.484,187.264,197.513,194.857,201.873,201.643z"/>
		<path style="fill:#EBB376;" d="M203.062,184.743c0,0-3.089,3.312-1.245,15.575c0,0,12.54-7.856,14.511-13.423L203.062,184.743z"/>
		<path style="fill:#EBB376;" d="M204.971,188.269c0,0,7.958,1.451,11.357-1.373c-1.539-1.841-1.792-5.006-1.471-8.308
			c0.234-2.386,0.76-4.841,1.325-6.915c0.195-0.73,0.399-1.412,0.594-2.026l-10.217,6.886c0.02,0.156,0.039,0.312,0.059,0.477
			c0.049,0.467,0.098,0.945,0.107,1.412c0.039,1.188-0.068,2.338-0.448,3.351c-0.37,0.935-0.409,1.636-0.847,2.123
			c-0.36,0.419-1.013,0.691-2.367,0.847C201.942,186.263,204.971,188.269,204.971,188.269z"/>
		<path style="opacity:0.2;enable-background:new    ;" d="M205.429,183.896c2.883-0.555,6.74-1.987,9.428-5.308
			c0.234-2.386,0.76-4.841,1.325-6.915l-9.565,5.337c0.049,0.467,0.098,0.945,0.107,1.412c0.039,1.188-0.068,2.338-0.448,3.351
			C205.906,182.708,205.867,183.409,205.429,183.896z"/>
		<g>
			<path style="fill:#263238;" d="M215.194,175.769c3.5-0.374,5.4-0.964,4.818-3.352s-0.132-0.978,2.374-3.747
				c2.506-2.769,2.769-2.473,1.451-5.39c-1.319-2.917-0.791-5.643-0.132-8.038c0.659-2.395,0.564-3.45-2.224-4.637
				c-2.787-1.187-4.909-1.451-4.705-4.681c0.204-3.231-3.969-2.703-5.971-2.044c-2.002,0.659-2.77-1.187-2.77-1.187
				s-0.814,0.791,0.768,1.846c1.582,1.055,1.695,2.11,1.695,2.11s-2.817-1.319-4.366-1.451c-1.549-0.132-5.968,2.11-7.648,0.725
				c-1.681-1.385-4.186,0-4.186,0s2.374-0.462,2.901,0c0.528,0.462,0.965,2.439,2.527,1.912c0,0-3.054,2.769-5.428,1.714
				c-2.374-1.055-2.11,1.354-4.088,2.523c-1.978,1.169-2.242,0.114-3.033-0.809c-0.791-0.923-2.379,0-2.379,0s1.44-0.36,1.844,0.809
				c0.404,1.169,2.382,4.246,3.701,3.169c1.319-1.077,1.846,1.297,1.846,1.297s-1.451-0.659-2.242,0.264s-2.786,1.846-3.305,1.055
				c-0.519-0.791-0.519,3.492,1.063,3.197c1.582-0.296,2.242,2.242,2.769,2.226c0.527-0.016,2.242,0,2.242,0
				s-0.132,2.408-1.846,2.185c-1.714-0.223-2.565,1.302-2.565,1.302s1.642-0.717,2.301,0s3.483,4.582,5.17,3.375
				c0,0,2.742,3.628,8.149,5.628C209.331,177.769,215.194,175.769,215.194,175.769z"/>
			<path style="fill:#263238;" d="M199.191,153.188c0,0-2.888,9.362,1.645,13.806c4.534,4.444,7.199-13.388,7.199-13.388
				L199.191,153.188z"/>
			<path style="fill:#EBB376;" d="M214.459,176.814c-2.997,3.177-7.159,3.504-10.487,1.877c-2.14-1.043-3.932-2.902-4.854-5.327
				c-0.125-0.317-0.229-0.649-0.322-0.988c-1.627-6.228-0.893-16.586,5.871-19.499c4.808-2.111,10.43,0.076,12.539,4.894
				c0.609,1.366,0.874,2.861,0.795,4.359C217.739,169.087,217.912,173.189,214.459,176.814z"/>
			<path style="fill:#263238;" d="M207.478,164.294c0.051,0.561-0.274,1.03-0.651,1.037c-0.376,0.007-0.678-0.45-0.693-1.014
				c-0.015-0.564,0.283-1.031,0.651-1.038C207.152,163.273,207.462,163.721,207.478,164.294z"/>
			<path style="fill:#263238;" d="M201.071,164.427c0.051,0.561-0.283,1.031-0.651,1.038c-0.367,0.006-0.678-0.45-0.694-1.014
				c-0.015-0.564,0.283-1.031,0.651-1.038C200.745,163.406,201.058,163.89,201.071,164.427z"/>
			<path style="fill:#D58745;" d="M203.113,164.664c-0.639,1.747-1.516,3.398-2.607,4.905c0.8,0.547,1.801,0.712,2.734,0.452
				L203.113,164.664z"/>
			<path style="fill:#263238;" d="M198.676,161.845c0.114,0.05,0.245,0.036,0.346-0.038c0.662-0.527,1.534-0.711,2.353-0.497
				c0.172,0.062,0.361-0.027,0.424-0.199c0.062-0.172-0.027-0.361-0.199-0.423c0,0-0.001,0-0.001-0.001
				c-1.028-0.298-2.137-0.079-2.974,0.587c-0.149,0.106-0.183,0.313-0.077,0.461c0.002,0.002,0.003,0.004,0.005,0.007
				C198.587,161.783,198.629,161.818,198.676,161.845z"/>
			<path style="fill:#263238;" d="M208.686,161.721c0.067-0.003,0.132-0.027,0.184-0.068c0.119-0.138,0.104-0.347-0.034-0.467
				c-0.002-0.002-0.004-0.003-0.005-0.005c-0.808-0.707-1.909-0.977-2.953-0.723c-0.175,0.053-0.273,0.238-0.219,0.413l0,0.001
				c0.058,0.172,0.24,0.268,0.414,0.219l0,0c0.829-0.176,1.693,0.05,2.33,0.61C208.489,161.749,208.593,161.756,208.686,161.721z"/>
			<path style="fill:#263238;" d="M212.715,153.552l-0.642,1.304c2.279,0.813,1.752,3.468,1.256,4.664
				c-1.06,2.554,0.296,6.595,2.233,8.244c0,0,0.092-1.116,1.027-0.826c0.936,0.291,0.519,6.104-1.395,8.831
				c0,0,2.85-2.436,4.586-8.505c1.605-5.613,1.913-10.318,0.81-12.535L212.715,153.552z"/>
			<path style="fill:#EBB376;" d="M221.161,167.773c-0.74,1.591-2.08,2.824-3.726,3.428c-2.186,0.785-3.446-1.133-2.984-3.286
				c0.429-1.91,2.071-4.682,4.338-4.517C221.055,163.563,222.044,165.809,221.161,167.773z"/>
			<path style="fill:#263238;" d="M215.166,165.313l-0.82-0.653c0,0,0.027,3.747-1.286,4.608c0,0-4.103-0.162-5.566,0.012
				c-1.464,0.175-2.546,1.67-2.546,1.67s-3.06-1.139-4.784,1.035c0,0-1.532-1.713-2.094-4.055c0,0-0.878,6.718,2.357,10.84
				c3.234,4.122,9.633,3.247,12.886,0.869C216.564,177.261,215.166,165.313,215.166,165.313z"/>
			<path style="opacity:0.2;fill:#FFFFFF;" d="M215.166,165.313l-0.82-0.653c0,0,0.027,3.747-1.286,4.608
				c0,0-4.103-0.162-5.566,0.012c-1.464,0.175-2.546,1.67-2.546,1.67s-3.06-1.139-4.784,1.035c0,0-1.532-1.713-2.094-4.055
				c0,0-0.878,6.718,2.357,10.84c3.234,4.122,9.633,3.247,12.886,0.869C216.564,177.261,215.166,165.313,215.166,165.313z"/>
			<g>
				<path style="fill:#263238;" d="M204.658,173.106c0.719,0.833,1.676,2.508,1.676,2.508c0.167-0.059,0.335-0.119,0.499-0.187
					c2.249-0.862,3.008-2.004,3.167-3.01c0.085-0.55-0.017-1.064-0.152-1.462c-0.151-0.463-0.365-0.758-0.365-0.758
					c-0.919,1.169-2.954,2.134-4.063,2.604C204.958,173.002,204.658,173.106,204.658,173.106z"/>
				<path style="fill:#FFFFFF;" d="M205.42,172.801l0.513,0.727c2.117-0.817,3.497-1.676,3.914-2.572
					c-0.151-0.463-0.365-0.758-0.365-0.758C208.563,171.366,206.528,172.331,205.42,172.801z"/>
				<path style="fill:#DE5753;" d="M206.832,175.427c2.249-0.862,3.008-2.004,3.167-3.01c-0.755,0.323-1.63,0.797-2.308,1.452
					C207.171,174.368,206.935,174.92,206.832,175.427z"/>
			</g>
			<path style="fill:#263238;" d="M216.776,153.943c0,0-0.983-2.943-3.884-3.932c-2.901-0.989-9.059-0.527-11.815,0.989
				c-2.756,1.516-5.525,2.552-5.525,2.552s2.152,0.459,4.175,1.69c2.023,1.231,6.987,0.374,6.987,0.374s-2.047,0.527-2.055,1.121
				c-0.008,0.593-0.811,1.319-1.497,0.989c-0.686-0.33,0.384,1.187,1.497,0.725c1.113-0.462,0.118-1.714,1.506-1.187
				c1.387,0.527,2.46,1.846,3.836,0.396c1.376-1.451,1.863,0.066,4.356-0.989C216.848,155.615,216.776,153.943,216.776,153.943z"/>
		</g>
		<polygon style="fill:#407BFF;" points="156.24,150.363 164.465,146.923 164.465,149.495 156.24,153.073 		"/>
		<polygon style="opacity:0.7;fill:#FFFFFF;enable-background:new    ;" points="156.24,150.363 164.465,146.923 164.465,149.495 
			156.24,153.073 		"/>
	</g>
	<g>
		<g>
			
				<rect x="287.031" y="98.648" transform="matrix(0.9984 -0.0566 0.0566 0.9984 -13.3127 16.7894)" width="5.536" height="289.627"/>
			
				<rect x="287.031" y="98.648" transform="matrix(0.9984 -0.0566 0.0566 0.9984 -13.3127 16.7894)" style="opacity:0.4;fill:#FFFFFF;enable-background:new    ;" width="5.536" height="289.627"/>
		</g>
		<g>
			<path style="fill:#407BFF;" d="M112.556,366.187l14.576,47.077h224.703c0,0,24.132-25.714,33.231-56.176
				C385.066,357.089,208.354,370.935,112.556,366.187z"/>
			<path style="opacity:0.2;fill:#FFFFFF;enable-background:new    ;" d="M385.071,357.091c-1.3,4.35-2.91,8.6-4.71,12.7
				c-0.16,0.37-0.32,0.74-0.49,1.11c-1.49,3.31-3.1,6.51-4.78,9.57c-0.2,0.38-0.41,0.75-0.62,1.12c-1.9,3.41-3.86,6.64-5.81,9.64
				c-0.24,0.38-0.49,0.75-0.73,1.12c-2.15,3.26-4.25,6.22-6.2,8.83c-0.28,0.37-0.55,0.73-0.82,1.09
				c-5.21,6.88-9.07,10.99-9.07,10.99H127.13l-2.48-8.01l-0.31-1.01l-2.41-7.79l-0.32-1.02l-2.45-7.91l-0.31-1.02l-2.44-7.88
				l-0.32-1.02l-3.53-11.41C208.351,370.931,385.071,357.091,385.071,357.091z"/>
			<g style="opacity:0.2;">
				<path d="M380.36,369.791c-0.16,0.37-0.32,0.74-0.49,1.11c-35.86,6.37-89.53,9.56-160.27,9.56c-29.25,0-61.42-0.55-96.45-1.64
					c-2.7-0.09-4.99-0.16-6.74-0.2l-0.32-1.02c1.67,0.05,3.99,0.12,7.09,0.22C243.42,381.581,329.851,378.881,380.36,369.791z"/>
			</g>
			<g style="opacity:0.2;">
				<path d="M375.091,380.471c-0.2,0.38-0.41,0.75-0.62,1.12c-34.03,5.44-82.65,8.17-145.3,8.17c-31.72,0-67.05-0.7-105.9-2.1
					c-1.5-0.05-2.88-0.1-4.11-0.14l-0.31-1.02c1.26,0.05,2.74,0.1,4.46,0.16C239.43,390.861,323.98,388.771,375.091,380.471z"/>
			</g>
			<g style="opacity:0.2;">
				<path d="M368.661,391.231c-0.24,0.38-0.49,0.75-0.73,1.12c-31.94,4.5-75.44,6.76-130.12,6.76c-33.88,0-72.04-0.87-114.41-2.6
					c-0.5-0.02-0.99-0.04-1.47-0.06l-0.32-1.02c0.58,0.03,1.19,0.05,1.83,0.08C234.77,400.071,317.061,398.621,368.661,391.231z"/>
			</g>
			<g style="opacity:0.2;">
				<path d="M361.73,401.181c-0.28,0.37-0.55,0.73-0.82,1.09c-32.1,3.34-74.21,5.02-125.99,5.02c-32.89,0-69.67-0.68-110.27-2.04
					l-0.31-1.01C229.63,407.771,309.25,406.731,361.73,401.181z"/>
			</g>
			<g>
				<path style="fill:#407BFF;" d="M380.978,359.067c0,0-3.991,20.621-31.912,54.194l4.22,0.004c0,0,21.635-19.912,31.784-54.198
					H380.978z"/>
				<path style="fill:#407BFF;" d="M297.615,364.605c0,0-2.901,26.63-11.868,48.656h-4.22c0,0,6.066-13.051,10.813-48.656H297.615z"
					/>
				<polygon style="fill:#407BFF;" points="116.091,366.355 130.165,413.396 125.946,413.396 111.561,366.191 				"/>
				<path style="fill:#407BFF;" d="M192.31,366.942c0,0,2.405,25.084,8.471,46.319h4.747c0,0-5.802-16.29-9.231-46.319H192.31z"/>
				<g style="opacity:0.1;enable-background:new    ;">
					<path style="fill:#FFFFFF;" d="M380.978,359.067c0,0-3.991,20.621-31.912,54.194l4.22,0.004c0,0,21.635-19.912,31.784-54.198
						H380.978z"/>
					<path style="fill:#FFFFFF;" d="M297.615,364.605c0,0-2.901,26.63-11.868,48.656h-4.22c0,0,6.066-13.051,10.813-48.656H297.615z
						"/>
					<polygon style="fill:#FFFFFF;" points="116.091,366.355 130.165,413.396 125.946,413.396 111.561,366.191 					"/>
					<path style="fill:#FFFFFF;" d="M192.31,366.942c0,0,2.405,25.084,8.471,46.319h4.747c0,0-5.802-16.29-9.231-46.319H192.31z"/>
				</g>
			</g>
			<path style="fill:#407BFF;" d="M106.254,360.53c0,0,176.023,8.211,283-7.703l-2,8.265c0,0-144.198,17.755-278,8.261
				L106.254,360.53z"/>
		</g>
		<path style="fill:#263238;" d="M286.477,136.455c-0.087,0-0.176-0.023-0.256-0.071l-5.74-3.438
			c-0.237-0.142-0.314-0.449-0.172-0.686c0.142-0.238,0.449-0.313,0.686-0.172l5.74,3.438c0.237,0.142,0.314,0.449,0.172,0.686
			C286.813,136.368,286.647,136.455,286.477,136.455z"/>
		<path style="fill:#263238;" d="M280.959,136.928c-0.156,0-0.31-0.073-0.408-0.209c-0.16-0.225-0.108-0.537,0.117-0.698
			l5.518-3.938c0.225-0.161,0.537-0.108,0.698,0.116c0.16,0.225,0.108,0.537-0.117,0.698l-5.519,3.938
			C281.161,136.898,281.06,136.928,280.959,136.928z"/>
		<path style="fill:#263238;" d="M295.02,277.66c-0.071,0-0.143-0.015-0.212-0.047l-6.249-2.93c-0.25-0.117-0.357-0.415-0.24-0.665
			c0.117-0.25,0.414-0.359,0.665-0.241l6.249,2.93c0.25,0.117,0.357,0.415,0.24,0.665C295.388,277.554,295.207,277.66,295.02,277.66
			z"/>
		<path style="fill:#263238;" d="M288.966,278.18c-0.158,0-0.314-0.074-0.411-0.214c-0.158-0.227-0.103-0.538,0.124-0.696
			l5.335-3.724c0.227-0.156,0.539-0.103,0.696,0.124c0.158,0.227,0.103,0.538-0.124,0.696l-5.334,3.724
			C289.165,278.15,289.065,278.18,288.966,278.18z"/>
	</g>
</g>
<g id="Water_1">
	<g>
		<path style="fill:#407BFF;" d="M450.942,416.238h-24.34l-24.575-0.886c-0.516-0.688-1.609-1.585-3.906-1.955
			c-3.956-0.638-16.137,1.034-17.761,0c-1.624-1.034,0.508-4.057-3.525-6.106c-4.033-2.049-11.145,6.645-15.105,4.474
			s-2.774-13.292-8.708-13.27c-5.934,0.022,1.583,9.517-2.374,11.099c-3.956,1.582-46.862-4.663-69.122-8.135
			c-22.26-3.473-11.186-1.25-10.395,4.629c0.791,5.88-19.384,1.098-49.846-1.852c-30.461-2.95-35.604,6.149-43.516,6.94
			c-7.912,0.791-21.073-8.171-31.701-6.261c-10.628,1.91-5.486,4.679-11.815,5.074c-6.33,0.396-20.906-10.32-21.693-5.753
			c-0.787,4.567,5.939,3.775,3.53,6.545c-2.409,2.769-15.349-1.201-19.815-0.789c-4.466,0.412-3.956,3.269-3.956,3.269
			s-12.873-1.71-11.868,2.977H55.614c0.791,3.48,1.978,2.059,34.66,3.245c32.682,1.187,16.011,3.874,20.193,8.078
			c4.182,4.204,44.47-1.697,62.641,0c18.171,1.697,1.187,4.581,11.418,7.746c10.231,3.165,56.23,0,67.772,1.187
			c11.542,1.187-2.443,4.747,33.557,5.143c36,0.396,20.411-1.483,26.335-4.352c8.171-3.956,26.28-3.165,31.939-4.352
			c5.659-1.187,2.639-5.373,14.913-5.373c12.274,0,56.572,0.625,61.714,0c5.143-0.625,1.583-7.287,18.016-7.368
			C455.205,420.112,450.942,416.238,450.942,416.238z"/>
		<path style="opacity:0.7;fill:#FFFFFF;enable-background:new    ;" d="M450.942,416.238h-24.34l-24.575-0.886
			c-0.516-0.688-1.609-1.585-3.906-1.955c-3.956-0.638-16.137,1.034-17.761,0c-1.624-1.034,0.508-4.057-3.525-6.106
			c-4.033-2.049-11.145,6.645-15.105,4.474s-2.774-13.292-8.708-13.27c-5.934,0.022,1.583,9.517-2.374,11.099
			c-3.956,1.582-46.862-4.663-69.122-8.135c-22.26-3.473-11.186-1.25-10.395,4.629c0.791,5.88-19.384,1.098-49.846-1.852
			c-30.461-2.95-35.604,6.149-43.516,6.94c-7.912,0.791-21.073-8.171-31.701-6.261c-10.628,1.91-5.486,4.679-11.815,5.074
			c-6.33,0.396-20.906-10.32-21.693-5.753c-0.787,4.567,5.939,3.775,3.53,6.545c-2.409,2.769-15.349-1.201-19.815-0.789
			c-4.466,0.412-3.956,3.269-3.956,3.269s-12.873-1.71-11.868,2.977H55.614c0.791,3.48,1.978,2.059,34.66,3.245
			c32.682,1.187,16.011,3.874,20.193,8.078c4.182,4.204,44.47-1.697,62.641,0c18.171,1.697,1.187,4.581,11.418,7.746
			c10.231,3.165,56.23,0,67.772,1.187c11.542,1.187-2.443,4.747,33.557,5.143c36,0.396,20.411-1.483,26.335-4.352
			c8.171-3.956,26.28-3.165,31.939-4.352c5.659-1.187,2.639-5.373,14.913-5.373c12.274,0,56.572,0.625,61.714,0
			c5.143-0.625,1.583-7.287,18.016-7.368C455.205,420.112,450.942,416.238,450.942,416.238z"/>
		<path style="opacity:0.4;fill:#FFFFFF;" d="M391.176,417.901c-1.608-2.297-11.341,2.374-13.714,0
			c-2.374-2.374,1.124-9.801-8.801-4.505c-9.924,5.296-9.39,4.916-11.899,1.677c-2.509-3.238-5.938-2.3-3.828,0
			c2.11,2.3-8.703,3.238-17.934,0c-9.231-3.238-32.967-4.937-27.956,0c5.011,4.938-8.967,0.82-13.187,1.165
			c-4.22,0.344-0.396,3.144-4.286,3.854c-3.89,0.71-31.693,1.473-29.208,1.765c4.484,0.528,140.044,0,140.044,0
			s-2.374-1.156-8.176-1.765C392.231,420.092,393.022,420.539,391.176,417.901z"/>
		<path style="opacity:0.4;fill:#FFFFFF;" d="M205.528,431.352c-0.731,1.218,51.619,0,54.677,0.791
			c3.058,0.791,8.069,2.374,13.607,1.582c5.538-0.791,26.374,0.959,29.538,0.216c3.165-0.743-1.582-5.422-4.22-6.379
			c-2.637-0.957-1.517,3.284-1.517,3.284s-4.813,0.31-10.879-3.284c-6.066-3.594-9.231,0.098-7.912,1.944
			c1.319,1.846-6.857,4.066-11.341,0.583c-4.483-3.484-7.278,0-7.278,0S207.111,428.714,205.528,431.352z"/>
		<path style="opacity:0.4;fill:#FFFFFF;" d="M248.225,416.812c-5.247-3.55-22.149-7.878-37.973-7.35
			c-15.824,0.528-10.819,6.168-13.585,6.777c-2.766,0.608-9.623,2.191-20.7-1.238c-11.077-3.429-11.868-1.124-11.868,1.812
			s-9.231,0.086-11.604,0.324c-2.374,0.238,0.264,3.301-2.637,2.957c-2.901-0.345-16.615-1.711-16.879,0.027h78.614
			c0,0-2.394-4.753,3.408-3.881c5.802,0.872,6.33,1.218,6.593-1.46c0.264-2.679,8.703-1.541,13.714,0
			c5.011,1.541,7.163,5.314,7.163,5.314s-0.425-3.28,2.665-3.28c3.09,0,1.835,3.307,1.835,3.307S250.785,418.543,248.225,416.812z"
			/>
	</g>
</g>
</svg>
