<?xml version="1.0" encoding="UTF-8"?>
<svg id="OBJECTS" xmlns="http://www.w3.org/2000/svg" xmlns:xlink="http://www.w3.org/1999/xlink" viewBox="0 0 748.69 477.84">
  <defs>
    <style>
      .cls-1 {
        fill: #8c4c1c;
      }

      .cls-2 {
        fill: #fff;
      }

      .cls-3, .cls-4, .cls-5, .cls-6, .cls-7, .cls-8, .cls-9, .cls-10, .cls-11, .cls-12, .cls-13, .cls-14, .cls-15, .cls-16, .cls-17, .cls-18 {
        fill: none;
      }

      .cls-3, .cls-4, .cls-6, .cls-8, .cls-9, .cls-11, .cls-14, .cls-15, .cls-16, .cls-17, .cls-18 {
        stroke-miterlimit: 10;
      }

      .cls-3, .cls-5 {
        stroke: #8c4c1c;
      }

      .cls-4 {
        stroke: #efb166;
      }

      .cls-5, .cls-7, .cls-10, .cls-12 {
        stroke-linejoin: round;
      }

      .cls-19 {
        fill: #efb166;
      }

      .cls-6, .cls-7, .cls-9, .cls-10, .cls-12, .cls-15, .cls-18 {
        stroke-width: 1.5px;
      }

      .cls-6, .cls-11 {
        stroke: #1c1212;
      }

      .cls-20 {
        fill: #e28765;
      }

      .cls-7, .cls-15 {
        stroke: #4166d8;
      }

      .cls-21 {
        fill: #d36629;
      }

      .cls-8 {
        stroke: #fff1c5;
      }

      .cls-22 {
        clip-path: url(#clippath-1);
      }

      .cls-9 {
        stroke: #4966c1;
      }

      .cls-23 {
        fill: #5371f2;
      }

      .cls-24 {
        fill: #4166d8;
      }

      .cls-10 {
        stroke: #d36629;
      }

      .cls-25 {
        fill: #5661b2;
      }

      .cls-26 {
        clip-path: url(#clippath);
      }

      .cls-27 {
        fill: #151639;
      }

      .cls-12, .cls-14 {
        stroke: #5371f2;
      }

      .cls-28 {
        fill: #7895f4;
      }

      .cls-29 {
        fill: #1c1212;
      }

      .cls-14, .cls-17 {
        stroke-linecap: round;
        stroke-width: 2.59px;
      }

      .cls-16 {
        stroke: #fce285;
      }

      .cls-17 {
        stroke: #5371ef;
      }

      .cls-30 {
        fill: #fce285;
      }

      .cls-18 {
        stroke: #404896;
      }

      .cls-31 {
        fill: #e88838;
      }

      .cls-32 {
        fill: #2723b3;
      }
    </style>
    <clipPath id="clippath">
      <rect class="cls-13" x="409.55" y="280.19" width="205.05" height="187.73"/>
    </clipPath>
    <clipPath id="clippath-1">
      <path class="cls-13" d="m546.99,389.86l-22.88-14.6-30.41-26.14-94.46,59.32c20.66,36.12,34.63,59.32,54.77,59.32h44.16c38.22,0,46.54-27.28,48.82-39.03,3.94-20.28,0-38.86,0-38.86Z"/>
    </clipPath>
  </defs>
  <g>
    <g>
      <path class="cls-24" d="m.34,470.07c-.22-1.82-.34-3.68-.34-5.56,0-25.89,20.99-46.89,46.89-46.89,2.83,0,5.59.26,8.29.74,9.29-27.55,35.31-47.39,65.99-47.39,32.99,0,60.61,22.95,67.8,53.75,7.2-4.5,15.7-7.11,24.81-7.11,20.46,0,37.85,13.11,44.25,31.38,6.76-5.25,15.24-8.39,24.47-8.39,18.42,0,33.92,12.48,38.52,29.45H.34Z"/>
      <g>
        <path class="cls-14" d="m210.59,416.69s-22.4,2.07-35.99,20.62"/>
        <path class="cls-14" d="m142.36,423.13s22.71,1.04,36.29,19.59"/>
      </g>
    </g>
    <g>
      <path class="cls-24" d="m728.86,470.07c.22-1.82.34-3.68.34-5.56,0-25.89-20.99-46.89-46.89-46.89-2.83,0-5.59.26-8.29.74-9.29-27.55-35.31-47.39-65.99-47.39-32.99,0-60.61,22.95-67.8,53.75-7.2-4.5-15.7-7.11-24.81-7.11-20.46,0-37.85,13.11-44.25,31.38-6.76-5.25-15.24-8.39-24.47-8.39-18.42,0-33.92,12.48-38.52,29.45h320.67Z"/>
      <g>
        <path class="cls-14" d="m518.62,416.69s22.4,2.07,35.99,20.62"/>
        <path class="cls-14" d="m586.85,423.13s-22.71,1.04-36.29,19.59"/>
      </g>
    </g>
    <g>
      <g>
        <path class="cls-28" d="m340.21,162.85c-4.21-4.07-11.53-3.85-14.68,1.3.34-6.73.61-13.84-2.15-19.81-4.34-9.39-15.34-12.91-24.35-10.09-9.01,2.81-16.19,10.59-21.74,19.12-3.16-7.43-11.87-9.53-19-7.92-13.55,3.06-22.32,19.05-23.62,34.65h109.81c1.21-6.12-.05-13.18-4.26-17.25Z"/>
        <path class="cls-17" d="m277.19,153.18c2.09,5.26,3.13,11.06,3.01,16.83"/>
        <path class="cls-17" d="m325.3,164.15c-1.49,2.88-2.4,6.14-2.66,9.46"/>
        <path class="cls-28" d="m308.78,203.46c-.91,4.29-5.13,7.78-9.43,7.78s-7.04-3.48-6.12-7.78c.72-3.41,8.29-15.97,11.38-21.01.46-.76,1.62-.54,1.78.33.98,5.24,3.1,17.34,2.39,20.68Z"/>
        <path class="cls-28" d="m268.27,218.23c-.91,4.29-5.13,7.78-9.43,7.78s-7.04-3.48-6.12-7.78c.72-3.41,8.29-15.97,11.38-21.01.46-.76,1.62-.54,1.78.33.98,5.24,3.1,17.34,2.39,20.68Z"/>
      </g>
      <g>
        <path class="cls-28" d="m451.64,29.54c4.21-4.07,11.53-3.85,14.68,1.3-.34-6.73-.61-13.84,2.15-19.81,4.34-9.39,15.34-12.91,24.35-10.09,9.01,2.81,16.19,10.59,21.74,19.12,3.16-7.43,11.87-9.53,19-7.92,13.55,3.06,22.32,19.05,23.62,34.65h-109.81c-1.21-6.12.05-13.18,4.26-17.25Z"/>
        <path class="cls-17" d="m514.66,19.87c-2.09,5.26-3.13,11.06-3.01,16.83"/>
        <path class="cls-17" d="m466.56,30.84c1.49,2.88,2.4,6.14,2.66,9.46"/>
      </g>
      <g>
        <path class="cls-28" d="m262.05,48.09c-4.21-4.07-11.53-3.85-14.68,1.3.34-6.73.61-13.84-2.15-19.81-4.34-9.39-15.34-12.91-24.35-10.09-9.01,2.81-16.19,10.59-21.74,19.12-3.16-7.43-11.87-9.53-19-7.92-13.55,3.06-22.32,19.05-23.62,34.65h109.81c1.21-6.12-.05-13.18-4.26-17.25Z"/>
        <path class="cls-17" d="m199.03,38.41c2.09,5.26,3.13,11.06,3.01,16.83"/>
        <path class="cls-17" d="m247.13,49.39c-1.49,2.88-2.4,6.14-2.66,9.46"/>
      </g>
    </g>
  </g>
  <g class="cls-26">
    <g>
      <g>
        <path class="cls-10" d="m572.3,310.63c-22.65,34.16-35.07,75.05-35.26,116.07"/>
        <path class="cls-21" d="m556.83,337.19c-1.48-1.8-2.61-3.85-3.07-6.06-.46-2.21-.97-6.38.85-6.68s2.38,3.15,2.7,5.04c.32,1.88.41,5.66.26,7.58"/>
        <path class="cls-21" d="m549.16,355.83c-2.34-2.73-4.24-5.88-5.24-9.34-1-3.45-2.39-10.01.09-10.62,2.48-.62,3.81,4.79,4.56,7.75s1.48,8.92,1.59,11.96"/>
        <path class="cls-21" d="m555.49,341.8c2.56-.44,5.08-1.32,7.23-2.79,2.15-1.46,5.94-4.47,4.85-5.96-1.09-1.49-4.33.91-6.11,2.21-1.78,1.3-4.94,4.28-6.4,5.93"/>
        <path class="cls-21" d="m548.69,359.63c3.34.16,6.74-.26,9.84-1.51,3.1-1.25,8.7-3.98,7.73-6.15-.97-2.17-5.69-.04-8.29,1.1-2.59,1.14-7.38,4.02-9.68,5.68"/>
        <path class="cls-21" d="m542.63,378.59c-2.68-3.12-4.85-6.74-6-10.69s-2.73-11.46.1-12.16,4.36,5.49,5.22,8.87c.86,3.38,1.61,8.65,1.74,12.14"/>
        <path class="cls-21" d="m542.14,382.99c3.82.18,7.71-.3,11.27-1.73s9.96-4.56,8.85-7.04c-1.11-2.48-6.52-.05-9.49,1.25s-8.45,4.6-11.08,6.51"/>
        <g>
          <path class="cls-2" d="m576.11,309.36s-.01,0-.02,0c-.29.02-.59.05-.87-.04-.25-.08-.46-.24-.67-.39-2.72-2.01-5.99-3.28-9.36-3.63-.64-.07-1.3-.1-1.89.14-.6.23-1.11.8-1.08,1.44.02.63.52,1.13,1.04,1.47.52.34,1.12.6,1.54,1.07-4.03-.53-8.27.82-11.25,3.6-.72.67-1.38,1.78-.78,2.54.32.4.87.52,1.38.59,1.96.27,3.97.26,5.93-.02-1.04.32-2.1.57-3.07,1.05-.97.48-1.87,1.22-2.26,2.24-.39,1.01-.15,2.31.74,2.93.64.45,1.48.48,2.27.42,3-.2,5.84-1.38,8.61-2.54-.34,2.24-.34,4.71.98,6.54.43.6,1.03,1.12,1.75,1.29,1.01.23,2.07-.31,2.75-1.1.68-.78,1.05-1.78,1.41-2.75.54,2.27,2.03,4.3,4.05,5.48.48.28,1,.52,1.55.52,1.03,0,1.9-.89,2.21-1.87.31-.99.18-2.05,0-3.07-.41-2.31-1.05-4.57-1.92-6.74,1.35,1.92,3.47,3.28,5.77,3.73.95.18,1.97.2,2.82-.25.85-.46,1.43-1.5,1.11-2.41-.59-1.67-1.86-2.96-3.34-3.89-.75-.47-1.55-.82-2.36-1.17-.5-.22-1.36-.88-1.92-.77,0,0,2.31-.48,2.89-.7.58-.22,1.13-.77,1.02-1.39-.1-.55-.67-.87-1.2-1.09-2.51-1.03-5.14-1.39-7.85-1.2Z"/>
          <path class="cls-30" d="m569.14,310.74c.23.85.06,1.6-.04,2.46-.06.56.52,1.07,1.03,1.12.61.06,1.05-.31,1.25-.87.4-1.12.03-2.47-.44-3.5-.2-.44-.84-.57-1.24-.38-.44.2-.69.69-.56,1.17h0Z"/>
          <path class="cls-30" d="m572.72,310.51c-.23.36-.51.7-.85.96-.49.36-1.07.4-1.56,1-.52.63-.67,1.49-.23,2.22.39.65,1.33,1.1,2.07.81,1.04-.4,1.56-1.18,1.97-2.17.32-.76.49-1.52.53-2.35.05-1.1-1.42-1.27-1.92-.47h0Z"/>
          <path class="cls-30" d="m566.56,313.45c.38.42.7.88.96,1.39.31.6.49,1.17,1,1.65,1.17,1.11,2.86-.11,2.56-1.56-.31-1.49-2.08-2.51-3.37-3.07-1.03-.45-1.92.74-1.15,1.59h0Z"/>
          <path class="cls-30" d="m575.52,312.18c-.75.22-1.35.54-2.04.89-.68.35-1.44.47-2.13.8-1.76.84-1.33,3.42.73,3.4,1.99-.02,3.96-1.91,4.81-3.57.46-.9-.47-1.77-1.36-1.51h0Z"/>
          <path class="cls-30" d="m578.21,316.74c.17-1.73-1.5-2.41-2.95-2.62-1.61-.23-3.23-.13-4.14,1.39-.46.78.02,1.85.77,2.22,1.09.54,2.1.05,3.23.14,1.01.08,2.94.45,3.1-1.12h0Z"/>
        </g>
      </g>
      <g>
        <path class="cls-25" d="m607.96,442.4c-4.29,5.83-7.48,18.6-7.48,18.6h20.96c9.08-8.05,17.72-17.31,24.38-26.64,6.66-9.33,11.32-19.64,12-30.26-19.56,8.81-37.22,21.11-49.86,38.29Z"/>
        <path class="cls-18" d="m657.82,404.1c-19.28,17.87-38.77,36.01-51.66,57.14"/>
      </g>
      <g>
        <path class="cls-23" d="m479.51,435.43c8.77-10.16,19.24-28.15,30.98-33.94,5.21-2.57,10.72-4.67,16.44-5,9.6-.56,19.33,4.26,25.14,12.45,5.81,8.19,7.54,19.51,4.45,29.24,4.15-2.74,8.56-5.57,13.44-5.67,7.84-.15,14.82,8.22,13.79,16.53,3.51-7.71,8.35-14.86,14.8-19.96,4.25-3.36,9.66-7.14,14.93-7.27,16.09-.37,5.33,28.01-.62,34.79,3.91-2.7,8.14-5.49,12.79-5.4,4.66.09,9.51,4.49,8.51,9.35,7.71-5.07,19.21-1.39,23.06,7.37h-230.02s11.53-38.77,35.34-45.48c23.81-6.7,16.95,12.99,16.95,12.99Z"/>
        <path class="cls-15" d="m610.51,433.3c-8.45,10.79-15.56,22.42-21.17,34.62"/>
        <path class="cls-9" d="m623.09,455.63c-3.08,3.84-5.85,7.94-8.27,12.23"/>
        <path class="cls-9" d="m571.62,441.98c-5.94,7.9-10.91,16.54-14.75,25.65"/>
        <path class="cls-9" d="m529.8,414.72c-10.03,16.95-18.88,34.59-26.46,52.77"/>
      </g>
      <g>
        <path class="cls-23" d="m522.76,421.54c-15.69,25.14-15.97,46.38-15.97,46.38h19.93c8.64-9.74,24.5-28.41,30.84-39.7,6.34-11.29,14.74-39.53,16.81-53.7-18.61,10.65-38.96,26.75-51.61,47.02Z"/>
        <path class="cls-15" d="m574.37,374.52c-18.34,21.63-49.92,67.83-62.17,93.4"/>
      </g>
      <g>
        <path class="cls-10" d="m593.39,342.51c-26.06,31.64-42.65,71.02-47.08,111.8"/>
        <path class="cls-2" d="m599.56,336.41c-2.85-3.43-6.78-4.26-10.9-5.2-1.1-.25-2.23-.4-3.37-.36-.93.04-2.62.11-3.28.88-.33.39-.26.97-.08,1.44.4,1.1,1.3,2,2.39,2.42-5.78-2.2-12.64.34-16.36,5.1-.39.5-.76,1.16-.48,1.72.14.28.42.47.7.61,1.06.52,2.3.5,3.49.42,3.9-.26,7.75-1.01,11.59-1.76-3.17,1.29-6.08,3.23-8.5,5.65-1.18,1.19-2.27,2.53-2.82,4.12-.21.61-.31,1.37.13,1.85.41.44,1.09.44,1.69.39,4.49-.38,8.86-1.97,12.55-4.54-.3,2.39-.36,4.81-.19,7.21.1,1.36.28,2.75.9,3.97.62,1.22,1.75,2.25,3.1,2.43,1.25.16,2.51-.42,3.39-1.32.88-.9,1.42-2.07,1.81-3.27.68-2.08.93-4.29.75-6.47.86,3.21,2.25,6.28,4.1,9.05.73,1.09,1.54,2.14,2.6,2.91.78.56,1.81.95,2.7.6,1.18-.46,1.56-1.92,1.65-3.19.31-4.34-1-8.78-3.64-12.24.96,1.27,1.93,2.52,2.92,3.77.44.56.9,1.13,1.5,1.5,1.25.77,4.09,2.24,5.02,1.1,2.68-3.29-4.07-8.75-6.54-9.88.79-.21,1.63-.1,2.44-.25.8-.15,1.65-.73,1.65-1.55,0-.74-.67-1.29-1.29-1.68-1.28-.82-2.66-1.49-4.09-2.01-1.08-.39-3.08-.45-3.95-1.19-.24-.2-.4-.49-.56-.76-.31-.51-.65-1-1.03-1.45Z"/>
        <path class="cls-21" d="m571.29,374.69c-1.3-2.25-2.23-4.75-2.49-7.34-.25-2.59-.37-7.43,1.47-7.54,1.84-.11,2.07,3.91,2.21,6.11.14,2.2-.13,6.54-.46,8.72"/>
        <path class="cls-21" d="m561.3,395.23c-2.05-2.96-3.61-6.29-4.24-9.83-.64-3.54-1.34-10.2,1.19-10.56,2.53-.36,3.29,5.16,3.73,8.18.44,3.02.55,9.02.35,12.06"/>
        <path class="cls-21" d="m573.44,371.77c2.6-.17,5.18-.79,7.48-2.02,2.29-1.23,6.38-3.83,5.44-5.43-.94-1.59-4.4.46-6.31,1.57-1.91,1.11-5.36,3.75-6.98,5.24"/>
        <path class="cls-21" d="m565.84,386.42c3.31.5,6.73.44,9.94-.48,3.22-.92,9.06-3.06,8.33-5.31-.74-2.26-5.66-.63-8.36.23-2.7.87-7.76,3.23-10.21,4.65"/>
        <g>
          <path class="cls-30" d="m590.01,338.57c.1,1.16-.31,2.09-.62,3.17-.21.71.42,1.5,1.07,1.68.78.22,1.42-.15,1.81-.82.78-1.35.62-3.18.25-4.62-.16-.62-.95-.93-1.51-.79-.62.16-1.05.72-1,1.38h0Z"/>
          <path class="cls-30" d="m594.7,339.12c-.38.41-.82.79-1.33,1.03-.72.35-1.47.27-2.25.92-.82.69-1.22,1.77-.82,2.81.36.93,1.46,1.73,2.49,1.54,1.43-.27,2.29-1.16,3.05-2.34.59-.91.99-1.85,1.24-2.91.32-1.4-1.53-1.97-2.37-1.06h0Z"/>
          <path class="cls-30" d="m599.49,343.3c-2.37-1.35-6.48-2.67-8.52-.15-.85,1.06-.85,3.11.43,3.89.84.51,1.54.86,2.54.74.58-.07,1.15-.23,1.73-.31,1.08-.15,2.11-.36,3.21-.38.87-.01,1.64-.84,1.77-1.66.15-.93-.38-1.7-1.16-2.14h0Z"/>
          <path class="cls-30" d="m586.05,341.48c.39.63.69,1.3.91,2.02.26.85.36,1.63.9,2.37,1.26,1.71,3.72.53,3.68-1.41-.05-2-2.09-3.73-3.64-4.76-1.23-.82-2.65.51-1.86,1.79h0Z"/>
        </g>
      </g>
      <g>
        <path class="cls-23" d="m554.15,425.73c-10.23,15.5-16.81,42.19-16.81,42.19h24.27c10.52-12.31,20.52-26.85,28.24-41.12,7.72-14.27,22.62-44.99,26.41-62.6-22.66,13.47-45.54,36.42-62.1,61.52Z"/>
        <path class="cls-15" d="m616.25,364.21c-22.33,27.34-57.4,71.39-72.33,103.71"/>
        <path class="cls-15" d="m565.15,410.74c-11.36,14.91-20.26,32.31-26.11,50.99"/>
      </g>
    </g>
  </g>
  <g>
    <g>
      <g>
        <path class="cls-27" d="m360.56,299.29c-5.75-1.08-10.75-5.1-13.59-10.22-2.85-5.12-3.65-11.22-2.88-17.02.71-5.37,2.91-10.79,7.17-14.15.66-.52,1.39-1.01,1.81-1.74,1.27-2.16-.68-4.68-2.07-6.76-3.54-5.28-3.71-12.42-1.13-18.23,2.59-5.8,7.67-10.28,13.47-12.89,2.57-1.16,5.33-2,7.61-3.66,2.48-1.82,4.19-4.49,5.68-7.19,3.82-6.93,6.64-14.63,12.26-20.21,4.75-4.72,11.32-7.54,18.01-7.75,3.59-.11,8.84.29,8.84.29,0,0,5.17-1.72,8.53-2.37,7.78-1.5,15.71.15,21.22,2.59,6.68,2.96,12.99,7.38,16.57,13.75,3.58,6.37,3.86,14.92-.69,20.64,3.64,3.26,4.36,9.1,8.38,11.88,5.04,3.49,11.93.25,18.01,1,5.46.68,10.28,5.03,11.5,10.39.44,1.93.51,4.08,1.82,5.57,1.27,1.44,3.31,1.83,5.17,2.32,7.31,1.96,13.88,7.39,16.13,14.62,2.25,7.23-.52,16.02-7.08,19.8"/>
        <path class="cls-20" d="m405.27,241.52l-2.82,16.05-15.82,6.59s24.44,45.91,35.46,46.12c11.02.21,44.44-62.04,44.44-62.04l-16.04,5.54-5.27-12.26"/>
        <path class="cls-20" d="m455.53,229.65c-.66-3.11-2.03-6.01-3.39-8.89-3.88-8.18-7.3-16.48-14.09-22.77-2.19-2.03-4.55-3.92-7.2-5.29-3.66-1.89-7.84-2.73-11.95-2.46,0,3.4-.34,6.8-.98,10.14-1.34,6.99-3.98,13.83-8.03,19.71-2.26,3.27-5.57,6.41-9.35,8.35,1.56,6.15,4.9,11.77,9.41,16.56,9.85,10.47,32.72,13.31,42.56,2.24,3.96-4.45,4.25-11.83,3.03-17.59Z"/>
        <path class="cls-11" d="m436.54,211.6c1.14,2.89,2.74,5.57,4.75,7.92.9,1.06,1.97,2.19,1.95,3.71-.02,1.48-1.84,2.63-3.29,2.76"/>
        <path class="cls-29" d="m445.89,212.23c1.07,1.49,1.15,3.26.18,3.95-.97.69-2.62.05-3.69-1.44-1.07-1.49-1.15-3.26-.18-3.95.97-.69,2.62-.05,3.69,1.44Z"/>
        <path class="cls-29" d="m423.85,217.7c1.07,1.49,1.15,3.26.18,3.95-.97.69-2.62.05-3.69-1.44-1.07-1.49-1.15-3.26-.18-3.95.97-.69,2.62-.05,3.69,1.44Z"/>
        <path class="cls-29" d="m414.17,208.35c.3-.27.62-.53.95-.76.95-.68,3.62-2.53,4.6-1.31,1.37,1.72-1.33,2.96-2.41,3.68-.97.65-1.68,1.51-2.67,2.14-.85.54-1.71,1.05-2.6,1.53-.11.06-.24.13-.37.11-.75-.07-.17-1.73-.02-2.05.61-1.27,1.48-2.4,2.52-3.35Z"/>
        <path class="cls-29" d="m439.1,200.33c-.98-.05-2.04.24-2.78.96-.62.6-1.49,1.9-.23,2.34.86.3,1.87-.08,2.72-.23,1.08-.19,2.19-.29,3.29-.31.38,0,1.53-.22,1.14-.91-.71-1.24-3.05-1.79-4.13-1.84Z"/>
        <path class="cls-11" d="m436.04,232.71c2.39-2.3,5.94-3.33,9.19-2.67"/>
        <g>
          <path class="cls-20" d="m400.84,228.36c-2.84,1.25-4.92,4.21-4.99,7.29-.14,6.25,5.09,12.05,11.5,12.58,3.22.27,7.76-2.15,7.31-5.95-.21-1.79-1.9-3.69-2.8-5.2-2.2-3.69-5.38-11.21-11.02-8.72Z"/>
          <path class="cls-6" d="m401.21,245.92c2.83,1.98,5.14,2.42,7.85,2.15,3.38-.33,7.09-4,5.03-7.5"/>
          <line class="cls-6" x1="399.24" y1="235.18" x2="409.34" y2="239.89"/>
          <path class="cls-6" d="m400.25,228.67c1.35-.65,2.92-.86,4.39-.6,1.48.27,2.87,1.01,3.91,2.09"/>
        </g>
        <path class="cls-6" d="m421.16,251.45c8.31,4.06,18.73,3.71,28.06-.65"/>
      </g>
      <g>
        <path class="cls-32" d="m399.24,258.91s-5.9-.25-11.91.23c-8.82.7-15.68,3.91-22.36,9.72-10.84,9.43-21.16,20.79-31.79,41.07l34.05,24.14,30.69-34.78"/>
        <path class="cls-32" d="m455.92,251c7.99-4.59,14.07-6.2,22.97-5.26,22.57,2.39,35.99,33.09,45.53,55.32,10.09,23.52,22.84,87.35,22.58,91.52l-157.66-23.33s6.34-24.13-.77-40.59c-7.11-16.45-12.9-37.94-11.37-46.4,1.52-8.45,11.37-19.89,11.37-19.89l10.68-3.47s13.54,26.04,20.63,29.19c7.1,3.15,36.05-37.1,36.05-37.1Z"/>
        <path class="cls-11" d="m382.58,290.3c-.77,8.89-.65,17.86.35,26.73"/>
      </g>
      <g>
        <g>
          <path class="cls-28" d="m546.99,389.86l-22.88-14.6-30.41-26.14-94.46,59.32c20.66,36.12,34.63,59.32,54.77,59.32h44.16c38.22,0,46.54-27.28,48.82-39.03,3.94-20.28,0-38.86,0-38.86Z"/>
          <path class="cls-11" d="m524.41,375.56c4.52,4.64,12.35,11.67,18.04,23.35"/>
          <g class="cls-22">
            <g>
              <path class="cls-11" d="m472.96,365.5c2.97,7.16,7.6,16.78,16.28,19.16,5.77,1.58,9.03-2.56,8.67-7.53-.36-4.98-1.78-10.27-6.75-12.93-.48-.26-1-.48-1.55-.47-3.28.07,1.46,6.32,2.18,7.27,3.44,4.6,8.26,8.79,13.91,10.85,7.92,2.88,13.49-.68,13.69-8.55.05-2.07.11-4.14.16-6.21"/>
              <path class="cls-11" d="m442.32,381.28c7.84-.78,15.8.9,23.08,4.84,3.35,1.82,6.6,4.15,9.21,7.51,1.97,2.54,2.16,6.56,1.07,9.44-2.4,6.39-13.88,6.63-19.77,6.22-5.49-.38-11.41-1.98-14.48-6.26-.27-.38-.52-.82-.42-1.26.18-.76,1.21-.97,2.04-1,7.22-.26,14.49,1.78,20.43,5.62,5.55,3.6,11.57,9.58,10.79,16.42-.45,3.99-3.42,6.55-6.26,7.88-3.61,1.68-7.46,2.24-11.28,2.52-15.91,1.17-31.79-2.21-47.52-5.59"/>
              <path class="cls-11" d="m437.17,475.18c19.37,4.92,41.01,1.35,57.41-9.48,2.88-1.9,5.64-4.03,8.86-5.36,4.51-1.87,9.62-2.04,14.54-1.71,11.07.73,21.95,3.87,31.54,9.1-2.71-7.76-10.72-12.82-18.81-15.88-6.2-2.35-12.73-3.88-18.88-6.35-5.44-2.19-11.36-4.02-16.05-7.55-3.01-2.27-6.31-4.6-7.99-7.95-1.08-2.15-1.23-4.86.24-6.79,1.69-2.22,4.9-2.83,7.81-3,9.37-.56,18.9,1.62,26.94,6.16.8.45,1.69,1.18,1.44,2.01-.99,3.24-7.54,1.27-9.72.65-5.13-1.46-13.65-5.9-10.36-12.2,1.56-2.99,5.55-3.93,9.07-4.38,10.41-1.33,20.99-1.23,31.47-.4,2.37.19,4.78.42,6.94,1.34.86.37,1.79,1.06,1.62,1.93-.17.91-1.35,1.24-2.33,1.34-3.44.36-7.06.11-10.09-1.44-3.04-1.55-5.36-4.57-5.23-7.81.1-2.48,1.6-4.78,3.59-6.42,2-1.64,4.46-2.69,6.94-3.58,12.79-4.56,26.75-5.08,40.43-5.56"/>
            </g>
          </g>
        </g>
        <g>
          <path class="cls-20" d="m406.41,402.71s-8.44,45.16-9.85,50.07c-1.41,4.91,1.85,15.08-5.62,15.08h-77.1s-7.56.15-10.75-.05c-2.44-.15-5.44-.99-7.68-2.83-2.02-1.65-3.74-4.76-2.06-6.04.65-.5,1.64-.61,2.58-.75,5.66-.88,10.23-3.37,14.72-5.83,3.77-2.07,10.36-7.04,13.45-9.79,8.47-7.51,16.87-46.59,21.33-61.22,4.46-14.62,14.86-42.92,19.08-51.77,5.55-11.63,17.54-25.56,33.21-25.35,7.33.1,22.48.56,35.75,13.43,13.27,12.87,22.69,23,22.69,23l-26.28,45.04-19.28-8.26-4.2,25.25Z"/>
          <path class="cls-11" d="m327.95,456.43c-1.98.8-4.32,1.17-6.82,1.08-1.93-.07-4.07-.39-5.46.38-2.66,1.47.35,8.62,7.04,9.54"/>
          <path class="cls-11" d="m312.86,459.53c-1.11,1.24-4.11,1.12-4.54,2.35-.32.91-.07,2.12.68,3.21.75,1.09,1.98,2.03,3.26,2.51"/>
          <path class="cls-11" d="m309.11,458.47c-1,1.09-3.14,1.69-4.52,2.13-.42.13-.86.24-1.18.48-2.18,1.62.79,5.94,4.07,6.7"/>
          <path class="cls-11" d="m302.22,458.47c-1.01.45-1.97.95-2.9,1.5-1.15.68-1.14,2.16-.5,3.6.52,1.16,1.67,3.36,3.31,3.65"/>
          <path class="cls-11" d="m315.66,458.03c1.33.17,2.71.8,4.06,1.27s2.85.77,3.8.28c.34-.17.6-.46.58-.86-.02-.4-.37-.91-.85-1.09"/>
          <path class="cls-11" d="m309.05,461.6c.36.05.72.09,1.08.14.6.08,1.22.15,1.74.04.52-.12.92-.47.87-.99-.03-.32-.35-.76-.73-.82"/>
          <path class="cls-11" d="m303.07,461.73c.82.16,1.66.32,2.39.23.73-.09,1.34-.49,1.36-1.16,0-.24-.11-.56-.39-.71"/>
          <path class="cls-11" d="m298.77,460.79c.61.25,1.3.46,1.76.26.29-.13.44-.41.43-.74,0-.33-.16-.69-.38-1.03"/>
          <path class="cls-11" d="m293.53,459.21c.31.21.67.29,1.01.35.76.14,1.54.21,2.12-.01.58-.23.91-.83.6-1.5"/>
          <path class="cls-11" d="m380.25,446.55c-.97,1.74-.83,4.05-1.09,6.15-.26,2.1-1.11,4.19-3.36,4.68"/>
        </g>
        <path class="cls-20" d="m433.12,304.26c-9.83-.33-19.14,4.98-25.39,12.1-6.24,7.12-9.88,15.9-13.01,24.63-10.22,28.48-16.19,58.11-24.14,87.22-1.55,5.68-3.29,11.55-7.36,16.02l69.3,2.06c5.79-16.37,12.11-36.25,18.47-55.42,0,0,30.44-10.44,42.7-41.74,0,0-19.77-20.29-31.18-29.85-8.5-7.12-18-14.63-29.39-15.01Z"/>
        <g>
          <path class="cls-20" d="m383.6,377.46s-8.2,31.47-11.64,44.12c-2.96,10.86-6.45,16.58-14.91,24.1-4.08,3.62-9.15,6.4-14.97,8.13-1.96.58-4,1.05-6.11,1.39-1.55.25-3.28.15-4.81.44-1.3.25-2.49.76-2.94,1.85-.44,1.06-.26,2.43.16,3.75.23.73.59,1.47,1.11,2.17,2.06,2.78,6.03,4.21,9.21,4.41,3.19.2,10.75.05,10.75.05h77.1c7.47,0,4.2-10.17,5.62-15.08,1.41-4.91,12.47-42.57,12.47-42.57"/>
          <path class="cls-11" d="m350.47,456.84c-1.42,1.04-3.58,1.22-5.53,1.6-3.23.64-6.05,3.3-3.61,7.05.55.84,1.46,1.63,2.44,1.93"/>
          <path class="cls-11" d="m359.13,458.29c-1.76,2.05-5.75,2.12-7.12,4.44-.75,1.28-.55,3.15.54,4.86"/>
          <path class="cls-11" d="m366.23,459.53c-1.4.57-2.81,1.15-3.86,2.08-1.06.93-1.74,2.25-1.49,3.83.11.7.4,1.43.83,2.14"/>
          <path class="cls-11" d="m375.6,460.36c-.91.92-2.86.81-3.96,1.61-1.62,1.17-2.8,3.46-1.5,5.9"/>
          <path class="cls-11" d="m330.72,455.98c1.66.21,3.41,1.52,5.07,1.74.56.07,1.07.02,1.57-.05.39-.05.79-.12,1.08-.32.29-.19.44-.54.28-.94-.25-.62-1.07-1.03-1.77-1.31"/>
          <path class="cls-11" d="m340.97,461.21c1.32.59,2.7.88,3.94.87.85,0,2.81-.14,2.95-.97.04-.25-.16-.57-.43-.8-.87-.76-2.43-1.37-3.45-1.61"/>
          <path class="cls-11" d="m351.57,463.81c1.78.48,3.54.55,5.02.19.3-.07.6-.17.79-.36.42-.44-.01-1.13-.73-1.55-.41-.23-.85-.35-1.27-.42-.72-.12-1.4-.16-2.1-.21"/>
          <path class="cls-11" d="m360.97,464.23c.17.13.38.18.57.21,1.17.23,2.31.25,3.31.04.37-.08.74-.2.84-.52.11-.35-.17-.84-.57-1.18-.9-.77-2.26-1.09-3.15-.94"/>
          <path class="cls-11" d="m370.53,463.06c-.38.17-.57,1.3-.42,1.75.02.08.06.16.13.22.11.11.26.15.4.18.68.14,1.34.18,1.98.2.76.02,1.54,0,2.04-.36.56-.41.33-1.19-.62-1.59-.52-.22-1.08-.28-1.59-.4-.6-.14-1.23-.28-1.76-.2"/>
          <path class="cls-11" d="m418.43,442.58c-.53,2.37.55,6.56.48,9.11-.08,2.99-1.6,3.42-4.07,4.74"/>
        </g>
        <path class="cls-11" d="m433.12,304.26c-9.83-.33-20.11,5.34-26.35,12.46-6.24,7.12-11.04,17.1-13.69,25.97-6.41,21.41-17.68,66.24-21.12,78.89-2.96,10.86-6.45,16.58-14.91,24.1-4.08,3.62-9.15,6.4-14.97,8.13-1.96.58-4,1.05-6.11,1.39-1.55.25-3.28.15-4.81.44-1.3.25-2.49.76-2.94,1.85-.44,1.06-.26,2.43.16,3.75.23.73.59,1.47,1.11,2.17,2.06,2.78,6.03,4.21,9.21,4.41"/>
        <path class="cls-11" d="m451,390.85c6.02-17.24,12.15-33.96,13.45-52.19"/>
      </g>
      <g>
        <path class="cls-20" d="m334.75,311.04c-7.01,15.46-9.75,24.28-4.68,39.16,8.1,23.75,34.82,45.93,34.82,45.93l33.11-19.27c-8.68-15.25-21.26-36.72-35.5-54.07"/>
        <path class="cls-32" d="m383.42,351.79c-6.8-11.19-14.5-22.93-22.29-32.42l-27.85-9.76c-7.01,15.46-9.22,26.22-4.15,41.09,2.8,8.2,7.93,16.16,13.45,23.06l40.84-21.97Z"/>
        <g>
          <path class="cls-20" d="m423.36,416.91c-.89-8.67-3.5-15.57-8.21-22.77-5.6-8.57-13.24-16.17-22.07-21.37l-34.66,16.95c2.72,6.92,6.22,9.91,12.4,14.06,1.96,1.32,4.05,2.44,6.16,3.51,2.2,1.11,4.45,2.17,6.45,3.63,4.05,2.95,6.8,7.32,9.25,11.7.68,1.22,1.36,2.46,2.32,3.48,1.9,2.03,4.64,3.28,7.32,2.34.49-.17.94-.44,1.29-.77h0c1.98,1.58,6.97,3.52,9.04.97.1-.13.19-.27.27-.41v.17c1.86.66,5.48.38,6.25-1.43.16-.38.24-.77.3-1.17.7.19,1.45.38,2.15.17,2.77-.84,1.96-7.01,1.75-9.04Z"/>
          <g>
            <path class="cls-11" d="m393.76,401.99c2.93,2.49,5.68,6.92,7.05,10.2,1.78,4.29,2.82,8.85,3.6,13.41.13.76-.21,1.5-.8,2.05,0,0-5.7,4.67-11.4-5.85"/>
            <path class="cls-11" d="m403.18,398.63c3.41,4.38,6.01,9.38,7.67,14.67.85,2.69,1.37,5.47,1.84,8.25.35,2.06,1.45,5.23-.04,7.07,0,0-2.69,3.4-9.04-.97"/>
            <path class="cls-11" d="m411.07,395.43c4.21,7.68,9.3,21.23,8.77,30.45,0,0-1.01,4.39-6.91,2.51"/>
          </g>
          <path class="cls-11" d="m403.32,421.14c-1.44-.13-2.9.03-4.27.46-.3.09-.6.21-.82.43-.32.33-.35.85-.27,1.28.19.94.82,2.3,1.74,2.73,1.19.56,3.22.34,4.34-.34"/>
          <path class="cls-11" d="m412.69,422.07c-1.08.11-2.15.21-3.23.32-.48.05-1,.11-1.36.43-.71.62-.59,1.92-.34,2.73.3,1,1,1.49,2.01,1.64,1.11.17,2.26.05,3.31-.36"/>
          <path class="cls-11" d="m419.49,420.9c-.69.03-1.39.06-2.05.24-.67.18-1.31.53-1.73,1.08-.42.55-.56,1.33-.26,1.95.15.3.39.55.66.75.91.68,2.72.37,3.76-.08"/>
          <path class="cls-11" d="m423.44,419.75c-.53.11-1.06.22-1.59.33-.35.07-.73.15-1,.4-.38.35-.44.92-.44,1.44,0,.53,0,1.06.04,1.58.03.45.14.97.55,1.15.16.06.33.06.5.06.47-.02.95-.08,1.41-.18"/>
        </g>
        <path class="cls-20" d="m465.52,263.4c-9.51,22.97-22.21,67.72-22.21,67.72l-56.63,30.5,21.08,34.79s59.55-8.72,80.93-29.02c21.38-20.29,24.36-66.92,24.36-66.92"/>
        <g>
          <path class="cls-20" d="m404.39,359.72c-.33-1.71-.83-3.65-1.45-5.28-14.57,5.6-30.62,11.24-39.91,24.64-1.39,2.01-2.64,4.12-3.73,6.3-3.31,6.59-5.09,14.68-2.46,22.04,1.27,3.57,2.55,6.87,6.29,7.48l.09-.07c1.76,4.07,7.57,4.95,10.84,2.74,2.52,3.72,8.06,3.07,11.56,1.31l.06-.09c1.43,1.7,3.57,2.82,5.77,2.65.24-.02.49-.06.68-.21.18-.15.28-.38.36-.6,1.12-2.98,2.31-6.05,4.54-8.32.97-.99,2.11-1.79,3.19-2.66,7.25-5.83,11.76-14.83,12.89-24l-8.72-25.94Z"/>
          <path class="cls-11" d="m363.13,414.9c-11.93-4.26-6.09-25.56-6.09-25.56,2.42-5.16,5.93-9.86,9.86-13.85,6.25-6.34,13.92-11.24,21.98-14.96l17.9-9.74"/>
          <path class="cls-11" d="m363.98,399.27c-1.67,4.76-2.69,10.52-.88,15.31,0,0,2.44,6.2,11.02,2.99"/>
          <path class="cls-11" d="m373.44,401.63c-.92,3.87-1.37,9.21-.23,13.55.56,2.12,2.05,3.92,4.13,4.62,1.58.54,5.95.48,8.34-1.01"/>
          <path class="cls-11" d="m392.65,421.78c1.29-3.44,2.49-7.81,5.09-10.52,2.62-2.73,5.63-5.04,8.18-7.85,2.46-2.71,4.14-5.36,5.4-8.83,1-2.77,1.43-6.03,1.79-8.92"/>
          <path class="cls-11" d="m385.59,402.73c-.85,2.46-1.71,4.95-2,7.54-.18,1.58.11,3.6.67,5.45.92,3.02,4.11,5.94,8.5,5.71"/>
          <path class="cls-11" d="m364.31,394.58c.78-1.55,1.91-2.92,3.27-3.99"/>
          <path class="cls-11" d="m374.55,398.22c.13-1.1.74-2.14,1.64-2.8"/>
          <path class="cls-11" d="m385.42,400.37c.35-.81.83-1.57,1.41-2.23"/>
          <polyline class="cls-11" points="432.57 391.91 416.33 395.09 410.51 396.23"/>
        </g>
        <path class="cls-32" d="m518.28,298.35c-3.53,29.67-6.87,47.01-21.85,65.15-16.05,19.43-63.85,28.41-63.85,28.41l-25.8-41.12,36.47-20.89s17.13-61.92,21.2-72.22"/>
        <path class="cls-11" d="m345.24,318.49c4.75,0,14.91.55,20.7,6.31"/>
        <path class="cls-11" d="m460.48,262.27c-3.6,11.28-8.91,35.61-11.1,47.25"/>
        <path class="cls-11" d="m518.29,302.77c-.93,16.32-8.89,38.77-16.41,53.38"/>
        <path class="cls-11" d="m514.39,324.03c3.88-5.05,6.92-10.86,8.92-17.06"/>
        <path class="cls-11" d="m443.65,329.74c10.43-1.6,21.3-.16,31.1,3.69"/>
        <path class="cls-11" d="m416.74,397.07s7.06,11.07,6.9,24.46c0,0,.66,4.43-3.8,4.34"/>
        <path class="cls-11" d="m342.96,372.85s9.7,13.51,14.08,16.49"/>
        <line class="cls-11" x1="383.42" y1="351.79" x2="388.87" y2="360.54"/>
      </g>
    </g>
    <g>
      <path class="cls-12" d="m313.47,467.63s35.9-192.38,47.48-243.41c8.99-39.57,34.11-100.18,94.54-100.18,36.82,0,63.23,15.24,73.2,87.87,14.4,104.97,34.56,255.73,34.56,255.73"/>
      <path class="cls-12" d="m631.82,231.85c-15.98-64.39-34.64-107.79-68.56-107.79-16.56,0-44.61,15.85-34.56,87.84,15.49,110.99,34.56,255.73,34.56,255.73h124.84s-43.89-185.85-56.28-235.78Z"/>
      <path class="cls-12" d="m599.37,223c-12.72-65.11-17.3-98.94-36.11-98.94-16.56,0-14.12,15.9-3.73,87.84,16.87,116.76,37.84,255.73,37.84,255.73h50.08s-30.46-154.38-48.08-244.62Z"/>
      <path class="cls-12" d="m248.32,467.63s36.23-199.76,53.59-245.92c24.39-64.82,68.32-97.68,119.85-97.68h33.73"/>
      <path class="cls-12" d="m455.5,124.03h-59.73c-60.63,0-109.26,32.85-137.96,97.68-20.43,46.16-65.22,245.92-65.22,245.92h375.71"/>
      <path class="cls-12" d="m436.57,96.45c0-6.41,5.31-11.57,11.77-11.32,5.83.22,10.66,5.05,10.88,10.88.16,4.21-1.98,7.94-5.26,10.02-3.88,2.46-6.06,6.89-6.06,11.48h0"/>
      <rect class="cls-12" x="408.5" y="117.5" width="56.18" height="6.53"/>
      <line class="cls-12" x1="154.91" y1="467.63" x2="726.24" y2="467.63"/>
    </g>
  </g>
  <g>
    <g>
      <path class="cls-10" d="m182.15,338.69c-18.1,37.85-32.14,77.64-41.78,118.47"/>
      <circle class="cls-19" cx="188.03" cy="330.25" r="13.74" transform="translate(-135.24 130.46) rotate(-28.63)"/>
      <path class="cls-16" d="m181.16,318.33c3.48,2.68,5.8,6.43,7.99,10.22,2.44,4.24,4.51,8.72,6.16,13.35"/>
      <path class="cls-16" d="m189.15,328.56s2.7-4.58,11.21-4.39"/>
      <path class="cls-16" d="m185.64,316.71s6.66,1.18,10.14,7.87"/>
      <path class="cls-21" d="m169.61,366.06c-1.63-2.35-3.29-4.74-4.21-7.45-.92-2.71-1.04-5.83.36-8.33.18-.32.41-.65.76-.75.49-.14.97.22,1.3.6,1.82,2.04,2.06,5,2.2,7.74.09,1.72.17,5.19.25,6.92"/>
      <path class="cls-21" d="m160.29,391.1c-2.41-3.46-4.84-6.98-6.21-10.97-1.36-3.99-1.53-8.59.52-12.27.26-.47.61-.96,1.13-1.11.72-.2,1.42.33,1.92.89,2.69,3.01,3.04,7.38,3.24,11.41.13,2.54.25,7.65.36,10.19"/>
      <path class="cls-21" d="m147.48,430c-2.53-3.05-4.24-6.76-5.8-10.38-1.42-3.3-3.08-6.53-4.04-10.01-.9-3.24-1.34-6.64-1.21-10,.08-2.21.76-5.3,3.27-5.89,1.17-.27,2.33.46,3.14,1.22,4.4,4.15,4.98,10.16,5.32,15.71.21,3.5.41,10.54.6,14.04"/>
      <path class="cls-21" d="m173.55,357.48c2.84-.37,5.72-.75,8.34-1.88,2.63-1.14,5.01-3.15,5.93-5.86.12-.35.21-.74.04-1.07-.23-.45-.81-.56-1.32-.56-2.74.02-5.09,1.84-7.21,3.57-1.33,1.09-3.96,3.36-5.29,4.46"/>
      <path class="cls-21" d="m163.67,383.02c4.18-.54,8.43-1.1,12.3-2.78,3.87-1.67,7.39-4.64,8.74-8.63.17-.51.31-1.09.06-1.58-.33-.66-1.2-.83-1.94-.83-4.03.03-7.51,2.7-10.63,5.26-1.97,1.61-5.84,4.96-7.79,6.58"/>
      <path class="cls-21" d="m153.06,412.15c5.84-.76,11.76-1.54,17.16-3.87,5.4-2.34,10.31-6.47,12.19-12.05.24-.71.43-1.53.09-2.2-.47-.93-1.68-1.16-2.71-1.15-5.63.05-10.48,3.77-14.83,7.34-2.75,2.25-8.14,6.92-10.88,9.18"/>
    </g>
    <g>
      <polyline class="cls-28" points="242.01 365.64 195.97 467.89 165.27 467.89 199.75 365.64"/>
      <path class="cls-12" d="m178.74,467.89c0-1.21,37.26-94.17,37.26-94.17"/>
      <path class="cls-28" d="m242.01,365.64c6.56,8.08,11.52,14.46,14.7,25.17,1.08,3.63.66,8.76-1.08,12.05-1.07,2.02-2.91,3.42-4.88,4.26-7.01,3-14.88-.6-21.2-5.1-9.33-6.63-23.56-26.25-29.8-36.39h42.26Z"/>
      <line class="cls-12" x1="243.76" y1="393.66" x2="221.27" y2="365.64"/>
    </g>
    <g>
      <path class="cls-23" d="m233.57,407.65c-10.24-1.79-17.51,6.9-22.33,16.65-4.82,9.75-19.57,43.59-19.57,43.59l17.59.03s11.39-18.34,20.95-35.2c6.63-11.7,11.48-23.65,3.36-25.07Z"/>
      <line class="cls-7" x1="226.93" y1="418.62" x2="200.32" y2="467.59"/>
    </g>
    <g>
      <path class="cls-23" d="m185.93,382.1c-11.09-2.54-18.96,9.83-24.18,23.72-5.22,13.89-21.19,62.08-21.19,62.08l25.71.03s9.02-18.75,18.95-45.98c6.22-17.04,9.5-37.82.71-39.84Z"/>
      <line class="cls-7" x1="178.73" y1="397.72" x2="149.92" y2="467.46"/>
    </g>
    <g>
      <path class="cls-28" d="m151.37,415.15c-8.84-1.99-16,7.81-19.23,18.68-3.23,10.87-9.33,33.96-9.33,33.96l18.7.07s2.61-5.97,9.22-24.76c4.58-13.03,7.65-26.36.64-27.94Z"/>
      <line class="cls-12" x1="146.66" y1="425.93" x2="132.14" y2="467.59"/>
    </g>
    <g>
      <path class="cls-10" d="m187.04,466.87c4.1-11.15,17.06-36.88,32.05-49.42"/>
      <path class="cls-21" d="m197.77,444.21c-.72-4.29-.53-8.73.55-12.94.37-1.45.89-2.93,1.99-3.94.26-.24.65-.45.93-.24.11.08.18.21.23.34.71,1.58.75,3.38.63,5.12-.17,2.39-1.84,6.63-2.58,8.91"/>
      <path class="cls-21" d="m203.71,436.08c4.12-1.05,8.7.51,12.64-1.11.84-.35,1.75-1.1,1.52-1.98-.2-.76-1.1-1.06-1.88-1.18-3.56-.55-7.28.03-10.5,1.65"/>
      <g>
        <path class="cls-30" d="m227.74,417.26c-.52,5.43-5.35,9.41-10.78,8.89-5.43-.52-9.41-5.35-8.89-10.78s5.35-9.41,10.78-8.89,9.41,5.35,8.89,10.78Z"/>
        <path class="cls-8" d="m217.42,406.82c1.84,2.84,2.55,6.33,2.23,9.7-.32,3.36-1.62,6.6-3.51,9.4"/>
        <path class="cls-8" d="m219.77,415.79c1.35-.16,2.71-.32,4.07-.28,1.36.04,2.73.3,3.94.93"/>
        <path class="cls-8" d="m219.2,409.71c2.78-.04,6.28,1.54,6.45,5.95"/>
      </g>
    </g>
  </g>
  <g>
    <g>
      <g>
        <polyline class="cls-5" points="569.6 119.07 576.35 124.3 571.09 126.09 569.2 128.49"/>
        <polyline class="cls-3" points="567 127.24 569.2 124.98 572.78 125.51"/>
      </g>
      <g>
        <polyline class="cls-3" points="566.54 114.99 573.29 120.21 568.03 122 566.14 124.41"/>
        <polyline class="cls-3" points="563.94 123.15 566.14 120.9 569.72 121.43"/>
      </g>
      <path class="cls-31" d="m588.32,75.34l-8.96,15.47s-13.2-7.63-18.95-10.14c-5.36-2.34-12.01-3.89-17.67-1.73-2.68,1.02-5.08,2.77-6.76,5.1-3.19,4.43-4.32,11.01-2.64,16.22.04.11.07.22.11.33.53,1.5,1.34,2.87,2.17,4.2,2.39,3.85,5.02,7.57,8.21,10.69,4.72,4.61,10.86,7.34,17.24,7.69,12.39.66,23.81-7.6,28.97-19.45.73-1.69,1.35-3.43,1.86-5.21.03-.12,24-17.54,24-17.54l-27.59-5.61Z"/>
      <line class="cls-4" x1="595.29" y1="76.76" x2="587.06" y2="88.99"/>
      <path class="cls-4" d="m606.79,79.1c-.29-.06-14.84,11.78-14.84,11.78"/>
      <path class="cls-4" d="m532.66,93.32c1.65.61,3.47.87,5.19.5,4.19-.92,4.83-5.54,7.23-8.47,2.2-2.69,5.01-4.09,8.44-4.42,2.15-.21,4.31-.29,6.46-.23"/>
      <path class="cls-29" d="m546.4,95.29c-1-.21-1.38.98-1.37,1.74,0,.38.1.8.42.99.35.21.81.05,1.16-.17.39-.25.76-.57.93-1.01.34-.9-.36-1.39-1.14-1.55Z"/>
      <path class="cls-29" d="m535.78,98.52c-.27-.61-.99-1.35-1.68-.63-.53.56-.89,1.34-.3,1.87.28.25.68.31,1.07.29.35-.02.76-.14.95-.51.17-.33.09-.72-.05-1.02Z"/>
      <path class="cls-1" d="m538.62,100.89c-.86.31-1.89.69-1.76,1.2.13.5.69,2.83,1.76,2.45,1.07-.38,3.02-2.52,2.77-3.21-.25-.69-1.81-.79-2.77-.44Z"/>
      <g>
        <path class="cls-4" d="m588.43,97.05s-25.73-5.17-28.43-5.26c-2.7-.08-8.35,8.88-3.59,15.52,5.2,7.26,16.11,6.74,22.66,1.69,3-2.31,9.36-11.96,9.36-11.96Z"/>
        <line class="cls-4" x1="584.09" y1="103.22" x2="568.62" y2="99.27"/>
        <line class="cls-4" x1="567" y1="104.58" x2="576.75" y2="110.51"/>
        <line class="cls-4" x1="564.41" y1="107.97" x2="568.62" y2="112.79"/>
      </g>
    </g>
    <g>
      <path class="cls-29" d="m249.27,223.72c.11.08,2.7,2.79,2.56,3.26-.14.47-3.49.26-3.49.26"/>
      <g>
        <path class="cls-31" d="m225.11,233.46l-31.91-20.88s-7.18,19.14,5.26,26.13c10.54,5.92,19.11,1.62,19.11,1.62"/>
        <line class="cls-4" x1="191.18" y1="222.75" x2="211.12" y2="233.21"/>
      </g>
      <path class="cls-31" d="m163.21,240.96c7.92.7,29.44-.09,29.44-.09,0,0,21.2-11.48,23.96-13.05,6.13-3.49,10.88-9.53,17.67-11.42,3.65-1.01,7.76-.64,10.94,1.41,3.18,2.06,5.25,5.9,4.79,9.65-.34,2.76-1.9,5.18-2.95,7.75-1.72,4.2-2.08,8.81-2.99,13.26-1.07,5.22-3.14,9.89-7.64,12.98-2.05,1.41-4.47,2.87-6.87,3.59-8.26,2.48-16.01,1.22-23.36-3.28-2.15-1.31-6.55-3.69-6.55-3.69l-22.13,7.59-14.3-24.72Z"/>
      <line class="cls-4" x1="172.31" y1="256.69" x2="192.52" y2="252.31"/>
      <line class="cls-4" x1="167.43" y1="248.26" x2="188.03" y2="246.68"/>
      <g>
        <g>
          <path class="cls-31" d="m239.62,239.35c3.31,9.35,11.69,36.18,11.69,36.18,0,0-12.06-1.09-20.64-5.87-1.95-1.09-3.83-2.35-5.43-3.92-4.92-4.85-6.5-12.5-4.87-19.21"/>
          <line class="cls-4" x1="241.89" y1="273.86" x2="236.78" y2="252.03"/>
          <line class="cls-4" x1="230.67" y1="269.66" x2="228.47" y2="253.77"/>
        </g>
        <path class="cls-11" d="m220.63,246.05c-1.6,3.22-1.63,7-.77,10.44.83,3.35,3.04,6.33,5.89,9.39"/>
        <line class="cls-11" x1="243.48" y1="250.91" x2="239.43" y2="238.57"/>
      </g>
      <path class="cls-11" d="m197.55,238.22s16.8-8.32,19.52-10.67"/>
      <path class="cls-4" d="m226.22,221.15c-.51.61.36,1.19.84,1.4.9.39,1.94.31,2.87.14,2.68-.5,5.11-1.88,7.64-2.88,1.58-.63,3.19-1.04,4.9-.9.99.08,1.96.33,2.9.66.84.29,1.66.75,2.52.96"/>
      <path class="cls-29" d="m245.76,222.5c-.46.05-.9.4-.94.86-.07.95,1.66,1.72,2.28.95.69-.86-.51-1.9-1.34-1.82Z"/>
    </g>
  </g>
  <g>
    <path class="cls-28" d="m20.1,121.13c4.21-4.07,11.53-3.85,14.68,1.3-.34-6.73-.61-13.84,2.15-19.81,4.34-9.39,15.34-12.91,24.35-10.09,9.01,2.81,16.19,10.59,21.74,19.12,3.16-7.43,11.87-9.53,19-7.92,13.55,3.06,22.32,19.05,23.62,34.65H15.84c-1.21-6.12.05-13.18,4.26-17.25Z"/>
    <path class="cls-17" d="m83.12,111.46c-2.09,5.26-3.13,11.06-3.01,16.83"/>
    <path class="cls-17" d="m35.01,122.44c1.49,2.88,2.4,6.14,2.66,9.46"/>
  </g>
  <g>
    <path class="cls-28" d="m743.99,106.2c-4.21-4.07-11.53-3.85-14.68,1.3.34-6.73.61-13.84-2.15-19.81-4.34-9.39-15.34-12.91-24.35-10.09-9.01,2.81-16.19,10.59-21.74,19.12-3.16-7.43-11.87-9.53-19-7.92-13.55,3.06-22.32,19.05-23.62,34.65h109.81c1.21-6.12-.05-13.18-4.26-17.25Z"/>
    <path class="cls-17" d="m680.97,96.53c2.09,5.26,3.13,11.06,3.01,16.83"/>
    <path class="cls-17" d="m729.08,107.51c-1.49,2.88-2.4,6.14-2.66,9.46"/>
  </g>
  <path class="cls-28" d="m501.93,77.21c-.91,4.29-5.13,7.78-9.43,7.78s-7.04-3.48-6.12-7.78c.91-4.29,12.69-23.12,12.69-23.12.01.05,3.77,18.83,2.86,23.12Z"/>
  <path class="cls-28" d="m735.54,160.85c-.91,4.29-5.13,7.78-9.43,7.78s-7.04-3.48-6.12-7.78c.91-4.29,12.69-23.12,12.69-23.12.01.05,3.77,18.83,2.86,23.12Z"/>
  <path class="cls-28" d="m668.73,151.62c-.91,4.29-5.13,7.78-9.43,7.78s-7.04-3.48-6.12-7.78c.91-4.29,12.69-23.12,12.69-23.12.01.05,3.77,18.83,2.86,23.12Z"/>
  <path class="cls-28" d="m105.15,171.82c-.91,4.29-5.13,7.78-9.43,7.78s-7.04-3.48-6.12-7.78c.91-4.29,12.69-23.12,12.69-23.12.01.05,3.77,18.83,2.86,23.12Z"/>
  <path class="cls-28" d="m219.42,96.66c-.91,4.29-5.13,7.78-9.43,7.78s-7.04-3.48-6.12-7.78c.91-4.29,12.69-23.12,12.69-23.12.01.05,3.77,18.83,2.86,23.12Z"/>
  <path class="cls-28" d="m36.2,269.39c-.91,4.29-5.13,7.78-9.43,7.78s-7.04-3.48-6.12-7.78c.91-4.29,12.69-23.12,12.69-23.12.01.05,3.77,18.83,2.86,23.12Z"/>
  <path class="cls-28" d="m139.94,303.31c-.91,4.29-5.13,7.78-9.43,7.78s-7.04-3.48-6.12-7.78c.91-4.29,12.69-23.12,12.69-23.12.01.05,3.77,18.83,2.86,23.12Z"/>
  <path class="cls-28" d="m190.21,181.29c-.91,4.29-5.13,7.78-9.43,7.78s-7.04-3.48-6.12-7.78c.91-4.29,12.69-23.12,12.69-23.12.01.05,3.77,18.83,2.86,23.12Z"/>
  <path class="cls-28" d="m676.67,259.99c-.91,4.29-5.13,7.78-9.43,7.78s-7.04-3.48-6.12-7.78c.91-4.29,12.69-23.12,12.69-23.12.01.05,3.77,18.83,2.86,23.12Z"/>
  <path class="cls-28" d="m727.61,326.01c-.91,4.29-5.13,7.78-9.43,7.78s-7.04-3.48-6.12-7.78c.91-4.29,12.69-23.12,12.69-23.12.01.05,3.77,18.83,2.86,23.12Z"/>
</svg>