<?xml version="1.0" encoding="utf-8"?>
<!-- Generator: Adobe Illustrator 27.5.0, SVG Export Plug-In . SVG Version: 6.00 Build 0)  -->
<svg version="1.1" id="Capa_1" xmlns="http://www.w3.org/2000/svg" xmlns:xlink="http://www.w3.org/1999/xlink" x="0px" y="0px"
	 viewBox="0 0 2122 2122" style="enable-background:new 0 0 2122 2122;" xml:space="preserve">
<style type="text/css">
	.st0{fill:#3C63AD;}
	.st1{fill:#7EBCBA;}
	.st2{fill:#7192CB;}
	.st3{fill:#4EACA9;}
	.st4{fill:#F5A579;}
	.st5{fill:#E8EDF4;}
	.st6{fill:#F6F8FB;}
	.st7{fill:#D6E6F1;}
	.st8{fill:#CED8E1;}
	.st9{fill:#53609A;}
	.st10{fill:#F1F4F9;}
	.st11{fill:#FFFFFF;}
	.st12{fill:#F4962C;}
	.st13{fill:#F7AC5A;}
	.st14{fill:#E47D31;}
	.st15{fill:#E4E7EB;}
	.st16{fill:#C5D0D1;}
	.st17{fill:#F4F6F8;}
	.st18{fill:#C8CACE;}
	.st19{fill:#ABADB1;}
	.st20{fill:#DDE2E3;}
	.st21{fill:#D16D2C;}
	.st22{fill:#D8DFE8;}
	.st23{fill:#D4D4D2;}
	.st24{fill:#E3E3E1;}
	.st25{fill:#EEEEEE;}
	.st26{fill:#D6D6D4;}
	.st27{fill:#757BAD;}
	.st28{fill:#5F82C2;}
	.st29{fill:#989AC2;}
	.st30{fill:#F8B790;}
	.st31{fill:#F6AA83;}
	.st32{fill:#FCD6B7;}
	.st33{fill:#FDE0C9;}
	.st34{fill:#F28C58;}
	.st35{fill:#FAC6A7;}
	.st36{fill:#FBD2B8;}
</style>
<rect x="0" class="st0" width="2121.32" height="2121.32"/>
<path class="st1" d="M1538.18,1404.71l-0.08,0.73c-0.57,4.15-1.36,8.03-2.24,11.8c0.88-3.77,1.67-7.64,2.24-11.79L1538.18,1404.71z"
	/>
<path class="st1" d="M1464.61,1483.49c1.59-0.3,3.18-0.61,4.74-0.96C1467.79,1482.88,1466.21,1483.2,1464.61,1483.49z"/>
<path class="st1" d="M1225.07,1217.54c2.34,0.69,4.69,1.38,7.04,2.07c3.02,0.89,6.05,1.77,9.07,2.67c-3.02-0.89-6.05-1.78-9.07-2.67
	C1229.76,1218.92,1227.41,1218.23,1225.07,1217.54z"/>
<path class="st1" d="M1499.08,1470.97c10.08-6.12,18.69-14.31,25.34-25.03C1517.76,1456.66,1509.15,1464.85,1499.08,1470.97
	c-1.4,0.85-2.82,1.66-4.27,2.42l-0.02,0.01l0.02-0.01C1496.25,1472.63,1497.68,1471.82,1499.08,1470.97z"/>
<path class="st1" d="M1439.75,1486.16c-2.78,0.1-5.59,0.14-8.43,0.13C1434.16,1486.3,1436.97,1486.27,1439.75,1486.16z"/>
<path class="st1" d="M1484.9,1477.83c0.8-0.31,1.6-0.62,2.39-0.95C1486.51,1477.21,1485.71,1477.53,1484.9,1477.83z"/>
<path class="st1" d="M1766.46,824.11c-0.95,0.82-1.95,1.62-2.94,2.43h0C1764.52,825.73,1765.52,824.93,1766.46,824.11z"/>
<path class="st1" d="M1476.47,1480.72c0.85-0.25,1.67-0.54,2.5-0.81C1478.13,1480.18,1477.32,1480.47,1476.47,1480.72z"/>
<path class="st1" d="M1524.42,1445.95c2.66-4.29,5.01-8.98,7.02-14.1C1529.43,1436.97,1527.08,1441.66,1524.42,1445.95z"/>
<path class="st1" d="M1536.84,1378.34c-0.98-4.13-2.31-8.16-3.98-12.09C1534.53,1370.18,1535.86,1374.21,1536.84,1378.34z"/>
<path class="st1" d="M847.92,596.05c0.2,0.61,0.37,1.21,0.58,1.81h0C848.29,597.26,848.12,596.66,847.92,596.05z"/>
<path class="st1" d="M1414.59,1485.73c4.27,0.3,8.49,0.46,12.67,0.55C1423.07,1486.18,1418.85,1486.02,1414.59,1485.73z"/>
<path class="st1" d="M1250.94,1615.37c2.65-3.32,5.46-6.55,8.6-9.59C1256.4,1608.81,1253.6,1612.05,1250.94,1615.37z"/>
<path class="st1" d="M307.62,1307.43c83.65,10.26,167.71,20.44,251.99,23.52c51.3,1.87,102.7,1.75,154.02,3.45
	c-51.32-1.7-102.72-1.58-154.02-3.46C475.33,1327.87,391.27,1317.68,307.62,1307.43c-8.95-1.1-17.91-2.22-26.86-3.33
	C289.71,1305.21,298.66,1306.33,307.62,1307.43z"/>
<path class="st1" d="M1545.03,1594.48c0.17-1.98,0.36-4,0.56-6.05C1545.39,1590.48,1545.2,1592.5,1545.03,1594.48z"/>
<path class="st1" d="M1757.13,1446.03c4.34-0.6,8.68-1.16,13.01-1.66c-4.34,0.5-8.7,1.06-13.06,1.67L1757.13,1446.03z"/>
<path class="st1" d="M1549.53,1565.17c0.03,4.5,0.12,8.79,0.51,13.26c0.32,4.5,1.11,9.11,1.84,14.67
	c-0.73-5.57-1.52-10.17-1.84-14.67C1549.65,1573.96,1549.55,1569.67,1549.53,1565.17c-0.02-2.64-0.03-5.35-0.08-8.13
	C1549.49,1559.81,1549.51,1562.53,1549.53,1565.17z"/>
<path class="st1" d="M1625.38,1654.48c0.42,0.63,0.56,1.47,0.71,2.81c0.11,1.39,0.31,3.11,0.45,6.12c-0.14-3.01-0.33-4.73-0.45-6.12
	C1625.95,1655.94,1625.8,1655.11,1625.38,1654.48c-0.41-0.64-1.1-1.12-2.24-1.82l-5.31-3.03l5.31,3.03
	C1624.28,1653.36,1624.97,1653.83,1625.38,1654.48z"/>
<path class="st1" d="M1461.63,1484.02c-6.34,1.04-12.9,1.72-19.65,2.04c-5.41-1.8-10.77-3.74-16.07-5.85
	c5.3,2.11,10.66,4.05,16.07,5.85C1448.73,1485.75,1455.29,1485.07,1461.63,1484.02z"/>
<path class="st1" d="M1397.13,1466.65c-29.91-16.48-56.21-38.74-78.45-64.69C1340.93,1427.9,1367.22,1450.16,1397.13,1466.65z"/>
<path class="st1" d="M1191.44,1380.88c-0.87-7.72-1.46-15.61-1.4-21.9C1189.98,1365.28,1190.57,1373.17,1191.44,1380.88z"/>
<path class="st1" d="M1190.16,1355.42L1190.16,1355.42c-1.61,2.54-3.12,5.14-4.59,7.75c-5.34,9.42-10.07,19.35-15.75,28.62
	c5.68-9.28,10.4-19.2,15.75-28.62C1187.04,1360.56,1188.55,1357.96,1190.16,1355.42z"/>
<path class="st1" d="M1050.77,1392.92c17.03,4.25,34.22,7.9,51.12,12.62c12.6,3.52,25.79,7.48,38.96,7.83
	c7.69,0.2,13.35-2.46,18.23-7.19c-4.88,4.73-10.55,7.4-18.23,7.19c-13.17-0.36-26.36-4.31-38.96-7.83
	C1085,1400.83,1067.8,1397.17,1050.77,1392.92c-81-20.21-161.6-44.07-244.92-52.66c-30.68-3.16-61.43-4.84-92.22-5.86
	c30.79,1.02,61.54,2.7,92.22,5.86C889.17,1348.85,969.77,1372.71,1050.77,1392.92z"/>
<path class="st1" d="M1331.09,1449.96L1331.09,1449.96c0.56,1-9.6-3.09-25.08-8.96C1321.49,1446.87,1331.66,1450.96,1331.09,1449.96
	z"/>
<path class="st1" d="M1772.3,1444.18c-3.37,0.36-6.76,0.81-10.15,1.24C1765.53,1444.99,1768.92,1444.54,1772.3,1444.18
	L1772.3,1444.18z"/>
<path class="st1" d="M1738.7,1606.4c0-0.72,0.06-1.46,0.19-2.2C1738.77,1604.94,1738.7,1605.68,1738.7,1606.4z"/>
<path class="st1" d="M1764.45,1581.07c22.39-10.98,45.69-21.35,69.69-28.87c14.52-4.55,28.78-8.45,42.82-11.62
	c-14.04,3.17-28.3,7.07-42.82,11.62C1810.14,1559.72,1786.85,1570.09,1764.45,1581.07c-9.49,4.65-15.89,9.15-19.97,13.44
	C1748.57,1590.22,1754.96,1585.72,1764.45,1581.07z"/>
<polygon class="st1" points="1757.2,1625.96 1757.81,1626.25 1758.06,1626.36 1757.81,1626.25 "/>
<polygon class="st1" points="1760.28,1627.31 1760.95,1627.59 1761.64,1627.85 1760.95,1627.59 "/>
<path class="st1" d="M1705.02,1653.88c20.98-8.39,40.43-16.91,57.73-25.6C1745.45,1636.98,1726,1645.49,1705.02,1653.88z"/>
<path class="st1" d="M1876.96,1540.58c7.02-1.59,13.99-2.99,20.9-4.2C1890.95,1537.59,1883.98,1538.99,1876.96,1540.58z"/>
<path class="st1" d="M1705.02,1653.88c-29.37,11.75-61.74,23.25-95.42,34.67C1643.28,1677.14,1675.65,1665.63,1705.02,1653.88z"/>
<path class="st1" d="M1462.2,1737.41c-14.55,4.92-28.91,9.87-42.92,14.85C1433.29,1747.28,1447.65,1742.34,1462.2,1737.41z"/>
<path class="st1" d="M1609.6,1688.55c-9.62,3.26-19.35,6.52-29.14,9.77C1590.25,1695.07,1599.98,1691.82,1609.6,1688.55z"/>
<path class="st1" d="M1491.54,1727.6c-9.84,3.26-19.64,6.53-29.34,9.82C1471.91,1734.13,1481.7,1730.86,1491.54,1727.6z"/>
<path class="st1" d="M1580.46,1698.32c-29.39,9.75-59.38,19.48-88.92,29.27C1521.08,1717.8,1551.07,1708.08,1580.46,1698.32z"/>
<path class="st1" d="M1191.99,1385.48c0.39,3.03,0.8,5.98,1.22,8.73C1192.79,1391.46,1192.37,1388.51,1191.99,1385.48z"/>
<path class="st1" d="M1418,1476.92c1.98,0.86,3.97,1.68,5.96,2.48C1421.97,1478.59,1419.97,1477.78,1418,1476.92z"/>
<path class="st1" d="M1072.89,1583.71c-28.17-9.06-56.22-18.44-84.18-28.11C1016.67,1565.27,1044.73,1574.65,1072.89,1583.71z"/>
<path class="st1" d="M1151.97,1608.62c-4.01-2.11-8.25-3.83-12.56-5.32C1143.72,1604.79,1147.96,1606.52,1151.97,1608.62z"/>
<path class="st1" d="M1194.72,1637.43c-1.16,2.24-2.37,4.68-3.61,7.26C1192.35,1642.11,1193.57,1639.67,1194.72,1637.43z"/>
<path class="st1" d="M1194.48,1401.77c0.41,2.25,0.8,4.19,1.15,5.71C1195.28,1405.96,1194.89,1404.02,1194.48,1401.77z"/>
<path class="st1" d="M1297.07,1437.64c3.14,1.16,6.13,2.29,8.94,3.36C1303.2,1439.93,1300.21,1438.8,1297.07,1437.64z"/>
<path class="st1" d="M1572.92,1574.06l0.21-0.9L1572.92,1574.06z"/>
<path class="st1" d="M1593.15,1587.28c-1.42-3.09-2.77-6.25-3.98-9.46C1590.37,1581.02,1591.73,1584.18,1593.15,1587.28z"/>
<path class="st1" d="M1584.99,1563.06c0.59,3.34,1.45,6.64,2.49,9.9C1586.44,1569.7,1585.58,1566.4,1584.99,1563.06z"/>
<path class="st1" d="M1544,1610.32c0.09-2.93,0.29-6.35,0.57-10.07C1544.29,1603.96,1544.09,1607.39,1544,1610.32L1544,1610.32z"/>
<path class="st1" d="M1244.29,1624.8c-2.32,3.7-4.39,7.53-6.2,11.47C1239.9,1632.33,1241.97,1628.5,1244.29,1624.8z"/>
<path class="st1" d="M1199.1,1629.56c-0.33,0.54-0.68,1.13-1.06,1.77C1198.41,1630.68,1198.76,1630.09,1199.1,1629.56z"/>
<path class="st1" d="M704.75,1842.29c-4.56-2.71-9.19-5.15-13.85-7.42C695.56,1837.14,700.19,1839.58,704.75,1842.29L704.75,1842.29
	z"/>
<path class="st1" d="M1220.41,1308.27c0.86-1.85,1.81-3.67,2.93-5.41C1222.22,1304.61,1221.28,1306.42,1220.41,1308.27z"/>
<path class="st1" d="M648.96,1816.37c-9.24-4-18.42-7.98-27.49-12.34c-9.08-4.36-18.01-9.03-27.38-13.98
	c9.37,4.95,18.3,9.62,27.38,13.98C630.54,1808.39,639.72,1812.37,648.96,1816.37z"/>
<path class="st2" d="M1884.62,729.87c8.38-48.31,24.5-95.11,31.39-143.66c11.27-79.45-16.51-160.32-75-215.96
	c-14.12-13.43-29.95-25-47.3-34.09c-71.11-37.29-154.09-30-229.89-50.36c-82.07-22.05-142.99-84.76-216.82-123.55
	c-86.09-45.22-189.91-48.57-284.18-24.69c-126.74,32.1-220.58,107.03-323.6,181.32c-75.17,54.21-141.93,81.13-235.82,84.95
	c-73.02,2.98-149.3,0.94-214.97,33.01c-111.26,54.32-173.15,201.55-171.64,320.2c0.06,4.84,0.22,9.74,0.43,14.66
	c29.06,3.25,56.13,7.31,80.62,12.22C372.73,818.99,524.43,904.51,677.18,990l44.39-170.5v-0.01l16.07-61.72
	c4.13-14.73,6.95-22.68,14.57-37.96c6.64-13.33,16.14-25.77,19.26-29.86c3.72-4.88,12.02-14.86,25.86-27.01
	c8.11-7.11,17.66-14.05,28.38-20.6c-1.28,0.77-2.46,1.61-3.69,2.41c1.33-0.87,2.61-1.76,3.99-2.6l0.03-0.02
	c-0.58-7.84,0.06-15.4,1.96-22.55l17.64-66.53l-0.07,0.3c12.2-46.87,75.52-77.8,166.85-74.58c48.68,1.72,97.93,12.89,141.69,30.39
	l510.67,89.93c40.74,7.18,64.44,49.26,52.92,93.97l-2.78,10.81c41.4,13.26,70.49,34.98,76.74,61.54c0.7,2.98,1.07,5.95,1.18,8.91
	v-0.63l3.41,67.44c0.29,5.7-0.53,11.36-2.32,16.91c34.06,17.52,57.03,40.49,63.09,66.96l8.11,161.02l12.5,282.49l4,91.22
	c26.84,14.75,45.02,38.91,36.83,73.57h0h0c0.03,5.69-2.47,11.61-7.55,17.82c12.99,2.79,26.17,6.49,38.09,11.42
	c29.19-50.56,51.76-103.91,55.03-170.46C2015.45,1159.42,1843.76,965.56,1884.62,729.87z M529.93,672.93l-30.77-16.99l-16.99,30.77
	l-37.46-20.69l16.99-30.77l-30.77-16.99l20.69-37.46l30.77,16.99l16.99-30.77l37.46,20.69l-16.99,30.77l30.77,16.99L529.93,672.93z
	 M940.74,356.51c-16.67-25.11,22.32-50.93,38.96-25.86C996.37,355.76,957.38,381.58,940.74,356.51z M1464.84,376.88l-16.25-8.97
	l-8.97,16.25l-19.78-10.92l8.98-16.25l-16.25-8.97l10.93-19.78l16.25,8.97l8.97-16.25l19.78,10.93l-8.97,16.25l16.25,8.98
	L1464.84,376.88z M1806.36,603.12c-16.67-25.11,22.32-50.93,38.96-25.86C1861.99,602.37,1823,628.19,1806.36,603.12z
	 M1915.36,1321.07l16.25,8.97l8.98-16.25l19.78,10.92l-8.97,16.25l16.25,8.97l-10.93,19.78l-16.25-8.97l-8.98,16.25l-19.78-10.93
	l8.97-16.25l-16.25-8.97L1915.36,1321.07z"/>
<path class="st1" d="M676.88,1828.42c4.68,2.07,9.37,4.18,14.02,6.45C686.24,1832.6,681.55,1830.5,676.88,1828.42z"/>
<path class="st1" d="M1218.81,1312.11c-0.74,1.99-1.39,4.02-1.88,6.07c-0.39,1.63-0.67,3.27-0.9,4.92c0.23-1.65,0.52-3.29,0.9-4.91
	C1217.42,1316.13,1218.07,1314.1,1218.81,1312.11z"/>
<path class="st1" d="M1272.23,1763.58c0.22-1.8,0.12-3.53-0.14-5.16C1272.35,1760.05,1272.45,1761.77,1272.23,1763.58z"/>
<path class="st1" d="M1617.83,1649.63c-3.15,1.79-4.43,4.47-4.41,7.1C1613.39,1654.1,1614.68,1651.42,1617.83,1649.63z"/>
<path class="st1" d="M1215.46,1330.39l0.01-0.19L1215.46,1330.39z"/>
<path class="st1" d="M1262.27,1741.49c1.05,0.96,2.03,1.95,2.95,3C1264.3,1743.44,1263.32,1742.45,1262.27,1741.49
	c-2.18-1.91-4.46-3.72-7.87-5.67c-0.8,1.81-1.16,3.6-1.24,5.34c0.08-1.74,0.44-3.54,1.24-5.34
	C1257.81,1737.77,1260.09,1739.58,1262.27,1741.49z"/>
<path class="st1" d="M1448.69,1326.43c2.34,0.17,4.7,0.46,7.07,0.84l0.45,0.05h0l-0.45-0.05
	C1453.39,1326.89,1451.03,1326.6,1448.69,1326.43l-0.37-0.02c-2.46-0.18-4.89-0.24-7.31-0.2c2.42-0.04,4.86,0.02,7.31,0.2
	L1448.69,1326.43z"/>
<path class="st1" d="M1269.96,1751.66c-0.64-1.36-1.37-2.64-2.17-3.82c-0.8-1.19-1.65-2.3-2.57-3.35c0.92,1.05,1.77,2.16,2.57,3.35
	C1268.59,1749.03,1269.32,1750.3,1269.96,1751.66z"/>
<path class="st1" d="M1511.8,1362.62c2.28,6.04,3.58,13.05,3.85,21.24C1515.38,1375.67,1514.08,1368.65,1511.8,1362.62z"/>
<path class="st1" d="M1369.74,1380.74c-0.19,0.79-0.44,1.55-0.59,2.36c-0.95,4.9-1.34,9.79-1.22,14.63
	c-0.12-4.83,0.27-9.72,1.22-14.63C1369.31,1382.29,1369.56,1381.53,1369.74,1380.74z"/>
<path class="st2" d="M1450.09,1785.55c-42.67,4.6-82.54,4.59-121.73,2.39c23.44-10.45,49.47-20.64,77.03-30.67
	c-27.55,10.03-53.58,20.21-77.03,30.67c-7.89,3.52-15.54,7.06-22.81,10.65c-32.26,15.91-114.92,27.4-244,31.53
	c-118.18,3.79-225.39,26.17-341.92,23.36c-166.54,77.4-249.32-89.91-330.78-190.65c-57.3-70.87-110.91-136.99-165.75-192.1
	c-1.55,3.2-3.11,6.38-4.67,9.55c-37.48,75.97-63.42,153.06-20.66,235.82c23.51,45.5,92.87,86.11,135.14,113.29
	c96.17,61.83,205.28,160.58,322.62,168.45c152.26,10.21,263.76-118.69,408.45-116.07c53.78,0.97,109.5,22.46,160.75,36.57
	c88.31,24.32,169.57,31.56,261.16,21.8c163.67-17.44,286.54-88.89,370.17-227.97c-2.19,0.71-4.34,1.42-6.43,2.14
	C1729.76,1755.95,1596.44,1769.75,1450.09,1785.55z M363.61,1760.15l-16.25-8.97l-8.98,16.25l-19.78-10.93l8.98-16.25l-16.25-8.97
	l10.93-19.79l16.25,8.98l8.97-16.25l19.78,10.93l-8.97,16.25l16.25,8.97L363.61,1760.15z M1475.32,1866.18
	c-16.67-25.11,22.32-50.93,38.96-25.86C1530.95,1865.43,1491.96,1891.25,1475.32,1866.18z"/>
<path class="st1" d="M1200.59,1338.68c-1.03,3.54-2.16,7.11-3.56,10.62C1198.42,1345.79,1199.55,1342.22,1200.59,1338.68z"/>
<path class="st1" d="M1200.59,1338.68c2-7.11,3.44-14.21,4.76-21.19c0.54-2.84,1.05-5.65,1.58-8.46c-0.52,2.81-1.04,5.62-1.58,8.46
	C1204.02,1324.47,1202.58,1331.57,1200.59,1338.68z"/>
<path class="st1" d="M1214.74,1275.76L1214.74,1275.76c-3.12,2.08-5.81,4.68-8.17,7.57
	C1208.93,1280.44,1211.62,1277.84,1214.74,1275.76z"/>
<path class="st1" d="M1372.84,1370.83c-0.18,0.5-0.36,0.98-0.55,1.48c-0.27,0.72-0.52,1.44-0.79,2.16c0.27-0.72,0.52-1.45,0.79-2.16
	C1372.47,1371.81,1372.66,1371.32,1372.84,1370.83z"/>
<path class="st1" d="M1389.25,1346.77c1.47-1.39,3.01-2.69,4.6-3.96l0.64-0.54c1.69-1.31,3.44-2.54,5.25-3.71l0.41-0.27
	c1.89-1.2,3.85-2.32,5.86-3.36l0.12-0.07l-0.12,0.07c-2.01,1.04-3.97,2.15-5.86,3.36l-0.41,0.27c-1.8,1.17-3.56,2.39-5.25,3.71
	l-0.64,0.53C1392.26,1344.08,1390.71,1345.38,1389.25,1346.77l-0.83,0.84c-1.36,1.33-2.7,2.69-3.95,4.13
	c1.25-1.44,2.58-2.8,3.95-4.13L1389.25,1346.77z"/>
<path class="st1" d="M1191.87,1359.52c1.05-1.64,1.99-3.32,2.84-5.03C1193.86,1356.2,1192.92,1357.88,1191.87,1359.52z"/>
<path class="st1" d="M1194.6,1308.07c-0.63,2.35-1.2,4.71-1.65,7.07c-0.73,3.82-1.24,7.65-1.59,11.46
	c0.35-3.82,0.86-7.64,1.59-11.46C1193.41,1312.78,1193.98,1310.42,1194.6,1308.07z"/>
<polygon class="st1" points="1200.02,1293.47 1200.02,1293.47 1200.7,1292.28 "/>
<path class="st1" d="M1190.78,1337.22l0,0.15L1190.78,1337.22z"/>
<path class="st1" d="M1369.07,1321.23L1369.07,1321.23c-3.43,2.78-6.53,5.89-9.33,9.26
	C1362.53,1327.12,1365.63,1324.01,1369.07,1321.23z"/>
<path class="st1" d="M1348.41,1398.68c0.39-2.05,0.78-4.09,1.17-6.12c0.58-3.04,1.19-6.03,1.81-9.02c-0.62,2.99-1.23,5.98-1.81,9.02
	C1349.19,1394.59,1348.8,1396.63,1348.41,1398.68z"/>
<path class="st1" d="M1346.41,1353.12c-1.65,4.09-3,8.31-4.02,12.59c-0.52,2.14-0.97,4.3-1.33,6.47c0.36-2.17,0.81-4.33,1.33-6.47
	C1343.41,1361.42,1344.76,1357.21,1346.41,1353.12z"/>
<path class="st1" d="M1367.79,1325.19c-2.2,6.93-4.52,13.57-6.62,20.11C1363.28,1338.76,1365.59,1332.12,1367.79,1325.19z"/>
<path class="st1" d="M1376.5,1363.06c0.31-0.56,0.68-1.08,1.02-1.63C1377.18,1361.97,1376.81,1362.5,1376.5,1363.06
	c-0.39,0.7-0.71,1.45-1.08,2.16c-0.35,0.68-0.67,1.38-1.02,2.07c0.34-0.69,0.67-1.38,1.02-2.07
	C1375.78,1364.5,1376.1,1363.76,1376.5,1363.06z"/>
<path class="st1" d="M1346.93,1406c-0.8,3.78-1.67,7.6-2.75,11.47C1345.26,1413.6,1346.14,1409.78,1346.93,1406z"/>
<path class="st1" d="M1339.76,1391.8L1339.76,1391.8c-0.06-2.17-0.06-4.36,0.01-6.54C1339.7,1387.44,1339.7,1389.62,1339.76,1391.8z
	"/>
<path class="st1" d="M1222.29,1345.06c-0.27,0.73-0.55,1.47-0.85,2.21C1221.75,1346.53,1222.02,1345.79,1222.29,1345.06z"/>
<path class="st1" d="M1511.8,1362.62c-3.03-8.05-7.78-14.35-14.08-19.37C1504.02,1348.27,1508.77,1354.57,1511.8,1362.62z"/>
<path class="st1" d="M1456.14,1327.33L1456.14,1327.33c1.11,0.19,2.21,0.3,3.32,0.53c5.29,1.08,10.25,2.32,14.87,3.77
	c-4.62-1.45-9.58-2.68-14.87-3.77C1458.34,1327.63,1457.24,1327.51,1456.14,1327.33z"/>
<path class="st1" d="M1235.92,1291.55c-1.36,0.56-2.63,1.25-3.82,2.06C1233.29,1292.81,1234.56,1292.11,1235.92,1291.55z"/>
<polygon class="st2" points="1574.15,173.18 1598.5,186.63 1609.55,166.63 1629.55,177.67 1642.99,153.32 1622.99,142.28 
	1634.04,122.28 1609.69,108.83 1598.65,128.83 1578.65,117.78 1565.2,142.13 1585.2,153.18 "/>
<polygon class="st2" points="575.35,271.53 595.14,282.46 604.11,266.21 620.36,275.19 631.29,255.4 615.04,246.43 624.01,230.18 
	604.23,219.25 595.26,235.5 579,226.52 568.08,246.31 584.33,255.28 "/>
<polygon class="st0" points="536.84,587.72 499.38,567.02 482.39,597.8 451.62,580.8 430.93,618.26 461.7,635.25 444.71,666.02 
	482.17,686.71 499.16,655.94 529.93,672.93 550.61,635.48 519.85,618.48 "/>
<polygon class="st0" points="1468.49,331.87 1448.71,320.94 1439.74,337.2 1423.48,328.22 1412.56,348 1428.81,356.98 
	1419.83,373.23 1439.62,384.15 1448.59,367.91 1464.84,376.88 1475.77,357.1 1459.52,348.12 "/>
<polygon class="st3" points="1911.71,1366.08 1931.49,1377.01 1940.47,1360.76 1956.72,1369.73 1967.64,1349.95 1951.39,1340.98 
	1960.37,1324.72 1940.59,1313.8 1931.61,1330.05 1915.36,1321.07 1904.43,1340.86 1920.68,1349.83 "/>
<polygon class="st0" points="367.27,1715.14 347.48,1704.21 338.51,1720.46 322.26,1711.48 311.33,1731.27 327.58,1740.24 
	318.61,1756.49 338.39,1767.42 347.37,1751.17 363.61,1760.15 374.54,1740.36 358.29,1731.39 "/>
<polygon class="st2" points="2024.19,845.65 2041.67,830.94 2023.77,809.65 2006.28,824.36 1991.57,806.88 1970.29,824.78 
	1985,842.27 1967.51,856.97 1985.42,878.26 2002.9,863.55 2017.61,881.04 2038.89,863.13 "/>
<polygon class="st2" points="1894.84,1827.52 1873.39,1835.4 1865.51,1813.95 1839.41,1823.55 1847.28,1844.99 1825.84,1852.87 
	1835.43,1878.98 1856.88,1871.1 1864.76,1892.55 1890.86,1882.96 1882.99,1861.51 1904.43,1853.63 "/>
<path class="st2" d="M2008.99,311.97c39.32,0,39.39-61.12,0-61.12C1969.67,250.85,1969.6,311.97,2008.99,311.97z"/>
<path class="st2" d="M1093.1,98.58c39.33,0,39.39-61.12,0-61.12C1053.77,37.46,1053.71,98.58,1093.1,98.58z"/>
<path class="st2" d="M2061.1,1453c-30.09,0-30.14,46.76,0,46.76C2091.19,1499.76,2091.23,1453,2061.1,1453z"/>
<polygon class="st2" points="769.13,2032.52 754.37,2021.69 745.47,2033.82 733.34,2024.92 722.51,2039.69 734.64,2048.58 
	725.75,2060.71 740.51,2071.54 749.41,2059.41 761.54,2068.31 772.37,2053.54 760.24,2044.64 "/>
<polygon class="st2" points="150.27,1469.69 140.24,1462.34 134.19,1470.58 125.95,1464.53 118.59,1474.57 126.83,1480.61 
	120.79,1488.85 130.83,1496.21 136.87,1487.97 145.11,1494.01 152.47,1483.98 144.23,1477.94 "/>
<path class="st2" d="M1212.04,2011.45c16.64,25.07,55.63-0.75,38.96-25.86C1234.36,1960.53,1195.37,1986.34,1212.04,2011.45z"/>
<path class="st2" d="M187.76,1843.02c16.64,25.07,55.63-0.75,38.96-25.86C210.08,1792.09,171.09,1817.91,187.76,1843.02z"/>
<path class="st2" d="M155.01,428.31c-16.64-25.07-55.63,0.75-38.96,25.86C132.69,479.24,171.68,453.42,155.01,428.31z"/>
<path class="st0" d="M940.74,356.51c16.64,25.07,55.63-0.75,38.96-25.86C963.06,305.58,924.07,331.4,940.74,356.51z"/>
<path class="st0" d="M1806.36,603.12c16.64,25.07,55.63-0.75,38.96-25.86C1828.68,552.19,1789.69,578.01,1806.36,603.12z"/>
<path class="st0" d="M1475.32,1866.18c16.64,25.07,55.63-0.75,38.96-25.86C1497.65,1815.25,1458.66,1841.07,1475.32,1866.18z"/>
<path class="st4" d="M1785.24,1620.03L1785.24,1620.03l-1.05,0.42c-2.21,0.88-4.48,1.76-6.75,2.66c-1.21,0.47-2.39,0.94-3.62,1.42
	c-3.41,1.33-6.88,2.66-10.41,4.01l-0.66-0.25c-17.3,8.69-36.75,17.21-57.73,25.6c-29.37,11.75-61.74,23.25-95.42,34.67
	c-9.62,3.26-19.35,6.52-29.14,9.77c-29.39,9.75-59.38,19.48-88.92,29.27c-9.84,3.26-19.64,6.53-29.34,9.82
	c-14.55,4.93-28.91,9.87-42.92,14.85c-4.67,1.67-9.31,3.33-13.9,5c-27.55,10.03-53.58,20.22-77.03,30.67
	c39.2,2.21,79.06,2.22,121.73-2.39c146.35-15.8,279.68-29.6,399.55-71.24c2.08-0.72,4.24-1.43,6.43-2.14
	c45.04-14.55,109.95-26.17,130.8-70.55c19.41-41.32-4.19-65.13-37.87-79.06c-11.92-4.93-25.1-8.64-38.09-11.42
	C1895.14,1570.41,1854.26,1592.59,1785.24,1620.03z"/>
<path class="st5" d="M1261.41,976.03c-2.94,6.07-6.67,11.85-11.12,17.34l-0.09,0.32c5.8-7.08,10.31-14.7,13.54-22.75
	c-0.56,1.35-1.18,2.68-1.8,4.01L1261.41,976.03z"/>
<path class="st5" d="M1264.51,968.86c0.34-0.92,0.7-1.83,1.01-2.75c0.35-1.07,0.68-2.17,1.01-3.27
	C1265.95,964.87,1265.24,966.87,1264.51,968.86z"/>
<path class="st5" d="M1257.67,1080.46l27.28-104.75c7.28-27.37,14.5-54.78,21.84-82.16l-30.93,33.87
	c-5.75,22.08-7.95,30.48-8.97,34.24l0.32-1.03l-0.19,0.74l-64.94,249.4c1.05,0.31,2.1,0.62,3.15,0.93l26.28-28.77L1257.67,1080.46z"
	/>
<path class="st5" d="M1582.53,591.67l-6.9,7.55l85.25,15.02c24.67,4.34,41.65,24.53,44.81,49.57l6.58-7.21
	c2.06,11.09,1.73,22.97-1.3,34.74l-2.71,10.51c2.25,0.65,4.47,1.33,6.65,2.03l2.78-10.81c11.52-44.71-12.18-86.79-52.92-93.97
	l-510.67-89.93c9.11,3.64,17.97,7.57,26.54,11.73L1582.53,591.67z"/>
<path class="st5" d="M1658.94,621.8l-89.52-15.77l-68.29,74.76l33.23,5.85l33.88,5.97c3.58-0.44,7.2-0.84,10.85-1.18
	c34.76-3.26,68.38-1.82,98.3,3.36l21.63-23.68C1698.17,646.47,1682.52,625.95,1658.94,621.8z"/>
<path class="st5" d="M1266.28,963.84c0.24-0.82,0.52-1.64,0.74-2.47l-0.26,0.76C1266.55,962.88,1266.41,963.4,1266.28,963.84z"/>
<path class="st5" d="M1294.73,977.43l-26.72,104.84l-22.11,84.92l61.52-67.36c0.2-3.39,0.71-6.85,1.61-10.33
	c5.2-20.18,21-35.4,38.64-39.35c-0.1-2.37-0.22-4.81-0.32-7.18l-1.74-39.57c-0.69-15.3-1.33-30.35-1.97-44.9
	c-0.63-14.11,3.7-27.98,12.23-41.14c-0.26-5.14,0.21-10.5,1.61-15.94c6.71-26.04,31.04-43.88,54.24-39.79l0.41,0.07l-0.13-1.35
	l-3.41-67.44c0.04,0.78,0.15,1.56,0.23,2.34c-0.49-4.79-0.21-9.56,0.78-14.27l-90.68,99.27
	C1310.98,912.68,1302.8,945.06,1294.73,977.43z"/>
<path class="st6" d="M981.31,1041.01c0.55,0.12,1.11,0.24,1.66,0.36v-0.01C982.42,1041.24,981.86,1041.13,981.31,1041.01z"/>
<path class="st6" d="M1312.8,871.1c18.67-69.71,38.01-139.34,57.99-208.81c-15.97,70.18-32.64,140.28-49.94,210.23
	c-0.63,2.58-1.28,5.15-1.92,7.74l90.68-99.27c1.51-7.13,4.65-14.12,9.28-20.87c-12.15-10.12-17.78-28.02-12.96-46.75
	c6.71-26.04,31.04-43.87,54.24-39.79l40.95,7.21l68.29-74.76l-346.5-61.02c33.02,22.17,58.2,48.32,70.54,75.92
	c4.65,10.4,7.16,20.44,7.82,30.04c11.66,10.21,16.97,27.77,12.24,46.12c-4.36,16.91-16.16,30.32-30.24,36.57l-1.62,6.1
	c-2.54,9.59-7.34,18.46-13.97,26.55l0.08,0.14c1.29,2.28,2.48,4.62,3.56,7c2.82,6.56,7.54,17.54,10.47,28.65
	c2.31,8.75,4.92,18.65,6.51,35.7c1.07,11.45,1.81,34.71-5.22,61.84v0c-2.89,11.1-5.27,20.23-7.23,27.78l30.93-33.87
	C1308.8,886.06,1310.77,878.58,1312.8,871.1z"/>
<path class="st6" d="M1582.53,591.67l-401.87-70.77c8.53,4.14,16.78,8.51,24.67,13.11l370.3,65.21L1582.53,591.67z"/>
<path class="st7" d="M1231.52,1182.93l-26.28,28.77c5.92,1.75,11.83,3.49,17.76,5.24c2.65-10.56,5.3-21.12,7.92-31.68
	L1231.52,1182.93z"/>
<path class="st7" d="M1703.89,690.63l-2.41,9.35c2.29,0.59,4.56,1.22,6.79,1.86l2.71-10.51c3.03-11.77,3.36-23.65,1.3-34.74
	l-6.58,7.21C1706.77,672.32,1706.26,681.41,1703.89,690.63z"/>
<path class="st7" d="M1314.83,1237.73l41.45,7.3l-0.79-17.91c-1.18-27.03-2.36-54.03-3.55-80.72l-12.99-2.29
	c-20.09-3.54-32.82-22.38-31.53-44.28l-61.52,67.36l-5.15,19.79c-2.89,10.87-5.76,21.75-8.64,32.62c3.02,0.89,6.05,1.77,9.07,2.67
	c3.02,0.89,6.04,1.77,9.07,2.66c12.98,3.81,29.57,8.24,48.19,13.43C1303.8,1237.05,1309.34,1236.76,1314.83,1237.73z"/>
<path class="st7" d="M1699.02,671.11l-21.63,23.68c5.93,1.03,11.71,2.2,17.32,3.51l2.29-8.89
	C1698.6,683.18,1699.23,677.03,1699.02,671.11z"/>
<path class="st7" d="M1242.05,1520.21c-23.2-4.09-36.63-28.57-29.92-54.61c2.15-8.34,6.12-15.82,11.26-22.03
	c-16.66-3.13-33.32-6.03-49.98-8.75c-6.16,21.87-12.26,43.74-18.55,65.58c5.02-22.05,10.22-44.07,15.37-66.09
	c-8.44-1.36-16.87-2.74-25.31-4l-7.14,27.44c-8.76,33.64-39.5,60.51-86.27,75.93c-1.35,0.96-2.73,1.92-4.15,2.85
	c20.66,8.05,41.43,15.57,62.18,22.96c8.26,2.94,16.52,5.88,24.76,8.83c16.48,5.92,32.89,11.94,49.15,18.34
	c11.09,4.36,22.23,7.7,31.91,11.76c5.17-4.67,13.56-9.05,21.14-12.67c0.84-0.4,1.67-0.79,2.49-1.18c4.9-2.3,9.24-4.24,11.83-5.68
	c20.22-11.22,64.96-25.59,115.52-36.79l-49.61-8.74L1242.05,1520.21z"/>
<path class="st8" d="M1658.94,621.8c23.58,4.15,39.23,24.68,40.08,49.31c0.2,5.92-0.42,12.08-2.03,18.31l-2.29,8.89
	c2.29,0.54,4.54,1.1,6.77,1.68l2.41-9.35c2.38-9.22,2.88-18.3,1.81-26.83c-3.16-25.04-20.14-45.23-44.81-49.57l-85.25-15.02
	L1205.33,534c6.08,3.55,11.94,7.22,17.58,11.01l346.5,61.02L1658.94,621.8z"/>
<path class="st8" d="M1240.74,1186.98l5.15-19.79l22.11-84.92l26.72-104.84c8.07-32.37,16.26-64.75,24.2-97.17
	c0.63-2.58,1.29-5.16,1.92-7.74c17.31-69.95,33.97-140.05,49.94-210.23c-19.98,69.48-39.31,139.1-57.99,208.81
	c-2.04,7.48-4.01,14.96-6.01,22.45c-7.34,27.39-14.56,54.79-21.84,82.16l-27.28,104.75l-26.15,102.47l-0.59,2.33
	c-2.62,10.56-5.28,21.12-7.92,31.68c0.69,0.2,1.38,0.4,2.07,0.61c2.34,0.69,4.69,1.38,7.04,2.07
	C1234.98,1208.73,1237.85,1197.85,1240.74,1186.98z"/>
<path class="st8" d="M1173.41,1434.82c-1.06-0.18-2.12-0.35-3.18-0.52c-5.15,22.03-10.36,44.05-15.37,66.09
	C1161.15,1478.56,1167.25,1456.69,1173.41,1434.82z"/>
<path class="st8" d="M1313.52,697.09c4.73-18.36-0.58-35.92-12.24-46.12c0.43,6.11,0.08,12.04-1.01,17.75
	c3.94,7.39,5.14,16.79,2.63,26.5c-2.52,9.8-8.32,18.05-15.65,23.48l-3.97,14.96C1297.36,727.41,1309.16,714,1313.52,697.09z"/>
<path class="st8" d="M1501.13,680.79l-40.95-7.21c-23.2-4.09-47.53,13.75-54.24,39.79c-4.83,18.73,0.8,36.63,12.96,46.75
	c2.21-3.21,4.74-6.37,7.6-9.45c-9.29-7.54-13.59-21.14-9.91-35.43c5.06-19.63,23.22-33.03,40.57-29.97l74.19,13.06l1.57,0.28
	c11.26-2.49,23.06-4.51,35.31-6l-33.88-5.97L1501.13,680.79z"/>
<path class="st9" d="M1531.14,699.01c0.59-0.14,1.19-0.27,1.78-0.4l-1.57-0.28L1531.14,699.01z"/>
<path class="st10" d="M1457.16,685.27c-17.36-3.06-35.52,10.34-40.57,29.97c-3.68,14.29,0.62,27.88,9.91,35.43
	c15.71-16.96,40.98-31.84,72.71-42.67c-2.71-0.58-5.44-1.11-8.15-1.72c-12.25-2.73-24.4-5.72-36.39-9.47
	c12.79,0.61,25.36,1.97,37.91,3.58c7.1,0.9,14.16,1.95,21.19,3.07c5.62-1.61,11.41-3.09,17.36-4.43l0.21-0.68L1457.16,685.27z"/>
<path class="st11" d="M1454.68,696.8c11.99,3.75,24.13,6.74,36.39,9.47c2.7,0.61,5.43,1.14,8.15,1.72
	c4.72-1.61,9.58-3.12,14.57-4.55c-7.04-1.12-14.09-2.17-21.19-3.07C1480.04,698.77,1467.47,697.41,1454.68,696.8z"/>
<path class="st8" d="M1357.49,901.42c-1.4,5.44-1.88,10.8-1.61,15.94c3.58-5.52,7.89-10.92,12.91-16.17
	c5.34-17.09,20.71-28.95,36.25-28.26c2.63-1.58,5.32-3.15,8.09-4.68c-0.5-2.19-0.8-4.37-0.98-6.55l-0.41-0.07
	C1388.53,857.54,1364.19,875.38,1357.49,901.42z"/>
<path class="st10" d="M1368.78,901.19c9.64-10.09,21.87-19.58,36.25-28.26C1389.49,872.24,1374.12,884.11,1368.78,901.19z"/>
<path class="st8" d="M982.97,1041.37c1.85,0.39,3.71,0.75,5.58,1.11C986.69,1042.11,984.83,1041.74,982.97,1041.37L982.97,1041.37z"
	/>
<path class="st8" d="M1309.03,1089.5c-0.9,3.49-1.41,6.94-1.61,10.33c-1.3,21.9,11.44,40.74,31.53,44.28l12.99,2.29
	c-0.17-3.85-0.34-7.77-0.51-11.61l-0.03-0.71l-9.44-1.66c-17.36-3.06-27.33-21.45-22.28-41.05c3.88-15.06,15.48-26.44,28.51-29.56
	c-0.18-3.89-0.35-7.81-0.52-11.67C1330.03,1054.1,1314.23,1069.32,1309.03,1089.5z"/>
<path class="st10" d="M1319.68,1091.37c-5.05,19.6,4.92,37.99,22.28,41.05l9.44,1.66c-0.63-14.3-1.26-28.45-1.9-42.48l-0.59-13.86
	c-0.25-5.38-0.47-10.62-0.71-15.93C1335.16,1064.93,1323.56,1076.31,1319.68,1091.37z"/>
<path class="st8" d="M1314.83,1237.73c-5.49-0.97-11.03-0.67-16.39,0.64c4.5,1.25,9.11,2.55,13.83,3.89
	c14.14,4.03,29.16,8.49,44.48,13.42l-0.47-10.65L1314.83,1237.73z"/>
<path class="st8" d="M1319.73,1521.71l-74.68-13.15c-17.36-3.05-27.33-21.45-22.27-41.08c2.25-8.72,7.09-16.2,13.29-21.58
	c-4.23-0.82-8.45-1.53-12.67-2.33c-5.15,6.21-9.12,13.7-11.26,22.03c-6.71,26.04,6.72,50.52,29.92,54.61l74.68,13.15l49.61,8.74
	c6.14-1.36,12.36-2.68,18.64-3.94c-1.56-1.89-3.03-3.8-4.39-5.74L1319.73,1521.71z"/>
<path class="st9" d="M1328.49,1482.2c-3.58,13.88-6.46,27.15-8.76,39.5l60.86,10.71c-5.69-8.08-9.71-16.61-11.77-25.56
	c-0.85-3.72-1.35-7.47-1.48-11.13l-0.75-16.61c-1.34-0.26-2.66-0.57-4-0.84c-3.65-0.74-7.28-1.5-10.9-2.29
	c-1.99-0.44-3.97-0.88-5.95-1.34c-3.64-0.84-7.24-1.7-10.83-2.58c-1.14-0.28-2.3-0.54-3.43-0.82
	C1330.46,1474.91,1329.41,1478.61,1328.49,1482.2z"/>
<path class="st10" d="M1245.05,1508.55l74.68,13.15c2.3-12.35,5.18-25.62,8.76-39.5c0.93-3.6,1.97-7.29,2.99-10.96
	c-0.68-0.17-1.34-0.35-2.02-0.52c-2.93-0.74-5.79-1.49-8.67-2.24c-1.89-0.5-3.79-0.98-5.65-1.48c-3.08-0.82-6.08-1.65-9.08-2.47
	c-1.62-0.44-3.25-0.88-4.85-1.33c-3.19-0.89-6.28-1.76-9.36-2.63c-5.6-1.58-11.08-3.13-16.26-4.59c-3.2-0.91-6.31-1.78-9.32-2.62
	l-1.29-0.36c-3.37-0.93-6.6-1.81-9.7-2.62l-0.72-0.19c-2.97-0.78-5.81-1.49-8.5-2.13l-0.77-0.19c-2.83-0.67-5.51-1.26-7.98-1.74
	l-1.25-0.23c-6.2,5.37-11.04,12.86-13.29,21.58C1217.72,1487.11,1227.69,1505.5,1245.05,1508.55z"/>
<path class="st12" d="M1767.84,893.24c-9.27,37.62-70.37,70.37-150.67,77.37c-93.62,8.17-177.88-21.77-188.19-66.86
	c-0.56-2.46-0.89-4.91-1-7.35l-0.07-1.59c-7.44-8.02-12.52-16.79-14.73-26.18l-0.07-0.38c-2.77,1.53-5.46,3.09-8.09,4.68
	c-14.38,8.69-26.61,18.18-36.25,28.26c-5.01,5.24-9.33,10.64-12.91,16.17c-8.53,13.16-12.86,27.03-12.23,41.14
	c0.65,14.55,1.28,29.6,1.97,44.9l1.74,39.57c0.1,2.37,0.22,4.8,0.32,7.18c0.17,3.86,0.34,7.78,0.52,11.67
	c0.24,5.31,0.47,10.55,0.71,15.93l0.59,13.86c0.65,14.03,1.27,28.18,1.9,42.48l0.03,0.71c2.11,2.11,4.39,4.17,6.74,6.2
	c-0.1-2.16-0.19-4.34-0.29-6.49l-0.35-7.8c-0.53-11.9-1.05-23.69-1.59-35.38l-0.59-13.88c-0.54-11.74-1.06-23.31-1.55-34.76
	l-1.74-39.58c-0.4-8.8-0.78-17.52-1.15-26.11c-0.23-5.17-0.45-10.26-0.67-15.33c44.14,46.67,148.64,74.17,262.38,64.25
	c39.54-3.45,75.95-11.07,107.58-21.72l-162.62,198.08c22.67,0.87,46.11,0.37,69.95-1.71c0.93-0.08,1.83-0.19,2.76-0.27l220.77-264
	l7.65,150.01l0.52,11.81c2.33-3.98,4.34-8.01,5.92-12.1l-8.11-161.02c-6.06-26.47-29.03-49.45-63.09-66.96
	C1789.93,870.49,1780.91,882.42,1767.84,893.24z M1843.02,925.43c-7.69,7.91-16.48,14.7-25.58,20.97
	c-9.09,6.3-18.57,12.03-28.29,17.36c-19.53,10.46-39.97,19.24-60.97,26.33c-5.23,1.85-10.53,3.46-15.81,5.15
	c-5.33,1.51-10.63,3.14-16.01,4.49c-10.7,2.92-21.52,5.33-32.36,7.63c-21.75,4.31-43.66,7.55-65.82,9.42
	c-44.25,3.41-89.4,0.61-132.28-11.55c-21.42-5.99-42.21-14.29-61.68-24.95c-9.7-5.39-19.07-11.35-27.99-17.9
	c-8.88-6.58-17.42-13.71-24.73-21.96c16.3,14.8,35.18,26.33,54.86,35.71c19.66,9.48,40.34,16.63,61.45,21.87
	c21.15,5.08,42.69,8.51,64.41,9.78c21.7,1.41,43.51,1.22,65.2-0.62c21.68-1.77,43.39-4.78,64.83-8.84
	c21.47-3.99,42.72-9.12,63.6-15.47c10.45-3.16,20.78-6.7,30.98-10.59c10.22-3.85,20.29-8.1,30.17-12.78
	C1806.78,950.24,1826.01,939.4,1843.02,925.43z"/>
<path class="st12" d="M1875.02,1456.4L1875.02,1456.4c2.25,1.06,4.46,2.16,6.61,3.34l-4-91.22c-1.65,3.81-3.66,7.58-5.96,11.3
	L1875.02,1456.4z"/>
<path class="st12" d="M1393.39,1483.56c-2.57-0.34-5.14-0.72-7.71-1.11l-0.09-0.01c-5.78-0.88-11.56-1.92-17.33-3.03
	c-0.55-0.11-1.11-0.19-1.66-0.29l0.75,16.61c0.13,3.66,0.63,7.41,1.48,11.13c2.05,8.95,6.08,17.49,11.77,25.56
	c1.36,1.94,2.83,3.85,4.39,5.74c2.39-0.48,4.8-0.94,7.21-1.4c-8.74-9.82-14.55-20.34-17.08-31.34L1393.39,1483.56z"/>
<path class="st13" d="M1725.83,982.84c-20.88,6.35-42.13,11.49-63.6,15.47c-21.44,4.06-43.15,7.07-64.83,8.84
	c-21.7,1.84-43.51,2.03-65.2,0.62c-21.72-1.28-43.26-4.7-64.41-9.78c-21.11-5.24-41.79-12.39-61.45-21.87
	c-19.68-9.38-38.56-20.91-54.86-35.71c7.32,8.26,15.85,15.38,24.73,21.96c8.92,6.54,18.29,12.51,27.99,17.9
	c19.47,10.66,40.25,18.95,61.68,24.95c42.89,12.16,88.04,14.96,132.28,11.55c22.17-1.87,44.07-5.11,65.82-9.42
	c10.84-2.31,21.66-4.72,32.36-7.63c5.37-1.35,10.67-2.99,16.01-4.49c5.28-1.69,10.58-3.3,15.81-5.15
	c21-7.09,41.45-15.87,60.97-26.33c9.71-5.33,19.2-11.05,28.29-17.36c9.09-6.27,17.89-13.06,25.58-20.97
	c-17.02,13.97-36.24,24.81-56.03,34.04c-9.88,4.68-19.95,8.93-30.17,12.78C1746.62,976.14,1736.29,979.69,1725.83,982.84z"/>
<path class="st13" d="M1720.19,1004.19c-31.63,10.65-68.04,18.28-107.58,21.72c-113.74,9.91-218.24-17.58-262.38-64.25
	c0.22,5.07,0.45,10.16,0.67,15.33c0.37,8.59,0.75,17.31,1.15,26.11l1.74,39.58c0.49,11.45,1.02,23.02,1.55,34.76l0.59,13.88
	c0.54,11.69,1.06,23.48,1.59,35.38l0.35,7.8c0.1,2.15,0.19,4.33,0.29,6.49c40.32,34.93,114.21,57.99,199.41,61.28L1720.19,1004.19z"
	/>
<path class="st14" d="M1792.42,1442.53c3.71-0.21,7.44-0.49,11.11-0.6c22.54-0.67,49.27,4,71.49,14.47l-3.35-76.58
	C1856.99,1403.58,1829.35,1425.26,1792.42,1442.53z"/>
<path class="st14" d="M1859.21,1098.12l-0.52-11.81l-7.65-150.01l-220.77,264C1741.86,1189.98,1829.72,1148.55,1859.21,1098.12z"/>
<path class="st14" d="M1442.18,1486.13c-0.8,0.04-1.62,0.01-2.43,0.03c-2.78,0.1-5.59,0.14-8.43,0.13c-1.36-0.01-2.7,0.01-4.07-0.01
	c-4.18-0.09-8.4-0.25-12.67-0.55l-0.28-0.02c-4.3-0.3-8.65-0.73-13.01-1.21c-1.05-0.12-2.11-0.24-3.16-0.38
	c-1.58-0.19-3.15-0.35-4.74-0.56l-18.28,21.86c2.52,11,8.34,21.52,17.08,31.34c24.03-4.59,48.62-8.28,71.96-10.42
	c0.84-0.08,1.68-0.15,2.52-0.22c33.25-2.9,63.79-2.62,86.22,2.72c2.53,0.6,4.95,1.27,7.26,2c0.98-1.9,2.43-3.9,4.25-5.99
	c1.21-1.39,2.6-2.82,4.12-4.27c1.25-1.19,2.62-2.41,4.06-3.63c1.48-1.26,3.04-2.53,4.67-3.81c1.62-1.27,3.3-2.53,5.05-3.81
	c1.65-1.2,3.37-2.4,5.12-3.6c0.92-0.63,1.85-1.26,2.79-1.89c1.36-0.91,2.75-1.82,4.14-2.72c0.89-0.57,1.79-1.14,2.69-1.71
	c1.48-0.94,2.98-1.86,4.48-2.78c2.03-1.24,4.07-2.46,6.11-3.65c3.36-1.97,6.7-3.83,9.99-5.64c0.57-0.31,1.13-0.62,1.7-0.93
	c3.14-1.71,6.18-3.3,9.1-4.8l0.64-0.34c-47.73,3.16-93.63,0.13-134.28-7.88l-0.02,0.01c-2.41,1.28-4.93,2.41-7.49,3.47
	c-0.79,0.33-1.59,0.64-2.39,0.95c-1.94,0.75-3.92,1.44-5.93,2.08c-0.84,0.27-1.65,0.56-2.5,0.81c-2.33,0.68-4.71,1.27-7.12,1.81
	c-1.56,0.36-3.14,0.66-4.74,0.96c-0.99,0.19-1.99,0.36-2.99,0.53c-6.34,1.05-12.9,1.72-19.65,2.04L1442.18,1486.13z"/>
<path class="st15" d="M1630.27,1200.3c-0.92,0.08-1.83,0.19-2.76,0.27c-23.84,2.08-47.29,2.58-69.95,1.71
	c-85.19-3.29-159.09-26.35-199.41-61.28c-2.35-2.03-4.62-4.09-6.74-6.2c0.17,3.84,0.34,7.75,0.51,11.61
	c1.19,26.69,2.37,53.7,3.55,80.72l0.79,17.91l0.47,10.65c2.76,0.89,5.52,1.79,8.29,2.71l-1.28-29.19l-0.95-21.87
	c-0.89-20.44-1.79-40.81-2.69-60.97c38.91,33.71,110.22,55.97,192.44,59.14l-9.97,12.15c23.87,1.55,48.43,1.56,73.23-0.03
	l11.53-13.78l0.47-0.03c112.62-9.86,204.2-51.25,234.68-104.75l11.9,268.87c-11.55,26.02-40.07,50.99-80.43,70.37
	c-3.51,1.68-7.19,3.24-10.83,4.83c3.12-0.25,6.2-0.39,9.3-0.57c36.93-17.27,64.57-38.95,79.25-62.71c2.3-3.72,4.31-7.49,5.96-11.3
	l-12.5-282.49c-1.58,4.09-3.6,8.12-5.92,12.1C1829.72,1148.55,1741.86,1189.98,1630.27,1200.3z"/>
<path class="st15" d="M1520.72,1331.31L1520.72,1331.31c-1.31-0.13-2.63-0.22-3.92-0.36l-1.01-23.02
	c7.53,0.81,15.16,1.44,22.84,1.96l28.97-34.64c-18.11-0.2-35.97-1.19-53.38-2.98c-5.05-0.52-9.99-1.22-14.96-1.87l-25.59,31.17
	c6.04,1.16,12.13,2.26,18.31,3.21l0.62,14.04c2.06,1.56,4.07,3.14,6.03,4.74c1.96,1.6,3.86,3.23,5.7,4.88
	c3.68,3.3,7.13,6.68,10.3,10.16h0L1520.72,1331.31z"/>
<path class="st15" d="M1629.09,1481.27l1.09-0.54c1.9-0.96,3.72-1.86,5.48-2.7l1.19-0.59c-47.89,3.86-95.09,1.58-137.78-6.47
	c-1.4,0.85-2.82,1.66-4.27,2.42C1535.46,1481.4,1581.36,1484.44,1629.09,1481.27z"/>
<path class="st16" d="M1516.79,1330.95c1.3,0.14,2.62,0.23,3.92,0.36l17.45-20.87l0.46-0.55c-7.68-0.52-15.31-1.15-22.84-1.96
	L1516.79,1330.95z"/>
<path class="st16" d="M1473.66,1301.58l-0.02,0.02l-2.37,2.89c7.57,4.56,14.71,9.33,21.32,14.33l-0.62-14.04
	C1485.78,1303.83,1479.69,1302.74,1473.66,1301.58z"/>
<path class="st16" d="M1499.25,1270.4c4.97,0.65,9.91,1.35,14.96,1.87c17.42,1.79,35.27,2.78,53.38,2.98l48.21-57.66
	c-24.8,1.59-49.36,1.58-73.23,0.03l-21.71,26.45L1499.25,1270.4z"/>
<path class="st17" d="M1473.66,1301.58l25.59-31.17l21.61-26.32l-21.69,26.41c-2.93-0.38-5.85-0.76-8.75-1.19
	c-13.89-2.07-27.46-4.67-40.54-7.75c-8.16-1.9-16.17-4.04-23.94-6.35c-6.84-2.04-13.58-4.18-20.11-6.52
	c-12.15-4.35-23.42-9.15-33.87-14.33l-0.34-7.94l-1.01-22.53c-0.49-11.62-1-23.22-1.52-34.78c14.92,9.42,32.37,17.73,52.2,24.84
	c0.67,0.24,1.32,0.44,1.99,0.68c7.76,2.75,15.74,5.23,23.98,7.5c13.03,3.61,26.62,6.63,40.61,9.11c7.81,1.35,15.75,2.52,23.82,3.53
	c10.13,1.26,20.44,2.21,30.88,2.88l9.97-12.15c-82.21-3.17-153.52-25.43-192.44-59.14c0.9,20.16,1.8,40.53,2.69,60.97l0.95,21.87
	l1.28,29.19c33.39,11.07,67.65,24.43,96.84,40.67h0c3.92,0.85,7.78,1.78,11.76,2.54L1473.66,1301.58z"/>
<path class="st18" d="M1874.38,1367.9l-11.9-268.87c-30.48,53.5-122.06,94.88-234.68,104.75l-0.47,0.03l-11.53,13.78
	c4.37-0.28,8.73-0.58,13.11-0.96c11.25-0.97,22.31-2.29,33.13-3.89c0.05,1.49,0.13,2.99,0.18,4.48l1.24,28.1l1.02,23.36
	c-11.84,1.76-23.91,3.22-36.25,4.28c-20.38,1.77-40.66,2.5-60.63,2.28l-28.97,34.64c30.59,2.07,62.26,1.81,94.16-0.98
	c11.32-0.98,22.41-2.28,33.29-3.86l0.99,22.39c-11.73,1.76-23.69,3.17-35.9,4.24c-37.61,3.28-74.91,3.06-110.46-0.37l-6.1,7.29
	c4.71,5.17,8.84,10.55,12.29,16.15c33.2,2.73,67.79,2.73,102.66-0.31c13.1-1.16,25.95-2.69,38.46-4.62l1,22.36
	c-13.36,2.1-27.07,3.8-41.07,5.02c-30.84,2.67-61.47,2.98-91.11,1.14c1.3,5.48,1.98,11.14,1.96,16.99
	c-0.01,1.95-0.09,3.92-0.26,5.91c28.62,1.62,58.09,1.3,87.8-1.27c14.9-1.31,29.47-3.15,43.67-5.46l0.88,19.92
	c0.02,0.8,0.07,1.64,0.09,2.43c-14.99,2.51-30.43,4.48-46.28,5.86c-30.64,2.66-61.04,2.92-90.51,1.11
	c-0.83,2.78-1.75,5.46-2.75,8.02c-2.01,5.13-4.36,9.82-7.02,14.1c-6.66,10.72-15.26,18.91-25.34,25.03
	c42.69,8.05,89.89,10.33,137.78,6.47l0.74-0.34c0.5-0.24,0.96-0.45,1.45-0.68c1.07-0.5,2.1-0.97,3.09-1.41
	c0.49-0.22,0.96-0.43,1.43-0.63c0.95-0.41,1.83-0.78,2.67-1.13l1.12-0.46c1.12-0.44,2.16-0.84,3.05-1.14l0.04-0.01l0.18-0.06
	c5.39-1.83,10.87-3.59,16.4-5.29c2.15-0.66,4.32-1.29,6.48-1.93c3.34-0.99,6.7-1.97,10.08-2.91c2.86-0.79,5.72-1.56,8.6-2.32
	c2.48-0.65,4.96-1.27,7.44-1.89c3.54-0.89,7.08-1.76,10.65-2.58c0.45-0.1,0.91-0.2,1.36-0.3c14.92-3.39,29.96-6.16,44.94-8.25
	l0.49-0.07c4.36-0.61,8.72-1.17,13.06-1.67c4.34-0.5,8.67-0.93,12.98-1.28c3.64-1.59,7.32-3.15,10.83-4.83
	C1834.3,1418.89,1862.83,1393.93,1874.38,1367.9z M1714.63,1363.03l-0.95-22.1l-0.97-22.15l-0.96-22.17l-1.62-36.6l-1.11-24.83
	l-1.23-28.13c-0.05-1.01-0.09-2.06-0.14-3.06c61.39-14.74,112.01-39.51,143.44-70.12l2.72,61.47l1.71,38.28l0.9,20.71l0.92,20.69
	l0.92,20.58C1824.75,1324.69,1774.56,1348.35,1714.63,1363.03z"/>
<path class="st19" d="M1627.95,1377.2c14.01-1.22,27.71-2.92,41.07-5.02l-1-22.36c-12.51,1.92-25.37,3.45-38.46,4.62
	c-34.87,3.04-69.46,3.05-102.66,0.31c1.15,1.87,2.23,3.76,3.22,5.68c0.99,1.91,1.91,3.86,2.74,5.82c1.66,3.93,3,7.97,3.98,12.09
	C1566.48,1380.18,1597.11,1379.87,1627.95,1377.2z"/>
<path class="st19" d="M1520.72,1331.31c35.55,3.43,72.85,3.65,110.46,0.37c12.21-1.07,24.16-2.48,35.9-4.24l-0.99-22.39
	c-10.88,1.58-21.98,2.88-33.29,3.86c-31.9,2.79-63.57,3.05-94.16,0.98l-0.46,0.55L1520.72,1331.31z"/>
<path class="st20" d="M1473.64,1301.6c-3.98-0.76-7.84-1.69-11.76-2.54c3.19,1.78,6.33,3.59,9.39,5.43L1473.64,1301.6z"/>
<path class="st20" d="M1487.87,1211.22c-13.99-2.48-27.57-5.5-40.61-9.11c-8.24-2.27-16.22-4.75-23.98-7.5
	c-0.67-0.24-1.32-0.44-1.99-0.68c-19.83-7.11-37.28-15.42-52.2-24.84c0.52,11.56,1.02,23.16,1.52,34.78l1.01,22.53l0.34,7.94
	c10.45,5.18,21.72,9.98,33.87,14.33c6.53,2.34,13.27,4.48,20.11,6.52c7.78,2.31,15.78,4.46,23.94,6.35
	c13.08,3.08,26.65,5.68,40.54,7.75c2.89,0.43,5.82,0.81,8.75,1.19l21.69-26.41l21.71-26.45c-10.44-0.67-20.75-1.62-30.88-2.88
	C1503.62,1213.75,1495.68,1212.58,1487.87,1211.22z"/>
<path class="st19" d="M1628.23,1272.97c12.34-1.06,24.42-2.52,36.25-4.28l-1.02-23.36l-1.24-28.1c-0.05-1.49-0.13-2.99-0.18-4.48
	c-10.82,1.61-21.89,2.92-33.13,3.89c-4.38,0.38-8.75,0.69-13.11,0.96l-48.21,57.66C1587.57,1275.48,1607.85,1274.75,1628.23,1272.97
	z"/>
<path class="st19" d="M1857.34,1274.99l-0.92-20.69l-0.9-20.71l-1.71-38.28l-2.72-61.47c-31.43,30.62-82.05,55.39-143.44,70.12
	c0.05,1.01,0.09,2.05,0.14,3.06l1.23,28.13l1.11,24.83l1.62,36.6l0.96,22.17l0.97,22.15l0.95,22.1
	c59.93-14.68,110.11-38.33,143.62-67.45L1857.34,1274.99z"/>
<path class="st19" d="M1624.7,1422.71c15.85-1.38,31.29-3.35,46.28-5.86c-0.02-0.79-0.07-1.63-0.09-2.43l-0.88-19.92
	c-14.19,2.31-28.77,4.15-43.67,5.46c-29.71,2.57-59.17,2.89-87.8,1.27c-0.09,1.15-0.22,2.31-0.37,3.48l-0.08,0.74
	c-0.57,4.15-1.36,8.02-2.24,11.79c-0.52,2.24-1.05,4.47-1.67,6.58C1563.66,1425.63,1594.05,1425.37,1624.7,1422.71z"/>
<path class="st14" d="M1428.99,903.75c10.31,45.09,94.57,75.03,188.19,66.86c80.29-7,141.4-39.75,150.67-77.37
	c-29.9,24.75-80.99,43.65-142.07,49.37c-85.95,8.05-165.06-12.47-197.85-47.8l0.07,1.59
	C1428.09,898.84,1428.42,901.29,1428.99,903.75z"/>
<rect x="1763.5" y="826.52" class="st14" width="0" height="0.07"/>
<path class="st14" d="M1758.97,830.07c-0.77,0.57-1.52,1.16-2.32,1.73C1757.45,831.23,1758.2,830.65,1758.97,830.07L1758.97,830.07z
	"/>
<polygon class="st14" points="1736.67,843.95 1735.65,844.49 1735.66,844.49 "/>
<path class="st21" d="M1735.65,844.49c-0.86,0.45-1.72,0.9-2.59,1.34c0.88-0.44,1.74-0.89,2.61-1.34L1735.65,844.49z"/>
<path class="st13" d="M1761.73,828.01c-0.89,0.7-1.84,1.37-2.76,2.06h0C1759.9,829.39,1760.84,828.7,1761.73,828.01z"/>
<polygon class="st13" points="1763.47,826.58 1763.1,826.89 1763.47,826.59 "/>
<path class="st8" d="M1792.78,778.92c-0.04,0.69-0.12,1.38-0.2,2.07c-0.09,0.83-0.19,1.67-0.33,2.5c-0.11,0.69-0.26,1.38-0.4,2.08
	c-0.17,0.82-0.36,1.64-0.57,2.46c-0.18,0.69-0.39,1.38-0.6,2.07c-0.25,0.81-0.52,1.63-0.82,2.44c-0.25,0.68-0.51,1.36-0.79,2.04
	c-0.33,0.8-0.68,1.61-1.06,2.41c-0.31,0.67-0.64,1.35-0.98,2.02c-0.41,0.8-0.85,1.59-1.29,2.38c-0.37,0.66-0.75,1.33-1.16,1.99
	c-0.48,0.79-1,1.57-1.52,2.35c-0.44,0.65-0.87,1.31-1.33,1.95c-0.56,0.79-1.16,1.56-1.77,2.34c-0.49,0.63-0.97,1.26-1.48,1.89
	c-0.65,0.79-1.34,1.56-2.02,2.34c-0.53,0.6-1.05,1.21-1.61,1.81c-0.74,0.8-1.53,1.59-2.31,2.37c-0.57,0.57-1.11,1.14-1.7,1.71
	c-0.86,0.83-1.78,1.65-2.69,2.47c-0.56,0.51-1.1,1.01-1.68,1.52c-0.95,0.82-1.95,1.62-2.94,2.43l-0.06,0.05l-0.37,0.3
	c-0.46,0.37-0.9,0.75-1.37,1.12c-0.89,0.7-1.83,1.38-2.76,2.06c-0.77,0.58-1.52,1.16-2.32,1.73l-1.1,0.75
	c-1.41,0.99-2.84,1.97-4.32,2.93c-0.68,0.44-1.39,0.87-2.08,1.3c-1.21,0.76-2.41,1.53-3.66,2.27c-0.81,0.48-1.66,0.95-2.49,1.43
	c-1.18,0.68-2.35,1.36-3.57,2.02c-0.9,0.49-1.84,0.97-2.76,1.45l-1.01,0.54c-0.86,0.45-1.72,0.9-2.61,1.34
	c-0.97,0.48-1.96,0.95-2.95,1.43c-1.23,0.59-2.46,1.19-3.72,1.76c-1.02,0.47-2.07,0.93-3.11,1.39c-1.27,0.56-2.55,1.12-3.85,1.67
	c-1.08,0.45-2.17,0.9-3.27,1.34c-1.31,0.53-2.63,1.06-3.96,1.57c-1.13,0.43-2.27,0.86-3.42,1.29c-1.35,0.5-2.71,0.99-4.09,1.48
	c-1.17,0.41-2.35,0.82-3.54,1.22c-1.4,0.47-2.81,0.93-4.23,1.39c-1.21,0.38-2.42,0.76-3.64,1.14c-1.45,0.44-2.92,0.88-4.4,1.31
	c-1.23,0.36-2.47,0.71-3.72,1.06c-1.51,0.41-3.03,0.81-4.55,1.21c-1.26,0.33-2.53,0.66-3.81,0.97c-1.55,0.39-3.13,0.76-4.71,1.12
	c-1.29,0.3-2.57,0.6-3.87,0.89c-1.61,0.35-3.24,0.69-4.88,1.02c-1.3,0.27-2.6,0.54-3.91,0.79c-1.69,0.33-3.41,0.63-5.12,0.94
	c-1.29,0.23-2.57,0.47-3.86,0.69c-1.81,0.3-3.65,0.58-5.48,0.86c-1.24,0.19-2.46,0.39-3.71,0.57c-2.04,0.29-4.12,0.55-6.19,0.81
	c-1.06,0.13-2.11,0.28-3.18,0.41c-3.15,0.37-6.33,0.71-9.54,1.01c-105.45,9.88-200.63-23.24-212.58-73.99
	c-0.35-1.49-0.61-2.98-0.81-4.47c-0.07-0.49-0.09-0.97-0.14-1.46c-0.08-0.78-0.19-1.56-0.23-2.34l3.41,67.44l0.13,1.35
	c0.18,2.18,0.48,4.37,0.98,6.55l0.07,0.38c2.21,9.39,7.28,18.16,14.73,26.18c32.8,35.34,111.9,55.86,197.85,47.8
	c61.08-5.72,112.18-24.62,142.07-49.37c13.07-10.82,22.09-22.75,26.1-35.2c1.79-5.55,2.61-11.21,2.32-16.91l-3.41-67.44v0.63
	c0.02,0.69,0.01,1.37,0,2.06C1792.84,777.23,1792.83,778.07,1792.78,778.92z"/>
<path class="st5" d="M1569.19,715.73c-41.94,2.43-79.42,10.05-109.5,21.18c-11.16,7.38-20.23,15.52-26.5,24.24
	c-1.43,2-2.66,4.01-3.79,6.02c30.4,35.88,102.35,63.48,183.59,66.72c73.95,2.95,135.61-15.09,163.18-43.81
	c2.41-7.49,2.78-15.04,0.98-22.57c-0.94-3.95-2.53-7.76-4.55-11.46C1729.72,727.68,1652.04,710.93,1569.19,715.73z"/>
<path class="st5" d="M1701.48,699.98c-2.23-0.58-4.48-1.14-6.77-1.68c-5.61-1.32-11.39-2.49-17.32-3.51
	c-29.92-5.18-63.54-6.62-98.3-3.36c-3.65,0.34-7.27,0.74-10.85,1.18c-12.25,1.49-24.05,3.51-35.31,6c-0.6,0.13-1.19,0.27-1.78,0.4
	c-5.95,1.34-11.74,2.83-17.36,4.43c-4.99,1.42-9.85,2.94-14.57,4.55c-31.74,10.83-57,25.71-72.71,42.67
	c-2.86,3.08-5.4,6.24-7.6,9.45c-4.64,6.74-7.77,13.74-9.28,20.87c-1,4.71-1.28,9.48-0.78,14.27c0.05,0.49,0.08,0.97,0.14,1.46
	c0.2,1.49,0.46,2.98,0.81,4.47c11.95,50.74,107.13,83.87,212.58,73.99c3.21-0.3,6.39-0.64,9.54-1.01c1.07-0.13,2.11-0.28,3.18-0.41
	c2.07-0.26,4.14-0.52,6.19-0.81c1.25-0.18,2.47-0.38,3.71-0.57c1.83-0.28,3.67-0.56,5.48-0.86c1.3-0.22,2.58-0.46,3.86-0.69
	c1.71-0.31,3.43-0.61,5.12-0.94c1.32-0.25,2.61-0.53,3.91-0.79c1.63-0.34,3.27-0.67,4.88-1.02c1.3-0.29,2.58-0.59,3.87-0.89
	c1.58-0.37,3.15-0.74,4.71-1.12c1.28-0.32,2.54-0.65,3.81-0.97c1.53-0.4,3.05-0.8,4.55-1.21c1.25-0.35,2.48-0.7,3.72-1.06
	c1.48-0.43,2.95-0.86,4.4-1.31c1.22-0.38,2.43-0.76,3.64-1.14c1.42-0.46,2.83-0.92,4.23-1.39c1.19-0.4,2.37-0.81,3.54-1.22
	c1.38-0.48,2.74-0.98,4.09-1.48c1.15-0.42,2.29-0.85,3.42-1.29c1.34-0.51,2.65-1.04,3.96-1.57c1.1-0.44,2.19-0.89,3.27-1.34
	c1.3-0.55,2.58-1.11,3.85-1.67c1.04-0.46,2.09-0.92,3.11-1.39c1.26-0.57,2.49-1.17,3.72-1.76c0.99-0.47,1.98-0.95,2.95-1.43
	c0.88-0.44,1.73-0.9,2.59-1.34l1.02-0.53c0.92-0.48,1.86-0.96,2.76-1.45c1.22-0.66,2.39-1.34,3.57-2.02
	c0.83-0.47,1.68-0.95,2.49-1.43c1.25-0.75,2.46-1.51,3.66-2.27c0.69-0.43,1.41-0.86,2.08-1.3c1.48-0.96,2.91-1.94,4.32-2.93
	l1.1-0.75c0.8-0.57,1.54-1.16,2.32-1.73c0.92-0.69,1.87-1.36,2.76-2.06c0.47-0.37,0.91-0.75,1.37-1.12l0.37-0.31l0.06-0.04
	c0.99-0.8,1.99-1.61,2.94-2.43c0.58-0.5,1.12-1.01,1.68-1.52c0.91-0.82,1.83-1.64,2.69-2.47c0.59-0.56,1.13-1.13,1.7-1.71
	c0.78-0.78,1.57-1.57,2.31-2.37c0.56-0.6,1.08-1.21,1.61-1.81c0.69-0.78,1.37-1.55,2.02-2.34c0.51-0.63,0.99-1.26,1.48-1.89
	c0.6-0.78,1.2-1.55,1.77-2.34c0.46-0.64,0.9-1.3,1.33-1.95c0.52-0.78,1.04-1.56,1.52-2.35c0.4-0.66,0.78-1.33,1.16-1.99
	c0.45-0.79,0.88-1.58,1.29-2.38c0.34-0.67,0.66-1.34,0.98-2.02c0.37-0.8,0.73-1.61,1.06-2.41c0.28-0.68,0.54-1.36,0.79-2.04
	c0.29-0.81,0.57-1.62,0.82-2.44c0.21-0.69,0.42-1.37,0.6-2.07c0.22-0.81,0.4-1.64,0.57-2.46c0.14-0.69,0.29-1.38,0.4-2.08
	c0.14-0.83,0.23-1.67,0.33-2.5c0.08-0.69,0.16-1.38,0.2-2.07c0.05-0.85,0.06-1.69,0.07-2.54c0.01-0.69,0.02-1.37,0-2.06
	c-0.11-2.96-0.48-5.93-1.18-8.91c-6.25-26.56-35.34-48.28-76.74-61.54c-2.18-0.7-4.4-1.37-6.65-2.03
	C1706.04,701.2,1703.77,700.58,1701.48,699.98z M1787.81,765.78c0.21,0.88,0.33,1.75,0.48,2.63c-3.09-2.96-6.55-5.82-10.31-8.59
	c0.94,2.28,1.74,4.58,2.31,6.95c1.43,6.01,1.55,12.01,0.51,17.98c3.71-4.77,6.55-9.78,8.38-15.02
	c7.17,48.54-66.18,94.68-167.27,104.15c-103.75,9.72-197.39-22.87-209.14-72.79c-3.43-14.55,0.52-28.95,10.35-42.31
	c1.23,1.91,2.62,3.81,4.08,5.68c1.02-1.73,2.14-3.46,3.38-5.19c4.36-6.07,9.9-11.83,16.46-17.25c-5.25,2.28-10.26,4.67-14.94,7.17
	c27.5-27.9,81.53-49.73,147.43-55.9C1682.85,683.6,1776.11,716.06,1787.81,765.78z"/>
<path class="st10" d="M1734.7,722.76c-37.14-19.12-93.92-28.73-154.22-23.25c-48.32,4.39-91.81,18.25-120.78,37.41
	c30.09-11.13,67.57-18.75,109.5-21.18c82.85-4.8,160.52,11.95,203.41,40.32C1765.59,743.19,1752.42,731.89,1734.7,722.76z"/>
<path class="st10" d="M1579.52,693.28c-65.9,6.17-119.93,28-147.43,55.9c4.68-2.5,9.69-4.89,14.94-7.17
	c28.7-23.7,77.1-40.63,133.15-45.72c94.04-8.54,179.75,19.62,197.8,63.53c3.76,2.77,7.22,5.63,10.31,8.59
	c-0.15-0.88-0.27-1.75-0.48-2.63C1776.11,716.06,1682.85,683.6,1579.52,693.28z"/>
<path class="st22" d="M1621.26,870.31c-60.76,5.52-118.07-4.29-155.89-23.76c-23.76-12.22-39.82-28.26-44.22-46.72
	c-2.84-11.9-0.8-23.78,6.05-35.39c-1.46-1.88-2.85-3.77-4.08-5.68c-9.82,13.36-13.77,27.77-10.35,42.31
	c11.76,49.92,105.39,82.51,209.14,72.79c101.09-9.47,174.44-55.62,167.27-104.15c-1.83,5.24-4.67,10.25-8.38,15.02
	c-1.33,7.62-4.6,15.17-9.93,22.59C1747.46,839.93,1690.13,864.06,1621.26,870.31z"/>
<path class="st22" d="M1612.99,833.89c-81.24-3.24-153.19-30.85-183.59-66.72c-5.9,10.53-7.66,21.24-5.11,31.92
	c11.07,46.34,99.3,76.85,196.68,68.01c66.93-6.08,124.74-30.27,147.28-61.64c3.65-5.08,6.26-10.22,7.92-15.38
	C1748.61,818.8,1686.94,836.85,1612.99,833.89z"/>
<path class="st11" d="M1580.18,696.29c-56.05,5.09-104.45,22.02-133.15,45.72c-6.56,5.42-12.1,11.19-16.46,17.25
	c-1.24,1.72-2.36,3.45-3.38,5.19c-6.84,11.61-8.89,23.49-6.05,35.39c4.41,18.46,20.47,34.49,44.22,46.72
	c37.82,19.47,95.13,29.27,155.89,23.76c68.87-6.26,126.19-30.38,149.61-62.98c5.33-7.43,8.6-14.98,9.93-22.59
	c1.04-5.97,0.93-11.97-0.51-17.98c-0.57-2.36-1.37-4.67-2.31-6.95C1759.93,715.92,1674.22,687.75,1580.18,696.29z M1777.15,767.51
	c1.8,7.53,1.43,15.08-0.98,22.57c-1.66,5.16-4.27,10.29-7.92,15.38c-22.54,31.37-80.35,55.57-147.28,61.64
	c-97.38,8.84-185.61-21.67-196.68-68.01c-2.55-10.68-0.79-21.38,5.11-31.92c1.13-2.01,2.36-4.02,3.79-6.02
	c6.27-8.72,15.34-16.86,26.5-24.24c28.97-19.16,72.46-33.02,120.78-37.41c60.3-5.47,117.09,4.14,154.22,23.25
	c17.73,9.13,30.9,20.44,37.91,33.29C1774.63,759.75,1776.21,763.56,1777.15,767.51z"/>
<path class="st23" d="M1045.2,1535.67c0.72,0.28,1.45,0.57,2.17,0.84c1.42-0.93,2.79-1.88,4.15-2.85
	C1049.43,1534.36,1047.34,1535.03,1045.2,1535.67z"/>
<path class="st24" d="M1137.78,1457.75l7.14-27.44c-2.7-0.4-5.41-0.77-8.11-1.16l-6.91,26.55c-9.27,35.55-44.85,61.98-97.14,75.05
	c4.14,1.69,8.29,3.3,12.44,4.93c2.14-0.64,4.24-1.32,6.32-2C1098.28,1518.25,1129.02,1491.39,1137.78,1457.75z"/>
<polygon class="st24" points="848.5,597.86 848.68,598.4 848.5,597.86 "/>
<path class="st24" d="M720.52,855.81l6.28-24.12l0.88,0.06c0.42-3.87,1-7.23,1.78-10.21l16.05-61.6
	c3.7-13.18,6.18-20.45,12.28-32.96c-0.5,6.28-0.18,12.79,0.95,19.45c1.42,8.38,4.09,17.06,8.04,25.72c0.2,0.46,0.5,0.99,0.74,1.45
	c33.53,71.76,141.26,134.84,259.53,157.57l-105.2,93.7c2.88,0.97,5.78,1.93,8.69,2.85c1.15,0.37,2.3,0.72,3.45,1.07
	c2.9,0.9,5.82,1.77,8.74,2.62c1.15,0.34,2.29,0.67,3.44,0.99c7.15,2.02,14.38,3.88,21.66,5.61c2.55,0.6,5.06,1.18,7.54,1.72
	c1.98,0.44,3.95,0.87,5.93,1.29c0.55,0.12,1.11,0.23,1.66,0.35c1.86,0.38,3.72,0.76,5.58,1.12c2.02,0.39,4.05,0.77,6.08,1.14
	c2.46,0.45,4.96,0.89,7.5,1.31c2.19,0.37,4.37,0.72,6.57,1.05L1127.67,940c56.97-1.25,105.43-14.4,136.76-36.85
	c4.24-2.99,8.19-6.22,11.75-9.55c-0.31,1.33-0.62,2.66-0.97,4l-0.1,0.39c-11.33,43.45-14.72,56.54-16.06,61.52l0.05,0.03
	l-8.81,33.83c4.45-5.49,8.18-11.27,11.12-17.34l0.53-1.08c0.62-1.33,1.24-2.66,1.8-4.01c0.28-0.69,0.5-1.39,0.76-2.09
	c0.74-1.99,1.44-3.99,2.02-6.03c-0.33,1.11-0.67,2.2-1.01,3.27c0.16-0.49,0.37-0.95,0.52-1.44l0.25-0.83
	c0.13-0.43,0.27-0.95,0.48-1.71l0.26-0.76l0-0.01l0,0.01l0.19-0.74l-0.32,1.03c1.02-3.76,3.22-12.16,8.97-34.24
	c1.97-7.55,4.34-16.67,7.23-27.78v0c7.03-27.12,6.28-50.39,5.22-61.84c-1.59-17.05-4.21-26.96-6.51-35.7
	c-2.93-11.11-7.65-22.09-10.47-28.65c-1.08-2.38-2.26-4.72-3.56-7l-0.08-0.14c-25.67,31.31-80.39,50.28-152.82,47.73
	c-122.05-4.3-247.86-67.95-281.02-142.16c-4.6-10.29-7.11-20.23-7.8-29.74l-0.03,0.02c-1.38,0.84-2.67,1.73-3.99,2.6
	c1.23-0.8,2.41-1.64,3.69-2.41c-10.73,6.55-20.27,13.49-28.38,20.6c-13.83,12.15-22.14,22.13-25.86,27.01
	c-3.12,4.09-12.61,16.53-19.26,29.86c-7.62,15.28-10.44,23.23-14.57,37.96l-16.07,61.72v0.01v-0.01
	C718.61,830.88,718.23,843.06,720.52,855.81z M809.12,782.19c15.91,18.26,34.43,34.04,54.22,47.8
	c39.75,27.45,84.67,46.96,131.2,60.14c46.49,13.82,94.75,20.52,143.09,17.51c24.12-1.44,48.2-5.08,71.7-11.22
	c11.73-3.12,23.43-6.55,34.84-10.83c11.43-4.2,22.75-8.87,33.57-14.64c-10.17,6.87-21.09,12.63-32.28,17.75
	c-11.15,5.26-22.77,9.43-34.46,13.44c-23.51,7.61-47.91,12.65-72.61,14.96c-6.16,0.83-12.36,1.03-18.56,1.34
	c-6.2,0.29-12.41,0.65-18.62,0.35c-6.2-0.17-12.42-0.23-18.63-0.48l-18.57-1.68c-6.22-0.36-12.32-1.58-18.46-2.59
	c-6.11-1.11-12.31-1.9-18.34-3.27l-18.1-4.12c-6.02-1.42-11.96-3.21-17.94-4.8c-23.74-7.02-47.18-15.32-69.62-25.94
	c-22.33-10.8-43.97-23.22-63.8-38.2c-19.9-14.85-38.08-32.11-53.28-51.73c-15.09-19.65-27.17-41.72-34.16-65.28
	C779.85,743.32,793.1,764.04,809.12,782.19z"/>
<path class="st25" d="M767.51,773.59c-0.24-0.46-0.54-0.98-0.74-1.45c-3.95-8.66-6.62-17.33-8.04-25.72
	c-1.13-6.66-1.45-13.17-0.95-19.45c-6.09,12.51-8.57,19.79-12.28,32.96l-16.05,61.6c-0.77,2.98-1.36,6.34-1.78,10.21l-0.88-0.06
	l-6.28,24.12c1.54,8.57,4.27,17.4,8.36,26.45c26.68,58.99,102.3,112.15,192.96,142.6l105.2-93.7
	C908.78,908.43,801.04,845.35,767.51,773.59z"/>
<path class="st25" d="M857.76,837.71c19.83,14.99,41.47,27.41,63.8,38.2c22.44,10.63,45.88,18.92,69.62,25.94
	c5.98,1.59,11.92,3.38,17.94,4.8l18.1,4.12c6.03,1.38,12.23,2.17,18.34,3.27c6.13,1.01,12.23,2.23,18.46,2.59l18.57,1.68
	c6.21,0.24,12.43,0.31,18.63,0.48c6.21,0.3,12.41-0.06,18.62-0.35c6.2-0.3,12.4-0.5,18.56-1.34c24.7-2.31,49.1-7.35,72.61-14.96
	c11.69-4.01,23.31-8.18,34.46-13.44c11.19-5.13,22.12-10.88,32.28-17.75c-10.82,5.77-22.13,10.44-33.57,14.64
	c-11.42,4.28-23.11,7.71-34.84,10.83c-23.51,6.14-47.58,9.78-71.7,11.22c-48.35,3.01-96.6-3.69-143.09-17.51
	c-46.52-13.17-91.44-32.69-131.2-60.14c-19.8-13.77-38.31-29.54-54.22-47.8c-16.01-18.15-29.26-38.86-38.8-61.48
	c6.98,23.56,19.07,45.63,34.16,65.28C819.68,805.6,837.86,822.87,857.76,837.71z"/>
<path class="st26" d="M1129.9,1455.69l6.91-26.55c-24.16-3.55-48.31-6.82-72.45-9.73c-28.81-3.48-57.61-6.56-86.4-9.41
	c-56.84-5.62-113.64-10.32-170.43-15.25c-1.35,0.32-2.71,0.58-4.07,0.85l0.77,0.59l0.1,0.08c7.12,5.55,14.27,11,21.48,16.35
	c7.21,5.35,14.46,10.6,21.77,15.75c21.93,15.44,44.36,29.99,67.45,43.65c7.7,4.55,15.47,9,23.32,13.36
	c15.71,8.71,31.73,17.03,48.13,24.96c15.27,7.39,30.72,14.09,46.26,20.4C1085.05,1517.67,1120.63,1491.24,1129.9,1455.69z"/>
<path class="st26" d="M1259.1,959.54l-0.05-0.03c1.34-4.98,4.74-18.07,16.06-61.52l0.1-0.39c0.35-1.34,0.66-2.67,0.97-4
	c-3.56,3.33-7.51,6.56-11.75,9.55c-31.32,22.45-79.79,35.6-136.76,36.85l-118.98,105.98c19.39,2.98,38.95,4.88,58.44,5.48
	c86.73,2.67,152.3-20.22,183.07-57.76l0.09-0.32L1259.1,959.54z"/>
<path class="st0" d="M692.14,980.99c-1-1.61-2-3.23-2.94-4.85l16.35-62.72c0.94,1.57,1.96,3.13,2.96,4.69l12-46.07
	c1.33,3.98,2.89,7.95,4.67,11.9c25.82,57.1,96.12,110.07,188.76,142.51l-22.5,20.04c32.16,11.78,65.7,20.63,99.44,26.26l20.37-18.15
	c18.87,2.76,37.56,4.44,55.63,4.99c71.25,2.19,130.64-12.38,168.31-40.57l-6.34,24.35c3.54-2.25,6.99-4.56,10.22-6.99l-17.84,68.51
	l-12.37,47.52l-6.42,24.66l-6.42,24.66l-1.75,6.72c2.6,0.77,5.21,1.54,7.81,2.3l64.94-249.4l0-0.01l0,0.01
	c-0.22,0.83-0.49,1.65-0.74,2.47l-0.25,0.83c-0.15,0.49-0.36,0.95-0.52,1.44c-0.31,0.93-0.67,1.84-1.01,2.75
	c-0.26,0.7-0.48,1.4-0.76,2.09c-3.23,8.05-7.74,15.67-13.54,22.75c-30.78,37.54-96.34,60.43-183.07,57.76
	c-19.49-0.6-39.06-2.49-58.44-5.48c-2.19-0.34-4.38-0.69-6.57-1.05c-2.54-0.42-5.04-0.86-7.5-1.31c-2.03-0.37-4.05-0.75-6.08-1.14
	c-1.86-0.36-3.72-0.72-5.58-1.11c-0.56-0.11-1.11-0.24-1.66-0.36c-1.98-0.42-3.96-0.85-5.93-1.29c-2.48-0.55-4.99-1.12-7.54-1.72
	c-7.28-1.73-14.51-3.59-21.66-5.61c-1.15-0.32-2.29-0.66-3.44-0.99c-2.93-0.85-5.84-1.72-8.74-2.62c-1.15-0.36-2.3-0.71-3.45-1.07
	c-2.91-0.92-5.81-1.88-8.69-2.85c-90.66-30.45-166.28-83.61-192.96-142.6c-4.09-9.05-6.82-17.87-8.36-26.45
	c-2.3-12.76-1.91-24.93,1.06-36.32v0.01L677.18,990c3.67,2.06,7.33,4.11,11,6.16L692.14,980.99z"/>
<path class="st0" d="M1051.35,1079.46c3.17,0.16,6.33,0.33,9.49,0.41c4.56,0.14,9.06,0.2,13.52,0.21c1.55,0,3.06-0.04,4.59-0.05
	c2.88-0.02,5.76-0.04,8.59-0.13c1.87-0.05,3.7-0.15,5.55-0.22c2.44-0.1,4.89-0.2,7.3-0.34c2.01-0.12,4-0.27,5.99-0.42
	c2.17-0.16,4.34-0.32,6.47-0.51c2.12-0.19,4.21-0.41,6.3-0.63c1.94-0.21,3.88-0.42,5.79-0.66c2.2-0.27,4.37-0.56,6.53-0.87
	c1.71-0.24,3.42-0.5,5.11-0.76c2.29-0.36,4.56-0.74,6.8-1.14c1.47-0.26,2.92-0.54,4.37-0.81c2.39-0.46,4.78-0.93,7.12-1.44
	c1.18-0.26,2.34-0.53,3.51-0.79c2.55-0.58,5.08-1.17,7.56-1.81c0.78-0.2,1.54-0.42,2.31-0.62c2.81-0.75,5.6-1.51,8.33-2.32
	l0.25-0.08c19.71-5.93,37.18-13.7,51.99-23.1h0.01l6.34-24.35c-37.67,28.19-97.06,42.76-168.31,40.57
	c-18.07-0.56-36.76-2.23-55.63-4.99l-20.37,18.15c2.43,0.4,4.85,0.88,7.28,1.25l-16.91,64.99c16.57,6.22,33.21,12.19,49.92,17.98
	l3.04-11.68L1051.35,1079.46z"/>
<path class="st27" d="M688.19,996.16L688.19,996.16c8.94,5,17.88,9.99,26.83,14.97c-8.88-9.83-16.54-19.9-22.88-30.13L688.19,996.16
	z"/>
<path class="st28" d="M747.07,962.93c7.62,6.96,15.93,13.81,24.78,20.44c13.62,10.2,28.65,19.95,44.95,29.11
	c6.48,3.65,13.12,7.23,20.01,10.64c2.12,1.08,4.32,2.08,6.47,3.11c15.56,7.51,31.69,14.22,48.16,20.25l22.5-20.04
	C821.3,994.01,751,941.04,725.18,883.94c-1.79-3.95-3.34-7.92-4.67-11.9l-12,46.07C718.47,933.54,731.43,948.56,747.07,962.93z"/>
<path class="st11" d="M1202.44,1177.08l6.42-24.66l12.37-47.52l17.84-68.51c-3.23,2.43-6.68,4.74-10.22,6.99l-42.38,162.76
	c2.6,0.77,5.19,1.55,7.8,2.32l1.75-6.72L1202.44,1177.08z"/>
<path class="st11" d="M891.44,1046.49c-16.47-6.03-32.6-12.74-48.16-20.25c-2.16-1.04-4.35-2.03-6.47-3.11
	c-6.9-3.41-13.53-6.99-20.01-10.64c-16.3-9.16-31.33-18.91-44.95-29.11c-8.85-6.63-17.15-13.48-24.78-20.44
	c-15.64-14.37-28.59-29.39-38.56-44.82c-1.01-1.56-2.02-3.12-2.96-4.69l-16.35,62.72c0.94,1.62,1.94,3.23,2.94,4.85
	c6.34,10.23,14,20.3,22.88,30.13c8.99,5,17.99,9.98,27.01,14.95c18.03,9.92,36.12,19.75,54.32,29.39c9.1,4.82,18.22,9.6,27.37,14.32
	c37.19,19.18,74.72,36.12,112.59,51.57l54.57-48.6C957.13,1067.12,923.59,1058.26,891.44,1046.49z"/>
<path class="st24" d="M1228.85,1043.38c-14.81,9.4-32.28,17.16-51.99,23.1l-0.25,0.08c-2.73,0.82-5.52,1.58-8.33,2.32
	c-0.77,0.2-1.53,0.42-2.31,0.62c-2.48,0.64-5.02,1.23-7.56,1.81c-1.17,0.26-2.33,0.54-3.51,0.79c-2.34,0.51-4.72,0.98-7.12,1.44
	c-1.45,0.28-2.9,0.56-4.37,0.81c-2.24,0.4-4.52,0.77-6.8,1.14c-1.69,0.26-3.4,0.52-5.11,0.76c-2.16,0.31-4.34,0.6-6.53,0.87
	c-1.92,0.24-3.85,0.45-5.79,0.66c-2.09,0.22-4.18,0.44-6.3,0.63c-2.14,0.2-4.3,0.36-6.47,0.51c-1.99,0.15-3.98,0.3-5.99,0.42
	c-2.41,0.14-4.85,0.24-7.3,0.34c-1.85,0.07-3.69,0.17-5.55,0.22c-2.84,0.08-5.71,0.1-8.59,0.13c-1.53,0.01-3.05,0.05-4.59,0.05
	c-4.46-0.01-8.96-0.08-13.52-0.21c-3.15-0.09-6.32-0.25-9.49-0.41l-17.14,65.83l-3.04,11.68c25.51,8.84,51.2,17.23,77.08,25.36
	c25.88,8.13,51.95,16,78.22,23.81L1228.85,1043.38L1228.85,1043.38z"/>
<path class="st24" d="M990.88,1072.75l-54.57,48.6c7.46,3.04,14.94,6.04,22.42,8.98c7.49,2.94,14.99,5.82,22.51,8.65l16.91-64.99
	C995.73,1073.63,993.31,1073.15,990.88,1072.75z"/>
<path class="st0" d="M1114.87,814.03c72.43,2.56,127.14-16.41,152.82-47.73c6.63-8.09,11.43-16.96,13.97-26.55l1.62-6.1l3.97-14.96
	l12.06-45.47l-0.26,0.76c-0.64,2.29-1.41,4.54-2.29,6.75c-0.25,0.62-0.49,1.23-0.75,1.85c-1.06,2.44-2.23,4.85-3.58,7.19l-0.52,0.82
	c-1.25,2.1-2.65,4.15-4.13,6.16c-0.41,0.56-0.83,1.12-1.26,1.67c-1.72,2.2-3.54,4.35-5.54,6.42l-0.67,0.66
	c-1.85,1.88-3.83,3.7-5.91,5.48c-0.57,0.49-1.14,0.98-1.73,1.46c-2.34,1.91-4.78,3.79-7.39,5.56l-0.75,0.49
	c-2.43,1.63-4.98,3.19-7.63,4.7c-0.72,0.41-1.44,0.82-2.18,1.22c-2.93,1.6-5.95,3.16-9.12,4.61l-0.74,0.32
	c-2.99,1.35-6.11,2.62-9.31,3.83c-0.86,0.33-1.72,0.65-2.6,0.97c-3.48,1.26-7.04,2.46-10.74,3.56l-0.67,0.18
	c-3.53,1.03-7.19,1.96-10.92,2.84c-0.99,0.23-1.99,0.46-2.99,0.69c-3.99,0.88-8.04,1.71-12.24,2.41l-0.53,0.08
	c-4.05,0.67-8.23,1.23-12.47,1.73c-1.11,0.13-2.22,0.26-3.35,0.38c-4.46,0.47-8.98,0.88-13.64,1.16l-0.31,0.01
	c-4.56,0.27-9.24,0.41-13.98,0.49c-1.22,0.02-2.44,0.03-3.67,0.04c-4.9,0.02-9.85-0.01-14.92-0.18
	c-122.04-4.31-247.86-67.96-281.02-142.16c-1.04-2.33-1.98-4.65-2.82-6.95l-0.18-0.53c-0.22-0.6-0.38-1.2-0.58-1.81
	c-0.5-1.5-1.03-3.01-1.44-4.49c-0.26-0.93-0.43-1.83-0.66-2.75c-0.33-1.33-0.68-2.66-0.94-3.97c-0.18-0.94-0.28-1.87-0.43-2.8
	c-0.2-1.27-0.43-2.54-0.57-3.79c-0.1-0.95-0.12-1.88-0.19-2.82c-0.09-1.21-0.2-2.43-0.23-3.63c-0.02-0.96,0.04-1.91,0.06-2.86
	c0.02-1.15,0.01-2.31,0.09-3.44c0.07-0.96,0.21-1.9,0.32-2.85c0.12-1.11,0.22-2.22,0.4-3.31c0.15-0.94,0.38-1.86,0.57-2.78
	c0.22-1.07,0.42-2.15,0.69-3.21l0.07-0.3L828,619.58c-1.9,7.16-2.53,14.71-1.96,22.55c0.7,9.51,3.2,19.45,7.8,29.74
	C867.01,746.08,992.83,809.73,1114.87,814.03z"/>
<path class="st0" d="M844.31,559.34c-0.18,1.09-0.27,2.2-0.4,3.31c-0.11,0.95-0.25,1.89-0.32,2.85c-0.08,1.14-0.07,2.29-0.09,3.44
	c-0.02,0.95-0.08,1.9-0.06,2.86c0.03,1.2,0.14,2.42,0.23,3.63c0.07,0.94,0.09,1.87,0.19,2.82c0.14,1.25,0.37,2.52,0.57,3.79
	c0.15,0.94,0.25,1.86,0.43,2.8c0.26,1.31,0.62,2.65,0.94,3.97c0.22,0.92,0.4,1.82,0.66,2.75c0.42,1.49,0.94,2.99,1.44,4.49
	c0.2,0.6,0.37,1.2,0.58,1.81l0.17,0.53c0.84,2.29,1.77,4.61,2.82,6.95c33.16,74.21,158.98,137.86,281.02,142.16
	c5.07,0.18,10.02,0.21,14.92,0.18c1.23-0.01,2.46-0.02,3.67-0.04c4.74-0.08,9.42-0.22,13.98-0.49l0.31-0.01
	c4.66-0.28,9.18-0.69,13.64-1.16c1.12-0.12,2.24-0.24,3.35-0.38c4.24-0.5,8.42-1.06,12.47-1.73l0.53-0.08
	c4.2-0.7,8.26-1.53,12.24-2.41c1.01-0.22,2-0.45,2.99-0.69c3.73-0.88,7.39-1.81,10.92-2.84l0.67-0.18c3.71-1.1,7.26-2.3,10.74-3.56
	c0.87-0.32,1.74-0.64,2.6-0.97c3.2-1.21,6.32-2.48,9.31-3.83l0.74-0.32c3.17-1.45,6.19-3.01,9.12-4.61c0.74-0.4,1.46-0.81,2.18-1.22
	c2.64-1.51,5.2-3.07,7.63-4.7l0.75-0.49c2.6-1.78,5.04-3.65,7.39-5.56c0.59-0.48,1.16-0.97,1.73-1.46c2.08-1.78,4.06-3.6,5.91-5.48
	l0.67-0.66c2-2.08,3.82-4.22,5.54-6.42c0.43-0.55,0.84-1.11,1.26-1.67c1.49-2.01,2.88-4.05,4.13-6.16l0.52-0.82
	c1.35-2.34,2.52-4.75,3.58-7.19c0.26-0.61,0.51-1.23,0.75-1.85c0.88-2.21,1.65-4.46,2.29-6.75l0.26-0.76l-12.06,45.47
	c7.33-5.43,13.13-13.68,15.65-23.48c2.5-9.72,1.31-19.11-2.63-26.5c1.09-5.71,1.44-11.63,1.01-17.75
	c-0.66-9.59-3.17-19.63-7.82-30.04c-12.34-27.61-37.52-53.75-70.54-75.92c-5.64-3.79-11.51-7.46-17.58-11.01
	c-7.89-4.6-16.15-8.96-24.67-13.11c-8.57-4.17-17.43-8.09-26.54-11.73c-43.76-17.5-93.02-28.68-141.69-30.39
	c-91.33-3.22-154.65,27.71-166.85,74.58c-0.27,1.06-0.47,2.14-0.69,3.21C844.69,557.48,844.47,558.4,844.31,559.34z M870.34,537.03
	c23.01-34.15,78.05-53.08,147.24-50.64c112.89,3.98,229.83,63.38,260.67,132.4c3.32,7.42,5.57,14.74,6.75,21.89
	c2.89,17.5-0.59,33.99-10.41,48.56c-23.01,34.14-78.05,53.08-147.24,50.64c-112.89-3.98-229.83-63.38-260.68-132.4
	C855.25,581.9,856.52,557.54,870.34,537.03z"/>
<path class="st0" d="M873.32,604.51c29.83,66.74,143.9,124.21,254.29,128.1c66.66,2.35,119.36-15.38,140.96-47.43
	c12.34-18.32,13.4-40.25,3.05-63.42c-29.83-66.74-143.9-124.21-254.29-128.1c-66.67-2.35-119.36,15.38-140.96,47.43
	c-8.73,12.95-11.81,27.71-9.22,43.42C868.23,591.04,870.29,597.72,873.32,604.51z"/>
<path class="st29" d="M1127.36,739.88c69.19,2.44,124.23-16.49,147.24-50.64c9.81-14.57,13.3-31.06,10.41-48.56
	c-1.18-7.15-3.43-14.47-6.75-21.89c-30.84-69.03-147.78-128.42-260.67-132.4c-69.19-2.44-124.23,16.49-147.24,50.64
	c-13.82,20.52-15.09,44.88-3.66,70.46C897.53,676.51,1014.47,735.9,1127.36,739.88z M876.37,541.09
	c21.6-32.05,74.29-49.78,140.96-47.43c110.39,3.89,224.46,61.36,254.29,128.1c10.35,23.17,9.29,45.1-3.05,63.42
	c-21.6,32.05-74.29,49.78-140.96,47.43c-110.39-3.89-224.46-61.36-254.29-128.1c-3.03-6.79-5.09-13.47-6.17-19.99
	C864.56,568.8,867.65,554.04,876.37,541.09z"/>
<path class="st30" d="M719.63,1853.47c116.53,2.81,223.74-19.57,341.92-23.36c129.08-4.13,211.74-15.62,244-31.53
	c7.26-3.59,14.91-7.13,22.81-10.65c23.44-10.46,49.47-20.64,77.03-30.67c4.59-1.67,9.23-3.33,13.9-5
	c14.01-4.98,28.37-9.93,42.92-14.85c9.71-3.28,19.5-6.55,29.34-9.82c29.53-9.79,59.53-19.52,88.92-29.27
	c9.79-3.25,19.52-6.51,29.14-9.77c33.68-11.42,66.05-22.92,95.42-34.67c20.98-8.39,40.43-16.91,57.73-25.6l-1.11-0.43l-0.68-0.26
	l-0.67-0.28c-0.6-0.24-1.19-0.49-1.77-0.75l-0.45-0.2l-0.25-0.12l-0.61-0.28l-1.14-0.53l-0.58-0.28c-0.7-0.35-1.39-0.71-2.07-1.07
	l-0.14-0.07c-2.32-1.27-4.45-2.64-6.34-4.11l-0.05-0.03c-4.97-3.87-8.17-8.41-8.18-13.46c0-0.72,0.06-1.46,0.19-2.2l0.01-0.05h0
	c0.56-3.06,2.38-6.29,5.57-9.65c4.09-4.29,10.48-8.78,19.97-13.44c22.39-10.98,45.69-21.35,69.69-28.87
	c14.52-4.55,28.78-8.45,42.82-11.62c7.02-1.59,13.99-2.99,20.9-4.2c6.91-1.22,13.78-2.24,20.59-3.06h0
	c8.19-34.66-9.99-58.82-36.83-73.57c-2.15-1.18-4.36-2.28-6.61-3.34c-22.22-10.47-48.95-15.13-71.49-14.47
	c-3.67,0.11-7.4,0.39-11.11,0.6c-3.1,0.18-6.18,0.32-9.3,0.57c-4.31,0.35-8.64,0.78-12.98,1.28c-4.32,0.5-8.66,1.06-13.01,1.66
	c1.68-0.23,3.34-0.4,5.02-0.61c3.39-0.43,6.78-0.88,10.15-1.24h-0.01h0.01c-29.3,6.29-58.4,14.07-86.39,24.72
	c-9.33,3.55-18.54,7.42-27.6,11.66c-19.07,8.94-38.44,19.49-54.33,33.48c-1.26,1.11-2.49,2.26-3.67,3.44
	c-8.31,8.31-14.62,18.47-15.94,30.4c-0.56,5.1-0.27,10.18,0.62,15.18c0.59,3.34,1.45,6.64,2.49,9.9c0.52,1.63,1.09,3.25,1.69,4.85
	c1.21,3.21,2.56,6.37,3.98,9.46c-7.27-3.75-13.9-8.84-19.9-14.65l-0.12,0.54l-0.21,0.9c-3.63-1.8-6.13-3.84-8.41-6.21
	c-2.2-2.38-4-5.11-5.27-8.23c-0.35-0.86-0.65-1.75-0.9-2.68c-0.25-0.92-0.46-1.87-0.6-2.85c-1.92-2.8-3.77-5.63-5.44-8.47
	c-0.29-0.5-0.71,0.46-1.2,2.49c-0.49,2.03-1.06,5.14-1.65,8.92c0.05,2.78,0.06,5.5,0.08,8.13c0.03,4.5,0.12,8.79,0.51,13.26
	c0.32,4.5,1.11,9.11,1.84,14.67c-2.39-1.18-4.47-2.79-6.29-4.66c-0.2,2.05-0.38,4.07-0.56,6.05c-0.17,1.98-0.33,3.91-0.47,5.77
	c-0.27,3.71-0.47,7.14-0.57,10.07h0c-16.05-22.97-20.8-59.19-51.94-65.59c-26.34-5.42-54.64,1.72-80.67,5.96
	c-52.33,8.52-111.9,16.48-151.85,55.09c-3.14,3.04-5.95,6.27-8.6,9.59c-2.42,3.04-4.62,6.19-6.65,9.43
	c-2.32,3.7-4.39,7.53-6.2,11.47c-6.06,13.15-9.48,27.48-10.39,42.33c-3.03-3.86-5.87-7.83-8.49-11.93
	c-2.63-4.09-5.04-8.3-7.22-12.63c-1.09-2.16-2.12-4.36-3.09-6.59c-2.92-6.67-5.29-13.62-7.06-20.85c-0.18-0.74-1.23,0.5-2.74,2.94
	c-0.33,0.54-0.68,1.13-1.06,1.77c-0.99,1.71-2.11,3.78-3.32,6.11c-1.16,2.24-2.37,4.68-3.61,7.26c-4.62,9.65-9.41,20.96-11.41,28.36
	c-4.47-21.18-0.37-44.98-20.07-59.64c-2.42-1.8-4.99-3.39-7.66-4.79c-4.01-2.11-8.25-3.83-12.56-5.32
	c-4.32-1.48-8.71-2.72-13.04-3.88c-13.99-3.75-27.84-7.49-41.66-11.87c-3.95-1.25-7.87-2.58-11.82-3.85
	c-28.17-9.06-56.22-18.44-84.18-28.11c-31.88-11.03-63.66-22.34-95.42-33.67c-31.96-11.41-63.91-22.84-95.95-34.02
	c-31.51-11-63.23-21.35-94.53-32.92c-31.01-11.45-61.73-23.64-92.31-36.18c-30.58-12.54-61.02-25.44-91.46-38.3
	c-28.76-12.16-57.58-24.22-86.5-35.99c-61.56-13.9-122.79-30.24-184.41-44.45l0,0.01l0-0.01c10.88,1.35,21.75,2.69,32.63,4.04
	c8.95,1.11,17.91,2.23,26.86,3.33c83.65,10.26,167.71,20.44,251.99,23.52c51.3,1.88,102.7,1.76,154.02,3.46
	c30.79,1.02,61.54,2.7,92.22,5.86c83.32,8.58,163.92,32.45,244.92,52.66c17.03,4.25,34.22,7.9,51.12,12.62
	c12.6,3.52,25.79,7.47,38.96,7.83c7.69,0.21,13.35-2.46,18.23-7.19c1.62-1.58,3.16-3.38,4.66-5.39c2.17-2.9,4.17-5.92,6.07-9.01
	c5.68-9.28,10.4-19.2,15.75-28.62c1.47-2.61,2.99-5.21,4.59-7.75c-0.07,1.12-0.11,2.31-0.12,3.57c-0.06,6.29,0.53,14.18,1.4,21.9
	c0.17,1.54,0.36,3.08,0.55,4.59c0.39,3.03,0.8,5.98,1.22,8.73c0.42,2.76,0.85,5.31,1.26,7.56c0.41,2.25,0.8,4.19,1.15,5.71
	c0.53,2.29,0.95,3.62,1.21,3.63c2.92,0.1,6.01,0.34,9.23,0.72c8.05,0.95,16.93,2.71,26.14,4.98c11.05,2.73,22.56,6.19,33.67,9.84
	c5.55,1.83,11,3.7,16.24,5.55c5.24,1.86,10.26,3.69,14.96,5.44c3.14,1.16,6.13,2.29,8.94,3.36c15.48,5.87,25.64,9.96,25.08,8.95
	c-5.18-9.23-8.76-19.11-10.7-29.32c-0.39-2.04-0.71-4.1-0.96-6.16c-0.51-4.13-0.76-8.31-0.74-12.51
	c22.24,25.95,48.53,48.21,78.45,64.69c4.27,2.35,8.62,4.59,13.04,6.7c2.59,1.24,5.2,2.43,7.83,3.57c1.98,0.86,3.97,1.68,5.96,2.48
	c0.65,0.26,1.29,0.55,1.94,0.81c5.3,2.11,10.66,4.05,16.07,5.85c6.75-0.31,13.31-0.99,19.65-2.04c1-0.17,2-0.34,2.99-0.53
	c1.59-0.3,3.18-0.61,4.74-0.96c2.41-0.54,4.79-1.14,7.12-1.81c0.85-0.25,1.66-0.54,2.5-0.81c2.01-0.63,3.99-1.33,5.93-2.08
	c0.8-0.31,1.6-0.62,2.39-0.95c2.56-1.07,5.08-2.2,7.49-3.47l0.02-0.01c1.45-0.76,2.87-1.57,4.27-2.42
	c10.08-6.12,18.69-14.31,25.34-25.03c2.66-4.29,5.01-8.98,7.02-14.1c1-2.56,1.92-5.24,2.75-8.02c0.63-2.11,1.15-4.35,1.67-6.58
	c0.88-3.77,1.67-7.64,2.24-11.8l0.08-0.73c0.14-1.16,0.27-2.32,0.37-3.48c0.17-1.99,0.25-3.96,0.26-5.91
	c0.02-5.85-0.66-11.51-1.96-16.99c-0.98-4.13-2.31-8.16-3.98-12.09c-0.83-1.96-1.74-3.91-2.74-5.82c-0.99-1.91-2.07-3.81-3.22-5.68
	c-3.45-5.59-7.58-10.97-12.29-16.15h0c-3.17-3.48-6.62-6.86-10.3-10.16c-1.84-1.65-3.74-3.27-5.7-4.88
	c-1.96-1.6-3.97-3.18-6.03-4.74c-6.61-5-13.75-9.77-21.32-14.33c-3.06-1.85-6.19-3.65-9.39-5.43h0
	c-29.19-16.24-63.45-29.6-96.84-40.67c-2.77-0.92-5.53-1.82-8.29-2.71c-15.32-4.93-30.34-9.38-44.48-13.42
	c-4.72-1.34-9.33-2.64-13.83-3.89c-18.62-5.19-35.21-9.62-48.19-13.43c-3.03-0.89-6.05-1.77-9.07-2.66
	c-3.02-0.89-6.05-1.78-9.07-2.67c-2.34-0.69-4.69-1.38-7.04-2.07c-0.69-0.2-1.38-0.4-2.07-0.61c-5.94-1.74-11.85-3.49-17.76-5.24
	c-1.05-0.31-2.1-0.62-3.15-0.93c-2.6-0.77-5.21-1.53-7.81-2.3c-2.61-0.77-5.2-1.55-7.8-2.32c-26.27-7.8-52.34-15.68-78.22-23.81
	c-25.88-8.13-51.57-16.52-77.08-25.36c-16.71-5.79-33.35-11.76-49.92-17.98c-7.52-2.83-15.02-5.71-22.51-8.65
	c-7.49-2.94-14.96-5.94-22.42-8.98c-37.88-15.45-75.4-32.39-112.59-51.57c-9.15-4.72-18.28-9.5-27.37-14.32
	c-18.2-9.64-36.29-19.47-54.32-29.39c-9.02-4.96-18.02-9.95-27.01-14.95c-8.95-4.98-17.9-9.97-26.83-14.97
	c-3.67-2.05-7.34-4.1-11-6.16c-152.75-85.49-304.45-171.01-479.36-206.07c-24.5-4.91-51.56-8.97-80.62-12.22
	c-36.3-4.05-75.72-6.84-117.21-8.38v20.36c73.85,2.84,141.11,9.57,195.67,20.51c214.56,43.01,394.2,161.95,583.7,263.61
	c-16.46-6.7-32.85-13.55-49.16-20.58c-77.83-33.57-154.22-70.42-232.24-103.55c-76.69-32.57-154.82-61.86-234.49-86.3
	c-82.03-25.16-165.74-44.23-249.82-61.14c-4.55-0.92-9.11-1.76-13.66-2.66v533.83c5.71,1.71,11.19,3.37,16.33,4.98
	c75.98,23.86,142.23,73.45,206.78,138.32c54.83,55.11,108.44,121.23,165.75,192.1C470.31,1763.55,553.1,1930.87,719.63,1853.47z
	 M1617.83,1649.63l5.31,3.03c1.14,0.7,1.83,1.18,2.24,1.82c0.42,0.63,0.56,1.47,0.71,2.81c0.11,1.39,0.31,3.11,0.45,6.12
	c-2.45,1.75-4.73,1.94-6.82,1.48c-2.06-0.51-3.86-1.85-4.99-3.64c-0.83-1.35-1.31-2.92-1.32-4.51
	C1613.39,1654.1,1614.68,1651.42,1617.83,1649.63z M1254.41,1735.82c3.41,1.95,5.69,3.77,7.87,5.67c1.05,0.96,2.03,1.95,2.95,3
	c0.92,1.05,1.77,2.16,2.57,3.35c0.79,1.19,1.53,2.46,2.17,3.82c0.64,1.36,1.19,2.81,1.62,4.36c0.2,0.78,0.37,1.57,0.5,2.39
	c0.27,1.64,0.37,3.36,0.14,5.16c-0.11,0.91-0.3,1.83-0.6,2.78c-1.81-0.77-3.33-1.57-4.7-2.41c-1.37-0.83-2.57-1.71-3.74-2.63
	c-2.27-1.87-4.24-3.99-5.9-6.49c-1.65-2.49-2.99-5.38-3.7-8.6c-0.31-1.62-0.51-3.31-0.43-5.06
	C1253.25,1739.42,1253.61,1737.62,1254.41,1735.82z M594.09,1790.05c9.37,4.95,18.3,9.62,27.38,13.98
	c9.07,4.36,18.25,8.34,27.49,12.34l27.92,12.06c4.68,2.07,9.37,4.18,14.02,6.45c4.66,2.27,9.29,4.71,13.85,7.42h0h0
	c-10.6-0.39-20.89-2.09-31.02-4.54c-10.13-2.45-20.12-5.62-29.76-9.8c-9.65-4.15-18.95-9.29-27.53-15.5
	C607.87,1806.25,599.98,1798.9,594.09,1790.05z M1474.33,1331.62c9.23,2.89,17.09,6.62,23.39,11.63
	c6.3,5.01,11.05,11.32,14.08,19.37c2.28,6.04,3.58,13.05,3.85,21.24c0.27,8.19-0.5,17.54-2.39,28.27
	c-7.65,43.57-28.38,59.93-58.26,60.13l0.27,0.05c-1.49,0.02-3.02-0.03-4.55-0.09c-0.54-0.02-1.07-0.04-1.62-0.07
	c-1.34-0.07-2.71-0.19-4.08-0.33c-0.94-0.09-1.9-0.21-2.86-0.33c-1.19-0.15-2.37-0.29-3.59-0.48c-2.18-0.34-4.4-0.73-6.66-1.18
	c-5.28-1.09-10.34-2.65-15.14-4.62c-2.4-0.99-4.73-2.08-6.99-3.26c-4.52-2.37-8.76-5.13-12.68-8.2c-1.96-1.54-3.83-3.16-5.62-4.86
	c-14.31-13.56-23.06-31.85-23.55-51.18c-0.12-4.83,0.27-9.72,1.22-14.63c0.16-0.8,0.41-1.57,0.59-2.36
	c0.37-1.58,0.71-3.17,1.18-4.69c0.17-0.54,0.38-1.05,0.58-1.58c0.27-0.72,0.52-1.45,0.79-2.16c0.18-0.49,0.37-0.98,0.55-1.48
	c0.18-0.49,0.34-0.99,0.55-1.47c0.31-0.71,0.67-1.38,1.02-2.07c0.34-0.69,0.67-1.38,1.02-2.07c0.37-0.72,0.69-1.46,1.08-2.16
	c0.31-0.56,0.68-1.09,1.02-1.63c0.54-0.87,1.07-1.75,1.63-2.6c0.36-0.54,0.68-1.12,1.06-1.65c1.03-1.46,2.15-2.84,3.29-4.21
	l0.97-1.22c1.25-1.44,2.58-2.8,3.95-4.13l0.83-0.85c1.47-1.38,3.01-2.69,4.6-3.96l0.64-0.53c1.69-1.32,3.44-2.54,5.25-3.71
	l0.41-0.27c1.89-1.21,3.85-2.32,5.86-3.36l0.12-0.07l0.06-0.03c2.07-1.07,4.2-2.04,6.38-2.92l0.01,0c4.39-1.77,8.98-3.15,13.73-4.11
	c4.75-0.96,9.64-1.5,14.63-1.6h0.08c2.42-0.04,4.85,0.02,7.31,0.2l0.37,0.02c2.34,0.18,4.7,0.46,7.07,0.84l0.45,0.05h0h0l-0.08,0.01
	c1.11,0.19,2.21,0.3,3.32,0.52C1464.74,1328.94,1469.71,1330.17,1474.33,1331.62z M1339.76,1391.8c-0.06-2.17-0.06-4.36,0.01-6.54
	c0.14-4.37,0.56-8.74,1.29-13.08c0.36-2.17,0.81-4.33,1.33-6.47c1.02-4.29,2.37-8.5,4.02-12.59c1.65-4.09,3.6-8.06,5.83-11.85
	c2.22-3.79,4.71-7.41,7.5-10.78c2.79-3.37,5.89-6.48,9.33-9.26c-0.41,1.36-0.85,2.63-1.27,3.96c-2.2,6.93-4.52,13.57-6.62,20.11
	c-1.26,3.9-2.42,7.78-3.5,11.67c-1.08,3.89-2.08,7.78-3.03,11.7c-1.16,4.91-2.23,9.87-3.26,14.87c-0.62,2.99-1.23,5.98-1.81,9.02
	c-0.39,2.03-0.77,4.07-1.17,6.12c-0.46,2.42-0.96,4.86-1.47,7.32c-0.8,3.78-1.67,7.6-2.75,11.47c-0.72-2.09-1.34-4.19-1.87-6.3
	C1340.72,1404.81,1339.95,1398.33,1339.76,1391.8z M1232.09,1293.61c1.19-0.8,2.47-1.5,3.82-2.06c-1.39,5.63-2.47,10.38-3.5,15.23
	l-3.21,14.29c-1.11,4.77-2.33,9.54-3.74,14.4c-0.95,3.15-1.95,6.31-3.16,9.58c-0.27,0.73-0.55,1.47-0.85,2.21
	c-0.43,1.08-0.88,2.17-1.38,3.28c-2.9-5.08-4.02-10.59-4.48-16.05c-0.1-1.37-0.14-2.74-0.13-4.11l0.01-0.19
	c0.02-2.38,0.22-4.76,0.56-7.12c0.23-1.65,0.52-3.29,0.9-4.92c0.49-2.05,1.14-4.07,1.88-6.07c0.48-1.3,1.02-2.58,1.61-3.83
	c0.86-1.85,1.81-3.67,2.93-5.41c0.77-1.16,1.61-2.31,2.51-3.42C1227.65,1297.24,1229.71,1295.21,1232.09,1293.61z M1206.57,1283.32
	c2.36-2.88,5.05-5.49,8.17-7.57c-2.21,7.43-4,14.16-5.41,21.05c-0.87,4.05-1.64,8.13-2.41,12.23c-0.52,2.81-1.04,5.62-1.58,8.46
	c-1.32,6.98-2.76,14.08-4.76,21.19c-1.03,3.54-2.16,7.11-3.56,10.62c-0.7,1.75-1.46,3.49-2.32,5.19c-0.85,1.71-1.79,3.39-2.84,5.03
	c-0.96-7.64-1.18-14.84-1.09-22.15l0-0.15c0.08-3.53,0.27-7.07,0.59-10.62c0.35-3.82,0.86-7.64,1.59-11.46
	c0.45-2.36,1.02-4.72,1.65-7.07c1.34-4.97,3.07-9.9,5.42-14.6v-0.01h0l0.67-1.19C1202.38,1289.14,1204.3,1286.09,1206.57,1283.32z"
	/>
<path class="st30" d="M1637.6,1477.1l-0.74,0.34l-1.19,0.59C1636.3,1477.73,1636.98,1477.4,1637.6,1477.1z"/>
<path class="st30" d="M1647.36,1472.8c1.12-0.44,2.16-0.84,3.05-1.14C1649.51,1471.96,1648.48,1472.35,1647.36,1472.8z"/>
<path class="st30" d="M1643.56,1474.38c0.95-0.41,1.83-0.78,2.67-1.13C1645.39,1473.6,1644.51,1473.97,1643.56,1474.38z"/>
<path class="st30" d="M1619.34,1486.41c-0.57,0.31-1.13,0.62-1.7,0.93C1618.21,1487.04,1618.78,1486.72,1619.34,1486.41z"/>
<path class="st30" d="M1639.04,1476.43c1.07-0.5,2.1-0.97,3.09-1.41C1641.15,1475.46,1640.12,1475.93,1639.04,1476.43z"/>
<path class="st30" d="M1628.45,1481.61c0.59-0.3,1.16-0.58,1.74-0.88l-1.09,0.54L1628.45,1481.61z"/>
<path class="st30" d="M1711.64,1454.36c14.91-3.37,29.96-6.17,44.94-8.25C1741.6,1448.21,1726.55,1450.97,1711.64,1454.36z"/>
<path class="st30" d="M803.47,1395.6l0.77,0.59L803.47,1395.6z"/>
<path class="st31" d="M1756.58,1446.11c-14.97,2.09-30.03,4.88-44.94,8.25c-0.46,0.1-0.91,0.2-1.36,0.3
	c-3.57,0.82-7.1,1.7-10.65,2.58c-2.49,0.61-4.97,1.24-7.44,1.89c-2.88,0.76-5.74,1.53-8.6,2.32c-3.38,0.94-6.73,1.91-10.08,2.91
	c-2.16,0.64-4.33,1.27-6.48,1.93c-5.53,1.71-11,3.46-16.4,5.29l-0.18,0.06l-0.04,0.01c-0.89,0.3-1.93,0.7-3.05,1.14l-1.12,0.46
	c-0.84,0.35-1.73,0.72-2.67,1.13c-0.47,0.2-0.94,0.41-1.43,0.63c-0.99,0.44-2.02,0.91-3.09,1.41c-0.48,0.22-0.95,0.44-1.45,0.68
	c-0.62,0.29-1.29,0.62-1.94,0.93c-1.75,0.84-3.57,1.74-5.48,2.7c-0.58,0.29-1.15,0.58-1.74,0.88c-2.93,1.5-5.96,3.09-9.1,4.8
	c-0.56,0.31-1.13,0.62-1.7,0.93c-3.29,1.81-6.62,3.67-9.99,5.64c-2.04,1.19-4.08,2.41-6.11,3.65c-1.5,0.92-3,1.84-4.48,2.78
	c-0.9,0.57-1.8,1.14-2.69,1.71c-1.4,0.9-2.78,1.81-4.14,2.72c-0.94,0.63-1.87,1.26-2.79,1.89c-1.75,1.2-3.46,2.4-5.12,3.6
	c-1.75,1.28-3.43,2.54-5.05,3.81c-1.64,1.28-3.2,2.55-4.67,3.81c-1.43,1.22-2.81,2.44-4.06,3.63c-1.53,1.45-2.91,2.88-4.12,4.27
	c-1.82,2.09-3.27,4.1-4.25,5.99c-2.31-0.73-4.74-1.4-7.26-2c-22.43-5.34-52.98-5.62-86.22-2.72c-0.84,0.07-1.68,0.15-2.52,0.22
	c-23.34,2.14-47.93,5.82-71.96,10.42c-2.41,0.46-4.82,0.92-7.21,1.4c-6.28,1.26-12.5,2.58-18.64,3.94
	c-50.56,11.2-95.3,25.57-115.52,36.79c-2.59,1.44-6.93,3.38-11.83,5.68c-0.82,0.38-1.65,0.78-2.49,1.18
	c-7.58,3.62-15.97,8-21.14,12.67c-9.67-4.06-20.82-7.4-31.91-11.76c-16.26-6.4-32.67-12.42-49.15-18.34
	c-8.24-2.96-16.49-5.89-24.76-8.83c-20.75-7.39-41.52-14.91-62.18-22.96c-0.72-0.28-1.45-0.56-2.17-0.84
	c-4.15-1.63-8.3-3.24-12.44-4.93c-15.54-6.31-30.99-13.01-46.26-20.4c-16.4-7.93-32.43-16.25-48.13-24.96
	c-7.85-4.36-15.63-8.81-23.32-13.36c-23.1-13.66-45.52-28.21-67.45-43.65c-7.31-5.15-14.57-10.4-21.77-15.75
	c-7.21-5.35-14.37-10.8-21.48-16.35l-0.1-0.08l-0.77-0.59c-8.61,1.72-17.24,2.63-25.88,3.06c-10.27,0.52-20.56,0.44-30.81-0.33
	c-10.25-0.73-20.46-2.18-30.55-4.29c-10.09-2.11-20.09-4.91-29.71-9.21c10.49-0.88,20.69-0.83,30.85-0.57
	c10.16,0.27,20.26,0.71,30.34,1.49c10.09,0.74,20.16,1.78,30.27,3.11c10.1,1.34,20.22,2.96,30.38,5.71l-0.82,0.17
	c56.79,4.93,113.6,9.63,170.43,15.25c28.79,2.85,57.59,5.93,86.4,9.41c24.15,2.91,48.3,6.18,72.45,9.73
	c2.7,0.39,5.41,0.76,8.11,1.16c8.44,1.27,16.87,2.64,25.31,4c1.06,0.17,2.12,0.34,3.18,0.52c16.66,2.71,33.32,5.62,49.98,8.75
	c4.22,0.79,8.45,1.51,12.67,2.33l1.25,0.23c2.47,0.49,5.15,1.08,7.98,1.74l0.77,0.19c2.69,0.64,5.53,1.35,8.5,2.13l0.72,0.19
	c3.09,0.81,6.33,1.69,9.7,2.62l1.29,0.36c3.01,0.83,6.12,1.71,9.32,2.62c5.17,1.46,10.65,3.02,16.26,4.59
	c3.08,0.87,6.18,1.74,9.36,2.63c1.59,0.44,3.24,0.88,4.85,1.33c3,0.82,6.01,1.65,9.08,2.47c1.86,0.5,3.77,0.99,5.65,1.48
	c2.87,0.75,5.75,1.51,8.67,2.24c1.8,0.46,3.63,0.89,5.45,1.34c3.58,0.88,7.19,1.74,10.83,2.58c1.98,0.45,3.96,0.9,5.95,1.34
	c3.62,0.8,7.25,1.56,10.9,2.29c1.89,0.38,3.77,0.77,5.66,1.14c5.77,1.11,11.56,2.14,17.33,3.03l0.09,0.01
	c4.16,0.64,8.31,1.17,12.45,1.67c1.05,0.13,2.11,0.26,3.16,0.38c4.36,0.49,8.7,0.91,13.01,1.21l0.28,0.02
	c4.27,0.3,8.49,0.46,12.67,0.55c1.37,0.03,2.71,0.01,4.07,0.01c2.83,0.01,5.64-0.03,8.43-0.13c0.8-0.03,1.63,0.01,2.43-0.03
	l-0.2-0.07c-5.41-1.8-10.77-3.74-16.07-5.85c-0.65-0.26-1.29-0.55-1.94-0.81c-2-0.81-3.99-1.62-5.96-2.48
	c-2.63-1.15-5.23-2.33-7.83-3.57c-4.42-2.11-8.76-4.35-13.04-6.7c-29.91-16.48-56.21-38.74-78.45-64.69
	c-0.02,4.2,0.23,8.38,0.74,12.51c0.26,2.07,0.58,4.12,0.96,6.16c1.94,10.21,5.52,20.1,10.7,29.32v0.01
	c0.57,1.01-9.6-3.09-25.08-8.96c-2.81-1.07-5.81-2.19-8.94-3.36c-4.7-1.75-9.72-3.58-14.96-5.44c-5.23-1.85-10.68-3.73-16.24-5.55
	c-11.1-3.65-22.62-7.11-33.67-9.84c-9.21-2.28-18.09-4.04-26.14-4.98c-3.22-0.38-6.31-0.62-9.23-0.72
	c-0.25-0.01-0.68-1.34-1.21-3.63c-0.35-1.52-0.75-3.46-1.15-5.71c-0.41-2.25-0.84-4.8-1.26-7.56c-0.42-2.75-0.84-5.7-1.22-8.73
	c-0.19-1.52-0.38-3.05-0.55-4.59c-0.87-7.72-1.46-15.61-1.4-21.9c0.01-1.26,0.05-2.46,0.12-3.57c-1.61,2.54-3.12,5.14-4.59,7.75
	c-5.34,9.43-10.07,19.35-15.75,28.62c-1.9,3.09-3.9,6.11-6.07,9.01c-1.5,2.01-3.04,3.81-4.66,5.39c-4.88,4.73-10.55,7.4-18.23,7.19
	c-13.17-0.36-26.36-4.31-38.96-7.83c-16.9-4.72-34.1-8.38-51.12-12.62c-81-20.21-161.6-44.07-244.92-52.66
	c-30.68-3.16-61.43-4.84-92.22-5.86c-51.32-1.7-102.72-1.58-154.02-3.45c-84.28-3.08-168.34-13.27-251.99-23.52
	c-8.95-1.1-17.91-2.22-26.86-3.33c-10.87-1.35-21.75-2.69-32.63-4.04l0-0.01c61.62,14.21,122.85,30.55,184.41,44.45
	c28.93,11.77,57.74,23.83,86.5,35.99c30.44,12.87,60.88,25.76,91.46,38.3c30.58,12.55,61.3,24.73,92.31,36.18
	c31.3,11.57,63.03,21.92,94.53,32.92c32.04,11.19,63.99,22.62,95.95,34.02c31.76,11.33,63.54,22.65,95.42,33.67
	c27.96,9.67,56.02,19.05,84.18,28.11c3.95,1.27,7.87,2.6,11.82,3.85c13.82,4.38,27.67,8.13,41.66,11.87
	c4.32,1.16,8.72,2.4,13.04,3.88c4.31,1.48,8.55,3.21,12.56,5.32c2.67,1.41,5.24,2.99,7.66,4.79c19.71,14.66,15.6,38.46,20.07,59.64
	c2-7.4,6.79-18.71,11.41-28.36c1.24-2.59,2.45-5.03,3.61-7.26c1.21-2.33,2.33-4.4,3.32-6.11c0.38-0.64,0.73-1.23,1.06-1.77
	c1.52-2.44,2.56-3.68,2.74-2.94c1.77,7.23,4.15,14.17,7.06,20.85c0.97,2.23,2,4.42,3.09,6.59c2.18,4.33,4.59,8.54,7.22,12.63
	c2.62,4.09,5.46,8.07,8.49,11.93c0.9-14.86,4.32-29.18,10.39-42.33c1.81-3.95,3.89-7.77,6.2-11.47c2.03-3.24,4.23-6.4,6.65-9.43
	c2.65-3.32,5.46-6.55,8.6-9.59c39.95-38.61,99.51-46.58,151.85-55.09c26.02-4.24,54.33-11.38,80.67-5.96
	c31.13,6.4,35.89,42.62,51.94,65.59c0.1-2.93,0.3-6.35,0.57-10.07c0.14-1.86,0.29-3.79,0.47-5.77c0.17-1.98,0.36-4,0.56-6.05
	c-5.87-6.04-8.77-15.02-8.67-23.2c-0.02-5.42,0.96-10.62,2.56-15.5c1.69-4.89,3.81-9.52,7.14-14.02c1.87,5.3,2.31,10.43,2.66,15.35
	c0.11,2.04,0.15,4,0.18,5.96c0.59-3.78,1.16-6.89,1.65-8.92c0.49-2.03,0.91-2.99,1.2-2.49c1.67,2.85,3.52,5.67,5.44,8.47
	c-0.24-1.57-0.35-3.2-0.22-4.88c0.33-3.67,1.71-7.69,5.08-10.06c1.79,3.63,3.25,5.96,4.66,8.36c1.36,2.36,2.6,4.71,3.67,7.33
	c1.07,2.6,1.97,5.45,2.5,8.62c0.39,2.79,0.59,5.83-0.17,9.15c6,5.81,12.63,10.9,19.9,14.65c-1.42-3.09-2.77-6.25-3.98-9.46
	c-0.6-1.6-1.17-3.22-1.69-4.85c-1.04-3.26-1.9-6.56-2.49-9.9c-0.89-5-1.18-10.08-0.62-15.18c1.32-11.94,7.63-22.09,15.94-30.4
	c1.19-1.18,2.41-2.33,3.67-3.44c15.88-13.99,35.25-24.55,54.33-33.48c9.05-4.24,18.26-8.11,27.6-11.66
	c28-10.65,57.09-18.43,86.39-24.72h-0.01c-3.37,0.36-6.76,0.81-10.15,1.24c-1.67,0.21-3.34,0.39-5.02,0.61l-0.06,0.01
	L1756.58,1446.11z M521.6,1362.32c-2.08-0.35-4.15-0.71-6.23-1.07C517.45,1361.6,519.53,1361.97,521.6,1362.32z M492.13,1357.01
	c-0.45-0.09-0.9-0.17-1.35-0.25C491.23,1356.84,491.68,1356.92,492.13,1357.01z M465.81,1351.73c-1.84-0.38-3.67-0.77-5.51-1.16
	C462.14,1350.96,463.97,1351.34,465.81,1351.73z M436.55,1345.41l-0.8-0.18L436.55,1345.41z M1182.53,1641.08
	c-0.29-4.62,0.04-8.39,0.61-12.19c0.62-3.75,1.58-7.41,3.08-11.02c1.49-3.6,3.5-7.15,6.25-10.32c2.79-3.11,6.23-5.97,10.74-7.15
	c-0.49,4.59-1.22,8.19-2.02,11.81c-0.85,3.56-1.89,7.01-3.31,10.47c-1.41,3.45-3.22,6.9-5.64,10.16
	C1189.76,1636.05,1186.79,1639.17,1182.53,1641.08z M1225.32,1622.69c-0.24,3.09-0.68,6.11-1.34,9.27
	c-0.73,3.18-1.51,6.45-3.11,10.41c-3.47-2.55-5.43-6-6.74-9.57c-1.24-3.6-1.66-7.38-1.39-11.05c0.26-3.68,1.22-7.25,2.82-10.57
	c1.67-3.3,3.82-6.39,7.31-8.9c1.59,3.99,2.07,7.48,2.42,10.84C1225.58,1616.45,1225.56,1619.6,1225.32,1622.69z"/>
<path class="st32" d="M1876.96,1540.58c-14.04,3.17-28.3,7.07-42.82,11.62c-24,7.52-47.3,17.89-69.69,28.87
	c-9.49,4.65-15.89,9.15-19.97,13.44c-3.2,3.36-5.02,6.59-5.57,9.65c20.33-1.81,35.77,6.32,46.33,15.88
	c69.02-27.44,109.9-49.62,125.67-68.9c5.08-6.21,7.58-12.13,7.55-17.82h0c-6.82,0.82-13.68,1.85-20.59,3.06
	C1890.95,1537.59,1883.98,1538.99,1876.96,1540.58z"/>
<path class="st32" d="M1761.64,1627.85l1.11,0.43l0.66,0.25c-0.83-0.3-1.65-0.62-2.46-0.94L1761.64,1627.85z"/>
<path class="st32" d="M1738.9,1604.2c-0.13,0.74-0.2,1.48-0.19,2.2c0.01,5.05,3.21,9.59,8.18,13.46
	C1741.22,1615.43,1737.85,1610.13,1738.9,1604.2z"/>
<path class="st32" d="M1753.27,1624.01c-2.32-1.27-4.46-2.64-6.34-4.11C1748.82,1621.37,1750.96,1622.74,1753.27,1624.01z"/>
<path class="st33" d="M1738.91,1604.15L1738.91,1604.15l-0.01,0.05c-1.04,5.93,2.32,11.23,7.99,15.66l0.05,0.03
	c1.89,1.47,4.02,2.85,6.34,4.11l0.14,0.07c0.68,0.37,1.36,0.73,2.07,1.07l0.58,0.28l1.14,0.53l0.61,0.28l0.25,0.12l0.45,0.2
	c0.58,0.26,1.18,0.51,1.77,0.75l0.67,0.28c0.81,0.32,1.63,0.64,2.46,0.94c3.54-1.35,7-2.68,10.41-4.01
	c1.22-0.48,2.41-0.95,3.62-1.42c2.27-0.89,4.53-1.78,6.75-2.66l1.05-0.41l0,0C1774.67,1610.47,1759.24,1602.34,1738.91,1604.15z"/>
<path class="st34" d="M1222.88,1602.29c-3.49,2.51-5.64,5.6-7.31,8.9c-1.6,3.31-2.56,6.89-2.82,10.57
	c-0.27,3.67,0.15,7.45,1.39,11.05c1.31,3.57,3.27,7.02,6.74,9.57c1.6-3.97,2.38-7.23,3.11-10.41c0.66-3.16,1.1-6.18,1.34-9.27
	c0.24-3.09,0.25-6.24-0.02-9.57C1224.95,1609.76,1224.46,1606.28,1222.88,1602.29z"/>
<path class="st34" d="M1201.18,1612.21c0.8-3.62,1.53-7.22,2.02-11.81c-4.51,1.18-7.95,4.04-10.74,7.15
	c-2.74,3.17-4.76,6.73-6.25,10.32c-1.5,3.61-2.46,7.27-3.08,11.02c-0.56,3.8-0.9,7.57-0.61,12.19c4.26-1.91,7.23-5.03,9.71-8.23
	c2.42-3.26,4.23-6.71,5.64-10.16C1199.29,1619.22,1200.33,1615.77,1201.18,1612.21z"/>
<path class="st34" d="M1549.53,1565.17c-0.02-2.64-0.03-5.35-0.08-8.13c-0.03-1.96-0.07-3.93-0.18-5.96
	c-0.34-4.92-0.79-10.06-2.66-15.35c-3.33,4.5-5.45,9.13-7.14,14.02c-1.6,4.89-2.57,10.09-2.56,15.5c-0.1,8.18,2.8,17.16,8.67,23.2
	c1.82,1.87,3.9,3.48,6.29,4.66c-0.73-5.57-1.52-10.17-1.84-14.67C1549.65,1573.96,1549.55,1569.67,1549.53,1565.17z"/>
<path class="st34" d="M1573.42,1563.48c-0.53-3.17-1.42-6.02-2.5-8.62c-1.07-2.62-2.31-4.96-3.67-7.33
	c-1.41-2.4-2.87-4.73-4.66-8.36c-3.37,2.37-4.74,6.38-5.08,10.06c-0.13,1.68-0.02,3.3,0.22,4.88c0.15,0.97,0.35,1.92,0.6,2.85
	c0.25,0.92,0.56,1.82,0.9,2.68c1.27,3.13,3.07,5.85,5.27,8.23c2.28,2.37,4.77,4.41,8.41,6.21l0.21-0.9l0.12-0.54
	C1574.01,1569.3,1573.81,1566.26,1573.42,1563.48z"/>
<path class="st34" d="M1614.74,1661.24c1.13,1.8,2.93,3.14,4.99,3.64c2.09,0.46,4.37,0.27,6.82-1.48c-0.14-3.01-0.33-4.73-0.45-6.12
	c-0.15-1.34-0.29-2.17-0.71-2.81c-0.41-0.64-1.1-1.12-2.24-1.82l-5.31-3.03c-3.15,1.79-4.43,4.47-4.41,7.1
	C1613.43,1658.32,1613.91,1659.88,1614.74,1661.24z"/>
<path class="st34" d="M1253.59,1746.22c0.7,3.23,2.05,6.11,3.7,8.6c1.65,2.5,3.63,4.62,5.9,6.49c1.17,0.92,2.38,1.8,3.74,2.63
	c1.36,0.84,2.89,1.64,4.7,2.41c0.29-0.95,0.49-1.87,0.6-2.78c0.22-1.8,0.12-3.53-0.14-5.16c-0.13-0.82-0.31-1.61-0.5-2.39
	c-0.43-1.54-0.98-3-1.62-4.36c-0.64-1.36-1.37-2.64-2.17-3.82c-0.8-1.19-1.65-2.3-2.57-3.35c-0.92-1.05-1.9-2.04-2.95-3
	c-2.18-1.91-4.46-3.72-7.87-5.67c-0.8,1.81-1.16,3.6-1.24,5.34C1253.08,1742.91,1253.28,1744.6,1253.59,1746.22z"/>
<path class="st34" d="M616.43,1812.45c8.58,6.21,17.89,11.35,27.53,15.5c9.64,4.19,19.64,7.35,29.76,9.8
	c10.13,2.45,20.42,4.14,31.02,4.54h0c-4.56-2.71-9.19-5.15-13.85-7.42c-4.66-2.27-9.35-4.38-14.02-6.45l-27.92-12.06
	c-9.24-4-18.42-7.98-27.49-12.33c-9.08-4.37-18.01-9.03-27.38-13.98C599.98,1798.9,607.87,1806.25,616.43,1812.45z"/>
<path class="st30" d="M1301.21,1463.2c1.59,0.44,3.23,0.88,4.85,1.33C1304.45,1464.08,1302.8,1463.64,1301.21,1463.2z"/>
<path class="st30" d="M1334.92,1472.06c-1.82-0.45-3.65-0.88-5.45-1.34c0.68,0.17,1.34,0.35,2.02,0.52
	C1332.61,1471.52,1333.78,1471.78,1334.92,1472.06z"/>
<path class="st30" d="M1315.15,1467c1.86,0.5,3.76,0.98,5.65,1.48C1318.91,1467.99,1317.01,1467.49,1315.15,1467z"/>
<path class="st30" d="M1345.75,1474.64c1.98,0.46,3.96,0.9,5.95,1.34C1349.71,1475.54,1347.72,1475.1,1345.75,1474.64z"/>
<path class="st30" d="M1275.59,1455.98c5.17,1.46,10.65,3.02,16.26,4.59C1286.25,1458.99,1280.77,1457.44,1275.59,1455.98z"/>
<path class="st30" d="M1368.26,1479.41c-1.89-0.36-3.77-0.75-5.66-1.14c1.34,0.27,2.66,0.58,4,0.84
	C1367.15,1479.23,1367.7,1479.3,1368.26,1479.41z"/>
<path class="st30" d="M1334.92,1472.06c3.59,0.88,7.19,1.74,10.83,2.58C1342.11,1473.8,1338.5,1472.94,1334.92,1472.06z"/>
<path class="st30" d="M1351.7,1475.98c3.62,0.8,7.25,1.56,10.9,2.29C1358.95,1477.54,1355.32,1476.78,1351.7,1475.98z"/>
<path class="st30" d="M1320.8,1468.48c2.87,0.76,5.74,1.5,8.67,2.24C1326.54,1469.98,1323.67,1469.23,1320.8,1468.48z"/>
<path class="st30" d="M1291.85,1460.57c3.08,0.87,6.17,1.74,9.36,2.63C1298.03,1462.32,1294.93,1461.44,1291.85,1460.57z"/>
<path class="st30" d="M1306.06,1464.53c3,0.82,6,1.65,9.08,2.47C1312.07,1466.17,1309.06,1465.35,1306.06,1464.53z"/>
<path class="st30" d="M1368.26,1479.41c5.77,1.1,11.56,2.14,17.33,3.03C1379.81,1481.56,1374.03,1480.52,1368.26,1479.41z"/>
<path class="st30" d="M1398.13,1484.12c-4.14-0.5-8.29-1.03-12.45-1.67c2.57,0.39,5.15,0.77,7.71,1.11
	C1394.98,1483.78,1396.55,1483.93,1398.13,1484.12z"/>
<path class="st30" d="M1401.29,1484.5c4.36,0.48,8.7,0.91,13.01,1.21C1410,1485.4,1405.66,1484.99,1401.29,1484.5z"/>
<path class="st30" d="M1398.13,1484.12c1.05,0.13,2.11,0.26,3.16,0.38C1400.24,1484.38,1399.19,1484.25,1398.13,1484.12z"/>
<path class="st35" d="M263.48,857.38c79.68,24.44,157.8,53.73,234.49,86.3c78.02,33.14,154.41,69.98,232.24,103.55
	c16.31,7.04,32.7,13.89,49.16,20.58c-189.5-101.67-369.14-220.61-583.7-263.61C141.11,793.27,73.85,786.53,0,783.69v9.9
	c4.55,0.9,9.12,1.74,13.66,2.66C97.74,813.15,181.45,832.22,263.48,857.38z"/>
<path class="st35" d="M1456.13,1327.33c-34.8,0.85-64.92,23.63-71.39,56.88c-7.59,39.21,20.51,78.04,62.76,86.76
	c2.57,0.49,5.06,0.94,7.5,1.3c29.87-0.2,50.61-16.56,58.26-60.13c1.88-10.72,2.66-20.08,2.39-28.27
	c-0.27-8.19-1.57-15.21-3.85-21.24c-3.03-8.05-7.78-14.35-14.08-19.37c-6.3-5.01-14.16-8.74-23.39-11.63
	c-4.62-1.45-9.58-2.68-14.87-3.77C1458.34,1327.63,1457.24,1327.51,1456.13,1327.33z"/>
<path class="st35" d="M1440.93,1326.21c-4.99,0.1-9.89,0.64-14.63,1.6c-4.75,0.96-9.34,2.34-13.73,4.11
	C1421.35,1328.39,1430.95,1326.4,1440.93,1326.21z"/>
<path class="st36" d="M1447.5,1470.96c-42.25-8.72-70.35-47.55-62.76-86.76c6.47-33.25,36.59-56.03,71.39-56.88h0l0.08-0.01h0
	l-0.45-0.05c-2.37-0.38-4.73-0.67-7.07-0.84l-0.37-0.02c-2.45-0.18-4.89-0.24-7.31-0.2h-0.08c-9.98,0.19-19.58,2.18-28.36,5.71
	l-0.01,0c-2.18,0.88-4.31,1.85-6.38,2.92l-0.06,0.03l-0.12,0.07c-2.01,1.04-3.97,2.16-5.86,3.36l-0.41,0.27
	c-1.8,1.17-3.56,2.4-5.25,3.71l-0.64,0.54c-1.59,1.26-3.13,2.57-4.6,3.96l-0.83,0.84c-1.36,1.33-2.7,2.69-3.95,4.13l-0.97,1.22
	c-1.14,1.37-2.26,2.76-3.29,4.21c-0.38,0.54-0.7,1.11-1.06,1.65c-0.57,0.85-1.09,1.73-1.63,2.6c-0.34,0.55-0.71,1.07-1.02,1.63
	c-0.39,0.7-0.71,1.45-1.08,2.16c-0.35,0.68-0.67,1.38-1.02,2.07c-0.35,0.69-0.71,1.36-1.02,2.07c-0.2,0.48-0.37,0.98-0.55,1.47
	c-0.18,0.5-0.36,0.98-0.55,1.48c-0.27,0.72-0.53,1.44-0.79,2.16c-0.2,0.53-0.41,1.04-0.58,1.58c-0.47,1.52-0.81,3.11-1.18,4.69
	c-0.18,0.79-0.44,1.55-0.59,2.36c-0.95,4.9-1.34,9.79-1.22,14.63c0.49,19.32,9.25,37.62,23.55,51.18c1.79,1.7,3.66,3.32,5.62,4.86
	c3.91,3.08,8.15,5.83,12.68,8.2c2.26,1.18,4.6,2.27,6.99,3.26c4.8,1.97,9.86,3.53,15.14,4.62c2.26,0.45,4.48,0.84,6.66,1.18
	c1.21,0.19,2.4,0.33,3.59,0.48c0.96,0.12,1.92,0.23,2.86,0.33c1.38,0.14,2.74,0.25,4.08,0.33c0.54,0.03,1.08,0.05,1.62,0.07
	c1.53,0.06,3.06,0.11,4.55,0.09l-0.27-0.05C1452.56,1471.9,1450.07,1471.46,1447.5,1470.96z"/>
<path class="st34" d="M807.54,1394.74l0.82-0.17c-10.16-2.75-20.28-4.37-30.38-5.71c-10.1-1.33-20.18-2.37-30.27-3.11
	c-10.08-0.78-20.19-1.22-30.34-1.49c-10.16-0.26-20.36-0.31-30.85,0.57c9.61,4.3,19.61,7.1,29.71,9.21
	c10.1,2.1,20.3,3.56,30.55,4.29c10.25,0.77,20.54,0.85,30.81,0.33c8.64-0.43,17.27-1.34,25.88-3.06
	C804.82,1395.32,806.18,1395.07,807.54,1394.74z"/>
<path class="st34" d="M1342.31,1411.16c0.53,2.11,1.15,4.22,1.87,6.3c1.08-3.87,1.95-7.69,2.75-11.47c0.52-2.46,1.01-4.9,1.47-7.32
	c0.39-2.05,0.78-4.09,1.17-6.12c0.58-3.04,1.19-6.03,1.81-9.02c1.03-5,2.1-9.96,3.26-14.87c0.95-3.92,1.95-7.81,3.03-11.7
	c1.08-3.89,2.24-7.78,3.5-11.67c2.1-6.54,4.42-13.18,6.62-20.11c0.42-1.33,0.87-2.59,1.27-3.96c-3.43,2.78-6.53,5.89-9.33,9.26
	c-2.79,3.37-5.28,6.99-7.5,10.78c-2.23,3.79-4.18,7.76-5.83,11.85c-1.65,4.09-3,8.31-4.02,12.59c-0.52,2.14-0.97,4.3-1.33,6.47
	c-0.73,4.34-1.15,8.71-1.29,13.08c-0.07,2.18-0.07,4.37-0.01,6.54C1339.95,1398.33,1340.72,1404.81,1342.31,1411.16z"/>
<path class="st34" d="M1200.02,1293.47L1200.02,1293.47c-2.35,4.71-4.08,9.63-5.42,14.6c-0.63,2.35-1.2,4.71-1.65,7.07
	c-0.73,3.82-1.24,7.65-1.59,11.46c-0.32,3.55-0.51,7.08-0.59,10.62l0,0.15c-0.09,7.31,0.13,14.51,1.09,22.15
	c1.05-1.64,1.99-3.32,2.84-5.03c0.85-1.71,1.62-3.44,2.32-5.19c1.4-3.5,2.53-7.07,3.56-10.62c2-7.11,3.44-14.21,4.76-21.19
	c0.54-2.84,1.06-5.65,1.58-8.46c0.76-4.1,1.54-8.18,2.41-12.23c1.41-6.89,3.2-13.62,5.41-21.05c-3.12,2.08-5.81,4.68-8.17,7.57
	c-2.27,2.77-4.2,5.81-5.88,8.95L1200.02,1293.47z"/>
<path class="st34" d="M1220.41,1308.27c-0.59,1.26-1.13,2.53-1.61,3.83c-0.74,1.99-1.39,4.02-1.88,6.07
	c-0.39,1.62-0.67,3.26-0.9,4.91c-0.34,2.36-0.54,4.74-0.56,7.12l-0.01,0.19c-0.01,1.36,0.03,2.74,0.13,4.11
	c0.46,5.46,1.58,10.98,4.48,16.05c0.5-1.12,0.94-2.2,1.38-3.28c0.3-0.75,0.57-1.48,0.85-2.21c1.21-3.26,2.21-6.43,3.16-9.58
	c1.41-4.86,2.63-9.64,3.74-14.4l3.21-14.29c1.03-4.86,2.12-9.61,3.5-15.23c-1.36,0.56-2.63,1.25-3.82,2.06
	c-2.38,1.6-4.45,3.63-6.25,5.84c-0.9,1.1-1.73,2.25-2.51,3.42C1222.22,1304.61,1221.28,1306.42,1220.41,1308.27z"/>
</svg>
