<?xml version="1.0" encoding="utf-8"?>
<!-- Generator: Adobe Illustrator 27.5.0, SVG Export Plug-In . SVG Version: 6.00 Build 0)  -->
<svg version="1.1" id="Layer_1" xmlns="http://www.w3.org/2000/svg" xmlns:xlink="http://www.w3.org/1999/xlink" x="0px" y="0px"
	 viewBox="0 0 2719.695 2000" style="enable-background:new 0 0 2719.695 2000;" xml:space="preserve">
<rect y="0" style="fill:#FFFFFF;" width="2719.695" height="2000"/>
<g>
	<g>
		<path style="fill:#DAEBE8;" d="M2252.27,1870.615c-200.987,28.134-408.054,16.411-831.149-13.028
			c-237.577-16.531-715.261,10.857-953.697,13.028c-173.831,1.582-314.761-143.532-314.761-320.588v-540.047V445.847
			c0-177.056,141.224-331.002,314.761-320.588c161.157,9.671,398.2,47.961,645.3,24.516
			c293.888-27.884,851.708-51.578,1139.546-24.516c173.102,16.275,314.761,143.532,314.761,320.588v1104.181
			C2567.032,1727.083,2424.49,1846.509,2252.27,1870.615z"/>
	</g>
	<g>
		<ellipse style="fill:#B8D5DC;" cx="1350.624" cy="1589.572" rx="1014.712" ry="125.004"/>
	</g>
	<g>
		<g>
			<path style="fill:#B8D5DC;" d="M443.16,1556.289c0,0-37.415-38.145-24.541-59.87c12.874-21.725,34.599,46.668,34.599,46.668
				s-11.265-80.872,12.069-82.277c23.334-1.405,0,82.277,0,82.277s8.65-19.512,17.098-20.719c8.449-1.207,6.035,16.546-9.052,33.92
				H443.16z"/>
		</g>
		<g>
			<path style="fill:#444092;" d="M445.839,1557.248c-0.107-0.109-10.813-11.081-19.573-24.94
				c-11.955-18.912-14.802-33.926-8.462-44.624c2.365-3.992,5.201-5.823,8.445-5.46c10.982,1.254,23.014,29.876,29.221,46.86
				c-0.652-6.801-1.34-15.746-1.593-25.159c-0.72-26.721,2.234-44.322,8.78-52.316c2.531-3.091,5.618-4.766,9.176-4.98
				c3.467-0.217,6.315,1.033,8.462,3.691c10.478,12.971,1.007,58.801-4.197,80.244c3.882-6.29,9.39-13.3,15.018-14.104
				c2.667-0.375,4.783,0.615,5.973,2.799c3.396,6.234-1.291,22.125-15.013,37.928l-2.067-1.795
				c13.49-15.536,17.191-30.206,14.676-34.822c-0.639-1.173-1.649-1.62-3.181-1.398c-7.239,1.033-15.69,16.736-18.336,22.699
				l-2.57-0.923c0.051-0.184,5.166-18.618,8.598-38.801c4.488-26.392,4.132-43.719-1.029-50.107
				c-1.582-1.958-3.598-2.831-6.167-2.68c-2.804,0.169-5.166,1.472-7.222,3.983c-14.719,17.974-5.291,87.088-5.194,87.784
				l-2.661,0.603c-4.883-15.368-19.966-55.527-30.982-56.785c-2.098-0.249-3.989,1.114-5.779,4.136
				c-13.905,23.465,27.218,65.825,27.635,66.25L445.839,1557.248z"/>
		</g>
	</g>
	<g>
		<g>
			<path style="fill:#B8D5DC;" d="M1675.068,1506.252c0,0-33.943-34.604-22.263-54.313c11.679-19.708,31.388,42.337,31.388,42.337
				s-10.219-73.366,10.949-74.64c21.168-1.274,0,74.64,0,74.64s7.847-17.701,15.511-18.796c7.664-1.095,5.475,15.01-8.212,30.772
				H1675.068z"/>
		</g>
		<g>
			<path style="fill:#444092;" d="M1677.499,1507.122c-0.097-0.1-9.809-10.053-17.757-22.626
				c-10.845-17.157-13.429-30.777-7.678-40.482c2.146-3.622,4.714-5.29,7.662-4.953c9.963,1.138,20.877,27.103,26.508,42.511
				c-0.591-6.17-1.215-14.285-1.445-22.825c-0.653-24.24,2.027-40.208,7.966-47.461c2.296-2.804,5.097-4.323,8.324-4.518
				c3.143-0.196,5.729,0.938,7.677,3.349c9.506,11.768,0.913,53.344-3.808,72.797c3.52-5.706,8.518-12.066,13.623-12.795
				c2.409-0.345,4.339,0.557,5.419,2.539c3.081,5.655-1.171,20.072-13.62,34.408l-1.875-1.629
				c12.238-14.094,15.596-27.402,13.314-31.591c-0.579-1.064-1.494-1.469-2.886-1.269c-6.573,0.94-14.236,15.184-16.634,20.593
				l-2.332-0.837c0.047-0.166,4.687-16.891,7.8-35.199c4.071-23.942,3.749-39.661-0.934-45.457
				c-1.435-1.776-3.264-2.563-5.596-2.431c-2.543,0.153-4.685,1.335-6.551,3.613c-13.353,16.306-4.801,79.005-4.712,79.637
				l-2.414,0.547c-4.43-13.942-18.113-50.374-28.106-51.515c-1.905-0.226-3.618,1.01-5.243,3.751
				c-12.613,21.287,24.692,59.717,25.071,60.101L1677.499,1507.122z"/>
		</g>
	</g>
	<g>
		<g>
			<path style="fill:#B8D5DC;" d="M1544.48,1646.106c0,0-33.943-34.604-22.264-54.313c11.679-19.709,31.388,42.337,31.388,42.337
				s-10.219-73.367,10.949-74.641c21.169-1.274,0,74.641,0,74.641s7.847-17.701,15.511-18.796c7.665-1.095,5.475,15.01-8.212,30.772
				H1544.48z"/>
		</g>
		<g>
			<path style="fill:#444092;" d="M1546.91,1646.977c-0.097-0.1-9.81-10.053-17.757-22.626
				c-10.845-17.157-13.428-30.777-7.677-40.481c2.147-3.622,4.715-5.292,7.662-4.953c9.963,1.138,20.877,27.102,26.508,42.511
				c-0.592-6.17-1.215-14.285-1.445-22.825c-0.653-24.239,2.026-40.208,7.966-47.46c2.296-2.805,5.097-4.324,8.324-4.519
				c3.149-0.19,5.729,0.938,7.676,3.349c9.507,11.767,0.914,53.344-3.808,72.797c3.522-5.706,8.52-12.065,13.624-12.795
				c2.411-0.343,4.338,0.557,5.419,2.539c3.081,5.655-1.171,20.071-13.62,34.408l-1.875-1.629
				c12.238-14.095,15.596-27.403,13.313-31.591c-0.579-1.063-1.494-1.466-2.886-1.269c-6.573,0.939-14.236,15.184-16.634,20.593
				l-2.332-0.837c0.047-0.166,4.687-16.891,7.8-35.2c4.071-23.942,3.748-39.66-0.934-45.456c-1.434-1.776-3.262-2.566-5.596-2.431
				c-2.543,0.153-4.686,1.335-6.551,3.613c-13.35,16.303-4.8,79.005-4.712,79.637l-2.414,0.547
				c-4.43-13.941-18.113-50.374-28.106-51.515c-1.903-0.224-3.618,1.011-5.243,3.751c-12.614,21.287,24.691,59.717,25.07,60.102
				L1546.91,1646.977z"/>
		</g>
	</g>
	<g>
		<g>
			<path style="fill:#B8D5DC;" d="M909.485,1642.952c0,0-31.715-32.333-20.802-50.748c10.913-18.415,29.328,39.558,29.328,39.558
				s-9.549-68.551,10.23-69.741s0,69.741,0,69.741s7.332-16.539,14.493-17.562c7.161-1.023,5.115,14.025-7.673,28.752H909.485z"/>
		</g>
		<g>
			<path style="fill:#444092;" d="M911.756,1643.765c-1.494-1.524-36.451-37.556-23.764-58.965c2.006-3.385,4.417-4.936,7.159-4.629
				c5.471,0.625,11.896,9.263,19.098,25.674c2.194,4.999,4.137,9.995,5.659,14.13c-1.747-17.946-3.775-53.691,6.104-65.755
				c2.145-2.62,4.762-4.04,7.777-4.221c2.944-0.18,5.353,0.876,7.173,3.129c8.882,10.995,0.854,49.842-3.558,68.019
				c3.291-5.332,7.96-11.274,12.729-11.955c2.255-0.325,4.054,0.52,5.063,2.373c2.878,5.283-1.095,18.753-12.726,32.149
				l-1.752-1.522c11.435-13.169,14.572-25.604,12.44-29.517c-0.542-0.994-1.396-1.368-2.697-1.185
				c-6.136,0.876-13.3,14.187-15.542,19.241l-2.178-0.782c0.043-0.156,4.378-15.782,7.288-32.89
				c3.804-22.37,3.502-37.057-0.872-42.472c-1.34-1.66-3.057-2.397-5.228-2.271c-2.377,0.143-4.378,1.247-6.121,3.375
				c-12.474,15.232-4.485,73.819-4.403,74.41l-2.255,0.511c-4.139-13.027-16.924-47.068-26.262-48.134
				c-1.779-0.203-3.381,0.943-4.899,3.505c-11.781,19.881,23.071,55.796,23.424,56.157L911.756,1643.765z"/>
		</g>
	</g>
	<g>
		<g>
			<path style="fill:#B8D5DC;" d="M2250.205,1573.05c0,0-43.217-44.059-28.346-69.153c14.87-25.094,39.964,53.905,39.964,53.905
				s-13.011-93.412,13.941-95.035c26.952-1.622,0,95.035,0,95.035s9.991-22.538,19.75-23.932c9.759-1.394,6.97,19.111-10.456,39.18
				H2250.205z"/>
		</g>
		<g>
			<path style="fill:#444092;" d="M2253.299,1574.157c-2.036-2.076-49.67-51.177-32.383-80.349c2.733-4.613,6.014-6.74,9.755-6.308
				c7.455,0.851,16.211,12.622,26.024,34.985c2.99,6.811,5.637,13.619,7.711,19.253c-2.381-24.454-5.144-73.163,8.318-89.601
				c2.924-3.57,6.489-5.506,10.599-5.753c4.004-0.242,7.293,1.193,9.774,4.264c12.103,14.984,1.163,67.919-4.849,92.687
				c4.483-7.265,10.847-15.361,17.347-16.29c3.073-0.441,5.524,0.71,6.899,3.233c3.922,7.2-1.491,25.556-17.341,43.809l-2.388-2.074
				c15.582-17.945,19.857-34.889,16.952-40.222c-0.738-1.355-1.91-1.865-3.675-1.615c-8.362,1.194-18.124,19.332-21.18,26.22
				l-2.969-1.065c0.059-0.212,5.967-21.506,9.93-44.817c5.184-30.484,4.772-50.498-1.188-57.877
				c-1.826-2.262-4.162-3.263-7.124-3.095c-3.237,0.195-5.966,1.699-8.341,4.6c-17.002,20.762-6.112,100.592-6,101.396l-3.073,0.696
				c-5.64-17.751-23.061-64.138-35.785-65.591c-2.408-0.269-4.605,1.286-6.676,4.777c-16.054,27.091,31.438,76.031,31.92,76.522
				L2253.299,1574.157z"/>
		</g>
	</g>
	<g>
		<g>
			<g>
				<g>
					<g>
						<g>
							<g>
								<path style="fill:#331832;" d="M647.783,1536.959l-2.334-0.141c-1.818-0.109-3.21-1.611-3.108-3.355l12.815-220.369
									l34.162-8.004l-36.214,227.49C652.862,1535.186,650.508,1537.123,647.783,1536.959z"/>
							</g>
						</g>
						<g>
							<g>
								<path style="fill:#66A8BE;" d="M734.442,811.7l80.247,488.128c4.42,26.888,8.748,43.216,28.699,42.957l411.102-2.494
									c27.034-0.351,48.927-30.37,48.94-67.372c0.021-57.693-12.762-136.428-77.319-166.887
									c-107.03-50.5-225.446,47.842-291.486,18.605c-58.019-25.686-13.82-308.229-147.504-377.196
									C757.265,732.039,727.048,768.861,734.442,811.7z"/>
							</g>
							<g>
								<path style="fill:#5D4163;" d="M552.496,743.87l219.671,0.045l154.361,456.481c0,0-217.882-35.49-223.329-37.358
									C697.751,1161.17,552.496,743.87,552.496,743.87z"/>
							</g>
							<g>
								<path style="fill:#794D80;" d="M515.682,811.7l80.247,488.128c4.42,26.888,21.804,45.883,41.755,45.624l398.045-5.161
									c27.034-0.351,48.927-30.37,48.94-67.372c0.021-57.693-12.762-136.428-77.319-166.887
									c-107.03-50.5-225.446,47.842-291.486,18.605c-58.019-25.686-13.82-308.229-147.504-377.196
									C538.505,732.039,508.288,768.861,515.682,811.7z"/>
							</g>
						</g>
					</g>
				</g>
				<g>
					<g>
						<g>
							<path style="fill:#FFB27D;" d="M1202.53,1438.421c45.41-107.749,58.442-132.388,74.666-203.819
								c8.177-36.005-119.345-154.537-107.39-94.991c9.467,47.154,19.694,136.967-28.809,272.999
								c-9.307,26.103-10.795,23.855,15.044,33.87C1156.042,1446.479,1179.47,1493.138,1202.53,1438.421z"/>
						</g>
					</g>
					<g>
						<path style="fill:#331832;" d="M1202.53,1438.421c0,0-11.217,32.142-3.206,39.834c13.289,12.76,45.547,39.726,21.93,46.227
							c-13.552,3.73-55.732-23.391-68.378-29.527c-12.648-6.136-27.196-6.385-32.488-19.409
							c-5.821-14.328,20.61-62.936,20.61-62.936c-3.401-0.802,6.014,11.302,26.496,18.299
							C1182.375,1435.991,1202.53,1438.421,1202.53,1438.421z"/>
					</g>
					<g>
						<path style="fill:#331832;" d="M959.604,708.308l-2.804-1.253c10.521-23.549,6.8-40.1-12.44-55.34
							c-20.057-15.888-12.401-55.008,0.838-77.139c5.471-9.146,6.297-21.667,2.265-34.352
							c-6.017-18.933-21.674-35.187-42.957-44.595c-41.159-18.194-83.292,3.751-83.714,3.975l-1.442-2.712
							c0.432-0.232,43.887-22.864,86.398-4.072c22.087,9.764,38.359,26.702,44.642,46.474c4.298,13.524,3.366,26.958-2.557,36.859
							c-12.341,20.631-19.999,58.553-1.566,73.154C966.545,665.37,970.658,683.566,959.604,708.308z"/>
					</g>
					<g>
						<path style="fill:#FFB27D;" d="M1009.227,713.85c0,0,44.873,150.385,111.754,159.518
							c66.881,9.132,69.556-29.681,69.556-29.681l-39.007,77.838c0,0-50.33,88.652-125.473-11.372
							C950.914,810.128,1009.227,713.85,1009.227,713.85z"/>
					</g>
					<g>
						<path style="fill:#331832;" d="M819.983,493.863c0,0-42.069-1.072-59.625,27.369c-17.556,28.441-23.901,61.741-13.824,75.049
							c14.757,19.485,21.811,32.479-20.173,45.865c-54.363,17.333-42.319,93.892-8.99,109.439
							c33.328,15.548,213.963-52.243,219.862-54.342c5.9-2.099,31.422-18.552,0.969-56.876c-30.453-38.324,2.312-58.65-3.078-89.933
							C929.734,519.151,889.736,465.009,819.983,493.863z"/>
					</g>
					<g>
						<g>
							<path style="fill:#FFB27D;" d="M1151.074,1469.433c30.579-165.351,52.065-265.485,10.302-343.35
								c-26.831-50.025-244.286-38.078-156.352,28.634c42.937,32.575,84.607,97.148,78.357,261.248
								c-1.055,27.692-12.532,80.09,15.101,82.183C1098.483,1498.148,1140.097,1528.791,1151.074,1469.433z"/>
						</g>
					</g>
					<g>
						<path style="fill:#FFB27D;" d="M685.525,759.189l301.803-35.585c0,0-6.9-56.676-104.209-54.569
							c-9.146,0.185-18.532,0.86-28.16,2.091c-16.157,2.079-31.989,5.776-47.267,10.604
							C716.918,710.441,685.525,759.189,685.525,759.189z"/>
					</g>
					<g>
						<path style="fill:#73B3CE;" d="M754.908,699.063c0,0,116.295,56.195,173.747-26.013c0,0,49.946,13.554,89.274,40.781
							c0,0,46.507,29.899-2.46,59.704c0,0,5.694,75.794,5.179,115.307c-0.291,22.28-1.765,45.671-3.565,66.708
							c-3.601,42.09-10.999,75.715-91.236,109.174c-103.176,43.024-201.098,3.73-217.536-5.975c0,0-5.063-147.511,17.341-244.265
							c0,0-35.314-10.488-64.198-49.379C661.454,765.104,716.621,716.743,754.908,699.063z"/>
					</g>
					<g>
						<path style="fill:#FFB27D;" d="M874.204,692.245c-15.731,8.739-45.584,0.982-58.495-12.731c0.04-0.019,0.093-0.03,0.144-0.051
							c8.955-2.817,15.761-10.176,17.695-19.372l6.074-28.809l1.76-8.368l10.372-49.17l6.072,47.574l1.34,10.529l1.662,13.007
							l0.635,5.013l1.036,8.146c0.843,6.644,6.589,11.508,13.287,11.369l0.11,0C880.5,674.321,887.6,684.813,874.204,692.245z"/>
					</g>
					<g>
						
							<ellipse transform="matrix(0.4648 -0.8854 0.8854 0.4648 -320.6783 1060.7694)" style="fill:#331832;" cx="717.091" cy="795.638" rx="20.358" ry="63.364"/>
					</g>
					<g>
						<path style="fill:#EC865C;" d="M859.164,631.847l1.662,13.007c-9.831-0.496-21.205-13.572-21.205-13.572L859.164,631.847z"/>
					</g>
					<g>
						<g>
							
								<ellipse transform="matrix(0.955 -0.2967 0.2967 0.955 -134.4872 280.2034)" style="fill:#FFB27D;" cx="856.022" cy="583.235" rx="44.942" ry="55.446"/>
						</g>
						<g>
							<g>
								<path style="fill:#080435;" d="M860.332,582.456c0.262-0.167,0.445-0.449,0.471-0.782c0.044-0.562-0.373-1.054-0.935-1.1
									c-0.331-0.026-7.951-1.365-11.763,6.744c-0.24,0.511-0.043,1.12,0.464,1.37c0.506,0.25,1.015-0.023,1.37-0.464
									c3.547-4.406,9.49-5.631,9.765-5.611C859.934,582.631,860.151,582.571,860.332,582.456z"/>
							</g>
						</g>
						<g>
							<path style="fill:#080435;" d="M855.94,595.584c0.649,2.352,2.559,3.876,4.265,3.405c1.706-0.471,2.563-2.759,1.914-5.111
								c-0.649-2.351-2.559-3.876-4.265-3.405C856.148,590.945,855.291,593.233,855.94,595.584z"/>
						</g>
						<g>
							<g>
								<path style="fill:#080435;" d="M896.759,576.721c0.305-0.054,0.583-0.246,0.733-0.544c0.255-0.503,0.057-1.117-0.445-1.373
									c-0.296-0.151-6.832-4.291-13.445,1.754c-0.417,0.381-0.466,1.019-0.093,1.443c0.373,0.424,0.947,0.366,1.443,0.093
									c4.958-2.723,10.92-1.592,11.167-1.468C896.324,576.73,896.548,576.758,896.759,576.721z"/>
							</g>
						</g>
						<g>
							<path style="fill:#080435;" d="M887.698,587.186c-0.295,2.421,0.89,4.558,2.647,4.773c1.757,0.214,3.421-1.575,3.717-3.997
								c0.295-2.422-0.89-4.558-2.647-4.773C889.657,582.975,887.993,584.764,887.698,587.186z"/>
						</g>
						<g>
							<path style="fill:#080435;" d="M870.752,618.187c-2.736,0-4.684-0.327-4.903-0.366c-0.402-0.071-0.67-0.454-0.6-0.856
								c0.07-0.401,0.446-0.674,0.855-0.6c0.144,0.026,14.467,2.416,20.771-6.382c0.238-0.332,0.697-0.407,1.031-0.17
								c0.331,0.238,0.408,0.699,0.17,1.031C883.626,617.057,875.832,618.187,870.752,618.187z"/>
						</g>
					</g>
					<g>
						<path style="fill:#331832;" d="M860.508,536.548c0,0,27.423-0.906,26.955,21.266c-0.469,22.172,23.334,12.097,23.334,12.097
							s1.225-49.843-21.149-51.605c-22.374-1.762-29.581,2.011-29.581,2.011L860.508,536.548z"/>
					</g>
					<g>
						<path style="fill:#331832;" d="M694.946,680.663l-3.064-0.21c2.41-35.133,28.154-44.806,47.307-49.026
							c5.595-1.233,8.9-3.362,9.823-6.328c1.99-6.389-6.679-16.676-13.372-23.856c-5.032-5.399-3.243-18.447,5.318-38.782
							c6.223-14.779,13.903-28.278,13.98-28.413l2.667,1.523c-8.343,14.617-28.15,54.532-19.719,63.578
							c8.311,8.917,16.482,19.081,14.058,26.863c-1.275,4.096-5.344,6.926-12.094,8.413
							C701.869,642.794,696.033,664.822,694.946,680.663z"/>
					</g>
					<g>
						<path style="fill:#331832;" d="M860.508,536.548c0,0,8.993,20.409-20.223,27.28c-29.216,6.872-29.192,31.357-21.618,46.806
							c8.22,16.768,21.365,22.515,3.977,35.45c-8.98,6.68,4.597,14.37,25.492,39.716c20.895,25.345,21.94,59.378,2.887,66.311
							c-19.053,6.933,11.323,29.135-19.797,45.202c-31.12,16.068-85.335-4.382-66.749-46.968
							c18.585-42.585-21.653-57.802-39.789-50.281c-18.136,7.52-28.016-31.08,11.006-43.671
							c39.022-12.591,49.777-38.018,37.025-61.47c-12.752-23.452,5.489-84.585,42.426-87.416
							C852.082,504.675,874.767,511.036,860.508,536.548z"/>
					</g>
					<g>
						<path style="fill:#FFB27D;" d="M810.024,597.753c5.742,4.071,12.857,3.531,15.892-1.206c3.035-4.737,0.84-11.877-4.902-15.947
							c-5.742-4.071-12.857-3.531-15.892,1.206C802.087,586.542,804.282,593.682,810.024,597.753z"/>
					</g>
					<g>
						<path style="fill:#331832;" d="M1149.531,1476.391c0,0-2.413,28.9,5.953,34.353c15.434,10.061,53.081,28.314,32.363,41.383
							c-11.888,7.499-60.12-6.228-74.002-8.433c-13.884-2.206-27.879,1.774-36.72-9.156c-9.726-12.025,3.159-65.306,3.159-65.306
							s17.919,8.226,28.737,9.658C1124.611,1480.953,1149.531,1476.391,1149.531,1476.391z"/>
					</g>
					<g>
						<path style="fill:#73B3CE;" d="M708.311,1058.748c0,0-20.015,90.362,51.536,128.313
							c71.551,37.951,278.041-5.973,278.041,30.301c0,65.02-2.264,129.591,14.948,145.453c17.211,15.862,78.96-36.025,109.098-9.01
							c78.743,70.586,93.292-24.08,119.593-14.01c60.687,23.234,124.723-255.336-242.098-357.719c0,0-24.285-0.416-22.346-26.526
							L708.311,1058.748z"/>
					</g>
				</g>
			</g>
		</g>
		<g>
			<g>
				<g>
					<path style="fill:#FFB27D;" d="M743.58,1025.419c-99.247-23.426-65.273-247.251-62.943-248.985
						c12.72-9.461,34.345,3.769,43.56,7.637c12.928,5.426,64.047,29.695,58.11,49.412c-0.06,0.199-2.734,90.398,16.664,95.064
						c23.988,5.77,85.762-50.193,85.951-50.511l37.725,75.606C921.677,955.295,819.752,1043.399,743.58,1025.419z"/>
				</g>
			</g>
		</g>
	</g>
	<g>
		<path style="fill:#F7B686;" d="M1129.283,691.799c2.772,1.631,43.96,26.245,66.478,101.118
			c9.218,30.649,57.144,54.584,51.279,87.188c-9.176,51.017-83.319,39.8-83.319,39.8
			C1134.795,829.831,1101.581,723.777,1129.283,691.799z"/>
	</g>
	<g>
		<g>
			<g>
				<path style="fill:#C97256;" d="M1146.691,889.779c43.243,43.546,0.135,102.395-27.747,121.136
					c-27.883,18.741-71.576,23.633-68.769,35.68c2.807,12.046,37.643,57.25,6.9,75.052c-24.076,6.666-32.326-17.912-19.37-30.193
					c-2.148-38.334-33.502-61.516-24.216-73.217c9.286-11.701,70.86-4.708,54.59-74.378
					C1086.409,868.416,1127.241,870.193,1146.691,889.779z"/>
				<path style="fill:#2F1A31;" d="M1190.265,764.036c67.836,3.22,94.01-39.346,142.307-49.182s34.663,19.555,34.663,19.555
					c-35.523,31.632-49.965,20.382-49.965,20.382c-72.846,39.883-87.129,74.397-120.004,57.225
					C1173.641,799.676,1190.265,764.036,1190.265,764.036z"/>
				<g>
					<path style="fill:#2F1A31;" d="M1161.192,657.939c0,0-30.945,66.477-81.016,65.091c-63.013-1.744-105.374,33.499-110.971,2.66
						c-5.596-30.839,36.846-48.731,71.167-44.502C1120.214,691.027,1133.111,654.354,1161.192,657.939z"/>
				</g>
				<g>
					<path style="fill:#E28569;" d="M1173.288,646.717c0,0,42.537-15.683,67.889,23.961c32.406,30.271-17.991,75.039-53.961,73.184
						C1151.248,742.008,1103.901,687.028,1173.288,646.717z"/>
				</g>
				<g>
					<path style="fill:#2F1A31;" d="M1215.203,665.368c1.73,3.021,4.805,4.514,6.865,3.334c2.06-1.18,2.326-4.587,0.596-7.608
						c-1.73-3.021-4.804-4.515-6.864-3.335C1213.739,658.939,1213.472,662.347,1215.203,665.368z"/>
				</g>
				<g>
					<path style="fill:#2F1A31;" d="M1182.938,683.824c1.73,3.021,4.804,4.514,6.864,3.335c2.061-1.18,2.327-4.587,0.597-7.608
						c-1.731-3.021-4.805-4.515-6.865-3.334C1181.474,677.395,1181.207,680.803,1182.938,683.824z"/>
				</g>
				<path style="fill:#2F1A31;" d="M1006.036,946.333c-59.381,59.383-126.376,33.768-156.053,5.8
					c-1.64-7.573,62.448,31.241,113.5-3.608c29.463-20.113,5.401-42.326,5.401-42.326
					C993.172,922.399,1006.036,946.333,1006.036,946.333z"/>
				<g>
					<path style="fill:#E28569;" d="M1226.815,726.661c0,0-9.817,10.426-1.111,27.865c9.848,19.726,37.465,75.072-16.905,130.967
						c-45.27,46.54-89.314,44.619-219.501,99.521c-15.986-20.202-47.45-104.577,50.725-146.158
						c66.869-28.32,96.745-136.497,96.745-136.497S1179.694,745.432,1226.815,726.661z"/>
				</g>
				<path style="fill:#F9CBC0;" d="M1101.233,942.64c9.267-24.82,51.242-36.544,90.847-57.465
					c39.98-21.119,40.256-62.963,34.059-101.291c-2.782-17.206,0.473-21.036,5.286-18.276
					c13.068,25.919,25.907,71.916-20.493,119.618C1181.41,915.575,1156.773,925.441,1101.233,942.64z"/>
				<g>
					<path style="fill:#F9CBC0;" d="M1210.405,720.678c0,0,16.979-1.477,17.077-9.858c0.1-8.381-1.636-6.855-1.636-6.855
						s6.895,5.505,11.816,2.154c4.92-3.352,11.802-11.736,10.344-18.132c-1.457-6.397-5.139-11.043-11.372-4.042
						c-6.232,7-37.446,17.145-39.748,21.918C1194.584,710.634,1200.214,725.054,1210.405,720.678z"/>
				</g>
				<g>
					<path style="fill:#2F1A31;" d="M1232.604,675.36c0,0-30.701,13.691-33.128,21.139c-2.424,7.448,20.876,9.246,25.991,5.885
						C1230.58,699.021,1243.828,674.556,1232.604,675.36z"/>
				</g>
				<g>
					<path style="fill:#F9CBC0;" d="M1197.16,670.929c0,0-4.302-4.626-12.476-7.401c-8.176-2.776-12.403-8.914-6.371-14.25
						c6.034-5.337,10.379,1.18,17.104,5.476c6.726,4.295,15.611,14.083,10.947,16.762
						C1201.697,674.198,1201.209,676.372,1197.16,670.929z"/>
				</g>
				<path style="fill:#E28569;" d="M1208.184,794.853c67.912-1.952,110.61-47.937,159.884-49.121
					c49.274-1.185,30.681,25.349,30.681,25.349c-40.534,24.889-52.771,11.273-52.771,11.273
					c-78.726,26.444-131.541,85.407-151.075,67.273C1175.369,831.493,1208.184,794.853,1208.184,794.853z"/>
				<path style="fill:#E28569;" d="M1090.065,933.816c23.316,56.769-52.957,86.42-85.886,93.081s-75.175-5.519-77.185,6.685
					c-2.01,12.204,12.902,67.291-22.31,71.99c-24.796-3.043-23.025-28.908-6.359-35.305c12.667-36.244-7.445-69.65,5.608-76.914
					c13.053-7.263,67.279,22.733,78.874-47.865C1028.582,882.783,1079.578,908.283,1090.065,933.816z"/>
			</g>
			<path style="fill:#6F4975;" d="M1224.17,742.208c-40.237,10.768-85.541-7.706-98.723-13.692c-0.483-0.219-1.03,0.2-1.146,0.718
				l-1.72,7.699c-0.089,0.399,0.067,0.85,0.435,1.026c57.772,27.722,107.94,13.317,105.388,10.934
				C1224.17,742.208,1224.17,742.208,1224.17,742.208z"/>
			<g>
				<path style="fill:#2F1A31;" d="M1150.621,677.302c0,0-23.448,54.622-85.608,55.58c-62.159,0.956-106.315,36.692-82.931,89.073
					c23.385,52.38,162.41-78.944,169.084-106.193C1157.839,688.513,1162.83,670.781,1150.621,677.302z"/>
			</g>
		</g>
	</g>
	<g>
		<g>
			<path style="fill:#F7B686;" d="M1247.293,892.316c0,0-6.595,22.7-25.683,16.847c-24.322-7.459-47.102-42.015-31.623-37.518
				c13.723,3.987,31.78,14.706,31.78,14.706s-45.534-27.953-36.541-36.316c8.995-8.364,47.821,16.254,47.821,16.254
				s-41.78-31.789-30.994-36.832c10.785-5.043,46.179,17.068,46.179,17.068s-42.477-28.647-29.83-34.196
				c12.645-5.547,31.646,14.149,41.54,20.453c9.351,5.957,8.577,14.488,2.239,23.956c0,0-1.325,13.162-6.887,18.285
				c-2.132,1.962-1.413,5.72-2.25,7.635C1251.446,886.321,1247.293,892.316,1247.293,892.316z"/>
		</g>
	</g>
	<g>
		<g>
			<g>
				<path style="fill:#DD8964;" d="M1216.94,908.679c-18.092-7.849-35.151-28.987-33-36.19c0.392-1.314,1.742-3.316,6.374-1.971
					c4.372,1.27,9.139,3.195,13.629,5.237c-9.906-7.292-20.434-16.382-21.038-22.445c-0.163-1.629,0.364-3.058,1.521-4.135
					c6.155-5.723,23.67,1.886,36.146,8.53c-9.863-8.432-22.077-20.162-21.446-26.062c0.156-1.456,0.996-2.579,2.43-3.25
					c6.328-2.958,20.072,2.563,31.129,8.114c-8.884-7.15-18.273-16.052-17.789-21.416c0.107-1.19,0.721-2.822,3.034-3.837
					c10.31-4.523,23.685,5.985,34.432,14.426c3.049,2.396,5.929,4.658,8.211,6.111l-1.262,1.98
					c-2.379-1.516-5.169-3.708-8.399-6.245c-9.714-7.631-23.016-18.08-32.039-14.123c-1.37,0.602-1.592,1.371-1.64,1.898
					c-0.555,6.156,18.626,21.463,31.654,30.25l-1.278,1.968c-9.695-6.055-36.688-20.914-45.06-17
					c-0.879,0.411-1.044,0.95-1.09,1.373c-0.64,5.987,19.471,23.702,32.298,33.462l-1.339,1.925
					c-10.587-6.713-39.561-22.739-46.394-16.386c-0.625,0.581-0.874,1.275-0.784,2.182c0.825,8.278,27.089,26.103,37.14,32.273
					l-1.213,2.01c-0.18-0.107-18.089-10.692-31.509-14.587c-1.408-0.41-3.153-0.674-3.469,0.387
					c-1.592,5.333,15.948,28.805,35.764,34.881l-0.689,2.244C1219.824,909.844,1218.377,909.303,1216.94,908.679z"/>
			</g>
		</g>
	</g>
	<g>
		<g>
			<g>
				<path style="fill:#FFB27D;" d="M884.922,878.036c0,0,25.437-45.407,55.189-51.964c29.752-6.557,72.712,7.562,55.133,15.543
					c-17.579,7.98-42.858,11.972-42.858,11.972s54.408-5.988,50.298,7.342c-4.11,13.331-51.479,18.083-51.479,18.083
					s65.311-1.968,57.35,9.368c-7.96,11.336-57.585,12.48-57.585,12.48s60.838,0.597,51.283,13.548
					c-9.555,12.951-50.273-0.82-54.383,12.511c-4.11,13.331-22.85,37.905-61.299,31.005L884.922,878.036z"/>
			</g>
		</g>
		<g>
			<path style="fill:#EC865C;" d="M930.997,862.81c-0.446,0-0.895-0.138-1.281-0.422c-0.961-0.709-1.165-2.062-0.457-3.023
				c6.268-8.504,22.524-7.962,23.212-7.938c1.192,0.047,2.121,1.051,2.074,2.243c-0.045,1.193-1.039,2.127-2.242,2.077
				c-0.148-0.008-14.656-0.476-19.563,6.183C932.315,862.505,931.661,862.809,930.997,862.81z"/>
		</g>
		<g>
			<path style="fill:#EC865C;" d="M925.669,889.605c-0.589,0-1.174-0.238-1.601-0.708c-0.802-0.885-0.737-2.252,0.147-3.054
				c10.809-9.813,26.457-9.025,27.115-8.988c1.191,0.069,2.102,1.091,2.032,2.283c-0.069,1.191-1.112,2.109-2.281,2.033
				c-0.176-0.011-14.529-0.691-23.96,7.873C926.707,889.42,926.187,889.605,925.669,889.605z"/>
		</g>
	</g>
	<g>
		<g>
			<g>
				<path style="fill:#F7B686;" d="M1476.174,646.872L1476.174,646.872c-0.555,3.837-4.149,6.524-7.986,5.967l-59.56-8.639
					c-3.839-0.557-6.524-4.151-5.967-7.989l0,0c0.559-3.837,4.153-6.522,7.991-5.966l59.559,8.639
					C1474.047,639.443,1476.73,643.037,1476.174,646.872z"/>
			</g>
			<g>
				<path style="fill:#F7B686;" d="M1478.764,629.014L1478.764,629.014c-0.555,3.837-4.149,6.52-7.989,5.964l-66.611-9.659
					c-3.835-0.557-6.52-4.153-5.964-7.989l0,0c0.555-3.837,4.151-6.52,7.989-5.965l66.611,9.661
					C1476.638,621.581,1479.321,625.175,1478.764,629.014z"/>
			</g>
			<g>
				<path style="fill:#F7B686;" d="M1514.129,629.24l-1.828,1.719c-3.416,3.21-8.837,3.045-12.049-0.371l-31.285-33.27
					c-3.21-3.415-3.045-8.837,0.371-12.047l1.829-1.721c3.414-3.21,8.835-3.045,12.047,0.371l31.285,33.268
					C1517.71,620.605,1517.544,626.028,1514.129,629.24z"/>
			</g>
			<g>
				<path style="fill:#F7B686;" d="M1481.355,611.152L1481.355,611.152c-0.557,3.837-4.151,6.52-7.989,5.966l-53.394-7.745
					c-3.837-0.555-6.52-4.149-5.966-7.987l0,0c0.557-3.839,4.151-6.522,7.989-5.965l53.396,7.742
					C1479.227,603.722,1481.912,607.317,1481.355,611.152z"/>
			</g>
			<g>
				<path style="fill:#F7B686;" d="M1508.338,663.911c0,0-37.31,15.207-62.168,1.011c-8.604-4.915,0.466-57.284,11.039-60.669
					c10.57-3.384,46.122,5.36,46.122,5.36L1508.338,663.911z"/>
			</g>
			<g>
				<path style="fill:#F7B686;" d="M1473.654,664.618L1473.654,664.618c-0.555,3.83-4.142,6.51-7.972,5.953l-53.284-7.727
					c-3.828-0.555-6.508-4.142-5.951-7.971l0,0c0.555-3.829,4.142-6.508,7.971-5.953l53.284,7.727
					C1471.531,657.202,1474.211,660.789,1473.654,664.618z"/>
			</g>
		</g>
		<g>
			<g>
				<path style="fill:#F7B686;" d="M1497.861,599.145c77.979-10.104,189.227-30.689,276.4-71.398
					c20.198-9.434,29.002-4.474,39.952-11.649c8.813-5.771,27.778-5.669,37.817,9.3c9.423,14.046,8.826,36.505,4.571,40.215
					c-7.239,6.313-21.302,13.292-43.64,24.171c-77.617,37.796-178.802,62.534-309.962,76.005L1497.861,599.145z"/>
			</g>
		</g>
		<g>
			<path style="fill:#2F1A31;" d="M1859.296,1488.415c0,0-0.617,24.692-17.326,31.66c-16.709,6.962-65.121,13.251-47.031,29.125
				c10.381,9.109,59.3,3.222,73.11,3.222c13.813,0,26.78,6.018,37.042-3.224c11.292-10.17,0-60.785,0-60.785
				s-11.919,6.209-22.637,5.93C1867.009,1493.942,1859.296,1488.415,1859.296,1488.415z"/>
		</g>
		<g>
			<path style="fill:#2F1A31;" d="M2051.18,1488.408c0,0-0.617,24.694-17.326,31.66c-16.707,6.964-65.121,13.251-47.032,29.127
				c10.381,9.109,59.3,3.222,73.11,3.22c13.811,0,26.78,6.02,37.044-3.224c11.29-10.17-0.002-60.783-0.002-60.783
				s-11.919,6.209-22.639,5.93C2058.893,1493.938,2051.18,1488.408,2051.18,1488.408z"/>
		</g>
		<g>
			<path style="fill:#366F90;" d="M1735.112,811.495c0,0-3.089,103.361,29.902,301.642c23.816,143.144,51.932,287.387,65.726,356.54
				c4.935,24.735,25.74,42.824,50.396,43.813l13.248,0.529c26.661,1.071,48.297-21.831,46.349-49.056l-33.469-467.847l-8.25-153.984
				L1735.112,811.495z"/>
		</g>
		<g>
			<path style="fill:#2F1A31;" d="M2036.885,902.454c-1.522,12.582-72.653,11.054-159.746,0.029
				c-87.095-11.023-154.889-29.892-153.367-42.47c1.522-12.582,71.781-14.11,158.874-3.085
				C1969.738,867.951,2038.405,889.876,2036.885,902.454z"/>
		</g>
		<g>
			<path style="fill:#366F90;" d="M1835.103,885.323l185.939,597.299c7.786,25.002,30.292,42.135,55.935,42.572l11.175,0.191
				c26.389,0.451,46.56-23.948,41.75-50.498l-101.716-561.242c-1.477-6.671-6.402-11.975-12.836-13.831
				C1980.476,889.757,1831.679,860.62,1835.103,885.323z"/>
		</g>
		<g>
			<path style="fill:#E28569;" d="M2007.808,558.565c0,0-24.741-69.605-112.87-66.44c-88.131,3.167-154.675,118.979-171.165,367.887
				c0,0,144.315-31.646,313.373,42.18C2037.146,902.193,2046.518,660.017,2007.808,558.565z"/>
		</g>
		<g>
			<path style="fill:#E28569;" d="M2023.859,621.768l-5.154,34.204c0,0-174.909-30.574-217.514-38.304
				c-42.603-7.729-48.222-90.631-48.222-90.631s42.497-19.016,119.624-32.825c7.247-1.307,14.547-1.522,22.339-2.082
				c13.08-0.927,21.905-0.688,34.767,0.267c24.138,1.791,55.797,14.819,73.512,31.106
				C2038.551,555.993,2029.194,600.691,2023.859,621.768z"/>
		</g>
		<g>
			<path style="fill:#020202;" d="M1918.206,1152.292l2.97-0.978l-39.988-121.561c-9.232-28.072-28.23-51.503-53.495-65.974
				l-1.555,2.714c24.594,14.088,43.087,36.901,52.079,64.237L1918.206,1152.292z"/>
		</g>
		<g>
			<g>
				<path style="fill:#73B3CE;" d="M1834.495,476.623l0.238-0.997c-0.113-0.029-11.345-2.769-14.52-10.428
					c-1.649-3.973-0.861-8.621,2.334-13.817c1.506-2.445,2.892-4.656,4.162-6.679c8.744-13.946,12.018-19.162,9.622-30.583
					l-1.003,0.213c2.312,11.013-0.662,15.753-9.489,29.824c-1.27,2.027-2.658,4.242-4.166,6.689
					c-3.378,5.491-4.188,10.455-2.406,14.75C1822.648,473.737,1834.013,476.51,1834.495,476.623z"/>
			</g>
			<g>
				<path style="fill:#73B3CE;" d="M1835.829,414.226c0,0,3.906,17.677-7.807,36.179c-11.708,18.498,1.038,32.019,16.902,24.904
					c15.862-7.118,21.913,13.109,42.191,1.93C1907.394,466.057,1835.829,414.226,1835.829,414.226z"/>
			</g>
			<g>
				<path style="fill:#F7B686;" d="M1929.559,492.382c-8.765-0.937-16.377-6.437-19.859-14.533l-10.925-25.365l-3.169-7.362
					l-18.637-43.288l3.231,44.861l1.945,26.924l0.554,7.677c0.451,6.26-3.926,11.803-10.106,12.914l-0.109,0.018
					c-3.315,5.395-7.897,16.358,5.788,20.713c16.081,5.115,42.094-7.542,51.427-22.547
					C1929.654,492.393,1929.606,492.388,1929.559,492.382z"/>
			</g>
			<g>
				<path style="fill:#2F1A31;" d="M1898.823,451.744c-0.008,0.246-0.022,0.495-0.047,0.741
					c-1.071,14.461-16.537,21.217-16.537,21.217l-0.094-0.08l-1.945-26.926c4.73-1.733,11.466-3.516,15.406-1.573
					C1897.668,446.136,1898.962,448.165,1898.823,451.744z"/>
			</g>
			<g>
				<path style="fill:#F7B686;" d="M1832.785,409.01c0-28.717,18.871-51.998,42.15-51.998c23.277,0,42.148,23.281,42.148,51.998
					c0,28.719-18.871,51.999-42.148,51.999C1851.656,461.009,1832.785,437.729,1832.785,409.01z"/>
			</g>
			<g>
				<path style="fill:#F7B686;" d="M1911.446,416.854c-4.775,4.56-11.45,5.027-14.91,1.044c-3.46-3.983-2.398-10.906,2.377-15.466
					c4.775-4.558,11.45-5.025,14.91-1.044C1917.283,405.373,1916.216,412.294,1911.446,416.854z"/>
			</g>
			<g>
				<path style="fill:#DB6B49;" d="M1852.236,442.659c0,0,14.397,0.332,28.795-4.726c0,0,1.196,14.19-14.397,15.14
					C1857.565,453.629,1852.236,442.659,1852.236,442.659z"/>
			</g>
			<g>
				<path style="fill:#FFFFFF;" d="M1852.236,442.659c0,0,3.483,2.89,11.612,2.855c8.129-0.035,17.183-7.581,17.183-7.581
					S1863.682,442.701,1852.236,442.659z"/>
			</g>
			<g>
				<g>
					<path style="fill:#060633;" d="M1870.857,409.513c-0.281-0.076-0.521-0.279-0.638-0.57c-0.197-0.49,0.041-1.046,0.531-1.245
						c0.287-0.115,6.74-3.436,12.41,2.767c0.359,0.392,0.351,0.993-0.035,1.356c-0.382,0.367-0.915,0.263-1.354-0.035
						c-4.406-2.958-10.067-2.402-10.307-2.307C1871.263,409.558,1871.052,409.566,1870.857,409.513z"/>
				</g>
			</g>
			<g>
				<path style="fill:#060633;" d="M1878.442,420.047c0.074,2.287-1.212,4.184-2.872,4.238c-1.66,0.053-3.065-1.76-3.136-4.047
					c-0.072-2.285,1.214-4.182,2.872-4.234C1876.965,415.951,1878.37,417.76,1878.442,420.047z"/>
			</g>
			<g>
				<g>
					<path style="fill:#060633;" d="M1836.639,414.509c-0.291,0.037-0.593-0.058-0.81-0.283c-0.367-0.377-0.359-0.983,0.019-1.354
						c0.221-0.215,4.925-5.743,12.529-2.168c0.48,0.226,0.701,0.781,0.484,1.268c-0.215,0.482-0.745,0.591-1.264,0.484
						c-5.202-1.058-10.225,1.612-10.412,1.791C1837.029,414.398,1836.838,414.485,1836.639,414.509z"/>
				</g>
			</g>
			<g>
				<path style="fill:#060633;" d="M1847.664,421.362c0.939,2.086,0.472,4.33-1.042,5.011c-1.514,0.679-3.503-0.459-4.441-2.545
					c-0.937-2.086-0.472-4.33,1.044-5.011C1844.739,418.136,1846.727,419.276,1847.664,421.362z"/>
			</g>
			<g>
				<path style="fill:#73B3CE;" d="M1857.036,366.438c0,0,0.909,18.04,23.441,21.117c22.53,3.075,38.07,12.609,35.042,28.84
					c-3.025,16.231-39.342,49.903-12.652,62.947c26.692,13.041,21.012-11.278,49.948-5.639
					c28.936,5.639,34.156-33.004,14.233-55.427c-19.925-22.425-11.856-81.766-86.572-79.137
					c-74.718,2.632-47.343,62.243-47.343,62.243S1857.081,386.361,1857.036,366.438z"/>
			</g>
			<g>
				<path style="fill:#FFFFFF;" d="M1910.553,482.678l0.228-0.562c-5.512-2.228-8.757-5.38-9.913-9.643
					c-3.204-11.809,10.797-29.96,23.152-45.971c3.278-4.25,6.373-8.264,9.122-12.1c7.643-10.672,8.317-23.406,1.76-33.233
					c-7.286-10.914-21.133-15.529-36.138-12.053c-27.752,6.435-39.35-10.268-39.465-10.438l-0.505,0.34
					c0.117,0.17,11.948,17.224,40.109,10.691c14.752-3.415,28.351,1.099,35.494,11.798c6.512,9.757,5.856,21.921-1.75,32.542
					c-2.74,3.826-5.835,7.836-9.109,12.082c-12.441,16.124-26.54,34.4-23.256,46.5
					C1901.475,477.029,1904.929,480.409,1910.553,482.678z"/>
			</g>
			<g>
				<g>
					<path style="fill:#6F4975;" d="M1835.07,447.775c-6.33-2.33-11.899-9.325-14.881-18.703
						c-4.865-15.288-1.45-32.284,7.616-37.895c3.376-2.139,7.171-2.466,10.951-1.083c6.33,2.33,11.901,9.325,14.881,18.676l0,0
						c4.865,15.261,1.45,32.284-7.616,37.92c-2.033,1.276-4.215,1.897-6.451,1.897
						C1838.079,448.587,1836.575,448.317,1835.07,447.775z M1851.848,409.365c-2.806-8.835-7.942-15.368-13.743-17.509
						c-3.268-1.165-6.463-0.868-9.308,0.894c-8.391,5.204-11.441,21.252-6.818,35.752c2.806,8.81,7.942,15.37,13.741,17.509
						c3.241,1.141,6.465,0.87,9.298-0.894C1853.407,439.886,1856.47,423.842,1851.848,409.365L1851.848,409.365z"/>
				</g>
			</g>
			<g style="opacity:0.3;">
				<path style="fill:#FFFFFF;" d="M1902.396,398.846c3.382,14.849-2.023,30.788-12.071,35.607
					c-10.049,4.818-20.937-3.315-24.319-18.159c-3.383-14.849,2.022-30.788,12.073-35.607
					C1888.126,375.869,1899.015,384,1902.396,398.846z"/>
			</g>
			<g style="opacity:0.3;">
				<path style="fill:#FFFFFF;" d="M1854.037,410.017c3.393,14.914-1.122,31.088-10.079,36.123
					c-8.96,5.038-18.971-2.972-22.362-17.888c-3.391-14.914,1.124-31.088,10.084-36.123
					C1840.637,387.093,1850.648,395.101,1854.037,410.017z"/>
			</g>
			<g>
				<g>
					<path style="fill:#6F4975;" d="M1876.299,434.656c-6.48-3.145-11.425-10.248-13.567-19.49
						c-3.686-15.856,2.318-32.987,13.388-38.191c4.461-2.086,9.177-2.06,13.69,0.109c6.465,3.142,11.398,10.246,13.527,19.462l0,0
						c3.698,15.884-2.305,33.016-13.392,38.193c-2.197,1.056-4.457,1.571-6.722,1.571
						C1880.905,436.309,1878.573,435.739,1876.299,434.656z M1876.908,378.655c-10.299,4.853-15.841,21.033-12.36,36.078
						c1.992,8.564,6.695,15.396,12.578,18.241c3.944,1.844,8.119,1.871,12.034,0.082c10.313-4.853,15.855-21.033,12.36-36.078l0,0
						c-1.979-8.537-6.668-15.341-12.537-18.212c-2.004-0.978-4.08-1.465-6.151-1.465
						C1880.838,377.301,1878.846,377.76,1876.908,378.655z"/>
				</g>
			</g>
			<g>
				<g>
					<path style="fill:#6F4975;" d="M1852.054,415.574c0.392,0,0.783-0.135,1.11-0.408l0,0c0.189-0.162,4.73-3.713,12.564-2.224
						c0.921,0.137,1.871-0.431,2.061-1.38c0.189-0.95-0.435-1.871-1.385-2.033c-9.46-1.979-15.22,2.736-15.476,2.927
						c-0.732,0.624-0.841,1.735-0.218,2.468C1851.048,415.356,1851.551,415.574,1852.054,415.574z"/>
				</g>
			</g>
		</g>
		<g>
			<path style="fill:#366F90;" d="M1966.86,888.82c0,0-173.821-33.205-230.179-17.542l27.024,40.051l100.471,5.684L1966.86,888.82z"
				/>
		</g>
		<g>
			<g>
				<path style="fill:#F7B686;" d="M1629.527,771.625L1629.527,771.625c0.075,3.877-3.035,7.111-6.912,7.185l-60.172,1.144
					c-3.879,0.074-7.111-3.037-7.185-6.914l0,0c-0.072-3.877,3.039-7.11,6.916-7.184l60.172-1.144
					C1626.223,764.638,1629.453,767.75,1629.527,771.625z"/>
			</g>
			<g>
				<path style="fill:#F7B686;" d="M1629.184,753.583L1629.184,753.583c0.075,3.876-3.036,7.107-6.915,7.181l-67.295,1.282
					c-3.875,0.073-7.108-3.04-7.181-6.915l0,0c-0.075-3.876,3.038-7.108,6.914-7.183l67.296-1.28
					C1625.879,746.593,1629.11,749.704,1629.184,753.583z"/>
			</g>
			<g>
				<path style="fill:#F7B686;" d="M1664.116,748.064l-1.525,1.993c-2.85,3.722-8.225,4.439-11.95,1.59l-36.271-27.75
					c-3.722-2.848-4.439-8.225-1.589-11.948l1.525-1.995c2.848-3.722,8.223-4.439,11.948-1.589l36.271,27.748
					C1666.248,738.963,1666.964,744.341,1664.116,748.064z"/>
			</g>
			<g>
				<path style="fill:#F7B686;" d="M1628.841,735.537L1628.841,735.537c0.074,3.877-3.037,7.108-6.914,7.183l-53.943,1.026
					c-3.876,0.076-7.107-3.036-7.183-6.912l0,0c-0.074-3.879,3.037-7.109,6.914-7.183l53.944-1.029
					C1625.535,728.551,1628.768,731.662,1628.841,735.537z"/>
			</g>
			<g>
				<path style="fill:#F7B686;" d="M1664.031,783.216c0,0-34.346,21.062-61.179,11.09c-9.288-3.453-8.839-56.6,1.043-61.656
					c9.881-5.056,46.381-2.198,46.381-2.198L1664.031,783.216z"/>
			</g>
			<g>
				<path style="fill:#F7B686;" d="M1629.922,789.544L1629.922,789.544c0.074,3.869-3.03,7.096-6.899,7.168l-53.831,1.025
					c-3.867,0.074-7.094-3.031-7.166-6.9l0,0c-0.074-3.869,3.03-7.094,6.899-7.168l53.831-1.025
					C1626.622,782.571,1629.85,785.675,1629.922,789.544z"/>
			</g>
		</g>
		<path style="fill:#2F1A31;" d="M1942.371,568.343c-6.628,6.253,2.77,26.98,20.992,46.295
			c18.221,19.315,38.366,29.905,44.994,23.652c6.628-6.253-2.77-26.98-20.992-46.295
			C1969.143,572.68,1948.999,562.091,1942.371,568.343z"/>
		<g>
			<g>
				<path style="fill:#F7B686;" d="M1643.179,721.009c75.304-22.628,181.735-61,261.143-115.321
					c18.399-12.588,25.239-17.663,34.878-26.519c7.759-7.125,29.142-1.564,41.478,11.577c11.578,12.33,14.635,34.588,11.039,38.94
					c-6.118,7.404-18.862,16.574-39.137,30.934c-70.452,49.895-166.278,90.73-293.511,125.315L1643.179,721.009z"/>
			</g>
		</g>
		<g>
			<path style="fill:#E08B65;" d="M1819.645,703.813c-0.517-2.534,0.165-5.291,1.982-7.9c2.015-2.888,5.212-5.277,9.011-6.724
				c8.032-3.068,16.344-0.92,18.525,4.79c2.173,5.692-2.584,12.847-10.618,15.916c-3.798,1.451-7.776,1.803-11.201,0.99
				c-3.628-0.86-6.23-2.913-7.322-5.781C1819.86,704.681,1819.734,704.25,1819.645,703.813z M1846.658,695.818
				c-0.055-0.269-0.131-0.536-0.232-0.795c-1.576-4.129-8.33-5.549-14.743-3.102c-3.256,1.243-5.973,3.254-7.651,5.666
				c-1.562,2.243-2.003,4.553-1.275,6.472c0.739,1.934,2.607,3.346,5.264,3.974c2.86,0.679,6.227,0.369,9.48-0.873
				C1843.511,704.864,1847.478,699.838,1846.658,695.818z"/>
		</g>
	</g>
</g>
</svg>
