<?xml version="1.0" encoding="utf-8"?>
<!-- Generator: Adobe Illustrator 27.5.0, SVG Export Plug-In . SVG Version: 6.00 Build 0)  -->
<svg version="1.1" xmlns="http://www.w3.org/2000/svg" xmlns:xlink="http://www.w3.org/1999/xlink" x="0px" y="0px"
	 viewBox="0 0 1100 800" style="enable-background:new 0 0 1100 800;" xml:space="preserve">
<g id="Background">
	<rect style="fill:#FFFFFF;" width="1100" height="800"/>
</g>
<g id="Shadow">
	<g>
		<path style="fill:#F1F2F2;" d="M517.023,668.118c-29.109,0.084-58.218,0.762-87.276,3.892c-10.956,1.18-21.683,3.776-32.664,4.823
			c-21.934,2.092-43.476,5.993-65.488,7.793c-17.726,1.449-35.526,2.305-53.201,4.143c-16.571,1.724-34.916,1.326-51.359-1.522
			c-12.173-2.109-24.402-3.296-36.371-6.682c-13.389-3.789-27.934-6.498-41.884-6.4c-19.892,0.139-39.265,0.155-58.301,6.845
			c-6.683,2.348-14.863,6.209-19.938,11.137c-11.617,11.282-13.189,39.432-1.59,51.133c19.536,19.693,61.233,27.42,88.617,27.785
			c30.008,0.4,59.159-1.758,89.211-3.026c27.925-1.179,55.779-2.856,83.75-2.797c57.127,0.121,114.262,0,171.286-3.696
			c53.575-3.472,107.285-2.28,160.978-2.28c55.06,0,109.747,0.419,164.41,7.506c23.817,3.088,48.081,4.169,72.018,6.332
			c21.437,1.938,42.038-0.038,63.39-1.829c17.929-1.504,35.741-5.964,52.029-13.503c12.893-5.968,35.879-24.507,39.833-38.752
			c11.085-39.935-156.219-38.975-181.907-38.885c-28.736,0.101-57.701,1.016-86.414-0.045c-12.078-0.446-23.979-2.733-35.767-5.238
			c-11.742-2.495-23.572-1.861-35.479-2.91c-49.655-4.374-99.421-3.734-149.235-3.734
			C549.46,668.209,533.242,668.071,517.023,668.118z"/>
	</g>
</g>
<g id="Object">
	<g>
		<g>
			<g id="XMLID_800_">
				<path style="fill:#AA6755;" d="M329.079,243.385l6.069-4.086l6.939,3.087l3.465,6.461l-2.448,4.92l-6.213,2.742l2.152,0.836
					l-0.605,1.763l-9.632,3.168c-1.952-2.541-9.193-5.125-10.239-6.486l6.716-4.595L329.079,243.385z"/>
			</g>
			<g>
				<polygon style="fill:#1A3151;" points="200.84,480.561 133.571,455.823 147.437,573.666 139.403,675.334 139.186,676.011 
					139.348,676.029 139.33,676.25 152.6,677.516 152.603,677.503 153.096,677.558 182.725,586.977 198.408,490.49 198.408,490.49 
									"/>
				<polygon style="fill:#162A42;" points="151.909,682.149 138.147,681.801 134.633,693.413 134.98,693.517 134.892,693.526 
					157.644,707.008 168.462,708.211 169.837,695.847 166.915,693.706 				"/>
			</g>
			<g>
				<polygon style="fill:#1A3151;" points="246.662,482.585 226.473,684.354 213.158,684.959 199.78,576.012 176.591,467.509 				
					"/>
				<polygon style="fill:#162A42;" points="226.439,689.039 244.075,699.039 242.423,707.361 210.91,702.611 212.764,690.621 				
					"/>
			</g>
			<g>
				<path style="fill:#EAEDEF;" d="M278.2,533.257c4.257-2.956,4.348-8.102,4.34-13.256c-0.014-9.678-1.755-19.572-3.973-28.977
					c-4.224-17.644-9.013-38.895-11.119-61.759c-5.443-59.09-24.103-98.743-24.103-98.743l-6.021-16.057
					c-1.197-2.088-2.438-4.152-3.735-6.187c-7.52-11.801-20.578-31.855-34.543-35.138c-0.292-0.069-0.585-0.135-0.88-0.2
					c-14.682-3.222-33.496-1.727-46.766,5.411c-2.517,1.355-4.757,3.159-6.979,4.952c-6.488,5.234-11.78,8.068-14.577,16.043
					c-2.429,6.925-2.993,14.481-4.332,21.657c-2.721,14.58-4.344,29.335-6.516,43.999c-4.074,27.5-7.533,55.089-11.891,82.547
					c-2.243,14.131-4.502,28.288-5.561,42.568c-0.937,12.625-12.327,25.445-18.727,36.759c-2.227,3.937,29.76,14.14,32.626,14.807
					c13.269,3.089,27.383,2.3,41.061,2.362c29.975,0.136,59.954-0.789,89.864-2.771c9.939-0.659,22.187-2.556,31.006-7.505
					C277.667,533.609,277.941,533.437,278.2,533.257z"/>
			</g>
			<path style="fill:#3ABABA;" d="M181.703,271.326c0,0-16.885-4.558-19.217,33.539c-2.333,38.098-6.22,134.508-11.663,160.943
				c-5.442,26.435-13.606,78.286-13.606,78.286l51.704,1.797l59.09-4.665c0,0-20.215-37.32-23.325-63.755
				c-3.11-26.435,2.332-125.956-10.885-163.276C200.583,276.875,197.81,271.996,181.703,271.326z"/>
			<g>
				<polygon style="fill:#EAEDEF;" points="217.029,315.858 254.707,336.341 277.417,328.566 335.527,264.679 320.09,250.723 
					258.417,298.934 209.871,277.754 				"/>
			</g>
			<g>
				<g>
					<path style="fill:#1A3151;" d="M205.253,241.142c2.555,7.671-1.143,15.85-4.388,22.841c-2.878,6.199-3.879,10.279,3.428,11.952
						c4.117,0.943,11.423,2.701,15.034-0.451c2.734-2.388,1.197-9.763-0.133-12.692c-1.016-2.237-3.705-3.373-4.661-5.637
						c-0.394-0.933-0.451-1.97-0.465-2.982c-0.057-4.136,0.515-8.28,1.691-12.245c0.799-2.693,1.88-5.338,2.121-8.136
						c0.35-4.057-2.52-8.786-4.027-12.514c-2.805-6.936-12.569-16.24-20.744-10.795c-1.862,1.24-2.945,3.335-3.852,5.38
						c-0.541,1.221-1.056,2.495-1.071,3.831c-0.063,5.325,4.799,6.224,8.157,8.758C200.483,231.577,203.622,236.246,205.253,241.142
						z"/>
					<path style="fill:#AA6755;" d="M189.703,271.075c7.091-1.67,12.635-7.625,15.3-14.405c2.664-6.78,2.803-14.3,2.066-21.547
						c-2.452-24.119-32.455-22.571-42.615-4.085C155.6,247.147,169.084,275.931,189.703,271.075z"/>
				</g>
				<path style="fill:#AA6755;" d="M189.695,268.475c-0.119,2.747-0.238,5.495-0.357,8.242c-0.017,0.402-0.051,0.844-0.332,1.132
					c-0.32,0.328-0.837,0.334-1.295,0.318c-2.239-0.077-4.478-0.155-6.717-0.232c-1.109-0.038-2.264-0.088-3.242-0.613
					c-2.142-1.149-2.584-4.052-2.243-6.459c0.342-2.406,1.205-4.832,0.695-7.208c4.623,2.278,9.014-2.87,13.638-0.592
					L189.695,268.475z"/>
			</g>
			<path style="fill:#1A3151;" d="M180.02,193.307c-7.878,2.676-12.93,10.644-20.618,13.826c-4.409,1.825-9.626,2.057-13.224,5.192
				c-8.062,7.026-1.582,21.769-8.205,30.165c-1.377,1.746-3.234,3.066-4.617,4.807c-2.982,3.756-3.372,8.882-3.639,13.67
				c-0.06,1.077-0.071,2.251,0.116,3.335c1.036,11.058,17.089,10.355,23.466,9.646c6.997-0.777,4.665-4.665,4.665-4.665l-0.254-0.31
				c-0.671-4.49,1.175-9.278,4.702-12.138c1.309-1.061,2.857-1.906,3.78-3.316c2.072-3.165,0.094-7.357,0.398-11.127
				c1.226-15.184,26.71-11.93,33.902-22.74C209.312,206.394,194.898,188.253,180.02,193.307z"/>
		</g>
		<g>
			<g>
				<g>
					<polygon style="fill:#EAC1A4;" points="781.372,278.215 772.51,273.257 770.211,264.603 768.13,264.159 767.479,266.699 
						763.515,260.063 757.601,257.966 750.756,262.747 748.214,270.99 753.682,277.284 763.057,280.51 774.893,287.82 					"/>
				</g>
				<polygon style="fill:#EAEDEF;" points="782.21,272.581 768.925,288.315 818.117,336.04 831.379,340.318 887.87,295.269 
					872.761,264.423 830.629,300.23 				"/>
			</g>
			<g>
				<g>
					<polygon style="fill:#1A3151;" points="975.028,691.145 977,700.194 961.368,713.081 950.593,705.95 957.423,694.982 
						973.055,682.096 					"/>
					<polygon style="fill:#145566;" points="920.358,412.901 937.802,453.125 939.447,566.297 975.313,688.028 958.636,695.424 
						885.445,554.076 877.115,509.307 873.804,415.018 					"/>
				</g>
				<g>
					<polygon style="fill:#145566;" points="835.904,421.915 834.532,540.519 856.882,693.441 874.068,693.441 884.922,552.338 
						908.439,411.236 					"/>
					<polygon style="fill:#1A3151;" points="873.969,691.396 873.969,700.688 855.385,709.98 846.092,700.688 855.385,691.396 					
						"/>
				</g>
			</g>
			<path style="fill:#EAEDEF;" d="M869.746,261.316l45.65-1.691c0,0,27.31,23.962,41.423,86.228
				c14.371,63.403-2.654,154.677-2.654,154.677s-122.474-16.323-142.556-18.845l30.637-125.184L869.746,261.316z"/>
			<g>
				<path style="fill:#EAC1A4;" d="M886.106,265.98c5.331-0.521,10.662-1.043,15.993-1.564c0.057-4.271-0.227-8.547-0.849-12.773
					c4.445-1.556,9.582-3.892,10.362-8.536c0.246-1.463-0.005-2.958-0.256-4.42c-1.036-6.044-2.072-12.088-3.108-18.132
					c-0.358-2.09-0.74-4.242-1.874-6.034c-1.99-3.145-5.859-4.524-9.524-5.166c-9.355-1.637-19.554,0.376-26.817,6.495
					c-1.933,1.628-3.682,3.587-4.536,5.965c-1.317,3.668-0.341,7.716,0.643,11.487c0.909,3.48,1.818,6.961,2.727,10.441
					c1.045,4.003,2.556,8.554,6.41,10.06c2.046,0.799,4.463,0.57,6.315,1.751C884.857,257.637,884.41,262.497,886.106,265.98z"/>
				<path style="fill:#1A3151;" d="M834.023,205.574c-0.104-4.143,0.479-8.336,1.307-12.114c1.422-6.493,9.082-9.41,15.712-9.87
					c14.32-0.994,28.14-7.486,42.125-2.475c7.994,2.864,18.729,3.552,25.963,7.59c3.021,1.686,5.429,4.319,7.306,7.225
					c6.501,10.07,6.518,23.943,0.042,34.029c-1.453,2.263-3.19,4.33-5.016,6.305c-3.779,4.087-8.299,9.135-13.491,10.644
					c-0.117-4.643,4.132-19.279,0.571-23.089c-5.651-6.047-18.449-3.957-25.471-2.48c-7.66,1.611-14.492,7.025-22.085,8.173
					c-5.464,0.826-12.432-1.862-17.074-4.692C836.639,220.387,834.211,213.06,834.023,205.574z"/>
			</g>
			<path style="fill:#C8D6A1;" d="M882.337,266.96l-47.991,191.964l-3.934,25.176l59.792,7.867c0,0-2.36-91.925-1.573-104.181
				c0.787-12.256,9.654-38.766,11.014-67.328c0.787-16.521,6.034-46.197,2.36-55.858L882.337,266.96z"/>
		</g>
		<path style="fill:#D9A3A3;" d="M489.66,479.792l-0.005,51.979c0.242-1.043,0.399-2.126,0.399-3.269v-82.343h-0.391L489.66,479.792
			z"/>
		<path style="fill:#D9A3A3;" d="M489.684,409.894l-0.005-50.922c-0.248,1.056-0.407,2.155-0.407,3.312v81.499h0.39v-33.89H489.684z
			"/>
		<path style="fill:#D9A3A3;" d="M474.383,594.039c-1.882,0.196-3.776,0.775-5.587,1.808c-5.574,3.18-11.113,6.195-16.751,8.115
			c5.555-1.847,11.055-4.835,16.827-7.967C470.719,594.993,472.576,594.358,474.383,594.039z"/>
		<path style="fill:#D9A3A3;" d="M527.282,358.063c-5.639-1.92-11.178-4.935-16.751-8.115c-1.81-1.033-3.704-1.612-5.584-1.809
			c1.806,0.319,3.661,0.954,5.509,1.956C516.226,353.228,521.727,356.216,527.282,358.063z"/>
		<path style="fill:#D9A3A3;" d="M489.648,604.87l-0.008,107.565c0.137-0.001,0.277-0.001,0.415-0.002V608.185
			C490.055,607.027,489.896,605.927,489.648,604.87z"/>
		<path style="fill:#D9A3A3;" d="M338.577,424.418c1.548,2.485,2.199,5.159,2.146,7.754c0.303-2.949-0.318-6.057-2.097-8.911
			c-5.737-9.201-9.402-19.419-9.358-29.06C328.905,404.177,332.615,414.846,338.577,424.418z"/>
		<path style="fill:#D9A3A3;" d="M404.094,396.789c-0.456,9.258-5.105,18.06-10.179,26.949c-1.315,2.304-1.894,4.743-1.877,7.118
			c0.157-1.995,0.73-4.012,1.829-5.935C399.161,415.656,403.994,406.483,404.094,396.789z"/>
		<path style="fill:#D9A3A3;" d="M489.671,285.871l-0.005-51.979l-0.003-58.69c-0.13,0.006-0.261,0.004-0.391,0.01v107.389
			C489.272,283.745,489.429,284.828,489.671,285.871z"/>
		<path style="fill:#1A3151;" d="M474.383,594.039c-1.807,0.319-3.663,0.953-5.512,1.957c-5.771,3.132-11.271,6.12-16.827,7.967
			c-8.366,2.849-16.953,3.287-26.195-1.738c-18.819-10.23-25.788-35.551-14.932-53.997c13.387-22.748,37.724-19.944,57.407-7.67
			c8.495,5.298,19.216,0.344,21.331-8.787l0.005-51.979l0.003-33.633h-0.002v-2.375h-0.39v1.915h-86.778
			c-6.661-1.768-10.983-8.18-10.456-14.844c-0.017-2.374,0.562-4.814,1.877-7.118c5.074-8.889,9.723-17.691,10.179-26.949
			c0.049-4.784-1.049-9.696-3.826-14.81c-10.219-18.825-35.536-25.807-53.988-14.963c-11.694,6.872-16.629,16.642-17.013,27.186
			c-0.044,9.641,3.621,19.859,9.358,29.06c1.78,2.854,2.4,5.962,2.097,8.911c-0.128,6.21-4.386,11.958-10.733,13.527h-52.33h-23.129
			c-0.25,0.381-0.51,0.751-0.751,1.144c-6.513,10.642-5.17,18.555,4.547,25.253c6.227,4.292,12.797,7.978,18.248,13.543
			c8.322,8.496,8.86,13.509,2.507,24.018c-7.151,11.829-7.113,12.313,3.875,20.716c2.949,2.256,6.072,3.953,1.928,8.221
			c-6.095,6.28-3.915,12.409,1.335,16.985c7.368,6.424,8.476,14.664,7.092,23.878c-1.207,8.039-2.988,15.976-4.491,23.963
			c-4.057,21.548,1.594,31.551,21.064,37.213c20.321,5.909,40.545,0.791,60.811-1.165c13.583-1.311,26.957-6.036,40.855-2.598
			c9.022,2.233,14.004,7.75,15.163,17.854c1.69,14.735,6.076,28.817,8.582,43.316c2.044,11.825,7.193,15.518,17.843,15.04
			c8.924-0.4,21.688-0.589,36.501-0.645l0.008-107.565C488.001,597.877,481.299,593.319,474.383,594.039z"/>
		<path style="fill:#145566;" d="M563.128,243.028c4.177,8.391,15.755,10.719,22.788,3.594
			c16.295-16.509,39.316-24.888,57.619-5.869c14.841,15.421,13.943,41.668-1.987,55.988c-7.824,7.033-16.276,8.601-25.076,7.772
			c-5.833-0.506-11.877-2.135-18.216-3.842c-2.03-0.547-3.982-0.733-5.813-0.624c-6.897,0.904-12.36,6.896-12.336,14.082
			l11.828,49.529l-0.021,0.005l7.869,32.964l0.003-0.001l0.284,1.19l0.267,1.12l0.38-0.091l85.439-20.395
			c8.359,0.94,14.594,9.299,12.016,18.105c-4.478,15.296-8.021,30.152,3.744,43.255c14.311,15.938,40.557,16.851,55.987,2.019
			c19.029-18.292,10.664-41.318-5.835-57.623c-6.731-6.652-5.009-17.357,2.285-22.036l52.234-12.469
			c2.741-19.268,2.496-38.237-0.568-55.981c-9.035-45.723-26.774-81.078-54.808-106.757
			c-57.513-52.681-123.867-67.093-194.327-55.895c-6.618,1.052-13.101,2.507-19.46,4.316l13.63,57.085L563.128,243.028z"/>
		<polygon style="fill:#B5D6CA;" points="489.664,443.784 489.662,443.784 489.662,446.159 489.664,446.159 489.664,445.007 		"/>
		<path style="fill:#D1E7F5;" d="M650.666,713.121c12.716-0.69,6.545-8.626,0.682-20.95
			c-47.568-99.986,9.091-180.581,18.368-191.858c13.904-16.903,24.56-35.311,31.992-54.154h-53.702
			c-8.181,2.858-12.341,12.871-7.339,20.904c12.263,19.69,15.053,44.029-7.703,57.403c-18.452,10.844-43.769,3.862-53.988-14.963
			c-8.401-15.477-1.506-29.104,6.402-42.943c4.553-7.967,0.429-17.546-7.484-20.401h-87.84v82.343c0,1.143-0.158,2.227-0.399,3.269
			v0.351c-2.225,8.998-12.849,13.838-21.282,8.585c-19.689-12.265-44.028-15.057-57.403,7.698
			c-10.846,18.451-2.821,43.34,16.003,53.561c9.1,4.941,17.142,4.633,25.071,1.997c5.638-1.92,11.178-4.935,16.751-8.115
			c1.811-1.033,3.705-1.613,5.587-1.808c7.234-1.278,13.641,2.731,15.265,10.587v0.245c0.248,1.056,0.407,2.156,0.407,3.314v104.249
			C547.375,712.224,635.04,713.969,650.666,713.121z"/>
		<path style="fill:#1A3151;" d="M489.648,604.87v-0.245c-1.625-7.856-8.032-11.864-15.265-10.587
			C481.299,593.319,488.001,597.877,489.648,604.87z"/>
		<path style="fill:#1A3151;" d="M468.325,540.559c-19.683-12.274-44.02-15.078-57.407,7.67
			c-10.855,18.446-3.887,43.767,14.932,53.997c9.242,5.025,17.828,4.587,26.195,1.738c-7.93,2.636-15.971,2.944-25.071-1.997
			c-18.824-10.221-26.849-35.11-16.003-53.561c13.375-22.755,37.715-19.963,57.403-7.698c8.433,5.253,19.057,0.413,21.282-8.585
			v-0.351C487.541,540.903,476.82,545.856,468.325,540.559z"/>
		<path style="fill:#B5D6CA;" d="M568.409,302.328c-13.387-22.749-37.724-19.945-57.407-7.67
			c-8.495,5.298-19.216,0.344-21.331-8.787c-0.242-1.043-0.4-2.126-0.4-3.27V175.213c-29.326,1.323-57.857,10.158-85.236,23.581
			c-7.363,3.61-14.603,7.554-21.776,11.616c-50.344,28.511-78.351,72.284-75.976,136.42c1.333,35.995-14.694,62.194-38.368,84.212
			c-4.281,3.981-8.535,7.941-12.04,12.718c-0.462,0.63-0.909,1.278-1.344,1.939h23.129h52.33
			c6.346-1.569,10.604-7.317,10.733-13.527c0.053-2.595-0.598-5.268-2.146-7.754c-5.962-9.572-9.672-20.241-9.309-30.217
			c0.384-10.544,5.319-20.314,17.013-27.186c18.452-10.844,43.769-3.862,53.988,14.963c2.776,5.114,3.874,10.026,3.826,14.81
			c-0.1,9.695-4.933,18.867-10.227,28.133c-1.099,1.923-1.672,3.94-1.829,5.935c-0.527,6.664,3.795,13.075,10.456,14.844h86.778
			v-1.915v-81.499c0-1.157,0.159-2.257,0.407-3.312c1.646-6.995,8.351-11.556,15.269-10.833c1.88,0.196,3.774,0.776,5.584,1.809
			c5.573,3.18,11.112,6.195,16.751,8.115c8.367,2.849,16.952,3.287,26.195-1.738C572.296,346.095,579.264,320.774,568.409,302.328z"
			/>
		<g>
			<polygon style="fill:#EAEDEF;" points="922.595,296.171 864.184,351.325 777.534,325.494 771.334,344.985 866.568,388.554 
				891.629,388.554 944.584,343.505 			"/>
			<polygon style="fill:#EAC1A4;" points="771.893,343.228 756.81,343.505 747.601,330.507 771.012,317.492 777.534,325.494 			"/>
		</g>
		<g>
			<polygon style="fill:#AA6755;" points="287.171,376.218 286.888,385.008 302.404,390.656 311.345,383.881 311.352,373.648 
				302.719,373.166 302.448,370.916 299.621,369.097 			"/>
			<path style="fill:#EAEDEF;" d="M157.68,310.456l63.98,54.483l67.959,1.32c0,0-2.758,29.199-2.731,26.772
				c0.026-2.427-75.262,7.28-75.262,7.28l-66.795-47.21L157.68,310.456z"/>
		</g>
	</g>
</g>
</svg>
