<?xml version="1.0" encoding="utf-8"?>
<!-- Generator: Adobe Illustrator 27.5.0, SVG Export Plug-In . SVG Version: 6.00 Build 0)  -->
<svg version="1.1" id="Layer_1" xmlns="http://www.w3.org/2000/svg" xmlns:xlink="http://www.w3.org/1999/xlink" x="0px" y="0px"
	 viewBox="0 0 2000 2000" style="enable-background:new 0 0 2000 2000;" xml:space="preserve">
<rect style="fill:#FFFFFF;" width="2000" height="2000"/>
<g>
	<path style="fill:#231F20;" d="M563.613,1905.948c-42.021,0.253-83.975-2.691-125.969-2.685
		c-10.508,0.358-21.015,0.477-31.525,0.647c-8.012,0.964-37.62,3.835-24.698-11.061c4.418-19.148,10.55-32.094-5.625-48.528
		c-21-17.328-57.107-21.1-64.886-51.32c-6.493-41.348,46.297-62.332,45.156-102.057c-1.232-16.514-6.735-33.197-20.16-43.735
		c0.207,0.199,0.418,0.395,0.625,0.59c-10.86-10.701-24.303-18.061-38.184-24.098c0.134,0.059,0.27,0.118,0.405,0.177
		c-21.935-10.495-47.722-17.364-63.527-36.981c-17.105-22.259-10.888-56.795,11.134-73.477
		c36.382-29.899,83.816-41.084,128.069-54.248c69.763-19.429,141.274-33.849,213.649-38.343c-0.026,0.001-0.052,0.002-0.078,0.003
		c1.849-0.066,3.686-0.252,5.539-0.265c-0.013,0.001-0.026,0.001-0.04,0.002c36.988-2.277,73.793,1.206,109.391,11.705
		c-0.211-0.055-0.426-0.109-0.637-0.164c20.244,6.008,41.002,11.561,60.11,20.636c33.303,19.087,60.812,52.875,61.097,92.65
		c-0.166,29.405-18.99,53.737-25.222,81.729c-13.283,63.084,88.084,54.599,100.069,106.864c6.394,31.255-10.601,61.54-20.727,90.289
		c-6.571,15.615-13.447,31.212-17.344,47.758c-0.854,5.015-1.607,11.638-7.537,12.972c-81.868,12.365-164.888,15.781-247.535,19.812
		c0.055-0.003,0.111-0.006,0.166-0.009C591.435,1905.425,577.526,1906.045,563.613,1905.948z M456.335,1890.987
		c47.162,1.916,94.415,4.335,141.629,2.449c-0.031,0.002-0.061,0.003-0.092,0.005c0.198-0.01,0.395-0.02,0.592-0.029
		c-0.179,0.008-0.356,0.017-0.534,0.027c1.289-0.062,2.577-0.124,3.87-0.183c-0.266,0.012-0.531,0.023-0.797,0.035
		c22.634-0.982,45.267-1.814,67.871-3.371c-0.014,0.001-0.028,0.001-0.042,0.002c59.502-3.834,119.459-6.054,178.191-16.886
		c4.378-25.189,17.047-47.818,25.648-71.647c-0.117,0.324-0.234,0.648-0.352,0.973c37.334-90.795-6.455-79.065-67.525-122.007
		c-23.534-15.189-25.243-45.263-15.086-69.146c6.053-19.299,18.048-36.449,20.955-56.734c5.098-37.255-20.744-70.833-50.599-90.108
		c-20.135-11.596-43.422-16.926-65.502-23.758c-33.37-9.7-67.89-12.087-102.469-10.185c0.223-0.008,0.441-0.02,0.664-0.031
		c-81.3,4.404-161.46,21.448-239.457,44.269c-43.139,14.702-147.368,40.943-108.633,104.448c-0.052-0.069-0.104-0.138-0.156-0.206
		c18.272,20.219,47.06,25.353,70.386,37.794c21.411,10.984,43.858,27.5,49.646,52.12c16.487,52.509-28.532,67.775-41.838,109.028
		c-6.106,31.007,35.168,37.764,54.532,51.242c22.094,13.649,24.638,41.29,13.878,63.157
		C412.79,1891.981,434.586,1890.45,456.335,1890.987z"/>
	<path style="fill:#231F20;" d="M384.687,1904.146c-44.757,0.359-87.746-14.943-132.516-14.837
		c-30.034-0.979-63.657,6.776-90.926-8.943c-9.944-6.572,0.761-18.129,2.12-26.787c21.253-55.432,34.378-113.383,47.762-171.09
		c5.559-25.732,10.686-51.612,13.717-77.777c1.796-18.021,0.533-37.366,3.517-54.738c7.858-3.489,4.364,22.058,5.19,26.413
		c2.015,44.727-8.069,88.823-17.739,132.22c-11.06,48.891-23.552,97.557-41.799,144.323c0.019-0.053,0.038-0.106,0.057-0.159
		c-0.088,0.244-0.177,0.487-0.266,0.73c0.018-0.049,0.036-0.097,0.054-0.146c-1.667,4.601-3.375,9.193-5.046,13.795
		c0.086-0.238,0.172-0.473,0.258-0.711c-0.474,1.31-0.992,2.616-1.41,3.947c27.79,17.618,80.562,2.889,114.22,8.707
		c-0.005,0-0.009-0.001-0.013-0.001c0.259,0.026,0.518,0.052,0.777,0.078c-0.087-0.009-0.175-0.018-0.262-0.028
		c0.167,0.016,0.334,0.033,0.501,0.05c-0.078-0.008-0.156-0.015-0.235-0.022c0.259,0.026,0.518,0.051,0.777,0.078
		c-0.033-0.003-0.066-0.007-0.1-0.01c23.37,2.505,46.39,7.387,69.631,10.721c9.449,2.339,32.909-2.632,38.333,3.287
		C394.16,1897.816,389.934,1904.34,384.687,1904.146z"/>
	<path style="fill:#231F20;" d="M839.594,1881.474c0.516-12.952,26.144-8.26,35.14-8.791c12.009,0.77,24.014-0.934,36.013-1.36
		c-11.101-38.41-17.42-77.708-20.867-117.463c-0.89-5.902-1.264-11.9-2.88-17.668c-1.244-3.398-2.679-7.923,1.282-10.082
		c2.854-1.848,7.106,0.868,5.489,4.27c8.147,22.731,8.253,47.41,12.347,71.021c2.333,10.13,5.515,20.055,7.242,30.33
		c2.384,12.36,5.88,24.461,8.91,36.672c5.608,13.249-10.653,14.805-19.945,14.496c0.04-0.002,0.08-0.005,0.12-0.007
		c-14.558,1.482-29.071,0.973-43.651,1.143C852.685,1882.44,841.842,1890.118,839.594,1881.474z"/>
	<path style="fill:#231F20;" d="M835.087,1690.026c-7.435-5.567-5.887-31.559-7.845-41.323c-3.704-26.502-5.999-53.131-8.333-79.766
		c-2.018-15.689-6.741-30.844-9.056-46.48c0.031,0.152,0.059,0.305,0.09,0.457c-0.398-5.839-7.354-22.577,0.62-24.485
		c1.108,0.201,1.749,1.207,1.715,2.271c0.002-0.018,0.004-0.037,0.006-0.055c2.244,19.91,10.136,38.953,14.011,58.637
		c4.706,26.694,5.516,53.927,10.58,80.617c1.62,11.967,2.239,24.065,4.298,35.978
		C843.201,1681.744,844.326,1691.549,835.087,1690.026z"/>
	<path style="fill:#231F20;" d="M807.278,1645.128c0.253-6.348-3.924-19.507-0.654-24.047c3.447-1.268,1.73,3.747,2.568,5.555
		c-0.016-0.086-0.031-0.172-0.047-0.254c0.356,4.813,5.847,17.364,1.283,20.184C809.21,1647.063,807.582,1646.548,807.278,1645.128z
		"/>
	<path style="fill:#231F20;" d="M815.04,1618.727c0.018-3.017-3.169-10.9,0.44-12.004c3.034,0.395,2.361,7.326,4.033,9.816
		C820.772,1619.28,816.131,1621.972,815.04,1618.727z"/>
	<path style="fill:#231F20;" d="M819.948,1655.345c0.358-3.469-3.466-11.152,2.097-11.442c2.841,1.247,1.672,6.969,2.966,9.746
		C825.917,1656.813,820.665,1659.111,819.948,1655.345z"/>
	<path style="fill:#231F20;" d="M888.913,1818.526c-1.498-4.652-2.298-9.74-1.922-14.609c0.356-1.583,2.744-2.468,3.691-0.932
		c0.612,2.679,0.52,5.688,1.599,8.397c0.553,2.605,3.17,6.225,0.023,8.082C891.173,1820.107,889.417,1819.903,888.913,1818.526z"/>
	<path style="fill:#231F20;" d="M869.699,1843.354c-0.954-4.886-0.343-9.987-0.325-14.938c0.293-3.145,5.432-3.654,5.189-0.044
		c0.006-0.065,0.012-0.13,0.018-0.194c-1.077,5.123,4.331,13.934-0.909,16.985C872.112,1845.815,870.163,1845.131,869.699,1843.354z
		"/>
	<path style="fill:#231F20;" d="M888.353,1852.142c-0.073-3.148-0.254-6.344,0.289-9.457c0.487-3.916,6.734-3.348,5.222,0.805
		c0.003-0.008,0.006-0.016,0.009-0.023c-0.886,3.513,2.505,9.258-2.226,10.867C890.179,1854.721,888.437,1853.791,888.353,1852.142z
		"/>
	<path style="fill:#231F20;" d="M247.153,1644.472c-6.306-0.848-2.417-8.548-1.949-12.512c1.791-8.408,3.087-16.906,3.854-25.467
		c-0.008,0.089-0.015,0.179-0.021,0.268c0.013-0.168,0.027-0.336,0.043-0.504c-0.007,0.073-0.013,0.146-0.02,0.22
		c0.223-3.437,0.945-23.329,7.117-15.188c0,0,0,0,0.001-0.001C255.579,1599.87,257.279,1644.421,247.153,1644.472z"/>
	<path style="fill:#231F20;" d="M236.476,1692.448c-5.499-0.753-2.28-7.569-1.402-10.945c2.632-6.771,2.953-15.145,7.542-20.874
		c1.561-1.462,4.36-0.422,4.232,1.831c-0.448,1.959-1.592,3.704-1.791,5.802C242.505,1674.005,243.52,1691.978,236.476,1692.448z"/>
	<path style="fill:#231F20;" d="M278.792,1638.287c-5.521-0.808-1.837-7.317-1.105-10.644c1.738-5.392,2.633-11.171,5.113-16.274
		c1.462-3.156,6.443-1.333,3.851,1.776C283.979,1618.678,285.325,1638.813,278.792,1638.287z"/>
	<path style="fill:#231F20;" d="M267.867,1664.254c-5.114-0.53-2.933-6.258-1.595-9.328c1.951-3.549,1.669-11.164,6.926-11.126
		c4.263,1.28,0.871,6.346,0.558,9.24C272.665,1656.986,273.49,1664.038,267.867,1664.254z"/>
	<path style="fill:#231F20;" d="M250.926,1729.685c-5.824-1.943-0.649-9.064,0.183-12.926c3.138-9.41,6.244-18.83,9.7-28.129
		c1.125-6.969,10.493-4.854,5.237,0.887C263.003,1696.079,258.292,1732.313,250.926,1729.685z"/>
	<path style="fill:#231F20;" d="M223.674,1776.604c-5.622-1.97-0.187-8.752,0.554-12.488c-0.002,0.006-0.005,0.013-0.007,0.019
		c2.935-4.876,2.317-15.673,8.663-16.925c2.072,0.116,2.581,2.794,1.302,4.15C231.663,1757.406,231.477,1776.407,223.674,1776.604z"
		/>
	<path style="fill:#231F20;" d="M233.717,1723.548c-1.586-0.281-2.484-2.043-1.957-3.535c1.852-3.133,1.736-9.927,6.308-9.969
		c1.71,0.292,2.341,2.314,1.586,3.737C238.095,1716.976,238.531,1723.76,233.717,1723.548z"/>
	<path style="fill:#231F20;" d="M324.627,1664.993c-5.405-0.75-1.697-6.899-0.922-10.055c1.465-2.682,4.302-23.646,8.73-17.809
		c-0.001-0.005-0.002-0.01-0.004-0.014c-1.31,8.081-2.922,16.153-3.758,24.323C328.455,1663.368,326.566,1665.043,324.627,1664.993z
		"/>
	<path style="fill:#231F20;" d="M298.751,1722.735c-6.912-2.25,2.395-14.733,2.436-19.938c2.142-4.304,0.527-14.836,7.266-14.177
		c4.267,1.325-1.495,13.969-1.478,17.954C304.686,1711.605,306.03,1722.558,298.751,1722.735z"/>
	<path style="fill:#231F20;" d="M292.372,1699.402c-6.158-2.143-0.451-9.835,0.042-14.113c1.84-6.315,3.133-12.77,4.626-19.172
		c2.649-10.972,5.423-21.921,7.695-32.98c0.796-2.401,0.608-8.181,4.32-7.321c0.645,0.352,0.843,1.034,0.744,1.695
		c0.006-0.004,0.012-0.007,0.018-0.011C307.966,1636.457,302.17,1703.003,292.372,1699.402z"/>
	<path style="fill:#231F20;" d="M269.773,1775.097c-7.744-1.905,1.218-12.64,1.773-17.453c-0.059,0.152-0.113,0.305-0.168,0.457
		c3.058-4.611,6.241-29.345,12.276-26.618c3.184,0.25-4.434,19.213-4.728,22.806
		C276.223,1759.565,276.334,1774.486,269.773,1775.097z"/>
	<path style="fill:#231F20;" d="M244.64,1841.854c-5.772-1.743-0.965-8.199,0.441-11.621c3.411-5.941,4.43-13.61,8.862-18.77
		c6.905-1.802,0.11,11.02-0.162,14.09C250.902,1830.566,252.03,1841.646,244.64,1841.854z"/>
	<path style="fill:#231F20;" d="M211.809,1831.298c-5.005-3.339,2.199-10.018,2.66-14.469c2.11-3.58,1.967-12.685,7.163-12.567
		c3.262,2.075-1.871,10.138-1.955,13.665C217.84,1822.172,218.208,1831.969,211.809,1831.298z"/>
	<path style="fill:#231F20;" d="M289.358,1830.245c-5.584-1.891,1.267-9.059,2.152-12.523c1.647-2.397,2.163-7.349,5.162-8.052
		c0.165,3.51-2.508,7.858-2.944,11.736c0.01-0.044,0.019-0.088,0.029-0.134c-0.019,0.093-0.04,0.185-0.063,0.277
		c0.012-0.046,0.022-0.091,0.032-0.136C292.677,1824.311,293.398,1829.874,289.358,1830.245z"/>
	<path style="fill:#231F20;" d="M341.778,1672.02c0.619-4.732,5.401-20.658,9.83-22.095c2.327-0.293,2.755,2.961,0.989,4.009
		c-1.899,5.814-4.017,11.692-4.694,17.797C347.693,1675.263,341.7,1676.105,341.778,1672.02z"/>
	<path style="fill:#231F20;" d="M325.98,1724.477c-5.552-1.746,0.745-12.586,2.016-16.299c-1.884,0.613-0.084-1.882,0.254-2.564
		c-0.007,0.01-0.013,0.02-0.019,0.031c6.494-12.734,3.147,6.754,1.786,10.495C329.056,1718.958,330.074,1724.24,325.98,1724.477z"/>
	<path style="fill:#231F20;" d="M284.613,1883.873c-3.175-4.18,1.036-9.588,1.894-14.008c6.453-20.159,13.684-40.058,20.395-60.129
		c3.572-8.488,5.446-27.98,14.034-31.802c2.493,0.184,3.638,3.909,1.249,5.142c-6.553,27.296-13.106,54.601-22.561,81.105
		C296.201,1870.135,294.986,1890.391,284.613,1883.873z"/>
	<path style="fill:#231F20;" d="M289.182,1878.205c-8.505-2.209,3.829-22.297,4.518-28.496c4.938-13.854,9.814-27.773,12.944-42.173
		c-0.023,0.101-0.046,0.202-0.068,0.302c0.986-4.399,6.628-36.735,13.878-27.924c0.007-0.006,0.013-0.012,0.02-0.018
		c-6.424,26.286-9.332,52.864-19.771,78.402C297.312,1864.293,297.718,1877.892,289.182,1878.205z"/>
	<path style="fill:#231F20;" d="M316.448,1848.664c-7.281-3.105,2.598-14.653,3.277-20.063c-0.055,0.148-0.109,0.297-0.164,0.445
		c0.925-2.17,1.236-4.76,2.91-6.512c0,0,0,0,0,0c7.462-3.565,2.554,8.802,1.902,12.155
		C322.531,1839.282,323.163,1848.799,316.448,1848.664z"/>
	<path style="fill:#231F20;" d="M322.76,1878.544c-6.6-1.051,5.915-19.883,7.382-23.899c1.985-2.142,5.195,0.394,3.591,2.829
		c-1.316,1.881-1.739,4.258-2.616,6.37C328.46,1867.981,328.621,1878.399,322.76,1878.544z"/>
	<path style="fill:#231F20;" d="M353.545,1855.49c-5.441-2.785,1.819-10.092,2.725-14.136c1.04-1.325,0.944-4.863,3.173-4.411
		C361.57,1838.371,357.846,1857.682,353.545,1855.49z"/>
	<path style="fill:#231F20;" d="M370.796,1876.113c-4.804-1.818,3.493-11.112,3.809-14.837c0.105-0.725,0.907-1.453,1.675-1.05
		c1.203,2.614-1.364,6.262-1.488,9.203c0.02-0.086,0.039-0.172,0.059-0.258C374.09,1871.634,374.49,1876.416,370.796,1876.113z"/>
	<path style="fill:#231F20;" d="M298.093,1540.492c-1.383-2.572-2.843-5.103-4.258-7.656c-1.3-1.674-1.31-4.76,1.36-4.848
		c3.142,1.913,5.546,5.741,7.934,8.699C305.11,1539.599,300.217,1543.644,298.093,1540.492z"/>
	<path style="fill:#231F20;" d="M315.406,1534.392c-3.487-1.485-3.585-6.522-5.543-9.445c-1.206-0.331-1.541-1.753-1.046-2.817
		c-0.007,0.018-0.013,0.036-0.02,0.054C312.783,1514.556,325.508,1534.979,315.406,1534.392z"/>
	<path style="fill:#231F20;" d="M332.398,1526.296c-0.217-4.455,1.098-8.801,2.773-12.867c-0.056,0.104-0.108,0.209-0.163,0.313
		c0.001-0.004,0.002-0.008,0.003-0.012c-0.004,0.018-0.015,0.034-0.023,0.051c0.008-0.011,0.014-0.021,0.018-0.033
		c-0.014,0.05-0.029,0.1-0.043,0.15c2.007-4.094,6.03-1.291,4.615,2.555c0.012-0.133,0.023-0.266,0.035-0.395
		c-0.48,3.868,0.688,8.32-1.261,11.828C336.643,1530.393,332.307,1529.643,332.398,1526.296z"/>
	<path style="fill:#231F20;" d="M361.163,1528.572c-4.532-2.413,0.521-7.965,1.941-11.031c1.232-2.509,4.499-6.458,7.063-3.133
		c-0.055-0.076-0.112-0.149-0.17-0.224c1.912,2.929-1.535,5.634-2.516,8.276C366.098,1524.979,364.94,1529.681,361.163,1528.572z"/>
	<path style="fill:#231F20;" d="M559.234,1488.429c-1.27-1.953-3.644-4.542-2.317-6.945c0.994-1.972,4.353-2.051,4.698,0.411
		c0.736,1.34,2.501,1.99,2.681,3.624C564.709,1488.091,561.177,1490.543,559.234,1488.429z"/>
	<path style="fill:#231F20;" d="M579.214,1486.212c-4.257-1.089-1.477-5.984-0.87-8.771c-0.462-2.249,1.498-4.654,3.812-4.592
		C587.76,1473.086,584.152,1487.442,579.214,1486.212z"/>
	<path style="fill:#231F20;" d="M598.089,1486.315c-4.162-0.951,0.852-11.158,3.933-10.164
		C606.39,1477.007,602.054,1488.082,598.089,1486.315z"/>
	<path style="fill:#231F20;" d="M557.774,1724.145c-3.562-1.935-7.99-3.859-10.059-7.476c-0.203-6.388,6.464-1.938,9.407-0.43
		c-0.044-0.019-0.088-0.039-0.133-0.058c2.543,1.054,6.764,2.151,5.132,5.774C561.447,1723.552,559.504,1724.783,557.774,1724.145z"
		/>
	<path style="fill:#231F20;" d="M569.426,1718.277c-2.051-1.5-1.392-4.664-2.091-6.88c-0.475-2.891-1.625-5.751-1.413-8.713
		c0.518-3.136,5.003-2.401,4.07,0.855c-0.004-0.098-0.012-0.195-0.016-0.289C570.4,1707.594,578.552,1719.217,569.426,1718.277z"/>
	<path style="fill:#231F20;" d="M584.477,1722.182c-6.965-1.371,3.962-17.887,7.085-19.657c3.18-0.877,4.476,3.459,2.144,5.242
		C590.649,1712.114,590.924,1721.832,584.477,1722.182z"/>
	<path style="fill:#231F20;" d="M598.962,1726.053c-4.651-4.116,3.528-9.156,5.394-12.895c0.655-1.434,1.901-2.863,3.669-2.534
		c4.468,1.543,0.069,6.19-1.293,8.59C604.692,1721.813,603.333,1727.872,598.962,1726.053z"/>
	<path style="fill:#231F20;" d="M420.026,1821.579c-2.561-2.992-12.476-9.43-5.446-12.512c0.833-0.137,1.756,0.293,2.137,1.049
		c2.457,2.539,5.69,4.17,8.012,6.865C427.148,1819.76,422.744,1824.325,420.026,1821.579z"/>
	<path style="fill:#231F20;" d="M430.794,1814.072c-1.619-3.925-4.096-10.884-2.279-14.699c3.661,1.776,5.059,7.416,7.565,10.71
		C438.106,1813.172,433.066,1817.363,430.794,1814.072z"/>
	<path style="fill:#231F20;" d="M446.208,1815.971c-6.704-1.284,1.308-16.24,5.952-14.984c3.81,1.376,0.311,5.375,0.114,7.988
		C451.561,1812.043,450.204,1816.567,446.208,1815.971z"/>
	<path style="fill:#231F20;" d="M462.883,1818.595c-3.181-2.953,0.83-6.408,3.196-8.296c1.631-1.528,4.155-5.055,6.089-1.867
		C473.215,1811.753,466.833,1821.721,462.883,1818.595z"/>
	<path style="fill:#231F20;" d="M748.261,1786.628c-3.382-2.382-6.002-5.674-8.473-8.949c0.061,0.094,0.139,0.173,0.222,0.245
		c-1.244-1.239-0.871-3.253,0.501-4.288c3.498-2.225,5.091,3.37,8.116,4.412c1.893,1.448,5.086,2.648,5.118,5.393
		C753.751,1786.064,750.562,1788.322,748.261,1786.628z"/>
	<path style="fill:#231F20;" d="M756.987,1777.508c-2.803-1.562-6.088-14.926,0.312-12.949c1.786,2.302,2.122,5.747,3.787,8.367
		C762.153,1775.347,759.526,1778.375,756.987,1777.508z"/>
	<path style="fill:#231F20;" d="M769.17,1781.112c-4.825-1.397-1.201-7.066-0.055-10.035c1.67-2.558,1.378-7.544,5.23-7.711
		c2.183,0.024,3.088,2.679,1.952,4.342C774.46,1771.973,775.46,1781.141,769.17,1781.112z"/>
	<path style="fill:#231F20;" d="M783.476,1785.522c-3.417-3.153,0.973-6.605,3.149-8.912c2.334-2.113,4.221-6.758,7.94-5.964
		c2.585,0.941,2.054,4.674-0.126,5.779C791.099,1779.317,789.127,1788.507,783.476,1785.522z"/>
	<path style="fill:#231F20;" d="M1021.873,1607.306c-45.735-5.117-60.628-44.99-38.874-83.266
		c17.842-29.25,57.075-32.885,87.166-23.127c31.139,9.159,36.559-3.905,59.688-19.979c21.69-13.901,51.879-21.954,74.797-6.467
		c15.214,9.377,34.7,16.592,51.353,6.587c23.716-12.734,58.936-34.263,82.655-11.473c-0.025-0.023-0.05-0.047-0.074-0.071
		c11.132,10.375,28.558,14.474,42.89,8.961c13.641-3.76,28.475-1.143,41.231,4.48c39.333,18.572,45.043,69.457,3.229,89.152
		c-55.673,33.023-92.854-31.808-140.546,11.3c-17.445,12.955-41.988,19.041-62.086,8.669c-11.644-5.367-21.884-16.162-35.476-15.701
		c-13.139,1.043-23.914,9.516-35.645,14.662c-20.442,7.801-40.886-8.198-61.688-5.11c-6.374,1.011-11.36,6.42-17.569,7.293
		C1058.572,1604.595,1040.096,1610.266,1021.873,1607.306z M1041.064,1592.396c21.142,0.376,35.827-19.452,56.348-19.877
		c18.659-1.123,37.871,13.467,55.825,4.982c-0.27,0.129-0.539,0.262-0.805,0.395c0.605-0.297,1.215-0.594,1.824-0.895
		c-0.27,0.133-0.535,0.262-0.805,0.395c70.471-43.926,67.645,43.008,137.419-11.66c12.339-8.522,28.144-10.265,42.76-8.784
		c-0.103-0.011-0.205-0.021-0.307-0.032c0.258,0.026,0.516,0.053,0.773,0.078c-0.044-0.004-0.087-0.008-0.131-0.012
		c0.076,0.008,0.152,0.016,0.228,0.023c-0.053-0.005-0.106-0.01-0.159-0.015c20.389,1.385,38.593,14.058,59.293,12.351
		c38.61-1.423,70.384-35.846,35.895-68.099c0.075,0.07,0.15,0.141,0.226,0.212c-30.908-25.235-46.145-4.484-75.332-11.456
		c-23.383-5.071-23.821-24.628-50.694-18.14c-28.642,4.299-52.053,33.547-82.607,21.871c-17.698-5.111-32.706-20.608-52.412-16.499
		c-37.262,5.205-49.88,35.623-76.774,38.186c-18.794,1.094-36.515-7.786-55.27-6.77c-28.214,0.005-48.072,20.806-47.693,48.888
		c1.403,22.868,24.12,33.458,44.47,34.861c-0.348-0.035-0.695-0.07-1.039-0.105
		C1035.097,1592.476,1038.065,1592.504,1041.064,1592.396z"/>
	<path style="fill:#231F20;" d="M1130.001,1511.517c0.001,0.002,0.001,0.004,0.002,0.006c-0.171-0.268-0.279-0.582-0.312-0.891
		c0,0,0,0.001-0.001,0.001c0-0.004,0-0.004,0-0.004c0,0,0,0.001,0,0.001c4.255-11.256,28.723-20.2,40.319-19.99
		c3.411,0.492,7.991-0.24,10.47,2.54c1.857,2.982-0.869,7.147-4.274,7.055c-14.441-1.346-31.018,1.195-42.286,10.823
		C1133.148,1512.444,1130.938,1513.017,1130.001,1511.517z"/>
	<path style="fill:#231F20;" d="M1210.664,1508.926c-3.163-1.324-11.101-4.162-5.988-8.118c3.617-0.775,12.659-0.695,11.274,5.011
		C1215.343,1507.927,1212.873,1509.783,1210.664,1508.926z"/>
	<path style="fill:#231F20;" d="M1128.033,1562.739c-23.13-3.068-23.778-23.548-15.133-15.435c-0.061-0.057-0.123-0.115-0.187-0.171
		c13.538,11.669,32.855,7.071,48.397,2.602c3.255-0.734,8.107-5.258,10.529-1.063
		C1173.668,1559.519,1136.006,1564.087,1128.033,1562.739z"/>
	<path style="fill:#231F20;" d="M1189.813,1546.876c-1.674-2.99,5.061-5.94,7.304-5.759c3.673,2.071-0.137,5.859-3.203,5.587
		c0.102-0.02,0.207-0.039,0.309-0.059C1192.718,1546.728,1191.023,1548.659,1189.813,1546.876z"/>
	<path style="fill:#231F20;" d="M1334.312,1513.543c-21.499-7.069-39.364-19.517-61.969-6.605c0.09-0.043,0.18-0.086,0.27-0.129
		c-1.24,0.777-3.273,1.519-3.859-0.414c0.063-3.944,6.979-5.074,9.765-7.243c25.624-13.011,40.889,3.588,64.169,7.274
		c6.843,0.121,36.342-11.276,36.958-0.891c-0.292,1.978-2.16,3.802-4.216,3.7
		C1361.336,1506.582,1348.221,1516.184,1334.312,1513.543z"/>
	<path style="fill:#231F20;" d="M1381.717,1556.694c-6.047-0.745-25.268-2.98-21.341-12.085c1.321-2.204,4.368-3.431,6.583-1.751
		c15.853,12.914,57.726-1.214,40.206-24.269c-1.97-2.87-9.978-5.224-8.68-8.719c0.561-1.279,2.169-2.16,3.452-1.483
		c17.496,2.996,23.835,22.583,12.423,35.796C1406.342,1553.052,1393.458,1557.008,1381.717,1556.694z"/>
	<path style="fill:#231F20;" d="M1324.167,1541.979c0.045,0.03,0.09,0.06,0.135,0.09c-7.664-3.414-16.312,0.156-24.078-0.651
		c-9.034-12.062,19.097-7.326,24.289-5.294C1329.865,1537.078,1329.277,1543.503,1324.167,1541.979z"/>
	<path style="fill:#231F20;" d="M1024.657,1573.109c-25.23-6.289-20.134-34.451,0.177-43.5c2.44-0.658,7.431-4.533,8.648-0.77
		c0.472,3.514-11.594,4.723-14.542,12.653c-6.474,10.302-0.656,18.61,9.961,21.921
		C1033.779,1566.181,1029.764,1574.186,1024.657,1573.109z"/>
	<path style="fill:#231F20;" d="M1665.837,1680.793c-38.526-0.129-65.313-48.854-105.711-30.675
		c0.112-0.038,0.224-0.075,0.336-0.114c-0.264,0.088-0.52,0.175-0.781,0.262c0.031-0.01,0.063-0.021,0.094-0.031
		c-0.046,0.016-0.092,0.031-0.139,0.047c0.028-0.009,0.056-0.018,0.084-0.028c-15.205,5.8-29.275,14.377-44.457,20.26
		c1.818,1.643-0.618,5.006-2.777,3.754c-21.293,5.712-46.336,3.995-65.012-8.372c-6.83-3.572-17.064-9.867-14.995-18.804
		c-13.979-28.651,14.196-55.729,42.024-57.719c21.791-3.883,43.253,5.665,65.002,2.649c34.634-4.146,31.268-35.596,58.989-50.85
		c-0.219,0.148-0.438,0.293-0.656,0.438c21.69-14.687,50.867-15.725,74.284-4.525c-0.019-0.009-0.038-0.017-0.057-0.026
		c0.198,0.087,0.396,0.174,0.594,0.262c-0.004-0.002-0.008-0.003-0.012-0.005c16.04,6.434,28.066,21.316,46.483,21.706
		c23.788,4.006,43.159-13.389,66.049-15.561c32.343-3.561,79.241,18.085,75.935,55.672c-5.532,32.632-41.636,47.196-71.623,43.078
		c-22.443-0.523-51.177-18.845-67.994,4.048c0.038-0.042,0.075-0.083,0.113-0.125c-0.023,0.025-0.046,0.05-0.068,0.074
		c0.184-0.203,0.367-0.406,0.551-0.609c-0.345,0.38-0.688,0.762-1.03,1.144c0.038-0.043,0.075-0.085,0.112-0.128
		c-0.183,0.204-0.364,0.41-0.547,0.613c0.022-0.024,0.044-0.049,0.066-0.073C1707.483,1664.627,1689.389,1682.09,1665.837,1680.793z
		 M1672.467,1668.825c18.24-1.619,30.792-15.48,41.674-28.802c23.428-31.504,62.368-5.87,93.673-8.971
		c19.773-0.491,41.406-13.456,43.927-34.397c-0.08-25.44-29.311-39.365-51.156-43.139c-25.096-4.376-45.483,14.643-69.651,15.959
		c-36.15,3.411-46.103-20.358-76.969-28.005c-22.439-5.541-47.469,1.786-63.125,18.864c-11.024,13.159-16.703,31.923-34.271,38.162
		c-24.386,11.862-50.577,0.844-76.013,1.86c-28.485,0.788-52.322,22.941-32.165,50.319c18.567,13.553,43.973,14.118,65.312,6.894
		c42.195-17.251,68.109-37.079,111.098-6.663C1639.174,1660.34,1654.562,1669.914,1672.467,1668.825z"/>
	<path style="fill:#231F20;" d="M1494.524,1676.461c-22.548-3.396-58.023-15.02-60.384-41.448c0.627-2.824,4.965-1.901,3.073,0.827
		c3.087,6.048,6.686,11.98,12.482,15.809c-0.117-0.078-0.234-0.156-0.352-0.23c0.418,0.276,0.838,0.551,1.257,0.826
		c-0.005-0.003-0.01-0.006-0.015-0.01c29.308,17.108,51.364,23.534,81.56,4.048c2.916-1.662,7.465-4.167,9.452,0.042
		C1546.048,1666.608,1502.214,1678.475,1494.524,1676.461z"/>
	<path style="fill:#231F20;" d="M1515.129,1669.363c-2.819-5.899,28.836-17.403,33.995-21.724c4.884-1.472,15.089-9.369,18.459-3.09
		c0.5,1.865-0.524,4.146-2.258,5.017C1549.171,1657.114,1531.521,1663.928,1515.129,1669.363z"/>
	<path style="fill:#231F20;" d="M1703.463,1584.54c-16.509-0.495-29.084-12.22-43.489-18.71
		c-22.153-9.023-52.702-4.957-64.851,17.566c-0.004,0-0.004,0-0.004,0.004c-1.806,2.047-5.54,0.595-4.841-2.251
		c-0.009,0.02-0.017,0.04-0.026,0.059c0-0.004,0-0.004,0-0.004c8.003-17.064,25.985-28.483,44.939-28.137
		c-0.004,0-0.009,0-0.013,0.001c0.194-0.009,0.388-0.019,0.582-0.027c-0.003,0-0.006,0-0.009,0
		c17.488-1.541,34.319,6.411,48.231,16.312c-0.03-0.02-0.06-0.039-0.09-0.059c7.4,6.016,16.554,7.13,25.505,8.772
		C1713.924,1582.099,1707.943,1586.139,1703.463,1584.54z"/>
	<path style="fill:#231F20;" d="M1732.239,1584.75c-2.21-0.596-8.358,1.26-7.856-2.375c1.279-2.07,4.362-0.081,6.419-0.724
		c-0.042,0.001-0.083,0.002-0.126,0.005c11.898-0.953,23.463-4.682,34.816-8.199c-0.137,0.047-0.273,0.094-0.414,0.141
		c2.086-0.916,5.447-1.675,5.891,1.446C1773.192,1581.193,1737.103,1585.268,1732.239,1584.75z"/>
	<path style="fill:#231F20;" d="M1652.202,1644.616c-13.513-2.165-25.631-9.551-37.438-16.12c-2.999-2.074-9.008-2.593-7.539-7.563
		c2.269-6.684,9.8-2.649,13.738,0.129c7.244,4.592,15.185,7.918,22.752,11.918c19.49,9.875,38.268-3.231,53.697-14.432
		c3.029-2.533,16.729-9.384,16.931-2.487c-0.399,0.918-1.419,1.508-2.403,1.211c-4.168-0.952-7.938,2.547-10.988,4.953
		c0.008-0.007,0.017-0.015,0.025-0.022c-0.138,0.12-0.276,0.239-0.416,0.358c0.078-0.067,0.154-0.133,0.231-0.199
		C1687.487,1634.787,1671.64,1647.443,1652.202,1644.616z"/>
	<path style="fill:#231F20;" d="M1534.485,1631.114c-4.17-10.777,25.268-15.833,32.733-14.43c7.449,0.495,5.667,7.368,0.919,6.091
		c-9.156-1.535-18.966,2.219-26.771,6.896C1539.415,1631.094,1536.693,1633.447,1534.485,1631.114z"/>
	<path style="fill:#231F20;" d="M1479.596,1644.744c-11.173-0.115-28.568-13.475-19.735-24.872c3.094-0.833,0.109,4.342,3.571,7.044
		c-0.078-0.102-0.156-0.203-0.234-0.305c0.547,0.715,1.09,1.434,1.637,2.148c-0.033-0.042-0.066-0.084-0.099-0.127
		c0.137,0.18,0.273,0.36,0.411,0.537c-0.086-0.113-0.176-0.227-0.262-0.344c4.081,5.042,10.882,6.94,17.066,7.844
		C1487.099,1637.842,1484.213,1645.669,1479.596,1644.744z"/>
	<path style="fill:#231F20;" d="M1827.083,1607.092c-5.653-1.778-0.345-8.036-0.674-11.936
		c0.711-12.807-14.535-18.097-25.193-17.252c-1.133,0.156-2.047-0.77-2.023-1.879c0.799-6.026,26.273-0.629,28.214,4.582
		c4.305,4.369,7.101,9.919,5.926,16.165C1832.794,1600.623,1832.458,1607.598,1827.083,1607.092z"/>
	<path style="fill:#231F20;" d="M889.839,1236.366c-28.792-0.922-38.703-20.839-57.067-38.496c0.121,0.113,0.242,0.227,0.363,0.34
		c-13.196-11.627-19.606-11.28-34.828-4.331c-16.403,2.957-33.958,4.254-49.664-2.635c-28.595-14.459-30.064-54.376-10.749-77.172
		c10.483-12.177,26.005-18.893,41.405-22.371c25.456-5.527,49.965,4.059,74.575,9.093c13.678,0.917,28.841-1.135,36.553-13.75
		c14.804-18.111,35.038-33.32,59.458-32.6c39.698-4.712,55.684,27.475,93.575,26.217c30.694-3.427,48.375-34.323,78.702-38.976
		c-0.289,0.055-0.574,0.109-0.863,0.164c49.139-10.837,123.445,37.981,82.57,89.755c-15.534,18.914-41.434,14.679-61.816,23.777
		c-24.451,9.629-32.063,36.316-51.206,51.992c-26.995,22.087-63.206,1.823-86.496-16.392c-19.31-14.081-37.845-4.266-49.781,13.63
		C938.516,1223.003,915.539,1240.022,889.839,1236.366z M900.981,1224.283c27.736-0.867,43.599-26.114,61.701-43.301
		c20.554-15.309,42.975-6.134,60.388,8.909c20.484,13.279,51.394,24.823,68.891,1.002c26.744-39.703,40.872-48.423,87.989-56.956
		c43.959-17.296,17.788-67.743-18.182-76.071c-20.76-7.7-44.639-6.019-63.071,6.697c-10.297,7.058-19.018,16.644-30.838,21.259
		c-30.993,16.612-61.197,2.072-88.056-15.055c-32.464-12.809-64.01-3.549-83.927,25.194c-9.681,14.757-29.093,17.297-45.423,16.53
		c-25.886-4.539-52.446-15.846-78.61-6.25c-53.245,15.777-43.51,87.986,15.575,78.549c10.133,0.093,17.992-6.815,27.421-9.066
		C853.332,1177.001,857.782,1227.794,900.981,1224.283z"/>
	<path style="fill:#231F20;" d="M883.422,1209.147c-26.69-2.085-32.463-26.769-52.418-38.848c0.164,0.109,0.328,0.219,0.492,0.328
		c-8.645-5.615-19.548-9.075-29.848-7.008c0.105-0.02,0.215-0.039,0.32-0.059c-26.483,12.252,4.687-24.613,46.324,6.59
		c12.798,12.432,22.133,28.515,42.167,29.142c5.174,1.523,14.43-4.912,16.377,2.419
		C906.249,1211.362,890.316,1209.74,883.422,1209.147z"/>
	<path style="fill:#231F20;" d="M921.602,1184.048c-0.176-0.629,0.195-1.223,0.699-1.559c2.956-2.557,4.531-6.162,6.667-9.346
		c-0.042,0.061-0.085,0.123-0.128,0.186c0.191-0.277,0.383-0.559,0.578-0.836c-0.098,0.141-0.195,0.285-0.293,0.426
		c3.97-4.883,7.864-10.896,14.265-12.641c3.303-0.96,9.061-3.098,9.793,2.012c0.452,6.581-7.78,5.65-11.71,8.327
		C937.338,1172.376,924.559,1186.92,921.602,1184.048z"/>
	<path style="fill:#231F20;" d="M1031.662,1116.67c-18.053-1.235-31.384-13.943-46.739-21.675
		c-19.321-7.319-47.101-13.26-62.664,4.022c-2.629,5.056-8.479-0.01-4.075-3.574c22.262-25.328,65.458-19.593,89.636,0.181
		c8.34,5.04,16.963,9.65,26.67,11.355C1040.647,1108.412,1037.26,1117.765,1031.662,1116.67z"/>
	<path style="fill:#231F20;" d="M1064.262,1104.18c-0.074-0.633,0.387-1.336,1.023-1.477c5.977-2.1,11.971-4.319,17.684-7.109
		c-0.133,0.063-0.266,0.129-0.398,0.191c12.407-7.684,20.743-21.484,35.219-26.393c5.746-1.349,20.734-8.6,21.855,0.916
		c-0.771,9.466-16.963,5.142-23.552,10.437c-9.788,4.694-17.018,13.334-26.37,18.717
		C1083.476,1101.552,1069.699,1106.371,1064.262,1104.18z"/>
	<path style="fill:#231F20;" d="M1175.176,1100.503c0.63-5.035-2.547-11.571-7.699-12.789c0.046,0.005,0.092,0.009,0.138,0.014
		c-3.542-0.608-1.602-6.002,1.524-5.143c-0.051-0.013-0.103-0.026-0.154-0.039c7.699,1.566,16.01,8.358,15.328,16.871
		C1184.545,1104.989,1175.266,1106.981,1175.176,1100.503z"/>
	<path style="fill:#231F20;" d="M1057.193,1174.428c-4.014-0.082-4.821-5.414-2.109-7.738c2.603-2.456,6.571-1.012,9.681-2.351
		c9.388-3.159,17.223-9.146,24.013-16.22c7.877-8.242,17.143-15.163,28.13-18.628c3.148-0.59,10.33-4.291,11.391,0.311
		c-0.112,3.015-3.28,2.745-5.462,2.922c-5.157,1.489-9.97,3.978-14.484,6.853c0.056-0.037,0.112-0.074,0.168-0.112
		c-0.043,0.029-0.087,0.058-0.13,0.086c0.024-0.016,0.048-0.032,0.072-0.049c-0.126,0.083-0.252,0.167-0.379,0.25
		c0.026-0.017,0.051-0.033,0.077-0.05C1092.118,1152.299,1080.266,1174.395,1057.193,1174.428z"/>
	<path style="fill:#231F20;" d="M757.271,1134.648c-1.963-8.774,19.516-21.08,26.913-20.251c4.79,4.359-1.532,7.479-5.681,7.964
		c-5.989,2.365-12.621,4.605-17.021,9.518C761.359,1133.913,759.355,1137.019,757.271,1134.648z"/>
	<path style="fill:#231F20;" d="M1318.52,705.371c-36.922,3.783-57.498-34.34-91.239-40.848
		c-11.917-1.886-20.557,7.712-30.964,11.688c-12.135,4.521-25.092,7.26-38.078,7.106c-40.233,0.494-78.684-35.868-52.875-75.246
		c-0.034,0.048-0.067,0.096-0.1,0.144c0.272-0.395,0.545-0.789,0.819-1.183c-0.16,0.227-0.316,0.457-0.477,0.684
		c0.399-0.573,0.794-1.15,1.192-1.724c-0.112,0.162-0.222,0.323-0.333,0.485c23.142-31.5,54.032-30.051,88.625-22.982
		c10.501,0.989,22.747-0.805,29.643-9.574c17.758-23.591,45.191-44.988,76.397-39.963c13.117,3.061,24.142,11.614,37.346,14.593
		c14.674,5.272,28.563-0.834,40.692-9.072c18.133-9.897,37.947-17.397,58.793-18.127c53.138-4.166,97.212,50.283,68.506,99.282
		c-20.879,26.991-42.354,25.483-72.361,17.815c-10.983-0.787-22.736,2.83-29.906,11.496
		C1384.724,679.4,1355.752,705.283,1318.52,705.371z M1322.071,694.886c74.329-4.366,62.462-81.691,131.578-62.101
		c49.189,11.58,70.089-54.869,35.302-84.188c-17.208-17.234-42.885-21.453-66.109-16.723
		c-43.907,7.108-56.836,42.115-104.407,18.301c-21.807-14.602-49.398-7.054-67.938,9.412c-11.19,8.853-17.506,23.256-30.429,29.871
		c-26.724,13.251-57.314-9.017-83.904,4.863c-22.172,9.328-39.702,39.289-19.759,59.23c20.24,19.821,51.01,19.686,76.511,11.539
		c4.002-4.469,10.87-5.675,16.265-8.038c-0.23,0.074-0.457,0.152-0.684,0.227c3.838-1.428,7.717-2.714,11.777-3.32
		c-0.242,0.047-0.488,0.094-0.73,0.141C1259.963,647.581,1281.568,699.924,1322.071,694.886z"/>
	<path style="fill:#231F20;" d="M1292.434,666.976c-29.358-6.3-36.474-24.95-73.349-25.794c0.058,0.006,0.116,0.011,0.173,0.017
		c-0.127-0.012-0.253-0.025-0.379-0.039c0.047,0.006,0.094,0.011,0.142,0.016c-8.53-1.118-16.878,1.536-24.556,5.047
		c-3.057,2.393-5.942-0.15-2.141-1.952c-0.008,0.003-0.015,0.007-0.023,0.01c10.96-6.335,22.832-10.152,35.59-8.659
		c12.321,0.768,25.71,2.346,36.316,9.088c9.241,6.114,19.265,11.419,30.004,14.294
		C1298.966,660.055,1296.76,667.295,1292.434,666.976z"/>
	<path style="fill:#231F20;" d="M1318.369,666.386c-3.813-0.848-1.77-6.261,1.641-5.317c12.425-1.496,27.353-4.848,34.024-16.508
		c2.353-3.888,4.364-8.009,7.851-11.057c4.196-4.425,10.417,1.526,6.464,6.059C1357.105,659.388,1341.166,668.018,1318.369,666.386z
		"/>
	<path style="fill:#231F20;" d="M1381.698,623.868c-5.946-4.954,21.872-21.803,23.054-12.575c-0.125,7.04-11.663,5.239-16.199,9.025
		C1385.892,620.875,1384.57,625.061,1381.698,623.868z"/>
	<path style="fill:#231F20;" d="M1341.039,581.368c-15.938-2.466-30.243-12.236-46.701-11.506
		c-5.477,0.095-10.572,2.335-15.474,4.292c-3.427-0.377-2.137-4.974,0.68-5.313c-0.019,0.01-0.038,0.019-0.057,0.029
		c9.856-5.251,21.218-6.733,32.178-4.821c10.735,3.054,21.64,5.933,32.055,9.936C1347.934,575.68,1345.074,582.137,1341.039,581.368
		z"/>
	<path style="fill:#231F20;" d="M1365.919,573.37c-4.362,0.329-4.417-5.17-0.278-4.527c15.11-0.831,24.865-12.834,37.984-18.318
		c1.86-0.616,3.883,0.595,4.38,2.435c1.145,5.384-5.6,6.109-8.898,8.418C1388.858,567.511,1378.472,574.482,1365.919,573.37z"/>
	<path style="fill:#231F20;" d="M1455.181,618.087c-4.594-0.848-26.185-0.326-23.453-7.44c1.985-8.656,19.571,5.011,32.668-0.743
		c-0.008,0.003-0.016,0.005-0.024,0.008c4.329-1.302,8.161-3.664,11.438-6.754c-0.16,0.133-0.316,0.27-0.477,0.406
		c21.012-15.251,7.978-37.593-10.844-47.203c0.023,0.01,0.045,0.019,0.068,0.029c-7.205-3.186-15.934-5.559-23.623-2.944
		c-2.54,0.945-2.995-2.981-0.668-3.492c22.455-8.315,53.318,5.559,54.785,31.141C1495.92,601.729,1474.848,618.49,1455.181,618.087z
		"/>
	<path style="fill:#231F20;" d="M1125.467,637.033c-6.786-8.806-4.735-26.063,6.591-29.851c-0.063,0.003-0.125,0.005-0.189,0.007
		c3.749-0.443,2.894,5.307-0.358,5.035c-6.635,7.769-2.176,14.414,1.551,21.675C1133.152,637.604,1127.859,640.504,1125.467,637.033
		z"/>
	<path style="fill:#231F20;" d="M713.478,1048.856c0.008,0.004,0.015,0.008,0.023,0.012c-0.213-0.083-0.415-0.198-0.605-0.33
		c0.018,0.01,0.036,0.02,0.054,0.029c-0.139-0.104-0.269-0.228-0.388-0.374c0.073,0.135,0.204,0.218,0.311,0.328
		c-3.147-7.883,0.886-18.175,1.038-26.735c1.791-14.1,2.825-28.296,5.193-42.32c4.628-36.783,10.229-71.975,54.657-74.85
		c9.209-0.747,14.434-3.495,16.545-12.888c3.306-9.139,6.423-18.358,8.519-27.857c6.486-25.376,8.838-54.5,26.523-74.996
		c28.426-29.534,71.867-32.128,90.13,9.357c17.931,35.023,9.352,80.671,32.177,113.182c12.281,8.414,25.839-18.247,51.329-4.111
		c27.952,19.62,28.569,59.333,33.365,90.177c0.071,12.155,5.602,25.492,1.809,37.122c-2.514,3.615-8.937,2.573-8.709-2.329
		c0.259-10.199-1.657-20.337-2.414-30.488c-3.783-37.928-9.294-115.84-65.805-81.533c-33.949,8.543-35.65-70.637-41.043-92.551
		c-9.409-52.098-47.974-71.867-86.989-30.591c-15.111,23.327-15.908,52.914-23.609,79.066
		c-12.99,44.558-14.793,30.663-51.605,43.966c-25.217,12.07-25.346,81.349-33.439,108.393
		C718.485,1032.871,719.248,1050.611,713.478,1048.856z"/>
	<path style="fill:#231F20;" d="M832.723,838.284c-4.212-0.841,0.057-14.31,0.253-17.867c0.322-1.176,1.568-2.121,2.806-1.899
		c3.429,1.508-0.08,6.566,0.48,9.492c0.012-0.113,0.02-0.223,0.031-0.332C835.432,830.938,837.02,837.462,832.723,838.284z"/>
	<path style="fill:#231F20;" d="M847.404,814.796c-1.471-2.556-0.025-12.707,4.23-11.918c2.758,0.604,1.797,3.393,1.327,5.312
		C853.388,811.65,852.003,818.058,847.404,814.796z"/>
	<path style="fill:#231F20;" d="M848.643,847.764c-1.673-2.769,0.28-6.393-0.355-9.504c0.004,0.133,0.012,0.262,0.016,0.395
		c-0.198-2.715-1.175-7.485,2.809-7.672c3.396,0.554,2.036,5.367,2.911,7.855C854.917,842.598,854.406,851.47,848.643,847.764z"/>
	<path style="fill:#231F20;" d="M867.451,807.222c-0.259-2.875,0.124-5.795,0.875-8.57c0.58-2.59,4.787-2.143,3.945,0.703
		c-0.161,2.129,0.505,4.286,0.777,6.402C873.685,809.086,868.018,811.104,867.451,807.222z"/>
	<path style="fill:#231F20;" d="M869.475,832.908c-0.583-3.275-0.437-11.148,4.712-7.906c1.262,1.859,0.051,4.352,0.758,6.473
		C875.519,834.743,870.044,836.7,869.475,832.908z"/>
	<path style="fill:#231F20;" d="M870.79,868.82c0.226-4.868-3.602-14.365,3.769-15.164c5.464,0.521,2.309,9.823,3.408,13.801
		C878.214,871.507,871.423,873.493,870.79,868.82z"/>
	<path style="fill:#231F20;" d="M762.058,978.646c-4.912-0.801-1.576-7.304-1.274-10.461c1.032-2.733,1.043-8.921,5.023-8.505
		c2.607,1.354-0.081,4.718,0.149,6.945C765.164,970.526,767.857,978.057,762.058,978.646z"/>
	<path style="fill:#231F20;" d="M771.731,947.133c-1.6-2,0.941-11.62,4.116-11.078c2.356,0.567,1.147,3.427,1.116,5.121
		C777.467,944.348,775.743,950.127,771.731,947.133z"/>
	<path style="fill:#231F20;" d="M791.367,947.753c-1.841-3.528,1.19-7.839,1.197-11.637c-0.078-1.366,1.211-2.679,2.592-2.445
		c2.549,0.885,0.819,4.515,1.403,6.578C797.172,943.748,796.497,951.129,791.367,947.753z"/>
	<path style="fill:#231F20;" d="M778.252,977.463c0.227-5.632,1.746-11.289,4.73-16.094c-0.008,0.013-0.016,0.027-0.024,0.04
		c5.971-4.552,1.007,12.543,1.951,15.268C785.069,980.739,778.279,982.181,778.252,977.463z"/>
	<path style="fill:#231F20;" d="M771.288,1016.708c0.604-5.408-0.586-16.887,6.682-17.481c2.189,0.391,3.036,2.872,2.165,4.763
		c-1.142,3.468-0.396,7.482-0.516,11.137C779.943,1019.83,771.99,1022.134,771.288,1016.708z"/>
	<path style="fill:#231F20;" d="M806.488,987.482c-2.394-1.936,0.357-16.098,4.195-15.118c2.315,1.786-0.363,5.839,0.523,8.528
		C812.159,984.119,810.851,989.827,806.488,987.482z"/>
	<path style="fill:#231F20;" d="M827.749,991.518c0.938-3.799-2.336-11.46,2.796-12.59c3.36,0.391,1.669,8.676,2.799,11.528
		C833.917,994.04,827.908,995.758,827.749,991.518z"/>
	<path style="fill:#231F20;" d="M825.999,1025.758c0.141-4.427-2.088-13.886,4.652-13.856c4.584,1.738,1.333,8.682,2.236,12.551
		C833.087,1028.346,826.619,1030.246,825.999,1025.758z"/>
	<path style="fill:#231F20;" d="M923.662,968.753c0.422-4.292-1.58-14.443,3.991-15.352c1.224,0.219,1.825,1.528,1.47,2.661
		c-1.115,3.785-0.334,7.843-0.414,11.73C928.88,970.643,924.096,972.037,923.662,968.753z"/>
	<path style="fill:#231F20;" d="M938.877,949.916c-0.624-3.505-2.166-8.013,0.222-11.129c1.279-1.407,3.956-1.266,4.564,0.684
		c-0.012-0.044-0.024-0.089-0.036-0.134c0.651,2.135,0.722,4.456,1.243,6.641c-0.009-0.046-0.018-0.091-0.028-0.137
		c0.029,0.149,0.058,0.297,0.086,0.445c-0.003-0.019-0.007-0.037-0.01-0.056C946.901,950.175,940.754,954.69,938.877,949.916z"/>
	<path style="fill:#231F20;" d="M968.132,959.022c-2.979-3.614-1.734-9.532-3.54-13.863c-1.033-3.123,4.255-5.782,5.333-2.192
		C970.245,947.2,976.57,960.458,968.132,959.022z"/>
	<path style="fill:#231F20;" d="M965.696,987.922c0.992-4.205-1.642-13.409,4.257-14.063c1.364,0.247,2.138,1.758,1.685,3.044
		c-0.692,3.385,0.315,6.859,0.398,10.266C972.26,991.031,965.721,992.422,965.696,987.922z"/>
	<path style="fill:#231F20;" d="M940.493,1009.294c-4.222-20.277,11.025-19.328,6.444-10.898
		c-0.705,4.292,2.883,11.424-2.627,13.441C942.588,1012.296,940.649,1011.203,940.493,1009.294z"/>
	<path style="fill:#231F20;" d="M913.621,1027.184c-1.82-2.102-0.371-5.463-0.426-8.008c-0.007,0.095-0.017,0.189-0.025,0.281
		c-0.048-2.656,4.344-3.557,4.361-0.492C917.654,1022.054,919.077,1029.453,913.621,1027.184z"/>
	<path style="fill:#231F20;" d="M977.903,1016.269c-0.514-4.595,1.402-15.576,7.77-9.883c1.322,2.774-0.546,5.977-0.055,8.969
		C985.825,1020.061,978,1021.752,977.903,1016.269z"/>
	<path style="fill:#231F20;" d="M1726.392,1428.725c-6.29-5.737-3.417-26.262-5.873-35.269
		c-4.336-24.535-5.949-51.389-18.443-73.341c-14.097-18.094-40.015-15.168-58.59-25.347c-31.33-19.367-27.618-75.015-39.816-106.963
		c-24.105-64.096-82.662-37.332-91.575-117.132c0.051,0.274,0.102,0.547,0.152,0.816c-8.465-43.881-1.607-89.282-10.349-133.254
		c-3.209-24.859-6.209-49.799-16.59-72.902c-4.909-13.165-10.971-26.375-21.886-35.654c0.02,0.019,0.04,0.038,0.059,0.056
		c-36.509-36.511-94.849,5.292-109.37,44.667c-15.869,41.624-2.197,86.824-7.771,129.907c-4.831,56.409-52.219,74.73-63.517,120.508
		c-3.773,18.906-4.303,38.357-8.748,57.141c-8.753,38.511-36.537,67.51-63.743,94.413c-29.968,30.692-57.447,68.619-59.201,112.97
		c2.906,3.685-3.178,9.616-6.56,5.91c-3.053-5.521-1.408-12.518-1.2-18.566c6.036-56.484,48.463-98.066,85.321-137.501
		c18.286-19.787,31.21-44.696,34.941-71.511c3.09-19.42,3.591-39.581,10.695-58.113c15.437-36.192,54.622-59.663,59.042-101.102
		c6.977-60.866-16.93-131.187,37.316-177.116c39.355-35.963,89.799-39.389,116.771,12.462
		c11.387,23.604,19.983,48.647,22.516,74.838c4.254,25.99,8.294,51.986,8.562,78.383c2.302,35.347-0.786,74.024,16.715,106.028
		c10.663,18.596,32.47,25.151,48.958,37.285c24.318,18.611,34.592,49.034,39.047,78.277c-0.006-0.032-0.012-0.063-0.018-0.095
		c5.288,20.5,6.898,44.893,21.74,61.023c6.935,6.523,16.277,8.856,25.388,10.435c22.648,4.631,46.344,16.632,50.538,41.584
		c6.765,24.893,11.246,50.374,14.079,76.003C1736.262,1415.344,1739.836,1432.508,1726.392,1428.725z"/>
	<path style="fill:#231F20;" d="M1394.369,910.23c-1.647-8.845,0.809-18.863,7.609-24.922c6.334-1.146,2.009,5.432,1.055,8.266
		c0.055-0.148,0.109-0.297,0.164-0.445c-2.242,5-1.832,10.391-1.55,15.719C1401.904,912.952,1395.029,914.975,1394.369,910.23z"/>
	<path style="fill:#231F20;" d="M1390.75,962.236c-2.317-2.842-1.844-28.313,3.745-27.176c1.431,0.258,1.962,1.778,1.522,3.027
		C1394.88,942.92,1400.021,966.421,1390.75,962.236z"/>
	<path style="fill:#231F20;" d="M1427.99,930.711c-0.261-3.115-0.41-6.303,0.358-9.361c-0.006,0.029-0.012,0.058-0.018,0.088
		c0.835-2.547,1.097-7.304,4.746-6.961c1.438,0.258,2.223,1.84,1.762,3.188c-3.193,4.532,1.505,12.794-3.651,15.176
		C1429.748,933.224,1428.11,932.311,1427.99,930.711z"/>
	<path style="fill:#231F20;" d="M1419.211,1004.679c-1.059-0.816-1.279-2.093-1.293-3.348c0.003,0.043,0.005,0.086,0.008,0.128
		c0.119-5.816-1.481-22.07,7.144-21.512c4.172,1.805,0.475,6.113,0.477,9.19C1424.8,994.176,1428.573,1008.128,1419.211,1004.679z"
		/>
	<path style="fill:#231F20;" d="M1396.57,1032.521c0.584-4.641,1.138-14.673,7.738-13.661c5.041,2.616-0.791,8.518,0.056,12.739
		C1404.493,1036.355,1396.682,1038.059,1396.57,1032.521z"/>
	<path style="fill:#231F20;" d="M1365.388,997.513c0.501-4.971,1.272-19.713,8.398-18.38c3.548,2.96-2.017,7.455-1.308,11.368
		c-0.547,3.457,0.958,9.266-3.781,10.079C1366.898,1000.809,1365.339,999.362,1365.388,997.513z"/>
	<path style="fill:#231F20;" d="M1365.507,925.069c-4.567-0.782-1.493-7.008-1.262-10.016c0.943-2.805,0.621-8.761,5.004-7.914
		c3.049,1.579,0.528,5.835,0.575,8.477C1368.892,918.793,1370.092,924.771,1365.507,925.069z"/>
	<path style="fill:#231F20;" d="M1401.915,858.631c-6.58-0.498,2.023-19.662,6.929-15.758c2.701,2.413-0.673,5.094-1.784,7.358
		C1405.098,852.892,1406.266,858.461,1401.915,858.631z"/>
	<path style="fill:#231F20;" d="M1435.365,861.974c-0.207-4.438,0.713-8.775,2.492-12.832c0.527-1.406,2.277-2.387,3.73-1.879
		c3.531,1.711-0.01,5.74-0.314,8.391c-0.973,2.907,0.853,8.009-3.26,8.777C1436.554,864.618,1435.363,863.456,1435.365,861.974z"/>
	<path style="fill:#231F20;" d="M1461.708,926.663c-0.278-5.224-2.992-16.305,4.202-17.446c1.698,0.306,2.309,2.077,1.837,3.561
		c0.017-0.046,0.033-0.092,0.05-0.138c-2.533,5.114,4.329,13.745-2.304,16.543C1463.769,929.654,1461.923,928.552,1461.708,926.663z
		"/>
	<path style="fill:#231F20;" d="M1456.932,977.369c0.567-3.966,0.095-12.232,5.562-12.301c4.785,1.838-0.295,7.927,0.38,11.594
		C1462.966,980.287,1457.032,981.59,1456.932,977.369z"/>
	<path style="fill:#231F20;" d="M1502.268,1199.844c-0.125-5.538,0.358-11.122-0.637-16.605c-0.901-2.464,0.778-5.399,3.411-5.708
		c6.103-0.841,3.34,17.249,3.907,21.523C1509.072,1203.123,1502.402,1204.6,1502.268,1199.844z"/>
	<path style="fill:#231F20;" d="M1469.055,1208.79c0.371-5.724-1.287-23.229,6.776-23.145c5.617,1.94,0.156,8.872,0.784,13.027
		c-0.909,4.184,1.794,11.063-3.473,12.837C1471.307,1211.995,1469.201,1210.83,1469.055,1208.79z"/>
	<path style="fill:#231F20;" d="M1493.024,1149.591c-0.092-5.495-3.916-13.06,0.777-17.379c0,0,0,0,0.001,0
		c1.688-1.338,4.262-1.303,5.634,0.408c-0.043-0.057-0.087-0.113-0.131-0.17c1.933,4.396,0.601,10.124,1.872,15.004
		C1501.976,1152.311,1494.025,1155.255,1493.024,1149.591z"/>
	<path style="fill:#231F20;" d="M1487.636,1241.336c-0.589-4.748-1.552-24.399,7.239-16.743c-0.105,5.003-0.697,10.257-0.394,15.446
		C1494.664,1243.903,1488.278,1245.798,1487.636,1241.336z"/>
	<path style="fill:#231F20;" d="M1492.931,1288.63c1.152-5.67-3.349-16.171,3.741-18.481c6.931,0.034,1.949,13.155,2.784,17.707
		C1499.546,1291.831,1493.056,1293.27,1492.931,1288.63z"/>
	<path style="fill:#231F20;" d="M1442.948,1265.418c-0.025-6.006-1.981-21.909,5.018-23.86c1.255,0.227,1.946,1.61,1.54,2.79
		c-2.213,6.308-1.566,13.131-1.297,19.691C1448.719,1267.182,1443.534,1269.071,1442.948,1265.418z"/>
	<path style="fill:#231F20;" d="M1549.565,1219.213c-0.934-5.196-4.375-16.847,3.335-17.817c1.696,0.302,2.594,2.149,2.067,3.735
		c-1.168,3.742,0.195,7.743,0.742,11.496c-0.001-0.005-0.002-0.011-0.003-0.016
		C1556.86,1220.273,1550.917,1223.393,1549.565,1219.213z"/>
	<path style="fill:#231F20;" d="M1542.663,1292.612c0.152-5.197-3.296-15.741,3.378-17.532c5.037,1.245,0.79,8.581,2.093,12.332
		c0.146,2.61,1.125,6.43-2.256,7.341C1544.415,1295.149,1542.841,1294.217,1542.663,1292.612z"/>
	<path style="fill:#231F20;" d="M1312.084,1250.218c-5.609-1.661,2.084-13.127,2.784-17.047c1.132-3.073,5.939-1.705,4.493,1.559
		C1316.665,1238.497,1316.584,1249.631,1312.084,1250.218z"/>
	<path style="fill:#231F20;" d="M1326.127,1193.83c-6.258,0.076-1.828-16.22,3.593-14.41c3.719,0.739,3.061,4.958,1.65,7.488
		C1330.463,1189.724,1329.975,1193.915,1326.127,1193.83z"/>
	<path style="fill:#231F20;" d="M1353.831,1158.516c-1.221-5.395-2.882-18.947,5.531-18.095c3.55,2.381-1.238,5.835-0.345,9.002
		c-0.267,3.554,2.963,8.84-1.37,10.835C1356.184,1160.856,1354.163,1160.244,1353.831,1158.516z"/>
	<path style="fill:#231F20;" d="M1345.326,1220.08c-0.08-4.559,0.707-15.313,7.347-13.583c3.692,2.976-1.495,8.517-0.303,12.747
		C1352.516,1223.542,1345.45,1225.089,1345.326,1220.08z"/>
	<path style="fill:#231F20;" d="M1340.254,1288.109c1.108-5.863-3.301-21.901,2.971-24.169c1.799-0.274,3.12,1.499,2.733,3.188
		c-0.412,6.753,1.028,13.454,0.729,20.219C1346.837,1291.26,1340.346,1292.679,1340.254,1288.109z"/>
	<path style="fill:#231F20;" d="M1293.717,1291.634c-4.624-1.406-1.077-7.334-0.312-10.421c0.964-2.683,1.702-7.035,5.484-6.493
		c1.812,0.328,2.828,2.332,2.23,4.043C1298.795,1282.744,1299.692,1291.602,1293.717,1291.634z"/>
	<path style="fill:#231F20;" d="M1272.695,1272.815c-4.372-1.393-0.8-6.906-0.219-9.871c1.508-3.201,2.111-9.814,7.016-8.657
		c4.83,2.698-0.981,8.553-1.685,12.289C1276.876,1269.081,1276.262,1273.332,1272.695,1272.815z"/>
	<path style="fill:#231F20;" d="M1254.598,1344.915c-3.737-3.51,1.782-25.506,8.246-17.477c0.9,3.494-2.248,6.727-2.289,10.283
		C1261.053,1341.372,1259.38,1347.614,1254.598,1344.915z"/>
	<path style="fill:#231F20;" d="M1286.998,1374.136c0.592-5.291,2.699-20.245,10.022-18.852c5.799,3.16-1.178,9.826-1.657,14.307
		c-0.523,3.134-0.419,7.625-4.522,8.112C1288.789,1377.952,1286.868,1376.285,1286.998,1374.136z"/>
	<path style="fill:#231F20;" d="M1364.318,1343.336c-0.237-4.544-1.123-14.232,5.195-14.493c1.782,0.321,2.626,2.208,2.13,3.856
		c-0.966,2.722-1.296,5.574-1.082,8.449c-0.008-0.148-0.016-0.301-0.023-0.449
		C1371.849,1344.745,1365.429,1348.256,1364.318,1343.336z"/>
	<path style="fill:#231F20;" d="M1806.121,1127.735c-7.956-30.965,2.832-63.385-6.531-93.957c0.026,0.073,0.052,0.146,0.078,0.219
		c-19.212-43.045-57.206,6.23-62.277-99.918c0.016,0.285,0.027,0.57,0.043,0.852c-0.027-0.527-0.051-1.055-0.078-1.586
		c0.016,0.285,0.027,0.57,0.043,0.856c-0.082-1.707-0.164-3.414-0.246-5.117c0.012,0.281,0.027,0.566,0.039,0.852
		c-2.13-22.886,0.163-55.286-25.421-65.369c-35.221,0.246-46.19,40.294-49.001,69.092c0.031-0.328,0.059-0.656,0.09-0.988
		c-0.109,40.67-6.946,74.848-31.014,108.519c-7.602,12.486-11.125,27.057-13.244,41.385c0.969,1.818-1.448,4.193-3.215,2.908
		c-0.004,0-0.004-0.004-0.008-0.004c0.076,0.051,0.149,0.099,0.225,0.149c-8.318-30.384,16.743-58.38,25.823-86.292
		c9.536-25.43,4.776-53.102,9.592-79.341c4.941-23.244,12.983-47.916,34.72-60.577c21.712-12.013,39.066-9.787,52.838,11.852
		c7.292,11.572,7.523,26.035,9.31,39.237c3.161,24.037-0.478,78.929,26.812,88.2c39.208,11.263,41.625,40.713,39.203,76.473
		c-1.408,16.128-0.47,32.449,2.426,48.366C1818.086,1129.511,1808.358,1134.641,1806.121,1127.735z"/>
	<path style="fill:#231F20;" d="M1697.033,942.387c0.461-6.13-0.577-12.629,1.415-18.522c0.835-2.538,4.954-3.288,5.756-0.345
		c-0.225,3.241-0.563,6.546-0.222,9.879c-0.4,3.94,1.654,10.936-3.629,12.071C1698.556,945.693,1696.966,944.246,1697.033,942.387z"
		/>
	<path style="fill:#231F20;" d="M1669.876,984.38c-3.375-5.331,0.509-12.88,2.085-18.437c1.706-4.712,9.075-2.611,6.872,2.379
		C1675.124,972.819,1678.97,987.98,1669.876,984.38z"/>
	<path style="fill:#231F20;" d="M1674.589,914.143c0.039-2.89,1.391-5.483,2.363-8.141c-0.027,0.072-0.052,0.145-0.078,0.217
		c0.423-4.129,6.65-4.333,5.28,0.318c-1.97,3.312,0.295,9.501-4.502,10.446C1676.005,917.185,1674.502,915.854,1674.589,914.143z"/>
	<path style="fill:#231F20;" d="M1714.212,901.689c-0.903-4.364-4.483-13.911,2.922-13.926c3.946,1.616,3.04,7.9,4.356,11.488
		C1722.284,903.315,1715.562,906.27,1714.212,901.689z"/>
	<path style="fill:#231F20;" d="M1718.438,971.396c0.074-2.43,0.012-4.856-0.059-7.285c0.005,0.099,0.01,0.198,0.016,0.299
		c-0.072-4.539-2.214-13.888,4.808-13.713c1.035,0.184,1.91,0.875,2.328,1.836c0.074,6.034,0.209,12.398-0.437,18.555
		C1724.819,974.917,1718.428,975.857,1718.438,971.396z"/>
	<path style="fill:#231F20;" d="M1693.719,1001.605c0.22-4.499-0.301-14.336,6.43-13.387c4.499,2.306-0.385,7.801,0.381,11.647
		c0.002-0.02,0.004-0.04,0.006-0.061C1701.317,1004.295,1694.125,1007.039,1693.719,1001.605z"/>
	<path style="fill:#231F20;" d="M1656.304,1062.943c0.823-5.029,0.283-17.62,7.397-17.224c4.122,2.05-0.216,6.79-0.446,9.964
		c-1.217,3.219,0.216,8.996-4.103,9.905C1657.624,1065.778,1656.214,1064.536,1656.304,1062.943z"/>
	<path style="fill:#231F20;" d="M1714.106,1093.175c-5.126-4.203-4.146-13.562-2.544-19.453c1.657-6.052,10.866-4.267,8.271,2.152
		C1717.032,1081.157,1724.238,1094.107,1714.106,1093.175z"/>
	<path style="fill:#231F20;" d="M1743.149,1099.857c-2.651-19.71,13.792-24.891,10.892-12.794c0.006-0.011,0.012-0.023,0.018-0.034
		c-2.064,3.38-2.467,7.302-2.258,11.184C1752.085,1103.093,1743.993,1105.501,1743.149,1099.857z"/>
	<path style="fill:#F7941D;" d="M649.597,472.622c-7.927-1.768-3.84-13.088-5.688-18.938c-7.556-7.541,45.369-11.143,50.816-13.197
		c47.886-7.104,95.864-13.559,143.981-18.987c-0.074,0.008-0.148,0.016-0.223,0.023c1.809-0.199,3.617-0.402,5.43-0.605
		c-0.207,0.023-0.414,0.047-0.617,0.07c18.159-1.981,36.357-3.683,54.543-5.414c-0.331-2.602,0.071-6.613,3.527-6.438
		c46.451-7.915,94.155-7.678,141.043-12.324c0.797-6.275,9.611-6.171,14.507-6.743c2.628,0.308,6.23-0.629,7.743,2.149
		c3.83,11.118,3.583,23.24,4.274,34.867c-0.596,8.335,3.937,20.3-1.889,26.953c-4.775,3.431-15.648,9.227-16.017-0.867
		c-0.402-0.17-0.791-0.426-1.102-0.727c-36.186-0.249-72.34,0.897-108.516,1.919c-7.279-1.696-44.738,5.982-42.258-3.723
		c-50.642,1.044-100.96,6.813-151.355,11.398c0.191-0.023,0.383-0.043,0.57-0.066c-17.081,1.863-34.056,4.625-51.18,6.117
		c0.191-0.02,0.387-0.043,0.582-0.063C681.77,469.915,665.711,472.364,649.597,472.622z M908.558,450.165c0,0.008,0,0.016,0,0.023
		c0.441-0.023,0.879-0.055,1.316-0.094C909.437,450.118,908.996,450.142,908.558,450.165z M1053.367,399.724
		c0.12,0.478,0.241,0.957,0.359,1.43c-0.012-0.512-0.031-1.02-0.063-1.531C1053.566,399.658,1053.468,399.693,1053.367,399.724z"/>
	<path style="fill:#F7941D;" d="M655.361,1736.984c-3.871-60.24-4.583-121.044-9.477-181.434
		c-30.232,4.874-58.9,10.626-89.891,13.026c-26.117,0.107-53.128,3.981-78.848,3.93c1.056,27.256,1.276,54.277,3.527,81.785
		c1.238,15.416,1.75,34.748,2.664,51.941c0.783,11.926,4.285,31.572-12.294,32.895c-13.505-0.649-11.105-16.296-12.139-25.939
		c-1.247-17.731-1.493-33.469-3.04-50.601c-5.108-77.868-6.452-156.976-12.493-236.399c-1.8-40.318-6.753-80.521-9.046-120.719
		c-2.509-46.929-7.256-93.846-9.656-140.723c-4.506-58.302-2.769-116.795-4.738-175.324c-2.115-49.35-7.006-98.837-8.323-147.567
		c-2.677-39.226-1.589-84.057-3.591-124.715c-5.363-70.568-12.046-139.486-14.957-210.695c3.395-1.402,6.687-3.044,9.961-4.707
		c-0.176,0.09-0.348,0.18-0.523,0.27c4.724-2.46,9.534-4.779,14.453-6.813c2.47,61.787,6.888,123.492,12.137,185.078
		c4.746,45.833,3.475,97.009,5.679,144.152c2.12,49.955,6.06,98.487,9.201,148.738c1.811,54.376,1.431,108.913,4.85,163.375
		c41.96-6.067,84.646,3.133,126.278-3.926c0.75,8.556,0.915,17.141,1.443,25.708c-37.448,1.354-74.964,2.953-112.361,4.44
		c-3.519,2.958-8.475,4.065-12.91,5.184c4.876,63.514,8.769,125.721,13.332,188.664c55.178-13.815,113.656-9.203,169.574-18.414
		c-2.409-57.63,2.757-121.305,2.492-178.426c0.447-42.218-3.086-92.974-2.863-133.183c-2.933-89.536,0.168-180.129-5.073-269.309
		c-2.39-28.137-2.522-56.837-2.556-85.09c-0.357-39.359-5.274-85.461-7.102-126.121c8.29-2.542,16.7-4.626,24.938-7.336
		c3.752,60.039,8.279,120.271,7.935,179.879c6.742,83.761,5.292,168.342,7.107,253.461c2.475,100.282,6.489,196.267,1.867,296.422
		c-1.694,116.965,9.868,230.354,16.893,347.566c1.13,36.312,3.263,72.016,4.034,108.383
		C685.071,1740.354,664.111,1756.864,655.361,1736.984z M467.197,1385.241c3.315,55.984,6.92,112.186,9.102,168.27
		c55.267-11.828,112.841-7.545,167.551-23.047c-5.995-56.856-7.842-112.817-9.371-169.976c-21.743,2.549-43.627,3.551-65.465,4.605
		l0.125-0.012c-34.635,0.596-68.914,5.002-103.418,3.344C466.267,1374.081,466.794,1379.628,467.197,1385.241z"/>
	<path style="fill:#F7941D;" d="M595.474,1142.206c-0.317-4.06-0.57-8.122-0.854-12.182c23.326-5.828,20.818,24.338,2.091,27.137
		C596.258,1152.181,595.862,1147.194,595.474,1142.206z"/>
	<path style="fill:#F7941D;" d="M607.954,363.027c-4.669-60.812-6.912-119.289-12.023-178.442
		c-2.102-42.917-9.965-87.18-2.074-129.574c19.43-22.52,18.658,48.381,21.105,57.305c10.789,86.756,12.929,170.513,19.558,257.695
		c-8.307,3.632-17.81,4.567-25.372,9.9C608.785,374.613,608.389,369.015,607.954,363.027z"/>
	<path style="fill:#F7941D;" d="M390.141,442.077c-0.283-56.022-6.065-110.132-9.391-165.652
		c-1.027-63.461-4.193-126.868-8.652-190.117c-1.967-25.921,37.048-25.836,25.512,1.078c8.321,59.464,4.623,119.124,5.66,178.668
		c3.488,57.197,10.579,115.257,10.594,172.385c-8.697,1.092-16.335,5.619-23.686,10.107
		C390.159,446.373,390.15,444.211,390.141,442.077z"/>
	<path style="fill:#F7941D;" d="M444.138,984.243c-9.321,0.68-17.874-8.755-9.062-16.067c10.592-5.829,23.879-5.383,35.577-7.95
		c27.506-4.807,55.366-6.795,82.931-11.035c0.846,8.892,2.283,17.819,5.4,26.222C521.021,980.808,482.443,983.057,444.138,984.243z"
		/>
	<path style="fill:#F7941D;" d="M576.802,971.536c-0.125-0.758-0.25-1.516-0.375-2.269c0.047,0.293,0.094,0.582,0.141,0.875
		c-0.078-0.481-0.156-0.965-0.234-1.445c0.047,0.289,0.094,0.582,0.141,0.875c-1.258-7.995-3.32-15.93-6.983-23.177
		c12.073-1.222,24.288-2.796,36.346-3.258c13.686,2.537,11.006,22.612-0.563,26.388c-8.973,2.964-18.625,2.534-27.939,3.454
		C577.159,972.495,576.983,972.016,576.802,971.536z"/>
	<path style="fill:#F7941D;" d="M427.877,781.761c-5.265,0.598-9.409-4.238-7.824-9.348c5.043-11.822,22.816-10.33,33.545-13.304
		c0.368,2.425,0.288,4.877,0.447,7.32c0-0.004-0.004-0.008-0.004-0.008c0.34,4.516,0.994,9.002,2.012,13.414
		C446.658,780.409,437.267,781.192,427.877,781.761z"/>
	<path style="fill:#F7941D;" d="M467.777,756.512c12.432-0.046,11.644,17.773,1.451,21.149
		C468.731,770.613,468.244,763.562,467.777,756.512z"/>
	<path style="fill:#F7941D;" d="M462.828,757.243c0.068-0.014,0.136-0.027,0.204-0.041c0.016,0.325,0.044,0.637,0.041,0.961
		C462.995,757.855,462.913,757.549,462.828,757.243z"/>
	<path style="fill:#F7941D;" d="M414.25,559.091c-14.445-25.371,70.557-25.946,85.019-29.429c0.564,7.813,2.199,15.511,2.587,23.338
		c-16.434,2.237-32.978,3.362-49.477,4.912C440.482,558.102,424.68,566.437,414.25,559.091z"/>
	<path style="fill:#F7941D;" d="M517.187,547.576c0.008-0.84-0.195-1.652-0.363-2.469c0.035,0.172,0.07,0.344,0.105,0.516
		c-1.202-5.99-2.533-11.96-3.656-17.967c16.245-3.209,16.306,20.396,2.367,23.218C516.576,550.084,517.177,548.9,517.187,547.576z"
		/>
	<path style="fill:#F7941D;" d="M514.058,531.716c0.027,0.141,0.059,0.277,0.082,0.418
		C514.113,531.998,514.086,531.857,514.058,531.716z"/>
	<path style="fill:#F7941D;" d="M445.547,370.957c-14.194-1.937-29.849-1.518-43.114-6.724c-5.203-4.455-0.513-12.592,5.653-12.854
		c14.792-2.482,29.772-0.246,44.655-0.764c31.559-2.899,63.273-3.986,94.782-7.297c18.105-3.181,36.27-5.417,54.571-6.934
		c10.195-5.44,21.964,2.308,16.866,13.937c-6.843,13.569-25.763,8.658-38.257,11.016
		C536.068,368.645,490.712,370.268,445.547,370.957z"/>
	<path style="fill:#F7941D;" d="M407.947,370.674c-5.164,0.044-8.403-5.805-4.98-9.934c5.92-4.97,15.443-3.828,22.745-5.974
		c37.41-6.033,75.126-11.446,113.094-11.288c23.082-0.855,45.47-7.818,68.66-8.022c12.021,0.652,8.848,18.688-1.708,19.342
		c-9.306,0.722-18.698,0.555-27.956,1.97c-27.189,6.089-54.872,3.938-82.426,5.924C466.106,363.825,437.162,369.422,407.947,370.674
		z"/>
	<path style="fill:#F7941D;" d="M410.702,179.11c-7.448,1.068-18.352-5.476-11.204-13.17c-0.002-0.001-0.005-0.001-0.007-0.002
		c5.042-4.682,12.644-4.303,19.023-5.567c15.79-2.198,31.697-3.31,47.539-5.039c42.893-4.983,85.643-10.233,128.829-11.596
		c19.244-7.015,22.182,20.835,4.311,23.537c-6.46,0.205-12.917,0.225-19.386,0.64c0.215-0.01,0.43-0.02,0.645-0.03
		C523.728,169.143,467.473,178.067,410.702,179.11z"/>
	<path style="fill:#231F20;" d="M610.544,481.018c-20.81-1.531-10.638-19.714,4.946-15.941
		C623.823,467.364,621.593,482.728,610.544,481.018z M612.195,476.59c0.793-0.066,1.566-0.284,2.311-0.558
		c-3.392-0.668-4.939-4.931-3.45-7.881c-0.717,0.227-1.415,0.511-2.113,0.785c0.013-0.006,0.026-0.011,0.039-0.017
		c-2.323,0.901-4.836,1.881-6.323,3.993C604.528,476.245,608.729,476.695,612.195,476.59z"/>
	<path style="fill:#231F20;" d="M612.456,485.087c-0.648-1.237,1.215-0.825,1.844-1.254c-0.027,0.008-0.059,0.02-0.086,0.031
		c1.281-0.526,2.421-1.342,3.402-2.31c-0.014,0.015-0.028,0.029-0.043,0.044c0.094-0.094,0.184-0.184,0.273-0.273
		c-0.027,0.027-0.059,0.059-0.09,0.09c0.725-0.724,1.427-1.482,1.91-2.391c1.111-1.574,2.878,0.568,1.523,1.66
		C618.711,482.484,615.845,486.233,612.456,485.087z"/>
	<path style="fill:#231F20;" d="M601.823,502.571c-2.72-1.15,0.026-4.73,0.376-6.696c-0.212-1.61,1.579-3.433,3.159-2.527h0.004
		c1.336,0.849,1.315,2.775,0.215,3.844C604.34,498.832,604.266,502.465,601.823,502.571z"/>
	<path style="fill:#231F20;" d="M610.09,499.841c-2.573-1.086,0.634-4.624,1.127-6.355c-0.174-0.576,0.634-1.037,0.994-0.512
		c0.386,0.929-0.236,1.977-0.442,2.897c0-0.001,0.001-0.002,0.001-0.003C611.191,497.11,611.863,499.578,610.09,499.841z"/>
	<path style="fill:#231F20;" d="M617.379,497.603c-2.308,0.142,0.017-5.941,0.896-6.451
		C619.864,490.9,619.007,498.046,617.379,497.603z"/>
	<path style="fill:#231F20;" d="M571.086,1377.009c-14.429-7.807,24.878-28.705,30.059-35.414
		c-9.211-41.048-4.674-83.629-7.638-125.363c-3.372-99.994-5.609-201.531-35.245-297.859
		c-43.682,14.06-89.843,20.382-132.109,38.867c0.188-0.074,0.371-0.152,0.559-0.227c-14.605,7.279-29.978,13.874-43.579,22.803
		c-5.4,16.264-1.051,34.436,3.946,50.334c-0.047-0.145-0.094-0.285-0.144-0.43c9.466,26.094,23.399,50.15,35.633,74.984
		c10.149,21.18,19.699,42.723,32.969,62.152c1.802,5.707-4.921,9.895-7.437,14.407c-7.36,8.672-13.724-6.516-19.477-10.227
		c-7.434,18.438-22.582,34.205-41.613,40.551c0.164-0.066,0.328-0.133,0.492-0.199c-18.984,10.052-24.266,4.29-10.913-12.828
		c5.408-7.946,9.448-16.655,14.156-24.996c-17.09-33.057-33.757-66.3-50.559-99.496c-11.654-19.161-19.994-39.97-29.089-60.411
		c-5.787-13.362-12.162-26.534-14.773-40.977c-22.121-68.467,105.06-89.356,149.41-109.707c0.074,0.031,0.152,0.059,0.23,0.086
		c-0.055-0.023-0.109-0.043-0.164-0.063c0.067,0.024,0.133,0.048,0.2,0.071c-0.07,1.595,1.351,2.902,2.839,3.233
		c29.807,13.148,63.952,15.028,96.222,16.86c8.076,0.74,17.747,1.325,25.145-1.835c8.296-9.238,16.232-18.755,23.855-28.564
		c2.134,11.176,2.176,23.696,7.206,33.879c18.073,5.269,38.558,4.426,57.283,2.661c3.726,52.36-1.637,105.138-2.609,157.592
		c-1.834,46.672-1.468,93.496-1.98,140.211c1.154,27.527,0.867,55.076,2.28,82.598c0.951,30.578,4.575,61.116,2.597,91.726
		c-0.837,9.051-13.192,6.271-19.527,7.661c-6.281-1.934-5.312-10.953-6.914-16.177
		C617.04,1369.248,592.831,1375.648,571.086,1377.009z M444.394,1174.685c0.019-0.02,0.039-0.043,0.055-0.066
		c-0.426-0.422-0.828-0.871-1.215-1.332C443.613,1173.759,443.999,1174.228,444.394,1174.685z"/>
	<path style="fill:#231F20;" d="M513.07,586.001c-0.103-0.268-0.148-0.552-0.152-0.844c1.253-0.194,2.501-0.439,3.754-0.621
		C516.021,585.761,514.083,588.063,513.07,586.001z"/>
	<path style="fill:#231F20;" d="M611.25,578.345c-0.628-0.563-1.268-1.117-1.921-1.656c3.209-0.459,6.436-0.689,9.677-0.711
		c0.329,0.538,0.638,1.088,0.943,1.641c-1.063,0.246-2.137,0.457-3.215,0.629h0.004c-1.651,0.229-3.32,0.35-4.969,0.602
		C611.597,578.677,611.425,578.513,611.25,578.345z"/>
	<path style="fill:#231F20;" d="M616.654,578.261c0.004,0,0.008-0.001,0.013-0.002c-0.007,0.001-0.014,0.002-0.021,0.003
		C616.649,578.262,616.651,578.261,616.654,578.261z"/>
	<path style="fill:#231F20;" d="M616.692,578.255c0.003,0,0.006,0,0.008,0c-0.011,0.002-0.023,0.003-0.034,0.005
		C616.675,578.258,616.684,578.256,616.692,578.255z"/>
	<path style="fill:#231F20;" d="M380.957,502.919c-1.124-1.918-2.77-3.456-4.242-5.101c6.317-3.313,12.796-6.29,19.469-8.817
		c-0.172,0.07-0.344,0.141-0.512,0.211c8.048-3.326,17.094-4.059,24.844-8.129c-0.145-0.023-0.293-0.043-0.441-0.066
		c0.117,0.02,0.23,0.035,0.344,0.055c-3.385-0.832-6.703-0.036-10.035,0.403c-7.511-3.938,5.178-8.215,8.16-10.465
		c-4.373-0.832-8.427,2.23-12.59,1.786c-5.087-4.192,3.343-6.82,6.59-7.907c-0.019,0.008-0.035,0.016-0.051,0.023
		c0.087-0.042,0.176-0.071,0.266-0.109c-0.027,0.012-0.059,0.023-0.09,0.035c1.823-0.88,4.106-1.475,5.297-3.203
		c-0.309-0.366-0.721-0.615-1.133-0.852c0.094,0.047,0.183,0.09,0.273,0.133c-4.699-1.176-9.609,2.054-14.316,2.379
		c-8.778-5.197,8.962-8.574,11.144-12.429c-18.525-0.047-32.253,15.396-46.891,24.809c0.004,0,0.004,0,0.004,0s0,0.004-0.004,0.004
		c-2.01,1.482-3.957,3.019-5.831,4.665c-1.152-1.313-2.289-2.663-3.615-3.805c12.097-10.915,25.744-20.652,40.344-27.892
		c6.804-3.777,29.168-6.458,17.88,6.751c5.401-0.382,8.853,6.287,4.535,10.031c6.311,0.071,5.041,7.563,0.672,9.793
		c11.562,2.327,2.268,13.132-4.825,14.644c-11.662,4.798-23.372,9.431-34.699,15.049
		C381.499,504.207,381.32,503.501,380.957,502.919z"/>
	<path style="fill:#231F20;" d="M835.988,448.951c-1.146-10.015-6.432-23.285,1.558-31.535c3.117-2.278,7.572-1.905,9.38,1.782
		c1.17-5.138,8.889-7.042,10.406-1.145c2.8-4.739,8.136-8.342,9.668-0.57c5.78-9.195,12.442-1.984,11.113,6.278
		c-2.162,12.048-1.151,24.579-0.221,36.719c-2.037-0.405-4.132-0.383-6.197-0.295c-2.501-13.83-0.349-27.945,1.621-41.394
		c0.027,0.105,0.051,0.211,0.078,0.316c-0.127-0.656-0.357-1.367-1.016-1.652c-3.602,1.961-4.229,6.249-4.703,9.941
		c-5.308,7.124-3.099-8.103-4.781-10.344c-2.862,2.662-4.93,6.482-4.047,10.465c0.745,2.308-1.826,5.545-3.844,3.129
		c-1.779-3.341,0.742-9.529-2.589-11.766c0.035-0.004,0.074-0.008,0.113-0.008c-0.004-0.004-0.012-0.004-0.016-0.004
		c0.062,0.002,0.128-0.008,0.191-0.012c-5.868,0.606-0.036,21.248-7.742,15.423c-1.297-2.824,0.721-13.686-4.309-11.926
		c-3.544,13.514,3.276,27.817,3.654,41.606c-1.803,0.165-3.682,0.104-5.434,0.572C837.681,459.382,836.829,454.166,835.988,448.951z
		"/>
	<path style="fill:#231F20;" d="M635.086,496.035C635.086,496.035,635.086,496.035,635.086,496.035
		c-0.002,0.001-0.004,0.002-0.005,0.002C635.082,496.037,635.084,496.036,635.086,496.035z"/>
	<path style="fill:#231F20;" d="M635.232,495.98c-0.023,0.008-0.047,0.016-0.066,0.023
		C635.185,495.996,635.208,495.988,635.232,495.98z"/>
	<path style="fill:#F7941D;" d="M630.769,890.454c-39.594-2.044-29.478-0.48-36.711-37.691
		c-7.624,9.809-15.559,19.326-23.856,28.562c-7.391,3.163-17.077,2.574-25.144,1.838c-32.268-1.832-66.419-3.714-96.223-16.861
		c-4.165-1.039-3.064-5.604-0.3-7.605c3.687-4.876,6.397-10.205,8.316-16.024c9.641-23.173,9.819-44.186,7.561-68.668
		c-2.529-29.723-9.711-59.136-16.111-88.258c-53.413-1.951-135.736,5.02-178.586-31.397C234.61,617.073,249,569.945,280.438,535.744
		c20.957-23.934,44.599-46.815,73.757-60.149c-0.004,0-0.004,0-0.008,0c6.423-0.094,10.276,10.974,15.337,14.643
		c3.543,5.431,17.897,13.095,8.843,19.337c-10.285,11.349-23.943,19.94-34.91,30.855l0.129-0.145
		c-105.713,90.64,60.701,59.093,110.965,54.617c29.388-2.703,58.236-6.729,87.691-10.367c17.664,0.137,34.32-2.065,51.754-2.285
		l-0.117,0.035c9.175-1.029,18.871-0.053,27.734-2.668c31.976-6.219,65.406-6.692,97.613-2.871l-0.394-0.012
		c29.971,2.266,59.877,5.329,89.934,6.05c13.942-0.649,28.643,3.796,42.191-0.019l0.051-0.137l-0.012-0.004
		c1.38-15.531-0.968-28.251-2.867-42.934c-2.882-21.576-6.507-42.922-14.954-63.14c-4.431-10.456,7.791-13.24,15.692-12.956
		c9.493-0.539,27.679-7.772,34.734-0.384c3.291-0.195,3.734,11.428,6.032,14.523c13.12,32.583,17.399,66.387,23.304,100.926
		l-0.035-0.172c3.658,26.13,3.295,62.964-26.551,73.004c-24.961,9.739-52.194,12.648-78.692,14.84l0.023-0.004
		c-0.086,0.005-1.653,0.123-1.789,0.133l0.18-0.012c-22.423,3.3-44.511,2.645-67.109,2.312c-16.778-0.281-33.938,0.928-50.945-0.183
		c-1.09,33.937-15.852,67.218-8.567,101.031c4.915,23.243,11.782,45.188,19.657,67.539c4.48,10.44,4.987,22.906,8.866,33.34
		c9.018,13.546-36.751,17.549-44.605,18.277c-1.332,0.906-3.14,1.182-4.633,0.508C649.537,890.853,640.082,890.464,630.769,890.454z
		 M606.164,879.747c0.025,0,0.05,0,0.072,0c-0.094-0.19-0.167-0.377-0.231-0.564C606.059,879.372,606.112,879.559,606.164,879.747z
		 M371.749,675.055l0.055-0.011c-1.149-0.008-2.27-0.023-3.367-0.043C369.52,675.024,370.622,675.042,371.749,675.055z
		 M646.792,582.204c0.685-0.054,1.369-0.108,2.054-0.163C648.163,582.104,647.472,582.123,646.792,582.204z"/>
	<path style="fill:#F7941D;" d="M488.589,595.232c-4.985-7.883,19.776-8.151,24.328-10.074v0c1.252-0.194,2.501-0.439,3.754-0.621
		c0-0.001,0.001-0.001,0.001-0.002c2.473-0.35,4.975-0.447,7.452-0.76c-0.016,0.004-0.031,0.004-0.047,0.008
		c28.459-3.164,57.017-2.406,85.25-7.094c0,0,0,0,0,0c15.399-1.839,30.908-1.072,46.356-0.593c3.277,0.43,7.916-1.335,10.223,1.64
		c1.121,2.102-0.012,4.559-2.149,5.411c-21.751,1.115-43.741-0.234-65.461,2.441c0.137-0.016,0.277-0.035,0.414-0.055
		c-31.984,3.917-64.485,2.214-96.406,7.512c0.003,0,0.005-0.001,0.008-0.001c-1.402,0.195-2.805,0.383-4.211,0.559
		c0.006,0,0.012,0,0.017,0C494.918,593.669,491.52,596.204,488.589,595.232z"/>
	<path style="fill:#241F20;" d="M513.347,582.978c0.462-6.1,3.429-11.36,9.621-13.152c-0.511-5.209-0.414-10.448-0.441-15.672
		c-10.359,4.905-18.189-5.542-9.871-13.59c-8.186,1.494-10.11-8.313-3.07-11.586c-6.452-1.318-7.515-9.977-1.238-12.434
		c3.555-1.823,7.656-1.73,11.382-3.023c-4.628-27.392-0.671-57.75,15.527-80.863c-0.008,0.012-0.019,0.023-0.027,0.039
		c12.298-17.479,33.939-24.95,54.695-22.023c-0.008,0-0.012,0-0.02,0c17.854,3.183,21.399-7.594,23.616-22.599
		c2.541-10.89,19.622-14.369,19.916-0.495c9.435-6.952,19.393,0.2,13.633,11.008c5.153-1.755,11.27,0.201,11.387,6.379
		c-0.012-0.105-0.023-0.211-0.035-0.313c0.031,0.254,0.059,0.508,0.086,0.766c-0.012-0.105-0.023-0.211-0.035-0.316
		c0.521,6.519-3.699,12.288-8.219,16.551c0.031-0.027,0.059-0.059,0.09-0.086c-6.669,6.673-15.037,11.515-24.07,14.199
		c4.096,11.331,2.977,23.835,6.523,35.27c2.198,7.756,10.345,9.622,16.38,13.41c2.801,4.151-3.236,7.583-6.614,8.676
		c0.004,0,0.004,0,0.008,0c-2.441,1.105-4.971,2.003-7.484,2.906c-0.008,0-0.012,0-0.016,0c0.004,0,0.004,0,0.008,0
		c-0.457,0.184-0.918,0.367-1.371,0.555c0.761,37.242,16.02,38.761-26.668,47.949c0.133-0.031,0.27-0.063,0.406-0.094
		c-0.945,0.223-1.879,0.453-2.801,0.746c0.315,6.466,0.273,12.948,0.945,19.395c5.296,2.488,10.076,6.609,13.418,11.398
		c-3.242,0.022-6.47,0.252-9.68,0.711c-12.78-10.182-31.199-3.307-46.191-3.373c-13.002,3.317-40.291-1.883-46.465,11.22
		c-1.253,0.182-2.501,0.427-3.754,0.621C512.906,584.423,513.148,583.646,513.347,582.978z M551.785,487.814
		c-9.889,1.632-10.855,17.252-4.582,23.391c4.55,1.956,0.98,9.238,0.728,13.015c-2.609,11.175-9.296,21.466-19.486,27.071
		c-0.645,5.583-0.847,11.29-0.621,16.918c23.839-2.887,48.19-5.436,72.246-4.949c0.151-7.179-1.555-14.981-0.134-21.871
		c9.222-6.534,22.172-5.35,32.322-10.199c0.672-5.909-6.955-38.449,0.289-38.059c4.583-1.665,10.718-1.942,14.023-5.734
		c-13.734-4.059-22.777-13.813-23.004-28.59c-0.004,0-0.004,0-0.004,0c-0.028-0.318-0.07-0.641-0.102-0.961
		c0.016,0.121,0.027,0.246,0.043,0.367c-0.074-0.684-0.144-1.371-0.207-2.059c-4.633,2.322-9.471,4.415-14.516,5.668
		c0.125-0.027,0.254-0.059,0.379-0.086c-4.7,1.478-19.63,2.369-13.934-6.001c8.409-4.168,17.931-7.914,27.493-6.48
		c-0.406-3.98-0.413-8.015-1.305-11.934c-15.604,6.02-30.924,13.223-46.754,18.871c0.053,12.99,2.786,25.803,4.293,38.668
		c0-0.004,0-0.004,0-0.004c2.812,15.032,0.529,13.638-13.492,16.895C557.92,507.764,562.592,487.369,551.785,487.814z"/>
	<path style="fill:#FFFFFF;" d="M447.031,669.832c-4.016-6.826,1.456-9.825,2.006-5.57c0.433,1.109,1.069,2.119,1.764,3.081
		C452.301,669.585,448.409,672.494,447.031,669.832z"/>
	<path style="fill:#FFFFFF;" d="M689.814,652.392c-1.89-3.368,1.17-9.772,2.67-13.086c4.934-2.732,2.768,5.625,3.154,8.145
		c-0.008-0.145-0.016-0.289-0.023-0.434C696.739,650.513,693.317,655.421,689.814,652.392z"/>
	<path style="fill:#FFFFFF;" d="M593.89,841.306c-3.161-9.033,0.707-20.167-0.441-29.879c0.189-3.506-2.952-12.78,3.332-11.497
		c4.437,8.286,2.395,19.264,2.935,28.532C599.629,832.822,601.533,844.416,593.89,841.306z"/>
	<path style="fill:#FFFFFF;" d="M631.738,580.176c-3.098,0.207-10.089-2.385-4.547-5.086c-0.001-0.004-0.003-0.008-0.004-0.011
		c3.704,0.388,7.434,0.458,11.141-0.106c1.383-0.152,2.5,0.914,2.473,2.297C640.375,581.578,634.74,580.086,631.738,580.176z"/>
	<path style="fill:#FFFFFF;" d="M896.344,436.212c-2.269-2.23-0.587-6.354-1.001-9.276c-0.35-0.502-0.189-1.167,0.099-1.681
		c0.001,0.001,0.003,0.003,0.004,0.004c2.044-4.04,3.769,1.49,3.734,3.598C899.669,431.544,901.057,437.523,896.344,436.212z"/>
	<path style="fill:#FFFFFF;" d="M1046.459,444.252c-1.144-8.66-0.042-17.262-0.296-25.922c0.83-3.874-3.447-18.059,3.025-16.847
		c0-0.003,0.001-0.006,0.001-0.009c4.717,10.689,1.898,23.86,3.016,35.395c-0.002-0.042-0.003-0.084-0.004-0.126
		c0.007,0.146,0.012,0.292,0.02,0.438c-0.001-0.019-0.002-0.038-0.003-0.057c-0.177,3.052,0.916,8.406-3.098,9.225
		C1047.843,446.504,1046.553,445.595,1046.459,444.252z"/>
	<path style="fill:#FFFFFF;" d="M554.537,432.399c-3.908-2.488,4.258-6.709,6.304-7.93c2.768-1.139,3.832,2.997,1.442,4.133
		C559.694,429.703,557.399,432.276,554.537,432.399z"/>
	<path style="fill:#FFFFFF;" d="M561.213,440.1c-0.456-0.359-0.639-0.898-0.616-1.444c-0.002,0.007-0.003,0.014-0.005,0.022
		c0.018-0.279,0.073-0.558,0.183-0.817c-0.001,0.004-0.002,0.008-0.003,0.012c1.965-3.002,5.099-5.493,7.913-7.715
		c2.603-1.41,3.944,2.429,1.604,3.656c0.018-0.012,0.035-0.023,0.052-0.035c-1.513,1.063-2.86,2.336-4.29,3.509
		c0.022-0.02,0.045-0.04,0.067-0.06c-0.075,0.066-0.15,0.131-0.227,0.195c0.019-0.015,0.037-0.03,0.056-0.046
		C564.389,438.319,563.415,441.519,561.213,440.1z"/>
	<path style="fill:#FFFFFF;" d="M569.824,443.445c-4.164-3.242,3.823-6.986,6.097-8.891c0.841-0.516,2.02-0.359,2.567,0.496
		c1.335,3.161-3.452,4.545-5.094,6.525c0.005-0.004,0.01-0.009,0.016-0.013c-0.336,0.306-0.695,0.595-0.984,0.949
		c0.015-0.022,0.03-0.044,0.045-0.066c-0.038,0.04-0.075,0.08-0.112,0.121c0.101-0.107,0.185-0.221,0.266-0.344
		c-0.012,0.016-0.023,0.031-0.035,0.047c0.053-0.095,0.103-0.194,0.152-0.292C572.214,443.042,571.007,443.875,569.824,443.445z"/>
	<path style="fill:#FFFFFF;" d="M338.385,978.478c-4.821-1.968-11.208-3.648-13.621-8.678c-1.004-2.989,4.273-5.293,4.827-1.644
		c2.509,3.978,13.195,3.437,12.06,8.677C341.132,978.034,339.682,978.955,338.385,978.478z"/>
	<path style="fill:#FFFFFF;" d="M348.034,967.601c-2.194-2.806-10.942-9.733-8.908-13.097c2.861-0.975,4.621,5.628,7.146,7.049
		c1.099,1.872,5.604,3.554,3.766,5.973C349.48,968.072,348.609,968.172,348.034,967.601z"/>
	<path style="fill:#FFFFFF;" d="M577.934,915.89c-2.384-0.177-1.533-3.799,0.563-3.633c2.844,0.856,8.519-3.081,9.653,0.558
		C586.982,916.301,581.018,915.345,577.934,915.89z"/>
	<path style="fill:#FFFFFF;" d="M588.797,932.313c-2.6-0.823-9.18,0.875-8.778-3.198c1.625-3.571,6.652-0.428,9.661-0.759
		C592.051,928.818,590.936,932.513,588.797,932.313z"/>
</g>
</svg>
