<?xml version="1.0" encoding="utf-8"?>
<!-- Generator: Adobe Illustrator 27.5.0, SVG Export Plug-In . SVG Version: 6.00 Build 0)  -->
<svg version="1.1" xmlns="http://www.w3.org/2000/svg" xmlns:xlink="http://www.w3.org/1999/xlink" x="0px" y="0px"
	 viewBox="0 0 500 500" style="enable-background:new 0 0 500 500;" xml:space="preserve">
<g id="Background_Complete">
	<g>
		<rect y="382.398" style="fill:#EBEBEB;" width="500" height="0.25"/>
		<rect x="416.779" y="398.494" style="fill:#EBEBEB;" width="33.122" height="0.25"/>
		<rect x="322.527" y="401.208" style="fill:#EBEBEB;" width="8.693" height="0.25"/>
		<rect x="396.586" y="389.208" style="fill:#EBEBEB;" width="19.192" height="0.25"/>
		<rect x="52.459" y="390.888" style="fill:#EBEBEB;" width="43.193" height="0.25"/>
		<rect x="104.556" y="390.888" style="fill:#EBEBEB;" width="6.333" height="0.25"/>
		<rect x="131.471" y="395.111" style="fill:#EBEBEB;" width="93.676" height="0.25"/>
		<path style="fill:#EBEBEB;" d="M237.014,337.8H43.915c-3.147,0-5.708-2.561-5.708-5.708V60.66c0-3.147,2.561-5.708,5.708-5.708
			h193.099c3.146,0,5.707,2.561,5.707,5.708v271.432C242.721,335.239,240.16,337.8,237.014,337.8z M43.915,55.203
			c-3.01,0-5.458,2.448-5.458,5.458v271.432c0,3.01,2.448,5.458,5.458,5.458h193.099c3.009,0,5.457-2.448,5.457-5.458V60.66
			c0-3.009-2.448-5.458-5.457-5.458H43.915z"/>
		<path style="fill:#EBEBEB;" d="M453.31,337.8H260.212c-3.147,0-5.707-2.561-5.707-5.708V60.66c0-3.147,2.561-5.708,5.707-5.708
			H453.31c3.148,0,5.708,2.561,5.708,5.708v271.432C459.019,335.239,456.458,337.8,453.31,337.8z M260.212,55.203
			c-3.009,0-5.457,2.448-5.457,5.458v271.432c0,3.01,2.448,5.458,5.457,5.458H453.31c3.01,0,5.458-2.448,5.458-5.458V60.66
			c0-3.009-2.448-5.458-5.458-5.458H260.212z"/>
	</g>
	<g>
		
			<ellipse transform="matrix(0.7071 -0.7071 0.7071 0.7071 -0.5513 265.6019)" style="fill:#F5F5F5;" cx="320.334" cy="133.466" rx="32.914" ry="32.914"/>
		<path style="fill:#EBEBEB;" d="M382.126,119.135c0-2.961-2.4-5.361-5.361-5.361c-0.535,0-1.052,0.081-1.54,0.227
			c0.078-0.537,0.12-1.087,0.12-1.646c0-6.27-5.083-11.353-11.353-11.353c-0.715,0-1.413,0.069-2.091,0.196
			c-1.745-2.856-4.882-4.768-8.473-4.768c-5.436,0-9.846,4.368-9.926,9.785c-0.056-0.001-0.109-0.008-0.165-0.008
			c-5.051,0-9.146,4.095-9.146,9.146c0,5.051,4.095,9.146,9.146,9.146h33.586l-0.007-0.007
			C379.806,124.408,382.126,122.045,382.126,119.135z"/>
		<path style="fill:#EBEBEB;" d="M304.963,155.68c0-2.961-2.4-5.361-5.361-5.361c-0.535,0-1.052,0.081-1.539,0.227
			c0.078-0.538,0.12-1.087,0.12-1.646c0-6.27-5.083-11.353-11.353-11.353c-0.715,0-1.413,0.069-2.091,0.196
			c-1.745-2.856-4.882-4.768-8.473-4.768c-5.436,0-9.846,4.368-9.926,9.785c-0.056-0.001-0.11-0.008-0.165-0.008
			c-5.051,0-9.145,4.095-9.145,9.146c0,5.051,4.094,9.146,9.145,9.146h33.586l-0.007-0.008
			C302.643,160.953,304.963,158.59,304.963,155.68z"/>
		<path style="fill:#EBEBEB;" d="M143.701,132.454c0-2.961-2.4-5.361-5.361-5.361c-0.535,0-1.051,0.081-1.539,0.227
			c0.078-0.538,0.12-1.087,0.12-1.646c0-6.27-5.083-11.353-11.353-11.353c-0.715,0-1.413,0.069-2.091,0.196
			c-1.745-2.856-4.882-4.768-8.473-4.768c-5.436,0-9.846,4.368-9.926,9.785c-0.056-0.001-0.109-0.009-0.165-0.009
			c-5.051,0-9.146,4.095-9.146,9.146c0,5.051,4.094,9.145,9.146,9.145h33.586l-0.007-0.008
			C141.382,137.727,143.701,135.364,143.701,132.454z"/>
		<path style="fill:#EBEBEB;" d="M435.617,159.068c0-1.79-1.451-3.24-3.24-3.24c-0.324,0-0.635,0.049-0.93,0.137
			c0.047-0.325,0.073-0.657,0.073-0.995c0-3.79-3.072-6.862-6.862-6.862c-0.432,0-0.854,0.042-1.264,0.118
			c-1.055-1.726-2.951-2.882-5.121-2.882c-3.286,0-5.951,2.64-6,5.914c-0.034-0.001-0.066-0.005-0.1-0.005
			c-3.053,0-5.528,2.475-5.528,5.528c0,3.053,2.475,5.528,5.528,5.528h20.3l-0.004-0.005
			C434.215,162.255,435.617,160.826,435.617,159.068z"/>
		<path style="fill:#EBEBEB;" d="M198.542,167.55c0-1.79-1.451-3.24-3.24-3.24c-0.324,0-0.635,0.049-0.93,0.137
			c0.047-0.325,0.073-0.657,0.073-0.995c0-3.79-3.072-6.862-6.862-6.862c-0.432,0-0.854,0.042-1.264,0.118
			c-1.055-1.726-2.951-2.882-5.121-2.882c-3.286,0-5.951,2.64-6,5.914c-0.034-0.001-0.066-0.005-0.1-0.005
			c-3.053,0-5.528,2.475-5.528,5.528c0,3.053,2.475,5.528,5.528,5.528h20.3l-0.004-0.005
			C197.14,170.737,198.542,169.309,198.542,167.55z"/>
		<path style="fill:#EBEBEB;" d="M367.874,218.129c0-2.882-2.336-5.218-5.218-5.218c-0.521,0-1.023,0.079-1.498,0.221
			c0.076-0.523,0.117-1.058,0.117-1.602c0-6.102-4.947-11.049-11.049-11.049c-0.695,0-1.375,0.067-2.035,0.19
			c-1.698-2.779-4.751-4.641-8.247-4.641c-5.291,0-9.582,4.251-9.661,9.523c-0.054-0.001-0.107-0.008-0.161-0.008
			c-4.916,0-8.901,3.985-8.901,8.901c0,4.916,3.985,8.901,8.901,8.901h32.688l-0.007-0.007
			C365.616,223.261,367.874,220.961,367.874,218.129z"/>
		<path style="fill:#EBEBEB;" d="M103.949,195.911c0-1.79-1.451-3.24-3.24-3.24c-0.324,0-0.636,0.049-0.93,0.137
			c0.047-0.325,0.073-0.657,0.073-0.995c0-3.79-3.072-6.862-6.862-6.862c-0.432,0-0.854,0.042-1.264,0.118
			c-1.055-1.726-2.951-2.882-5.121-2.882c-3.286,0-5.951,2.64-6,5.914c-0.034-0.001-0.066-0.005-0.1-0.005
			c-3.053,0-5.528,2.475-5.528,5.528c0,3.053,2.475,5.528,5.528,5.528h20.3l-0.004-0.005
			C102.547,199.098,103.949,197.67,103.949,195.911z"/>
		<path style="fill:#EBEBEB;" d="M236.655,97.809c0-1.79-1.451-3.24-3.24-3.24c-0.324,0-0.636,0.049-0.93,0.137
			c0.047-0.325,0.073-0.657,0.073-0.995c0-3.79-3.072-6.862-6.862-6.862c-0.432,0-0.854,0.042-1.264,0.118
			c-1.055-1.726-2.951-2.882-5.122-2.882c-3.286,0-5.951,2.64-6,5.914c-0.034,0-0.066-0.005-0.1-0.005
			c-3.053,0-5.528,2.475-5.528,5.528c0,3.053,2.475,5.528,5.528,5.528h20.3l-0.004-0.005
			C235.253,100.996,236.655,99.568,236.655,97.809z"/>
		<g>
			<g>
				<path style="fill:#F0F0F0;" d="M353.89,358.082H87.31c0,0,8.223-12.664,15.077-22.816c4.341-6.42,8.123-11.838,8.941-12.422
					c2.104-1.503,7.505-2.404,9.909-7.973c2.396-5.577,2.396-7.939,5.836-14.242c3.431-6.303,16.68-23.417,18.074-23.375
					c1.402,0.042,13.316-18.65,17.89-20.153c4.583-1.503,5.026-6.002,9.926-12.756c4.892-6.754,21.222-28.376,28.126-28.877
					c6.904-0.509,23.809,32.008,30.346,34.428c6.545,2.413,13.783-8.106,16.096-5.551c2.313,2.555,6.996,12.155,11.763,19.961
					c4.775,7.806,9.575,11.404,10.001,14.359c0.426,2.955,10.143,8.156,14.985,8.156c1.636,0,5.184,3.64,9.175,8.465
					c0.017,0.017,0.025,0.025,0.025,0.025c7.789,9.425,17.231,23.334,17.231,23.334c1.294,1.878,3.556-0.902,7.455,0.593
					C322.074,320.74,353.89,358.082,353.89,358.082z"/>
				<path style="fill:#E6E6E6;" d="M353.89,358.082H87.31c0,0,8.223-12.664,15.077-22.816c3.974-4.383,7.163-7.664,8.374-8.357
					c4.349-2.471,7.722-8.19,10.343-8.916c2.63-0.726,5.735-3.122,5.735-3.122s4.066-12.731,5.051-14.977
					c0.985-2.246,13.215-16.246,15.962-17.239c2.747-0.993,4.525,2.313,6.161,4.116c1.645,1.803,14.184,24.285,14.184,24.285
					l7.956-5.285c0,0,4.625-5.944,6.387-8.916c1.761-2.972,3.465-2.313,3.465-2.313s8.315-9.576,8.749-12.155
					c0.434-2.58,5.51-1.386,5.877-1.386c0.375,0,8.615,3.966,8.615,3.966s-8.657-10.895-12.314-7.956
					c-3.657,2.947-24.41,22.883-24.41,22.883l-11.83-14.927l5.552-7.956c0,0,7.597-9.55,8.257-10.869
					c0.66-1.319,13.541-19.485,13.741-20.479c0.192-0.985,11.028-9.576,12.389-8.924c1.361,0.643,4.258,2.655,7.505,6.962
					c3.256,4.316,4.675,6.921,8.064,12.473c3.39,5.552,6.186,6.996,7.305,8.39c1.102,1.378,13.482,14.693,13.867,15.111
					l-9.392-15.111c0,0,4.65-4.366,7.655-7.338c3.014-2.972,3.932,0.993,7.872,3.965c3.949,2.972,4.642,4.951,7.614,9.526
					c2.972,4.566,17.047,20.854,17.047,20.854s-2.187,3.632-4.558,7.313c-2.363,3.673-3.966,9.634-3.966,9.634l4.141-2.413
					c0,0,8.807-8.59,10.344-10.794c1.544-2.204,5.727-6.378,9.384-6.053c3.523,0.326,9.517,5.652,9.943,6.027
					c0.017,0.017,0.025,0.025,0.025,0.025c7.789,9.425,17.231,23.334,17.231,23.334c1.294,1.878,3.556-0.902,7.455,0.593
					C322.074,320.74,353.89,358.082,353.89,358.082z"/>
			</g>
			<g>
				<path style="fill:#EBEBEB;" d="M423.74,358.075H145.151c0,0,8.803-19.624,13.303-17.734c4.493,1.89,18.721-9.895,20.77-14.638
					c2.049-4.75,9.159,1.548,18.766-0.455c9.607-2.003,23.615-32.82,27.941-31.227c4.326,1.601,16.885,30.422,19.867,31.492
					c2.982,1.07,5.828-8.271,9.979-9.076c4.158-0.797,7.452,6.405,8.256,8.408c0.797,2.003,4.834,8.408,4.834,8.408
					s6.375-2.003,8.393-3.604c2.018-1.601,11.99-21.612,14.092-24.458c2.102-2.846,6.306-5.16,12.65-3.961
					c6.344,1.199,8.863-10.009,15.883-16.839c7.012-6.83,10.594-4.379,13.03-4.705c2.444-0.326,15.579-22.485,18.781-20.61
					c3.202,1.874,17.605,28.943,20.201,32.145c2.603,3.202,8.613-1.996,9.326,0c0.713,2.003,11.876,17.613,11.876,17.613
					s5.024-0.402,8.044,2.003c0.508,0.402,1.487,2.011,2.762,4.409l0.258,0.486C410.566,327.903,423.74,358.075,423.74,358.075z"/>
				<path style="fill:#E0E0E0;" d="M423.74,358.075H290.372c-3.992-5.828-10.541-15.549-10.328-16.232
					c0.296-0.987,12.605-25.3,18.463-28.609c5.851-3.301,10.237-0.6,10.237-0.6l-4.735,12.87
					c0.349-0.455,11.504-14.828,14.464-16.983c2.997-2.193,1.92-3.992,1.411-4.895c-0.501-0.873-7.057,1.434-7.406,1.556
					c0.508-0.524,13.546-13.72,15.898-14.98c2.398-1.283,7.148-1.283,7.148-1.283s8.757-11.565,11.762-15.845
					c3.005-4.272,10.654,2.064,12.081,7.004c1.434,4.94,6.534,10.04,6.534,10.04l3.604,10.207c0,0-10.958-8.105-12.984-7.505
					c-2.026,0.6-6.761,0.903-6.761,0.903s-2.17-6.306-4.872-7.209c-2.701-0.896-8.408,3.309-12.612,9.007
					c-5.289,7.186,7.209-8.104,13.211,0c6.003,8.105,7.012,5.403,10.108,3.301c3.104-2.094,13.895,14.714,16.3,17.112
					c2.413,2.405,7.065-5.699,7.065-5.699s-4.652,4.204-4.052,1.199c0.6-3.005,0.858-13.644,5.342-14.107
					c4.492-0.463,9.038,12.604,9.038,12.604l-4.773,6.45l12.908-5.251l6.48,4.113l0.258,0.486
					C410.566,327.903,423.74,358.075,423.74,358.075z"/>
				<path style="fill:#E0E0E0;" d="M149.401,358.075c1.73-2.929,3.248-5.798,2.891-6.306c-0.766-1.1,7.672-4.606,9.539-5.729
					c1.874-1.116,3.832-1.882,8.674-1.601c4.841,0.273,3.263,0.622,4.553,1.601c1.29,0.986,1.525,7.991,1.525,7.991
					s2.588-4.766,2.641-7.991c0.053-3.217-4.166-5.699-4.166-5.699s1.115-1.889,2.094-3.233c0.979-1.351,5.623-8.256,8.628-9.159
					c2.997-0.903,8.4,1.503,10.806,2.997c2.398,1.503,2.398,1.503,4.5,2.702c2.102,1.206,1.503,2.405,2.406,6.693
					c0.903,4.288,2.398-0.387,5.008,1.503c2.61,1.882,5.373,6.124,5.373,6.124s-0.774-5.312-2.656-7.626
					c-1.874-2.322-2.717-8.492-2.717-8.492l2.717-6.336c0,0,6.086-10.472,9.721-15.276c3.642-4.803,3.567-2.702,7.831,1.503
					c4.257,4.197,3.84,3.597,6.298,8.514c2.459,4.91,10.366,16.854,10.366,16.854l-0.243-4.659c0,0,5.433-5.699,7.831-3.901
					c2.406,1.798,4.204,5.707,4.204,5.707l-2.717,2.853c0,0-3.286,6.45-4.682,7.33c-1.389,0.873,3.498-1.184,7.399-2.595
					c3.901-1.419,6.906-6.389,9.311-4.735c1.745,1.206,12.187,14.061,17.742,20.967H149.401z"/>
			</g>
			<path style="fill:#E0E0E0;" d="M56.869,382.398c0,0,13.747-40.303,61.467-36.818c47.72,3.485,48.975,12.899,81.974,4.632
				c32.999-8.267,62.323-5.972,76.192,0.945c13.869,6.917,48.007,3.328,56.604-3.733s24.924-8.494,36.541-1.844
				c11.617,6.65,36.739,9.426,52.266,3.687c15.527-5.74,43.977,33.131,43.977,33.131H56.869z"/>
		</g>
	</g>
</g>
<g id="Background_Simple" style="display:none;">
	<g style="display:inline;">
		<path style="fill:#407BFF;" d="M248.439,82.697c101.965-5.66,176.747,19.059,126.419,111.892s13.681,68.996,36.626,109.403
			c22.945,40.407-0.55,112.118-164.055,112.118S45.287,358.829,103.77,290.785c58.483-68.044,77.41-65.896,36.694-123.146
			C99.747,110.389,177.175,86.653,248.439,82.697z"/>
		<path style="opacity:0.9;fill:#FFFFFF;" d="M248.439,82.697c101.965-5.66,176.747,19.059,126.419,111.892
			s13.681,68.996,36.626,109.403c22.945,40.407-0.55,112.118-164.055,112.118S45.287,358.829,103.77,290.785
			c58.483-68.044,77.41-65.896,36.694-123.146C99.747,110.389,177.175,86.653,248.439,82.697z"/>
	</g>
</g>
<g id="Shadow_1_">
	<ellipse id="_x3C_Path_x3E__359_" style="fill:#F5F5F5;" cx="250" cy="416.238" rx="193.889" ry="11.323"/>
</g>
<g id="Shark_4">
	<g>
		<path style="fill:#407BFF;" d="M415.673,391.039c-11.125-29.078-31.784-36.561-39.522-38.383
			c-0.973-0.229-1.676,0.882-1.065,1.672c0.93,1.203,1.755,2.508,2.489,3.885l2.259,0.589l-1.832,0.257
			c1.037,2.089,1.879,4.319,2.556,6.601h2.962l-2.807,0.543c0.827,2.903,1.401,5.864,1.792,8.688h3.395l-3.241,1.154
			c1.017,8.237,0.546,14.995,0.546,14.995H415.673z"/>
		<path style="fill:#407BFF;" d="M360.826,390.094c0,0,9.456,0,14.079-2.101c4.623-2.102,5.794-0.63,10.568,0
			c4.773,0.63,9.816-1.551,13.599-1.09c3.783,0.46,8.406,2.878,12.398,1.564c3.993-1.314,6.725-3.519,10.087,0
			c3.362,3.519,11.768,4.15,15.551,1.628c3.783-2.522,10.507-0.42,13.239,0.946c2.732,1.366,8.406,0.585,8.406,0.585
			s-4.203,5.194-8.195,3.303c-3.993-1.891-10.927,3.783-18.703,3.783s-13.239-2.312-18.282-1.051s-14.5,4.413-21.855,2.101
			c-7.355-2.312-11.978-3.783-18.598-2.312c-6.62,1.471-14.359,2.117-16.743-0.194c-2.383-2.312-11.275-2.327-16.652-1.276
			c-5.377,1.051-8.319-1.471-8.319-1.471s9.731-3.419,13.974-2.207C353.103,394.507,357.039,390.239,360.826,390.094z"/>
		<path style="opacity:0.4;fill:#FFFFFF;enable-background:new    ;" d="M458.753,391.623c0,0-4.207,5.195-8.199,3.307
			c-3.992-1.896-10.924,3.777-18.701,3.777s-13.235-2.311-18.278-1.052c-5.044,1.267-14.501,4.414-21.856,2.103
			c-7.354-2.311-11.984-3.785-18.597-2.311c-6.621,1.474-14.358,2.119-16.749-0.191c-2.382-2.311-11.275-2.327-16.645-1.283
			c-5.378,1.052-8.318-1.466-8.318-1.466s9.729-3.418,13.968-2.207c1.833,0.526,3.45,0.685,4.9,0.613
			c1.729-0.072,3.227-0.462,4.573-0.932c2.295-0.797,4.151-1.825,5.976-1.888c0,0,9.458,0,14.079-2.104
			c4.621-2.096,5.793-0.629,10.565,0c4.773,0.629,9.816-1.546,13.601-1.092c3.785,0.462,8.406,2.884,12.398,1.57
			c3.992-1.315,6.725-3.522,10.087,0c1.307,1.371,3.378,2.303,5.657,2.781c0,0,0,0,0.008,0c2.119,0.446,4.406,0.494,6.398,0.135
			c1.347-0.239,2.55-0.669,3.482-1.291c3.785-2.518,10.51-0.422,13.243,0.948C453.08,392.404,458.753,391.623,458.753,391.623z"/>
		<path style="opacity:0.4;fill:#FFFFFF;enable-background:new    ;" d="M377.01,392.563c0,0-1.53,1.315-3.888,1.61
			c-2.366,0.303-5.362-1.402-9.091-1.402c-3.737,0-6.518,2.526-14.239,0.805c0,0,0.183-0.279,0.486-0.661
			c1.729-0.072,3.227-0.462,4.573-0.932c2.056,0.653,5.705,0.43,8.183-0.311c3.147-0.948,5.099-0.048,6.621,0.892
			C373.122,394.715,377.01,392.563,377.01,392.563z"/>
		<path style="opacity:0.4;fill:#FFFFFF;enable-background:new    ;" d="M383.522,394.927c3.572-0.841,7.25-0.63,11.558,0.63
			c4.308,1.261,7.775-0.381,9.982-1.346c2.206-0.965,5.359,1.508,7.88,0.902c2.522-0.606,3.362-1.537,3.362-1.537
			s-2.732,0.855-4.518,0c-1.786-0.855-5.464-2.434-8.826-1.014c-3.362,1.419-6.619-0.037-8.563-0.569
			c-1.944-0.533-3.692,2.1-5.306,1.583C385.518,392.433,383.522,394.927,383.522,394.927z"/>
		<path style="opacity:0.4;fill:#FFFFFF;enable-background:new    ;" d="M442.044,391.958c0,0-2.518-0.183-3.362,0.605
			c-0.837,0.789-3.777,1.865-5.673,1.012c-1.888-0.853-4.828,0.653-7.147,0.637c-1.817-0.016-3.689-1.028-4.414-1.458
			c0.589,0.327,1.96,0.837,3.474-0.191c0.661-0.454,1.434-0.924,2.295-1.315c0,0,0,0,0.008,0c2.119,0.446,4.406,0.494,6.398,0.135
			c0.629,0.311,1.657,0.693,2.645,0.534C437.845,391.671,439,390.667,442.044,391.958z"/>
	</g>
</g>
<g id="Shark_1">
	<g>
		<path style="fill:#407BFF;" d="M122.391,359.024c-6.466,1.523-23.728,7.776-33.024,32.072h27.129c0,0-0.171-2.474-0.042-6.138
			l-3.256-0.617l1.978-0.791l0.89-1.582h-1.286l1.286-0.593v-0.89h-2.868l3.665-1.137c0.7-6.269,2.406-13.737,6.418-18.926
			C123.791,359.76,123.204,358.832,122.391,359.024z"/>
		<path style="fill:#407BFF;" d="M77.953,393.983c0,0,7.902,0,11.765,1.459c3.863,1.459,4.842,0.438,8.83,0
			c3.988-0.438,8.202,1.077,11.363,0.757c3.161-0.319,7.024-1.998,10.36-1.086c3.336,0.912,5.619,2.443,8.428,0
			c2.81-2.444,9.833-2.881,12.994-1.13c3.161,1.751,8.78,0.292,11.062-0.656c2.283-0.948,7.024-0.406,7.024-0.406
			s-3.512-3.606-6.848-2.293c-3.336,1.313-9.131-2.626-15.628-2.626s-11.062,1.605-15.277,0.729
			c-4.214-0.875-12.116-3.064-18.261-1.459c-6.146,1.605-10.009,2.626-15.54,1.605c-5.531-1.021-11.998-1.47-13.99,0.135
			s-9.421,1.616-13.914,0.886s-6.951,1.021-6.951,1.021s8.131,2.374,11.677,1.532C71.5,390.919,74.789,393.882,77.953,393.983z"/>
		<path style="opacity:0.4;fill:#FFFFFF;enable-background:new    ;" d="M159.779,392.921c0,0-3.515-3.607-6.851-2.296
			c-3.335,1.317-9.128-2.622-15.626-2.622c-6.498,0-11.059,1.604-15.273,0.73c-4.214-0.88-12.117-3.065-18.262-1.46
			c-6.145,1.604-10.013,2.628-15.54,1.604c-5.532-1.023-11.997-1.472-13.995,0.133c-1.991,1.604-9.421,1.615-13.908,0.891
			c-4.494-0.73-6.951,1.018-6.951,1.018s8.129,2.373,11.671,1.532c1.531-0.365,2.883-0.476,4.095-0.426
			c1.445,0.05,2.697,0.321,3.822,0.647c1.917,0.553,3.469,1.267,4.993,1.311c0,0,7.903,0,11.764,1.46
			c3.862,1.455,4.84,0.437,8.828,0c3.988-0.437,8.202,1.073,11.365,0.758c3.162-0.321,7.024-2.003,10.36-1.09
			c3.335,0.913,5.619,2.445,8.429,0c1.092-0.952,2.823-1.599,4.727-1.931c0,0,0,0,0.007,0c1.771-0.31,3.682-0.343,5.346-0.094
			c1.125,0.166,2.131,0.465,2.91,0.896c3.162,1.748,8.782,0.293,11.065-0.658C155.039,392.379,159.779,392.921,159.779,392.921z"/>
		<path style="opacity:0.4;fill:#FFFFFF;enable-background:new    ;" d="M91.476,392.268c0,0-1.278-0.913-3.249-1.117
			c-1.977-0.21-4.481,0.974-7.596,0.974c-3.122,0-5.446-1.754-11.898-0.559c0,0,0.153,0.194,0.406,0.459
			c1.445,0.05,2.697,0.321,3.822,0.647c1.718-0.454,4.767-0.299,6.838,0.216c2.63,0.658,4.261,0.033,5.533-0.62
			C88.227,390.775,91.476,392.268,91.476,392.268z"/>
		<path style="opacity:0.4;fill:#FFFFFF;enable-background:new    ;" d="M96.917,390.627c2.985,0.584,6.058,0.438,9.658-0.438
			c3.6-0.875,6.497,0.265,8.341,0.935c1.844,0.67,4.478-1.047,6.585-0.626c2.107,0.421,2.809,1.067,2.809,1.067
			s-2.283-0.594-3.775,0c-1.493,0.594-4.565,1.69-7.375,0.704c-2.81-0.986-5.531,0.025-7.155,0.395s-3.085-1.458-4.434-1.099
			C98.585,392.359,96.917,390.627,96.917,390.627z"/>
		<path style="opacity:0.4;fill:#FFFFFF;enable-background:new    ;" d="M145.817,392.689c0,0-2.104,0.127-2.81-0.42
			c-0.699-0.548-3.156-1.294-4.74-0.703c-1.578,0.592-4.035-0.454-5.972-0.443c-1.518,0.011-3.083,0.714-3.688,1.012
			c0.493-0.227,1.638-0.581,2.903,0.133c0.553,0.315,1.198,0.642,1.917,0.913c0,0,0,0,0.007,0c1.771-0.31,3.682-0.343,5.346-0.094
			c0.526-0.216,1.385-0.481,2.21-0.371C142.309,392.888,143.274,393.585,145.817,392.689z"/>
	</g>
</g>
<g id="Character">
	<g>
		<g>
			<polygon style="fill:#263238;" points="395.429,311.927 215.029,375.336 335.874,386.235 			"/>
			<polygon style="opacity:0.4;fill:#FFFFFF;enable-background:new    ;" points="395.429,311.927 215.029,375.336 335.874,386.235 
							"/>
		</g>
		<g>
			<polygon style="fill:#263238;" points="173.645,407.237 257.323,322.545 345.253,407.237 			"/>
			<polygon style="opacity:0.5;fill:#FFFFFF;enable-background:new    ;" points="345.251,407.239 173.641,407.239 235.161,344.979 
				257.321,322.549 296.841,360.619 			"/>
			<polygon style="opacity:0.2;enable-background:new    ;" points="257.323,322.545 272.262,392.457 345.253,407.237 			"/>
			<polygon style="opacity:0.2;enable-background:new    ;" points="345.251,407.239 173.641,407.239 235.161,344.979 
				296.841,360.619 			"/>
		</g>
		<g id="_x3C_Group_x3E__89_">
			<path style="fill:#263238;" d="M321.547,379.256l7.569,0.12c0.255,0.005,0.473,0.187,0.524,0.436l1.141,5.567
				c0.097,0.498-0.228,0.981-0.726,1.078c-0.067,0.013-0.135,0.019-0.203,0.017c-2.448-0.078-4.229-0.257-7.305-0.306
				c-1.894-0.03-7.612,0.078-10.227,0.036c-2.616-0.041-2.915-2.631-1.842-2.851c4.819-0.97,8.457-2.363,10.016-3.718
				C320.784,379.379,321.161,379.243,321.547,379.256z"/>
			<path style="fill:#263238;" d="M294.746,242.512c0,0,7.815,13.444,9.394,18.052c4.496,13.119,7.621,48.264,8.391,54.616
				c1.463,12.078,18.275,64.455,18.275,64.455h-10.311c0,0-22.056-44.062-25.463-55.304c-3.407-11.242-9.522-39.405-9.522-39.405
				s-26.954,31.686-31.273,37.921c-4.319,6.235,7.599,56.788,7.599,56.788h-10.304c0,0-17.058-43.911-14.98-59.775
				c2.077-15.865,30.437-51.42,31.053-53.286c0.784-2.372-1.38-10.8-1.38-10.8L294.746,242.512z"/>
			<path style="fill:#263238;" d="M252.585,379.256l7.569,0.12c0.255,0.005,0.473,0.187,0.524,0.436l1.141,5.567
				c0.097,0.498-0.228,0.981-0.727,1.078c-0.067,0.013-0.135,0.019-0.203,0.017c-2.448-0.078-4.229-0.257-7.305-0.306
				c-1.894-0.03-7.612,0.078-10.227,0.036c-2.615-0.041-2.915-2.631-1.842-2.851c4.82-0.97,8.457-2.363,10.016-3.718
				C251.821,379.379,252.198,379.243,252.585,379.256z"/>
			<path style="opacity:0.2;enable-background:new    ;" d="M277.399,294.512c1.982-6.587,3.004-12.572,3.004-12.572
				c-8.093-6.27-7.174-13.587-7.174-13.587c3.551,4.177,11.589,5.85,11.589,5.85l0.69,10.725
				C285.508,284.928,282.044,289.003,277.399,294.512z"/>
			<g>
				<polygon style="fill:#263238;" points="295.745,246.021 294.215,242.759 267.059,256.281 268.919,259.11 				"/>
				<polygon style="opacity:0.2;fill:#FFFFFF;" points="295.745,246.021 294.215,242.759 267.059,256.281 268.919,259.11 				"/>
				<path style="fill:#FFFFFF;" d="M274.891,252.477l1.385,2.923c0.111,0.235,0.025,0.513-0.189,0.608l-4.265,1.892
					c-0.189,0.084-0.413-0.005-0.522-0.206l-1.541-2.838c-0.129-0.237-0.047-0.533,0.176-0.632l4.421-1.976
					C274.552,252.159,274.788,252.26,274.891,252.477z"/>
				<polygon style="fill:#263238;" points="280.401,249.637 282.11,253.607 283.51,253.203 281.637,249.022 				"/>
				<polygon style="fill:#263238;" points="291.263,244.229 293.275,248.026 294.271,247.738 292.135,243.794 				"/>
				<polygon style="fill:#263238;" points="268.074,255.775 269.993,259.54 269.335,260.148 267.059,256.281 				"/>
			</g>
			<g>
				<path style="fill:#407BFF;" d="M265.921,256.725c-3.263-4.79-16.958-23.806-26.87-32.047c0,0,4.445-8.496,13.219-14.498
					c9.42-6.444,16.888-7.088,16.888-7.088s15.507,13.118,26.586,39.42L265.921,256.725z"/>
				<path style="opacity:0.6;fill:#FFFFFF;enable-background:new    ;" d="M295.742,242.509l-29.82,14.22
					c-0.78-1.14-2.16-3.1-3.94-5.54c-3.46-4.73-8.46-11.26-13.54-17.04c-3.22-3.67-6.47-7.04-9.39-9.47c0,0,4.44-8.5,13.22-14.5
					c9.42-6.44,16.89-7.09,16.89-7.09s1.85,1.56,4.72,4.68c1.49,1.64,3.28,3.7,5.22,6.19
					C284.232,220.509,290.482,230.019,295.742,242.509z"/>
				<path style="opacity:0.2;enable-background:new    ;" d="M284.472,232.799l-3.07,8.84c0,0-10.16,7.9-19.42,9.55
					c-3.46-4.73-8.46-11.26-13.54-17.04c-0.03-2.96,0.2-5.1,0.2-5.1s9.39,7.63,17.83,7.5
					C274.912,236.419,284.472,232.799,284.472,232.799z"/>
				<path style="opacity:0.2;enable-background:new    ;" d="M279.102,213.959c-4.26-1.56-7.22-4.64-7.22-4.64l2-1.55
					C275.372,209.409,277.162,211.469,279.102,213.959z"/>
			</g>
			<path style="fill:#E4897B;" d="M249.028,216.868l2.141-0.735l2.434,1.156l0.533-2.659l2.842-1.439
				c0.692-1.979,0.959-4.103,0.723-6.238c-4.381,0.497-10.215-5.547-13.148-9.151l0.06,5.247l0.066,6.187
				c1.454,0.708,2.847,1.548,3.738,2.682C249.411,213.163,249.805,214.753,249.028,216.868z"/>
			<path style="opacity:0.2;enable-background:new    ;" d="M244.678,209.238c1.454,0.708,2.847,1.548,3.738,2.682
				c2.321-2.497,1.136-7.005-0.081-8.259c-0.453-0.507-2.572-0.444-3.723-0.61L244.678,209.238z"/>
			<g>
				<path style="fill:#263238;" d="M230.485,189.474c0,0-4.055,0.446-4.418,4.659c-0.363,4.213,1.52,8.863,6.143,8.833
					c4.623-0.03,5.806-13.217,5.806-13.217L230.485,189.474z"/>
				<path style="fill:#E4897B;" d="M249.062,205.479v0.01c-0.14,0.62-0.34,1.24-0.63,1.88c-2.52,5.72-9.79,6.15-13.65,1.9
					c-0.27-0.29-0.52-0.61-0.75-0.95c-3.21-4.72-5.67-13.59-0.89-18.03c3.39-3.2,8.74-3.04,11.93,0.36c0.91,0.96,1.58,2.13,1.96,3.4
					C248.582,199.009,249.792,202.179,249.062,205.479z"/>
				<path style="fill:#263238;" d="M238.884,198.989c0.209,0.454,0.077,0.942-0.236,1.06c-0.312,0.118-0.7-0.175-0.881-0.641
					c-0.18-0.467-0.07-0.946,0.236-1.06C238.308,198.233,238.7,198.515,238.884,198.989z"/>
				<path style="fill:#263238;" d="M233.571,201.003c0.209,0.454,0.069,0.945-0.236,1.06c-0.305,0.115-0.7-0.175-0.881-0.641
					c-0.18-0.467-0.069-0.946,0.236-1.06C232.996,200.247,233.401,200.557,233.571,201.003z"/>
				<path style="fill:#DE5753;" d="M235.347,200.594c-0.014,1.649-0.257,3.289-0.721,4.872c0.831,0.219,1.716,0.06,2.418-0.435
					L235.347,200.594z"/>
				<path style="fill:#263238;" d="M236.815,197.462c0.02-0.108,0.097-0.197,0.201-0.234c0.717-0.22,1.289-0.766,1.542-1.472
					c0.041-0.157,0.201-0.251,0.357-0.21c0.157,0.041,0.251,0.201,0.21,0.357c0,0.001,0,0.001-0.001,0.001
					c-0.297,0.901-1.012,1.603-1.919,1.881c-0.152,0.056-0.321-0.023-0.376-0.175c-0.001-0.002-0.002-0.004-0.002-0.007
					C236.815,197.558,236.811,197.51,236.815,197.462z"/>
				<path style="fill:#263238;" d="M242.671,203.13L242.671,203.13c-1.438,0.335-2.622,1.35-3.172,2.72
					c-0.026,0.082,0.018,0.17,0.099,0.198c0.078,0.029,0.165-0.01,0.194-0.088c0.001-0.004,0.003-0.007,0.004-0.011
					c0.535-1.256,1.631-2.187,2.957-2.512c0.081-0.017,0.134-0.097,0.117-0.178c-0.001-0.005-0.003-0.011-0.004-0.016
					c-0.017-0.081-0.097-0.134-0.178-0.117C242.682,203.126,242.676,203.128,242.671,203.13z"/>
				<path style="fill:#263238;" d="M233.192,199.039c0.056,0.021,0.103,0.06,0.136,0.109c0.061,0.15-0.011,0.321-0.161,0.382
					c-0.002,0.001-0.004,0.002-0.006,0.002c-0.879,0.365-1.881,0.279-2.686-0.23c-0.132-0.094-0.162-0.278-0.067-0.409l0.001-0.001
					c0.097-0.128,0.277-0.157,0.41-0.067l0,0c0.646,0.383,1.436,0.439,2.13,0.149C233.036,198.96,233.124,198.983,233.192,199.039z"
					/>
				<path style="fill:#263238;" d="M246.686,184.624c-3.787-1.824-15.895,1.801-16.201,4.85c0,0-2.48,0.469-1.932,2.827
					c0.439,1.889,2.031,3.198,2.031,3.198c0.325-0.366,0.664-0.69,1.008-0.996c1.169,2.141,3.545,4.058,8.363,3.603
					c0,0-2.89-0.527-4.193-3.719c1.629,0.764,3.842,1.449,6.485,1.403c2.221,3.007,5.252,3.545,5.252,3.545
					c1.959,5.003,3.385,6.361,3.385,6.361C257.91,198.154,250.209,186.322,246.686,184.624z"/>
				<path style="fill:#E4897B;" d="M252.05,199.428c-0.31,1.524-1.212,2.863-2.508,3.723c-1.724,1.127-3.205-0.268-3.25-2.22
					c-0.023-1.735,0.822-4.464,2.811-4.788C251.092,195.82,252.407,197.553,252.05,199.428z"/>
				<path style="opacity:0.4;enable-background:new    ;" d="M249.062,205.479v0.01c-0.14,0.62-0.34,1.24-0.63,1.88
					c-2.52,5.72-9.79,6.15-13.65,1.9c0.73-1.89,3.55-4.68,3.55-4.68l0.39,0.75c0,0-2.25,2.66-1.68,3.39
					c0.57,0.72,3.98,1.18,4.58,0.72c0.59-0.46-0.44-2.83-0.44-2.83l1.07-1.28c0,0,1.87,0.81,2.73,0.36c0.86-0.46,0.26-2.78-1.58-3.3
					c-1.85-0.53-3.53,1.51-3.53,1.51h-0.74c2.12-4.14,7.42-4.858,7.42-4.858C247.662,200.161,248.772,202.649,249.062,205.479z"/>
			</g>
			<g>
				<path style="fill:#407BFF;" d="M250.518,217.29l3.244,3.787c0,0-0.738,16.07-8.255,25.991v3.867l4.747-1.913
					c0,0,5.802-19.33,5.011-28.561l1.055-6.126l-2.913,2.533L250.518,217.29z"/>
				<path style="fill:#407BFF;" d="M254.993,206.664c0.703,1.072,1.517,3.537-1.207,7.816l-0.38,2.387l-1.607-1.38
					c-2.332-0.098-2.803-3.862-3.453-3.361l-1.904,5.657c0,0,2.21,3.396,4.377,5.551l1.533-6.152l1.409,0.547l0.674-1.976
					l4.996,1.033c0,0,3.106-6.802,0.793-11.45l-4.889,0.578C254.974,205.956,254.794,206.36,254.993,206.664z"/>
				<path style="opacity:0.7;fill:#FFFFFF;enable-background:new    ;" d="M254.993,206.664c0.703,1.072,1.517,3.537-1.207,7.816
					l-0.38,2.387l-1.607-1.38c-2.332-0.098-2.803-3.862-3.453-3.361l-1.904,5.657c0,0,2.21,3.396,4.377,5.551l1.533-6.152
					l1.409,0.547l0.674-1.976l4.996,1.033c0,0,3.106-6.802,0.793-11.45l-4.889,0.578
					C254.974,205.956,254.794,206.36,254.993,206.664z"/>
			</g>
			<g>
				<path style="fill:#407BFF;" d="M267.059,203.554c0,0,17.74-9.339,24.204-8.018c6.464,1.321,13.849,11.949,13.849,11.949
					l-5.934,1.504c0,0-8.176-7.771-10.286-7.776c-2.11-0.005-14.572,8.963-14.572,8.963s-4.053-1.156-5.159-2.49
					C268.057,206.351,267.059,203.554,267.059,203.554z"/>
				<path style="opacity:0.6;fill:#FFFFFF;enable-background:new    ;" d="M267.059,203.554c0,0,17.74-9.339,24.204-8.018
					c6.464,1.321,13.849,11.949,13.849,11.949l-5.934,1.504c0,0-8.176-7.771-10.286-7.776c-2.11-0.005-14.572,8.963-14.572,8.963
					s-4.053-1.156-5.159-2.49C268.057,206.351,267.059,203.554,267.059,203.554z"/>
			</g>
			<g>
				<polygon style="fill:#263238;" points="269.993,228.828 285.508,201.213 291.263,199.199 304.584,208.725 303.595,210.307 
					314.276,218.219 297.958,247.068 292.767,247.068 				"/>
				<polygon style="opacity:0.2;fill:#FFFFFF;" points="269.993,228.828 273.859,228.241 287.441,237.598 304.584,208.725 
					291.263,199.199 285.508,201.213 				"/>
				<polygon style="opacity:0.2;fill:#FFFFFF;" points="274.32,229.296 297.958,247.068 314.276,218.219 304.584,211.04 
					287.904,238.366 				"/>
				<polygon style="fill:#263238;" points="294.298,219.472 301.09,224.681 299.375,227.516 292.584,222.439 				"/>
				<polygon style="fill:none;stroke:#FFFFFF;stroke-linecap:round;stroke-linejoin:round;stroke-miterlimit:10;" points="
					294.602,223.947 296.391,221.077 298.525,222.714 296.837,225.618 				"/>
				<path style="fill:#263238;" d="M284.474,208.065c0,0-2.791-1.253-6.473,0.791c-3.681,2.044-3.154,8.967-2.363,10.615h1.121
					l1.242-2.242c0,0-2.824-2.952-0.648-6.19c2.176-3.238,5.143-1.59,5.143-1.59h1.095L284.474,208.065z"/>
			</g>
			<g>
				<path style="fill:#E4897B;" d="M269.867,239.563l13.813-3.297c0,0,1.162-4.04,1.558-4.13s6.195-1.785,6.195-1.785l1.504,7.749
					c0,0-4.526,3.436-5.478,3.222c-0.952-0.214-1.781-1.133-1.781-1.133l-13.721,4.655L269.867,239.563z"/>
				<path style="fill:#407BFF;" d="M239.051,224.678c-2.775,6.86,12.785,21.172,20.434,22.39c7.648,1.217,20.916-4.309,20.916-4.309
					l-1.927-6.161c0,0-16.22,4.962-19.648,3.512c-3.428-1.451-12.381-14.315-12.381-14.315L239.051,224.678z"/>
				<path style="opacity:0.6;fill:#FFFFFF;enable-background:new    ;" d="M239.051,224.678c-2.775,6.86,12.785,21.172,20.434,22.39
					c7.648,1.217,20.916-4.309,20.916-4.309l-1.927-6.161c0,0-16.22,4.962-19.648,3.512c-3.428-1.451-12.381-14.315-12.381-14.315
					L239.051,224.678z"/>
			</g>
			<path style="fill:#E4897B;" d="M304.552,207.627l1.12,1.395c0,0,2.769,2.433,3.659,2.898c0.89,0.465,0,4.816,0,4.816
				l-6.428-1.582c0,0-1.123-1.622-0.215-3.234c0.908-1.612,1.897-3.195,1.897-3.195l-1.142-0.817L304.552,207.627z"/>
		</g>
		<g>
			<polygon style="fill:#263238;" points="109.772,311.927 315.253,368.747 395.429,311.927 345.253,407.237 173.645,407.237 			"/>
			<polygon style="opacity:0.7;fill:#FFFFFF;enable-background:new    ;" points="109.772,311.927 315.253,368.747 395.429,311.927 
				345.253,407.237 173.645,407.237 			"/>
			<polygon style="opacity:0.1;enable-background:new    ;" points="173.645,407.237 315.253,368.747 345.253,407.237 			"/>
		</g>
		<g>
			<path style="fill:#407BFF;" d="M121.167,409.841c21.12,0,32.686-7.27,47.331-11.226c14.646-3.956,20.677,6.005,32.344,5.97
				c11.667-0.036,26.482-5.574,36.949-4.783c10.467,0.791,16.227,3.89,25.689,4.318c9.462,0.429,23.219-6.842,31.874-4.987
				c8.656,1.855,13.337,4.163,20.572,4.987c7.235,0.824,21.279-5.994,26.386-3.771c5.107,2.222,2.979,5.716,16.598,3.771
				c13.619-1.945,31.068-3.989,40.856,0c9.788,3.989,35.749,3.117,35.749,3.117s0.851,7.597-38.303,6.015
				s-54.358,9.495-73.568,8.703s-56.526-6.883-71.063-5.143c-14.538,1.741-48.585,7.723-58.374,5.183s-30.813-8.334-45.6-6.766
				c-14.786,1.568-47.465,3.956-52.642-2.769C95.968,412.461,100.137,409.841,121.167,409.841z"/>
			<path style="opacity:0.4;fill:#FFFFFF;enable-background:new    ;" d="M397.211,413.25c-39.15-1.58-54.36,9.5-73.56,8.71
				c-19.21-0.8-56.53-6.89-71.07-5.15c-14.54,1.74-48.58,7.73-58.37,5.19c-9.79-2.54-30.82-8.34-45.6-6.77
				c-14.79,1.57-47.47,3.96-52.64-2.77c0,0,3.97-2.49,23.68-2.61c0.5-0.01,1-0.01,1.52-0.01c5.32,0,10.03-0.46,14.34-1.22
				c12.8-2.23,22.03-7.05,32.99-10.01c14.64-3.95,20.67,6.01,32.34,5.97c11.67-0.03,26.48-5.57,36.95-4.78
				c10.47,0.79,16.23,3.89,25.69,4.32c9.46,0.43,23.22-6.84,31.87-4.99c8.66,1.86,13.34,4.17,20.58,4.99
				c7.23,0.82,21.28-5.99,26.38-3.77c3.85,1.67,3.59,4.06,9.03,4.32c1.55,0.07,3.58-0.03,6.3-0.38c0.41-0.05,0.83-0.11,1.27-0.17
				c13.62-1.95,31.07-3.99,40.86,0c1.09,0.45,2.39,0.83,3.83,1.16c5.19,1.2,12.23,1.72,18.39,1.92c7.41,0.24,13.53,0.04,13.53,0.04
				S436.371,414.83,397.211,413.25z"/>
		</g>
		<path style="opacity:0.4;fill:#FFFFFF;enable-background:new    ;" d="M233.641,416.56c-3.96-0.76-28.75,4.44-32.71,3.41
			c-3.95-1.03-7.91-4.77-13.71-4.77c-5.8,0-15.56-1.06-21.63-4.29c-6.06-3.22-13.45-3.36-34.81,0c-14.09,2.22-14.53,1.05-11.13-1.06
			c0.5-0.01,1-0.01,1.52-0.01c5.32,0,10.03-0.46,14.34-1.22c2.42-0.02,5.42-0.4,9.1-1.38c13.82-3.68,19.93-1.01,23.09,2.91
			c3.17,3.92,10.55,2.15,17.67,0.76c7.12-1.38,10.55,3.23,14.77,6.93c4.22,3.69,12.93-1.59,21.79-2.64
			C230.801,414.14,233.641,416.56,233.641,416.56z"/>
		<path style="opacity:0.4;fill:#FFFFFF;enable-background:new    ;" d="M184.056,407.208c9.231-1.505,16.615,4.297,23.209,4.825
			c6.594,0.527,18.198-6.512,22.154-4.575c3.956,1.938,17.881,5.293,23.182,3.483c5.301-1.81,21.389-0.791,21.389-0.791
			s-7.989-4.662-14.541-2.911c-2.641,0.706-5.088,4.76-12.021,2.271c-6.932-2.488-8.779-4.766-16.954-4.023
			c-8.176,0.743-14.769,2.853-20.044,1.798c-5.275-1.055-8.086,0.8-10.286,1.417c-2.2,0.617-8.967-2.925-11.341-3.358
			C186.43,404.913,184.056,407.208,184.056,407.208z"/>
		<path style="opacity:0.4;fill:#FFFFFF;enable-background:new    ;" d="M357.641,404.29c-2.55,0.8-5.21,1.77-7.69,2.92
			c-8.71,4.03-13.19,3.96-19.26,2.94c-6.06-1.02-11.72,1.56-17.86,2.65c-6.14,1.08-13.52-4.27-27.24-2.65
			c-4.52,0.54,11.34-5.24,17.15-2.86c5.8,2.37,7.38,5.72,15.29,2.86c7.92-2.86,11.08-6.56,18.2-2.86c4.41,2.28,9.88-0.17,15.11-2.62
			C352.891,404.74,354.921,404.64,357.641,404.29z"/>
		<path style="opacity:0.4;fill:#FFFFFF;enable-background:new    ;" d="M422.181,407.28c0,0-7.2,3.21-11.1,2.87
			c-3.9-0.33-8.26-4.01-13.99,0c-3.51,2.45-13.29,1.13-17.69-0.21c-4.4-1.34-15.07,3.47-18.97,2.12c-3.89-1.35-9.96,0.89-9.96,0.89
			s4.15-4.52,8.05-3.75c8.7,1.71,9.84-2.19,11.54-2.56c5.12-1.14,8.24,0.21,11.8,1.98c4.74,2.36,8.19,1.35,13.57-1.38
			c1.89-0.96,4.96-1.57,8.17-1.96c5.19,1.2,12.23,1.72,18.39,1.92L422.181,407.28z"/>
	</g>
</g>
<g id="Shark_3">
	<g>
		<path style="fill:#407BFF;" d="M329.949,397.158l-4.707-0.574c0,0,1.582-0.177,2.967-1.375c1.385-1.198-1.187-1.769-1.335-2.028
			c-0.148-0.259,4.347-2.058,4.347-2.058h-5.979l7.478-0.909c1.064-2.157,2.287-4.196,3.712-6.039
			c0.767-0.992-0.115-2.386-1.336-2.099c-9.712,2.287-35.639,11.679-49.602,48.172h40.747
			C326.241,430.249,325.016,412.581,329.949,397.158z"/>
		<path style="fill:#407BFF;" d="M268.35,434.585c0,0,11.868,0,17.67,2.191c5.802,2.191,7.272,0.657,13.263,0
			c5.99-0.658,12.32,1.617,17.067,1.137c4.747-0.48,10.549-3.001,15.56-1.631c5.011,1.37,8.44,3.67,12.659,0
			c4.22-3.67,14.769-4.327,19.517-1.698c4.747,2.63,13.187,0.438,16.615-0.986c3.428-1.424,10.549-0.61,10.549-0.61
			s-5.275-5.417-10.286-3.444c-5.011,1.972-13.714-3.945-23.473-3.945c-9.758,0-16.615,2.411-22.945,1.096
			c-6.33-1.315-18.198-4.602-27.429-2.191c-9.231,2.411-15.033,3.945-23.341,2.411c-8.308-1.534-18.021-2.208-21.013,0.203
			c-2.991,2.411-14.151,2.427-20.899,1.331c-6.748-1.096-10.44,1.534-10.44,1.534s12.213,3.565,17.538,2.301
			C258.658,429.983,263.597,434.434,268.35,434.585z"/>
		<path style="opacity:0.4;fill:#FFFFFF;enable-background:new    ;" d="M391.252,432.99c0,0-5.28-5.417-10.29-3.448
			c-5.01,1.978-13.71-3.939-23.47-3.939c-9.76,0-16.61,2.41-22.94,1.097c-6.33-1.321-18.2-4.603-27.43-2.194
			s-15.04,3.947-23.34,2.41c-8.31-1.537-18.02-2.21-21.02,0.199c-2.99,2.41-14.15,2.426-20.89,1.338
			c-6.75-1.097-10.44,1.529-10.44,1.529s12.21,3.565,17.53,2.302c2.3-0.549,4.33-0.715,6.15-0.64c2.17,0.075,4.05,0.482,5.74,0.972
			c2.88,0.831,5.21,1.903,7.5,1.969c0,0,11.87,0,17.67,2.194c5.8,2.185,7.27,0.656,13.26,0c5.99-0.656,12.32,1.612,17.07,1.138
			c4.75-0.482,10.55-3.008,15.56-1.637c5.01,1.371,8.44,3.673,12.66,0c1.64-1.429,4.24-2.401,7.1-2.9c0,0,0,0,0.01,0
			c2.66-0.465,5.53-0.515,8.03-0.141c1.69,0.249,3.2,0.698,4.37,1.346c4.75,2.626,13.19,0.44,16.62-0.989
			C384.132,432.175,391.252,432.99,391.252,432.99z"/>
		<path style="opacity:0.4;fill:#FFFFFF;enable-background:new    ;" d="M288.662,432.009c0,0-1.92-1.371-4.88-1.678
			c-2.97-0.316-6.73,1.462-11.41,1.462c-4.69,0-8.18-2.634-17.87-0.839c0,0,0.23,0.291,0.61,0.69c2.17,0.075,4.05,0.482,5.74,0.972
			c2.58-0.681,7.16-0.449,10.27,0.324c3.95,0.989,6.4,0.05,8.31-0.931C283.782,429.766,288.662,432.009,288.662,432.009z"/>
		<path style="opacity:0.4;fill:#FFFFFF;enable-background:new    ;" d="M296.834,429.545c4.484,0.877,9.099,0.658,14.506-0.657
			c5.407-1.315,9.758,0.398,12.527,1.404s6.725-1.573,9.89-0.941c3.165,0.632,4.22,1.603,4.22,1.603s-3.429-0.892-5.67,0
			c-2.242,0.892-6.857,2.538-11.077,1.057c-4.22-1.48-8.308,0.038-10.747,0.594c-2.44,0.555-4.634-2.19-6.659-1.651
			C299.339,432.146,296.834,429.545,296.834,429.545z"/>
		<path style="opacity:0.4;fill:#FFFFFF;enable-background:new    ;" d="M370.282,432.641c0,0-3.16,0.191-4.22-0.631
			c-1.05-0.823-4.74-1.944-7.12-1.055c-2.37,0.889-6.06-0.681-8.97-0.665c-2.28,0.017-4.63,1.072-5.54,1.521
			c0.74-0.341,2.46-0.872,4.36,0.199c0.83,0.474,1.8,0.964,2.88,1.371c0,0,0,0,0.01,0c2.66-0.465,5.53-0.515,8.03-0.141
			c0.79-0.324,2.08-0.723,3.32-0.557C365.012,432.94,366.461,433.987,370.282,432.641z"/>
	</g>
</g>
<g id="Shark_2">
	<g>
		<path style="fill:#407BFF;" d="M169.374,444.077c-13.963-36.494-39.889-45.885-49.602-48.172
			c-1.221-0.288-2.103,1.106-1.336,2.099c4.929,6.376,7.541,15.045,8.904,23.144l4.131,1.091h-3.956
			c0.246,1.577,0.449,3.129,0.61,4.63h3.346l-3.23,1.16c0.264,2.746,0.405,5.301,0.47,7.532l2.76,0.605h-2.743
			c0.115,4.773-0.101,7.912-0.101,7.912H169.374z"/>
		<path style="fill:#407BFF;" d="M100.538,442.891c0,0,11.868,0,17.67-2.637c5.802-2.637,7.272-0.791,13.262,0
			c5.99,0.791,12.32-1.946,17.067-1.368c4.747,0.577,10.549,3.612,15.56,1.963c5.011-1.649,8.44-4.417,12.659,0
			c4.22,4.417,14.769,5.208,19.517,2.043c4.747-3.165,13.187-0.527,16.615,1.187c3.429,1.714,10.549,0.734,10.549,0.734
			s-5.275,6.519-10.286,4.145c-5.011-2.374-13.714,4.747-23.472,4.747c-9.758,0-16.615-2.901-22.945-1.319
			c-6.33,1.582-18.198,5.538-27.429,2.637c-9.231-2.901-15.033-4.747-23.341-2.901c-8.308,1.846-18.021,2.657-21.013-0.244
			c-2.991-2.901-14.151-2.921-20.899-1.602c-6.748,1.319-10.44-1.846-10.44-1.846s12.213-4.291,17.538-2.769
			C90.846,448.429,95.786,443.073,100.538,442.891z"/>
		<path style="opacity:0.4;fill:#FFFFFF;enable-background:new    ;" d="M223.44,444.81c0,0-5.28,6.52-10.29,4.15
			c-5.01-2.38-13.71,4.74-23.47,4.74s-16.61-2.9-22.94-1.32c-6.33,1.59-18.2,5.54-27.43,2.64c-9.23-2.9-15.04-4.75-23.34-2.9
			c-8.31,1.85-18.02,2.66-21.02-0.24c-2.99-2.9-14.15-2.92-20.89-1.61c-6.75,1.32-10.44-1.84-10.44-1.84s12.21-4.29,17.53-2.77
			c2.3,0.66,4.33,0.86,6.15,0.77c2.17-0.09,4.05-0.58,5.74-1.17c2.88-1,5.21-2.29,7.5-2.37c0,0,11.87,0,17.67-2.64
			c5.8-2.63,7.27-0.79,13.26,0c5.99,0.79,12.32-1.94,17.07-1.37c4.75,0.58,10.55,3.62,15.56,1.97c5.01-1.65,8.44-4.42,12.66,0
			c1.64,1.72,4.24,2.89,7.1,3.49c0,0,0,0,0.01,0c2.66,0.56,5.53,0.62,8.03,0.17c1.69-0.3,3.2-0.84,4.37-1.62
			c4.75-3.16,13.19-0.53,16.62,1.19C216.32,445.79,223.44,444.81,223.44,444.81z"/>
		<path style="opacity:0.4;fill:#FFFFFF;enable-background:new    ;" d="M120.85,445.99c0,0-1.92,1.65-4.88,2.02
			c-2.97,0.38-6.73-1.76-11.41-1.76c-4.69,0-8.18,3.17-17.87,1.01c0,0,0.23-0.35,0.61-0.83c2.17-0.09,4.05-0.58,5.74-1.17
			c2.58,0.82,7.16,0.54,10.27-0.39c3.95-1.19,6.4-0.06,8.31,1.12C115.97,448.69,120.85,445.99,120.85,445.99z"/>
		<path style="opacity:0.4;fill:#FFFFFF;enable-background:new    ;" d="M129.022,448.956c4.483-1.055,9.099-0.791,14.505,0.791
			s9.758-0.478,12.527-1.69c2.769-1.211,6.725,1.893,9.89,1.132c3.165-0.761,4.22-1.929,4.22-1.929s-3.428,1.074-5.67,0
			c-2.242-1.073-6.857-3.054-11.077-1.273c-4.22,1.782-8.308-0.046-10.747-0.715c-2.439-0.669-4.634,2.635-6.659,1.987
			C131.527,445.826,129.022,448.956,129.022,448.956z"/>
		<path style="opacity:0.4;fill:#FFFFFF;enable-background:new    ;" d="M202.47,445.23c0,0-3.16-0.23-4.22,0.76
			c-1.05,0.99-4.74,2.34-7.12,1.27c-2.37-1.07-6.06,0.82-8.97,0.8c-2.28-0.02-4.63-1.29-5.54-1.83c0.74,0.41,2.46,1.05,4.36-0.24
			c0.83-0.57,1.8-1.16,2.88-1.65c0,0,0,0,0.01,0c2.66,0.56,5.53,0.62,8.03,0.17c0.79,0.39,2.08,0.87,3.32,0.67
			C197.2,444.87,198.65,443.61,202.47,445.23z"/>
	</g>
</g>
</svg>
