<?xml version="1.0" encoding="utf-8"?>
<!-- Generator: Adobe Illustrator 27.5.0, SVG Export Plug-In . SVG Version: 6.00 Build 0)  -->
<svg version="1.1" xmlns="http://www.w3.org/2000/svg" xmlns:xlink="http://www.w3.org/1999/xlink" x="0px" y="0px"
	 viewBox="0 0 500 500" style="enable-background:new 0 0 500 500;" xml:space="preserve">
<g id="Background_Complete">
	<g>
		<rect y="382.398" style="fill:#EBEBEB;" width="500" height="0.25"/>
		<rect x="52.459" y="391.922" style="fill:#EBEBEB;" width="25.997" height="0.25"/>
		<rect x="146.333" y="389.208" style="fill:#EBEBEB;" width="54.101" height="0.25"/>
		<rect x="79.457" y="401.208" style="fill:#EBEBEB;" width="26.317" height="0.25"/>
		<rect x="430.667" y="399.528" style="fill:#EBEBEB;" width="19.235" height="0.25"/>
		<rect x="391.471" y="399.528" style="fill:#EBEBEB;" width="30.292" height="0.25"/>
		<rect x="258.227" y="395.306" style="fill:#EBEBEB;" width="54.556" height="0.25"/>
		<path style="fill:#EBEBEB;" d="M237.014,337.8H43.915c-3.147,0-5.708-2.561-5.708-5.708V60.66c0-3.147,2.561-5.708,5.708-5.708
			h193.099c3.146,0,5.707,2.561,5.707,5.708v271.432C242.721,335.239,240.16,337.8,237.014,337.8z M43.915,55.203
			c-3.01,0-5.458,2.448-5.458,5.458v271.432c0,3.01,2.448,5.458,5.458,5.458h193.099c3.009,0,5.457-2.448,5.457-5.458V60.66
			c0-3.009-2.448-5.458-5.457-5.458H43.915z"/>
		<path style="fill:#EBEBEB;" d="M453.31,337.8H260.212c-3.147,0-5.707-2.561-5.707-5.708V60.66c0-3.147,2.561-5.708,5.707-5.708
			H453.31c3.148,0,5.708,2.561,5.708,5.708v271.432C459.019,335.239,456.458,337.8,453.31,337.8z M260.212,55.203
			c-3.009,0-5.457,2.448-5.457,5.458v271.432c0,3.01,2.448,5.458,5.457,5.458H453.31c3.01,0,5.458-2.448,5.458-5.458V60.66
			c0-3.009-2.448-5.458-5.458-5.458H260.212z"/>
	</g>
	<g>
		<g>
			<rect x="58.218" y="77.444" style="fill:#E6E6E6;" width="158.983" height="148.9"/>
			<rect x="60.886" y="77.444" style="fill:#F0F0F0;" width="162.024" height="148.9"/>
			<rect x="58.218" y="226.344" style="fill:#E6E6E6;" width="158.983" height="6.775"/>
			<rect x="70.398" y="226.344" style="fill:#F0F0F0;" width="162.024" height="6.775"/>
			
				<rect x="75.441" y="78.875" transform="matrix(-1.836970e-16 1 -1 -1.836970e-16 293.7915 9.9962)" style="fill:#FAFAFA;" width="132.914" height="146.038"/>
			<polygon style="fill:#FFFFFF;" points="84.171,218.351 131.087,85.437 153.233,85.437 106.318,218.351 			"/>
			<path style="fill:#E0E0E0;" d="M72.579,222.058c0.316,0,0.571-0.256,0.571-0.571V90.638c0-0.315-0.255-0.571-0.571-0.571
				c-0.316,0-0.571,0.256-0.571,0.571v130.849C72.009,221.802,72.264,222.058,72.579,222.058z"/>
			<polygon style="fill:#FFFFFF;" points="111.075,218.351 157.991,85.437 166.625,85.437 119.71,218.351 			"/>
			
				<rect x="147.952" y="151.386" transform="matrix(-1.836970e-16 1 -1 -1.836970e-16 366.3028 -62.515)" style="fill:#E6E6E6;" width="132.914" height="1.015"/>
			<polygon style="opacity:0.5;fill:#E6E6E6;" points="224.798,101.765 65.816,101.765 65.08,88.544 224.063,88.544 			"/>
			<polygon style="opacity:0.5;fill:#E6E6E6;" points="224.798,115.188 65.816,115.188 65.08,101.967 224.063,101.967 			"/>
			<polygon style="opacity:0.5;fill:#E6E6E6;" points="224.798,128.61 65.816,128.61 65.08,115.389 224.063,115.389 			"/>
			<polygon style="opacity:0.5;fill:#E6E6E6;" points="224.798,142.033 65.816,142.033 65.08,128.812 224.063,128.812 			"/>
			<polygon style="opacity:0.5;fill:#E6E6E6;" points="224.798,155.456 65.816,155.456 65.08,142.235 224.063,142.235 			"/>
			<polygon style="opacity:0.5;fill:#E6E6E6;" points="224.798,168.878 65.816,168.878 65.08,155.657 224.063,155.657 			"/>
		</g>
		<g>
			<g>
				<rect x="220.469" y="261.828" style="fill:#E6E6E6;" width="45.281" height="120.57"/>
				<polygon style="fill:#F0F0F0;" points="258.885,382.398 265.75,382.398 265.75,365.979 251.687,365.979 				"/>
				<rect x="52.581" y="261.828" style="fill:#E6E6E6;" width="45.282" height="120.57"/>
				<rect x="91.871" y="261.828" style="fill:#F0F0F0;" width="173.879" height="110.495"/>
				<rect x="97.197" y="266.725" style="fill:#E6E6E6;" width="163.228" height="30.302"/>
				<path style="fill:#F0F0F0;" d="M200.409,274.661h-43.188c-18.759,0-36.693-3.738-49.596-10.338l0,0h142.379l0,0
					C237.102,270.923,219.168,274.661,200.409,274.661z"/>
				<polygon style="fill:#F0F0F0;" points="98.736,382.398 91.871,382.398 91.871,365.979 105.934,365.979 				"/>
				<rect x="97.197" y="301.924" style="fill:#E6E6E6;" width="163.228" height="30.302"/>
				<path style="fill:#F0F0F0;" d="M200.409,309.861h-43.188c-18.759,0-36.693-3.738-49.596-10.338l0,0h142.379l0,0
					C237.102,306.122,219.168,309.861,200.409,309.861z"/>
				<rect x="97.197" y="337.124" style="fill:#E6E6E6;" width="163.228" height="30.302"/>
				<path style="fill:#F0F0F0;" d="M200.409,345.06h-43.188c-18.759,0-36.693-3.738-49.596-10.338l0,0h142.379l0,0
					C237.102,341.322,219.168,345.06,200.409,345.06z"/>
			</g>
		</g>
		<g>
			
				<rect x="318.489" y="86.204" transform="matrix(-1 -1.224647e-16 1.224647e-16 -1 732.2823 299.879)" style="fill:#E6E6E6;" width="95.305" height="127.471"/>
			
				<rect x="312.293" y="86.204" transform="matrix(-1 -1.224647e-16 1.224647e-16 -1 724.7531 299.879)" style="fill:#F0F0F0;" width="100.166" height="127.471"/>
			
				<rect x="312.507" y="113.722" transform="matrix(-1.836970e-16 1 -1 -1.836970e-16 512.3162 -212.4373)" style="fill:#FFFFFF;" width="99.741" height="72.435"/>
			
				<rect x="334.855" y="163.183" transform="matrix(-1 -1.224647e-16 1.224647e-16 -1 724.7532 335.1917)" style="fill:#F0F0F0;" width="55.043" height="8.826"/>
			
				<rect x="342.397" y="175.893" transform="matrix(-1 -1.224647e-16 1.224647e-16 -1 724.7532 360.6128)" style="fill:#F0F0F0;" width="39.959" height="8.826"/>
			<circle style="fill:#F0F0F0;" cx="362.377" cy="132.793" r="20.742"/>
			
				<rect x="276.832" y="149.397" transform="matrix(-1.836970e-16 1 -1 -1.836970e-16 476.6413 -176.7624)" style="fill:#E6E6E6;" width="99.741" height="1.086"/>
		</g>
		<g>
			<g>
				<path style="fill:#F0F0F0;" d="M359.037,294.898c-0.084-0.409-0.441-0.701-0.863-0.701h-10.527h-12.372h-10.527
					c-0.422,0-0.778,0.292-0.863,0.701l-11.852,87.5h1.797l11.638-86.442h31.986l11.637,86.442h1.797L359.037,294.898z"/>
				<path style="fill:#F0F0F0;" d="M423.747,294.898c-0.084-0.409-0.441-0.701-0.863-0.701h-10.527h-12.372h-10.527
					c-0.422,0-0.778,0.292-0.863,0.701l-11.852,87.5h1.797l11.637-86.442h31.986l11.638,86.442h1.797L423.747,294.898z"/>
				<path style="fill:#E0E0E0;" d="M424.699,287.518H319.583c-5.023,0-9.095,2.418-9.095,5.402v0.185c0,1.088,1.485,1.97,3.317,1.97
					h116.673c1.832,0,3.317-0.882,3.317-1.97v-0.185C433.795,289.936,429.722,287.518,424.699,287.518z"/>
			</g>
			<g>
				<polygon style="fill:#E6E6E6;" points="431.135,244.205 361.629,244.205 351.555,285.249 421.062,285.249 				"/>
				<polygon style="fill:#E6E6E6;" points="421.062,285.249 420.78,287.518 351.27,287.518 351.551,285.249 				"/>
				<polygon style="fill:#F0F0F0;" points="428.996,244.205 359.489,244.205 349.415,285.249 418.922,285.249 				"/>
				<polygon style="fill:#FFFFFF;" points="417.452,283.374 426.605,246.08 360.96,246.08 351.806,283.374 				"/>
				<polygon style="fill:#F0F0F0;" points="400.811,285.249 400.53,287.518 323.989,287.518 324.27,285.249 				"/>
			</g>
		</g>
	</g>
</g>
<g id="Background_Simple" style="display:none;">
	<g style="display:inline;">
		<path style="fill:#407BFF;" d="M169.82,239.106c4.032,48.372-3.8,86.764,39.417,119.602
			c29.17,22.165,72.958,32.551,105.936,14.553c59.657-32.558,123.416-154.04,56.057-209.946
			c-32.917-27.321-70.761-30.983-100.451-66.123c-29.605-35.04-56.506-63.877-107.839-47.487
			c-32.878,10.498-63.721,44.385-55.604,81.021C117.15,175.017,165.289,184.752,169.82,239.106z"/>
		<path style="opacity:0.9;fill:#FFFFFF;" d="M169.82,239.106c4.032,48.372-3.8,86.764,39.417,119.602
			c29.17,22.165,72.958,32.551,105.936,14.553c59.657-32.558,123.416-154.04,56.057-209.946
			c-32.917-27.321-70.761-30.983-100.451-66.123c-29.605-35.04-56.506-63.877-107.839-47.487
			c-32.878,10.498-63.721,44.385-55.604,81.021C117.15,175.017,165.289,184.752,169.82,239.106z"/>
	</g>
</g>
<g id="Shadow_1_">
	<ellipse id="_x3C_Path_x3E__77_" style="fill:#F5F5F5;" cx="250" cy="416.238" rx="193.889" ry="11.323"/>
</g>
<g id="Character_1">
	<g>
		<g>
			<g>
				
					<rect x="79.808" y="332.157" transform="matrix(0.9473 -0.3203 0.3203 0.9473 -103.206 43.394)" style="fill:#407BFF;" width="1" height="6.538"/>
				<path style="fill:#407BFF;" d="M77.487,327.085c-0.852-5.99,0.372-11.649,3.446-15.934c2.326-3.241,5.639-5.67,9.583-7.023
					l0.324,0.946c-3.799,1.304-6.858,3.545-9.094,6.661c-2.923,4.075-4.084,9.476-3.269,15.21L77.487,327.085z"/>
				<path style="fill:#407BFF;" d="M353.977,370.648H198.546l-13.281-39.279c-4.675-13.827-19.673-25.035-33.5-25.035H98.673
					c-13.827,0-21.245,11.209-16.57,25.035l13.303,39.345c4.261,12.602,16.083,21.085,29.387,21.085h80.905h148.28
					c4.053,0,7.338-3.285,7.338-7.338v-6.475C361.315,373.933,358.03,370.648,353.977,370.648z"/>
				<path style="opacity:0.2;fill:#FFFFFF;" d="M185.265,331.369c-4.675-13.827-19.673-25.035-33.5-25.035h-35.754
					c-13.827,0-21.245,11.209-16.57,25.035l13.303,39.345l85.802-0.065L185.265,331.369z"/>
				<path style="opacity:0.2;fill:#FFFFFF;" d="M265.491,370.648h88.487c4.053,0,7.338,3.285,7.338,7.338v6.475
					c0,4.053-3.285,7.338-7.338,7.338h-88.487c-4.053,0-7.338-3.285-7.338-7.338v-6.475
					C258.153,373.933,261.438,370.648,265.491,370.648z"/>
			</g>
			<g>
				<polygon style="fill:#263238;" points="270.131,411.222 265.491,411.222 265.491,391.798 273.044,391.798 				"/>
				<polygon style="fill:#263238;" points="349.337,411.222 353.977,411.222 353.977,391.798 346.423,391.798 				"/>
				<polygon style="fill:#263238;" points="135.027,411.222 130.387,411.222 130.387,391.798 137.941,391.798 				"/>
				<polygon style="fill:#263238;" points="214.233,411.222 218.873,411.222 218.873,391.798 211.32,391.798 				"/>
			</g>
		</g>
		<g>
			<path style="fill:#263238;" d="M148.322,271.941c0.813,3.271,4.473,6.555,5.54,7.881c1.067,1.326-4.263,2.827-4.263,2.827
				l-5.345-5.79L148.322,271.941z"/>
			<path style="fill:#263238;" d="M151.88,298.002l2.018,0.115l2.186,0.103c1.466,0.047,2.939,0.112,4.407,0.119
				c2.934,0.044,5.855-0.024,8.7-0.188c1.422-0.086,2.83-0.207,4.199-0.382c1.373-0.152,2.726-0.339,4.014-0.595
				c2.587-0.505,4.98-1.185,6.917-2.06l-3.5,3.775c1.052-1.903,2.127-3.91,3.132-6.01c0.979-2.117,2.012-4.264,2.955-6.479
				c0.977-2.205,1.926-4.448,2.889-6.707c0.967-2.241,1.921-4.579,2.918-6.764l0.09-0.197c1.095-2.4,3.929-3.458,6.329-2.362
				c1.732,0.79,2.764,2.491,2.793,4.275c0.041,2.745-0.115,5.305-0.341,7.941c-0.235,2.617-0.592,5.223-1.025,7.838
				c-0.474,2.602-1.005,5.228-1.71,7.842c-0.714,2.618-1.531,5.265-2.588,7.919c-0.579,1.453-1.591,2.604-2.828,3.363l-0.672,0.412
				c-3.677,2.259-7.4,3.724-11.044,4.742c-3.646,1.049-7.238,1.694-10.787,2.105c-3.55,0.444-7.056,0.589-10.542,0.614
				c-1.743-0.009-3.481-0.031-5.222-0.139c-0.871-0.052-1.743-0.103-2.622-0.182l-1.33-0.132l-1.451-0.167
				c-5.186-0.596-8.908-5.283-8.312-10.469c0.574-4.996,4.945-8.633,9.902-8.36L151.88,298.002z"/>
			<path style="fill:#407BFF;" d="M198.546,270.111c-5.125-1.152-6.101,1.944-6.601,4.389s1.282,5.85,5.35,6.794
				c4.068,0.944,4.732-1.867,4.928-3.335C202.418,276.491,204.48,271.444,198.546,270.111z"/>
			<path style="fill:#B55B52;" d="M201.019,277.363l3.766-2.348l-6.581-7.874c0,0-6.294,3.312-4.911,6.843l2.881,2.841
				C197.47,278.104,199.474,278.327,201.019,277.363z"/>
			<path style="fill:#B55B52;" d="M193.246,273.82c-1.158-5.985,4.336-7.719,4.825-10.765c0.159-0.988,1.256-0.901,1.456-0.113
				c0.318,1.252,0.086,2.889-0.422,3.487c-0.713,0.838,3.073,5.355-0.324,7.36C196.786,273.227,193.246,273.82,193.246,273.82z"/>
			<path style="fill:#B55B52;" d="M207.99,267.198l-1.048-1.378c-1.174-1.543-3.323-1.953-4.982-0.95l-3.756,2.271l6.581,7.874
				l2.854-2.826C208.993,270.85,209.143,268.715,207.99,267.198z"/>
			<path style="fill:#263238;" d="M311.455,369.017c-1.192-2.012-3.6-1.478-6.331-2.042c0,0,4.524-11.701,6.995-10.263
				c5.063,2.945,11.039-1.359,16.332-7.389c0.741-0.844,2.636,1.753,1.337,4.008c-3.25,5.642-7.914,8.03-10.346,10.793
				c-2.079,2.363-2.097,4.221-4.071,5.802C313.724,371.247,312.653,371.039,311.455,369.017z"/>
			<path style="fill:#263238;" d="M278.456,367.295c0.591-2.263,1.185-5.432-0.335-7.769c0,0,11.498-5.018,12.215-2.25
				c1.469,5.67,2.849,8.293,12.571,10.045c1.105,0.199,3.128,3.44,0.526,3.44c-7.523,0-12.222-0.809-15.896-0.593
				c-3.142,0.185-4.457,0.841-6.97,0.551C278.468,370.476,277.862,369.568,278.456,367.295z"/>
			<path style="fill:#263238;" d="M155.565,300.247c-8.881-0.728-20.436,1.236-27.137,6.348c-4.352,3.32-6.479,8.787-5.179,14.104
				c5.346,21.864,33.207,51.861,67.336,51.861l22.891-42.704c0,0,2.521-15.946-30.993-14.253
				C172.869,305.726,164.383,300.97,155.565,300.247z"/>
			<g>
				<path style="fill:#407BFF;" d="M210.242,326.705c0,0,26.492-10.238,59.588-14.78c18.256-2.506,21.582,48.035,21.582,48.035
					l-13.291,2.179c-2.452-14.061-10.101-17.867-13.488-28.493c-14.263,13.288-45.835,24.757-69.481,15.13
					c3.619-9.437,4.945-10.924,8.601-16.567C206.844,327.438,210.242,326.705,210.242,326.705z"/>
				<path style="opacity:0.3;" d="M210.242,326.705c0,0,26.492-10.238,59.588-14.78c18.256-2.506,21.582,48.035,21.582,48.035
					l-13.291,2.179c-2.452-14.061-10.101-17.867-13.488-28.493c-14.263,13.288-45.835,24.757-69.481,15.13
					c3.619-9.437,4.945-10.924,8.601-16.567C206.844,327.438,210.242,326.705,210.242,326.705z"/>
			</g>
			<g>
				<path style="fill:#407BFF;" d="M200.346,337.498c0,0,36.773,0.54,69.171,8.688c15.532,3.906,44.95,10.526,44.95,10.526
					l-5.71,11.516c0,0-18.757,1.389-49.204-3.929c-20.547,7.563-38.886,8.261-68.969,8.261
					C190.39,353.634,200.346,337.498,200.346,337.498z"/>
				<path style="opacity:0.2;" d="M200.346,337.498c0,0,36.773,0.54,69.171,8.688c15.532,3.906,44.95,10.526,44.95,10.526
					l-5.71,11.516c0,0-18.757,1.389-49.204-3.929c-20.547,7.563-38.886,8.261-68.969,8.261
					C190.39,353.634,200.346,337.498,200.346,337.498z"/>
			</g>
			<path style="fill:#263238;" d="M141.395,319.589l-0.936,8.934c-0.315,3.013-0.57,6.026-0.831,9.019
				c-0.107,1.491-0.232,2.991-0.3,4.47c-0.115,1.489-0.171,2.955-0.24,4.427c-0.074,2.919-0.126,5.798-0.004,8.543l-2.106-4.685
				c1.142,1.502,2.599,3.018,4.369,4.401c0.897,0.676,1.829,1.364,2.826,2.015c1.001,0.647,2.054,1.254,3.142,1.852
				c2.179,1.192,4.512,2.273,6.931,3.263c1.21,0.493,2.438,0.98,3.683,1.423c0.62,0.229,1.245,0.455,1.868,0.663l1.777,0.62
				l0.53,0.185c2.456,0.856,3.753,3.542,2.897,5.998c-0.65,1.866-2.36,3.061-4.219,3.154c-0.929,0.045-1.636,0.086-2.441,0.101
				c-0.78,0.009-1.552-0.001-2.327-0.017c-1.543-0.059-3.089-0.156-4.632-0.332c-3.089-0.339-6.179-0.945-9.278-1.814
				c-3.08-0.917-6.195-2.07-9.217-3.718c-1.512-0.823-3.005-1.762-4.469-2.808c-1.465-1.059-2.851-2.291-4.19-3.625
				c-1.087-1.083-1.743-2.434-1.97-3.84l-0.136-0.846c-0.571-3.528-0.916-6.957-1.084-10.347c-0.177-3.378-0.201-6.712-0.123-10.025
				c0.063-3.309,0.278-6.589,0.546-9.859c0.151-1.633,0.295-3.266,0.505-4.896c0.192-1.653,0.419-3.212,0.707-4.976
				c0.842-5.156,5.705-8.653,10.861-7.811c4.966,0.811,8.393,5.353,7.886,10.293L141.395,319.589z"/>
			<path style="fill:#407BFF;" d="M165.156,373.52c4.063-3.141,1.347-6.551-0.656-8.062c-2.004-1.511-6.151-2.266-9.458,1.083
				c-2.375,2.405-1.674,6.865-0.375,7.583C155.966,374.843,159.731,377.715,165.156,373.52z"/>
			<path style="fill:#B55B52;" d="M164.772,367.741l3.437,2.171l-6.282,7.428c0,0-5.948-3.175-4.618-6.514l2.645-2.578
				C161.25,366.984,163.242,366.775,164.772,367.741z"/>
			<path style="fill:#B55B52;" d="M171.204,377.34l-1.001,1.3c-1.121,1.457-3.161,1.833-4.728,0.873l-3.548-2.174l6.282-7.428
				l2.69,2.694C172.175,373.884,172.305,375.909,171.204,377.34z"/>
			<path style="fill:#B55B52;" d="M130,285.116c2.411,5.213,5.581,14.455,2.974,20.102c-0.732,1.585-0.063,3.501,1.501,4.276
				c2.568,1.274,7.224,2.331,15.275,0.809c9.846-1.86,10.156-4.314,8.88-5.955c-0.86-1.106-2.413-1.711-4.092-1.85
				c-3.235-2.572-6.797-8.048-5.206-11.943L130,285.116z"/>
			<path style="opacity:0.2;" d="M149.281,290.709l-10.909,6.012c-0.515,0.83,2.049,4.204,6.295,4.687
				c2.627,0.305,5.139-0.347,7.325-1.482C149.817,297.183,148.219,293.557,149.281,290.709z"/>
			<path style="fill:#263238;" d="M149.382,270.47c-0.333-5.664-4.062-7.723-4.062-7.723s-1.835,2.769-0.932,5.913l-8.544,6.851
				C139.527,278.758,149.714,276.134,149.382,270.47z"/>
			<path style="fill:#B55B52;" d="M127.592,284.983c4.097,7.493,6.115,12.087,11.872,14.217c8.659,3.204,16.524-4.802,14.747-13.369
				c-1.599-7.71-8.031-18.669-17.025-18.192C128.324,268.109,123.495,277.49,127.592,284.983z"/>
			<path style="fill:#263238;" d="M140.308,281.643c0.295,0.628,0.867,0.981,1.278,0.788c0.411-0.193,0.504-0.858,0.209-1.487
				c-0.295-0.628-0.867-0.981-1.278-0.788C140.107,280.35,140.013,281.015,140.308,281.643z"/>
			<path style="fill:#263238;" d="M147.409,278.308c0.295,0.628,0.867,0.981,1.278,0.788c0.411-0.193,0.504-0.859,0.209-1.487
				c-0.295-0.628-0.867-0.981-1.278-0.788C147.208,277.015,147.114,277.68,147.409,278.308z"/>
			<path style="fill:#A02724;" d="M145.298,279.681c0,0,3.131,2.953,5.525,3.964c-0.624,1.559-2.737,1.973-2.737,1.973
				L145.298,279.681z"/>
			<path style="fill:#263238;" d="M143.936,289.039c-0.394,0.258-0.791,0.583-1.176,0.991c-0.077,0.082-0.073,0.211,0.008,0.288
				c0.082,0.077,0.21,0.074,0.288-0.008c2.086-2.218,4.613-1.794,4.639-1.788c0.111,0.02,0.217-0.053,0.237-0.164
				c0.02-0.111-0.054-0.217-0.165-0.237C147.675,288.103,145.837,287.795,143.936,289.039z"/>
			<path style="fill:#263238;" d="M136.531,276.966c-0.12,0.101-0.176,0.267-0.129,0.428c0.513,1.744-0.45,2.897-0.46,2.908
				c-0.146,0.171-0.126,0.429,0.045,0.575c0.171,0.146,0.429,0.128,0.575-0.045c0.051-0.061,1.258-1.505,0.622-3.668
				c-0.063-0.216-0.29-0.34-0.506-0.276C136.622,276.905,136.572,276.931,136.531,276.966z"/>
			<path style="fill:#263238;" d="M146.08,272.367c-0.09,0.012-0.177,0.054-0.244,0.126c-0.154,0.164-0.146,0.422,0.019,0.576
				c1.645,1.541,3.478,1.115,3.556,1.095c0.219-0.053,0.352-0.274,0.299-0.493c-0.054-0.218-0.277-0.348-0.492-0.299
				c-0.07,0.019-1.497,0.327-2.805-0.898C146.319,272.387,146.197,272.352,146.08,272.367z"/>
			<path style="fill:#263238;" d="M132.53,282.927c0.847,3.263,4.508,3.8,5.589,5.115c1.081,1.315-4.234,2.871-4.234,2.871
				l-3.385-2.749L132.53,282.927z"/>
			<g>
				<path style="fill:#B55B52;" d="M126.548,292.423c1.787,1.452,4.038,1.998,5.864,1.844c2.747-0.232,2.986-2.898,1.273-4.968
					c-1.543-1.864-4.831-3.989-7.131-2.729C124.287,287.811,124.504,290.763,126.548,292.423z"/>
			</g>
			<path style="fill:#263238;" d="M131.811,287.587c2.102-2.394-0.244-9.277-1.295-10.716c1.226-1.03,5.941-6.241,3.357-9.438
				c-2.584-3.197-9.24,0-9.24,0s0.526,1.358,2.146,1.752c-2.934,0.876-7.007,2.978-7.488,6.744c2.759,0,2.846-0.438,2.846-0.438
				s-3.854,6.591-2.014,10.127c1.839-0.055,1.796-1.845,1.796-1.845S123.286,288.813,131.811,287.587z"/>
			<path style="fill:#263238;" d="M137.902,264.455c-3.81-4.204-8.977-2.102-8.977-2.102s-0.306,2.627,2.584,4.16l-0.993,10.357
				C135.421,277.09,141.712,268.659,137.902,264.455z"/>
			<path style="fill:#263238;" d="M144.559,266.369c-1.06-5.574-6.565-6.473-6.565-6.473s-1.631,2.082,0.036,4.897l-6.246,8.322
				C135.855,275.858,145.619,271.943,144.559,266.369z"/>
			<path style="fill:#407BFF;" d="M193.333,372.56c-2,1.023-4.917,0-4.917,0s-1.558-37.774,22.903-49.553
				c1.535-0.019,2.533,2.39,2.533,2.39s-10.742,7.27-15.964,21.715C192.667,361.556,193.333,372.56,193.333,372.56z"/>
		</g>
	</g>
</g>
<g id="Character_2">
	<g>
		<path style="fill:#FFC3BD;" d="M357.831,148.647c-1.112,5.673-2.222,16.068,1.747,19.854c0,0-10.992,2.203-19.463,10.75
			c-3.988-7.402,1.83-10.749,1.83-10.749c6.326-1.511,6.163-6.205,5.061-10.613L357.831,148.647z"/>
		<path style="fill:#263238;" d="M341.892,173.62c1.295-5.246-2.598-6.061,3.837-8.565c5.039-1.961,14.622-2.053,16.9-0.342
			c1.27,0.954-0.396,4.176-0.396,4.176L341.892,173.62z"/>
		<path style="fill:#FFC3BD;" d="M371.628,173.402c0.214,0.495,0.327,0.779,0.474,1.151l0.396,1.04
			c0.259,0.686,0.472,1.375,0.693,2.061c0.428,1.374,0.809,2.752,1.148,4.14c0.687,2.774,1.138,5.606,1.422,8.47
			c0.533,5.722,0.27,11.642-1.205,17.401c-0.191,0.718-0.377,1.435-0.609,2.143l-0.167,0.532l-0.083,0.266l-0.144,0.424
			c-0.282,0.818-0.692,1.536-1.133,2.16c-0.9,1.235-1.899,2.04-2.81,2.621c-0.922,0.585-1.791,0.983-2.62,1.307
			c-3.289,1.232-6.148,1.524-8.99,1.75c-5.654,0.343-10.976-0.057-16.397-0.931c-1.596-0.257-2.681-1.759-2.424-3.355
			c0.214-1.329,1.292-2.304,2.569-2.444l0.116-0.012c5.021-0.549,10.187-1.197,14.899-2.225c1.174-0.259,2.321-0.551,3.382-0.898
			c1.058-0.332,2.06-0.711,2.8-1.122c0.737-0.367,1.167-0.936,0.821-0.641c-0.081,0.082-0.166,0.225-0.254,0.417l-0.021,0.06
			l0.023-0.104l0.046-0.207l0.093-0.413c0.135-0.545,0.231-1.105,0.334-1.66c0.782-4.46,0.763-9.129,0.154-13.787
			c-0.292-2.331-0.754-4.656-1.305-6.959c-0.278-1.15-0.591-2.293-0.938-3.415l-0.539-1.659l-0.275-0.802l-0.246-0.672l-0.107-0.292
			c-1.114-3.044,0.45-6.414,3.493-7.528C367.156,169.146,370.399,170.575,371.628,173.402z"/>
		<path style="fill:#FFC3BD;" d="M343.255,217.992l-8.869-0.952l3.209-7.803c0,0,4.672,2.098,7.598,4.223L343.255,217.992z"/>
		<path style="fill:#FFC3BD;" d="M330.985,212.864l1.93-3.214c0.407-0.678,1.191-1.035,1.97-0.896l2.709,0.482l-3.209,7.803
			l-2.705-1.532C330.746,214.978,330.432,213.784,330.985,212.864z"/>
		<path style="fill:#407BFF;" d="M368.903,169.395c4.376,3.016,7.52,8.919,9.616,19.828c-1.957,3.915-15.875,8.129-15.875,8.129
			S353.613,161.04,368.903,169.395z"/>
		<g>
			<path style="fill:#263238;" d="M339.229,218.381l-25.821,5.209c-1.52,0.307-3.305-0.628-3.967-2.076l-17.017-37.261
				c-0.661-1.449,0.041-2.885,1.561-3.191l25.821-5.209c1.52-0.307,3.305,0.628,3.967,2.076l17.017,37.261
				C341.452,216.638,340.749,218.074,339.229,218.381z"/>
			<path style="fill:#FFFFFF;" d="M313.026,221.169c-0.562,0.113-1.217-0.229-1.461-0.765l-17.017-37.261
				c-0.245-0.536,0.013-1.062,0.575-1.176l25.821-5.209c0.562-0.114,1.217,0.229,1.461,0.765l17.017,37.261
				c0.245,0.536-0.013,1.062-0.575,1.176L313.026,221.169z"/>
			<path style="fill:#407BFF;" d="M306.724,192.046c-0.213,0-0.429-0.064-0.616-0.197c-0.482-0.341-0.595-1.007-0.254-1.489
				l6.347-8.957c0.34-0.481,1.006-0.595,1.488-0.254c0.481,0.341,0.595,1.007,0.254,1.488l-6.347,8.957
				C307.388,191.889,307.058,192.046,306.724,192.046z"/>
		</g>
		<path style="fill:#407BFF;" d="M324.747,181.874c0.167,3.818-5.861,12.646,1.579,17.764c0.875,7.714,1.971,15.305,4.027,27.951
			h38.831c-4.14-13.975-1.25-23.404,3.889-48.017c1.191-5.706-2.822-11.187-8.622-11.771c-1.55-0.156-3.191-0.286-4.872-0.367
			c-6.534-0.315-11.888-0.523-17.632,0.001c-1.904,0.174-3.872,0.415-5.751,0.678C329.412,169.064,324.448,175.032,324.747,181.874z
			"/>
		<path style="fill:#263238;" d="M329.3,222.396c-0.304,1.521,0.697,2.993,0.697,2.993s17.304-3.538,38.353-0.963
			c0.396-1.464-0.187-2.801-0.187-2.801S351.745,218.84,329.3,222.396z"/>
		<path style="fill:#FFC3BD;" d="M309.426,199.446l1.006-8.181l-8.077,2.439c0,0,1.636,4.853,3.468,7.971L309.426,199.446z"/>
		<path style="fill:#FFC3BD;" d="M306.605,187.477l-3.386,1.611c-0.715,0.34-1.145,1.085-1.083,1.874l0.218,2.743l8.077-2.439
			l-1.263-2.841C308.733,187.444,307.574,187.016,306.605,187.477z"/>
		<path style="fill:#FFC3BD;" d="M339.291,179.825c-0.388,1.504-0.759,2.795-1.189,4.157c-0.412,1.346-0.877,2.669-1.337,3.993
			c-0.95,2.637-1.975,5.248-3.117,7.818c-1.117,2.579-2.365,5.115-3.709,7.613c-1.316,2.51-2.833,4.945-4.407,7.347l-0.203,0.309
			c-0.831,1.269-2.182,2.018-3.582,2.157c-2.272,0.213-4.706-0.126-6.824-1.003c-2.134-0.855-3.876-2.205-5.261-3.634
			c-1.373-1.458-2.416-3.03-3.233-4.643c-0.41-0.806-0.751-1.63-1.056-2.46c-0.305-0.86-0.525-1.623-0.755-2.641
			c-0.355-1.568,0.629-3.126,2.197-3.481c1.08-0.245,2.157,0.146,2.837,0.926l0.389,0.449c0.347,0.399,0.815,1.007,1.245,1.489
			c0.434,0.511,0.893,0.993,1.352,1.447c0.922,0.903,1.875,1.684,2.812,2.236c0.926,0.571,1.83,0.872,2.604,0.988
			c0.784,0.116,1.477,0.009,2.238-0.176l-3.784,2.466c1.197-2.214,2.345-4.463,3.406-6.788c1.051-2.325,2.062-4.681,2.998-7.081
			c0.928-2.401,1.839-4.818,2.675-7.262l1.227-3.667c0.388-1.203,0.8-2.49,1.127-3.581l0.04-0.134
			c0.933-3.105,4.207-4.867,7.313-3.934C338.322,173.645,340.069,176.79,339.291,179.825z"/>
		<path style="fill:#407BFF;" d="M332.917,169.014c-4.819,2.241-9.583,6.677-11.526,17.174c1.274,4.188,14.36,11.163,14.36,11.163
			S349.391,163.337,332.917,169.014z"/>
		<path style="fill:#263238;" d="M333.149,143.416c0.15,0.756-0.129,1.449-0.623,1.548c-0.494,0.098-1.017-0.435-1.168-1.192
			c-0.15-0.756,0.129-1.449,0.623-1.547C332.476,142.126,332.999,142.66,333.149,143.416z"/>
		<path style="fill:#263238;" d="M332.209,142.223l-1.921-0.163C330.288,142.06,331.502,143.294,332.209,142.223z"/>
		<path style="fill:#ED847E;" d="M332.994,144.258c0,0-0.636,3.511-1.737,5.363c1.184,0.734,2.797-0.03,2.797-0.03L332.994,144.258z
			"/>
		<path style="fill:#263238;" d="M332.811,149.027c-0.86,0-1.755-0.388-2.586-1.133c-1.048-0.939-1.874-2.341-2.327-3.949
			c-0.945-3.359,0.059-6.59,2.24-7.204c1.078-0.304,2.264,0.062,3.343,1.029c1.047,0.939,1.874,2.341,2.326,3.949
			c0.945,3.358-0.059,6.59-2.239,7.204C333.32,148.992,333.067,149.027,332.811,149.027z M330.891,137.138
			c-0.21,0-0.417,0.028-0.618,0.085c-1.915,0.539-2.765,3.494-1.894,6.588c0.427,1.518,1.201,2.836,2.179,3.712
			c0.946,0.848,1.968,1.175,2.874,0.92c1.915-0.539,2.765-3.495,1.893-6.588l0,0c-0.427-1.518-1.201-2.836-2.179-3.712
			C332.41,137.482,331.629,137.138,330.891,137.138z"/>
		<path style="fill:#263238;" d="M330.587,139.634c-0.113,0.001-0.226-0.039-0.314-0.121c-0.183-0.171-0.193-0.458-0.022-0.64
			c1.709-1.831,3.772-1.496,3.86-1.48c0.246,0.043,0.411,0.277,0.368,0.524c-0.043,0.246-0.277,0.41-0.523,0.369
			c-0.081-0.014-1.685-0.251-3.043,1.205C330.825,139.584,330.706,139.633,330.587,139.634z"/>
		<path style="fill:#FFC3BD;" d="M357.656,135.971c1.287,9.401,2.029,13.353-1.625,19.036c-5.495,8.548-17.105,8.015-21.122-0.825
			c-3.616-7.957-5.113-21.994,3.069-27.463C346.04,121.33,356.369,126.571,357.656,135.971z"/>
		<path style="fill:#263238;" d="M343.744,156.112c5.865,2.829,17.481,1.059,21.294-7.464c3.812-8.524-0.123-20.52-9.028-23.156
			c-8.728-2.584-16.516-0.106-17.653,8.851C337.219,143.299,338.702,153.68,343.744,156.112z"/>
		<path style="fill:#263238;" d="M328.138,144.128c-0.127,0-0.236-0.096-0.249-0.226c-0.013-0.137,0.087-0.26,0.225-0.273
			c0.119-0.012,11.995-1.164,18.116-0.544c0.137,0.014,0.237,0.137,0.223,0.274c-0.014,0.138-0.136,0.236-0.274,0.224
			c-6.071-0.616-17.897,0.533-18.017,0.544C328.154,144.127,328.146,144.128,328.138,144.128z"/>
		<path style="fill:#FFC3BD;" d="M330.353,227.589c0,0-0.073,50.87,3.787,83.174c0.608,30.327,4.065,101.15,4.065,101.15h7.654
			c0,0,11.878-60.362,8.141-96.271c15.581-51.305,5.339-88.054,5.339-88.054H330.353z"/>
		<g>
			<path style="fill:#263238;" d="M337.905,405.653c-2.229,2.269-4.488,9.072-11.937,11.326c-4.825,1.46-2.901,2.966,4.395,2.966
				c8.423,0,10.758-3.678,13.606-3.678c2.847,0,4.491-1.836,2.53-7.889C340.145,407.644,337.905,405.653,337.905,405.653z"/>
			<path style="fill:#263238;" d="M347.132,411.097c0.551,3.657-0.13,8.847-0.13,8.847h-2.313l-2.67-5.863L347.132,411.097z"/>
		</g>
		<path style="fill:#FFC3BD;" d="M340.501,227.589c0,0,15.884,59.336,24.889,86.948c9.456,28.999,18.32,95.18,18.343,97.376h6.618
			c0,0,6.837-53.643-5.154-97.404c-3.239-70.976-16.013-86.921-16.013-86.921H340.501z"/>
		<g>
			<path style="fill:#263238;" d="M383.117,406.669c-1.693,2.826-3.659,9.004-8.222,10.309c-4.563,1.305-2.713,2.966,4.129,2.966
				c4.635,0,5.963-3.678,8.634-3.678c2.67,0,4.937-1.847,3.081-7.9C385.192,408.962,383.117,406.669,383.117,406.669z"/>
			<path style="fill:#263238;" d="M391.375,411.365c0.435,3.115-0.086,8.579-0.086,8.579h-3.803l-2.375-5.863L391.375,411.365z"/>
		</g>
		<path style="fill:#7F3E3B;" d="M341.874,145.188c-0.248,1.985-1.309,3.526-2.52,4.329c-1.822,1.208-3.527-0.667-3.687-3.078
			c-0.143-2.171,0.632-5.415,2.781-5.628C340.565,140.6,342.158,142.918,341.874,145.188z"/>
		<g>
			<path style="fill:#263238;" d="M366.899,151.222c-4.901-2.301-17.254,1.808-25.994,8.458c-2.52-3.38-3.73-8.57-3.73-8.57
				s0.17,4.14,2.35,9.65c-0.73,0.58-1.42,1.18-2.07,1.78c-1.85-4.6-4.06-16.44-3.61-25.86c-0.78-0.74-2.61-0.61-3.72-1.48
				c0.67-12.63,14.28-15.96,19.44-15.86c3.74,0,7.6,1.12,10.49,3.21C367.525,127.98,370.471,141.666,366.899,151.222z"/>
			<path style="opacity:0.2;fill:#FFFFFF;" d="M366.899,151.222c-4.901-2.301-17.254,1.808-25.994,8.458
				c-2.52-3.38-3.73-8.57-3.73-8.57s0.17,4.14,2.35,9.65c-0.73,0.58-1.42,1.18-2.07,1.78c-1.85-4.6-4.06-16.44-3.61-25.86
				c-0.78-0.74-2.61-0.61-3.72-1.48c0.67-12.63,14.28-15.96,19.44-15.86c3.74,0,7.6,1.12,10.49,3.21
				C367.525,127.98,370.471,141.666,366.899,151.222z"/>
		</g>
		<g style="opacity:0.2;">
			<path d="M334.435,321.9c0.1,3.42,0.21,7.07,0.35,10.87c6.92-1.34,13.67-3.45,19.9-5.85c-0.07-3.26-0.24-6.43-0.5-9.43
				C347.954,319.5,341.245,321.13,334.435,321.9z"/>
			<path d="M384.595,303.68c-3.45,2.06-10.53,6.03-19.55,9.789c0.12,0.36,0.23,0.72,0.35,1.07c0.68,2.08,1.35,4.36,2.02,6.79
				c7.96-3.9,14.21-7.73,17.63-9.94C384.914,308.74,384.764,306.17,384.595,303.68z"/>
		</g>
		<path style="fill:#263238;" d="M330.353,227.589c0,0-0.868,39.909,2.115,99.939c28.117-2.135,55.432-19.931,55.432-19.931
			s-0.816-63.354-18.717-80.008C359.068,224.889,330.552,226.684,330.353,227.589z"/>
	</g>
</g>
<g id="Speech_Bubbles">
	<g>
		<path style="fill:#263238;" d="M156.526,251.136c-0.087,0-0.175-0.023-0.253-0.069c-0.174-0.102-0.27-0.299-0.242-0.499
			c0.936-6.805-1.472-17.165-8.953-25.029c-18.819-4.503-32.649-16.232-37.953-32.196c-9.289-27.96,11.067-59.98,45.376-71.378
			c34.311-11.398,69.779,2.076,79.067,30.036c4.506,13.563,2.255,28.463-6.338,41.954c-8.572,13.459-22.436,23.908-39.038,29.424
			c-6.161,2.047-12.488,3.335-18.815,3.832c1.241,13.276-12.411,23.72-12.55,23.825
			C156.738,251.102,156.632,251.136,156.526,251.136z M179.167,118.91c-7.929,0-16.17,1.286-24.351,4.004
			c-33.786,11.225-53.857,42.677-44.742,70.114c5.206,15.669,18.83,27.177,37.378,31.573c0.094,0.022,0.179,0.071,0.246,0.14
			c7.353,7.66,9.998,17.684,9.454,24.734c3.053-2.625,12.515-11.727,11.176-22.663c-0.017-0.136,0.023-0.273,0.11-0.378
			c0.087-0.106,0.214-0.171,0.351-0.181c6.416-0.46,12.838-1.747,19.088-3.823c16.384-5.443,30.061-15.747,38.51-29.012
			c8.428-13.233,10.641-27.83,6.232-41.102C225.71,131.522,203.986,118.91,179.167,118.91z"/>
		<path style="fill:#263238;" d="M306.143,121.5c-0.023,0-0.047-0.002-0.071-0.005c-0.464-0.067-11.198-1.692-14.778-9.645
			c-3.751,1.68-7.746,2.918-11.88,3.68c-11.3,2.083-22.588,0.457-31.785-4.575c-9.231-5.051-15.254-12.928-16.959-22.18
			c-3.512-19.059,12.64-38.067,36.005-42.373c23.371-4.306,45.232,7.697,48.744,26.755c2.004,10.874-2.231,22.006-11.622,30.563
			c-1.773,6.797,0.093,13.417,2.747,16.982c0.12,0.162,0.131,0.381,0.028,0.554C306.481,121.409,306.317,121.5,306.143,121.5z
			 M291.554,110.683c0.063,0,0.125,0.012,0.185,0.035c0.127,0.051,0.228,0.151,0.279,0.278c2.525,6.301,10.109,8.608,13.031,9.277
			c-2.429-3.945-3.94-10.39-2.18-16.955c0.025-0.093,0.076-0.177,0.147-0.241c9.205-8.333,13.367-19.173,11.419-29.741
			c-3.412-18.516-24.75-30.159-47.579-25.953c-22.823,4.206-38.615,22.692-35.203,41.208c1.649,8.95,7.493,16.58,16.456,21.484
			c8.996,4.923,20.05,6.51,31.123,4.469c4.225-0.779,8.3-2.063,12.112-3.817C291.411,110.698,291.482,110.683,291.554,110.683z"/>
		<path style="fill:#407BFF;" d="M176.266,211.906c-0.807,0-1.618-0.015-2.435-0.046c-8.689-0.327-17.852-2.293-28.835-6.187
			c-4.146-1.47-8.811-3.354-11.69-7.122c-0.827-1.082-1.542-2.367-2.189-3.931c-1.854-4.485-2.413-9.546-1.734-14.687
			c-0.108-1.071-0.199-2.14-0.29-3.202c-0.055-0.644-0.11-1.287-0.168-1.927l-0.176-1.869c-0.591-6.173-1.203-12.555,1.075-18.343
			c2.252-5.722,6.784-9.46,10.189-11.589c4.823-3.014,10.233-4.654,14.408-5.746c3.855-1.008,7.533-1.814,11.056-2.421
			c0.604-0.335,1.234-0.634,1.89-0.885c3.446-1.32,7.262-1.176,10.538-0.861c0.931,0.089,1.905,0.2,2.898,0.355
			c1.178,0.002,2.34,0.032,3.484,0.09c4.643,0.236,9.239,2.577,12.611,6.421c3.81,4.344,5.665,10.02,5.233,16.002
			c5.814,5.357,9.967,12.447,11.857,20.113c13.56-2.064,28.317-8.336,38.644-16.919c15.215-12.645,26.771-25.508,37.355-50.52
			c8.517-20.127,8.806-34.133,0.883-42.819c-4.514-4.949-10.685-7.845-17.377-8.152c-6.689-0.308-13.103,2.009-18.052,6.523
			c-4.71,4.296-7.465,10.169-7.758,16.537c-0.293,6.368,1.912,12.469,6.208,17.18c4.088,4.482,9.677,7.104,15.737,7.383
			c6.061,0.278,11.866-1.819,16.349-5.907c4.266-3.89,6.761-9.209,7.026-14.976c0.265-5.767-1.731-11.292-5.622-15.557
			c-7.642-8.379-20.675-8.977-29.054-1.336c-7.972,7.271-8.543,19.673-1.272,27.645c3.351,3.674,7.933,5.824,12.901,6.053
			c4.965,0.228,9.727-1.491,13.402-4.843c3.496-3.189,5.541-7.548,5.759-12.274c0.217-4.727-1.419-9.255-4.608-12.751
			c-6.262-6.867-16.942-7.357-23.809-1.095c-6.532,5.957-6.999,16.118-1.042,22.65c2.745,3.01,6.498,4.771,10.568,4.958
			c4.075,0.187,7.969-1.222,10.978-3.967c2.863-2.611,4.538-6.181,4.716-10.052c0.178-3.871-1.162-7.58-3.774-10.443
			c-2.483-2.723-5.879-4.316-9.561-4.486c-3.692-0.171-7.21,1.105-9.932,3.589c-5.347,4.876-5.729,13.193-0.853,18.54
			c4.637,5.084,12.547,5.449,17.632,0.811c2.342-2.136,3.713-5.057,3.858-8.224c0.146-3.167-0.951-6.201-3.087-8.543
			c-2.031-2.227-4.809-3.53-7.82-3.669c-3.007-0.138-5.896,0.904-8.123,2.936c-2.118,1.931-3.357,4.572-3.489,7.435
			c-0.131,2.863,0.86,5.606,2.791,7.724c3.79,4.156,10.256,4.453,14.412,0.663c1.914-1.746,3.034-4.132,3.152-6.72
			c0.119-2.588-0.776-5.067-2.522-6.981c-1.659-1.819-3.928-2.884-6.387-2.997c-2.467-0.112-4.816,0.738-6.636,2.398
			c-3.569,3.256-3.825,8.808-0.569,12.378c3.094,3.392,8.372,3.635,11.763,0.541c3.224-2.94,3.454-7.954,0.514-11.178
			c-2.794-3.063-7.559-3.281-10.621-0.488c-2.91,2.654-3.118,7.18-0.464,10.089c2.521,2.764,6.821,2.961,9.584,0.441
			c2.624-2.394,2.813-6.477,0.418-9.102c-1.101-1.207-2.607-1.914-4.239-1.989c-1.628-0.074-3.197,0.49-4.404,1.591
			c-0.152,0.139-0.389,0.129-0.529-0.024c-0.139-0.153-0.128-0.39,0.024-0.529c1.355-1.236,3.111-1.869,4.943-1.786
			c1.833,0.084,3.522,0.877,4.759,2.232c2.672,2.93,2.463,7.488-0.467,10.16c-3.069,2.799-7.843,2.579-10.643-0.489
			c-2.932-3.215-2.702-8.216,0.513-11.148c3.369-3.071,8.607-2.831,11.679,0.537c3.218,3.529,2.965,9.018-0.563,12.236
			c-3.698,3.372-9.449,3.108-12.822-0.59c-3.534-3.875-3.256-9.902,0.618-13.436c1.967-1.794,4.51-2.717,7.175-2.592
			c2.66,0.122,5.112,1.273,6.907,3.24c1.88,2.062,2.846,4.732,2.717,7.52c-0.128,2.787-1.335,5.358-3.396,7.239
			c-4.461,4.069-11.401,3.75-15.471-0.712c-2.066-2.266-3.127-5.2-2.986-8.263c0.141-3.063,1.466-5.888,3.732-7.954
			c2.375-2.166,5.452-3.279,8.663-3.13c3.211,0.148,6.173,1.537,8.339,3.912c2.271,2.49,3.436,5.716,3.282,9.082
			c-0.155,3.367-1.611,6.472-4.102,8.743c-5.391,4.916-13.774,4.53-18.691-0.859c-5.155-5.652-4.75-14.444,0.902-19.599
			c2.871-2.618,6.586-3.962,10.472-3.784c3.881,0.178,7.462,1.858,10.08,4.729c2.746,3.011,4.156,6.911,3.968,10.982
			c-0.187,4.071-1.949,7.825-4.959,10.571c-3.158,2.88-7.246,4.356-11.518,4.162c-4.27-0.197-8.207-2.044-11.087-5.201
			c-6.235-6.837-5.747-17.472,1.09-23.708c3.474-3.168,7.977-4.794,12.67-4.578c4.697,0.216,9.028,2.248,12.197,5.722
			c3.323,3.644,5.029,8.364,4.802,13.29c-0.227,4.926-2.358,9.47-6.002,12.794c-3.822,3.486-8.771,5.276-13.941,5.038
			c-5.168-0.238-9.934-2.474-13.42-6.296c-7.549-8.277-6.957-21.154,1.32-28.703c8.684-7.92,22.192-7.299,30.112,1.385
			c4.025,4.413,6.091,10.13,5.816,16.097c-0.275,5.967-2.856,11.47-7.269,15.495c-4.63,4.223-10.626,6.391-16.888,6.102
			c-6.26-0.288-12.034-2.997-16.257-7.627c-4.431-4.858-6.705-11.151-6.402-17.719c0.302-6.568,3.144-12.625,8.002-17.056
			c5.098-4.649,11.698-7.035,18.591-6.718c6.892,0.317,13.247,3.299,17.896,8.396c8.14,8.925,7.896,23.192-0.747,43.616
			c-10.643,25.152-22.265,38.087-37.566,50.804c-10.405,8.648-25.271,14.972-38.95,17.07c0.353,1.556,0.612,3.135,0.774,4.726
			c0.454,4.474,0.037,8.399-1.24,11.665c-1.818,4.651-5.726,8.845-11.301,12.129C195.049,209.645,186.058,211.906,176.266,211.906z
			 M157.032,208.577c6.003,1.511,11.507,2.333,16.827,2.534c10.597,0.398,20.328-1.827,28.156-6.439
			c3.785-2.23,8.764-6.079,10.983-11.756c1.233-3.154,1.634-6.961,1.192-11.316c-0.16-1.58-0.419-3.147-0.772-4.692
			c-2.939,0.419-5.817,0.64-8.58,0.644c-0.574,2.899-1.487,5.664-2.336,8.112c-0.226,0.651-0.458,1.307-0.699,1.965
			c-0.475,2.705-1.651,5.413-3.445,7.83c-2.359,3.178-5.686,5.882-10.17,8.268C178.73,208.76,167.567,210.466,157.032,208.577z
			 M130.137,179.94c0.387,3.806,0.985,7.615,2.502,11.09c3.285,7.525,10.893,13.357,20.874,16.001
			c10.087,2.672,21.042,1.849,30.643-2.213c-0.367,0.108-0.724,0.206-1.07,0.296c-5.382,1.392-11.054,1.529-16.378,1.471
			c-7.432-0.082-15.25-0.602-22.08-3.823c-2.887-1.361-6.578-3.804-7.765-7.711c-0.775-2.549-0.345-5.272,0.118-7.623
			c0.317-1.608,0.679-3.189,1.083-4.738c-1.253-7.209-0.085-15.374,3.486-23.483c-0.492,0.302-0.971,0.63-1.432,0.988
			c-1.885,1.467-3.543,3.468-5.219,6.299C132.351,170.8,130.75,175.402,130.137,179.94z M129.856,183.703
			c-0.05,3.727,0.594,7.34,1.954,10.63c0.621,1.503,1.305,2.733,2.091,3.762c2.755,3.605,7.301,5.437,11.345,6.871
			c0.751,0.266,1.493,0.523,2.226,0.771c-7.309-3.165-12.822-8.229-15.52-14.407C130.89,188.896,130.269,186.32,129.856,183.703z
			 M138.829,182.721c0.536,2.99,1.501,5.807,2.894,8.376c4.632,8.535,14.297,14.263,24.624,14.592
			c9.585,0.305,19.619-3.974,26.831-11.448c1.62-1.679,2.883-3.279,3.862-4.893c0.302-0.497,0.583-1.007,0.845-1.525
			c-2.952,4.443-8.072,7.508-13.405,7.712c-0.792,0.03-1.591-0.003-2.379-0.096c-5.67,2.405-12.289,3.248-19.294,2.441
			c-9.904-1.142-17.412-5.85-20.085-12.595c-1.609-4.06-1.341-8.488-0.636-12.201C140.805,176.132,139.714,179.353,138.829,182.721z
			 M200.935,181.864c-0.759,2.644-1.751,5.395-3.254,7.873c-1.008,1.662-2.305,3.305-3.964,5.024
			c-5.348,5.542-12.222,9.363-19.34,10.915c2.865-0.189,5.736-0.568,8.522-1.288c4.052-1.048,9.7-3.32,13.597-8.195
			c2.087-2.611,3.45-5.693,4.582-8.762c0.253-1.48,0.285-2.957,0.081-4.378C201.101,182.654,201.025,182.258,200.935,181.864z
			 M138.409,184.394c-0.25,1.046-0.481,2.106-0.693,3.178c-0.446,2.263-0.861,4.876-0.137,7.261
			c1.107,3.645,4.618,5.955,7.368,7.252c4.702,2.217,9.907,3.129,15.132,3.505c-8.108-1.96-15.21-7.126-19.014-14.135
			C139.875,189.261,138.99,186.893,138.409,184.394z M143.678,169.593c-0.008,0.03-0.017,0.061-0.025,0.091
			c-1.102,4.052-2.325,10.05-0.234,15.326c2.569,6.484,9.85,11.017,19.475,12.127c6.411,0.739,12.486,0.072,17.778-1.93
			c-1.22-0.256-2.413-0.651-3.553-1.168c-1.14-0.178-2.249-0.484-3.304-0.921c-3.247-1.344-5.796-3.988-7.168-7.051
			c-0.465,0.201-0.946,0.335-1.441,0.404c-0.331,0.046-0.666,0.057-1.005,0.036c-2.158,0.567-4.292,0.758-6.34,0.551
			c-5.694-0.576-11.914-5.21-12.034-11.694c-0.064-3.454,1.618-7.118,4.997-10.889c3.923-4.378,8.814-7.789,14.115-9.976
			c-3.816-0.039-7.631,0.258-11.403,0.893C149.648,159.402,146.337,164.186,143.678,169.593z M183.527,194.792
			c0.309,0.008,0.616,0.006,0.925-0.006c6.463-0.248,12.6-4.894,14.593-11.048c0.514-1.586,0.915-3.863-0.092-5.705
			c-0.004-0.008-0.008-0.015-0.013-0.023c-1.632,5.096-4.452,9.374-8.11,12.242c-0.884,0.693-1.819,1.299-2.79,1.815
			c-1.2,0.886-2.482,1.686-3.832,2.383C183.983,194.568,183.755,194.681,183.527,194.792z M179.804,194.226
			c0.718,0.2,1.449,0.351,2.187,0.447c0.637-0.275,1.262-0.571,1.874-0.886c0.13-0.067,0.26-0.135,0.389-0.205
			C182.783,193.988,181.284,194.206,179.804,194.226z M177.324,193.312c3.388,0.511,7.05-0.154,10.314-1.878
			c4.74-3.514,8.162-8.417,9.442-13.71c0.089-0.367,0.169-0.739,0.24-1.116c-1.087-0.405-2.129-0.933-3.142-1.525
			c-1.765-0.275-3.611-0.078-5.398,0.113l-0.283,0.03c-2.82,0.299-5.895,0.563-9.083,0.609c-1.306,1.795-2.971,3.531-4.983,5.19
			c-1.779,1.467-3.615,2.683-5.468,3.633c0.03,0.077,0.061,0.154,0.093,0.23C170.582,188.607,173.661,191.622,177.324,193.312z
			 M167.308,185.729c1.29,2.906,3.708,5.419,6.793,6.696c0.145,0.06,0.29,0.117,0.437,0.172c-2.721-1.83-4.937-4.405-6.176-7.423
			c-0.021-0.051-0.042-0.103-0.063-0.154C167.977,185.294,167.646,185.53,167.308,185.729z M166.893,154.548
			c-5.835,2.087-11.254,5.677-15.511,10.427c-3.249,3.625-4.866,7.116-4.806,10.375c0.112,6.073,5.984,10.419,11.36,10.962
			c1.473,0.149,2.991,0.082,4.533-0.19c-1.356-0.518-2.618-1.521-3.506-2.867c-1.418-2.147-1.814-4.767-2-6.81
			c-0.364-3.987-0.258-11.389,4.543-16.156c2.771-2.752,6.939-4.329,11.438-4.329c0.01,0,0.02,0,0.03,0
			c2.399,0.004,5.681,0.511,7.688,2.904c0.468,0.559,0.867,1.223,1.219,2.033c0.51,1.171,0.826,2.435,0.95,3.748
			c2.649-0.925,5.685-1.735,8.756-1.438c-0.958-1.344-2.087-2.691-3.503-3.694c-1.583-1.123-3.475-1.777-5.284-2.317
			C177.617,155.649,172.268,154.765,166.893,154.548z M172.945,156.709c-4.303,0-8.278,1.498-10.911,4.111
			c-4.583,4.551-4.677,11.701-4.325,15.557c0.179,1.955,0.554,4.457,1.879,6.465c0.939,1.422,2.632,2.752,4.53,2.911
			c0.706-0.19,1.416-0.422,2.126-0.694c-0.344-0.971-0.57-1.972-0.666-2.978c-2.148-0.304-4.062-1.327-5.056-3.275
			c-0.341-0.667-0.567-1.447-0.694-2.384c-0.476-3.522,0.803-7.257,3.339-9.748c2.368-2.326,5.803-3.536,9.108-3.247
			c0.228-0.174,0.46-0.342,0.696-0.505c2.091-1.445,3.979-1.932,5.609-1.447c1.5,0.446,2.761,1.812,3.273,3.521
			c0.083-0.031,0.166-0.061,0.248-0.091c-0.103-1.302-0.405-2.555-0.907-3.709c-0.323-0.742-0.686-1.348-1.107-1.851
			c-1.917-2.287-5.281-2.633-7.115-2.636C172.964,156.709,172.955,156.709,172.945,156.709z M198.036,176.854
			c-0.068,0.353-0.144,0.702-0.227,1.047c-0.597,2.465-1.642,4.847-3.058,7.052c1.552-2.248,2.788-4.857,3.646-7.721
			c-0.111-0.13-0.23-0.255-0.355-0.376C198.04,176.855,198.038,176.854,198.036,176.854z M166.335,182.158
			c0.095,0.886,0.297,1.767,0.597,2.623c0.344-0.145,0.688-0.299,1.032-0.464c0.019-0.017,0.038-0.035,0.058-0.052
			c-0.241-0.712-0.418-1.413-0.529-2.096C167.104,182.186,166.717,182.183,166.335,182.158z M201.326,180.436
			c0.249,0.819,0.451,1.657,0.573,2.511c0.083,0.58,0.129,1.169,0.139,1.763c0.753-2.201,1.526-4.632,2.037-7.161
			c-0.679-0.009-1.352-0.031-2.015-0.067c-0.093,0.402-0.189,0.8-0.286,1.192C201.632,179.248,201.484,179.837,201.326,180.436z
			 M168.243,182.113c0.085,0.508,0.209,1.026,0.372,1.553c0.471-0.524,0.928-1.148,1.372-1.873
			C169.417,181.941,168.831,182.049,168.243,182.113z M171.045,181.464c-0.38,0.686-0.772,1.3-1.175,1.845
			c1.381-0.804,2.748-1.76,4.085-2.862c0.803-0.662,1.548-1.335,2.236-2.02c-1.484,1.267-3.173,2.287-4.985,2.977
			C171.152,181.425,171.099,181.444,171.045,181.464z M166.28,181.386c0.367,0.029,0.741,0.037,1.116,0.026
			c-0.002-0.021-0.004-0.043-0.005-0.064c-0.18-2.119,0.306-4.342,1.354-6.42c-0.136-0.039-0.271-0.082-0.403-0.13
			c-0.836,1.192-1.442,2.476-1.775,3.804C166.339,179.513,166.248,180.449,166.28,181.386z M200.231,179.517
			c0.102,0.622,0.112,1.249,0.063,1.857c0.087-0.309,0.171-0.617,0.253-0.923C200.448,180.138,200.342,179.826,200.231,179.517z
			 M169.495,175.105c-1.042,2.001-1.53,4.144-1.357,6.18c0.002,0.026,0.004,0.052,0.007,0.078c0.809-0.082,1.616-0.255,2.382-0.511
			c0.031-0.058,0.063-0.117,0.094-0.176c0.859-1.635,1.594-3.346,2.197-5.105c-0.996-0.102-1.993-0.235-2.988-0.405
			C169.718,175.147,169.607,175.126,169.495,175.105z M171.299,164.134c-2.8,0-5.608,1.113-7.606,3.076
			c-2.371,2.328-3.566,5.82-3.122,9.113c0.115,0.852,0.317,1.553,0.619,2.143c0.824,1.617,2.462,2.521,4.341,2.83
			c-0.025-0.968,0.074-1.934,0.31-2.876c0.345-1.374,0.961-2.704,1.81-3.938c-0.432-0.248-0.804-0.579-1.063-1.033
			c-0.577-1.01-0.42-2.343,0.466-3.96c1.11-2.025,2.594-3.849,4.348-5.354C171.367,164.134,171.333,164.134,171.299,164.134z
			 M142.654,158.582c-0.114,0.246-0.227,0.494-0.339,0.746c-3.296,7.409-4.554,14.861-3.758,21.558
			c1.174-4.095,2.653-7.962,4.417-11.559c1.202-4.378,2.833-8.636,4.851-12.7C146.156,157.084,144.357,157.696,142.654,158.582z
			 M173.583,175.643c-0.557,1.648-1.226,3.255-2.002,4.801c2.356-1.02,4.467-2.627,6.131-4.605
			C176.348,175.822,174.968,175.762,173.583,175.643z M200.173,177.33c0.247,0.587,0.49,1.188,0.714,1.802
			c0.054-0.214,0.107-0.427,0.159-0.638c0.086-0.35,0.172-0.704,0.256-1.061c-0.209-0.015-0.416-0.031-0.623-0.049
			C200.509,177.37,200.34,177.352,200.173,177.33z M163.795,135.9c-2.948,0.556-6.005,1.249-9.185,2.081
			c-4.123,1.078-9.463,2.696-14.2,5.656c-3.31,2.069-7.713,5.696-9.89,11.228c-2.212,5.621-1.609,11.913-1.026,17.997l0.177,1.873
			c0.059,0.642,0.113,1.286,0.168,1.932c0.013,0.15,0.026,0.299,0.039,0.449c0.819-3.738,2.285-7.47,4.376-11.005
			c1.725-2.914,3.441-4.982,5.403-6.509c0.769-0.598,1.585-1.115,2.424-1.565c3.311-7.028,7.612-11.781,12.794-14.135
			c0.5-0.227,1.019-0.437,1.56-0.63c0.833-1.019,1.694-2.015,2.584-2.985C160.392,138.79,161.965,137.202,163.795,135.9z
			 M202.703,157.542c1.941,5.315,3.23,11.243,2.552,17.336c-0.072,0.646-0.166,1.289-0.277,1.926
			c2.665-0.01,5.437-0.224,8.267-0.624C211.502,169.165,207.829,162.645,202.703,157.542z M202.227,176.74
			c0.655,0.034,1.32,0.055,1.991,0.062c0.119-0.664,0.218-1.333,0.293-2.006c0.724-6.512-0.857-12.857-3.063-18.447
			c-0.001-0.001-0.002-0.003-0.003-0.004c-0.254-0.231-0.511-0.458-0.771-0.682c-3.254-2.804-6.97-5.045-10.942-6.652
			c2.191,2.005,3.987,4.334,5.254,6.871c0.237,0.475,0.462,0.966,0.675,1.477c4.52,3.73,7.255,9.252,7.185,14.607
			C202.826,173.579,202.564,175.185,202.227,176.74z M199.827,176.522c0.301,0.051,0.606,0.09,0.916,0.117
			c0.242,0.02,0.483,0.039,0.727,0.056c0.34-1.55,0.607-3.148,0.628-4.738c0.061-4.704-2.143-9.548-5.859-13.086
			c0.49,1.405,0.913,2.963,1.292,4.74c0.186,0.868,0.344,1.716,0.475,2.543c0.805,0.822,1.442,1.813,1.802,2.971
			c0.636,2.042,0.291,4.253-0.081,5.951c-0.059,0.268-0.12,0.535-0.185,0.799C199.638,176.09,199.732,176.306,199.827,176.522z
			 M198.432,176.196c0.079,0.023,0.158,0.046,0.238,0.068c0.028-0.106,0.056-0.213,0.082-0.32c-0.143-0.317-0.287-0.634-0.434-0.95
			c-0.038,0.334-0.082,0.664-0.132,0.991C198.27,176.054,198.352,176.124,198.432,176.196z M194.427,174.364
			c0.017,0.003,0.034,0.006,0.05,0.009c1.137,0.197,2.163,0.583,3.024,1.122c0.082-0.598,0.143-1.209,0.183-1.834
			c-1.518-3.118-3.237-6.145-5.133-9.036c-0.128-0.195-0.259-0.393-0.393-0.592c-0.086-0.014-0.172-0.026-0.257-0.037
			c-3.133-0.405-6.29,0.461-9.019,1.426c0.029,0.811-0.013,1.637-0.125,2.467c3.091,0.728,5.777,2.558,8.381,4.332
			C192.244,172.973,193.328,173.712,194.427,174.364z M173.822,174.911c1.504,0.124,3.003,0.179,4.482,0.182
			c1.135-1.512,2.018-3.207,2.568-5.003c0.183-0.597,0.317-1.162,0.402-1.701c-2.286-0.248-4.444,0.324-6.169,1.065
			C174.815,171.298,174.385,173.126,173.822,174.911z M182.637,168.63c-0.221,1.185-0.587,2.374-1.095,3.535
			c-0.432,0.984-0.966,1.956-1.601,2.911c2.97-0.066,5.835-0.315,8.476-0.595l0.282-0.03c1.332-0.142,2.698-0.288,4.057-0.246
			c-0.689-0.445-1.367-0.907-2.041-1.366C188.186,171.115,185.575,169.337,182.637,168.63z M169.88,174.414
			c0.025,0.004,0.05,0.009,0.075,0.013c1.033,0.176,2.069,0.313,3.103,0.415c0.524-1.639,0.935-3.316,1.226-5.008
			c-0.22,0.109-0.43,0.219-0.629,0.328c-0.413,0.33-0.815,0.679-1.203,1.048C171.425,172.186,170.561,173.271,169.88,174.414z
			 M198.443,173.511c0.2,0.412,0.395,0.825,0.588,1.24c0.337-1.584,0.625-3.593,0.062-5.404c-0.205-0.657-0.509-1.255-0.888-1.793
			C198.469,169.666,198.548,171.646,198.443,173.511z M168.814,174.166c0.097,0.03,0.195,0.058,0.295,0.084
			c0.285-0.497,0.602-0.984,0.949-1.457C169.608,173.232,169.192,173.69,168.814,174.166z M172.498,164.203
			c-1.952,1.535-3.594,3.468-4.787,5.645c-0.753,1.374-0.912,2.46-0.473,3.229c0.197,0.344,0.499,0.6,0.858,0.794
			c1.295-1.683,3.031-3.164,5.097-4.31c0.015-0.008,0.03-0.017,0.045-0.025c0.402-0.319,0.814-0.621,1.232-0.907
			c0.1-0.729,0.178-1.46,0.233-2.19c0.037-0.487,0.054-0.955-0.142-1.317c-0.24-0.446-0.797-0.73-1.701-0.869
			C172.74,164.234,172.619,164.217,172.498,164.203z M193.205,164.257c1.649,2.519,3.166,5.139,4.534,7.833
			c0.012-1.752-0.134-3.608-0.436-5.582C196.158,165.406,194.675,164.654,193.205,164.257z M173.34,163.579
			c0.944,0.203,1.561,0.594,1.88,1.187c0.292,0.54,0.273,1.15,0.229,1.729c-0.04,0.532-0.092,1.064-0.155,1.596
			c1.963-1.226,4.017-2.126,5.856-2.83c-0.431-1.495-1.507-2.687-2.784-3.067c-1.403-0.417-3.075,0.036-4.97,1.345
			C173.378,163.552,173.359,163.565,173.34,163.579z M181.312,166.001c-1.417,0.546-2.956,1.209-4.473,2.05
			c1.383-0.38,2.921-0.581,4.524-0.406C181.408,167.065,181.391,166.519,181.312,166.001z M182.027,165.731
			c0.05,0.284,0.083,0.576,0.099,0.875c0.016-0.307,0.021-0.613,0.015-0.917C182.103,165.703,182.065,165.717,182.027,165.731z
			 M148.789,156.376c-1.553,3.056-2.883,6.225-3.973,9.476c2.161-3.782,4.662-7.214,7.476-10.238
			c-0.853,0.161-1.703,0.339-2.551,0.534C149.432,156.219,149.114,156.294,148.789,156.376z M192.6,163.35
			c1.546,0.295,3.169,0.966,4.511,2.008c-0.094-0.522-0.198-1.053-0.313-1.591c-0.494-2.315-1.063-4.247-1.757-5.947
			c-0.171-0.138-0.344-0.274-0.52-0.407c-4.234-3.198-9.936-4.95-16.085-4.932c-3.212,0.009-6.441,0.502-9.576,1.427
			c4.784,0.334,9.534,1.192,14.154,2.571c1.871,0.558,3.832,1.238,5.504,2.424C190.229,160.114,191.522,161.77,192.6,163.35z
			 M155.498,144.446c-0.105,0.045-0.209,0.091-0.312,0.138c-4.802,2.181-8.835,6.518-12.008,12.906
			c1.719-0.796,3.486-1.344,5.098-1.758C150.322,151.755,152.742,147.97,155.498,144.446z M178.526,151.731
			c5.999,0,11.605,1.653,15.883,4.672c-0.031-0.063-0.062-0.125-0.092-0.187c-1.517-3.037-3.818-5.768-6.661-7.98
			c-4.688-1.603-9.67-2.342-14.634-2.107c-3.242,0.153-6.035,0.684-8.54,1.623c-3.433,1.286-6.73,3.496-10.048,6.738
			c4.088-0.621,8.224-0.852,12.347-0.695c3.78-1.335,7.729-2.053,11.654-2.064C178.465,151.731,178.496,151.731,178.526,151.731z
			 M156.884,143.909c-2.921,3.597-5.483,7.486-7.64,11.586c0.11-0.026,0.22-0.052,0.329-0.077c1.193-0.275,2.392-0.516,3.596-0.723
			c3.645-3.724,7.261-6.225,11.05-7.645c2.579-0.966,5.446-1.512,8.767-1.669c4.281-0.202,8.58,0.306,12.696,1.458
			c-1.599-1.027-3.33-1.9-5.158-2.591c-5.44-2.056-11.838-2.594-18.504-1.556C160.042,142.999,158.369,143.395,156.884,143.909z
			 M188.015,147.567c4.654,1.607,9.02,4.051,12.796,7.228c-0.891-2.101-1.852-4.082-2.787-5.907
			c-2.548-4.979-5.578-9.948-10.458-12.569c-2.153-1.157-4.535-1.763-6.823-2.125c-0.018,0-0.036,0-0.054,0
			c-4.68,0-9.639,0.45-14.958,1.359c-2.432,1.375-4.454,3.379-6.159,5.241c-0.615,0.671-1.217,1.355-1.805,2.05
			c1.236-0.359,2.598-0.651,4.137-0.891c6.792-1.058,13.323-0.506,18.884,1.596C183.427,144.544,185.869,145.912,188.015,147.567z
			 M184.647,134.308c1.117,0.345,2.22,0.784,3.274,1.35c5.061,2.719,8.167,7.801,10.77,12.888c0.922,1.802,1.87,3.753,2.752,5.822
			c0.024-5.21-1.759-10.1-5.109-13.919C193.193,136.867,188.953,134.644,184.647,134.308z M174.003,133.625
			c-1.846,0-3.74,0.183-5.54,0.739c2.281-0.327,4.497-0.566,6.654-0.719C174.749,133.632,174.377,133.625,174.003,133.625z"/>
	</g>
</g>
</svg>
