<?xml version="1.0" encoding="utf-8"?>
<!-- Generator: Adobe Illustrator 27.5.0, SVG Export Plug-In . SVG Version: 6.00 Build 0)  -->
<svg version="1.1" xmlns="http://www.w3.org/2000/svg" xmlns:xlink="http://www.w3.org/1999/xlink" x="0px" y="0px"
	 viewBox="0 0 2475 1650" style="enable-background:new 0 0 2475 1650;" xml:space="preserve">
<g id="Background">
	<rect style="fill:#FFFFFF;" width="2475" height="1650"/>
</g>
<g id="Illustration">
	<g>
		<linearGradient id="SVGID_1_" gradientUnits="userSpaceOnUse" x1="844.3856" y1="-40.8716" x2="1507.1809" y2="1837.731">
			<stop  offset="0" style="stop-color:#DAE3FE"/>
			<stop  offset="1" style="stop-color:#E9EFFD"/>
		</linearGradient>
		<path style="fill:url(#SVGID_1_);" d="M2264.224,788.383c-67.762-68.279-181.749-77.231-167.031-198.489
			c4.353-35.87,18.254-69.831,28.936-104.4c11.149-36.08,13.883-68.47,9.822-97.405
			c-14.841-105.733-120.427-165.344-237.789-190.386c-93.963-20.049-190.588-26.297-286.575-24.238
			c-67.326,1.444-134.489,6.942-201.38,14.41c-87.874,9.81-166.869,23.978-256.108,19.808
			c-91.568-4.279-182.758-16.366-272.193-36.125c-79.087-17.473-157.166-40.977-237.822-48.97
			c-95.306-9.445-330.524,20.319-281.887,169.325c8.791,26.928,14.274,57.188-17.024,73.287
			c-23.284,11.977-53.541,7.59-78.554,16.374c-47.981,16.85-88.494,54.824-105.711,102.184
			c-19.885,54.699-10.246,114.918,0.329,172.026c14.428,77.91,71.372,137.188,84.948,214.482
			c13.925,79.281-36.298,128.114-71.052,192.536c-53.629,99.409-24.962,231.008,49.923,314.857
			c46.83,52.436,110.479,89.156,178.546,112.001c78.542,0,157.084,0,235.626,0c171.41,0,342.82,0,514.229,0
			c168.018,0,336.036,0,504.055,0c90.876,0,186.711,0.533,275.057-27.253c88.423-27.811,182.385-94.475,207.103-187.287
			c10.568-39.68,7.338-81.689,15.456-121.914c10.154-50.311,38.058-96.714,69.628-137.102
			c29.394-37.604,67.766-55.696,77.176-107.652C2309.681,865.668,2295.222,819.623,2264.224,788.383z"/>
		<g>
			<path style="fill:#BDD0FB;" d="M1108.099,981.437c18.25-64.915,10.928-129.769-15.431-179.722
				c-5.332-10.104-4.245-22.094,2.741-30.875c19.087-23.987,35.189-55.898,46.295-95.406
				c31.699-112.753,10.722-244.654-55.649-263.313c-66.372-18.659-153.006,82.988-184.704,195.742
				c-9.714,34.552-13.135,66.133-11.305,93.861c0.771,11.675-5.589,22.442-16.318,27.791
				c-54.259,27.05-99.863,81.804-119.704,152.38c-6.958,24.752-10.195,49.493-10.078,73.404
				c0.07,14.255-10.272,26.321-24.919,28.836c-88.779,15.248-164.067,76.691-189.128,165.088
				c-35.545,125.375,46.205,260.092,179.424,295.766c131.59,35.238,265.743-35.977,300.686-160.271
				c12.882-45.822,10.488-92.51-4.208-135.129c-4.169-12.091,0.008-25.119,10.427-32.617
				C1057.952,1086.946,1091.761,1039.555,1108.099,981.437z"/>
			
				<linearGradient id="SVGID_00000160877360290373307840000018299869769889993394_" gradientUnits="userSpaceOnUse" x1="673.9257" y1="950.9169" x2="1054.6882" y2="950.9169">
				<stop  offset="0" style="stop-color:#DAE3FE"/>
				<stop  offset="1" style="stop-color:#E9EFFD"/>
			</linearGradient>
			<path style="fill:url(#SVGID_00000160877360290373307840000018299869769889993394_);" d="M1054.688,546.556
				c-1.428,18.938-3.804,37.738-6.46,56.506c-2.604,18.777-5.868,37.444-9.28,56.086c-7.058,37.234-15.329,74.256-25.144,110.882
				c-19.417,73.304-44.169,145.29-74.688,214.946c-15.017,34.931-32.136,68.986-50.336,102.456
				c-18.267,33.442-38.417,65.931-60.195,97.341c-5.536,7.798-10.992,15.643-16.589,23.391l-17.436,22.814
				c-5.725,7.661-12.026,14.913-18.163,22.271l-9.235,11.012l-4.616,5.503l-4.849,5.324l-19.522,21.16
				c-3.181,3.582-6.694,6.888-10.085,10.291l-10.263,10.125l-10.293,10.08c-3.44,3.349-7.144,6.456-10.699,9.693l-21.669,19.063
				l-1.241-1.229l19.806-20.721c3.288-3.457,6.719-6.778,9.884-10.339l9.459-10.706l9.487-10.66
				c3.149-3.562,6.417-7.021,9.352-10.757l18.044-22.021l4.538-5.476l4.304-5.654l8.605-11.303
				c5.714-7.547,11.584-14.976,16.878-22.813l16.416-23.112c5.264-7.84,10.385-15.769,15.581-23.644
				c2.565-3.959,5.234-7.851,7.712-11.862l7.395-12.055l7.426-12.033c2.476-4.01,4.988-7.998,7.273-12.118l14.041-24.521
				c2.395-4.055,4.552-8.241,6.771-12.392l6.676-12.441l6.722-12.417l6.374-12.592c4.193-8.423,8.57-16.757,12.613-25.25
				l12.011-25.534c3.988-8.517,7.716-17.154,11.591-25.723c15.239-34.395,29.172-69.355,42.07-104.699
				c12.882-35.352,24.572-71.135,35.473-107.175c10.731-36.088,20.654-72.446,29.429-109.112c2.288-9.146,4.317-18.352,6.463-27.536
				l5.999-27.652c0.998-4.612,1.946-9.233,2.858-13.862c0.948-4.624,1.837-9.258,2.723-13.893c1.828-9.26,3.487-18.565,5.035-27.869
				L1054.688,546.556z"/>
		</g>
		<g>
			<path style="fill:#BDD0FB;" d="M1525.972,1159.919c-2.272-15.976,4.197-32.043,17.438-42.223
				c33.679-25.893,63.525-59.958,86.051-100.728c44.301-80.177,49.906-167.427,22.171-234.817
				c-6.977-16.951-3.16-36.074,10.093-49.274c35.102-34.962,67.321-81.852,91.428-136.673
				c61.86-140.675,46.879-280.228-33.46-311.702c-80.34-31.473-195.616,57.052-257.476,197.728
				c-24.589,55.917-37.03,111.651-38.056,160.495c-0.392,18.671-12.308,35.265-30.516,42.571
				c-60.745,24.373-117.145,73.13-153.981,139.798c-10.319,18.676-18.535,37.736-24.721,56.84
				c-5.419,16.736-20.369,29.171-38.628,32.211c-95.555,15.908-184.09,74.113-233.99,164.424
				c-83.025,150.264-27.66,332.46,123.661,406.946c151.322,74.487,341.298,13.057,424.324-137.206
				C1523.823,1287.652,1534.771,1221.796,1525.972,1159.919z"/>
			
				<linearGradient id="SVGID_00000094612895698335577530000004498581647352725437_" gradientUnits="userSpaceOnUse" x1="1077.7869" y1="894.5972" x2="1668.7078" y2="894.5972">
				<stop  offset="0" style="stop-color:#DAE3FE"/>
				<stop  offset="1" style="stop-color:#E9EFFD"/>
			</linearGradient>
			<path style="fill:url(#SVGID_00000094612895698335577530000004498581647352725437_);" d="M1668.664,449.564
				c-5.166,21.748-11.445,43.181-18.103,64.519c-6.689,21.325-13.822,42.529-21.481,63.562
				c-15.27,42.083-32.249,83.613-50.725,124.542c-18.442,40.946-38.608,81.198-60.224,120.741
				c-2.707,4.941-5.307,9.934-8.101,14.831l-8.373,14.698c-5.578,9.8-11.103,19.628-17.004,29.261l-8.712,14.522
				c-2.934,4.825-5.734,9.723-8.81,14.469l-18.124,28.662c-2.963,4.811-6.217,9.454-9.324,14.18l-9.429,14.12
				c-3.173,4.688-6.269,9.424-9.506,14.073l-9.834,13.872l-9.835,13.872l-4.917,6.935c-1.652,2.303-3.391,4.551-5.082,6.829
				l-20.427,27.25c-3.345,4.583-6.977,8.969-10.485,13.439l-10.603,13.359l-10.602,13.358c-3.594,4.409-7.313,8.728-10.963,13.096
				l-22.026,26.118l-22.856,25.476c-3.846,4.215-7.558,8.54-11.514,12.664l-11.854,12.386l-11.853,12.385l-5.926,6.192l-2.963,3.095
				l-3.06,3.013l-24.531,24.039l-6.132,6.009l-3.066,3.004l-3.168,2.91l-12.682,11.628l-12.706,11.601l-6.357,5.795
				c-2.111,1.939-4.228,3.873-6.444,5.707l-26.26,22.339c-4.4,3.697-8.698,7.501-13.18,11.11l-13.542,10.718l-27.134,21.367
				c-0.765,0.603-1.902,0.505-2.54-0.216c-0.63-0.713-0.538-1.768,0.201-2.375l0.051-0.041l26.612-21.819l13.331-10.874
				c4.41-3.659,8.638-7.514,12.965-11.261l25.818-22.63c2.178-1.858,4.258-3.816,6.332-5.779l6.244-5.864l12.496-11.718
				l12.521-11.691l3.127-2.925l3.026-3.02l6.051-6.039l24.203-24.154l3.018-3.026l2.921-3.109l5.843-6.218l11.685-12.435
				l11.684-12.434c3.9-4.141,7.555-8.481,11.345-12.711l22.579-25.507l21.848-26.07c3.62-4.359,7.31-8.669,10.874-13.07
				l10.515-13.332l10.515-13.331c3.479-4.461,7.082-8.837,10.398-13.411c27.428-35.981,53.079-73.127,77.826-110.79
				c49.012-75.625,92.181-154.592,129.815-235.841c18.79-40.64,35.988-81.935,51.687-123.733
				c7.931-20.872,15.34-41.921,22.308-63.096c1.757-5.29,3.48-10.59,5.124-15.911c1.693-5.309,3.326-10.633,4.918-15.966
				c3.225-10.656,6.325-21.358,9.065-32.111l0.003-0.011c0.233-0.913,1.207-1.477,2.176-1.257
				C1668.285,447.754,1668.878,448.658,1668.664,449.564z"/>
		</g>
		<g>
			<path style="fill:#91B3FA;" d="M635.845,1372.585c-124.689,8.984-259.213-94.245-254.552-169.525
				c4.043-65.287,111.356-86.645,105.006-140.645c-7.628-64.863-166.362-67.255-180.914-139.412
				c-13.957-69.207,121.991-116.94,109.604-186.343c-13.231-74.131-175.419-59.366-213.594-152.034
				c-31.839-77.285,33.119-203.712,139.25-248.109c86.369-36.13,207.689-21.149,242.872,41.65
				c48.024,85.718-97.583,201.367-48.789,283.716c45.025,75.988,197.83,26.155,232.505,97.155
				c37.323,76.421-111.651,191.611-74.899,248.557c32.291,50.035,161.558-16.793,198.068,30.697
				C938.682,1101.092,821.253,1359.227,635.845,1372.585z"/>
			<path style="fill:#BDD0FB;" d="M372.668,459.791c31.629,65.47,61.355,131.767,90.249,198.408
				c14.55,33.28,28.514,66.799,42.615,100.267c6.988,16.758,13.755,33.606,20.634,50.408c6.841,16.817,13.779,33.599,20.376,50.513
				l19.921,50.693c6.513,16.948,13.115,33.863,19.497,50.859l4.818,12.735l4.709,12.777l9.418,25.554l9.368,25.571l9.011,25.703
				c24.013,68.499,46.999,137.552,63.838,208.171l-1.384,0.362c-22.363-68.984-48.104-136.74-74.063-204.427l-9.75-25.373
				l-9.907-25.321l-9.857-25.337l-4.929-12.668l-5.039-12.63c-6.77-16.821-13.318-33.722-19.956-50.591l-20.195-50.506
				l-80.836-202.05c-26.973-67.356-53.781-134.791-79.855-202.565L372.668,459.791z"/>
		</g>
		<g>
			<g>
				<g>
					<path style="fill:#91B3FA;" d="M301.529,1487.96l774.945,0.001v-143.271l-774.945,0.001
						C318.116,1344.69,318.116,1487.96,301.529,1487.96z"/>
					
						<linearGradient id="SVGID_00000027582172802883452200000005583855392195489428_" gradientUnits="userSpaceOnUse" x1="972.1534" y1="1107.8702" x2="506.1363" y2="1627.3169">
						<stop  offset="0" style="stop-color:#4042E2"/>
						<stop  offset="1" style="stop-color:#4F52FF"/>
					</linearGradient>
					<path style="fill:url(#SVGID_00000027582172802883452200000005583855392195489428_);" d="M1076.474,1452.108v-65.567
						c0-23.114-15.314-41.85-34.205-41.85H304.796c-14.856,0-26.899-11.124-26.899-24.847v0c0-4.17,3.659-7.549,8.173-7.549h806
						c18.484,0,47.831,26.844,47.831,59.958v91.572c0,31.222-28.49,56.531-45.918,56.531H290.31
						c-6.855,0-12.413-5.134-12.413-11.466c0-11.559,10.144-20.93,22.658-20.93h746.616
						C1063.355,1487.96,1076.474,1471.908,1076.474,1452.108z"/>
				</g>
				
					<linearGradient id="SVGID_00000170987168306772685130000014856914374163909533_" gradientUnits="userSpaceOnUse" x1="327.3753" y1="1374.0862" x2="1055.9705" y2="1374.0862">
					<stop  offset="0" style="stop-color:#DAE3FE"/>
					<stop  offset="1" style="stop-color:#E9EFFD"/>
				</linearGradient>
				<path style="fill:url(#SVGID_00000170987168306772685130000014856914374163909533_);" d="M1054.981,1375.075H328.365
					c-0.546,0-0.989-0.443-0.989-0.989c0-0.546,0.443-0.989,0.989-0.989h726.617c0.546,0,0.989,0.443,0.989,0.989
					C1055.97,1374.632,1055.527,1375.075,1054.981,1375.075z"/>
				
					<linearGradient id="SVGID_00000178197494520780869240000004585867951935540113_" gradientUnits="userSpaceOnUse" x1="327.3753" y1="1395.3518" x2="1055.9705" y2="1395.3518">
					<stop  offset="0" style="stop-color:#DAE3FE"/>
					<stop  offset="1" style="stop-color:#E9EFFD"/>
				</linearGradient>
				<path style="fill:url(#SVGID_00000178197494520780869240000004585867951935540113_);" d="M1054.981,1396.341H328.365
					c-0.546,0-0.989-0.443-0.989-0.989c0-0.546,0.443-0.989,0.989-0.989h726.617c0.546,0,0.989,0.443,0.989,0.989
					C1055.97,1395.898,1055.527,1396.341,1054.981,1396.341z"/>
				
					<linearGradient id="SVGID_00000071523592896901357380000016924151708154135693_" gradientUnits="userSpaceOnUse" x1="327.3753" y1="1416.6178" x2="1055.9705" y2="1416.6178">
					<stop  offset="0" style="stop-color:#DAE3FE"/>
					<stop  offset="1" style="stop-color:#E9EFFD"/>
				</linearGradient>
				<path style="fill:url(#SVGID_00000071523592896901357380000016924151708154135693_);" d="M1054.981,1417.607H328.365
					c-0.546,0-0.989-0.443-0.989-0.989c0-0.546,0.443-0.989,0.989-0.989h726.617c0.546,0,0.989,0.443,0.989,0.989
					C1055.97,1417.164,1055.527,1417.607,1054.981,1417.607z"/>
				
					<linearGradient id="SVGID_00000019677757231663531810000001733928327849204119_" gradientUnits="userSpaceOnUse" x1="327.3753" y1="1437.8839" x2="1055.9705" y2="1437.8839">
					<stop  offset="0" style="stop-color:#DAE3FE"/>
					<stop  offset="1" style="stop-color:#E9EFFD"/>
				</linearGradient>
				<path style="fill:url(#SVGID_00000019677757231663531810000001733928327849204119_);" d="M1054.981,1438.873H328.365
					c-0.546,0-0.989-0.443-0.989-0.989c0-0.546,0.443-0.989,0.989-0.989h726.617c0.546,0,0.989,0.443,0.989,0.989
					C1055.97,1438.43,1055.527,1438.873,1054.981,1438.873z"/>
				
					<linearGradient id="SVGID_00000163789916381390204210000004921913671393958840_" gradientUnits="userSpaceOnUse" x1="327.3753" y1="1459.15" x2="1055.9705" y2="1459.15">
					<stop  offset="0" style="stop-color:#DAE3FE"/>
					<stop  offset="1" style="stop-color:#E9EFFD"/>
				</linearGradient>
				<path style="fill:url(#SVGID_00000163789916381390204210000004921913671393958840_);" d="M1054.981,1460.139H328.365
					c-0.546,0-0.989-0.443-0.989-0.989c0-0.546,0.443-0.989,0.989-0.989h726.617c0.546,0,0.989,0.443,0.989,0.989
					C1055.97,1459.696,1055.527,1460.139,1054.981,1460.139z"/>
			</g>
			<g>
				
					<linearGradient id="SVGID_00000157285537368567078900000000940378506866383238_" gradientUnits="userSpaceOnUse" x1="961.7397" y1="740.0823" x2="781.7391" y2="1092.0826">
					<stop  offset="0" style="stop-color:#4042E2"/>
					<stop  offset="1" style="stop-color:#4F52FF"/>
				</linearGradient>
				<path style="fill:url(#SVGID_00000157285537368567078900000000940378506866383238_);" d="M366.736,1311.642h688.545
					c11.098,0,20.095-8.997,20.095-20.095v-122.295c0-11.098-8.997-20.095-20.095-20.095H366.736
					c-11.098,0-20.095,8.997-20.095,20.095v122.295C346.641,1302.646,355.638,1311.642,366.736,1311.642z"/>
				<path style="fill:#7D97F4;" d="M914.651,1292.968h71.127c4,0,7.242-3.242,7.242-7.242v-110.653c0-4-3.242-7.242-7.242-7.242
					h-71.127c-4,0-7.242,3.242-7.242,7.242v110.653C907.409,1289.726,910.651,1292.968,914.651,1292.968z"/>
				<path style="fill:#7D97F4;" d="M866.364,1292.968h24.783c2.027,0,3.669-1.643,3.669-3.669v-117.797
					c0-2.027-1.643-3.67-3.67-3.67h-24.783c-2.027,0-3.669,1.643-3.669,3.67v117.797
					C862.695,1291.325,864.338,1292.968,866.364,1292.968z"/>
			</g>
		</g>
		<g>
			<g>
				
					<linearGradient id="SVGID_00000122687846182485811940000009053152768783077808_" gradientUnits="userSpaceOnUse" x1="852.616" y1="989.6316" x2="808.6436" y2="1248.1908">
					<stop  offset="0" style="stop-color:#E1473D"/>
					<stop  offset="1" style="stop-color:#E9605A"/>
				</linearGradient>
				<path style="fill-rule:evenodd;clip-rule:evenodd;fill:url(#SVGID_00000122687846182485811940000009053152768783077808_);" d="
					M771.055,1276.601c9.094-1.393,18.222-3.085,26.743-6.552c11.309-4.602,21.203-12.189,32.483-16.862
					c12.333-5.11,26.145-6.664,37.597-13.524c14.126-8.462,22.566-23.66,30.356-38.167c2.859-5.324,5.772-11.642,3.282-17.148
					c-3.693-8.165-15.377-7.584-24.038-5.284c-35.983,9.556-69.716,25.763-102.573,42.981
					c-21.884,11.468-54.688,23.079-53.961,52.409c0.022,0.884,0.082,1.8,0.498,2.58
					C726.877,1287.225,763.177,1277.818,771.055,1276.601z"/>
				<g>
					
						<linearGradient id="SVGID_00000044891397637195664550000015677487359643459465_" gradientUnits="userSpaceOnUse" x1="1063.9933" y1="2076.4631" x2="1140.7571" y2="2076.4631" gradientTransform="matrix(-0.9864 0.1641 0.1641 0.9864 1610.1917 -966.3447)">
						<stop  offset="0" style="stop-color:#FF928E"/>
						<stop  offset="1" style="stop-color:#FEB3B1"/>
					</linearGradient>
					<path style="fill:url(#SVGID_00000044891397637195664550000015677487359643459465_);" d="M865.449,1184.061
						c49.208,46.378,48.994,106.552-21.847,160.439c-6.457-3.964-8.896-8.361-5.368-20.002
						c53.837-56.711,36.577-95.644-6.662-114.246L865.449,1184.061z"/>
					
						<linearGradient id="SVGID_00000145768753914610999860000000966665038049478300_" gradientUnits="userSpaceOnUse" x1="286.6084" y1="2082.7961" x2="364.0535" y2="2082.7961" gradientTransform="matrix(-0.9988 0.0487 0.0487 0.9988 1001.8062 -802.4548)">
						<stop  offset="0" style="stop-color:#FF928E"/>
						<stop  offset="1" style="stop-color:#FEB3B1"/>
					</linearGradient>
					<path style="fill:url(#SVGID_00000145768753914610999860000000966665038049478300_);" d="M788.61,1223.978
						c41.804,49.807,43.213,94.592-41.127,140.415c-7.327-11.78-6.621-19.217,0.527-23.172
						c61.499-47.036,39.077-70.582-0.158-93.147L788.61,1223.978z"/>
					
						<linearGradient id="SVGID_00000080927809934613016650000013698536351703432344_" gradientUnits="userSpaceOnUse" x1="-5412.356" y1="-1124.2618" x2="-5371.124" y2="-1124.2618" gradientTransform="matrix(0.4265 -0.9045 0.9045 0.4265 4058.7822 -3031.0691)">
						<stop  offset="0" style="stop-color:#E1473D"/>
						<stop  offset="1" style="stop-color:#E9605A"/>
					</linearGradient>
					<path style="fill:url(#SVGID_00000080927809934613016650000013698536351703432344_);" d="M743.774,1344.767
						c-0.522,11.243,1.722,16.588,10.299,17.269c8.259,16.687,7.395,26.957-0.292,32.428c-13.305-12.91-24.275-27.392-30.318-45.195
						C730.701,1344.912,741.014,1340.359,743.774,1344.767z"/>
					
						<linearGradient id="SVGID_00000031203269367798839540000004196116109971605940_" gradientUnits="userSpaceOnUse" x1="-5353.4941" y1="-1047.5155" x2="-5312.5073" y2="-1047.5155" gradientTransform="matrix(0.4265 -0.9045 0.9045 0.4265 4058.7822 -3031.0691)">
						<stop  offset="0" style="stop-color:#E1473D"/>
						<stop  offset="1" style="stop-color:#E9605A"/>
					</linearGradient>
					<path style="fill:url(#SVGID_00000031203269367798839540000004196116109971605940_);" d="M838.235,1324.498
						c-0.519,11.176,1.711,16.489,10.238,17.166c8.21,16.588,7.351,26.797-0.29,32.235c-13.226-12.833-24.131-27.229-30.138-44.927
						C825.239,1324.642,835.491,1320.116,838.235,1324.498z"/>
				</g>
				
					<linearGradient id="SVGID_00000094593393029156985140000012370349603997708428_" gradientUnits="userSpaceOnUse" x1="735.9054" y1="1018.3228" x2="927.8341" y2="1564.4288">
					<stop  offset="0" style="stop-color:#FE7062"/>
					<stop  offset="1" style="stop-color:#FF928E"/>
				</linearGradient>
				<path style="fill-rule:evenodd;clip-rule:evenodd;fill:url(#SVGID_00000094593393029156985140000012370349603997708428_);" d="
					M813.92,1005.466c0.878,26.91,4.05,57.154,14.4,82.763c8.567,21.196,23.637,35.519,40.122,52.311
					c15.404,15.691,27.309,34.01,34.82,53.577c-11.64-3.64-23.627,3.938-31.459,12.128c-8.761,9.161-17.251,17.943-29.016,24.128
					c-13.103,6.888-28.128,4.551-42.752,5.614c-13.076,0.95-30.157,4.237-41.417,10.359c-10.238,5.566-16.905,15.547-27.272,21.576
					c-2.811,1.635-6.648,3.109-9.393,1.302c-1.73-1.139-2.278-3.166-2.702-5.019c-4.703-20.543-7.167-42.077-13.995-62.189
					c-6.161-18.147-19.361-33.57-27.657-50.932c-11.586-24.246-12.753-52.07-3.214-76.656c4.421-11.396,11.097-22.31,12.307-34.353
					c0.965-9.604-5.941-26.449-0.869-35.017c4.485-7.576,25.832-4.078,35.678-4.03c29.199,0.143,58.401,0.948,87.602,1.202
					c0.854,0.005,1.802,0.043,2.419,0.573c0.622,0.535,0.682,1.377,0.706,2.135C812.228,1004.964,813.919,1005.44,813.92,1005.466z"
					/>
				<g>
					
						<linearGradient id="SVGID_00000034078481575069556470000000843695667315379872_" gradientUnits="userSpaceOnUse" x1="1219.8816" y1="1559.0927" x2="1249.0325" y2="1293.0894" gradientTransform="matrix(0.9458 -0.3247 0.3247 0.9458 -794.4904 104.2645)">
						<stop  offset="0" style="stop-color:#FF928E"/>
						<stop  offset="1" style="stop-color:#FEB3B1"/>
					</linearGradient>
					<path style="fill-rule:evenodd;clip-rule:evenodd;fill:url(#SVGID_00000034078481575069556470000000843695667315379872_);" d="
						M809.411,910.79c0,0,64.487,125.114,64.149,204.353l-15.591,5.352c0,0-41.941-134.377-67.391-163.84
						C765.128,927.192,809.411,910.79,809.411,910.79z"/>
					
						<linearGradient id="SVGID_00000043430930060927756170000003063161224113548436_" gradientUnits="userSpaceOnUse" x1="1237.4143" y1="1555.0359" x2="1263.7889" y2="1314.3669" gradientTransform="matrix(0.9458 -0.3247 0.3247 0.9458 -794.4904 104.2645)">
						<stop  offset="0" style="stop-color:#FF928E"/>
						<stop  offset="1" style="stop-color:#FEB3B1"/>
					</linearGradient>
					<path style="fill-rule:evenodd;clip-rule:evenodd;fill:url(#SVGID_00000043430930060927756170000003063161224113548436_);" d="
						M863.609,1104.616l9.95,10.527c0,0,13.184,17.086,16.745,30.503c3.559,13.418-13.874,22.539-20.218,24.368
						c-6.344,1.829-8.796-4.301-5.779-16.839c0,0-11.3-17.732-6.035-40.453L863.609,1104.616z"/>
				</g>
			</g>
			<g>
				
					<linearGradient id="SVGID_00000015320022537342677820000001236902245213329850_" gradientUnits="userSpaceOnUse" x1="-913.5541" y1="749.675" x2="-627.4582" y2="962.9072" gradientTransform="matrix(-0.9666 0.0204 -0.0204 0.9876 36.7933 -55.6393)">
					<stop  offset="0" style="stop-color:#09005D"/>
					<stop  offset="1" style="stop-color:#1A0F91"/>
				</linearGradient>
				<path style="fill-rule:evenodd;clip-rule:evenodd;fill:url(#SVGID_00000015320022537342677820000001236902245213329850_);" d="
					M550.343,793.381c8.275-25.306,29.065-49.282,50.262-56.019c14.13-4.491,22.84-6.24,31.172-19.2
					c6.359-9.89,10.665-22.716,19.724-30.318c12.017-10.085,33.357-16.216,48.15-18.865c18.805-3.368,39.119-0.719,53.788,10.938
					c8.877,7.054,15.348,17.049,24.934,23.09c16.384,10.325,40.201,8.129,52.519,23.195c16.04,19.618,0.145,51.891,9.735,75.656
					c2.909,7.208,8.08,13.295,10.349,20.762c3.103,10.213,0.279,21.773-5.163,31.289c-11.637,20.35-28.979,31.508-50.169,38.745
					c-23.829,8.138-15.191,25.046-24.628,43.009c-7.906,15.048-22.914,26.204-38.855,30.161
					c-14.016,3.479-29.455,2.454-41.686,10.534c-14.681,9.698-20.982,30.286-36.934,37.428c-13.373,5.987-28.459,0.149-40.556-7.297
					c-35.132-21.627-82.773-18.148-85.942-69.938c-0.392-6.404-0.415-13.013,1.735-19.152c8.44-24.102,44.665-15.53,41.431-48.429
					c-1.238-12.589-12.664-20.839-18.507-31.808C544.914,824.416,545.348,808.656,550.343,793.381z"/>
				
					<linearGradient id="SVGID_00000062886399663155165520000015397750675398722997_" gradientUnits="userSpaceOnUse" x1="763.1567" y1="1007.8528" x2="953.7042" y2="1550.0289">
					<stop  offset="0" style="stop-color:#FE7062"/>
					<stop  offset="1" style="stop-color:#FF928E"/>
				</linearGradient>
				<path style="fill-rule:evenodd;clip-rule:evenodd;fill:url(#SVGID_00000062886399663155165520000015397750675398722997_);" d="
					M670.601,907.957c13.931-4.324,69.617-18.816,137.224,1.151c1.599,0.472,2.763,1.861,2.965,3.516
					c1.431,11.743,6.742,58.606,3.751,84.675c-0.24,2.091-1.982,3.683-4.086,3.726l-126.944,2.565
					c-2.136,0.043-3.963-1.526-4.243-3.643l-11.569-87.436C667.43,910.486,668.651,908.563,670.601,907.957z"/>
				
					<linearGradient id="SVGID_00000160162836452138830780000014491257238510171019_" gradientUnits="userSpaceOnUse" x1="740.1196" y1="849" x2="740.1196" y2="933">
					<stop  offset="0" style="stop-color:#FF928E"/>
					<stop  offset="1" style="stop-color:#FEB3B1"/>
				</linearGradient>
				<path style="fill-rule:evenodd;clip-rule:evenodd;fill:url(#SVGID_00000160162836452138830780000014491257238510171019_);" d="
					M716.254,836.542l-6.054,59.973c-0.481,4.769,2.65,9.147,7.322,10.22c10.689,2.458,30.015,5.355,46.239-0.593
					c4.097-1.502,6.701-5.539,6.282-9.883l-5.937-61.606L716.254,836.542z"/>
				
					<linearGradient id="SVGID_00000129171387556867768410000018146141890518391728_" gradientUnits="userSpaceOnUse" x1="-1311.519" y1="491.4626" x2="-1286.519" y2="612.4626" gradientTransform="matrix(-0.9764 0.2172 0.2206 1.0272 -661.0347 55.4082)">
					<stop  offset="0" style="stop-color:#FF928E"/>
					<stop  offset="1" style="stop-color:#FEB3B1"/>
				</linearGradient>
				<path style="fill-rule:evenodd;clip-rule:evenodd;fill:url(#SVGID_00000129171387556867768410000018146141890518391728_);" d="
					M675.331,801.505c5.881,41.813,36.689,81.243,85.152,72.564c33.53-6.005,43.778-37.956,37.897-79.769
					c-5.88-41.813-35.427-73.61-69.159-68.866C695.489,730.178,669.451,759.692,675.331,801.505z"/>
				
					<linearGradient id="SVGID_00000074419807988980110660000014183650553225421955_" gradientUnits="userSpaceOnUse" x1="-1478.0222" y1="487.39" x2="-1453.0222" y2="608.3901" gradientTransform="matrix(-0.9977 0.0678 0.0678 0.9977 -757.9098 -77.0031)">
					<stop  offset="0" style="stop-color:#FF928E"/>
					<stop  offset="1" style="stop-color:#FEB3B1"/>
				</linearGradient>
				<path style="fill-rule:evenodd;clip-rule:evenodd;fill:url(#SVGID_00000074419807988980110660000014183650553225421955_);" d="
					M686.137,818.397c0,0-7.54-23.591-17.643-13.199c-10.103,10.392,13.68,34.968,21.494,34.8
					C697.801,839.829,686.137,818.397,686.137,818.397z"/>
				<g>
					
						<linearGradient id="SVGID_00000038377358897470246080000006897985512901677702_" gradientUnits="userSpaceOnUse" x1="752.2265" y1="923.1336" x2="730.2265" y2="963.8002">
						<stop  offset="0" style="stop-color:#FF928E"/>
						<stop  offset="1" style="stop-color:#FEB3B1"/>
					</linearGradient>
					<path style="fill-rule:evenodd;clip-rule:evenodd;fill:url(#SVGID_00000038377358897470246080000006897985512901677702_);" d="
						M758.745,1062.929c0,0-135.721,7.153-82.95-89.226l-7.563-63.645c0,0-151.708,187.078,98.153,163.568L758.745,1062.929z"/>
					
						<linearGradient id="SVGID_00000138539439460363493890000017931601150200583570_" gradientUnits="userSpaceOnUse" x1="815.4667" y1="957.3451" x2="793.4667" y2="998.0118">
						<stop  offset="0" style="stop-color:#FF928E"/>
						<stop  offset="1" style="stop-color:#FEB3B1"/>
					</linearGradient>
					<path style="fill-rule:evenodd;clip-rule:evenodd;fill:url(#SVGID_00000138539439460363493890000017931601150200583570_);" d="
						M728.794,1068.685l9.159,6.825c0,0,14.592,8.754,25.428,10.309c10.835,1.554,16.375-12.938,17.224-18.074
						c0.849-5.136-4.177-6.493-13.718-2.978c0,0-14.926-7.219-32.235-1.007L728.794,1068.685z"/>
				</g>
				
					<linearGradient id="SVGID_00000047755262379566020650000011682025188857349032_" gradientUnits="userSpaceOnUse" x1="-763.5135" y1="637.6741" x2="-457.4016" y2="865.8245" gradientTransform="matrix(-1 0 0 1 128.8032 0)">
					<stop  offset="0" style="stop-color:#09005D"/>
					<stop  offset="1" style="stop-color:#1A0F91"/>
				</linearGradient>
				<path style="fill-rule:evenodd;clip-rule:evenodd;fill:url(#SVGID_00000047755262379566020650000011682025188857349032_);" d="
					M666.511,800.634c0,0,37.166,42.371,59.237-43.001c0,0,19.161,26.165,28.791,3.705c0,0,39.112,14.539,43.898-1.947
					c4.787-16.486-51.761-62.977-98.998-31.871C652.203,758.626,666.511,800.634,666.511,800.634z"/>
				
					<linearGradient id="SVGID_00000003073514959700411280000009766297666637000089_" gradientUnits="userSpaceOnUse" x1="749.1315" y1="953.2691" x2="738.798" y2="1244.6769">
					<stop  offset="0" style="stop-color:#E1473D"/>
					<stop  offset="1" style="stop-color:#E9605A"/>
				</linearGradient>
				<path style="fill-rule:evenodd;clip-rule:evenodd;fill:url(#SVGID_00000003073514959700411280000009766297666637000089_);" d="
					M815.44,997.73v11.422c0,0.964-0.672,1.794-1.617,1.987c-8.064,1.641-48.612,9.034-129.058,6.51
					c-1.471-0.046-2.71-1.127-2.953-2.578l-2.609-15.614c0,0,98.799,2.008,134.885-2.903
					C814.804,996.456,815.44,997.008,815.44,997.73z"/>
			</g>
		</g>
		<g>
			<g>
				<path style="fill:#91B3FA;" d="M777.78,544.792c-0.236,0-0.472-0.097-0.643-0.287c-0.318-0.354-0.289-0.9,0.065-1.219
					c0.867-0.778,1.757-1.543,2.646-2.273c0.369-0.303,0.913-0.248,1.215,0.119c0.303,0.368,0.249,0.912-0.119,1.215
					c-0.87,0.715-1.741,1.462-2.588,2.224C778.191,544.719,777.985,544.792,777.78,544.792z"/>
				<path style="fill:#91B3FA;" d="M909.297,601.688c-0.468,0-0.852-0.374-0.862-0.844c-0.049-2.206-0.195-4.435-0.433-6.628
					c-0.051-0.474,0.291-0.899,0.765-0.951c0.478-0.056,0.9,0.292,0.951,0.765c0.243,2.24,0.392,4.52,0.442,6.774
					c0.011,0.477-0.367,0.871-0.843,0.882C909.31,601.688,909.304,601.688,909.297,601.688z M906.93,584.253
					c-0.386,0-0.737-0.26-0.836-0.652c-0.538-2.133-1.177-4.275-1.898-6.366c-0.156-0.451,0.084-0.942,0.534-1.097
					c0.451-0.157,0.942,0.084,1.097,0.534c0.737,2.138,1.39,4.327,1.94,6.508c0.116,0.462-0.164,0.931-0.626,1.048
					C907.071,584.245,907,584.253,906.93,584.253z M900.765,567.771c-0.315,0-0.619-0.173-0.771-0.473
					c-1-1.974-2.093-3.923-3.248-5.793c-0.251-0.405-0.125-0.937,0.28-1.188c0.406-0.252,0.938-0.126,1.188,0.281
					c1.181,1.911,2.299,3.903,3.32,5.919c0.215,0.426,0.045,0.945-0.38,1.161C901.029,567.742,900.896,567.771,900.765,567.771z
					 M891.115,553.06c-0.248,0-0.494-0.106-0.664-0.312c-1.409-1.696-2.909-3.351-4.456-4.919c-0.335-0.339-0.332-0.885,0.008-1.221
					c0.339-0.335,0.886-0.331,1.221,0.008c1.582,1.602,3.115,3.294,4.556,5.029c0.305,0.367,0.255,0.91-0.112,1.215
					C891.504,552.996,891.309,553.06,891.115,553.06z M878.427,540.878c-0.183,0-0.367-0.058-0.524-0.178
					c-1.749-1.339-3.58-2.619-5.44-3.806c-0.402-0.256-0.52-0.79-0.264-1.192c0.258-0.401,0.79-0.519,1.192-0.263
					c1.902,1.213,3.773,2.522,5.562,3.891c0.379,0.29,0.451,0.831,0.161,1.209C878.943,540.762,878.686,540.878,878.427,540.878z
					 M789.286,536.222c-0.291,0-0.575-0.147-0.737-0.413c-0.248-0.407-0.12-0.938,0.287-1.187c1.924-1.175,3.922-2.282,5.939-3.289
					c0.428-0.212,0.945-0.041,1.158,0.387c0.213,0.427,0.04,0.945-0.386,1.157c-1.974,0.985-3.928,2.068-5.81,3.218
					C789.595,536.182,789.44,536.222,789.286,536.222z M863.351,531.81c-0.121,0-0.243-0.025-0.36-0.078
					c-2.005-0.919-4.074-1.764-6.149-2.512c-0.448-0.161-0.681-0.656-0.52-1.104c0.162-0.448,0.656-0.683,1.105-0.519
					c2.12,0.763,4.234,1.626,6.284,2.566c0.433,0.199,0.623,0.711,0.425,1.145C863.99,531.624,863.678,531.81,863.351,531.81z
					 M805.229,528.772c-0.36,0-0.695-0.227-0.818-0.586c-0.153-0.452,0.089-0.942,0.541-1.095c2.144-0.727,4.336-1.367,6.517-1.905
					c0.46-0.118,0.93,0.168,1.044,0.631c0.114,0.463-0.169,0.931-0.631,1.044c-2.133,0.526-4.278,1.153-6.376,1.864
					C805.414,528.758,805.32,528.772,805.229,528.772z M846.643,526.294c-0.059,0-0.119-0.006-0.179-0.019
					c-2.157-0.454-4.361-0.822-6.552-1.091c-0.473-0.058-0.81-0.489-0.751-0.962c0.059-0.473,0.494-0.813,0.962-0.751
					c2.239,0.275,4.492,0.651,6.697,1.115c0.467,0.099,0.765,0.556,0.667,1.022C847.402,526.015,847.043,526.294,846.643,526.294z
					 M822.419,525.016c-0.436,0-0.811-0.33-0.857-0.775c-0.049-0.474,0.296-0.898,0.77-0.947c2.242-0.231,4.522-0.367,6.778-0.406
					c0.468,0.007,0.87,0.371,0.878,0.849c0.008,0.476-0.372,0.869-0.848,0.877c-2.206,0.037-4.437,0.171-6.63,0.398
					C822.479,525.014,822.449,525.016,822.419,525.016z"/>
				<path style="fill:#91B3FA;" d="M908.297,616.04c-0.047,0-0.093-0.003-0.14-0.011c-0.47-0.077-0.79-0.52-0.713-0.99
					c0.182-1.124,0.342-2.261,0.474-3.38c0.055-0.474,0.481-0.821,0.958-0.756c0.473,0.056,0.812,0.485,0.756,0.958
					c-0.135,1.144-0.298,2.306-0.485,3.454C909.079,615.739,908.713,616.04,908.297,616.04z"/>
			</g>
			<g>
				<path style="fill:#91B3FA;" d="M875.213,668.37c-0.275,0-0.545-0.131-0.712-0.374c-0.27-0.393-0.17-0.931,0.222-1.2
					c0.927-0.636,1.858-1.308,2.768-1.995c0.381-0.289,0.922-0.212,1.209,0.169c0.287,0.38,0.212,0.921-0.169,1.209
					c-0.931,0.703-1.883,1.39-2.831,2.041C875.551,668.322,875.381,668.37,875.213,668.37z"/>
				<path style="fill:#91B3FA;" d="M830.491,682.301c-1.513,0-3.043-0.044-4.547-0.131c-0.476-0.027-0.839-0.435-0.812-0.911
					c0.027-0.475,0.439-0.822,0.912-0.812c2.161,0.124,4.355,0.159,6.536,0.099c0.493,0.019,0.874,0.363,0.886,0.839
					c0.013,0.476-0.362,0.873-0.839,0.887C831.914,682.291,831.202,682.301,830.491,682.301z M843.284,681.247
					c-0.415,0-0.781-0.299-0.851-0.722c-0.078-0.47,0.241-0.914,0.711-0.992c2.134-0.353,4.286-0.804,6.396-1.339
					c0.462-0.113,0.931,0.163,1.049,0.625c0.117,0.462-0.162,0.932-0.625,1.049c-2.157,0.547-4.357,1.007-6.539,1.368
					C843.378,681.244,843.331,681.247,843.284,681.247z M815.348,680.826c-0.055,0-0.111-0.005-0.167-0.016
					c-2.178-0.427-4.364-0.952-6.496-1.56c-0.458-0.131-0.724-0.609-0.593-1.067c0.131-0.459,0.606-0.727,1.067-0.593
					c2.086,0.595,4.224,1.108,6.354,1.526c0.468,0.092,0.772,0.545,0.681,1.013C816.113,680.541,815.752,680.826,815.348,680.826z
					 M859.954,676.557c-0.342,0-0.665-0.204-0.801-0.54c-0.178-0.443,0.035-0.945,0.478-1.124c2.012-0.811,4.016-1.717,5.956-2.692
					c0.426-0.214,0.945-0.042,1.159,0.383s0.043,0.945-0.384,1.159c-1.982,0.996-4.03,1.923-6.086,2.751
					C860.171,676.537,860.062,676.557,859.954,676.557z M798.825,675.649c-0.116,0-0.233-0.023-0.346-0.073
					c-2.034-0.892-4.053-1.879-6-2.933c-0.419-0.227-0.575-0.75-0.348-1.17c0.228-0.418,0.751-0.574,1.17-0.347
					c1.905,1.031,3.88,1.997,5.871,2.869c0.437,0.191,0.636,0.701,0.444,1.137C799.474,675.456,799.157,675.649,798.825,675.649z
					 M783.823,667.011c-0.177,0-0.355-0.054-0.509-0.167c-1.792-1.313-3.548-2.715-5.216-4.168c-0.36-0.313-0.397-0.858-0.085-1.217
					c0.313-0.361,0.857-0.398,1.218-0.084c1.633,1.42,3.35,2.792,5.104,4.077c0.385,0.281,0.468,0.822,0.186,1.206
					C784.351,666.889,784.089,667.011,783.823,667.011z M771.072,655.309c-0.241,0-0.48-0.1-0.651-0.295
					c-1.456-1.668-2.861-3.422-4.176-5.212c-0.282-0.384-0.199-0.924,0.185-1.206c0.383-0.283,0.924-0.199,1.207,0.185
					c1.286,1.751,2.661,3.467,4.085,5.098c0.314,0.359,0.276,0.904-0.083,1.218C771.476,655.239,771.273,655.309,771.072,655.309z
					 M761.199,641.091c-0.307,0-0.604-0.163-0.76-0.452c-1.053-1.945-2.04-3.962-2.933-5.998c-0.191-0.436,0.007-0.946,0.444-1.137
					c0.437-0.188,0.946,0.008,1.137,0.444c0.874,1.992,1.84,3.966,2.87,5.868c0.227,0.42,0.071,0.943-0.348,1.17
					C761.479,641.057,761.338,641.091,761.199,641.091z M754.655,625.063c-0.375,0-0.721-0.247-0.829-0.626
					c-0.611-2.135-1.139-4.32-1.568-6.494c-0.092-0.467,0.212-0.921,0.679-1.014c0.469-0.094,0.922,0.212,1.014,0.68
					c0.42,2.127,0.937,4.264,1.535,6.353c0.131,0.458-0.134,0.936-0.592,1.067C754.813,625.052,754.734,625.063,754.655,625.063z
					 M751.75,607.994c-0.454,0-0.834-0.354-0.861-0.813c-0.087-1.513-0.132-3.05-0.132-4.568c0-0.705,0.009-1.408,0.028-2.111
					c0.013-0.477,0.427-0.827,0.886-0.84c0.476,0.013,0.852,0.41,0.84,0.886c-0.018,0.687-0.028,1.375-0.028,2.065
					c0,1.485,0.044,2.989,0.13,4.469c0.027,0.475-0.336,0.884-0.812,0.911C751.784,607.993,751.767,607.994,751.75,607.994z"/>
				<path style="fill:#91B3FA;" d="M752.674,590.663c-0.046,0-0.094-0.003-0.142-0.012c-0.47-0.077-0.789-0.522-0.711-0.992
					c0.188-1.141,0.405-2.293,0.644-3.427c0.098-0.467,0.557-0.764,1.022-0.667c0.467,0.098,0.765,0.556,0.667,1.022
					c-0.233,1.109-0.445,2.237-0.63,3.353C753.455,590.363,753.089,590.663,752.674,590.663z"/>
			</g>
			<g>
				<path style="fill:#91B3FA;" d="M773.24,582.789c-0.172,0.365-0.093,0.799,0.196,1.081l8.251,8.033
					c-1.12,5.26-1.41,10.736-0.773,16.233l-8.966,7.214c-0.315,0.253-0.434,0.678-0.297,1.057l4.677,12.996
					c0.137,0.38,0.499,0.631,0.903,0.626l11.507-0.154c3.013,4.642,6.725,8.678,10.94,12.018l-1.24,11.448
					c-0.044,0.401,0.172,0.786,0.537,0.958l12.497,5.882c0.366,0.172,0.799,0.093,1.081-0.196l8.032-8.251
					c5.26,1.12,10.736,1.41,16.233,0.773l7.214,8.966c0.253,0.315,0.677,0.434,1.057,0.297l12.996-4.677
					c0.38-0.137,0.631-0.499,0.626-0.903l-0.154-11.507c4.643-3.012,8.678-6.725,12.018-10.94l11.448,1.24
					c0.401,0.043,0.786-0.173,0.958-0.538l5.882-12.497c0.172-0.365,0.093-0.799-0.196-1.081l-8.251-8.032
					c1.121-5.259,1.41-10.736,0.773-16.233l8.966-7.214c0.314-0.253,0.434-0.678,0.297-1.057l-4.677-12.997
					c-0.137-0.38-0.499-0.631-0.903-0.625l-11.507,0.154c-3.012-4.643-6.725-8.678-10.94-12.018l1.24-11.448
					c0.044-0.401-0.172-0.786-0.538-0.958l-12.497-5.882c-0.365-0.172-0.799-0.093-1.081,0.196l-8.033,8.251
					c-5.26-1.12-10.736-1.41-16.233-0.773l-7.214-8.966c-0.253-0.314-0.678-0.434-1.057-0.297l-12.996,4.677
					c-0.38,0.137-0.631,0.499-0.626,0.903l0.154,11.507c-4.643,3.012-8.678,6.725-12.018,10.94l-11.448-1.24
					c-0.401-0.044-0.786,0.172-0.958,0.538L773.24,582.789z"/>
				<g>
					<path style="fill:#BDD0FB;" d="M831.072,615.923c-4.363,0-8.651-2.097-11.266-5.98l0,0c-2.023-3.004-2.756-6.616-2.062-10.171
						c0.693-3.554,2.73-6.627,5.733-8.65c6.2-4.176,14.644-2.53,18.821,3.672c2.023,3.004,2.756,6.616,2.062,10.171
						c-0.693,3.554-2.73,6.627-5.734,8.649C836.308,615.175,833.676,615.923,831.072,615.923z M831.035,591.402
						c-2.107,0-4.236,0.604-6.112,1.868c-2.43,1.637-4.078,4.122-4.639,6.998c-0.561,2.876,0.032,5.798,1.668,8.228l0,0
						c3.379,5.017,10.21,6.351,15.226,2.97c2.43-1.637,4.078-4.122,4.639-6.998c0.561-2.876-0.032-5.798-1.669-8.228
						C838.034,593.099,834.565,591.402,831.035,591.402z"/>
				</g>
				<g>
					<path style="fill:#BDD0FB;" d="M831.36,637.096c-14.194,0-27.535-8.797-32.612-22.902c-0.213-0.593-0.41-1.19-0.59-1.792
						c-0.466-1.552-0.823-3.134-1.067-4.724c-0.011-0.073-0.022-0.145-0.032-0.218c-0.021-0.142-0.041-0.284-0.06-0.426l2.567-0.344
						c0.3,2.244,0.845,4.473,1.62,6.627c0.268,0.746,0.561,1.475,0.878,2.187c5.764,12.964,19.365,20.422,33.099,18.772
						c2.268-0.274,4.54-0.796,6.78-1.584c0.077-0.027,0.154-0.054,0.231-0.082c13.049-4.697,21.188-17.041,21.188-30.173
						c0-3.593-0.609-7.245-1.895-10.817c-2.897-8.051-8.757-14.491-16.498-18.135c-7.741-3.645-16.439-4.055-24.49-1.158
						c-5.464,1.966-10.284,5.37-13.939,9.841l-2.004-1.639c3.952-4.834,9.162-8.513,15.067-10.638
						c8.702-3.132,18.102-2.687,26.47,1.251c8.368,3.939,14.701,10.9,17.832,19.602c1.389,3.859,2.047,7.807,2.047,11.691
						c0,14.194-8.797,27.536-22.901,32.611C839.192,636.437,835.244,637.096,831.36,637.096z"/>
				</g>
			</g>
		</g>
		<g>
			<g>
				<path style="fill:#91B3FA;" d="M698.707,474.891c-0.462,0-0.922-0.189-1.254-0.559c-0.622-0.692-0.564-1.756,0.128-2.378
					c1.703-1.528,3.505-2.991,5.358-4.348c0.751-0.553,1.804-0.386,2.353,0.363c0.55,0.75,0.387,1.804-0.363,2.353
					c-1.762,1.291-3.478,2.684-5.098,4.138C699.51,474.749,699.107,474.891,698.707,474.891z"/>
				<path style="fill:#91B3FA;" d="M809.879,509.026c-0.755,0-1.441-0.511-1.632-1.276c-0.711-2.85-1.624-5.69-2.714-8.44
					c-0.429-1.084-0.885-2.153-1.365-3.202c-0.387-0.845-0.016-1.845,0.83-2.232c0.846-0.387,1.845-0.017,2.232,0.83
					c0.505,1.102,0.983,2.223,1.434,3.363c1.144,2.888,2.104,5.869,2.851,8.864c0.225,0.903-0.324,1.817-1.226,2.043
					C810.151,509.01,810.013,509.026,809.879,509.026z M794.453,479.956c-0.461,0-0.919-0.188-1.252-0.558
					c-2.746-3.046-5.797-5.853-9.072-8.343c-0.74-0.563-0.884-1.62-0.321-2.36c0.562-0.74,1.617-0.885,2.36-0.321
					c3.441,2.616,6.65,5.567,9.534,8.77c0.623,0.691,0.567,1.755-0.123,2.378C795.257,479.813,794.854,479.956,794.453,479.956z
					 M767.147,461.595c-0.191,0-0.385-0.033-0.575-0.1c-3.863-1.403-7.878-2.45-11.932-3.112c-0.918-0.151-1.541-1.016-1.391-1.934
					c0.15-0.918,1.007-1.533,1.933-1.391c4.26,0.696,8.479,1.796,12.539,3.269c0.874,0.317,1.326,1.284,1.008,2.158
					C768.482,461.17,767.836,461.595,767.147,461.595z M722.121,461.178c-0.7,0-1.353-0.439-1.593-1.138
					c-0.301-0.88,0.169-1.839,1.048-2.139c4.093-1.401,8.331-2.424,12.597-3.041c0.918-0.151,1.774,0.505,1.908,1.424
					c0.133,0.921-0.505,1.776-1.426,1.908c-4.059,0.587-8.092,1.563-11.989,2.896C722.486,461.149,722.302,461.178,722.121,461.178z
					"/>
				<path style="fill:#91B3FA;" d="M811.012,536.199c-0.09,0-0.18-0.007-0.272-0.021c-0.918-0.15-1.541-1.015-1.391-1.932
					c0.35-2.159,0.597-4.355,0.731-6.524c0.058-0.929,0.863-1.623,1.784-1.577c0.928,0.058,1.635,0.857,1.577,1.784
					c-0.141,2.281-0.4,4.588-0.769,6.856C812.538,535.612,811.823,536.199,811.012,536.199z"/>
			</g>
			<g>
				<path style="fill:#91B3FA;" d="M779.383,583.273c-0.568,0-1.123-0.288-1.441-0.809c-0.484-0.794-0.231-1.83,0.563-2.314
					c1.871-1.138,3.698-2.38,5.431-3.689c0.743-0.564,1.798-0.414,2.359,0.329c0.561,0.742,0.414,1.797-0.328,2.358
					c-1.822,1.377-3.744,2.682-5.711,3.879C779.983,583.194,779.681,583.273,779.383,583.273z"/>
				<path style="fill:#91B3FA;" d="M748.516,593.065c-0.879,0-1.62-0.682-1.679-1.572c-0.061-0.929,0.642-1.73,1.569-1.793
					c4.027-0.266,8.054-0.911,11.97-1.916c0.903-0.234,1.819,0.313,2.05,1.214c0.231,0.9-0.312,1.817-1.213,2.049
					c-4.116,1.056-8.35,1.733-12.583,2.015C748.59,593.063,748.552,593.065,748.516,593.065z M728.434,591.381
					c-0.129,0-0.26-0.015-0.391-0.046c-4.124-0.979-8.186-2.344-12.073-4.059c-0.851-0.375-1.237-1.37-0.862-2.22
					c0.376-0.85,1.372-1.233,2.22-0.862c3.701,1.633,7.568,2.932,11.493,3.865c0.905,0.214,1.464,1.122,1.25,2.028
					C729.887,590.859,729.196,591.381,728.434,591.381z M699.617,576.641c-0.391,0-0.783-0.135-1.101-0.411
					c-3.214-2.779-6.183-5.869-8.824-9.183c-0.58-0.727-0.459-1.786,0.268-2.367c0.727-0.577,1.785-0.461,2.367,0.268
					c2.511,3.151,5.335,6.09,8.393,8.736c0.703,0.608,0.78,1.671,0.172,2.375C700.559,576.443,700.089,576.641,699.617,576.641z
					 M680.936,550.226c-0.672,0-1.307-0.405-1.567-1.067c-1.562-3.963-2.765-8.078-3.576-12.229
					c-0.179-0.913,0.417-1.798,1.33-1.975c0.911-0.186,1.797,0.416,1.976,1.33c0.771,3.949,1.917,7.866,3.403,11.64
					c0.341,0.865-0.084,1.842-0.949,2.184C681.35,550.189,681.141,550.226,680.936,550.226z"/>
				<path style="fill:#91B3FA;" d="M676.596,518.092c-0.061,0-0.123-0.003-0.184-0.01c-0.924-0.1-1.593-0.931-1.492-1.855
					c0.247-2.276,0.612-4.569,1.085-6.813c0.192-0.909,1.081-1.491,1.996-1.301c0.909,0.192,1.492,1.085,1.3,1.995
					c-0.451,2.136-0.798,4.317-1.033,6.481C678.173,517.453,677.444,518.092,676.596,518.092z"/>
			</g>
			<g>
				<path style="fill:#91B3FA;" d="M694.8,506.645c-0.148,0.314-0.08,0.688,0.169,0.93l7.1,6.912
					c-0.964,4.526-1.213,9.238-0.665,13.968l-7.715,6.207c-0.271,0.218-0.373,0.583-0.256,0.91l4.025,11.183
					c0.117,0.327,0.43,0.543,0.777,0.538l9.901-0.133c2.592,3.994,5.786,7.467,9.414,10.34l-1.067,9.851
					c-0.037,0.345,0.148,0.676,0.463,0.824l10.753,5.061c0.314,0.148,0.688,0.08,0.93-0.169l6.912-7.099
					c4.526,0.964,9.238,1.213,13.968,0.665l6.207,7.715c0.218,0.271,0.583,0.373,0.91,0.255l11.183-4.024
					c0.327-0.118,0.543-0.43,0.538-0.777l-0.133-9.901c3.995-2.592,7.467-5.786,10.341-9.414l9.851,1.067
					c0.345,0.037,0.676-0.148,0.824-0.463l5.062-10.753c0.148-0.314,0.08-0.688-0.169-0.93l-7.1-6.912
					c0.964-4.525,1.213-9.238,0.665-13.968l7.715-6.207c0.27-0.218,0.373-0.583,0.256-0.91l-4.025-11.183
					c-0.117-0.327-0.43-0.543-0.777-0.538l-9.901,0.133c-2.592-3.995-5.786-7.467-9.413-10.341l1.067-9.851
					c0.037-0.345-0.148-0.677-0.463-0.824l-10.753-5.062c-0.314-0.148-0.688-0.08-0.93,0.169l-6.911,7.099
					c-4.526-0.964-9.238-1.213-13.968-0.665l-6.207-7.715c-0.217-0.271-0.583-0.373-0.91-0.255l-11.183,4.024
					c-0.327,0.118-0.543,0.43-0.538,0.777l0.133,9.901c-3.994,2.592-7.467,5.787-10.341,9.414l-9.85-1.067
					c-0.345-0.037-0.676,0.148-0.824,0.462L694.8,506.645z"/>
				<g>
					<path style="fill:#BDD0FB;" d="M744.572,536.575c-0.841,0-1.688-0.08-2.532-0.245c-3.429-0.669-6.392-2.634-8.344-5.532l0,0
						c-1.952-2.898-2.658-6.381-1.989-9.81c0.669-3.429,2.633-6.392,5.531-8.344c2.898-1.954,6.383-2.661,9.81-1.99
						c3.43,0.669,6.392,2.635,8.344,5.532c4.028,5.981,2.44,14.125-3.543,18.154C749.666,535.812,747.148,536.575,744.572,536.575z
						 M744.528,515.463c-1.581,0-3.126,0.469-4.467,1.372c-1.779,1.197-2.984,3.016-3.394,5.121
						c-0.41,2.105,0.023,4.243,1.221,6.021l0,0c1.198,1.779,3.016,2.985,5.12,3.394c2.104,0.413,4.242-0.023,6.021-1.22
						c3.671-2.474,4.646-7.471,2.174-11.142c-1.198-1.779-3.017-2.985-5.121-3.394C745.564,515.512,745.044,515.463,744.528,515.463
						z"/>
				</g>
				<g>
					<path style="fill:#BDD0FB;" d="M744.761,554.8c-4.532,0-9.047-1-13.269-2.988c-7.541-3.549-13.248-9.823-16.071-17.666
						c-0.684-1.903-1.186-3.87-1.492-5.858c-0.031-0.197-0.058-0.395-0.086-0.592l5.008-0.671c0.246,1.834,0.692,3.654,1.324,5.411
						l0,0c0.106,0.294,0.216,0.586,0.331,0.875c4.401,10.992,15.565,17.457,26.941,16.287c2.07-0.212,4.145-0.676,6.189-1.411
						c10.652-3.833,17.297-13.911,17.297-24.632c0-2.934-0.497-5.915-1.547-8.831c-4.882-13.567-19.893-20.63-33.462-15.751
						c-4.462,1.607-8.397,4.384-11.379,8.034l-3.912-3.197c3.562-4.358,8.258-7.673,13.581-9.589
						c16.19-5.823,34.102,2.607,39.927,18.794c1.242,3.45,1.86,7.022,1.86,10.583c0.001,4.534-1,9.05-2.987,13.273
						c-3.55,7.542-9.824,13.248-17.666,16.07C751.897,554.182,748.323,554.8,744.761,554.8z"/>
				</g>
			</g>
		</g>
		<g>
			<path style="fill:#FFFFFF;" d="M1439.533,561.801c0,0-262.806-141.602-188.693-240.541
				c48.243-64.403,228.533-62.543,237.193,44.816C1496.695,473.434,1322.74,449.557,1439.533,561.801z"/>
			<g>
				<path style="fill:#91B3FA;" d="M1447.418,352.226c0,0.864-0.701,1.565-1.565,1.565h-102.951c-0.864,0-1.565-0.701-1.565-1.565
					s0.701-1.565,1.565-1.565h102.951C1446.717,350.661,1447.418,351.362,1447.418,352.226z"/>
				<path style="fill:#91B3FA;" d="M1312.334,353.791h-30.547c-0.864,0-1.565-0.701-1.565-1.565s0.7-1.565,1.565-1.565h30.547
					c0.864,0,1.565,0.701,1.565,1.565S1313.198,353.791,1312.334,353.791z"/>
				<path style="fill:#91B3FA;" d="M1450.885,373.068c0,0.864-0.7,1.565-1.565,1.565h-38.656c-0.864,0-1.565-0.701-1.565-1.565
					c0-0.864,0.7-1.565,1.565-1.565h38.656C1450.185,371.503,1450.885,372.204,1450.885,373.068z"/>
				<path style="fill:#91B3FA;" d="M1355.507,373.068c0,0.864-0.701,1.565-1.565,1.565h-68.688c-0.864,0-1.565-0.701-1.565-1.565
					c0-0.864,0.701-1.565,1.565-1.565h68.688C1354.806,371.503,1355.507,372.204,1355.507,373.068z"/>
				<path style="fill:#91B3FA;" d="M1454.354,393.911c0,0.864-0.701,1.565-1.565,1.565h-102.76c-0.864,0-1.565-0.701-1.565-1.565
					c0-0.864,0.701-1.565,1.565-1.565h102.76C1453.654,392.346,1454.354,393.047,1454.354,393.911z"/>
				<path style="fill:#91B3FA;" d="M1325.862,393.911c0,0.864-0.701,1.565-1.565,1.565h-35.574c-0.864,0-1.565-0.701-1.565-1.565
					c0-0.864,0.7-1.565,1.565-1.565h35.574C1325.161,392.346,1325.862,393.047,1325.862,393.911z"/>
			</g>
		</g>
		<g>
			<path style="fill:#FFFFFF;" d="M848.476,898.857c-4.379-1.013-4.591-4.976,0-5.378c20.922-1.83,61.125-44.205,61.124-63.368
				c-0.001-22.147-14.263-104.632,75.478-126.556c66.285-16.193,227.185-17.639,225.434,68.558
				C1208.815,855.663,1056.805,947.071,848.476,898.857z"/>
			
				<linearGradient id="SVGID_00000129183718982385480250000005479764948866685882_" gradientUnits="userSpaceOnUse" x1="1107.7113" y1="620.2489" x2="897.6904" y2="1439.3304">
				<stop  offset="0" style="stop-color:#4042E2"/>
				<stop  offset="1" style="stop-color:#4F52FF"/>
			</linearGradient>
			<path style="fill:url(#SVGID_00000129183718982385480250000005479764948866685882_);" d="M963.303,865.655
				c-3.999,0-8.092-0.733-12.029-2.604c-11.884-5.646-18.228-21.044-14.444-35.053c3.233-11.968,13.199-22.652,26.66-28.581
				c2.186-0.963,4.478-1.828,6.695-2.664c6.773-2.556,13.17-4.97,17.458-10.115c5.39-6.467,5.982-15.631,5.82-24.57
				c-0.133-7.3-1.695-19.93-10.663-22.498c-8.741-2.504-16.656,6.719-21.148,16.183l-2.681-1.273
				c5.015-10.563,14.123-20.776,24.647-17.764c10.804,3.094,12.666,17.178,12.813,25.297c0.173,9.513-0.496,19.31-6.507,26.524
				c-4.789,5.747-11.856,8.413-18.69,10.992c-2.18,0.823-4.435,1.673-6.547,2.604c-12.647,5.571-21.989,15.529-24.99,26.639
				c-3.422,12.668,2.223,26.548,12.852,31.599c11.607,5.514,25.046-0.05,32.023-3.858c4.079-2.227,8.058-4.86,11.907-7.407
				c5.743-3.801,11.682-7.732,18.185-10.482c7.935-3.356,18.37-3.638,22.526,3.671c1.204,2.118,1.585,4.447,1.953,6.7
				c0.293,1.789,0.569,3.479,1.231,4.989c1.306,2.979,3.861,4.478,5.774,5.211c3.522,1.35,7.837,1.225,11.263-0.327
				c5.305-2.404,9.63-7.325,13.612-15.488c1.345-2.757,2.513-5.686,1.955-8.422c-0.885-4.347-5.626-6.86-10.617-8.93
				c-1.648-0.684-4.632-1.679-8.409-2.939c-19.961-6.66-39.489-13.818-39.952-21.659c-0.143-2.427,0.719-4.555,2.563-6.324
				c9.167-8.794,41.295-5.83,44.929-5.464c2.152,0.218,5.864,0.065,6.129-1.881c0.09-0.659-0.27-1.465-0.549-2.013
				c-2.864-5.63-9.039-8.775-15.011-11.817c-0.676-0.344-1.348-0.687-2.013-1.031c-9.516-4.931-14.62-10.778-15.169-17.377
				c-0.455-5.457,2.438-11.162,7.548-14.887c3.874-2.824,8.966-4.609,15.567-5.457c5.703-0.732,16.036-1.003,26.382,0.643
				c8.142,1.295,18.853,4.237,23.644,10.896c3.412,4.743,5.191,10.936,5.439,18.934c0.155,5.009-0.339,8.943-1.555,12.381
				c-0.795,2.251-1.927,4.335-3.021,6.35c-0.613,1.128-1.246,2.295-1.797,3.454c-3.402,7.155-3.737,14.818-0.895,20.499
				c3.537,7.071,11.766,9.581,16.941,7.41c1.399-0.586,2.855-1.502,4.264-2.387c3.414-2.146,7.284-4.579,11.381-2.769
				c3.281,1.45,4.486,4.666,5.652,7.776c0.586,1.564,1.14,3.042,1.934,4.268c2.167,3.348,6.767,5.194,11.724,4.7
				c4.592-0.457,8.934-2.607,13.347-4.96l1.396,2.619c-4.686,2.498-9.318,4.783-14.45,5.294c-6.046,0.602-11.744-1.769-14.51-6.041
				c-0.969-1.497-1.605-3.196-2.221-4.84c-1.037-2.767-1.933-5.157-4.072-6.102c-2.655-1.172-5.411,0.56-8.602,2.567
				c-1.51,0.949-3.072,1.931-4.695,2.612c-8.077,3.386-17.245-1.826-20.744-8.82c-3.247-6.492-2.922-15.128,0.87-23.101
				c0.585-1.231,1.238-2.433,1.869-3.595c1.087-2.002,2.113-3.893,2.83-5.923c1.089-3.08,1.529-6.671,1.386-11.3
				c-0.229-7.388-1.825-13.045-4.881-17.293c-7.538-10.476-34.929-11.91-47.239-10.329c-6.178,0.794-10.689,2.354-14.196,4.911
				c-4.215,3.072-6.703,7.878-6.34,12.243c0.46,5.515,5.028,10.557,13.578,14.988c0.658,0.341,1.325,0.68,1.995,1.021
				c6.395,3.257,13.008,6.625,16.309,13.116c0.46,0.904,1.047,2.277,0.844,3.76c-0.453,3.322-3.953,4.979-9.369,4.432
				c-11.804-1.192-35.898-1.753-42.576,4.652c-1.204,1.155-1.745,2.466-1.654,4.007c0.384,6.492,25.742,14.953,37.929,19.019
				c3.833,1.279,6.86,2.289,8.606,3.013c5.748,2.383,11.226,5.374,12.389,11.079c0.734,3.604-0.622,7.088-2.196,10.316
				c-4.301,8.818-9.085,14.185-15.054,16.89c-4.184,1.896-9.25,2.044-13.55,0.395c-3.452-1.323-6.09-3.735-7.43-6.791
				c-0.813-1.853-1.133-3.809-1.442-5.701c-0.342-2.086-0.664-4.057-1.605-5.713c-3.479-6.122-13.143-4.792-18.789-2.404
				c-6.249,2.643-12.071,6.497-17.702,10.223c-3.9,2.581-7.932,5.25-12.123,7.538C980.818,861.941,972.3,865.655,963.303,865.655z"
				/>
		</g>
		<g>
			<path style="fill:#BDD0FB;" d="M1913.492,1460.226c-95.284-43.262-135.988-207.345-86.233-264.086
				c33.619-38.339,86.735-2.808,133.93-43.218c60.258-51.596,9.092-139.846,52.141-260.228
				c36.636-102.447,132.397-202.698,192.412-186.445c62.822,17.013,103.515,166.3,55.732,260.06
				c-31.074,60.974-83.387,66.721-91.79,122.32c-9.751,64.514,55.639,90.15,59.338,151.983
				C2235.668,1351.681,2039.546,1517.458,1913.492,1460.226z"/>
			<path style="fill:#7D97F4;" d="M1965.799,1499.977c-0.553,0.03-1.121-0.061-1.665-0.29c-1.925-0.809-2.83-3.024-2.021-4.948
				c109.134-259.807,129.243-555.434,129.434-558.39c0.134-2.084,1.935-3.665,4.015-3.529c2.083,0.134,3.664,1.932,3.529,4.015
				c-0.191,2.969-20.387,299.866-130.008,560.831C1968.503,1499.045,1967.2,1499.901,1965.799,1499.977z"/>
			
				<linearGradient id="SVGID_00000155847423388893149870000018036596650724308639_" gradientUnits="userSpaceOnUse" x1="2190.7971" y1="870.7905" x2="2253.8652" y2="870.7905">
				<stop  offset="0" style="stop-color:#DAE3FE"/>
				<stop  offset="1" style="stop-color:#E9EFFD"/>
			</linearGradient>
			<path style="fill:url(#SVGID_00000155847423388893149870000018036596650724308639_);" d="M2191.785,1006.373
				c-0.195,0-0.392-0.057-0.564-0.177c-0.449-0.312-0.559-0.929-0.247-1.377c28.964-41.645,47.831-81.659,56.075-118.93
				c6.583-29.762,6.445-57.85-0.411-83.483c-11.659-43.59-39.048-65.213-39.323-65.426c-0.432-0.335-0.511-0.956-0.176-1.388
				c0.335-0.432,0.957-0.51,1.388-0.176c0.281,0.217,28.194,22.252,40.023,66.478c6.939,25.943,7.084,54.347,0.431,84.422
				c-8.301,37.525-27.271,77.775-56.383,119.633C2192.406,1006.225,2192.098,1006.373,2191.785,1006.373z"/>
			<path style="fill:#F0F0F0;" d="M1903.84,1437.757c-0.297,0-0.59-0.133-0.785-0.387c-34.964-45.531-58.197-86.37-69.055-121.381
				c-8.898-28.69-9.587-53.691-2.05-74.307c15.003-41.034,57.966-50.848,58.398-50.943c0.531-0.116,1.06,0.222,1.177,0.755
				c0.117,0.534-0.221,1.061-0.755,1.178c-0.422,0.092-42.357,9.701-56.971,49.713c-7.378,20.201-6.673,44.775,2.097,73.039
				c10.792,34.781,33.915,75.404,68.728,120.74c0.333,0.434,0.251,1.055-0.182,1.387
				C1904.263,1437.691,1904.051,1437.757,1903.84,1437.757z"/>
		</g>
		<g>
			<path style="fill:#91B3FA;" d="M1738.351,1492.683c104.547,18.898,240.206-70.825,285.25-170.794
				c46.355-102.877-34.227-147.862-30.881-291.769c3.801-163.475,109.662-186.123,183.538-405.174
				c16.668-49.422,113.123-335.425,1.327-391.486c-103.368-51.834-399.063,85.74-453.874,267.934
				c-39.083,129.914,73.076,186.888,26.972,338.188c-40.453,132.755-140.184,132.804-180.813,260.856
				C1520.409,1256.33,1601.08,1467.869,1738.351,1492.683z"/>
			<path style="fill:#7D97F4;" d="M1752.908,1522.827c-18.305-165.884,28.321-420.391,70.658-604.686
				c45.836-199.53,96.652-362.029,97.159-363.648l6.579,2.066c-0.508,1.616-51.254,163.9-97.03,363.175
				c-42.211,183.759-88.709,437.423-70.511,602.338L1752.908,1522.827z"/>
		</g>
		<g>
			<g>
				<g>
					
						<linearGradient id="SVGID_00000011006029221358885810000005399859688650973368_" gradientUnits="userSpaceOnUse" x1="-3148.4487" y1="1510.4327" x2="-3096.3198" y2="1182.5267" gradientTransform="matrix(1 0 0 1 4833.2573 0)">
						<stop  offset="0" style="stop-color:#4042E2"/>
						<stop  offset="1" style="stop-color:#4F52FF"/>
					</linearGradient>
					
						<rect x="1691.577" y="1261.588" style="fill:url(#SVGID_00000011006029221358885810000005399859688650973368_);" width="24.119" height="260.826"/>
					
						<linearGradient id="SVGID_00000079471250722445889280000013323675292091674299_" gradientUnits="userSpaceOnUse" x1="-3127.5449" y1="1513.7555" x2="-3075.4153" y2="1185.8444" gradientTransform="matrix(1 0 0 1 4833.2573 0)">
						<stop  offset="0" style="stop-color:#4042E2"/>
						<stop  offset="1" style="stop-color:#4F52FF"/>
					</linearGradient>
					<path style="fill:url(#SVGID_00000079471250722445889280000013323675292091674299_);" d="M1809.257,1527.443h-211.242l0,0
						c0-8.671,7.029-15.7,15.7-15.7h179.843C1802.228,1511.743,1809.257,1518.772,1809.257,1527.443L1809.257,1527.443z"/>
					
						<linearGradient id="SVGID_00000026145996305902731760000003721980186470381230_" gradientUnits="userSpaceOnUse" x1="-3167.821" y1="1507.3535" x2="-3115.6921" y2="1179.4474" gradientTransform="matrix(1 0 0 1 4833.2573 0)">
						<stop  offset="0" style="stop-color:#4042E2"/>
						<stop  offset="1" style="stop-color:#4F52FF"/>
					</linearGradient>
					<path style="fill:url(#SVGID_00000026145996305902731760000003721980186470381230_);" d="M1840.609,1252.535
						c0,14.266-11.672,25.937-25.937,25.937h-213.722c-14.266,0-25.937-11.671-25.937-25.937v-23.452
						c0-14.266,11.672-25.937,25.937-25.937h213.722c14.266,0,25.937,11.672,25.937,25.937V1252.535z"/>
				</g>
				<g>
					
						<linearGradient id="SVGID_00000086692112274851437790000000221488431138944934_" gradientUnits="userSpaceOnUse" x1="-3392.8293" y1="1301.6544" x2="-3221.3386" y2="1301.6544" gradientTransform="matrix(1 0 0 1 4833.2573 0)">
						<stop  offset="0" style="stop-color:#FF928E"/>
						<stop  offset="1" style="stop-color:#FEB3B1"/>
					</linearGradient>
					<path style="fill:url(#SVGID_00000086692112274851437790000000221488431138944934_);" d="M1525.583,1087.677
						c0,0-35.839,5.556-76.134,32.492c-6.341,4.239-9.82,11.629-8.864,19.197c4.825,38.219,24.663,161.922,90.081,282.743
						c3.45,6.371,4.441,13.787,2.919,20.87l-11.365,52.891l-21.077,19.762h54.288l36.147-97.819l-15.457-4.887
						c-11.984-3.79-20.206-14.812-20.424-27.379l-1.813-104.932c1.547-46.749-28.666-79.005-28.666-79.005l86.701-4.218
						L1525.583,1087.677z"/>
					
						<linearGradient id="SVGID_00000045612845316495768860000013106287180705369759_" gradientUnits="userSpaceOnUse" x1="-3238.6326" y1="777.7351" x2="-3250.6326" y2="934.735" gradientTransform="matrix(1 0 0 1 4833.2573 0)">
						<stop  offset="0" style="stop-color:#09005D"/>
						<stop  offset="1" style="stop-color:#1A0F91"/>
					</linearGradient>
					<path style="fill:url(#SVGID_00000045612845316495768860000013106287180705369759_);" d="M1479.944,1525.174
						c-4.944,6.471,53.213,15.009,82.595,0.856c0,0,40.73-70.865,40.73-107.352c0,0-3.233-7.439-27.148-5.753
						c0,0-13.676,83.908-28.117,93.307c-14.44,9.399-40.402,0.951-40.402,0.951S1487.239,1515.627,1479.944,1525.174z"/>
					
						<linearGradient id="SVGID_00000116952748917969150010000007649480796149178249_" gradientUnits="userSpaceOnUse" x1="1769.9156" y1="1276.4678" x2="1658.9155" y2="1288.4678">
						<stop  offset="0" style="stop-color:#FF928E"/>
						<stop  offset="1" style="stop-color:#FEB3B1"/>
					</linearGradient>
					<path style="fill:url(#SVGID_00000116952748917969150010000007649480796149178249_);" d="M1600.949,1203.146
						c-0.462-0.798-93.347-11.168-93.347-11.168s3.04,28.242-6.46,67.119c-9.5,38.877-145.876,207.316-145.876,207.316l14.299,45.33
						c-44.212,15.401-87.702,17.863-130.496,7.85l88.619-53.18c0,0,82.937-282.634,133.738-333.055l93.106-32.212L1600.949,1203.146
						z"/>
					
						<linearGradient id="SVGID_00000000942550746310722310000006858127821310490035_" gradientUnits="userSpaceOnUse" x1="-3481.0461" y1="759.2076" x2="-3493.0461" y2="916.2078" gradientTransform="matrix(1 0 0 1 4833.2573 0)">
						<stop  offset="0" style="stop-color:#09005D"/>
						<stop  offset="1" style="stop-color:#1A0F91"/>
					</linearGradient>
					<path style="fill:url(#SVGID_00000000942550746310722310000006858127821310490035_);" d="M1364.162,1496.477
						c0,0,15.395,14.911,4.995,31.501c0,0-121.953,21.616-155.065,11.809c0,0,6.875-15.693,44.16-33.554l-2.751,2.112
						c-3.482,2.673-1.44,8.24,2.942,7.99C1283.013,1514.934,1333.857,1510.433,1364.162,1496.477z"/>
				</g>
			</g>
			<g>
				
					<linearGradient id="SVGID_00000034803223250612143240000005816925853772424630_" gradientUnits="userSpaceOnUse" x1="2507.8252" y1="-2678.5256" x2="3235.5813" y2="-1817.4891" gradientTransform="matrix(-1 0 0 1 7090.4536 0)">
					<stop  offset="0" style="stop-color:#09005D"/>
					<stop  offset="1" style="stop-color:#1A0F91"/>
				</linearGradient>
				<path style="fill:url(#SVGID_00000034803223250612143240000005816925853772424630_);" d="M1516.279,588.8
					c0,7.422,66.797,282.033,66.797,282.033l190.312,55.974c36.7,10.794,76.104-4.101,96.487-36.473h0.001
					c50.644-80.436,26.451-186.7-54.022-237.284l-26.953-16.941c-57.462-36.118-107.067-83.43-145.865-139.115l-10.151-14.569
					L1516.279,588.8z"/>
				<path style="fill:#91B3FA;" d="M1840.439,853.601c-0.083,0-0.166-0.043-0.212-0.12c-0.07-0.117-0.032-0.269,0.084-0.339
					c7.576-4.553,25.16-19.247,24.806-57.277c-0.232-25.043-6.888-49.793-19.248-71.574c-22.203-39.128-60.577-65.706-97.687-91.409
					c-2.564-1.776-5.123-3.548-7.671-5.321c-37.817-26.307-79.584-58.243-96.567-104.451c-0.047-0.128,0.019-0.27,0.147-0.318
					c0.129-0.047,0.271,0.018,0.318,0.147c16.933,46.073,58.63,77.952,96.385,104.216c2.548,1.772,5.107,3.544,7.671,5.32
					c37.156,25.734,75.577,52.345,97.836,91.572c12.402,21.854,19.08,46.686,19.313,71.813c0.112,11.991-1.746,23.338-5.371,32.815
					c-4.307,11.259-10.926,19.634-19.675,24.891C1840.526,853.59,1840.482,853.601,1840.439,853.601z"/>
				<path style="fill:#91B3FA;" d="M1825.002,812.753c-0.016,0-0.032-0.001-0.048-0.005c-0.134-0.026-0.221-0.156-0.195-0.29
					c5.024-25.554,4.272-48.381-2.237-67.846c-11.773-35.207-42.994-60.806-68.877-79.174c-5.196-3.688-10.56-7.379-15.748-10.948
					c-23.922-16.462-48.66-33.485-66.595-56.661c-0.084-0.108-0.064-0.263,0.044-0.347c0.107-0.083,0.262-0.064,0.347,0.044
					c17.888,23.115,42.593,40.115,66.484,56.556c5.189,3.571,10.554,7.263,15.753,10.953c17.585,12.479,30.671,23.518,41.183,34.741
					c13.538,14.454,22.657,29.069,27.878,44.68c6.536,19.548,7.294,42.459,2.252,68.099
					C1825.221,812.671,1825.118,812.753,1825.002,812.753z"/>
				
					<linearGradient id="SVGID_00000015351799585253240120000017231210323127509898_" gradientUnits="userSpaceOnUse" x1="1655.8263" y1="831.9763" x2="1707.271" y2="1340.4878">
					<stop  offset="0" style="stop-color:#FE7062"/>
					<stop  offset="1" style="stop-color:#FF928E"/>
				</linearGradient>
				<path style="fill:url(#SVGID_00000015351799585253240120000017231210323127509898_);" d="M1688.216,1046.153
					c0,0-136.196-150.084-166.873-189.387c-16.582-21.246-21.789-49.214-14.12-75.052c14.005-47.184,38.894-96.054,41.164-103.66
					c3.479-11.658,73.355-11.173,73.355-11.173s137.502,89.239,191.527,240.405l-60.674,18.889c0,0-35.902-60.232-71.374-98.526
					c0,0,123.249,188.196,132.048,218.258L1688.216,1046.153z"/>
				
					<linearGradient id="SVGID_00000021086138201456258580000012687506577856543644_" gradientUnits="userSpaceOnUse" x1="1538.7352" y1="550.7848" x2="1607.7354" y2="716.7852">
					<stop  offset="0" style="stop-color:#FF928E"/>
					<stop  offset="1" style="stop-color:#FEB3B1"/>
				</linearGradient>
				<path style="fill:url(#SVGID_00000021086138201456258580000012687506577856543644_);" d="M1529.608,596.889
					c0.73,2.424,29.297,78.893,30.723,80.147c1.427,1.255,39.997,3.33,58.151-9.078l-45.034-88.086L1529.608,596.889z"/>
				
					<linearGradient id="SVGID_00000080924789651264657510000012956164925700172966_" gradientUnits="userSpaceOnUse" x1="1679.8101" y1="570.5698" x2="1669.3104" y2="750.5612">
					<stop  offset="0" style="stop-color:#FF928E"/>
					<stop  offset="1" style="stop-color:#FEB3B1"/>
				</linearGradient>
				<path style="fill:url(#SVGID_00000080924789651264657510000012956164925700172966_);" d="M1487.38,959.815l45.787-44.132
					l63.34,26.758c0,0,63.047,9.768,99.133,0c36.085-9.769,36.085-9.769,36.085-9.769l81.544-25.386l12.807,36.194
					c3.252,9.189-0.016,19.392-7.962,25.038c-7.054,5.013-15.324,10.523-20.594,12.828c-10.739,4.698-264.718-3.25-264.718-3.25
					L1487.38,959.815z"/>
				
					<linearGradient id="SVGID_00000176010023779080742040000015699349836507719870_" gradientUnits="userSpaceOnUse" x1="-5178.54" y1="-1176.1741" x2="-5230.5405" y2="-978.1736" gradientTransform="matrix(0.9984 -0.0567 0.0567 0.9984 6963.3433 512.1132)">
					<stop  offset="0" style="stop-color:#FF928E"/>
					<stop  offset="1" style="stop-color:#FEB3B1"/>
				</linearGradient>
				<path style="fill:url(#SVGID_00000176010023779080742040000015699349836507719870_);" d="M1537.022,470.416
					c0,0-33.034,16.214-53.27,66.429c-20.237,50.215-1.769,71.821,19.995,73.695c21.763,1.875,54.019-0.431,86.373-33.963
					C1622.472,543.044,1580.057,450.977,1537.022,470.416z"/>
				
					<linearGradient id="SVGID_00000062905193104094713440000016437917453508541354_" gradientUnits="userSpaceOnUse" x1="3450.0901" y1="-3360.7781" x2="4177.8447" y2="-2499.7432" gradientTransform="matrix(-0.9984 0.0567 0.0567 0.9984 7607.3101 475.6202)">
					<stop  offset="0" style="stop-color:#09005D"/>
					<stop  offset="1" style="stop-color:#1A0F91"/>
				</linearGradient>
				<path style="fill:url(#SVGID_00000062905193104094713440000016437917453508541354_);" d="M1565.682,551.769
					c0,0,21.472-73.005-42.016-70.248l-14.336,11.281c0,0-25.529-38.35,11.6-59.457c37.13-21.107,95.093-7.483,114.275,43.065
					c19.18,50.548,11.552,84.325-14.099,110.487c-25.65,26.163-38.383-1.128-38.383-1.128s13.422-23.87,6.726-35.852
					c-6.697-11.982-19.682,3.676-19.682,3.676L1565.682,551.769z"/>
				
					<linearGradient id="SVGID_00000122705145712767699230000009375132694467033789_" gradientUnits="userSpaceOnUse" x1="-3726.5774" y1="-2863.5183" x2="-3778.5774" y2="-2665.5183" gradientTransform="matrix(0.914 0.4056 -0.4056 0.914 7325.2827 312.3122)">
					<stop  offset="0" style="stop-color:#FF928E"/>
					<stop  offset="1" style="stop-color:#FEB3B1"/>
				</linearGradient>
				<path style="fill:url(#SVGID_00000122705145712767699230000009375132694467033789_);" d="M1558.907,560.415
					c0,0,29.56-31.441,40.376-8.895s-29.398,28.114-44.554,28.972L1558.907,560.415z"/>
			</g>
			
				<linearGradient id="SVGID_00000089556508812998005440000006271131721851943067_" gradientUnits="userSpaceOnUse" x1="1462.3619" y1="1102.1088" x2="1867.7703" y2="1102.1088">
				<stop  offset="0" style="stop-color:#09005D"/>
				<stop  offset="1" style="stop-color:#1A0F91"/>
			</linearGradient>
			<path style="fill:url(#SVGID_00000089556508812998005440000006271131721851943067_);" d="M1867.164,1154.597
				c-2.314-19.132-18.267-50.281-32.844-75.473l-48.565-85.393c-46.884,14-99.028,24.668-121.407,23.71
				c-1.914-0.082-2.91,2.237-1.548,3.583l25.416,25.129l3.362-0.245c-50.485,3.644-100.513,8.206-111.739,12.563
				c-24.241,9.407-117.477,42.676-117.477,42.676l127.939,109.34c0,0,149.901,0.04,206.053-2.394
				C1852.505,1205.66,1871.556,1190.906,1867.164,1154.597z"/>
		</g>
	</g>
</g>
</svg>
