<?xml version="1.0" encoding="utf-8"?>
<!-- Generator: Adobe Illustrator 27.5.0, SVG Export Plug-In . SVG Version: 6.00 Build 0)  -->
<svg version="1.1" xmlns="http://www.w3.org/2000/svg" xmlns:xlink="http://www.w3.org/1999/xlink" x="0px" y="0px"
	 viewBox="0 0 750 500" style="enable-background:new 0 0 750 500;" xml:space="preserve">
<g id="BACKGROUND">
</g>
<g id="OBJECTS">
	<g>
		<ellipse style="fill:#D5E4EF;" cx="418.727" cy="242.649" rx="74.409" ry="31.039"/>
		<g>
			<path style="fill:#004A93;" d="M370.738,217.74c-0.718,5.335-0.662,10.637-0.812,15.932c-0.205,7.243-0.439,14.49-1.324,21.693
				c-0.019,0.155-0.031,0.311-0.056,0.466c-0.53,3.345-0.891,3.658-4.226,3.19c-2.656-0.373-5.299-0.004-7.928,0.132
				c-3.327,0.172-6.55-0.23-9.746-0.97c-2.759-0.639-3.678-1.954-3.763-4.852c-0.135-4.612,0.171-9.211,0.391-13.812
				c0.249-5.224,0.383-10.451,0.586-15.676c0.275-7.103,0.193-14.215,0.507-21.309c0.373-8.408,1.093-16.797,3.547-24.944
				c2.172-7.212,5.323-13.854,10.698-19.232c4.483-4.485,9.267-8.617,15.019-11.468c1.114-0.552,2.096-1.586,3.247-1.79
				c1.197-0.213,2.201,1.014,3.364,1.463c1.471,0.568,2.997,0.87,4.536,1.124c6.391,1.056,12.761,2.239,19.206,2.95
				c5.454,0.602,10.903,0.465,16.367,0.131c4.291-0.263,8.597-0.285,12.888,0.066c2.57,0.21,3.346,0.94,2.974,3.415
				c-0.839,5.583-0.409,11.209-0.766,16.809c-0.376,5.915-2.938,9.807-8.198,12.247c-6.584,3.055-13.071,6.315-19.716,9.241
				c-1.713,0.754-3.351,1.682-5.068,2.425c-1.505,0.651-2.312,1.785-2.739,3.293c-0.893,3.156-1.571,6.359-1.946,9.615
				c-0.607,5.27-0.794,10.571-1.125,15.863c-0.57,9.125-0.814,18.25-0.734,27.387c0.012,1.341-0.319,2.63-0.57,3.932
				c-0.405,2.092-1.734,3.243-3.752,3.696c-0.305,0.068-0.612,0.17-0.92,0.177c-4.528,0.1-9.059,0.31-13.585,0.228
				c-2.605-0.047-3.845-1.535-4.323-4.104c-0.505-2.715-0.343-5.457-0.408-8.179c-0.162-6.868-0.717-13.713-1.055-20.57
				C371.17,223.441,370.981,220.562,370.738,217.74z"/>
			<g>
				<path style="fill:#FE831B;" d="M346.38,166.074c0.017-0.512,0.243-0.857,0.537-1.211c6.903-8.285,13.709-17.488,18.505-27.009
					c4.362-8.661,6.784-17.88,10.38-26.561c2.372-5.726,5.086-10.818,8.971-15.339c5.06-5.887,10.835-8.796,18.304-9.824
					c2.616-0.36,4.86-0.108,7.373-0.684c0.742-0.17,1.342,0.136,2.019,0.371c1.494,0.517,2.841,1.116,4.368,1.603
					c5.189,1.654,9.922,1.351,15.065-0.295c0.908-0.29,1.688-0.36,2.534-0.107c3.159,0.944,6.369,1.865,9.423,2.955
					c1.886,0.673,2.557,2.143,2.607,3.986c0.106,3.926,0.114,7.838-0.406,11.683c-1.12,8.279-2.447,16.517-3.781,24.729
					c-1.038,6.389-2.081,13.003-3.239,19.248c-0.527,2.844-1.184,3.365-4.084,3.438c-5.404,0.135-11.068-0.633-16.636-0.772
					c-2.747-0.069-5.441-0.161-8.334-0.11c-8.738,0.151-16.134-3.477-25.288-2.042c-3.964,0.621-7.292,3.184-10.513,6.655
					c-3.881,4.182-9.362,9.864-13.17,13.677c-2.264,2.267-2.12,1.69-4.459,0.906C352.973,170.168,349.775,167.734,346.38,166.074z"
					/>
			</g>
			<path d="M369.88,277.083c-1.381-0.029-1.92-0.677-1.677-1.947c0.164-0.86,0.627-1.598,1.078-2.322
				c0.536-0.859,1.11-1.7,1.737-2.494c2.397-3.034,4.251-6.338,5.116-10.138c0.191-0.837,0.473-1.405,1.501-1.411
				c4.133-0.024,8.266-0.157,12.399-0.156c2.115,0.001,2.297,0.331,1.771,2.375c-0.633,2.462-1.893,4.405-4.341,5.448
				c-4.138,1.764-7.563,4.623-11.082,7.329c-1.426,1.096-2.914,2.089-4.566,2.817C371.171,276.869,370.527,277.156,369.88,277.083z"
				/>
			<path d="M347.577,257.386c4.455,0.42,8.65,0.803,12.843,1.217c1.169,0.116,1.309,0.423,0.763,1.526
				c-1.075,2.169-2.624,3.861-4.9,4.82c-3.257,1.372-6.249,3.193-9.102,5.273c-1.386,1.01-2.891,1.859-4.352,2.764
				c-0.805,0.498-1.695,0.798-2.617,0.99c-0.724,0.151-1.439,0.117-1.893-0.561c-0.44-0.656-0.336-1.354,0.118-1.97
				c0.973-1.32,1.97-2.622,2.964-3.927c2.052-2.695,3.818-5.534,4.313-8.968C345.915,257.149,346.924,257.391,347.577,257.386z"/>
			<path style="fill:#D5E4EF;" d="M405.524,92.313c-0.59,7.947-2.257,15.741-3.325,23.621c-0.607,4.479-1.374,8.937-2.119,13.396
				c-0.646,3.863-0.846,3.981-4.687,3.198c-6.052-1.233-12.136-2.119-18.324-2.411c-3.811-0.18-7.602-0.838-11.392-1.358
				c-2.072-0.285-2.359-0.764-2.074-2.805c1.584-11.352,3.296-22.683,5.318-33.967c0.178-0.994,0.201-2.019,0.26-3.031
				c0.054-0.926,0.295-1.352,1.425-1.2c6.902,0.928,13.845,1.195,20.807,1.149c4.229-0.028,8.411,0.562,12.558,1.349
				C405.429,90.53,405.68,90.954,405.524,92.313z"/>
			<path style="fill:#F9B49B;" d="M422.818,89.119c-3.769,0.004-6.824-0.838-9.489-2.788c-0.916-0.671-1.696-0.798-2.795-0.534
				c-3.833,0.923-6.698-0.451-8.494-4.044c-1.689-3.379-2.509-7.053-3.262-10.716c-0.609-2.969-0.941-5.995-1.397-8.995
				c-0.143-0.937,0.087-1.663,0.992-2.152c3.523-1.904,6.646-4.36,9.638-7.006c1.652-1.46,2.022-1.377,3.09,0.659
				c1.39,2.652,2.964,5.141,5.4,6.971c0.561,0.422,1.12,0.858,1.726,1.206c1.994,1.145,2.202,1.071,3.328-0.899
				c0.67-1.173,1.437-2.289,2.882-2.548c1.454-0.261,2.805-0.065,3.77,1.249c1.017,1.385,1.384,2.981,0.392,4.362
				c-0.787,1.096-0.618,2.015-0.286,3.029c1.847,5.65,2.808,11.503,4.015,17.299c0.095,0.457,0.11,0.93,0.183,1.393
				c0.179,1.133-0.291,1.76-1.418,1.995C428.192,88.206,425.316,88.946,422.818,89.119z"/>
			<path style="fill:#5B381B;" d="M429.421,72.036c-1.252-2.191-1.72-4.641-2.469-6.983c-0.163-0.51,0.148-0.892,0.528-1.208
				c0.504-0.419,0.737-0.975,0.9-1.601c0.357-1.372-0.003-2.497-1.023-3.005c-1.319-0.658-2.623-0.314-3.471,0.949
				c-0.586,0.872-0.709,1.864-0.757,2.897c-0.062,1.328-1.007,2.107-2.281,1.983c-0.829-0.08-0.918-0.743-0.962-1.361
				c-0.048-0.676-0.147-1.216-0.978-1.33c-3.96-0.542-6.296-3.17-8.161-6.395c-0.155-0.269-0.341-0.52-0.644-0.977
				c-1.876,1.832-3.766,3.549-5.882,4.994c-2.888,1.972-6.04,3.229-9.488,3.8c-1.503,0.249-2.941,0.069-4.407-0.25
				c-3.465-0.753-5.057-4.093-4.662-6.888c0.324-2.29,1.381-4.276,3.265-5.765c2.473-1.955,5.332-2.991,8.403-3.228
				c1.36-0.105,1.869-0.622,2.324-1.746c1.135-2.803,3.155-4.816,5.921-6.036c2.233-0.986,4.539-1.224,6.793-0.133
				c0.876,0.424,1.601,0.386,2.447,0.046c2.676-1.073,5.359-1.565,8.202-0.444c3.349,1.32,6.448,3.036,8.348,6.151
				c4.735,7.765,4.939,15.757,0.656,23.805C431.215,70.826,430.971,70.955,429.421,72.036z"/>
			<path style="fill:#F9B49B;" d="M391.919,107.766c-1.124-2.466-2.287-4.916-3.349-7.409c-0.308-0.724-1.164-1.78-0.271-2.301
				c0.951-0.555,1.333,0.786,1.822,1.39c1.397,1.724,2.506,3.681,4.22,5.193c-0.617-2.769-2.777-5.016-2.764-8.192
				c1.81,0.363,2.353,1.828,3.202,2.917c0.9,1.154,1.526,2.526,2.841,3.598c0.223-1.405-0.595-2.351-0.917-3.408
				c-0.407-1.337-0.994-2.621-1.251-4.007c-0.058-0.313-0.043-0.686,0.225-0.854c0.38-0.24,0.757-0.037,1.036,0.267
				c1.02,1.109,1.614,2.482,2.288,3.798c1.095,2.139,2.21,4.257,4.041,6.181c0.497-1.225,0.312-2.307,0.431-3.348
				c0.066-0.582,0.087-1.369,0.889-1.437c0.637-0.054,0.883,0.554,1.061,1.079c0.477,1.404,0.913,2.821,1.408,4.218
				c0.391,1.103,0.759,2.228,1.295,3.261c0.467,0.902,0.461,1.549-0.314,2.264c-3.099,2.86-5.995,5.939-9.297,8.578
				c-1.311,1.048-1.339,1.054-2.424-0.168c-4.182-4.71-7.518-9.967-10.095-15.709c-0.096-0.214-0.19-0.429-0.269-0.65
				c-0.112-0.315-0.107-0.644,0.189-0.835c0.269-0.174,0.59-0.167,0.876,0.035c0.91,0.642,1.529,1.556,2.227,2.393
				c0.899,1.078,1.765,2.183,2.646,3.277C391.75,107.853,391.834,107.81,391.919,107.766z"/>
			<path style="fill:#F9B49B;" d="M337.791,178.832c0.814-3.895,2.807-7.081,5.5-9.858c0.978-1.008,2.051-1.923,3.031-2.929
				c0.64-0.657,1.298-0.779,2.103-0.386c0.702,0.343,1.422,0.646,2.124,0.988c2.099,1.02,4.108,2.209,6.424,2.772
				c1.517,0.369,1.591,0.728,0.867,2.145c-1.101,2.152-2.228,4.292-3.381,6.416c-0.205,0.378-0.528,0.88-1.093,0.578
				c-0.404-0.216-0.288-0.678-0.214-1.053c0.18-0.907,0.021-1.857,0.744-3.016c-1.558,0.49-2.101,1.444-2.651,2.313
				c-0.708,1.118-1.277,2.324-1.932,3.477c-0.385,0.678-0.803,1.34-1.244,1.983c-0.299,0.436-0.622,1.074-1.238,0.839
				c-0.636-0.242-0.43-0.872-0.295-1.421c0.297-1.213,0.614-2.413,1.145-3.551c0.289-0.618,0.533-1.256,0.679-1.949
				c-2.212,1.96-2.819,5.226-5.543,6.997c-0.746-1.667-0.085-2.868,0.42-4.04c0.511-1.186,1.178-2.305,1.686-3.506
				c-1.594,1.424-2.526,3.322-3.753,5.001c-0.529,0.723-1.127,2.147-1.845,1.763c-1.153-0.617-0.05-1.821,0.27-2.649
				c0.662-1.712,1.581-3.324,2.636-5.469C340.162,175.753,339.724,177.98,337.791,178.832z"/>
			<path style="fill:#E1BB7A;" d="M446.239,179.311c-2.241,1.144-3.978,2.011-5.697,2.913c-8.581,4.502-17.152,9.025-25.744,13.507
				c-1.051,0.548-1.626,1.059-1.553,2.458c0.655,12.502,0.46,25.015,0.345,37.527c-0.047,5.161-0.119,10.322-0.189,15.483
				c-0.012,0.859,0.002,1.728-0.119,2.574c-0.247,1.729-1.537,2.914-3.118,2.969c-1.565,0.055-2.97-1.055-3.3-2.772
				c-0.175-0.909-0.139-1.866-0.142-2.801c-0.039-12.747,0.577-25.489,0.264-38.238c-0.102-4.137-0.156-8.274-0.233-12.499
				c-1.204-0.1-1.806,0.632-2.514,1.19c-1.52,1.198-3.276,1.202-4.726,0.064c-1.782-1.399-1.845-3.837-0.077-5.254
				c0.602-0.482,1.332-0.812,2.022-1.175c10.032-5.269,20.054-10.557,30.118-15.765c1.395-0.722,2.058-1.579,2.238-3.164
				c0.67-5.896,1.928-11.723,1.95-17.697c0.008-2.28,1.054-4.038,3.146-5.109c3.665-1.877,5.864-4.857,7.341-8.718
				c2.792-7.299,4.414-14.796,5.059-22.56c0.434-5.223,0.938-10.437,0.819-15.684c-0.069-3.049-0.302-6.088-0.824-9.099
				c-0.27-1.554-0.844-2.998-1.434-4.449c-1.138-2.799-3.265-4.083-6.195-4.165c-1.798-0.051-3.597-0.048-5.396-0.051
				c-2.959-0.004-5.384-0.849-6.532-3.911c-0.242-0.645-0.749-1.187-1.099-1.796c-0.829-1.445-1.129-2.953-0.15-4.427
				c0.925-1.394,2.413-1.833,3.93-1.532c3.104,0.616,6.239,0.281,9.347,0.545c4.368,0.372,8.745,0.417,13.124,0.478
				c2.83,0.039,3.696,0.858,4.49,3.49c0.554,1.836,0.698,3.666,0.568,5.553c-0.527,7.644-1.043,15.288-1.559,22.933
				c-0.074,1.091-0.174,2.184-0.178,3.277c-0.052,14.94-0.85,29.859-1.242,44.789c-0.107,4.062-0.392,8.123-0.053,12.188
				c0.106,1.268-0.378,2.299-1.4,3.052c-0.438,0.323-0.888,0.715-1.393,0.85c-3.01,0.804-3.279,2.834-3.262,5.638
				c0.085,13.845,0.426,27.678,1.196,41.501c0.091,1.638,0.284,3.271,0.389,4.909c0.05,0.777,0.099,1.576-0.018,2.339
				c-0.259,1.689-1.627,2.851-3.219,2.857c-1.601,0.007-2.987-1.122-3.234-2.828c-0.246-1.7-0.371-3.421-0.467-5.137
				c-0.733-13.039-1.282-26.084-1.278-39.147C446.239,182.865,446.239,181.311,446.239,179.311z"/>
			<path style="fill:#7F90BB;" d="M346.172,248.511c5.968,0.746,11.936,1.494,17.905,2.235c1.007,0.125,2.029,0.165,3.024,0.349
				c0.909,0.168,1.641,0.657,1.543,1.73c-0.096,1.059-0.855,1.488-1.806,1.423c-1.869-0.128-3.736-0.32-5.595-0.555
				c-5.346-0.676-10.671-1.524-16.054-1.884c-0.385-0.026-0.778-0.096-1.142-0.219c-0.831-0.28-1.337-0.862-1.206-1.764
				c0.133-0.919,0.814-1.286,1.683-1.303c0.545-0.011,1.092,0.047,1.638,0.074C346.164,248.569,346.168,248.54,346.172,248.511z"/>
			<path style="fill:#7F90BB;" d="M374.659,250.949c5.487-0.068,10.974-0.134,16.461-0.206c0.926-0.012,1.852-0.111,2.776-0.063
				c0.844,0.044,1.575,0.428,1.647,1.502c0.071,1.06-0.55,1.587-1.416,1.651c-1.703,0.125-3.413,0.188-5.122,0.206
				c-4.916,0.053-9.839-0.067-14.741,0.303c-0.35,0.027-0.715,0.01-1.061-0.062c-0.79-0.164-1.332-0.672-1.348-1.582
				c-0.016-0.926,0.542-1.382,1.323-1.516c0.49-0.084,0.991-0.101,1.487-0.148C374.661,251.007,374.66,250.978,374.659,250.949z"/>
			<path style="fill:#C24100;" d="M387.37,133.868c-0.166,0.761-0.356,1.755-0.601,2.735c-0.983,3.933-2.289,7.763-3.712,11.554
				c-0.162,0.433-0.361,0.868-0.626,1.242c-0.405,0.57-1.014,0.696-1.668,0.519c-0.702-0.189-0.986-0.732-1.014-1.403
				c-0.034-0.796,0.274-1.524,0.548-2.254c1.558-4.16,2.925-8.377,3.829-12.733c0.032-0.152,0.047-0.311,0.097-0.457
				c0.306-0.884,0.813-1.54,1.863-1.394C386.891,131.79,387.373,132.57,387.37,133.868z"/>
			<path style="fill:#F99875;" d="M414.079,85.109c-0.352-0.036-0.715-0.029-0.764-0.423c-0.025-0.199,0.053-0.504,0.197-0.614
				c0.617-0.474,1.25-0.937,1.923-1.326c5.056-2.924,8.25-7.274,9.903-12.823c0.276-0.926,0.395-2.379,1.74-1.904
				c1.201,0.424,0.38,1.627,0.112,2.454c-1.961,6.048-5.58,10.754-11.248,13.786C415.325,84.59,414.741,84.984,414.079,85.109z"/>
			<path style="fill:#F9703E;" d="M409.847,73.467c0.004,2.115-0.307,2.649-1.766,3.032c-1.287,0.338-2.055-0.181-1.938-1.485
				c0.181-2.002,0.948-3.914,0.998-5.952c0.012-0.481,0.421-0.819,0.951-0.866c0.661-0.058,1.06,0.335,1.168,0.905
				C409.535,70.544,409.916,71.977,409.847,73.467z"/>
			<path style="fill:#5B381B;" d="M404.78,67.018c-1.748-0.419-2.865,0.062-3.934,0.763c-0.658,0.432-1.318,0.527-1.829-0.21
				c-0.54-0.778-0.008-1.327,0.508-1.803c1.484-1.367,3.267-1.723,5.196-1.35c1.236,0.239,2,1.036,1.752,1.787
				C406.105,67.324,405.211,67.129,404.78,67.018z"/>
			<path style="fill:#5B381B;" d="M418.231,65.029c-0.186,0.748-0.783,1.109-1.387,0.816c-2.008-0.973-3.881-0.704-5.775,0.278
				c-0.432,0.224-0.926,0.085-1.226-0.364c-0.402-0.602-0.012-1.019,0.387-1.4c1.618-1.548,5.038-1.906,6.973-0.753
				C417.757,63.936,418.228,64.304,418.231,65.029z"/>
			<path style="fill:#F9703E;" d="M406.456,78.58c1.33,0.044,2.624,0,3.796-0.782c0.495-0.33,1.101-0.3,1.446,0.221
				c0.426,0.643,0.105,1.202-0.494,1.552c-1.888,1.107-3.9,1.411-6.022,0.813c-0.639-0.18-1.231-0.557-1.133-1.262
				c0.116-0.831,0.866-0.703,1.485-0.644C405.842,78.508,406.149,78.546,406.456,78.58z"/>
			<path d="M416.299,67.999c-0.012,0.899-0.758,1.739-1.559,1.755c-0.89,0.017-1.787-0.933-1.737-1.84
				c0.049-0.881,0.841-1.637,1.688-1.61C415.552,66.331,416.311,67.131,416.299,67.999z"/>
			<path d="M404.138,69.662c-0.014,0.799-0.807,1.574-1.654,1.615c-0.827,0.041-1.487-0.572-1.494-1.386
				c-0.008-0.962,0.837-1.824,1.72-1.754C403.487,68.199,404.151,68.908,404.138,69.662z"/>
			<path style="fill:#FE953D;" d="M427.065,125.98c-0.541-8.552-0.604-17.09,1.677-25.469c0.989-3.633,2.229-7.145,4.678-10.114
				c4.567-5.534,13.353-5.073,17.324,0.893c1.978,2.971,2.549,6.319,2.904,9.758c0.515,4.988,0.347,9.986-0.185,14.938
				c-0.922,8.588-1.732,17.217-4.53,25.476c-1.18,3.483-2.736,6.77-4.769,9.872c-3.557,5.428-11.72,6.422-16.146,4.609
				c-3.499-1.433-6.251-3.807-8.931-6.3c-5.495-5.11-10.368-10.805-15.263-16.477c-2.446-2.834-4.944-5.623-7.362-8.48
				c-1.612-1.905-1.63-2.252,0.118-3.877c4.172-3.878,8.449-7.644,12.606-11.537c0.938-0.878,1.456-0.531,2.097,0.169
				c3.002,3.282,5.99,6.577,9.003,9.848c1.903,2.066,3.837,4.104,5.769,6.143C426.314,125.705,426.563,126.052,427.065,125.98z"/>
			<path style="fill:#004172;" d="M404.409,158.566c-8.606,9.124-21.902,12.427-29.447,22.731
				c-4.384,5.986-5.52,13.519-5.928,20.746c-0.48,8.509-0.59,17.051-0.862,25.57l-0.948,29.655c-0.062,1.931,2.938,1.929,3,0
				c0.548-17.132,1.06-34.265,1.645-51.396c0.245-7.16,0.64-14.776,4.385-21.098c3.109-5.249,8.213-8.801,13.298-11.95
				c5.913-3.662,12.154-7.023,16.978-12.137C407.854,159.283,405.737,157.158,404.409,158.566z"/>
		</g>
	</g>
	<g>
		<path style="fill:#D5E4EF;" d="M302.026,47.804c9.605-0.033,17.647,2.209,25.419,5.69c9.375,4.2,16.627,10.781,22.082,19.415
			c1.008,1.595,1.864,3.28,2.482,5.067c0.201,0.583,0.601,1.339-0.045,1.792c-0.568,0.398-1.344,0.361-2.025,0.049
			c-0.212-0.097-0.405-0.24-0.599-0.372c-4.169-2.838-8.838-4.443-13.772-5.104c-4.956-0.664-9.959-0.977-14.945-1.407
			c-2.07-0.178-2.194-0.056-2.944,1.926c-0.77,2.037-1.504,4.086-2.387,6.082c-2.593,5.861-6.736,10.442-11.67,14.413
			c-5.614,4.519-11.859,7.66-19.011,8.816c-5.821,0.941-11.55,0.619-16.898-2.082c-6.578-3.322-10.055-8.782-10.753-16.116
			c-0.661-6.943,1.787-12.951,5.366-18.635c5.545-8.806,13.667-14.09,23.479-17.042C291.431,48.604,297.201,47.944,302.026,47.804z
			 M347.896,75.131c-0.108-0.823-0.485-1.213-0.787-1.633c-5.068-7.042-11.245-12.793-19.147-16.578
			c-7.026-3.365-14.362-5.629-22.17-5.937c-6.739-0.265-13.392,0.535-19.873,2.517c-10.831,3.313-18.855,9.881-23.618,20.266
			c-1.902,4.149-2.805,8.411-2.171,13.019c0.944,6.872,5.256,11.943,11.97,13.75c4.478,1.206,8.976,1.181,13.444,0.065
			c10.768-2.69,18.771-9.226,24.9-18.24c2.059-3.028,3.444-6.428,4.753-9.839c0.717-1.868,2.073-2.785,4.015-2.925
			c0.47-0.034,0.942-0.032,1.414-0.031c4.247,0.01,8.439,0.672,12.653,1.075c3.718,0.356,7.306,1.216,10.713,2.78
			C345.211,73.981,346.449,74.499,347.896,75.131z"/>
		<path style="fill:#D5E4EF;" d="M302.002,74.977c-2.042-0.047-3.233-1.852-2.548-3.568c0.27-0.675,0.717-1.202,1.273-1.647
			c1.226-0.98,2.599-0.961,3.657,0.042c1.049,0.995,1.137,2.649,0.177,3.82C303.857,74.482,302.943,74.951,302.002,74.977z"/>
		<path style="fill:#D5E4EF;" d="M288.456,68.954c1.323-0.044,2.416,1.012,2.516,2.431c0.134,1.914-1.818,3.795-3.731,3.595
			c-1.074-0.112-1.825-0.802-2.045-1.879C284.848,71.404,286.729,69.011,288.456,68.954z"/>
		<path style="fill:#D5E4EF;" d="M277.526,71.852c-0.014,1.575-1.808,3.364-3.303,3.293c-1.188-0.056-2.19-1.124-2.184-2.329
			c0.007-1.516,1.819-3.42,3.249-3.412C276.537,69.411,277.538,70.506,277.526,71.852z"/>
	</g>
	<g>
		<polygon style="fill:#D5E4EF;" points="657.807,110.963 517.016,114.446 515.125,103.392 657.807,103.392 		"/>
		<rect x="532.287" y="51.4" style="fill:#F9B49B;" width="14.134" height="52.496"/>
		<rect x="545.916" y="61.159" style="fill:#4D9682;" width="15.816" height="42.737"/>
		<rect x="561.732" y="58.467" style="fill:#E1BB7A;" width="15.816" height="45.429"/>
		<rect x="577.044" y="53.924" style="fill:#DDDDDD;" width="13.292" height="49.972"/>
		<rect x="590.084" y="65.702" style="fill:#FB4240;" width="13.292" height="38.194"/>
		<rect x="602.198" y="61.832" style="fill:#DDDDDD;" width="13.292" height="42.064"/>
		<rect x="614.818" y="61.832" style="fill:#004A93;" width="13.292" height="42.064"/>
		<rect x="627.605" y="61.832" style="fill:#F9B49B;" width="13.292" height="42.064"/>
	</g>
	<g>
		<ellipse style="fill:#D5E4EF;" cx="332.51" cy="437.534" rx="74.409" ry="31.039"/>
		<g>
			<path style="fill:#262729;" d="M366.144,381.141c-3.672,3.201-7.241,6.313-11.154,9.724c4.06,0.433,4.839,2.961,5.03,6.04
				c0.473,7.595,1.046,15.184,1.544,22.778c0.266,4.048-0.692,5.387-4.635,6.407c-2.679,0.693-5.209,1.736-7.726,2.856
				c-3.364,1.496-5.729,0.359-6.602-3.204c-1.655-6.758-3.119-13.562-4.949-20.278c-0.469-1.719-0.507-3.361,0.985-4.703
				c0.276-0.248,0.431-0.677,0.542-1.053c0.394-1.336,1.327-2.157,2.468-2.866c3.088-1.918,6.334-3.521,9.94-4.994
				c-2.419-1.536-2.621-3.427-1.999-5.952c1.275-5.172,3.019-10.232,3.815-15.525c0.649-4.316,1.688-8.56,2.275-12.897
				c0.344-2.539,1.146-5.034,1.515-7.6c0.138-0.964,0.277-1.915,0.279-2.892c0.002-1.498,0.673-2.736,1.959-3.417
				c2.855-1.513,5.581-3.276,8.641-4.401c5.913-2.173,11.344-1.005,16.338,2.473c3.087,2.149,4.621,5.329,5.065,9.051
				c0.987,8.28,2.417,16.493,4.205,24.629c2.449,11.141,4.876,22.291,7.851,33.31c1.488,5.511,0.63,7.931-5.159,9.665
				c-2.421,0.725-4.595,1.979-6.777,3.228c-3.752,2.147-5.847,1.331-7.622-2.67c-5.219-11.765-9.868-23.762-14.69-35.689
				C367.02,382.507,366.917,381.751,366.144,381.141z"/>
			<path style="fill:#4D9682;" d="M359.761,313.918c-0.952,7.176-1.284,14.08-1.216,21.022c0.074,7.61,0.336,15.234-0.165,22.832
				c-0.334,5.065-1.063,10.105-1.667,15.15c-0.354,2.961-0.429,5.957-1.179,8.871c-0.614,2.386-1.924,4.018-4.365,4.728
				c-1.03,0.299-1.338-0.022-1.355-0.975c-0.027-1.537-0.08-3.073-0.119-4.609c-0.072-2.826-0.05-5.647-0.264-8.477
				c-0.268-3.545,0.098-7.124,0.561-10.637c1.3-9.874,2.41-19.757,1.595-29.722c-0.634-7.749-0.877-15.5-0.766-23.266
				c0.016-1.147-0.182-1.798-1.578-1.736c-5.841,0.259-11.602-0.921-17.434-1.039c-4.534-0.092-9.058-0.036-13.589,0.036
				c-8.422,0.135-16.816-0.389-25.174-1.461c-0.16-0.02-0.318-0.069-0.478-0.085c-3.326-0.325-3.419-0.332-3.142-3.731
				c0.579-7.104,4.202-12.306,10.409-15.63c4.418-2.366,8.987-4.452,13.485-6.67c0.652-0.322,1.298-0.662,1.923-1.033
				c1.281-0.76,1.888-1.823,1.892-3.394c0.01-3.943,0.242-4.074,4.244-3.489c6.399,0.936,12.774,2.089,19.293,1.823
				c1.849-0.076,1.859,0.046,1.859,1.931c0,0.647-0.116,1.304-0.036,1.939c0.329,2.622,1.356,4.644,3.982,5.886
				c3.552,1.68,7.327,2.518,11.051,3.586c2.329,0.668,4.677,1.294,6.96,2.099c5.705,2.012,10.028,5.865,13.471,10.697
				c5.638,7.913,10.673,16.214,15.352,24.727c1.605,2.921,2.663,6.079,3.385,9.316c0.75,3.365,0.385,6.597-1.812,9.455
				c-1.949,2.536-4.362,3.391-7.483,2.611c-2.957-0.74-5.515-2.307-8.04-3.911c-4.626-2.937-8.904-6.296-11.36-11.358
				c-1.873-3.86-3.807-7.686-5.796-11.485C361.515,316.601,360.902,315.213,359.761,313.918z"/>
			<path style="fill:#7C4318;" d="M392.315,432.784c-1.005-0.032-1.833-0.342-2.429-1.071c-1.975-2.415-3.017-5.331-4.298-8.116
				c-0.334-0.725,0.257-1.009,0.766-1.267c1.586-0.804,3.173-1.607,4.772-2.386c2.107-1.026,4.235-2.009,6.333-3.053
				c0.826-0.411,1.599-0.725,2.525-0.292c2.346,1.098,4.756,0.663,7.142,0.186c2.297-0.459,4.576-1.01,6.866-1.501
				c0.549-0.117,1.123-0.258,1.67-0.21c1.257,0.112,2.445,0.514,2.873,1.851c0.405,1.265-0.354,2.136-1.269,2.898
				c-2.016,1.678-4.31,2.925-6.745,3.776c-5.161,1.805-9.93,4.278-14.289,7.571C395.061,432.055,393.771,432.732,392.315,432.784z"
				/>
			<path style="fill:#7C4318;" d="M350.879,438.722c-0.977-0.238-1.724-0.71-2.158-1.546c-1.438-2.768-1.859-5.837-2.543-8.825
				c-0.178-0.779,0.458-0.935,1.009-1.083c1.717-0.462,3.435-0.922,5.16-1.357c2.272-0.573,4.557-1.098,6.824-1.69
				c0.893-0.233,1.714-0.382,2.531,0.232c2.071,1.556,4.519,1.624,6.952,1.646c2.342,0.022,4.685-0.051,7.028-0.061
				c0.561-0.003,1.152-0.023,1.677,0.137c1.207,0.367,2.287,1.004,2.432,2.401c0.137,1.321-0.784,2.018-1.836,2.576
				c-2.317,1.229-4.818,1.979-7.376,2.313c-5.421,0.708-10.596,2.151-15.538,4.48C353.716,438.571,352.314,438.97,350.879,438.722z"
				/>
			<path style="fill:#5B381B;" d="M352.721,246.152c-0.024,2.639-1.278,5.397-3.165,7.902c-0.972,1.29-2.035,2.512-3.047,3.772
				c-1.541,1.922-2.556,4.075-3.141,6.487c-1.411,5.824-6.464,9.523-12.541,9.188c-2.42-0.133-4.801-0.558-7.08-1.5
				c-2.203-0.91-3.903-2.335-4.845-4.51c-4.394-10.142-4.225-20.329,3.566-29.181c3.334-3.788,7.283-6.01,12.492-5.79
				c3.329,0.14,6.61,0.356,9.754,1.568C349.998,236.123,352.682,239.966,352.721,246.152z"/>
			<path style="fill:#5B381B;" d="M327.314,245.674c-0.743-0.174-0.815-0.926-1.18-1.406c-2.538-3.333-6.614-3.764-9.763-0.994
				c-1.422,1.251-2.515,2.737-3.13,4.543c-0.806,2.367-1.566,4.749-2.399,7.106c-1.819,5.148-4.509,9.65-9.378,12.529
				c-2.573,1.522-5.349,2.263-8.323,2.231c-1.856-0.02-2.253-0.519-1.517-2.215c1.689-3.896,2.641-7.974,3.051-12.162
				c0.268-2.736,0.467-5.471,1.178-8.132c1.253-4.69,3.078-9.077,7.284-11.939c5.196-3.536,10.841-4.645,16.806-2.323
				c4.391,1.709,6.45,5.413,7.427,9.818C327.742,244.404,327.724,244.408,327.314,245.674z"/>
			<path style="fill:#F9B49B;" d="M337.219,272.188c0.11-0.907,0.778-0.966,1.227-1.256c1.022-0.661,2.008-1.364,2.757-2.337
				c1.076-1.397,1.702-2.835,0.999-4.69c-0.632-1.668-0.808-3.449-0.223-5.214c0.567-1.712,1.797-2.358,3.511-1.645
				c0.687,0.286,1.021,0.166,1.399-0.332c1.071-1.413,2.153-2.818,3.212-4.239c0.326-0.437,0.459-1.049,1.315-1.187
				c0.519,1.645,0.757,3.363,0.588,5.075c-0.317,3.202-0.824,6.385-1.195,9.583c-0.59,5.094-3.635,6.559-7.911,6.77
				C341.019,272.807,339.114,272.379,337.219,272.188z"/>
			<path style="fill:#016447;" d="M333.075,281.328c-5.253-0.014-10.505-0.042-15.653-1.313c-0.391-0.096-0.822-0.088-1.178-0.251
				c-0.628-0.288-1.015-0.808-0.965-1.537c0.05-0.721,0.48-1.169,1.143-1.416c0.469-0.175,0.951-0.212,1.43-0.102
				c7.653,1.769,15.436,1.103,23.176,1.24c0.323,0.006,0.647-0.011,0.969,0.003c0.942,0.039,1.532,0.526,1.62,1.463
				c0.089,0.956-0.505,1.531-1.35,1.752c-0.612,0.16-1.278,0.15-1.92,0.155C337.923,281.338,335.499,281.328,333.075,281.328z"/>
			<path style="fill:#E1BB7A;" d="M377.369,377.37c-1.279,1.109-2.594,2.18-3.829,3.334c-6.984,6.526-14.099,12.908-21.452,19.015
				c-1.504,1.249-2.134,2.548-2.14,4.517c-0.047,15.549-0.201,31.099-0.321,46.648c-0.006,0.807,0.062,1.613-0.202,2.406
				c-0.512,1.537-1.69,2.483-3.206,2.526c-1.583,0.044-2.91-0.967-3.421-2.577c-0.227-0.714-0.175-1.437-0.168-2.166
				c0.139-14.982,0.271-29.964,0.405-44.946c0.002-0.243-0.022-0.489,0.008-0.728c0.152-1.206-0.314-1.732-1.585-1.786
				c-3.479-0.148-6.952-0.424-10.429-0.609c-2.426-0.129-4.856-0.192-7.284-0.28c-2.159-0.079-2.19-0.077-2.219,2.011
				c-0.059,4.292-0.082,8.584-0.118,12.877c-0.008,0.972,0.006,1.948-0.282,2.891c-0.494,1.617-1.863,2.652-3.408,2.589
				c-1.479-0.061-2.663-1.053-3.156-2.598c-0.254-0.794-0.204-1.602-0.197-2.408c0.04-4.535,0.09-9.07,0.146-13.605
				c0.027-2.221,0.039-2.296-2.24-2.375c-7.69-0.268-15.382-0.482-23.074-0.707c-3.733-0.109-3.725-0.1-3.75,3.557
				c-0.101,15.225-0.206,30.451-0.312,45.676c-0.004,0.566,0.017,1.14-0.064,1.698c-0.278,1.919-1.641,3.12-3.443,3.083
				c-1.699-0.035-3.003-1.191-3.284-2.988c-0.099-0.635-0.075-1.292-0.071-1.939c0.082-16.603,0.253-33.205,0.218-49.807
				c-0.016-7.528-0.294-15.057-0.076-22.585c0.345-11.899,0.732-23.797,1.167-35.693c0.444-12.141,0.717-24.284,0.619-36.433
				c-0.005-0.648-0.048-1.3,0.009-1.942c0.159-1.81,1.235-2.995,3.026-3.256c0.876-0.128,1.777-0.112,2.667-0.118
				c12.234-0.092,24.465,0.208,36.682,0.746c8.081,0.356,16.169,0.899,24.206,1.933c0.801,0.103,1.609,0.247,2.377,0.489
				c1.237,0.39,2.18,1.217,2.391,2.516c0.463,2.854,1.131,5.664,0.877,8.633c-0.297,3.463-0.235,6.958-0.299,10.439
				c-0.387,20.969-1.303,41.931-0.931,62.911c0.015,0.855,0.002,1.71,0.002,2.541c0.95,0.069,1.266-0.472,1.663-0.824
				c3.936-3.495,7.919-6.941,11.764-10.535c4.382-4.097,8.986-7.93,13.563-11.798c0.489-0.413,1.036-0.802,1.621-1.048
				c2.381-1.004,4.633,0.36,4.934,2.96c0.065,0.56,0.04,1.132,0.043,1.699c0.082,15.469,0.162,30.937,0.241,46.406
				c0.005,1.051,0.079,2.11-0.225,3.138c-0.461,1.56-1.636,2.472-3.194,2.491c-1.566,0.019-2.734-0.847-3.262-2.403
				c-0.347-1.023-0.273-2.08-0.277-3.13c-0.045-12.634-0.088-25.268-0.13-37.902c-0.003-0.783,0-1.565,0-2.347
				C377.753,377.499,377.561,377.435,377.369,377.37z"/>
		</g>
	</g>
	<g>
		<ellipse style="fill:#D5E4EF;" cx="187.13" cy="318.904" rx="74.409" ry="31.039"/>
		<g>
			<path style="fill:#F99875;" d="M246.976,224.751c1.262,2.418,1.586,4.986,1.304,7.625c-0.686,6.413-1.735,12.779-2.617,19.166
				c-0.86,6.224-1.716,12.458-1.78,19.813c-0.009,0.33-0.007,0.677-0.007,1.021c0.549-0.007,1.099-0.012,1.648-0.023
				c0.895-0.018,1.79-0.038,2.686-0.047c0.9-0.01,1.8-0.01,2.7,0.011c0.437,0.01,0.871,0.023,1.306,0.063
				c0.407,0.038,0.812,0.09,1.217,0.143c-0.069-0.215-0.067-0.463-0.002-0.736c0.562-2.344,0.149-4.728,0.371-7.085
				c0.551-5.852,1.021-11.712,1.577-17.563c0.362-3.815,0.845-7.619,1.227-11.433c0.513-5.118,1.147-10.233,1.044-15.389
				c-0.134-6.676-3.07-11.537-9.342-14.239c-2.04-0.879-4.116-1.65-6.275-2.081c-3.957-0.789-7.934-1.006-11.899,0.116
				c-2.097,0.594-3.642,1.803-4.643,3.718c-1.461,2.795-1.999,5.87-2.658,8.904c-0.167,0.769,0.063,1.253,1.016,1.188
				c1.305-0.089,2.633,0.035,3.923-0.138c4.68-0.626,9.104,0.458,13.48,1.894C243.877,220.54,245.703,222.312,246.976,224.751z"/>
			<path style="fill:#3B3B3B;" d="M267.712,299.356c-0.504-0.523-1.123-0.948-1.729-1.359c-1.151-0.781-2.346-1.495-3.493-2.281
				c-3.164-2.168-4.898-5.188-5.299-8.992c-0.395-3.735-1.188-7.42-1.397-11.178c-0.058-1.046-0.336-1.996-1.463-2.299
				c-0.454-0.122-0.725-0.338-0.855-0.618c-0.105-0.014-0.21-0.026-0.315-0.039c-0.425-0.054-0.851-0.104-1.278-0.135
				c-0.437-0.032-0.875-0.035-1.312-0.043c-0.899-0.016-1.798-0.012-2.697,0c-0.895,0.012-1.79,0.032-2.686,0.05
				c-0.438,0.008-0.876,0.01-1.314,0.015c0.005,3.823,0.495,8.409,0.675,13.016c0.16,4.082,0.801,8.129,2.366,11.965
				c0.789,1.935,1.768,3.735,3.781,4.628c4.818,2.136,9.913,2.698,15.115,2.428c1.198-0.062,2.16-0.772,2.589-1.975
				C268.826,301.35,268.574,300.249,267.712,299.356z"/>
			<path style="fill:#7F90BB;" d="M223.81,216.108c-0.817,7.936-0.231,15.393,1.393,22.784c0.053,0.24,0.073,0.487,0.133,0.725
				c0.922,3.665,0.958,3.759-2.457,5.016c-8.137,2.994-15.33,7.659-22.529,12.362c-6.551,4.279-13.607,7.629-21.277,9.219
				c-8.781,1.82-17.276,0.419-25.136-3.958c-3.99-2.222-6.529-5.916-8.561-9.892c-1.449-2.835-2.756-5.773-2.743-9.071
				c0.004-0.898,0.077-1.798,0.152-2.695c0.195-2.309,1.314-3.816,3.478-4.879c6.572-3.229,13.503-5.412,20.521-7.345
				c14.664-4.037,29.484-7.468,44.207-11.28c2.924-0.757,5.81-1.666,8.714-2.502c0.472-0.136,0.942-0.302,1.425-0.368
				C223.648,213.879,224.223,213.654,223.81,216.108z"/>
			<path style="fill:#D42624;" d="M122.493,189.538c-0.119-5.913,0.456-11.747,2.495-17.371c1.979-5.458,3.605-11.053,6.389-16.189
				c2.607-4.81,4.526-5.416,9.564-3.191c7.17,3.167,13.163,7.749,18.082,13.929c5.349,6.72,10.986,13.208,15.792,20.347
				c4.538,6.741,8.436,13.824,11.481,21.371c0.673,1.668,1.509,3.269,2.246,4.911c0.502,1.118,1.058,2.224,1.425,3.387
				c1.057,3.348,0.064,5.659-2.951,7.442c-9.354,5.532-19.311,9.622-29.738,12.635c-4.714,1.362-9.349,2.998-14.152,4.055
				c-1.859,0.409-3.732,0.466-5.617,0.401c-2.309-0.08-4.024-1.113-5.24-3.105c-2.027-3.321-3.359-6.931-4.348-10.649
				c-1.85-6.955-3.627-13.932-4.558-21.09c-0.454-3.492-0.86-6.984-0.87-10.511C122.488,193.786,122.493,191.662,122.493,189.538z"
				/>
			<path style="fill:#FB4240;" d="M120.72,210.31c-0.032-12.283,1.176-22.891,4.783-33.126c1.444-4.098,3.278-7.996,5.747-11.621
				c4.84-7.105,14.22-5.41,17.764,1.309c1.005,1.906,1.66,3.927,1.989,6.034c0.976,6.244,1.196,12.512,0.674,18.824
				c-0.262,3.171-0.271,6.365-0.549,9.543c-0.412,4.72-0.805,9.436-1.984,14.048c-0.492,1.925-0.259,2.113,1.681,1.997
				c7.516-0.446,15.035-0.844,22.551-1.284c2.122-0.124,4.237-0.425,6.359-0.472c3.168-0.069,4.213,0.86,5.037,3.848
				c0.783,2.836,1.726,5.627,2.544,8.454c0.317,1.097,0.551,2.227,0.707,3.358c0.368,2.668-0.54,4.064-3.15,4.646
				c-2.712,0.605-5.462,1.037-8.187,1.582c-5.464,1.092-10.73,2.906-16.072,4.444c-5.849,1.684-11.847,2.48-17.914,2.671
				c-9.689,0.305-16.006-4.954-19.291-13.434c-1.464-3.78-2.013-7.759-2.296-11.766C120.866,215.858,120.803,212.336,120.72,210.31z
				"/>
			<path d="M189.631,228.708c-1.174,0.089-1.804-0.471-2.258-1.511c-2.126-4.869-4.337-9.702-6.13-14.708
				c-0.76-2.124-0.745-2.17,1.441-2.961c4.378-1.583,8.839-2.957,13.144-4.714c9.444-3.855,18.962-7.535,28.229-11.824
				c5.325-2.465,4.25-2.225,6.818,2.069c2.308,3.858,4.697,7.668,7.11,11.461c1.3,2.043,1.371,2.177-0.857,3.17
				c-5.373,2.394-10.642,5.029-16.168,7.074c-6.131,2.269-12.158,4.794-18.145,7.416c-3.596,1.575-7.281,2.917-11.035,4.064
				C191.083,228.458,190.348,228.557,189.631,228.708z"/>
			<path style="fill:#F9B49B;" d="M229.061,240.394c-0.812-0.232-1.246,0.083-1.669,0.28c-2.394,1.117-2.549,0.319-2.895-1.653
				c-1.131-6.439-1.87-12.928-1.737-19.485c0.036-1.776,0.069-1.779,1.728-1.977c2.109-0.251,4.219-0.49,6.325-0.76
				c4.588-0.587,8.744,0.669,12.588,3.056c2.963,1.84,4.506,4.65,5.015,8.057c1.075,7.187,0.649,14.314-0.772,21.418
				c-1.313,6.561-2.334,13.163-2.808,19.851c-0.167,2.36-0.344,4.718-0.468,7.081c-0.103,1.945-0.401,2.176-2.376,2.257
				c-3.509,0.145-7.015,0.357-10.525,0.463c-2.074,0.063-2.157-0.027-2.576-2.072c-1.699-8.294-2.207-16.635-1.292-25.084
				C228.01,248.033,228.701,244.277,229.061,240.394z"/>
			<path style="fill:#F9B49B;" d="M178.642,122.962c0,5.537-2.397,10.426-1.331,16.043c0.359,1.895,0.011,4.191-2.545,2.973
				c-0.155-0.074-0.314-0.166-0.485-0.152c-0.211,0.018-0.371,0.19-0.506,0.353c-1.533,1.854-2.383,4.022-3.376,6.185
				c-0.622,1.355-1.517,2.519-2.509,3.611c-1.424,1.568-3.194,2.213-5.301,1.889c-0.726-0.112-1.471-0.157-2.176-0.346
				c-2.489-0.67-2.145-0.457-3.063,1.79c-0.834,2.038-1.636,4.094-2.579,6.082c-0.613,1.292-0.94,1.295-1.989,0.37
				c-0.551-0.486-1.039-1.046-1.591-1.532c-2.432-2.142-2.38-2.112-1.173-4.98c4.592-10.914,9.882-21.529,14.064-32.618
				c1.539-4.082,4.661-6.827,7.742-9.641c0.717-0.654,1.36-0.353,1.991,0.061c2.833,1.857,4.511,4.439,4.818,7.846
				C178.692,121.544,178.642,122.202,178.642,122.962z"/>
			<path style="fill:#F9B49B;" d="M199.482,220.083c1.571-0.391,2.966-1.219,4.372-1.999c1.289-0.715,2.602-1.373,3.987-1.877
				c0.405-0.148,0.863-0.178,1.117,0.197c0.25,0.368,0.108,0.821-0.212,1.112c-0.543,0.493-1.138,0.928-1.705,1.394
				c-1.476,1.213-3.297,1.959-5.078,3.656c2.284-0.475,3.75-1.55,5.381-2.212c0.778-0.316,1.792-1.286,2.389-0.388
				c0.742,1.114-0.599,1.643-1.357,2.119c-2.206,1.384-4.465,2.684-6.623,4.264c1.913-0.523,3.824-1.054,5.739-1.565
				c0.754-0.201,1.822-0.807,2.182,0.11c0.408,1.041-0.807,1.46-1.576,1.796c-5.85,2.559-11.788,4.85-18.202,5.57
				c-0.406,0.046-0.819,0.018-1.226,0.057c-0.775,0.074-1.204-0.169-1.311-1.03c-0.41-3.289-1.579-6.329-3.218-9.191
				c-0.445-0.777-0.516-1.261,0.455-1.684c3.553-1.547,6.729-3.679,9.567-6.322c0.414-0.386,0.912-0.691,1.402-0.984
				c0.488-0.292,0.987-0.583,1.562-0.084c0.638,0.553,0.475,1.154,0.195,1.774c-0.475,1.049-1.225,1.92-2.157,3.041
				c1.434-0.002,2.328-0.67,3.224-1.204c1.894-1.13,3.729-2.359,5.604-3.521c0.609-0.378,1.436-0.995,1.961-0.307
				c0.542,0.71-0.361,1.28-0.827,1.808c-1.146,1.297-2.603,2.234-3.918,3.334c-0.675,0.565-1.344,1.137-2.015,1.706
				C199.289,219.796,199.386,219.94,199.482,220.083z"/>
			<path style="fill:#E1BB7A;" d="M115.23,236.847c-0.497-14.6-0.882-25.899-1.264-37.198c-0.044-1.31-0.13-2.622-0.091-3.931
				c0.088-3.006,1.959-5.048,4.575-5.08c2.517-0.031,4.402,1.836,4.681,4.729c0.149,1.548,0.218,3.106,0.256,4.662
				c0.391,16.298,1.206,32.584,1.28,48.892c0.022,4.91,0.487,9.817,0.668,14.728c0.047,1.27,0.507,1.656,1.751,1.67
				c13.111,0.142,26.219,0.099,39.324-0.39c16.38-0.611,32.766-0.78,49.155-0.519c1.144,0.018,2.293,0.138,3.427,0.298
				c2.75,0.389,4.368,2.099,4.499,4.676c0.148,2.922-1.64,5.591-4.2,6.176c-2.092,0.478-4.232,0.437-6.363,0.446
				c-2.534,0.011-2.394-0.111-2.393,2.43c0.01,21.138,0.023,42.276,0.03,63.414c0,0.9,0.043,1.815-0.1,2.696
				c-0.294,1.809-1.673,2.945-3.398,2.934c-1.73-0.011-3.086-1.161-3.358-2.976c-0.133-0.884-0.09-1.798-0.09-2.698
				c-0.015-20.892-0.021-41.785-0.038-62.677c-0.003-3.234,0.327-3.012-3.095-2.916c-2.048,0.058-4.095,0.224-6.141,0.207
				c-1.317-0.01-1.661,0.546-1.64,1.763c0.106,6.226,0.084,12.454,0.241,18.678c0.159,6.305,0.481,12.607,0.714,18.91
				c0.03,0.813,0.07,1.653-0.09,2.441c-0.347,1.698-1.675,2.747-3.297,2.761c-1.635,0.014-2.971-0.992-3.345-2.692
				c-0.227-1.032-0.285-2.109-0.341-3.17c-0.625-11.866-0.707-23.746-0.899-35.623c-0.003-0.164,0-0.328-0.002-0.492
				c-0.035-2.403-0.035-2.405-2.447-2.384c-12.127,0.107-24.254,0.284-36.38-0.104c-2.375-0.076-4.747-0.221-7.122-0.268
				c-2.481-0.049-2.493-0.014-2.491,2.587c0.013,14.502,0.032,29.004,0.048,43.505c0.007,6.636,0.016,13.273,0.012,19.909
				c0,0.817,0.03,1.655-0.133,2.447c-0.363,1.758-1.826,2.828-3.561,2.734c-1.626-0.088-2.899-1.195-3.166-2.9
				c-0.138-0.883-0.098-1.797-0.1-2.697c-0.037-20.81-0.068-41.621-0.101-62.431c-0.001-0.492-0.036-0.985-0.004-1.474
				c0.074-1.145-0.391-1.662-1.581-1.551c-2.698,0.251-5.408-0.052-8.097,0.051c-2.839,0.109-5.556-1.829-5.448-5.516
				c0.135-4.585,0.106-9.175,0.114-13.763C115.241,249.277,115.23,241.411,115.23,236.847z"/>
			<path style="fill:#FFFFFF;" d="M187.977,233.37c0.047,0.886-0.146,1.665-1.12,1.917c-1.052,0.272-1.727-0.238-2.079-1.211
				c-0.138-0.381-0.226-0.782-0.319-1.177c-1.125-4.763-2.252-9.525-3.369-14.29c-0.452-1.93-0.157-2.805,0.987-3.027
				c1.063-0.206,1.884,0.424,2.28,2.052c1.216,4.992,2.357,10.003,3.523,15.008C187.936,232.878,187.947,233.126,187.977,233.37z"/>
			<path style="fill:#F99875;" d="M163.156,154.137c-3.256-0.113-5.801-1.2-7.74-3.533c-0.442-0.532-1.15-1.142-0.398-1.883
				c0.621-0.611,1.238-0.074,1.728,0.313c1.684,1.331,3.497,2.373,5.653,2.695c0.721,0.108,1.451,0.16,2.177,0.232
				c0.638,0.064,1.488-0.02,1.562,0.809c0.089,0.987-0.829,1.042-1.543,1.168C164.035,154.038,163.468,154.095,163.156,154.137z"/>
			<path style="fill:#5B381B;" d="M170.098,125.742c2.381-0.133,4.334,0.749,6.057,2.228c0.714,0.613,1.347,1.361,0.663,2.295
				c-0.727,0.992-1.626,0.521-2.318-0.101c-1.555-1.398-3.395-1.811-5.404-1.766c-0.406,0.009-0.815,0.023-1.217-0.02
				c-0.65-0.07-1.015-0.47-1.085-1.111c-0.061-0.563,0.281-0.933,0.734-1.146C168.355,125.73,169.255,125.7,170.098,125.742z"/>
			<path style="fill:#D42624;" d="M167.157,141.065c0.178,0.062,0.435,0.095,0.626,0.225c1.207,0.825,2.453,1.578,3.791,2.176
				c0.474,0.212,0.842,0.617,0.714,1.143c-0.158,0.646-0.734,0.886-1.339,0.736c-1.671-0.415-3.197-1.16-4.515-2.275
				c-0.393-0.333-0.511-0.829-0.273-1.329C166.345,141.356,166.651,141.106,167.157,141.065z"/>
			<path d="M171.645,130.73c1.133,0.017,1.982,0.924,1.903,2.034c-0.067,0.946-0.985,1.841-1.901,1.854
				c-0.94,0.013-1.999-1.129-1.955-2.109C169.734,131.574,170.676,130.716,171.645,130.73z"/>
			<path style="fill:#494949;" d="M229.423,297.122c-1.046,1.906-0.849,3.901-1.09,5.798c-0.424,3.329,0.061,6.703-0.478,10.036
				c-0.348,2.151-2.483,3.466-4.405,2.52c-1.044-0.514-1.068-1.623-0.938-2.571c0.356-2.607,0.189-5.224,0.286-7.834
				c0.331-8.878,1.959-17.504,4.911-25.885c0.735-2.087,0.7-2.106,2.923-2.146c4.257-0.076,8.48,0.669,12.742,0.507
				c1.316-0.05,1.907,0.753,2.027,1.977c0.152,1.543,0.364,3.084,0.427,4.631c0.181,4.427,1.06,8.738,2.008,13.045
				c0.865,3.928,3.018,7.009,6.074,9.531c1.197,0.988,2.387,1.986,3.564,2.998c1.419,1.219,1.691,2.809,1.11,4.464
				c-0.597,1.703-2.093,2.192-3.758,2.167c-4.786-0.072-9.419-0.867-13.812-2.873c-3.364-1.536-5.736-4.009-7.184-7.377
				c-0.773-1.799-1.577-3.583-2.229-5.439C231.161,299.418,230.775,298.03,229.423,297.122z"/>
			<path style="fill:#5B381B;" d="M71.447,175.665c0.327-9.662,4.518-17.229,12.459-22.706c5.907-4.074,12.534-6.668,19.191-9.209
				c3.973-1.517,8.093-2.585,12.026-4.228c8.841-3.693,15.707-9.574,20.47-17.915c2.442-4.277,5.273-8.258,9.073-11.485
				c5.655-4.802,12.112-7.402,19.578-7.09c5.703,0.238,9.833,3.228,12.791,7.935c0.952,1.514,1.796,3.117,2.192,4.91
				c0.597,2.696,0.062,3.671-2.582,4.224c-2.331,0.488-4.593,1.153-6.803,2.039c-3.466,1.389-5.494,4.075-7.265,7.247
				c-5.009,8.968-7.675,18.915-12.037,28.15c-4.759,10.074-10.864,19.195-18.579,27.231c-2.834,2.952-5.766,5.803-9.028,8.295
				c-6.686,5.108-14.153,8.149-22.623,8.391c-13.501,0.386-24.164-7.116-28.056-19.719
				C71.649,179.779,71.419,177.739,71.447,175.665z"/>
		</g>
	</g>
	<g>
		<ellipse style="fill:#D5E4EF;" cx="129.377" cy="412.506" rx="34.713" ry="14.48"/>
		<g>
			<path style="fill:#4D9682;" d="M116.384,373.786c-6.462-3.202-13.71-7.266-15.129-14.337c-0.646-3.218,0.07-6.628-0.818-9.788
				c-1.031-3.667-4.018-6.381-6.375-9.372c-2.357-2.992-4.195-7.1-2.522-10.521c1.983-4.056,8.099-4.527,11.72-1.831
				c3.621,2.696,5.134,7.4,5.667,11.883c0.533,4.483,0.306,9.075,1.422,13.45c1.553,6.092,5.555,11.219,9.457,16.149
				c2.871,3.626,6.251,7.197,8.667,11.122C126.756,381.449,118.729,374.993,116.384,373.786z"/>
			<path style="fill:#4D9682;" d="M124.329,372.161c0.982-3.945,3.247-7.426,4.992-11.098c1.746-3.672,2.995-7.892,1.789-11.774
				c-0.937-3.018-3.225-5.402-5.517-7.578c-2.293-2.175-4.723-4.34-6.099-7.185s-1.418-6.609,0.809-8.851
				c1.166-1.174,2.791-1.791,4.011-2.909c3.385-3.101,2.54-8.631,4.413-12.822c2.103-4.706,8.124-7.223,12.951-5.414
				c4.827,1.809,7.71,7.663,6.203,12.592c-1.739,5.688-8.296,9.755-7.802,15.682c0.364,4.371,4.537,7.489,5.745,11.706
				c1.404,4.902-1.524,10.043-5.174,13.603c-3.65,3.56-8.141,6.287-11.231,10.342c-1.155,1.515-2.049,3.284-2.537,5.128
				c-0.368,1.395,0.246,4.528-0.421,5.559C123.952,383.025,123.978,373.573,124.329,372.161z"/>
			<path style="fill:#4D9682;" d="M140.19,365.136c3.123-0.535,6.473-0.225,9.309-1.637c4.181-2.082,5.815-7.089,7.146-11.566
				c1.331-4.477,3.239-9.465,7.583-11.182c4.735-1.871,10.371,1.494,12.276,6.216c1.905,4.721,0.806,10.181-1.422,14.759
				c-1.427,2.931-3.379,5.72-6.152,7.433c-6.912,4.268-15.855,0.574-23.948,1.286c-3.788,0.333-7.441,1.771-10.53,3.973
				c-1.707,1.217-5.764,7.108-7.329,5.922c-2.472-1.874,1.764-7.686,3.014-9.191C132.681,368.084,136.235,365.814,140.19,365.136z"
				/>
			<path style="fill:#E1BB7A;" d="M142.669,415.06h-27.712c-6.119,0-11.267-4.588-11.968-10.667L99.981,378.3h57.663l-3.008,26.093
				C153.936,410.473,148.788,415.06,142.669,415.06z"/>
			<rect x="98.7" y="377.579" style="fill:#C6944B;" width="59.425" height="4.165"/>
		</g>
	</g>
	<g>
		<ellipse style="fill:#D5E4EF;" cx="587.351" cy="335.117" rx="74.409" ry="31.039"/>
		<g>
			<path style="fill:#7A2221;" d="M632.015,222.088c3.109,7.304,7.002,14.053,6.589,22.08c-0.345,6.717-2.764,12.568-7.735,17.238
				c-2.69,2.526-6.159,3.119-9.587,3.697c-2.872,0.484-5.786,0.56-8.707,0.553c-14.74-0.035-29.48,0-44.22-0.031
				c-2.678-0.006-5.324,0.309-7.985,0.48c-0.869,0.056-1.273,0.368-1.504,1.217c-1.607,5.93-3.027,11.901-3.842,17.994
				c-1.19,8.892-2.783,17.709-4.715,26.466c-1.235,5.597-2.09,11.277-3.642,16.805c-0.673,2.398-1.193,2.812-3.532,2.616
				c-4.196-0.351-8.407-0.064-12.61-0.395c-3.623-0.286-7.254-0.634-10.9-0.541c-1.157,0.029-1.521-0.567-1.566-1.65
				c-0.119-2.843,0.286-5.655,0.589-8.455c0.652-6.02,1.344-12.039,1.339-18.093c-0.009-11.276,1.232-22.4,3.568-33.421
				c0.685-3.233,1.106-6.523,1.784-9.758c1.227-5.856,3.812-10.997,8.514-14.85c3.713-3.043,8.137-4.6,12.765-5.597
				c4.678-1.008,9.448-1.241,14.209-1.47c17.14-0.822,34.193-2.298,50.84-6.775c4.997-1.344,9.95-2.85,14.754-4.803
				C628.295,224.632,630.102,223.749,632.015,222.088z"/>
			<path style="fill:#660E0D;" d="M513.609,327.366c-2.085,0.118-4.337-0.24-6.568-0.573c-2.961-0.441-3.374-1.258-3.098-3.816
				c0.461-4.263,1.419-8.441,1.993-12.683c0.909-6.72,1.845-13.437,2.79-20.152c1.508-10.718,2.769-21.475,4.952-32.088
				c1.275-6.2,3.688-11.878,7.789-16.771c3.006-3.587,6.877-5.813,11.274-7.245c5.036-1.64,10.259-2.295,15.48-2.876
				c10.123-1.126,20.264-2.083,30.377-3.321c7.944-0.972,15.912-1.761,23.881-2.503c7.974-0.743,15.894-1.909,23.849-2.802
				c1.292-0.145,2.584-0.259,3.869-0.152c1.563,0.131,1.945,0.998,1.049,2.301c-0.996,1.448-2.418,2.354-4.045,2.974
				c-5.676,2.162-11.462,3.987-17.372,5.375c-8.051,1.891-16.269,2.67-24.483,3.435c-4.831,0.45-9.66,0.92-14.498,1.272
				c-4.194,0.306-8.401,0.448-12.6,0.683c-3.472,0.195-6.929,0.439-10.335,1.276c-5.996,1.474-10.481,4.938-13.646,10.143
				c-4.118,6.773-6.732,14.149-8.445,21.854c-1.913,8.606-2.983,17.347-4.014,26.089c-0.908,7.699-1.924,15.381-3.174,23.032
				c-0.234,1.433-0.402,2.877-0.56,4.321c-0.227,2.084-0.3,2.176-2.325,2.225C515.1,327.38,514.452,327.366,513.609,327.366z"/>
			<path d="M520.733,329.74c5.422,0.285,10.653,0.573,15.885,0.825c1.032,0.05,1.428,0.513,1.38,1.52
				c-0.122,2.577-0.166,5.17-0.656,7.704c-0.501,2.586-1.971,4.605-4.705,4.88c-7.994,0.804-15.612,3.34-23.447,4.854
				c-1.123,0.217-2.247,0.343-3.356-0.016c-1.363-0.441-1.551-1.224-0.583-2.329c0.54-0.617,1.242-1.018,1.934-1.44
				c1.998-1.22,4.027-2.397,5.959-3.715C517.466,339.075,520.243,334.558,520.733,329.74z"/>
			<path d="M509.894,326.397c2.56,0.125,4.894,0.255,7.23,0.347c1.001,0.039,1.48,0.484,1.426,1.502
				c-0.06,1.127-0.054,2.259-0.143,3.383c-0.251,3.186-0.612,3.92-3.615,4.59c-5.602,1.25-10.974,3.203-16.419,4.94
				c-1.078,0.344-2.181,0.594-3.324,0.569c-0.922-0.02-1.824-0.17-2.224-1.139c-0.417-1.011,0.212-1.7,0.916-2.284
				c0.557-0.462,1.164-0.869,1.771-1.265c2.57-1.68,5.021-3.523,7.425-5.429c1.273-1.009,2.535-2.105,3.238-3.555
				c0.665-1.371,1.513-1.932,2.977-1.666C509.464,326.445,509.796,326.397,509.894,326.397z"/>
			<path style="fill:#3D88C9;" d="M637.636,183.411c-0.293,9.125-0.203,18.282-1.996,27.292c-0.851,4.276-1.823,8.53-2.838,12.771
				c-0.601,2.513-0.708,2.524-3.196,2.809c-8.111,0.93-16.212,1.956-24.338,2.738c-5.72,0.55-11.467,0.585-17.222,0.255
				c-4.927-0.283-9.87-0.276-14.806-0.395c-0.648-0.016-1.296-0.006-1.943-0.033c-0.885-0.036-1.308-0.417-1.149-1.388
				c1.258-7.653,1.702-15.401,2.652-23.091c0.347-2.807,0.018-5.661,0.497-8.468c0.13-0.765-0.19-1.201-1.046-1.239
				c-5.678-0.25-11.183-1.704-16.795-2.418c-0.321-0.041-0.648-0.054-0.961-0.127c-1.535-0.358-1.761-0.657-1.404-2.184
				c0.405-1.73,0.894-3.441,1.36-5.157c1.969-7.25,3.668-14.58,6.319-21.63c0.711-1.891,1.576-3.723,2.308-5.607
				c2.331-6.002,6.882-9.437,12.901-11.129c3.2-0.9,6.476-1.354,9.816-1.323c0.956,0.009,1.729,0.252,2.381,0.955
				c7.049,7.598,18.417,4.637,23.674-0.333c1.371-1.297,2.51-1.691,4.241-1.056c1.893,0.694,3.848,1.235,5.802,1.742
				c7.021,1.82,11.111,6.556,13.272,13.23c0.974,3.01,1.511,6.112,1.84,9.25C637.512,173.707,637.568,178.559,637.636,183.411z"/>
			<path style="fill:#F9B49B;" d="M613.602,119.997c-0.016,1.395,0.09,3.388-0.302,5.356c-0.056,0.28-0.001,0.808-0.339,0.719
				c-1.554-0.411-1.094,0.747-1.212,1.458c-0.552,3.321-0.711,6.677-0.899,10.031c-0.159,2.823-0.463,5.644-0.292,8.475
				c0.06,1-0.452,1.527-1.149,2.065c-2.205,1.703-4.81,2.323-7.469,2.706c-4.564,0.657-8.85,0.062-12.503-3.085
				c-0.728-0.627-1.523-1.123-0.602-2.195c0.164-0.19,0.064-0.593,0.12-0.891c0.226-1.197,0.779-2.582,0.215-3.568
				c-0.591-1.036-2.113-0.386-3.212-0.551c-4.89-0.736-6.911-2.723-7.767-7.606c-0.401-2.29-0.247-4.576-0.276-6.864
				c-0.012-0.946-0.275-1.446-1.302-1.34c-0.377,0.039-0.765-0.009-1.146-0.036c-0.397-0.028-0.808-0.159-0.994-0.494
				c-0.286-0.518,0.171-0.851,0.496-1.132c2.674-2.314,3.089-5.497,3.385-8.726c0.07-0.76,0.073-1.526,0.141-2.286
				c0.73-8.131,6.224-11.908,13.216-14.034c6.062-1.843,11.609,0.054,16.303,3.819c3.246,2.604,4.473,6.66,5.237,10.727
				C613.677,114.819,613.605,117.112,613.602,119.997z"/>
			<path style="fill:#6BA8DE;" d="M622.268,198.568c-4.939,0.149-9.871-0.175-14.807-0.223c-1.829-0.017-1.729-0.059-1.647-1.965
				c0.114-2.666-0.08-5.35,0.108-8.009c0.574-8.126,0.929-16.297,3.428-24.147c0.886-2.785,2.177-5.392,3.889-7.78
				c3.5-4.882,8.254-7.155,14.223-6.642c3.192,0.274,5.571,1.971,7.1,4.837c2.211,4.145,3.102,8.641,3.537,13.248
				c0.844,8.939,1.076,17.904,1.012,26.879c-0.003,0.486,0.018,0.972-0.007,1.457c-0.088,1.683-0.189,1.797-1.801,1.852
				C632.292,198.247,627.28,198.404,622.268,198.568z"/>
			<path style="fill:#CD7F63;" d="M534.215,237.005c-0.916-0.162-1.995,0.334-2.276-0.702c-0.246-0.907,0.72-1.364,1.331-1.846
				c2.103-1.66,4.507-2.849,6.83-4.148c1.123-0.628,1.878-1.437,2.444-2.556c2.844-5.624,5.661-11.256,8.033-17.107
				c1.151-2.839,2.492-5.62,3.974-8.302c1.392-2.519,2.23-5.17,2.741-7.965c0.445-2.429,0.494-2.438,3.018-2.154
				c3.931,0.443,7.724,1.735,11.704,1.876c1.23,0.044,1.433,0.846,1.24,1.858c-0.515,2.694-0.955,5.408-1.887,8.003
				c-2.063,5.745-4.955,11.051-8.497,16.013c-2.817,3.947-5.777,7.796-8.218,11.998c-0.735,1.266-1.793,2.053-3.147,2.492
				c-1.233,0.399-2.489,0.839-3.784,0.786c-3.928-0.161-7.707,0.731-11.514,1.462C535.496,236.85,534.773,236.924,534.215,237.005z"
				/>
			<path style="fill:#F9B49B;" d="M554.676,233.04c-1.737,0.315-3.467,0.68-5.214,0.923c-0.738,0.102-1.845,0.523-2.159-0.364
				c-0.332-0.938,0.792-1.223,1.472-1.588c0.983-0.527,1.988-1.014,2.89-1.838c-1.626,0.282-3.251,0.566-4.877,0.846
				c-0.402,0.069-0.865,0.148-1.082-0.275c-0.301-0.588,0.176-0.893,0.603-1.113c1.415-0.73,2.846-1.427,4.404-2.204
				c-1.177-0.409-2.112,0.149-3.075,0.072c-0.54-0.043-1.251,0.109-1.409-0.602c-0.126-0.567,0.48-0.778,0.888-1.009
				c1.63-0.922,3.408-1.487,5.186-2.03c3.095-0.945,6.239-1.71,9.424-2.282c2.813-0.505,5.49-0.161,7.858,1.571
				c2.154,1.576,4.315,3.146,6.397,4.814c0.979,0.784,1.826,1.05,3.076,0.584c10.777-4.02,21.103-9.005,31.234-14.42
				c1.059-0.566,1.625-1.298,1.401-2.516c-0.514-2.802-0.363-5.638-0.464-8.462c-0.049-1.368-0.176-2.735-0.326-4.095
				c-0.116-1.054,0.295-1.439,1.347-1.445c4.37-0.026,8.741-0.218,13.108-0.133c3.641,0.071,7.277,0.181,10.917,0.016
				c1.701-0.077,1.788,0.018,1.858,1.68c0.15,3.581-0.305,7.12-1.067,10.59c-0.761,3.465-1.644,6.93-2.835,10.266
				c-1.927,5.403-6.091,8.619-11.33,10.561c-4.797,1.779-9.852,2.545-14.813,3.674c-7.174,1.633-14.344,3.295-21.548,4.784
				c-4.517,0.934-9.111,1.324-13.741,1.351c-2.626,0.015-5.13-0.504-7.016-2.213c-2.959-2.681-6.233-2.684-9.761-1.951
				c-1.583,0.328-3.166,0.654-4.753,0.96c-0.554,0.107-1.118,0.182-1.681,0.217c-0.398,0.025-0.85-0.01-0.936-0.527
				c-0.055-0.334,0.124-0.643,0.421-0.809c0.847-0.471,1.691-0.953,2.57-1.359c1.017-0.47,2.069-0.864,3.106-1.291
				C554.727,233.296,554.701,233.168,554.676,233.04z"/>
			<path style="fill:#5B381B;" d="M585.043,98.49c-0.491-1.013-0.947-1.973-1.135-3.012c-0.449-2.487,1.14-3.878,3.507-3.015
				c1.791,0.653,3.514,1.494,5.304,2.151c1.862,0.683,3.792,1.133,5.707,1.291c0.568-0.328,0.171-0.726,0.22-1.063
				c0.24-1.666,1.027-2.257,2.702-1.933c0.589,0.114,1.193,0.337,1.699,0.655c5.89,3.696,10.167,8.794,12.717,15.236
				c1.268,3.204,0.928,6.653,0.545,9.998c-0.278,2.427-1.1,4.749-1.986,7.043c-0.696,1.803-1.932,3.12-3.361,4.274
				c-1.566,1.266-3.273,1.11-4.78-0.227c-0.948-0.841-1.523-1.893-1.914-3.078c-0.601-1.822-0.941-3.694-1.163-5.593
				c-0.143-1.223-0.37-2.443-0.963-3.52c-0.689-1.252-1.885-1.255-2.727-0.1c-0.602,0.826-0.785,1.809-1.067,2.762
				c-0.391,1.323-1.325,1.777-3.055,1.571c-1.219-0.145-1.436-0.432-1.447-2.071c-0.014-2.216,0.09-4.435-0.419-6.623
				c-0.348-1.497-0.463-1.673-2.006-1.297c-1.896,0.461-3.805,0.517-5.705,0.306c-4.722-0.524-7.168-3.723-8.745-7.785
				c-0.868-2.236-1.051-4.612-0.893-6.995c0.13-1.973,1.248-2.505,2.942-1.443c0.384,0.241,0.718,0.567,1.056,0.875
				C581.449,98.146,583.027,98.753,585.043,98.49z"/>
			<path style="fill:#E1BB7A;" d="M648.893,209.788c-0.134,18.062-0.273,36.124-0.396,54.186c-0.011,1.628-0.155,3.223-0.557,4.808
				c-0.695,2.737-2.388,4.311-5.206,4.654c-1.125,0.137-2.262,0.255-3.392,0.241c-1.306-0.016-1.641,0.62-1.655,1.803
				c-0.052,4.454-0.324,8.902-0.498,13.352c-0.577,14.81-1.611,29.599-1.936,44.419c-0.048,2.186-0.07,4.373-0.082,6.559
				c-0.005,0.902-0.077,1.777-0.521,2.588c-0.704,1.284-2.076,2.028-3.419,1.844c-1.473-0.202-2.651-1.34-2.906-2.864
				c-0.079-0.475-0.069-0.969-0.064-1.454c0.118-12.07,0.685-24.121,1.349-36.172c0.512-9.298,0.816-18.607,1.174-27.913
				c0.072-1.877-0.008-1.924-1.83-1.906c-11.017,0.106-22.038-0.303-33.051,0.088c-9.718,0.345-19.43,0.628-29.153,0.303
				c-2.028-0.068-2.077-0.009-2.016,1.954c0.615,19.85-0.591,39.679-0.72,59.52c-0.011,1.698-0.132,3.402-0.305,5.092
				c-0.214,2.095-1.612,3.428-3.421,3.406c-1.901-0.024-3.317-1.513-3.375-3.717c-0.042-1.617,0.107-3.237,0.134-4.856
				c0.322-19.353,1.226-38.698,0.828-58.062c-0.018-0.891-0.076-1.783-0.041-2.672c0.043-1.097-0.302-1.957-0.966-2.876
				c-2.232-3.086-0.671-6.664,3.093-7.283c0.634-0.104,1.292-0.08,1.939-0.091c9.397-0.15,18.79-0.111,28.188,0.11
				c5.259,0.123,10.528-0.167,15.792-0.287c9.151-0.209,18.302-0.43,27.453-0.646c0.729-0.017,1.459-0.086,2.186-0.055
				c1.145,0.049,1.505-0.465,1.569-1.591c0.459-8.166,1.099-16.324,1.462-24.494c0.884-19.914,0.337-39.846,0.558-59.768
				c0.093-8.342,0.228-16.683,0.358-25.025c0.01-0.643,0.042-1.31,0.216-1.922c0.93-3.268,4.968-4.458,7.378-2.11
				c1.285,1.252,2.178,2.817,2.228,4.711c0.019,0.729,0.008,1.458,0.004,2.187c-0.113,17.981-0.227,35.962-0.34,53.943
				C648.93,209.788,648.912,209.788,648.893,209.788z"/>
			<path style="fill:#004480;" d="M571.473,195.999c-5.414-0.324-10.805-0.858-16.154-1.759c-0.554-0.093-1.107-0.231-1.638-0.413
				c-0.967-0.332-1.479-1.001-1.214-2.049c0.247-0.975,1.031-1.2,1.899-1.087c1.764,0.23,3.519,0.526,5.279,0.784
				c3.123,0.457,6.257,0.813,9.413,0.942c1.698,0.069,1.754,0.073,1.964-1.592c0.656-5.216,1.192-10.448,1.91-15.655
				c0.897-6.502,2.196-12.916,4.849-18.977c0.943-2.155,2.054-4.218,3.425-6.132c0.374-0.522,0.782-1.045,1.27-1.455
				c0.606-0.509,1.328-0.594,2.007-0.073c0.676,0.519,0.747,1.211,0.469,1.96c-0.083,0.223-0.23,0.428-0.375,0.621
				c-4.147,5.518-5.972,11.944-7.318,18.569c-1.178,5.798-1.783,11.672-2.361,17.547c-0.236,2.4-0.866,4.756-0.679,7.217
				C574.307,195.636,573.317,196.095,571.473,195.999z"/>
			<path style="fill:#004480;" d="M634.646,198.956c-6.29-0.602-12.603-0.275-18.904-0.442c-3.151-0.083-6.285-0.533-9.444-0.383
				c-0.319,0.015-0.651-0.014-0.962-0.086c-0.799-0.185-1.271-0.695-1.293-1.528c-0.019-0.727,0.387-1.196,1.04-1.482
				c0.694-0.305,1.429-0.29,2.149-0.245c9.764,0.604,19.559,0.18,29.32,0.874c1.917,0.136,2.747,0.672,2.761,1.747
				c0.014,1.163-0.94,1.687-2.971,1.622C635.776,199.014,635.211,198.982,634.646,198.956z"/>
			<path style="fill:#004480;" d="M598.979,151.889c-4.805,0.22-8.447-1.324-11.692-3.97c-0.313-0.255-0.619-0.524-0.897-0.816
				c-0.701-0.733-0.917-1.553-0.189-2.37c0.633-0.71,1.416-0.702,2.19-0.194c0.337,0.221,0.674,0.455,0.966,0.73
				c4.947,4.666,13.226,3.82,17.448,1.04c1.081-0.711,2.129-1.472,3.205-2.191c0.888-0.593,1.805-0.82,2.591,0.134
				c0.589,0.714,0.348,1.736-0.627,2.523C608.026,149.961,603.676,152.114,598.979,151.889z"/>
			<path style="fill:#F99875;" d="M590.521,140.34c-0.135-0.092-0.353-0.182-0.485-0.343c-0.164-0.2-0.078-0.469,0.084-0.621
				c0.331-0.31,0.686-0.607,1.069-0.849c3.756-2.374,6.55-5.689,9.097-9.25c0.267-0.373,0.5-0.772,0.793-1.122
				c0.424-0.506,0.947-0.84,1.584-0.373c0.515,0.377,0.477,0.913,0.245,1.447c-0.06,0.139-0.141,0.271-0.222,0.401
				c-2.682,4.284-6.034,7.877-10.593,10.215c-0.339,0.174-0.694,0.319-1.051,0.452C590.907,140.347,590.743,140.324,590.521,140.34z
				"/>
			<path style="fill:#5B381B;" d="M583.923,113.516c1.701-0.058,3.111,0.494,4.414,1.345c0.673,0.439,1.251,1.039,0.823,1.899
				c-0.459,0.922-1.261,0.694-1.97,0.3c-1.59-0.883-3.184-1.426-5.018-0.676c-0.619,0.253-1.232-0.125-1.497-0.754
				c-0.296-0.702,0.133-1.154,0.716-1.476C582.211,113.7,583.09,113.476,583.923,113.516z"/>
			<path style="fill:#B76B5A;" d="M580.581,126.874c0.808,0.333,1.727,0.009,2.662-0.35c0.786-0.302,1.551-0.219,1.872,0.677
				c0.288,0.803-0.295,1.266-0.915,1.612c-1.634,0.912-3.313,0.897-5.028,0.221c-0.693-0.273-1.268-0.663-1.08-1.477
				c0.192-0.829,0.851-0.963,1.613-0.771C579.921,126.841,580.154,126.834,580.581,126.874z"/>
			<path d="M585.628,118.539c0.027,0.786-0.9,1.785-1.708,1.84c-0.801,0.055-1.567-0.719-1.537-1.589
				c0.034-0.97,0.569-1.532,1.519-1.648C584.776,117.036,585.601,117.731,585.628,118.539z"/>
		</g>
	</g>
	<g>
		<ellipse style="fill:#D5E4EF;" cx="631.812" cy="425.81" rx="34.713" ry="14.481"/>
		<g>
			<path style="fill:#4D9682;" d="M615.12,382.42c-7.022-6.129-14.74-13.594-14.186-22.898c0.252-4.235,2.27-8.26,2.201-12.502
				c-0.081-4.922-2.92-9.297-4.88-13.811c-1.961-4.515-2.906-10.254,0.312-13.979c3.813-4.415,11.612-2.991,15.249,1.57
				c3.637,4.561,3.98,10.939,3.17,16.716c-0.81,5.777-2.605,11.442-2.652,17.276c-0.065,8.125,3.248,15.849,6.502,23.295
				c2.393,5.477,5.443,11.052,7.17,16.752C625.558,395.411,617.652,384.701,615.12,382.42z"/>
			<path style="fill:#4D9682;" d="M625.583,383.006c2.527-4.607,6.502-8.211,9.893-12.225c3.391-4.014,6.341-8.876,6.113-14.125
				c-0.178-4.08-2.251-7.813-4.4-11.287c-2.149-3.473-4.474-6.979-5.257-10.987c-0.783-4.009,0.404-8.725,3.926-10.794
				c1.844-1.083,4.077-1.319,5.971-2.314c5.251-2.761,6.016-9.949,9.737-14.57c4.178-5.188,12.531-6.352,17.967-2.502
				c5.436,3.85,7.113,12.115,3.606,17.778c-4.046,6.535-13.579,9.459-14.914,17.029c-0.984,5.583,3.204,10.853,3.325,16.521
				c0.141,6.588-5.211,12.049-10.945,15.296c-5.734,3.247-12.243,5.176-17.441,9.227c-1.942,1.513-3.643,3.429-4.859,5.574
				c-0.92,1.622-1.183,5.74-2.356,6.809C621.535,396.457,624.68,384.653,625.583,383.006z"/>
			<path style="fill:#E1BB7A;" d="M645.104,428.365h-27.712c-6.119,0-11.267-4.588-11.968-10.667l-3.008-26.093h57.664
				l-3.008,26.093C656.37,423.777,651.223,428.365,645.104,428.365z"/>
			<rect x="601.134" y="390.884" style="fill:#C6944B;" width="59.425" height="4.165"/>
		</g>
	</g>
</g>
</svg>
