<?xml version="1.0" encoding="utf-8"?>
<!-- Generator: Adobe Illustrator 27.5.0, SVG Export Plug-In . SVG Version: 6.00 Build 0)  -->
<svg version="1.1" id="Layer_1" xmlns="http://www.w3.org/2000/svg" xmlns:xlink="http://www.w3.org/1999/xlink" x="0px" y="0px"
	 viewBox="0 0 3453.319 2000" style="enable-background:new 0 0 3453.319 2000;" xml:space="preserve">
<g>
	<rect x="0.001" style="fill:#FFFFFF;" width="3453.32" height="2000"/>
	<path style="fill:#D6E6FD;" d="M413.29,1839.775c-262-364.64-264.321-916.773,129.231-1229.38
		c355.94-282.732,948.742-87.97,1251.141-258.334C2159.974,145.689,3095.29,184.689,3295.729,833.34
		c148.988,482.147-90.438,933.301-274.438,1006.436C1545.29,1839.775,413.29,1839.775,413.29,1839.775z"/>
	<g>
		<path style="fill:#215E4B;" d="M2820.422,1629.386h7.343c2.419-24.72,7.175-52.027,15.64-80.597
			c32.013-108.042,18.007-122.021,72.029-189.561c54.02-67.539,58.021-207.594,58.021-207.594s26.011-159.063,0-229.09
			c-26.01-70.027-28.011-140.055-91.035-214.084c0,0-12.005,99.039-27.011,144.057c-15.006,45.018-29.255,88.034-18.129,196.077
			c11.126,108.042,18.037,117.045,20.584,145.057s-1.454,146.084,4.548,165.578s-35.014,154.547-38.016,212.57
			C2823.495,1589.232,2821.873,1609.109,2820.422,1629.386z"/>
		<path style="fill:#3C8F7C;" d="M2843.43,1629.386c10.422-24.046,28.77-47.938,60.895-62.28
			c84.031-37.514,140.721-36.681,179.736-126.716s39.016-213.083,52.521-238.594c0,0-36.014-6.002-72.028,58.523
			c-36.014,64.524-60.443,112.544-81.241,150.059s-50.81,27.011-76.32,55.521c-21.38,23.896-41.121,79.482-48.62,107.69
			c-2.437,9.162-5.979,17.988-10.652,26.236c-4.252,7.504-9.255,16.633-12.256,23.135c-0.668,1.447-1.33,3.653-1.981,6.425H2843.43z
			"/>
		<path style="fill:#215E4B;" d="M2606.312,1202.654c-6.002,77.029,43.018,71.027,45.019,120.047
			c2,49.02,66.025,132.052,95.687,191.074c15.427,30.699,21.124,77.631,23.04,115.61h23.832
			c-9.219-96.122-48.219-163.03-71.531-216.649c-30.012-69.027-34.514-100.539-9.004-154.561s-12.004-193.576,24.313-255.792
			c36.315-62.217,17.703-159.871,9.351-197.385c-8.354-37.515,0.851-63.025,8.353-102.575c7.504-39.55-8.353-97.003-8.353-97.003
			c-1.351,49.019-38.665,116.045-65.676,159.062c-27.011,43.017-78.03,160.063-72.028,213.083
			c6.003,53.021,3.001,57.022,3.001,57.022C2593.307,1105.616,2612.313,1125.624,2606.312,1202.654z"/>
		<path style="fill:#3C8F7C;" d="M2749.303,1566.791c3.064,9.195,12.889,32.678,21.882,62.595h14.614
			c-6.648-38.085-18.125-82.28-37.498-107.612c-39.014-51.02-117.045-73.028-126.049-110.043
			c-9.003-37.014,1-148.058-56.021-210.082c0,0,8.004,69.053,0,87.547c-8.003,18.494-76.029,104.528-36.014,176.557
			c40.016,72.027,130.051,63.024,158.062,79.031C2716.289,1560.789,2744.301,1551.785,2749.303,1566.791z"/>
		<path style="fill:#3C8F7C;" d="M2713.288,1234.6c-1.001,74.029,57.022,102.04,56.022,143.057
			c-1.001,41.016,12.004,85.033,23.008,118.046c6.967,20.898,3.11,79.077,1.878,133.684h16.101
			c4.055-40.128,8.498-98.021,7.031-123.68c-2-35.015,14.006-63.024,16.008-124.049c2-61.024,15.005-116.046-12.006-193.075
			c-27.011-77.03-22.008-169.066-135.053-254.1c0,0-20.008,90.035-5.002,139.055
			C2696.281,1122.556,2714.289,1160.57,2713.288,1234.6z"/>
		<path style="fill:#327F6B;" d="M2713.287,1234.6c-1,74.029,57.023,102.04,56.023,143.057
			c-1.001,41.016,12.004,85.033,23.008,118.046c6.967,20.897,3.11,79.077,1.878,133.684h6.682
			c0.904-11.407,1.778-18.571,1.778-18.571l3.335-138.055c0,0-6.669-108.042-18.674-196.076
			c-12.005-88.035-101.04-342.201-101.04-342.201s-20.008,90.035-5.002,139.055C2696.281,1122.556,2714.289,1160.57,2713.287,1234.6
			z"/>
		<path style="fill:#9BC1F9;" d="M2827.811,1566.212h-10.798h-144.148c-10.595,0-18.41,9.912-15.961,20.24l56.483,238.183
			c1.757,7.408,8.361,12.638,15.961,12.638h87.665h10.798h87.666c7.599,0,14.203-5.229,15.961-12.638l56.482-238.183
			c2.449-10.328-5.367-20.24-15.959-20.24H2827.811z"/>
	</g>
	<g>
		<g>
			<path style="fill:#F7CC7F;" d="M243.831,1829.729h2972.289c7.774,0,14.076,4.498,14.076,10.046l0,0
				c0,5.55-6.302,10.047-14.076,10.047H243.831c-7.772,0-14.076-4.497-14.076-10.047l0,0
				C229.755,1834.227,236.058,1829.729,243.831,1829.729z"/>
		</g>
	</g>
	<g>
		<g>
			<polygon style="fill:#0E2E35;" points="494.099,1839.633 471.382,1839.633 519.805,1418.775 542.521,1418.775 			"/>
			<polygon style="fill:#0E2E35;" points="750.56,1839.633 773.276,1839.633 724.854,1418.775 702.137,1418.775 			"/>
			<polygon style="fill:#0E2E35;" points="891.688,1839.633 868.971,1839.633 917.393,1418.775 940.11,1418.775 			"/>
			<polygon style="fill:#0E2E35;" points="1148.147,1839.633 1170.864,1839.633 1122.442,1418.775 1099.725,1418.775 			"/>
			<path style="fill:#E25A44;" d="M874.499,1464.508H564.636c-36.317,0-68.772-29.441-72.491-65.759l-51.206-500.167
				c-3.718-36.317,22.709-65.758,59.026-65.758h309.863c36.317,0,68.772,29.441,72.49,65.758l51.207,500.167
				C937.243,1435.066,910.816,1464.508,874.499,1464.508z"/>
			<path style="fill:#F47458;" d="M960.543,1464.508H650.68c-36.317,0-68.772-29.441-72.491-65.759l-51.206-500.167
				c-3.718-36.317,22.709-65.758,59.026-65.758h309.863c36.317,0,68.772,29.441,72.49,65.758l51.206,500.167
				C1023.287,1435.066,996.86,1464.508,960.543,1464.508z"/>
			<path style="fill:#E25A44;" d="M1002.064,1487.571H562.862c-34.033,0-64.447-27.589-67.932-61.622l0,0
				c-3.484-34.034,21.28-61.623,55.314-61.623h439.202c34.033,0,64.447,27.589,67.932,61.623l0,0
				C1060.862,1459.982,1036.098,1487.571,1002.064,1487.571z"/>
			<path style="fill:#F47458;" d="M1111.709,1487.571H672.508c-34.034,0-64.448-27.589-67.932-61.622l0,0
				c-3.484-34.034,21.28-61.623,55.313-61.623h439.202c34.034,0,64.448,27.589,67.932,61.623l0,0
				C1170.508,1459.982,1145.742,1487.571,1111.709,1487.571z"/>
		</g>
		<g>
			<path style="fill:#AD5A3B;" d="M948.124,1007.867l28.886,80.037c0,0-71.611,18.053-73.417,18.654
				c-1.806,0.602-17.452-78.832-17.452-78.832L948.124,1007.867z"/>
			<g>
				<g>
					<path style="fill:#AD5A3B;" d="M1036.347,1670.873c0,0-52.812,63.325-53.161,68.834c-0.35,5.51,2.098,65.646,8.379,71.156
						c6.28,5.51,24.731,9.418,18.8,15.617c-4.483,4.684-38.974,3.682-61.832,2.424c-6.673-0.367-15.042-53.607-17.685-61.432
						c-3.838-11.365-13.173-36.963-9.683-44.884c1.7-3.86,9.834-11.792,21.297-19.194c12.056-7.787,58.171-71.953,58.171-71.953
						L1036.347,1670.873z"/>
					<path style="fill:#14424D;" d="M943.209,1703.02c0,0,35.463,99.849,49.343,104.668c3.686,1.281,21.373,4.526,24.71,12.349
						c1.004,2.356,0,10.226,0,10.226h-73.917c0,0-9.35-43.992-13.044-63.322c0,0-19.566-47.229-17.393-51.52
						C915.083,1711.127,943.209,1703.02,943.209,1703.02z"/>
					<path style="fill:#AD5A3B;" d="M1352.265,1700.286c0,0,43.128,60.716,39.334,79.925c-2.032,10.286-11.078,23.747-5.887,33.427
						c5.191,9.681,11.123,12.1,11.123,12.1l134.532,2.163c7.329,0.118,2.486-4.588-3.423-8.924
						c-9.672-7.098-17.477-11.789-48.371-26.703c-2.014-0.973-9.35-5.629-11.996-7.24c-6.708-4.088-13.444-10.523-19.245-16.967
						c-9.66-10.732-52.137-98.193-52.137-98.193L1352.265,1700.286z"/>
					<path style="fill:#6292DE;" d="M1196.268,1325.711c0,0-53.402,60.951-67.023,70.605
						c-13.619,9.654-144.333,250.356-144.333,250.356l46.566,33.999c0,0,116.823-145.666,171.688-223.579
						c46.391-65.878,29.302-61.702,56.582-101.802c15.019-22.078,11.613-51.932-8.19-69.84c-2.464-2.229-5.141-4.555-8.05-6.979
						c-40.381-33.656-317.17-71.532-317.17-71.532l-177.039,17.338c0,0,144.646,101.433,150.045,104.132
						c5.399,2.699,199.75,31.043,203.799,31.043C1107.191,1359.453,1196.268,1325.711,1196.268,1325.711z"/>
					<path style="fill:#86B1F2;" d="M731.31,1225.836c0,0-30.367,91.102,15.184,133.617c45.55,42.514,316.158,37.79,405.236,37.79
						c0,0,36.441,99.875,40.489,116.071c4.049,16.195,180.855,225.393,180.855,225.393l48.587-31.042
						c0,0-190.301-369.808-205.148-386.003c-14.846-16.196-226.743-80.98-279.38-95.826
						C884.497,1210.989,731.31,1225.836,731.31,1225.836z"/>
					<path style="fill:#133742;" d="M934.037,690.489c-0.66-66.957-53.182-122.564-119.732-99.659
						c-14.966,5.151-35.921,16.955-47.324,27.934c-30.822,29.682-43.397,69.999-74.937,98.585
						c8.802,8.907,19.625,18.476,32.767,28.064l19.946-19.928l-9.76,27.036c38.764,25.882,95.185,50.737,175.641,61.794
						C927.265,770.25,934.389,726.206,934.037,690.489z"/>
					<path style="fill:#D9D9D9;" d="M933.435,929.719c-33.175-100.639-70.277-96.353-70.277-96.353l28.691,211.582
						c20.487-5.602,47.162-18.069,67.627-23.851C952.691,989.284,941.606,954.503,933.435,929.719z"/>
					<path style="fill:#FFFFFF;" d="M778.255,815.301c0,0-61.125-3.903-85.308,22.514c-24.181,26.418,53.642,235.395,58.04,269.017
						c4.396,33.621-22.415,123.021-22.415,123.021s143.589,28.959,184.628,1.74c0,0,4.398-241.772,0-265.79
						c-4.397-24.016-41.039-121.686-49.832-131.292C854.574,824.905,778.255,815.301,778.255,815.301z"/>
					<path style="fill:#FFFFFF;" d="M796.06,1177.11c-14.771-8.421-50.441-15.535-50.441-15.535
						c-48.329,115.114-32.32,214.743,26.675,228.929c58.996,14.186,115.996,20.194,320.329,12.186
						c54.667-126,113.192-141.259,113.192-141.259C1109.957,1212.022,796.06,1177.11,796.06,1177.11z"/>
					<path style="fill:#AD5A3B;" d="M798.604,733.438c0,0-0.316,1.805-0.884,4.875c-2.725,14.729-13.22,63.59-20.311,77.023
						c-8.567,16.232,29.334,68.006,65.813,61.688c10.858-1.882-9.18-47.57-8.216-52.411c1.843-9.265,4.342-21.904,6.9-34.862
						c1.443-7.311,2.905-14.724,4.277-21.689c3.9-19.799,7.085-35.99,7.085-35.99L798.604,733.438z"/>
					<path style="fill:#8C4326;" d="M797.719,738.312c0.568-3.07,0.884-4.875,0.884-4.875l54.665-1.366
						c0,0-3.184,16.191-7.085,35.99c-1.365,6.927-2.818,14.296-4.254,21.567c-8.438-1.246-17.258-5.357-26.099-13.114
						c-9.639-8.457-15.957-18.62-19.77-29.471C796.734,743.581,797.297,740.596,797.719,738.312z"/>
					<path style="fill:#AD5A3B;" d="M855.574,619.516c0,0-25.081-6.609-44.038,11.823c-18.958,18.432-45.375,80.05-10.655,120.585
						c34.719,40.535,79.612,6.719,91.424-34.265C904.116,676.677,913.646,626.299,855.574,619.516z"/>
					<path style="fill:#AD5A3B;" d="M904.142,718.727c-6.063,8.556-14.753,12.529-19.408,8.874
						c-4.656-3.654-3.513-13.554,2.55-22.11c6.064-8.557,14.755-12.53,19.41-8.876C911.349,700.271,910.206,710.17,904.142,718.727z
						"/>
					<path style="fill:#133742;" d="M859.409,613.073c0,0-42.808,56.061-67.587,55.382c-24.778-0.677-32.622,31.247-32.622,31.247
						s19.412-73.37,45.605-84.302C830.999,604.47,859.409,613.073,859.409,613.073z"/>
					<path style="fill:#14424D;" d="M1164.398,943.289H967.841c-4.973,0-10.284,4.031-11.862,9.003l-82.883,261.207
						c-1.578,4.973,1.174,9.005,6.147,9.005h196.556c4.973,0,10.284-4.032,11.861-9.005l82.885-261.207
						C1172.123,947.32,1169.371,943.289,1164.398,943.289z"/>
					<path style="fill:#AD5A3B;" d="M796.019,684.686c0.431,11.107-4.978,20.461-12.083,20.892
						c-7.104,0.432-13.211-8.223-13.642-19.33c-0.432-11.107,4.978-20.461,12.082-20.892
						C789.479,664.925,795.588,673.579,796.019,684.686z"/>
					<path style="fill:#AD5A3B;" d="M950.488,1134.254c-1.294-1.189-1.064-1.969-1.064-1.969c2.031-2.193,2.302-10.904-0.423-13.031
						c-2.726-2.126-17.438-4.557-18.729-5.516c-1.289-0.959-3.483-2.991-5.607-3.368c-2.122-0.376-16.987-8.126-19.994-8.661
						c-3.008-0.533-13.389,3.463-19.541,4.195c-6.151,0.732-15.9,6.301-18.691,7.629c-2.082,0.992-42.494-5.51-52.932-7.056
						c-11.329-1.683-20.017-3.667-20.017-3.667s-65.776-17.154-134.889-29.892l18.686-56.003l-64.867-14.774
						c-7.997,32.052-25.206,81.273-27.409,96.579c-4.335,30.107,99.065,38.281,190.739,44.025h0.005
						c10.082,0.631,19.594,1.174,28.278,1.641c11.776,1.084,31.336,4.486,40.364,6l0,0c5.613,1.436,13.304,3.475,14.222,4.095
						c1.468,0.99,11.685,4.082,12.569,4.239c0.884,0.157,4.284,2.586,5.751,3.576c1.467,0.991,22.291,3.959,25.651,4.556
						c3.361,0.597,11.055-0.593,11.055-0.593l13.986,1.391c10.273,1.019,7.984-9.76,7.984-9.76c4.846,0.449,7.456-1.141,8.48-3.832
						c1.026-2.692,0.374-5.955,0.601-6.463c0.227-0.508,1.758-0.646,1.758-0.646c3.075,0.41,5.592-2.975,6.126-5.207
						C953.113,1139.51,951.783,1135.441,950.488,1134.254z"/>
					<path style="fill:#FFFFFF;" d="M606.009,1002.131c0,0,31.12-122.989,55.596-154.136
						c24.477-31.149,83.249-39.044,104.241-10.957c20.993,28.089-77.153,184.47-77.153,184.47L606.009,1002.131z"/>
					<path style="fill:#FFFFFF;" d="M1036.843,1027.12c-2.039,7.782,1.46,15.438,7.813,17.104
						c6.352,1.663,13.154-3.297,15.192-11.079c2.038-7.781-1.46-15.438-7.812-17.102
						C1045.683,1014.379,1038.881,1019.338,1036.843,1027.12z"/>
					<path style="fill:#14424D;" d="M1476.558,1788.471c-40.872,10.465-71.085,3.35-87.987-3.451
						c-4.358,12.328-10.136,27.793-7.072,36.713c3.753,10.918,9.095,13.387,13.813,13.511c37.333,0.978,136.752,2.31,165.218,2.681
						c3.977,0.052,6.169-4.584,3.613-7.63C1557.083,1821.879,1479.604,1790.328,1476.558,1788.471z"/>
				</g>
				<path style="fill:#FFFFFF;" d="M850.544,740.707l-30.977-10.998c0,0-3.462,12.018,10.021,17.249
					C846.025,753.335,850.544,740.707,850.544,740.707z"/>
				<path style="fill:#AD5A3B;" d="M1110.936,1165.73c2.452-4.86,4.37-17.369,5.687-21.614c0.662-2.13,1.499-5.021,2.093-7.706
					c0.757-3.424-1.107-6.886-4.365-8.184c-4.495-1.794-10.626-4.316-12.761-4.201c-3.31,0.177-7.877,7.179-7.482,10.019
					c0,0-0.247,0.739-1.917,0.966c-1.671,0.223-4.949,2.693-5.754,4.742s-0.683,6.093,1.961,7.457c0,0,1.127,0.949,1.027,1.473
					c-0.099,0.524-2.403,2.732-3.074,5.414c-0.669,2.68,0.511,5.361,4.57,7.668c0,0-7.714,7.225,0.927,12.058l3.964,2.218
					c4.115,2.301,9.319,0.77,11.524-3.396C1108.671,1170.119,1110.023,1167.541,1110.936,1165.73z"/>
			</g>
		</g>
	</g>
	<g>
		<path style="fill:#9BC1F9;" d="M1425.954,491.425c-140.836,0.186-254.988,70.659-254.963,157.406
			c0.012,43.374,28.566,82.604,74.722,110.967l-62.486,76.185l125.621-47.795c35.092,11.157,74.944,17.433,117.196,17.377
			c140.837-0.185,254.988-70.659,254.963-157.406C1680.982,561.413,1566.791,491.24,1425.954,491.425z"/>
		<polygon style="fill:#0E2E35;" points="2725.738,1839.633 2748.455,1839.633 2700.032,1418.775 2677.315,1418.775 		"/>
		<polygon style="fill:#0E2E35;" points="2469.277,1839.633 2446.561,1839.633 2494.983,1418.775 2517.7,1418.775 		"/>
		<polygon style="fill:#0E2E35;" points="2328.15,1839.633 2350.867,1839.633 2302.443,1418.775 2279.727,1418.775 		"/>
		<polygon style="fill:#0E2E35;" points="2071.689,1839.633 2048.973,1839.633 2097.395,1418.775 2120.111,1418.775 		"/>
		<path style="fill:#E25A44;" d="M2345.338,1464.508h309.863c36.316,0,68.771-29.441,72.49-65.759l51.206-500.167
			c3.718-36.317-22.708-65.758-59.026-65.758H2410.01c-36.318,0-68.773,29.441-72.491,65.758l-51.206,500.167
			C2282.594,1435.066,2309.021,1464.508,2345.338,1464.508z"/>
		<path style="fill:#F47458;" d="M2259.294,1464.508h309.862c36.318,0,68.772-29.441,72.491-65.759l51.206-500.167
			c3.719-36.317-22.709-65.758-59.025-65.758h-309.863c-36.317,0-68.771,29.441-72.49,65.758l-51.207,500.167
			C2196.551,1435.066,2222.977,1464.508,2259.294,1464.508z"/>
		<path style="fill:#E25A44;" d="M2217.773,1487.571h439.201c34.033,0,64.447-27.589,67.932-61.622l0,0
			c3.484-34.034-21.281-61.623-55.314-61.623h-439.201c-34.033,0-64.447,27.589-67.932,61.623l0,0
			C2158.975,1459.982,2183.74,1487.571,2217.773,1487.571z"/>
		<path style="fill:#F47458;" d="M2108.128,1487.571h439.201c34.033,0,64.448-27.589,67.932-61.622l0,0
			c3.485-34.034-21.28-61.623-55.313-61.623h-439.201c-34.034,0-64.447,27.589-67.933,61.623l0,0
			C2049.329,1459.982,2074.095,1487.571,2108.128,1487.571z"/>
		<path style="fill:#F48C7F;" d="M2024.139,981.773c-2.041-5.913,26.693-10.581,28.244-16.548
			c1.549-5.969-36.236-6.565-37.571-11.817c-2.458-9.675,41.423-1.891,40.574-6.414c-0.849-4.523-45.706-14.78-40.826-22.521
			c4.88-7.74,45.403,15.488,46.652,10.229c1.247-5.26-39.63-18.211-38.856-29.748c0.414-6.166,67.056,30.994,74.811,27.667
			c7.758-3.326-8.215-32.372-2.035-36.651c6.181-4.28,23.655,59.001,27.902,61.126c4.233,2.118,94.271,53.921,126.34,62.219
			c3.935-10.737,32.143-67.638,35.615-77.792c17.965,12.879,38.844,15.75,57.391,27.499c-13.584,33.7-60.139,116.622-69.535,120.827
			c-28.611,12.807-138.768-79.207-160.765-94.964c-22.017-15.773-34.665-10.728-49.573-15.738
			C2047.6,974.137,2026.18,987.686,2024.139,981.773z"/>
		<path style="fill:#13375B;" d="M2303.734,713.401c-1.333-32.131,3.399-63.862,17.775-93.777
			c12.369-25.738,42.974-40.343,70.883-40.379c88.624-0.114,99.893,116.979,156.308,162.146
			c17.237,13.801,36.505,25.041,52.816,39.925c60.229,54.958,33.1,156.69-22.205,204.871
			c-38.378,33.434-98.696,52.431-145.997,26.295c-24.691-13.644-43.436-36.323-56.788-61.172
			c-18.952-35.267-31.169-75.957-44.649-113.544C2317.529,797.759,2305.508,756.112,2303.734,713.401z"/>
		<path style="fill:#96D9C9;" d="M2336.879,1009.148c0,0,66.187-67.865,83.219-97.35c17.032-29.485-11.598-10.29-40.843-18.048
			c-11.075-2.938-8.272-67.834-29.207-46.739c-34.347,34.608-77.527,95.125-77.527,95.125L2336.879,1009.148z"/>
		<path style="fill:#50BFA5;" d="M2430.98,817.239c0,0,59.4-11.726,86.506,10.92s-5.808,223.989-5.779,257.366
			c0.027,33.379,18.611,127.682,18.611,127.682s-180.031,31.511-208.628-18.595c0,0-8.136-190.899-6.925-214.905
			c1.212-24.006,27.904-122.184,35.282-132.696C2357.426,836.497,2430.98,817.239,2430.98,817.239z"/>
		<path style="fill:#F7A491;" d="M2431.354,725.358c0,0,0.313,1.776,0.874,4.798c2.693,14.498,13.068,62.591,20.077,75.813
			c8.47,15.978-28.997,66.939-65.056,60.719c-10.734-1.852,9.072-46.824,8.121-51.587c-1.822-9.119-4.293-21.56-6.822-34.315
			c-1.426-7.196-2.871-14.491-4.229-21.348c-3.855-19.486-7.002-35.424-7.002-35.424L2431.354,725.358z"/>
		<path style="fill:#F47458;" d="M2432.229,730.156c-0.562-3.022-0.874-4.798-0.874-4.798l-54.036-1.344
			c0,0,3.146,15.938,7.002,35.424c1.35,6.819,2.786,14.072,4.205,21.229c8.342-1.226,17.06-5.273,25.799-12.909
			c9.529-8.324,15.774-18.327,19.544-29.007C2433.201,735.342,2432.646,732.404,2432.229,730.156z"/>
		<path style="fill:#F7A491;" d="M2394.986,602.78c0,0,25.469-2.936,41.434,17.67c15.965,20.607,33.172,84.333-6.488,118.979
			c-39.658,34.647-78.843-4.571-84.653-46.152C2339.469,651.695,2337.211,601.279,2394.986,602.78z"/>
		<path style="fill:#F7A491;" d="M2333.547,692.662c4.733,9.184,12.679,14.269,17.747,11.358c5.067-2.911,5.339-12.715,0.604-21.899
			c-4.732-9.184-12.68-14.269-17.747-11.358C2329.084,673.674,2328.813,683.479,2333.547,692.662z"/>
		<path style="fill:#13375B;" d="M2392.137,595.968c0,0,34.025,60.6,58.367,63.4c24.342,2.8,27.538,35.001,27.538,35.001
			s-8.702-74.199-32.801-88.508C2421.143,591.553,2392.137,595.968,2392.137,595.968z"/>
		<path style="fill:#F7A491;" d="M2444.121,674.595c-1.98,10.762,2.002,20.631,8.893,22.043c6.892,1.413,14.082-6.166,16.063-16.929
			c1.979-10.761-2.002-20.63-8.894-22.043S2446.101,663.834,2444.121,674.595z"/>
		<g>
			<path style="fill:#F48C7F;" d="M2215.119,1672.668c0,0,54.646,65.522,55.006,71.225c0.361,5.701-2.17,67.926-8.67,73.627
				c-6.499,5.701-25.59,9.744-19.453,16.158c4.639,4.848,40.328,3.811,63.98,2.51c6.904-0.381,15.563-55.469,18.298-63.566
				c3.972-11.759,13.63-38.246,10.02-46.442c-1.76-3.993-10.177-12.202-22.036-19.862c-12.477-8.057-60.191-74.451-60.191-74.451
				L2215.119,1672.668z"/>
			<path style="fill:#50BFA5;" d="M2311.49,1705.93c0,0-36.693,103.316-51.057,108.304c-3.813,1.325-22.114,4.684-25.566,12.778
				c-1.04,2.438,0,10.58,0,10.58h76.483c0,0,9.673-45.521,13.497-65.521c0,0,20.246-48.869,17.996-53.311
				S2311.49,1705.93,2311.49,1705.93z"/>
			<path style="fill:#F7A491;" d="M1887.796,1704.136c0,0-44.626,62.825-40.699,82.702c2.103,10.644,11.462,24.571,6.091,34.588
				c-5.371,10.016-11.51,12.52-11.51,12.52l-139.204,2.238c-7.583,0.121-2.572-4.748,3.542-9.234
				c10.008-7.344,18.083-12.198,50.051-27.631c2.084-1.006,9.675-5.823,12.412-7.492c6.941-4.229,13.912-10.887,19.912-17.555
				c9.996-11.105,53.948-101.604,53.948-101.604L1887.796,1704.136z"/>
			<path style="fill:#50BFA5;" d="M1768.498,1791.814c36.814,9.428,64.028,3.019,79.252-3.107
				c3.926,11.104,9.131,25.035,6.37,33.068c-3.38,9.835-8.191,12.059-12.442,12.17c-33.627,0.881-123.177,2.08-148.817,2.414
				c-3.581,0.047-5.557-4.129-3.254-6.872C1695.965,1821.908,1765.754,1793.488,1768.498,1791.814z"/>
			<path style="fill:#13375B;" d="M2049.211,1316.551c0,0,55.258,63.069,69.351,73.059
				c14.093,9.988,149.347,259.052,149.347,259.052l-48.184,35.18c0,0-120.881-150.725-177.65-231.345
				c-48-68.166-30.319-63.844-58.547-105.338c-15.541-22.844-12.017-53.734,8.475-72.266c2.549-2.305,5.32-4.712,8.33-7.221
				c41.783-34.824,328.187-74.017,328.187-74.017l183.188,17.94c0,0-149.672,104.955-155.258,107.748
				s-206.688,32.121-210.877,32.121S2049.211,1316.551,2049.211,1316.551z"/>
			<path style="fill:#355389;" d="M2530.318,1213.207c0,0,31.422,94.266-15.711,138.258
				c-47.133,43.99-327.139,39.103-419.311,39.103c0,0-37.707,103.344-41.896,120.103c-4.189,16.758-187.137,233.223-187.137,233.223
				l-50.275-32.121c0,0,196.912-382.652,212.274-399.41c15.362-16.759,234.618-83.793,289.083-99.154
				C2371.812,1197.846,2530.318,1213.207,2530.318,1213.207z"/>
		</g>
		<path style="fill:#FFFFFF;" d="M2379.658,716.533l37.364-1.934c0,0-0.126,14.236-16.532,15.561
			C2380.484,731.776,2379.658,716.533,2379.658,716.533z"/>
		<path style="fill:#FFFFFF;" d="M2379.658,716.533l37.364-1.934c0,0-0.126,14.236-16.532,15.561
			C2380.484,731.776,2379.658,716.533,2379.658,716.533z"/>
		<path style="fill:#F7A491;" d="M2168.249,1010.469c-2.042-5.914,26.692-10.582,28.243-16.549
			c1.549-5.968-36.236-6.564-37.57-11.817c-2.459-9.674,41.423-1.891,40.574-6.414c-0.85-4.523-45.706-14.78-40.826-22.52
			c4.879-7.74,45.403,15.488,46.651,10.229c1.247-5.26-39.629-18.211-38.856-29.748c0.414-6.166,67.057,30.994,74.812,27.667
			c7.757-3.326-8.216-32.372-2.036-36.651c6.181-4.28,23.655,59.002,27.902,61.126c4.234,2.118,94.271,53.921,126.34,62.219
			c3.936-10.736,32.143-67.638,35.616-77.791c17.965,12.879,38.843,15.75,57.39,27.499c-13.584,33.7-60.137,116.621-69.535,120.827
			c-28.611,12.807-138.768-79.207-160.764-94.965c-22.018-15.772-34.666-10.728-49.573-15.738S2170.29,1016.381,2168.249,1010.469z"
			/>
		<path style="fill:#96D9C9;" d="M2495.1,1006.773c0,0,38.979-86.412,44.896-119.944c5.92-33.533-22.85-75.629-52.983-72.916
			c-30.134,2.714-75.312,151.905-75.312,151.905L2495.1,1006.773z"/>
		<path style="fill:#F7CC7F;" d="M1838.632,335.191c168.269,0.221,304.655,84.421,304.626,188.065
			c-0.015,51.822-34.131,98.693-89.275,132.581l74.656,91.024l-150.09-57.104c-41.927,13.329-89.542,20.829-140.023,20.762
			c-168.27-0.221-304.654-84.421-304.625-188.065C1533.93,418.811,1670.362,334.97,1838.632,335.191z"/>
	</g>
</g>
</svg>
