<?xml version="1.0" encoding="utf-8"?>
<!-- Generator: Adobe Illustrator 27.5.0, SVG Export Plug-In . SVG Version: 6.00 Build 0)  -->
<svg version="1.1" id="Слой_1" xmlns="http://www.w3.org/2000/svg" xmlns:xlink="http://www.w3.org/1999/xlink" x="0px" y="0px"
	 viewBox="0 0 3200 2000" style="enable-background:new 0 0 3200 2000;" xml:space="preserve">
<rect x="0.007" y="0.009" style="fill:#FFFFFF;" width="3200" height="2000"/>
<g>
	<path style="fill:#EBF3FA;" d="M2812.047,1797.722l-479.203,3.306l-611.14-2.291l-1366.341-5.1
		c0,0-196.006-163.312-191.246-447.891c3.039-181.83,43.548-565.674,468.096-655.401
		c398.183-84.154,292.317-619.477,879.422-566.871c231.657,20.757,334.447,226.768,513.487,171.888
		c756.615-231.923,922.711,250.359,979.658,718.538C3025.792,1186.636,2969.054,1724.122,2812.047,1797.722z"/>
	<g>
		<path style="fill:#C0D8FB;" d="M1662.848,491.636H1510.17c-7.009,0-12.743-5.734-12.743-12.743v-147.36
			c0-7.009,5.734-12.743,12.743-12.743h152.677c7.009,0,12.743,5.734,12.743,12.743v147.36
			C1675.591,485.902,1669.856,491.636,1662.848,491.636z"/>
		<path style="fill:#DFEBFD;" d="M1656.233,484.148h-139.449c-6.402,0-11.639-5.238-11.639-11.639V337.917
			c0-6.401,5.237-11.639,11.639-11.639h139.449c6.401,0,11.639,5.238,11.639,11.639v134.592
			C1667.872,478.911,1662.635,484.148,1656.233,484.148z"/>
		<g>
			<g>
				<path style="fill:#B7D3F3;" d="M1582.818,342.053c0-2.039,1.652-3.691,3.69-3.691s3.69,1.652,3.69,3.691
					c0,2.038-1.652,3.691-3.69,3.691S1582.818,344.091,1582.818,342.053z"/>
				<path style="fill:#B7D3F3;" d="M1612.598,347.27c0.99-1.782,3.237-2.423,5.02-1.434c1.781,0.99,2.423,3.237,1.433,5.019
					c-0.99,1.782-3.237,2.423-5.019,1.434C1612.25,351.298,1611.607,349.051,1612.598,347.27z"/>
				<path style="fill:#B7D3F3;" d="M1638.111,367.539c1.712-1.105,3.997-0.612,5.102,1.101c1.105,1.713,0.612,3.997-1.101,5.102
					c-1.713,1.105-3.997,0.612-5.102-1.101C1635.905,370.928,1636.398,368.644,1638.111,367.539z"/>
				<path style="fill:#B7D3F3;" d="M1650.748,398.911c2.038,0,3.69,1.652,3.69,3.69c0,2.039-1.652,3.691-3.69,3.691
					s-3.69-1.652-3.69-3.691C1647.058,400.564,1648.71,398.911,1650.748,398.911z"/>
				<path style="fill:#B7D3F3;" d="M1644.296,435.319c1.441,1.441,1.441,3.778,0,5.219c-1.441,1.441-3.778,1.441-5.22,0
					c-1.441-1.441-1.441-3.778,0-5.219S1642.854,433.878,1644.296,435.319z"/>
				<circle style="fill:#B7D3F3;" cx="1618.511" cy="461.165" r="3.691"/>
				<path style="fill:#B7D3F3;" d="M1582.818,470.532c0-2.039,1.652-3.69,3.69-3.69s3.69,1.652,3.69,3.69
					c0,2.038-1.652,3.69-3.69,3.69S1582.818,472.57,1582.818,470.532z"/>
			</g>
			<g>
				<path style="fill:#B7D3F3;" d="M1560.302,347.27c-0.99-1.782-3.237-2.423-5.019-1.434c-1.782,0.99-2.423,3.237-1.433,5.019
					c0.99,1.782,3.237,2.423,5.019,1.434C1560.651,351.298,1561.292,349.051,1560.302,347.27z"/>
				<path style="fill:#B7D3F3;" d="M1534.789,367.539c-1.712-1.105-3.997-0.612-5.102,1.101c-1.105,1.713-0.612,3.997,1.101,5.102
					c1.712,1.105,3.997,0.612,5.102-1.101C1536.995,370.928,1536.502,368.644,1534.789,367.539z"/>
				<path style="fill:#B7D3F3;" d="M1522.152,398.911c-2.039,0-3.691,1.652-3.691,3.69c0,2.039,1.652,3.691,3.691,3.691
					c2.038,0,3.69-1.652,3.69-3.691C1525.843,400.564,1524.19,398.911,1522.152,398.911z"/>
				<path style="fill:#B7D3F3;" d="M1528.604,435.319c-1.441,1.441-1.441,3.778,0,5.219c1.441,1.441,3.778,1.441,5.219,0
					c1.441-1.441,1.441-3.778,0-5.219S1530.046,433.878,1528.604,435.319z"/>
				<path style="fill:#B7D3F3;" d="M1551.779,458.555c-1.441,1.441-1.441,3.778,0,5.219c1.441,1.441,3.778,1.441,5.22,0
					c1.441-1.441,1.441-3.778,0-5.219S1553.221,457.114,1551.779,458.555z"/>
			</g>
		</g>
		<g>
			<path style="fill:#B7D3F3;" d="M1585.514,402.602c0-2.038,1.652-3.69,3.691-3.69c2.038,0,3.69,1.652,3.69,3.69
				c0,2.039-1.652,3.691-3.69,3.691C1587.166,406.293,1585.514,404.64,1585.514,402.602z"/>
			<g>
				<rect x="1588.701" y="356.497" style="fill:#B7D3F3;" width="1.007" height="46.105"/>
			</g>
			<g>
				
					<rect x="1585.424" y="391.431" transform="matrix(0.7866 -0.6175 0.6175 0.7866 99.0358 1072.4282)" style="fill:#B7D3F3;" width="31.074" height="3.023"/>
			</g>
		</g>
	</g>
	<g>
		<g>
			<path style="fill:#C8DBF4;" d="M759.91,1107.331c0,0-31.177-36.372-1.922-59.476c0,0,21.369-12.938,38.792-11.887
				c0,0-24.69,41.4-16.702,45.519s24.185-48.115,24.185-48.115s48.628-4.716,64.271,2.806c0,0-41.571,34.019-32.816,36.044
				c8.755,2.024,53.657-31.365,53.657-31.365s45.259,7.702,42.846,35.312c-2.413,27.609-18.008,36.135-24.862,35.4
				c-6.854-0.734-46.949-16.039-47.822-10.424c-0.873,5.616,23.262,23.971,40.162,24.828c0,0-31.908,35.19-53.115,25.034
				c-21.207-10.155-23.017-26.255-36.236-32.292c-13.219-6.038-24.504-6.023-19.046,0.135c5.458,6.158,29.382,12.143,36.942,25.516
				c7.56,13.372,14.343,22.391-7.598,19.089c-21.94-3.301-57.605-19.355-59.17-37.739S759.91,1107.331,759.91,1107.331z"/>
			<g>
				<path style="fill:#C8DBF4;" d="M909.984,1076.912c0,0-122.927-4.736-150.074,30.419c0,0-6.004,17.981-24.479,34.354
					l-2.879,7.848c0,0,21.301-22.46,28.923-23.818C761.476,1125.715,749.556,1082.16,909.984,1076.912z"/>
				<path style="fill:#C8DBF4;" d="M735.432,1141.686c0,0-26.385,19.513-28.218,54.379l4.789,0.429c0,0,8.427-36.052,23.659-50.149
					C750.892,1132.246,735.432,1141.686,735.432,1141.686z"/>
			</g>
		</g>
		<g>
			<path style="fill:#C8DBF4;" d="M650.904,1061.589c0,0,49.595-27.773,26.45-65.465c0,0-18.515-23.144-38.353-29.095
				c0,0,10.58,56.207,0,57.53c-10.58,1.322-7.274-63.482-7.274-63.482s-52.24-25.128-72.739-23.144c0,0,32.402,54.885,21.822,53.562
				c-10.58-1.322-46.95-56.869-46.95-56.869s-53.563-9.919-62.159,21.822c-8.596,31.741,5.29,47.611,13.225,49.595
				c7.935,1.983,58.852,1.322,57.53,7.934c-1.323,6.613-35.708,17.193-54.885,11.241c0,0,21.16,52.24,48.933,49.596
				c27.773-2.646,36.37-19.838,53.563-21.161c17.193-1.322,29.757,3.307,21.161,7.936c-8.597,4.629-37.692,1.517-51.579,13.322
				c-13.887,11.806-25.128,19.079,0.661,24.369c25.789,5.291,72.078,1.984,81.336-17.854S650.904,1061.589,650.904,1061.589z"/>
			<g>
				<path style="fill:#C8DBF4;" d="M496.168,966.367c0,0,138.865,44.966,154.736,95.222c0,0-0.662,22.482,13.225,48.272v9.919
					c0,0-14.548-33.725-22.483-38.354C641.646,1081.427,672.726,1037.783,496.168,966.367z"/>
				<path style="fill:#C8DBF4;" d="M664.129,1109.861c0,0,21.415,32.52,9.206,72.105l-5.51-1.479c0,0,5.348-43.602-5.856-65.531
					C650.766,1093.027,664.129,1109.861,664.129,1109.861z"/>
			</g>
		</g>
		<g>
			<path style="fill:#D4E4F8;" d="M729.805,1023.286c0,0-65.375-36.61-34.867-86.295c0,0,24.407-30.508,50.557-38.354
				c0,0-13.947,74.092,0,75.836c13.947,1.743,9.588-83.68,9.588-83.68s68.861-33.124,95.883-30.508c0,0-42.712,72.348-28.765,70.605
				c13.947-1.744,61.889-74.963,61.889-74.963s70.605-13.075,81.937,28.765c11.332,41.84-6.973,62.76-17.433,65.375
				c-10.46,2.615-77.579,1.743-75.835,10.46c1.744,8.717,47.07,22.663,72.349,14.818c0,0-27.893,68.862-64.503,65.376
				c-36.61-3.487-47.942-26.15-70.605-27.894c-22.664-1.743-39.225,4.358-27.894,10.46c11.332,6.102,49.685,1.999,67.99,17.562
				c18.305,15.562,33.123,25.15-0.872,32.123c-33.995,6.974-95.012,2.615-107.215-23.535
				C729.805,1023.286,729.805,1023.286,729.805,1023.286z"/>
			<g>
				<path style="fill:#D4E4F8;" d="M933.776,897.766c0,0-183.05,59.273-203.971,125.52c0,0,0.872,29.637-17.433,63.632v13.074
					c0,0,19.177-44.454,29.637-50.557C742.009,1049.436,701.04,991.906,933.776,897.766z"/>
				<path style="fill:#D4E4F8;" d="M712.372,1086.918c0,0-28.229,42.867-12.136,95.049l7.262-1.95c0,0-7.049-57.476,7.72-86.382
					C729.988,1064.728,712.372,1086.918,712.372,1086.918z"/>
			</g>
		</g>
		<path style="fill:#D4E4F8;" d="M727.602,1295.126c70.726,0,128.06-57.334,128.06-128.06H599.543
			C599.543,1237.792,656.877,1295.126,727.602,1295.126z"/>
		<path style="fill:#D4E4F8;" d="M857.431,1301.643H597.775l0,0c0-8.726,7.073-15.799,15.799-15.799h228.058
			C850.357,1285.844,857.431,1292.917,857.431,1301.643L857.431,1301.643z"/>
		<rect x="595.332" y="1167.066" style="fill:#9FC1F4;" width="263.242" height="3.928"/>
	</g>
	<g>
		<path style="fill:#9ABFE2;" d="M884.221,1309.459v12.289c0,4.304-1.393,7.816-3.093,7.816H432.656c-1.7,0-3.093-3.513-3.093-7.816
			v-12.289c0-4.295,1.393-7.816,3.093-7.816h448.472C882.828,1301.643,884.221,1305.164,884.221,1309.459z"/>
		<path style="fill:#BAD4F4;" d="M884.221,1309.459v12.289c0,4.304-1.279,7.816-2.839,7.816H525.344
			c-1.56,0-2.838-3.513-2.838-7.816v-12.289c0-4.295,1.278-7.816,2.838-7.816h356.038
			C882.942,1301.643,884.221,1305.164,884.221,1309.459z"/>
		<rect x="452.326" y="1329.568" style="fill:#C8DBF4;" width="318.387" height="464.063"/>
		<rect x="541.55" y="1329.568" style="fill:#DFEBFD;" width="318.388" height="464.063"/>
		<g>
			<g>
				<path style="fill:#B7D3F3;" d="M842.832,1768.011H558.663v-425.333h284.169V1768.011z M561.73,1764.942h278.033v-419.196H561.73
					V1764.942z"/>
			</g>
			<g>
				<rect x="560.196" y="1483.381" style="fill:#B7D3F3;" width="281.102" height="3.068"/>
			</g>
			<g>
				<rect x="560.196" y="1626.826" style="fill:#B7D3F3;" width="281.102" height="3.068"/>
			</g>
			<path style="fill:#B7D3F3;" d="M729.551,1370.107H677.39c-2.532,0-4.602-2.07-4.602-4.603l0,0c0-2.53,2.071-4.603,4.602-4.603
				h52.162c2.532,0,4.603,2.072,4.603,4.603l0,0C734.154,1368.037,732.083,1370.107,729.551,1370.107z"/>
			<path style="fill:#B7D3F3;" d="M729.551,1510.383H677.39c-2.532,0-4.602-2.071-4.602-4.603l0,0c0-2.531,2.071-4.603,4.602-4.603
				h52.162c2.532,0,4.603,2.071,4.603,4.603l0,0C734.154,1508.312,732.083,1510.383,729.551,1510.383z"/>
			<path style="fill:#B7D3F3;" d="M729.551,1656.609H677.39c-2.532,0-4.602-2.071-4.602-4.603l0,0c0-2.531,2.071-4.603,4.602-4.603
				h52.162c2.532,0,4.603,2.071,4.603,4.603l0,0C734.154,1654.538,732.083,1656.609,729.551,1656.609z"/>
		</g>
	</g>
	<g>
		<path style="fill:#C8DBF4;" d="M522.844,1238.004v64.479h-65.011v-64.684c0-0.627,0.027-1.24,0.096-1.854
			c0.682-7.405,5.441-13.624,12.001-16.406c4.678-1.978,7.964-6.259,8.224-11.333l0.477-9.314h23.866l0.15,9.288
			c0.095,5.06,3.3,9.409,7.964,11.373c6.587,2.782,11.374,9.001,12.124,16.393C522.803,1236.626,522.844,1237.309,522.844,1238.004z
			"/>
		<polygon style="fill:#B7D3F3;" points="504.201,1202.982 476.357,1202.982 477.096,1195.709 503.462,1195.709 		"/>
		<path style="fill:#FFFFFF;" d="M522.844,1238.004v41.581h-65.011v-41.786c0-0.627,0.027-1.24,0.096-1.854h64.806
			C522.803,1236.626,522.844,1237.309,522.844,1238.004z"/>
	</g>
	<g>
		<path style="fill:#C8DBF4;" d="M576.251,1266.415v36.067h-36.365v-36.182c0-0.351,0.015-0.694,0.053-1.037
			c0.381-4.143,3.044-7.621,6.713-9.177c2.617-1.106,4.455-3.502,4.6-6.34l0.267-5.21h13.35l0.084,5.195
			c0.053,2.83,1.846,5.264,4.455,6.361c3.685,1.557,6.362,5.035,6.782,9.17C576.228,1265.645,576.251,1266.026,576.251,1266.415z"/>
		<polygon style="fill:#B7D3F3;" points="565.823,1246.826 550.248,1246.826 550.661,1242.757 565.41,1242.757 		"/>
		<path style="fill:#FFFFFF;" d="M576.251,1266.415v23.26h-36.365v-23.374c0-0.351,0.015-0.694,0.053-1.037h36.25
			C576.228,1265.645,576.251,1266.026,576.251,1266.415z"/>
	</g>
	<g>
		<rect x="1887.367" y="436.246" style="fill:#D3E3F7;" width="744.795" height="1361.476"/>
		<rect x="1920.063" y="460.161" style="fill:#E5EFFB;" width="680.313" height="1337.561"/>
		<path style="fill:#D3E3F7;" d="M2484.98,1119.797c0-16.61,13.465-30.074,30.074-30.074s30.074,13.464,30.074,30.074
			c0,16.609-13.465,30.073-30.074,30.073S2484.98,1136.406,2484.98,1119.797z"/>
		<g>
			<rect x="2120.799" y="662.86" style="fill:#F5F9FD;" width="280.827" height="88.652"/>
			<rect x="2172.916" y="690.345" style="fill:#D3E3F7;" width="176.593" height="9.12"/>
			<rect x="2197.633" y="714.907" style="fill:#D3E3F7;" width="127.159" height="9.12"/>
		</g>
	</g>
	<g>
		<path style="fill:#BAD4F4;" d="M2404.995,754.882h-287.566V659.49h287.566V754.882z M2124.168,748.142h274.088V666.23h-274.088
			V748.142z"/>
	</g>
	<g>
		<path style="fill:#163560;" d="M1938.378,568.822c-23.312-12.094-41.992-4.493-41.992-4.493
			c-71.33-8.377-92.14,74.81-91.171,103.434c0.954,28.62,4.232,59.366-27.623,96.551
			c-92.015,107.412,100.695,112.149,100.695,112.149c1.63-85.818,104.504-54.505,99.994-45.81
			C2110.156,862.302,1991.395,596.327,1938.378,568.822z"/>
		<path style="fill:#FFB27D;" d="M1663.225,926.596c0,0-12.544-19.096-22.653-19.471c-10.11-0.375-28.832-5.617-27.334-1.872
			c1.498,3.744,13.105,4.119,14.229,6.365c1.123,2.246-17.224,5.617-22.466,5.991c-5.243,0.374-17.599,0-17.225,2.621
			c0.375,2.621,22.271,13.48,37.721,11.982c15.449-1.498,34.546,4.493,34.546,4.493L1663.225,926.596z"/>
		<path style="fill:#F9DDBF;" d="M1844.639,932.774c0,0-6.818,13.502-19.187,29.015c-14.905,18.67-37.889,40.237-66.746,44.494
			c-13.783,2.033-27.263-0.932-39.653-6.436c-0.033-0.011-0.045-0.011-0.045-0.011c-35.047-15.558-61.4-51.335-61.4-51.335
			c-6.178-16.85,3.932-28.273,3.932-28.273s70.77,15.917,77.509,12.547c6.739-3.37,46.056-116.633,55.413-130.866
			c9.368-14.232,41.271-21.623,41.271-21.623L1844.639,932.774z"/>
		<path style="fill:#F2CCAA;" d="M1825.452,961.789c-14.905,18.67-37.889,40.237-66.746,44.494
			c-13.783,2.033-27.263-0.932-39.653-6.436c1.37,0.18,36.373,4.504,50.324-20.456c14.232-25.465,29.622-65.904,50.763-52.425
			C1829.261,932.786,1828.856,947.243,1825.452,961.789z"/>
		<path style="fill:#233862;" d="M2108.664,1696.683c0,0,21.594,19.707,17.38,33.71c-4.213,14.002-23.701,23.337-26.334,40.45
			c-2.634,17.114-13.167,26.449-22.647,26.449s-45.198,0-45.198,0s-6.979-12.043,9.876-15.673
			c16.854-3.631,23.208-23.741,22.155-42.411c-1.054-18.67,1.579-43.563,1.579-43.563l35.815-8.298L2108.664,1696.683z"/>
		<path style="fill:#233862;" d="M1925.892,1705.049c0,0,7.769,83.485-1.712,88.152l-121.327-0.248c0,0,0-14.003,19.487-17.114
			s53.723-14.521,59.516-39.933C1887.649,1710.495,1925.892,1705.049,1925.892,1705.049z"/>
		<path style="fill:#FFB27D;" d="M2012.351,1106.109c-24.967-55.992-40.244-72.063-37.327-89.441
			c2.17-12.935-6.609-241.163-6.609-241.163c-2.963-0.917-8.9-1.74-12.148-2.461c-10.24-2.274-18.717-9.467-22.244-19.347
			c-4.25-11.9-7.628-29.473-7.55-51.494l-3.198,0.63l-53.774,10.648c0,0,1.224,16.924,1.259,32.866
			c0.001,0.133,0.001,0.265,0.002,0.397c0.065,13.846-9.018,26.067-22.321,29.907c-6.792,1.96-12.702,3.637-12.702,3.637
			s-19.746,56.375-23.518,114.289c-3.771,57.915,35.907,83.074-0.299,198.807
			C1774.955,1211.586,2026.144,1137.048,2012.351,1106.109z"/>
		<path style="fill:#E8945B;" d="M1869.498,713.481c0,0,1.224,16.924,1.26,32.866c30.093-0.848,45.998-28.299,52.516-43.515
			L1869.498,713.481z"/>
		<path style="fill:#FFB27D;" d="M1859.449,728.578c0,0,71.197,1.174,71.246-43.174c0.049-44.349,9.271-74.066-36.185-76.691
			s-54.306,14.288-57.923,29.087C1832.971,652.598,1840.931,727.129,1859.449,728.578z"/>
		<path style="fill:#163560;" d="M1862.084,607.626c0,0,19.494,52.03,49.41,59.723c29.916,7.693,42.893-0.323,42.893-0.323
			s-22.947-18.229-27.709-50.05C1926.678,616.976,1876.789,582.862,1862.084,607.626z"/>
		<path style="fill:#163560;" d="M1866.916,611.85c0,0-14.456,5.404-20.405,15.946c-5.817,10.31-10.774,23.964-9.624,40.715
			c0,0-14.687-35.365,1.818-55.37C1856.206,591.927,1866.916,611.85,1866.916,611.85z"/>
		<path style="fill:#FFFFFF;" d="M1874.939,701.065c0,0-4.912,6.464-14.741,5.998c-7.917-0.375-10.97-7.243-10.97-7.243
			S1863.771,696.324,1874.939,701.065z"/>
		<path style="fill:#F9DDBF;" d="M2002.654,876.463c0,0-0.27,33.767-2.078,64.354c-1.201,20.275-3.066,39.158-5.976,45.875
			c-7.302,16.85-15.535,19.59-15.535,19.59l-63.703,15.614l-22.398,5.481l-70.634-21.096c0,0-32.172-89.797-19.254-140.346
			s32.655-85.652,32.655-85.652s57.637,56.435,132.685-4.785L2002.654,876.463z"/>
		<path style="fill:#F2CCAA;" d="M2000.576,940.817c-1.201,20.275-3.066,39.158-5.976,45.875
			c-7.302,16.85-15.535,19.59-15.535,19.59l-63.703,15.614l-27.667-8.133c0,0,92.358-13.996,82.125-93.459L2000.576,940.817z"/>
		<path style="fill:#ED7D2B;" d="M1826.822,1019.914c0,0-34.979,108.878-37.226,145.947
			c-2.247,37.068,66.864,526.601,69.646,543.681c2.621,16.101,22.613,26.364,22.613,26.364s9.195,5.424,22.318,1.719
			c18.209-5.142,23.964-11.297,23.964-11.297s27.227-349.131,10.378-473.848c-16.85-124.716-17.047-232.566-17.047-232.566H1826.822
			z"/>
		<path style="fill:#F99746;" d="M1975.023,1016.668c0,0,53.357,71.591,58.331,119.986c4.975,48.396,7.804,218.39,18.401,265.568
			c10.598,47.18,49.534,137.972,49.534,285.125c0,0-4.047,8.434-16.544,12.928c-3.996,1.437-9.351,2.83-14.549,4.021
			c-10.306,2.363-20.88-2.674-25.583-12.144c-26.323-53.001-110.176-223.942-114.475-259.426
			c-3.042-25.111-29.519-191.308-87.27-288.828c-13.865-23.413,8.509-116.521,8.509-116.521L1975.023,1016.668z"/>
		<path style="fill:#233862;" d="M1821.234,1003.106c0,0,14.044,11.108,41.939,11.669c33.32,0.671,115.888-8.494,115.888-8.494
			s3.669,10.249,3.52,21.073c0,0-100.843,25.437-159.27,3.714C1823.312,1031.068,1815.775,1016.89,1821.234,1003.106z"/>
		<g>
			<path style="fill:#FFFFFF;" d="M1855.18,1043.49c-8.384,0-15.205-7.719-15.205-17.208c0-9.489,6.821-17.209,15.205-17.209
				c8.385,0,15.204,7.72,15.204,17.209C1870.384,1035.771,1863.564,1043.49,1855.18,1043.49z M1855.18,1014.112
				c-5.605,0-10.166,5.46-10.166,12.17c0,6.71,4.561,12.169,10.166,12.169c5.604,0,10.165-5.459,10.165-12.169
				C1865.345,1019.572,1860.784,1014.112,1855.18,1014.112z"/>
		</g>
		
			<rect x="1937.859" y="1115.874" transform="matrix(0.9775 -0.2108 0.2108 0.9775 -199.4248 451.6382)" style="fill:#163560;" width="162.338" height="90.987"/>
		<path style="fill:#17467F;" d="M1930.094,1134.004c0,0,44.363,37.165,93.67,24.236c49.306-12.93,65.021-58.452,65.021-58.452
			L1930.094,1134.004z"/>
		<g>
			<path style="fill:#17467F;" d="M1952.292,1136.996c-4.86,0-8.815-3.955-8.815-8.815c0-4.859,3.955-8.814,8.815-8.814
				c4.859,0,8.814,3.955,8.814,8.814C1961.106,1133.041,1957.151,1136.996,1952.292,1136.996z M1952.292,1122.295
				c-3.246,0-5.887,2.641-5.887,5.886c0,3.246,2.641,5.887,5.887,5.887c3.245,0,5.886-2.641,5.886-5.887
				C1958.178,1124.936,1955.537,1122.295,1952.292,1122.295z"/>
		</g>
		<path style="fill:#FFB27D;" d="M2081.47,1139.346c0,0,0.064,12.891,2.51,19.108c2.444,6.218,9.779,14.508,12.225,14.508
			s-2.241-12.954-1.019-12.694c1.223,0.259,7.121,21.559,11.399,22.077c4.279,0.518,8.161-23.891,5.92-33.477
			s-11.92-21.083-11.92-21.083L2081.47,1139.346z"/>
		<path style="fill:#F9DDBF;" d="M1968.414,775.505c0,0,39.385,5.341,60.584,47.107c16.382,32.275,27.621,133.799,39.179,165.766
			c11.062,30.591,26.327,89.729,34.84,137.113c0.66,3.675-1.366,7.3-4.837,8.676l-14.484,5.743
			c-3.125,1.239-6.684,0.033-8.403-2.855c-12.87-21.609-63.614-108.147-81.236-158.215c-20.6-58.531-59.14-94.884-59.14-94.884
			L1968.414,775.505z"/>
		<g>
			<path style="fill:#0C2442;" d="M1949.392,1121.352c-0.092-1.452-9.253-146.224-7.502-227.623
				c0.92-42.741,7.521-72.85,12.899-90.582c5.866-19.351,14.629-27.269,14.864-27.647l2.987,0.886
				c-0.221,0.357-24.525,36.921-26.258,117.439c-1.748,81.208,7.4,225.791,7.493,227.242L1949.392,1121.352z"/>
		</g>
	</g>
	<g>
		<path style="fill:#233862;" d="M1193.548,1792.771h74.826c-0.559-3.924-2.466-15.861-5.968-26.858
			c-1.213-3.829-2.63-7.55-4.238-10.779c-7.277-14.526-53.5-5.287-53.5-5.287s-4.292,3.679-7.645,17.729
			C1195.538,1773.762,1194.229,1781.979,1193.548,1792.771z"/>
		<path style="fill:#91CECF;" d="M1330.911,649.828c0,0,59.625,10.469,73.105,45.663c13.479,35.193,89.635,603.675,89.635,603.675
			s-37.711,29.88-118.66,19.152S1330.911,649.828,1330.911,649.828z"/>
		<path style="fill:#233862;" d="M1419.662,1769.156c0.205,10.18,1.486,19.813,5.178,23.615h148.004
			c-1.881-5.355-7.209-13.409-22.403-15.875c-17.265-2.794-44.179-11.106-59.891-27.718c-5.601-5.9-9.771-12.864-11.597-20.999
			c-6.963-31.002-57.574,9.498-57.574,9.498S1419.335,1754.003,1419.662,1769.156z"/>
		<path style="fill:#AF4138;" d="M1483.399,1754.083c-16.542,5.274-48.152,21.383-68.234,13.805
			c-12.976-4.891-85.519-214.731-90.224-306.516c-0.346-6.674-1.659-15.984-3.714-27.339c-4.297-23.686-11.813-56.236-20.467-92.155
			c-23.215-96.241-54.615-216.639-53.934-255.12c1.052-59.729,177.996-12.518,177.996-12.518s12.171,48.993,14.598,119.927
			c4.804,140.803,18.015,378.639,53.946,543.808C1494.889,1744.982,1490.258,1751.903,1483.399,1754.083z"/>
		<path style="fill:#C65447;" d="M1360.589,1086.965l-93.54,677.949c0,0-41.078,9.906-73.027,1.981
			c0,0-27.385-360.564-25.104-447.733c2.282-87.17-19.654-233.25,5.007-249.36
			C1198.586,1053.691,1360.589,1086.965,1360.589,1086.965z"/>
		<path style="fill:#FFFFFF;" d="M1162.102,680.883c0,0,98.301-63.563,168.809-31.056c11.235,5.18,24.052,19.635,33.228,29.745
			c25.485,28.082,75.285,474.194,75.285,474.194s-141.367,47.879-277.322-16.249V680.883z"/>
		<path style="fill:#ABDDDA;" d="M1336.504,648.215c0,0,99.516,40.784,112.995,72.121c13.479,31.337,57.286,223.773,57.286,246.339
			c0,22.565-76.277,5.045-88.556-31.351c-10.196-30.222-44.589-123.065-62.725-181.789L1336.504,648.215z"/>
		<g>
			<path style="fill:#FFB27D;" d="M1315.836,679.292c-21.725,4.261-53.638-0.281-77.003-15.682
				c10.548-25.196,14.873-45.089,16.412-57.963c0.09-0.685,0.157-1.348,0.225-1.988c0.696-6.672,0.596-11.2,0.27-13.278h56.166
				c0,0,15.355,7.021,15.355,11.874c0,2.595,0.022,5.078,0.067,7.448c0.113,6.459,0.371,12.098,0.708,16.939
				c1.067,15.76,2.875,23.185,2.875,23.185S1337.774,674.989,1315.836,679.292z"/>
			<path style="fill:#E2915A;" d="M1328.036,626.643c-42.551,8.223-67.252-15.03-72.791-20.995
				c-0.786-0.854-1.191-1.359-1.191-1.359c0.45-0.225,0.921-0.427,1.416-0.629c15.839-6.415,51.785-1.315,71.858,6.043
				C1327.44,616.162,1327.699,621.801,1328.036,626.643z"/>
			<path style="fill:#FFB27D;" d="M1241.346,581.15c7.604,40.923,60.409,39.58,83.228,37.007c6.422-0.715,10.462-1.534,10.462-1.534
				c7.242-1.934,11.281-13.339,13.159-28.279c3.725-29.566-0.981-72.966-5.974-84.067c-7.518-16.703-21.677-34.768-74.853-21.733
				C1214.182,495.587,1231.589,528.717,1241.346,581.15z"/>
			<path style="fill:#233862;" d="M1344.2,481.449c-7.268-10.063-22.679-22.357-36.675-29.929
				c-30.068-16.267-68.552,0.512-68.713,0.583c-43.435,19.097-54.777,52.328-31.75,104.094
				c24.351,54.739,47.537,48.579,47.537,48.579s-4.921-3.062-4.476-20.122c0.025-0.97,0.064-1.78,0.108-2.477
				c0.224-3.496-1.009-7.002-3.622-9.334c-5.396-4.815-8.025-19.378-3.507-23.433c5.45-4.891,13.109,1.05,15.555,5.62
				c2.137,3.227,5.966,4.357,9.532,2.103c13.519-8.546,4.737-25.639,17.655-36.096c12.918-10.457,39.131-1.677,58.509-10.011
				C1369.72,501.573,1349.677,489.031,1344.2,481.449z"/>
		</g>
		<path style="fill:#ABDDDA;" d="M1350.251,1340.932c-8.56,2.202-17.029,4.011-25.455,5.403c-7.447,1.27-14.861,2.213-22.286,2.842
			c-42.067,3.662-84.327-2.258-133.719-16.423c-11.121-3.189-22.612-6.807-34.542-10.817c-1.27-0.427,3.247-131.034,8.458-265.752
			c0.528-13.906,1.078-27.869,1.617-41.731c0.236-5.875,0.461-11.716,0.697-17.546c4.729-119.149,9.413-226.751,10.402-232.547
			c2.258-13.109,4.37-24.286,6.672-33.969c6.729-28.229,15.086-43.708,33.306-57.019c1.775-1.348,16.344-8.694,29.195-15.086
			c10.649-5.291,20.107-9.908,20.107-9.908c0.012,0,0.012,0,0.012,0c4.234,2.078,9.323,11.784,14.647,25.409
			c9.784,25.117,20.343,63.58,27.69,92.302c0.022,0.079,0.034,0.124,0.034,0.146c0,0.011,0,0.011,0,0.011
			c4.729,18.546,8.121,32.992,9.087,37.137c1.64,6.998,3.808,20.545,6.358,38.911c3.46,24.994,7.594,58.918,11.963,97.414
			c0.449,3.954,0.898,7.964,1.348,12.008c0.517,4.617,1.045,9.289,1.562,14.008c0.168,1.516,0.337,3.033,0.494,4.549
			c1.685,15.243,3.381,30.981,5.066,46.976c1.404,13.222,21.456,22.78,22.837,36.227c0.797,7.896,2.464,80.752,4.609,104.004
			C1351.952,1174.084,1350.858,1333.125,1350.251,1340.932z"/>
		<path style="fill:#91CECF;" d="M1205.17,812.393c-0.063,0.272-3.408,120.486,87.018,135.089
			c90.427,14.603,30.345,18.463,30.345,18.463s-170.138-7.231-172.946-11.724C1146.778,949.729,1205.17,812.393,1205.17,812.393z"/>
		<path style="fill:#91CECF;" d="M1281.572,999.086c0,0-1.696,1.202-4.954,3.303c-0.056,0.023-0.112,0.067-0.168,0.101
			c-13.794,8.807-54.739,32.812-114.353,48.909c-6.257,1.696-12.727,3.302-19.388,4.785c0.528-13.906,1.078-27.869,1.617-41.731
			c-7.874-0.617-15.412-1.617-22.41-3.1c0.236-1.831,0.483-3.662,0.719-5.493c7.583-3.111,15.12-6.111,22.388-8.953
			c5.92-2.314,11.649-4.516,17.074-6.56c24.488-9.301,42.641-15.603,42.641-15.603l72.487,22.96L1281.572,999.086z"/>
		<path style="fill:#ABDDDA;" d="M1300.758,997.076c0,0-9.312,2.325-24.14,5.314c-0.056,0-0.101,0.011-0.158,0.033
			c-27.341,5.493-73.307,13.199-114.364,12.783c-6.055-0.067-12.008-0.304-17.771-0.753c-7.874-0.617-15.412-1.617-22.41-3.1
			c-15.007-3.168-27.577-8.526-35.8-16.906c-61.074-62.209,33.329-285.478,53.177-307.202c23.174-25.365,65.467-34.261,88.82-37.316
			c0.977-0.124,1.909-0.247,2.819-0.359c8.211-0.977,13.479-1.18,13.771-1.191c0.012,0,0.012,0,0.012,0s-1.831,5.886-4.898,15.873
			c-1.191,3.864-2.572,8.346-4.088,13.345c-14.345,46.977-42.023,139.301-54.223,191.367c-4.471,19.051-6.863,32.711-5.773,36.789
			c4.763,17.782,54.109,26.926,85.371,30.97c13.042,1.685,22.938,2.482,25.151,2.651c0.157,0,0.303,0.011,0.46,0.034l1.809,7.414
			l4.325,17.782l4.257,17.467L1300.758,997.076z"/>
		<polygon style="fill:#233862;" points="1471.099,1104.098 1261.346,1095.261 1303.901,833.858 1513.654,842.695 		"/>
		<path style="fill:#FFB27D;" d="M1286.718,939.408c0,0,40.831-2.848,42.879,6.67c4.774,22.186-35.103,40.402-48.021,39.157
			C1268.657,983.989,1277.32,937.926,1286.718,939.408z"/>
		<path style="fill:#FFB27D;" d="M1502.187,895.777c0,0-39.064-12.215-43.259-3.43c-9.776,20.479,24.806,47.427,37.661,49.203
			C1509.445,943.328,1511.672,896.509,1502.187,895.777z"/>
		<path style="fill:#91CECF;" d="M1248.953,635.252c0,0-17.177,8.187-25.789,20.544c0,0,64.208,111.481,63.922,110.437
			C1286.799,765.188,1265.381,649.531,1248.953,635.252z"/>
		<path style="fill:#91CECF;" d="M1328.925,636.824c5.656,2.134,16.502,13.245,18.946,19.388l7.634,97.324
			c0,0-16.298-71.424-24.594-103.708C1328.802,641.621,1329.19,639.127,1328.925,636.824z"/>
		<path style="fill:#C65447;" d="M1373.433,836.787c0,0,1.658-7.253,11.206-6.41c9.548,0.842,63.186,3.481,63.186,3.481
			s10.345-0.17,9.385,6.458L1373.433,836.787z"/>
		<path style="fill:#FFFFFF;" d="M1311.905,590.382c0,0,6.962,6.347,18.196,4.381c6.662-1.166,10.391-9.829,10.391-9.829
			S1327.689,582.631,1311.905,590.382z"/>
	</g>
	<path style="fill:#2E3552;" d="M2982.749,1801.813H199.633c-1.922,0-3.494-1.572-3.494-3.494v-2.053
		c0-1.922,1.572-3.494,3.494-3.494h2783.116c1.922,0,3.494,1.572,3.494,3.494v2.053
		C2986.243,1800.24,2984.671,1801.813,2982.749,1801.813z"/>
</g>
</svg>
