<?xml version="1.0" encoding="utf-8"?>
<!-- Generator: Adobe Illustrator 27.5.0, SVG Export Plug-In . SVG Version: 6.00 Build 0)  -->
<svg version="1.1" xmlns="http://www.w3.org/2000/svg" xmlns:xlink="http://www.w3.org/1999/xlink" x="0px" y="0px"
	 viewBox="0 0 3710 3710" style="enable-background:new 0 0 3710 3710;" xml:space="preserve">
<g id="Background">
	<g>
		<g>
			<rect style="fill:#FFFFFF;" width="3710" height="3710"/>
		</g>
	</g>
</g>
<g id="Illustration">
	<g>
		<linearGradient id="SVGID_1_" gradientUnits="userSpaceOnUse" x1="3425.5332" y1="3622.478" x2="1364.5134" y2="1397.885">
			<stop  offset="0" style="stop-color:#DAE3FE"/>
			<stop  offset="1" style="stop-color:#E9EFFD"/>
		</linearGradient>
		<path style="fill:url(#SVGID_1_);" d="M3142.827,2353.127c-284.221,659.874-1034.473,943.306-1622.307,894.98
			c-160.503-13.195-483.437-39.743-735.588-276.593c-484.237-454.855-409.66-1405.627,53.894-1965.39
			c59.696-72.086,472.904-555.053,1116.812-548.589c471.434,4.733,802.329,269.252,842.564,302.207
			c50.828,41.63,162.935,140.555,263.97,297.495C3299.569,1425.99,3320.437,1940.771,3142.827,2353.127z"/>
		<g>
			<g>
				<g style="opacity:0.3;">
					<path style="fill:#BDD0FB;" d="M2612.811,896.676c-2.51-4.378-1.359-10.036,2.824-13.052c9.145-6.6,18.715-12.9,28.439-18.726
						c4.731-2.834,10.864-1.298,13.698,3.432c0.033,0.057,0.065,0.113,0.097,0.169c2.699,4.706,1.144,10.728-3.531,13.528
						c-9.24,5.534-18.328,11.52-27.016,17.788c-4.47,3.227-10.713,2.219-13.94-2.254
						C2613.172,897.274,2612.984,896.977,2612.811,896.676z M2688.584,853.964c-0.194-0.339-0.371-0.693-0.528-1.062
						c-2.162-5.072,0.197-10.939,5.269-13.101c10.42-4.44,21.133-8.479,31.839-12.003c5.238-1.724,10.86,1.11,12.608,6.361
						c1.723,5.239-1.128,10.882-6.363,12.604c-10.177,3.35-20.354,7.188-30.256,11.41
						C2696.45,860.179,2691.067,858.293,2688.584,853.964z M2771.877,829c-0.553-0.964-0.953-2.039-1.162-3.195
						c-0.976-5.427,2.627-10.62,8.054-11.599c11.122-2.008,22.472-3.556,33.733-4.601c5.492-0.506,10.35,3.535,10.865,9.02
						c0.509,5.49-3.53,10.355-9.02,10.864c-10.694,0.991-21.468,2.461-32.033,4.367C2778.045,834.627,2773.918,832.559,2771.877,829
						z M2858.679,823.285c-0.914-1.594-1.398-3.458-1.306-5.429c0.259-5.507,4.935-9.763,10.442-9.504
						c11.299,0.534,22.709,1.562,33.916,3.055c5.46,0.733,9.3,5.751,8.577,11.217c-0.728,5.464-5.751,9.304-11.217,8.577
						c-10.642-1.419-21.48-2.397-32.217-2.9C2863.338,828.133,2860.319,826.146,2858.679,823.285z M2944.574,837.071
						c-1.282-2.235-1.703-4.961-0.958-7.638c1.475-5.315,6.979-8.426,12.29-6.949c10.871,3.018,21.768,6.545,32.381,10.485
						c5.171,1.914,7.81,7.66,5.889,12.833c-1.919,5.169-7.663,7.805-12.835,5.888c-10.088-3.746-20.445-7.098-30.776-9.967
						C2947.928,840.992,2945.835,839.27,2944.574,837.071z M3025.274,869.512c-1.66-2.895-1.834-6.553-0.136-9.707
						c2.615-4.856,8.668-6.672,13.524-4.06c9.95,5.356,19.798,11.207,29.26,17.391c4.618,3.019,5.912,9.204,2.895,13.821
						c-3.014,4.614-9.203,5.911-13.819,2.896c-8.993-5.876-18.345-11.435-27.801-16.524
						C3027.495,872.412,3026.17,871.073,3025.274,869.512z M3227.9,1175.064c-0.688-1.199-1.135-2.559-1.273-4.024
						c-1.008-10.68-2.497-21.459-4.426-32.037c-0.989-5.424,2.607-10.624,8.029-11.611c5.425-0.991,10.625,2.604,11.614,8.03
						c2.032,11.14,3.601,22.493,4.665,33.739c0.519,5.491-3.513,10.361-9.002,10.879
						C3233.481,1180.421,3229.788,1178.356,3227.9,1175.064z M3096.732,918.999c-2.06-3.593-1.733-8.243,1.144-11.536
						c3.629-4.154,9.936-4.578,14.088-0.951c8.512,7.435,16.804,15.332,24.645,23.47c3.806,3.988,3.712,10.291-0.261,14.119
						c-3.97,3.826-10.292,3.708-14.119-0.263c-7.445-7.73-15.319-15.228-23.401-22.289
						C3097.971,920.797,3097.269,919.934,3096.732,918.999z M3210.011,1089.948c-0.328-0.572-0.607-1.183-0.822-1.833
						c-3.375-10.189-7.238-20.367-11.473-30.253c-2.17-5.07,0.178-10.939,5.245-13.11c5.069-2.169,10.959,0.162,13.11,5.246
						c4.455,10.402,8.519,21.112,12.073,31.833c1.734,5.235-1.104,10.886-6.336,12.619
						C3217.227,1095.968,3212.324,1093.98,3210.011,1089.948z M3155.345,983.207c-2.507-4.371-1.363-10.02,2.808-13.041
						c4.466-3.235,10.707-2.238,13.946,2.226c6.623,9.143,12.942,18.695,18.773,28.393c0.038,0.059,0.074,0.121,0.109,0.182
						c2.695,4.699,1.148,10.712-3.515,13.518c-4.727,2.843-10.861,1.319-13.702-3.408c-5.542-9.21-11.545-18.282-17.839-26.969
						C3155.716,983.815,3155.521,983.513,3155.345,983.207z"/>
					<path style="fill:#BDD0FB;" d="M3228.151,1245.172c-0.978-1.705-1.466-3.716-1.281-5.825
						c0.449-5.129,0.794-10.351,1.037-15.526c0.254-5.507,4.928-9.767,10.434-9.511c5.509,0.253,9.775,4.926,9.51,10.437
						c-0.251,5.442-0.617,10.935-1.087,16.332c-0.479,5.492-5.322,9.56-10.812,9.08
						C3232.564,1249.866,3229.722,1247.913,3228.151,1245.172z"/>
				</g>
				<g style="opacity:0.3;">
					<path style="fill:#BDD0FB;" d="M3085.391,1514.018c-2.397-4.18-1.476-9.598,2.392-12.724
						c4.004-3.234,8.008-6.607,11.898-10.024c4.144-3.64,10.452-3.231,14.091,0.911c3.654,4.161,3.23,10.453-0.911,14.091
						c-4.096,3.597-8.313,7.15-12.528,10.556c-4.29,3.465-10.576,2.797-14.042-1.492
						C3085.951,1514.915,3085.652,1514.473,3085.391,1514.018z"/>
					<path style="fill:#BDD0FB;" d="M2503.65,1405.514c-2.285-3.985-4.512-8.025-6.678-12.116
						c-2.579-4.874-0.721-10.916,4.151-13.497c4.873-2.581,10.946-0.709,13.498,4.149c5.002,9.443,10.374,18.663,16.037,27.503
						c2.969,4.652,1.622,10.818-3.02,13.792c-4.646,2.976-10.822,1.622-13.795-3.021
						C2510.339,1416.856,2506.91,1411.199,2503.65,1405.514z M2475.543,1345.236c-0.277-0.484-0.519-0.999-0.718-1.542
						c-3.835-10.459-7.269-21.197-10.205-31.915c-1.458-5.317,1.673-10.81,6.988-12.267c5.319-1.457,10.829,1.676,12.268,6.992
						c2.79,10.179,6.054,20.379,9.695,30.32c1.898,5.176-0.761,10.911-5.935,12.809
						C2483,1351.332,2477.919,1349.379,2475.543,1345.236z M2545.183,1464.494c-2.342-4.083-1.527-9.381,2.182-12.549
						c4.196-3.582,10.497-3.084,14.079,1.109c6.848,8.023,14.135,15.859,21.663,23.295c3.917,3.882,3.96,10.198,0.085,14.12
						c-3.878,3.923-10.2,3.961-14.122,0.085c-7.925-7.83-15.599-16.086-22.813-24.533
						C2545.844,1465.537,2545.488,1465.025,2545.183,1464.494z M2455.106,1262.096c-0.631-1.099-1.057-2.338-1.233-3.672
						c-1.442-11.036-2.429-22.267-2.934-33.379c-0.25-5.508,4.011-10.175,9.519-10.425c5.511-0.251,10.179,4.007,10.427,9.52
						c0.48,10.551,1.417,21.215,2.787,31.696c0.717,5.467-3.139,10.479-8.606,11.193
						C2460.934,1267.571,2457.058,1265.501,2455.106,1262.096z M2607.595,1522.994c-1.921-3.349-1.795-7.661,0.666-10.952
						c3.302-4.416,9.56-5.319,13.977-2.016c8.441,6.316,17.274,12.357,26.251,17.961c4.677,2.919,6.105,9.078,3.182,13.758
						c-2.92,4.676-9.076,6.1-13.754,3.18c-9.452-5.898-18.751-12.259-27.64-18.909
						C2609.152,1525.176,2608.252,1524.141,2607.595,1522.994z M2681.334,1566.385c-1.535-2.678-1.812-6.028-0.453-9.06
						c2.258-5.031,8.167-7.28,13.198-5.021c9.649,4.328,19.593,8.301,29.552,11.808c5.204,1.824,7.937,7.522,6.105,12.731
						c-1.832,5.202-7.531,7.933-12.734,6.104c-10.483-3.69-20.946-7.871-31.098-12.427
						C2683.906,1569.624,2682.347,1568.151,2681.334,1566.385z M2762.778,1592.667c-1.168-2.037-1.626-4.489-1.116-6.971
						c1.107-5.401,6.385-8.881,11.786-7.773c10.369,2.128,20.938,3.843,31.42,5.093c5.473,0.653,9.384,5.615,8.729,11.098
						c-0.656,5.475-5.621,9.383-11.098,8.729c-11.029-1.318-22.155-3.12-33.065-5.359
						C2766.514,1596.884,2764.154,1595.066,2762.778,1592.667z M2848.01,1600.561c-0.809-1.411-1.284-3.038-1.316-4.78
						c-0.1-5.513,4.288-10.061,9.801-10.161c10.578-0.19,21.263-0.835,31.766-1.917c5.485-0.564,10.392,3.43,10.956,8.906
						c0.566,5.486-3.424,10.391-8.909,10.956c-11.062,1.14-22.317,1.819-33.451,2.02
						C2853.083,1605.652,2849.763,1603.618,2848.01,1600.561z M2932.928,1589.547c-0.455-0.793-0.806-1.664-1.035-2.597
						c-1.313-5.354,1.966-10.762,7.32-12.072c10.249-2.512,20.525-5.494,30.548-8.868c5.227-1.759,10.891,1.069,12.646,6.278
						c1.76,5.226-1.052,10.89-6.279,12.649c-10.552,3.551-21.371,6.692-32.16,9.334
						C2939.546,1595.355,2935.086,1593.309,2932.928,1589.547z M3013.298,1560.167c-0.102-0.178-0.198-0.361-0.291-0.546
						c-2.447-4.941-0.424-10.931,4.517-13.376c6.976-3.454,13.925-7.163,20.665-11.028c2.439-1.399,4.859-2.824,7.255-4.268
						c4.724-2.846,10.861-1.326,13.705,3.398c2.975,4.725,1.325,10.857-3.395,13.703c-2.523,1.521-5.064,3.016-7.631,4.489
						c-7.088,4.065-14.403,7.968-21.74,11.599C3021.629,1566.494,3015.903,1564.709,3013.298,1560.167z"/>
					<path style="fill:#BDD0FB;" d="M2453.506,1176.26c-0.988-1.722-1.473-3.752-1.279-5.876c0.496-5.383,1.116-10.856,1.842-16.27
						c0.732-5.466,5.756-9.303,11.221-8.57c5.465,0.734,9.304,5.751,8.57,11.221c-0.688,5.142-1.276,10.342-1.749,15.452
						c-0.503,5.488-5.365,9.531-10.856,9.025C2457.888,1180.931,2455.068,1178.983,2453.506,1176.26z"/>
				</g>
				<g>
					<g>
						<path style="fill:#BDD0FB;" d="M2560.668,1130.337c-0.712,1.859-0.166,3.966,1.36,5.244l43.522,36.49
							c-3.585,26.28-3.007,53.321,2.139,80.127l-41.46,38.763c-1.455,1.36-1.886,3.492-1.075,5.31l27.761,62.212
							c0.812,1.818,2.688,2.921,4.669,2.747l56.541-4.97c16.516,21.732,36.254,40.223,58.209,55.106l-1.909,56.764
							c-0.067,1.989,1.136,3.802,2.995,4.514l63.621,24.36c1.86,0.712,3.966,0.166,5.245-1.36l36.489-43.522
							c26.28,3.586,53.322,3.006,80.128-2.139l38.764,41.461c1.359,1.454,3.491,1.886,5.31,1.074l62.213-27.762
							c1.818-0.811,2.921-2.687,2.746-4.67l-4.969-56.541c21.733-16.515,40.224-36.253,55.106-58.208l56.765,1.909
							c1.988,0.066,3.802-1.136,4.514-2.995l24.359-63.621c0.713-1.859,0.166-3.966-1.359-5.245l-43.523-36.489
							c3.587-26.28,3.007-53.321-2.139-80.127l41.461-38.764c1.454-1.359,1.886-3.491,1.075-5.31l-27.763-62.213
							c-0.811-1.818-2.686-2.921-4.67-2.747l-56.541,4.97c-16.515-21.733-36.254-40.224-58.209-55.106l1.909-56.763
							c0.068-1.99-1.136-3.804-2.995-4.515l-63.621-24.359c-1.859-0.712-3.965-0.166-5.244,1.359l-36.489,43.522
							c-26.28-3.586-53.322-3.006-80.127,2.139l-38.764-41.461c-1.358-1.454-3.492-1.886-5.31-1.073l-62.211,27.761
							c-1.818,0.811-2.922,2.686-2.748,4.67l4.97,56.541c-21.732,16.515-40.223,36.254-55.106,58.208l-56.763-1.908
							c-1.99-0.067-3.802,1.135-4.515,2.995L2560.668,1130.337z"/>
					</g>
					
						<linearGradient id="SVGID_00000020388753711536868720000015475309226446587578_" gradientUnits="userSpaceOnUse" x1="2783.7385" y1="1205.4834" x2="2920.679" y2="1205.4834">
						<stop  offset="0" style="stop-color:#DAE3FE"/>
						<stop  offset="1" style="stop-color:#E9EFFD"/>
					</linearGradient>
					<path style="fill:url(#SVGID_00000020388753711536868720000015475309226446587578_);" d="M2792.759,1239.513
						c-16.606-28.957-9.924-66.578,17.066-87.83c29.669-23.36,72.806-18.227,96.166,11.438c11.321,14.371,16.359,32.29,14.198,50.45
						c-2.159,18.163-11.263,34.399-25.635,45.713c-29.669,23.361-72.806,18.227-96.166-11.438
						C2796.283,1245.171,2794.406,1242.383,2792.759,1239.513z M2897.798,1179.456c-1.282-2.236-2.734-4.391-4.358-6.454
						c-17.908-22.745-50.987-26.678-73.731-8.771c-22.746,17.911-26.694,50.987-8.771,73.733
						c17.908,22.746,50.987,26.678,73.731,8.771c11.02-8.678,18-21.124,19.656-35.051
						C2905.671,1200.366,2903.367,1189.168,2897.798,1179.456z"/>
					
						<linearGradient id="SVGID_00000011032000922730495580000005561945776387998132_" gradientUnits="userSpaceOnUse" x1="2688.658" y1="1205.9369" x2="3022.0498" y2="1205.9369">
						<stop  offset="0" style="stop-color:#DAE3FE"/>
						<stop  offset="1" style="stop-color:#E9EFFD"/>
					</linearGradient>
					<path style="fill:url(#SVGID_00000011032000922730495580000005561945776387998132_);" d="M2707.657,1289.93
						c-2.852-4.973-5.47-10.119-7.839-15.425l0,0c-0.746-1.67-1.464-3.353-2.156-5.047c-3.409-8.352-6.149-16.962-8.177-25.696
						c-0.028-0.119-0.056-0.238-0.083-0.357c-0.077-0.338-0.154-0.676-0.227-1.016c-0.149-0.659-0.289-1.32-0.429-1.979
						c-0.366-1.736,0.456-3.447,1.916-4.286c0.355-0.204,0.749-0.356,1.171-0.444c2.158-0.455,4.271,0.932,4.728,3.086
						c2.337,11.107,5.887,22.035,10.553,32.482c23.153,51.906,70.672,85.473,123.109,93.277c29.166,4.345,59.854,0.715,88.72-12.169
						c5.063-2.258,9.974-4.755,14.716-7.477c31.922-18.311,56.372-46.806,69.707-81.637c15.32-40.009,14.142-83.591-3.316-122.712
						c-36.064-80.794-131.071-117.148-211.829-81.108c-4.98,2.222-9.828,4.688-14.527,7.384
						c-20.362,11.682-37.942,27.688-51.421,46.934c-0.349,0.497-0.789,0.89-1.283,1.172c-1.299,0.745-2.969,0.725-4.278-0.193
						c-1.804-1.272-2.251-3.753-0.979-5.564c14.152-20.205,32.608-37.013,53.984-49.276c4.932-2.83,10.021-5.418,15.246-7.752
						c84.79-37.838,184.556,0.387,222.382,85.146c18.329,41.072,19.564,86.822,3.48,128.824
						c-13.999,36.567-39.667,66.481-73.178,85.706c-4.98,2.856-10.135,5.477-15.447,7.849
						c-41.075,18.328-86.825,19.565-128.827,3.484C2756.798,1349.131,2726.88,1323.451,2707.657,1289.93z"/>
				</g>
			</g>
			<g>
				<g style="opacity:0.3;">
					<path style="fill:#BDD0FB;" d="M2215.069,732.003c-1.327-2.314-1.04-5.312,0.903-7.335c3.623-3.778,7.411-7.499,11.258-11.055
						c2.5-2.311,6.398-2.159,8.714,0.341c2.326,2.495,2.158,6.402-0.342,8.714c-3.666,3.39-7.276,6.935-10.735,10.54
						c-2.354,2.457-6.258,2.536-8.719,0.182C2215.713,732.97,2215.355,732.502,2215.069,732.003z"/>
					<path style="fill:#BDD0FB;" d="M2250.91,700.928c-1.555-2.711-0.835-6.213,1.758-8.071
						c7.323-5.255,15.002-10.193,22.817-14.675c1.646-0.944,3.307-1.872,4.983-2.788c2.994-1.63,6.717-0.308,8.372,2.457
						c1.632,2.99,0.53,6.735-2.456,8.368c-1.602,0.874-3.191,1.76-4.763,2.662c-7.455,4.275-14.778,8.985-21.763,13.994
						c-2.769,1.987-6.618,1.352-8.606-1.413C2251.129,701.285,2251.014,701.109,2250.91,700.928z M2307.116,670.258
						c-0.145-0.253-0.278-0.521-0.388-0.797c-1.254-3.168,0.293-6.753,3.459-8.01c10.156-4.033,20.653-7.47,31.193-10.214
						c3.297-0.86,6.663,1.136,7.522,4.413c0.857,3.299-1.115,6.661-4.413,7.521c-10.057,2.619-20.068,5.899-29.755,9.743
						C2311.85,674.058,2308.617,672.875,2307.116,670.258z M2369.081,654.134c-0.389-0.679-0.654-1.444-0.765-2.266
						c-0.443-3.376,1.94-6.472,5.316-6.915c10.818-1.414,21.845-2.17,32.769-2.235c3.41-0.022,6.18,2.714,6.203,6.131
						c0.022,3.403-2.724,6.182-6.127,6.203c-10.418,0.064-20.928,0.78-31.245,2.132
						C2372.679,657.516,2370.286,656.237,2369.081,654.134z M2433.115,653.736c-0.635-1.108-0.93-2.42-0.774-3.784
						c0.4-3.382,3.468-5.804,6.849-5.403c10.857,1.282,21.724,3.249,32.309,5.849c3.307,0.815,5.323,4.161,4.514,7.46
						c-0.81,3.307-4.149,5.329-7.461,4.518c-10.086-2.48-20.458-4.357-30.808-5.578
						C2435.727,656.56,2434.055,655.374,2433.115,653.736z M2495.303,668.99c-0.887-1.547-1.099-3.466-0.416-5.264
						c1.209-3.181,4.77-4.779,7.955-3.572c10.203,3.882,20.265,8.427,29.902,13.515c3.02,1.586,4.168,5.319,2.577,8.331
						c-1.591,3.012-5.323,4.166-8.331,2.577c-9.198-4.854-18.794-9.191-28.532-12.892
						C2497.073,671.158,2495.988,670.184,2495.303,668.99z M2551.897,698.872c-1.149-2.003-1.117-4.576,0.291-6.599
						c1.946-2.792,5.789-3.475,8.584-1.531c8.954,6.243,17.603,13.106,25.699,20.396c2.53,2.294,2.732,6.181,0.456,8.711
						c-2.277,2.53-6.179,2.734-8.707,0.456c-7.722-6.953-15.964-13.493-24.5-19.445
						C2552.944,700.322,2552.336,699.637,2551.897,698.872z M2599.455,741.672c-1.438-2.507-0.951-5.761,1.313-7.722
						c2.574-2.23,6.469-1.951,8.701,0.622c7.125,8.223,13.825,17.002,19.92,26.092c1.852,2.867,1.135,6.666-1.694,8.558
						c-2.828,1.896-6.658,1.139-8.556-1.688c-5.808-8.676-12.199-17.048-18.993-24.887
						C2599.879,742.338,2599.65,742.011,2599.455,741.672z M2647.763,824.337c-0.177-0.308-0.332-0.639-0.456-0.988
						c-3.04-8.461-6.597-16.904-10.573-25.096c-0.596-1.244-1.195-2.459-1.808-3.663c-1.536-3.042-0.323-6.75,2.716-8.288
						c3.043-1.547,6.849-0.356,8.29,2.712c0.648,1.288,1.289,2.575,1.913,3.88c4.152,8.56,7.881,17.411,11.067,26.284
						c1.152,3.207-0.511,6.736-3.718,7.887C2652.339,828.093,2649.223,826.884,2647.763,824.337z"/>
				</g>
				<g style="opacity:0.3;">
					<path style="fill:#BDD0FB;" d="M2178.979,1044.737c-1.675-2.92-0.693-6.656,2.215-8.375c2.929-1.732,6.714-0.761,8.444,2.172
						c5.216,8.828,11.013,17.412,17.235,25.514c2.036,2.703,1.569,6.573-1.135,8.648c-2.704,2.075-6.574,1.563-8.648-1.135
						c-6.52-8.5-12.602-17.497-18.069-26.75C2179.007,1044.787,2178.992,1044.761,2178.979,1044.737z M2164.592,1016.66
						c-0.111-0.194-0.21-0.39-0.301-0.598c-4.318-9.829-8.08-20.021-11.186-30.292c-0.982-3.262,0.857-6.701,4.117-7.685
						c3.264-0.99,6.702,0.877,7.691,4.114c2.962,9.801,6.553,19.526,10.67,28.907c1.37,3.116-0.049,6.755-3.166,8.123
						C2169.5,1020.51,2166.138,1019.356,2164.592,1016.66z M2217.333,1094.672c-1.36-2.372-1.015-5.45,1.025-7.461
						c2.422-2.386,6.326-2.357,8.717,0.069c7.203,7.307,14.905,14.237,22.905,20.596c2.661,2.135,3.107,6,0.984,8.665
						c-2.116,2.665-6,3.108-8.666,0.989c-8.384-6.667-16.46-13.934-24.006-21.596
						C2217.91,1095.546,2217.591,1095.122,2217.333,1094.672z M2146.399,956.343c-0.349-0.608-0.6-1.287-0.728-2.019
						c-1.829-10.586-3.021-21.392-3.54-32.115c-0.167-3.403,2.458-6.293,5.861-6.461c3.392-0.161,6.285,2.463,6.456,5.86
						c0.498,10.225,1.635,20.524,3.376,30.619c0.578,3.355-1.673,6.548-5.029,7.125
						C2150.175,959.804,2147.652,958.526,2146.399,956.343z M2266.618,1133.851c-1.086-1.894-1.131-4.308,0.09-6.296
						c1.782-2.907,5.58-3.815,8.482-2.036c8.721,5.353,17.86,10.226,27.174,14.483c3.104,1.417,4.46,5.078,3.042,8.175
						c-1.417,3.097-5.078,4.46-8.175,3.043c-9.761-4.468-19.347-9.575-28.493-15.184
						C2267.828,1135.476,2267.114,1134.715,2266.618,1133.851z M2323.865,1160.064c-0.831-1.45-1.073-3.228-0.529-4.942
						c1.034-3.245,4.503-5.04,7.748-4.006c9.776,3.113,19.824,5.66,29.861,7.572c3.35,0.637,5.545,3.87,4.906,7.211
						c-0.636,3.346-3.862,5.54-7.206,4.903c-10.527-2.002-21.061-4.67-31.304-7.932
						C2325.813,1162.384,2324.605,1161.355,2323.865,1160.064z M2385.749,1171.81c-0.584-1.018-0.887-2.213-0.799-3.474
						c0.224-3.399,3.165-5.97,6.564-5.743c10.232,0.689,20.597,0.75,30.803,0.184c3.394-0.183,6.309,2.418,6.495,5.818
						c0.188,3.401-2.414,6.309-5.818,6.498c-10.7,0.589-21.572,0.528-32.306-0.189
						C2388.55,1174.757,2386.74,1173.539,2385.749,1171.81z"/>
					<path style="fill:#BDD0FB;" d="M2143.341,893.133c-0.592-1.032-0.891-2.245-0.797-3.521c0.39-5.264,0.94-10.539,1.628-15.682
						c0.454-3.374,3.557-5.747,6.933-5.295c3.367,0.461,5.74,3.557,5.294,6.933c-0.659,4.904-1.181,9.938-1.556,14.96
						c-0.252,3.397-3.213,5.945-6.607,5.691C2146.116,896.061,2144.325,894.85,2143.341,893.133z"/>
				</g>
				<g>
					<path style="fill:#BDD0FB;" d="M2214.997,857.95c-0.476,1.243-0.111,2.653,0.91,3.509l29.124,24.417
						c-2.399,17.585-2.012,35.68,1.431,53.617l-27.743,25.939c-0.973,0.909-1.262,2.336-0.719,3.553l18.576,41.63
						c0.544,1.217,1.798,1.954,3.125,1.838l37.834-3.326c11.052,14.542,24.259,26.916,38.951,36.875l-1.278,37.983
						c-0.044,1.331,0.76,2.545,2.005,3.021l42.572,16.3c1.245,0.476,2.654,0.111,3.51-0.91l24.417-29.123
						c17.585,2.4,35.68,2.012,53.618-1.431l25.938,27.744c0.91,0.973,2.337,1.262,3.553,0.719l41.63-18.577
						c1.217-0.543,1.955-1.798,1.838-3.125l-3.325-37.835c14.543-11.051,26.916-24.259,36.874-38.95l37.984,1.277
						c1.331,0.044,2.544-0.76,3.02-2.004l16.301-42.573c0.477-1.244,0.111-2.653-0.91-3.509l-29.124-24.417
						c2.401-17.585,2.012-35.68-1.431-53.617l27.744-25.939c0.973-0.91,1.262-2.336,0.719-3.553l-18.577-41.63
						c-0.542-1.216-1.797-1.954-3.125-1.838l-37.834,3.326c-11.051-14.543-24.26-26.916-38.951-36.875l1.277-37.983
						c0.045-1.332-0.76-2.545-2.004-3.021l-42.572-16.301c-1.244-0.476-2.654-0.111-3.51,0.91l-24.417,29.122
						c-17.585-2.4-35.68-2.011-53.618,1.432l-25.939-27.744c-0.909-0.972-2.337-1.262-3.553-0.718l-41.629,18.576
						c-1.217,0.544-1.955,1.798-1.838,3.125l3.325,37.835c-14.542,11.051-26.916,24.259-36.875,38.95l-37.984-1.277
						c-1.332-0.045-2.544,0.76-3.021,2.004L2214.997,857.95z"/>
					
						<linearGradient id="SVGID_00000018202350764008194180000003469326115516632458_" gradientUnits="userSpaceOnUse" x1="2363.4189" y1="908.2485" x2="2456.6895" y2="908.2485">
						<stop  offset="0" style="stop-color:#DAE3FE"/>
						<stop  offset="1" style="stop-color:#E9EFFD"/>
					</linearGradient>
					<path style="fill:url(#SVGID_00000018202350764008194180000003469326115516632458_);" d="M2369.552,931.358
						c-4.949-8.63-6.995-18.578-5.8-28.635c1.472-12.372,7.675-23.43,17.465-31.137c20.2-15.909,49.583-12.415,65.501,7.789
						c15.897,20.263,12.414,49.598-7.793,65.507c-9.79,7.71-21.995,11.145-34.364,9.671c-12.374-1.47-23.434-7.672-31.141-17.466
						C2371.982,935.258,2370.689,933.341,2369.552,931.358z M2439.848,891.181c-0.825-1.44-1.765-2.834-2.819-4.177
						c-11.708-14.861-33.321-17.431-48.185-5.727c-7.197,5.668-11.765,13.804-12.844,22.901c-1.083,9.104,1.451,18.075,7.112,25.283
						l0,0c5.67,7.2,13.806,11.764,22.904,12.846c9.104,1.082,18.081-1.445,25.284-7.116
						C2444.82,924.546,2448.168,905.691,2439.848,891.181z"/>
					
						<linearGradient id="SVGID_00000178899642266283553770000016516087810683423145_" gradientUnits="userSpaceOnUse" x1="2297.1504" y1="908.4712" x2="2527.2292" y2="908.4712">
						<stop  offset="0" style="stop-color:#DAE3FE"/>
						<stop  offset="1" style="stop-color:#E9EFFD"/>
					</linearGradient>
					<path style="fill:url(#SVGID_00000178899642266283553770000016516087810683423145_);" d="M2310.271,966.374
						c-1.941-3.385-3.725-6.896-5.352-10.531c-3.225-7.221-5.718-14.777-7.413-22.479c-0.074-0.347-0.147-0.693-0.221-1.04
						c-0.566-2.682,0.704-5.322,2.959-6.619c0.548-0.314,1.157-0.549,1.807-0.686c3.332-0.702,6.589,1.442,7.301,4.765
						c1.515,7.205,3.815,14.279,6.83,21.026l0.001,0.003c0.164,0.371,0.335,0.741,0.503,1.107
						c7.281,15.904,18.25,29.391,31.886,39.611c7.402,5.547,15.597,10.129,24.426,13.601c0.072,0.029,0.143,0.056,0.215,0.085
						c0.222,0.084,0.439,0.172,0.659,0.254c25.901,9.915,54.115,9.154,79.441-2.148c3.279-1.46,6.455-3.077,9.527-4.839
						c20.665-11.854,36.492-30.303,45.13-52.853c9.916-25.902,9.149-54.112-2.152-79.436c-11.304-25.305-31.792-44.736-57.69-54.658
						c-25.901-9.915-54.115-9.154-79.441,2.148c-3.224,1.436-6.362,3.034-9.402,4.777c-13.184,7.564-24.563,17.925-33.288,30.384
						c-0.539,0.768-1.217,1.376-1.982,1.81c-2.006,1.15-4.585,1.12-6.606-0.297c-2.784-1.961-3.47-5.796-1.511-8.592
						c9.763-13.94,22.496-25.535,37.24-33.997c3.406-1.953,6.915-3.74,10.519-5.348c28.34-12.646,59.902-13.498,88.883-2.401
						c28.974,11.097,51.909,32.787,64.541,61.145c12.647,28.336,13.502,59.897,2.401,88.877
						c-9.656,25.228-27.366,45.867-50.486,59.129c-3.432,1.968-6.99,3.779-10.654,5.415
						C2403.481,1039.065,2339.537,1017.408,2310.271,966.374z"/>
				</g>
			</g>
		</g>
		<g style="opacity:0.63;">
			
				<linearGradient id="SVGID_00000102504475125069715310000001260262723257499557_" gradientUnits="userSpaceOnUse" x1="2560.5022" y1="2306.5825" x2="2205.7415" y2="3274.1121" gradientTransform="matrix(0.7052 0.709 -0.709 0.7052 2078.2874 -2981.7183)">
				<stop  offset="0" style="stop-color:#FF928E"/>
				<stop  offset="1" style="stop-color:#FE7062"/>
			</linearGradient>
			<path style="fill:url(#SVGID_00000102504475125069715310000001260262723257499557_);" d="M1879.068,579.841
				c-51.876-52.155-136.209-52.381-188.364-0.505c-52.155,51.876-52.381,136.209-0.505,188.364
				c51.876,52.154,136.209,52.38,188.364,0.505C1930.718,716.328,1930.944,631.995,1879.068,579.841z M1722.47,733.877
				c-34.392-34.576-34.242-90.486,0.335-124.878c34.577-34.392,90.486-34.242,124.878,0.334
				c34.392,34.577,34.242,90.487-0.334,124.879C1812.772,768.604,1756.863,768.454,1722.47,733.877z"/>
			
				<linearGradient id="SVGID_00000031208471406330063040000001598840270808170668_" gradientUnits="userSpaceOnUse" x1="2545.145" y1="2553.0007" x2="2245.2212" y2="3370.9749" gradientTransform="matrix(0.7052 0.709 -0.709 0.7052 2078.2874 -2981.7183)">
				<stop  offset="0" style="stop-color:#FF928E"/>
				<stop  offset="1" style="stop-color:#FE7062"/>
			</linearGradient>
			<path style="fill:url(#SVGID_00000031208471406330063040000001598840270808170668_);" d="M1629.266,907.198l-64.762-65.11
				l136.601-135.871c3.543-3.524,8.751-4.887,13.52-3.393c23.877,7.484,42.57,24.136,56.437,49.319
				c2.286,4.152,1.577,9.32-1.746,12.698L1629.266,907.198z"/>
			<circle style="fill:#BDD0FB;" cx="1257.756" cy="1217.356" r="554.829"/>
			
				<ellipse transform="matrix(0.7071 -0.7071 0.7071 0.7071 -496.1039 1244.3827)" style="fill:#91B3FA;" cx="1254.051" cy="1221.042" rx="422.818" ry="422.818"/>
			<circle style="opacity:0.61;fill:#FFFFFF;" cx="1262.295" cy="1229.33" r="389.202"/>
			
				<linearGradient id="SVGID_00000095302997173357388520000011497745073047188396_" gradientUnits="userSpaceOnUse" x1="2080.7932" y1="2543.1985" x2="2167.5166" y2="3272.6917" gradientTransform="matrix(0.7052 0.709 -0.709 0.7052 2078.2874 -2981.7183)">
				<stop  offset="0" style="stop-color:#FEBBBA"/>
				<stop  offset="1" style="stop-color:#FF928E"/>
			</linearGradient>
			<polygon style="fill:url(#SVGID_00000095302997173357388520000011497745073047188396_);" points="1254.051,1221.042 
				1119.334,953.679 1112.705,765.273 1212.326,933.243 			"/>
			
				<linearGradient id="SVGID_00000112602102447596666920000005264954450316517546_" gradientUnits="userSpaceOnUse" x1="2333.5374" y1="2513.1406" x2="2420.2615" y2="3242.6411" gradientTransform="matrix(0.7052 0.709 -0.709 0.7052 2078.2874 -2981.7183)">
				<stop  offset="0" style="stop-color:#FEBBBA"/>
				<stop  offset="1" style="stop-color:#FF928E"/>
			</linearGradient>
			<polygon style="fill:url(#SVGID_00000112602102447596666920000005264954450316517546_);" points="1272.057,1215.724 
				1446.157,1024.565 1570.396,987.192 1496.435,1083.251 			"/>
			
				<linearGradient id="SVGID_00000044862667120404990110000011853227935101908919_" gradientUnits="userSpaceOnUse" x1="2306.9617" y1="3715.3586" x2="2420.9851" y2="3715.3586" gradientTransform="matrix(0.7052 0.709 -0.709 0.7052 2078.2874 -2981.7183)">
				<stop  offset="0" style="stop-color:#FF928E"/>
				<stop  offset="1" style="stop-color:#FE7062"/>
			</linearGradient>
			<path style="fill:url(#SVGID_00000044862667120404990110000011853227935101908919_);" d="M958.307,1418.657
				c-4.618,0-9.115-2.365-11.64-6.622c-3.813-6.422-1.697-14.718,4.727-18.53l305.757-181.449c6.414-3.81,14.717-1.693,18.526,4.727
				c3.813,6.422,1.697,14.718-4.727,18.53l-305.757,181.449C963.031,1418.047,960.654,1418.657,958.307,1418.657z"/>
			
				<linearGradient id="SVGID_00000119836557134096911060000009920924291863711398_" gradientUnits="userSpaceOnUse" x1="2448.0081" y1="3440.8037" x2="2366.1936" y2="3663.9343" gradientTransform="matrix(0.7052 0.709 -0.709 0.7052 2078.2874 -2981.7183)">
				<stop  offset="0" style="stop-color:#FF928E"/>
				<stop  offset="1" style="stop-color:#FE7062"/>
			</linearGradient>
			
				<circle style="fill:url(#SVGID_00000119836557134096911060000009920924291863711398_);" cx="1258.097" cy="1229.609" r="30.717"/>
		</g>
		<g>
			<g>
				<path style="fill:#91B3FA;" d="M1923.818,593.791c-72.232-13.92-142.072,33.351-155.992,105.582
					c-13.92,72.232,33.351,142.072,105.583,155.992c72.232,13.92,142.071-33.351,155.992-105.583
					C2043.321,677.55,1996.05,607.711,1923.818,593.791z M1881.052,809.246c-47.887-9.229-79.226-55.53-69.997-103.417
					c9.228-47.887,55.53-79.226,103.417-69.997c47.888,9.229,79.226,55.53,69.998,103.417
					C1975.241,787.136,1928.94,818.475,1881.052,809.246z"/>
			</g>
			<path style="fill:#91B3FA;" d="M1901.541,1004.968l-90.174-17.378l36.459-189.187c0.946-4.907,4.484-8.965,9.267-10.413
				c23.949-7.25,48.772-4.004,74.407,9.01c4.226,2.145,6.549,6.816,5.702,11.48L1901.541,1004.968z"/>
			<circle style="fill:#91B3FA;" cx="1768.976" cy="1470.42" r="554.829"/>
			
				<ellipse transform="matrix(0.7071 -0.7071 0.7071 0.7071 -525.5407 1682.3348)" style="fill:#7D97F4;" cx="1767.987" cy="1475.551" rx="422.818" ry="422.818"/>
			<circle style="opacity:0.61;fill:#FFFFFF;" cx="1779.467" cy="1477.763" r="389.202"/>
			
				<linearGradient id="SVGID_00000044161608745478557120000012842017443764529026_" gradientUnits="userSpaceOnUse" x1="2568.3721" y1="1286.1819" x2="2430.9033" y2="1383.0862" gradientTransform="matrix(0.9819 0.1892 -0.1892 0.9819 260.7357 -853.9035)">
				<stop  offset="0" style="stop-color:#FF928E"/>
				<stop  offset="1" style="stop-color:#FE7062"/>
			</linearGradient>
			<polygon style="fill:url(#SVGID_00000044161608745478557120000012842017443764529026_);" points="1767.988,1475.551 
				1506.171,1330.35 1394.667,1178.338 1571.541,1261.127 			"/>
			
				<linearGradient id="SVGID_00000159440171457500257980000002772451456233392538_" gradientUnits="userSpaceOnUse" x1="2606.1616" y1="1339.6595" x2="2468.6816" y2="1436.5718" gradientTransform="matrix(0.9819 0.1892 -0.1892 0.9819 260.7357 -853.9035)">
				<stop  offset="0" style="stop-color:#FF928E"/>
				<stop  offset="1" style="stop-color:#FE7062"/>
			</linearGradient>
			<polygon style="fill:url(#SVGID_00000159440171457500257980000002772451456233392538_);" points="1779.879,1461.022 
				1816.224,1205.031 1897.892,1104.223 1890.81,1225.25 			"/>
			
				<linearGradient id="SVGID_00000054958068676046882930000012284821674506183826_" gradientUnits="userSpaceOnUse" x1="1829.2614" y1="2169.4211" x2="1943.3036" y2="2169.4211" gradientTransform="matrix(0.9819 0.1892 -0.1892 0.9819 260.7357 -853.9035)">
				<stop  offset="0" style="stop-color:#FF928E"/>
				<stop  offset="1" style="stop-color:#FE7062"/>
			</linearGradient>
			<path style="fill:url(#SVGID_00000054958068676046882930000012284821674506183826_);" d="M1627.09,1807.687
				c-1.918,0-3.866-0.411-5.718-1.278c-6.767-3.164-9.686-11.213-6.52-17.977l150.644-322.053
				c3.159-6.764,11.204-9.682,17.975-6.518c6.767,3.164,9.686,11.213,6.52,17.977l-150.644,322.054
				C1637.05,1804.802,1632.177,1807.687,1627.09,1807.687z"/>
			
				<linearGradient id="SVGID_00000144318996840250776250000002710833181738993570_" gradientUnits="userSpaceOnUse" x1="1970.3245" y1="1894.8593" x2="1888.5074" y2="2117.9968" gradientTransform="matrix(0.9819 0.1892 -0.1892 0.9819 260.7357 -853.9035)">
				<stop  offset="0" style="stop-color:#E1473D"/>
				<stop  offset="1" style="stop-color:#E9605A"/>
			</linearGradient>
			
				<circle style="fill:url(#SVGID_00000144318996840250776250000002710833181738993570_);" cx="1776.153" cy="1480.356" r="30.717"/>
		</g>
		<g>
			<path style="fill:#7D97F4;" d="M729.989,2954.922l-55.537,237.84c-5.981,25.608,14.562,49.65,40.791,47.751
				c0.439-0.032,0.88-0.065,1.326-0.1c16.717-1.299,30.807-13.028,34.94-29.278l61.573-242.121L729.989,2954.922z"/>
			<path style="fill:#7D97F4;" d="M995.193,2969.014c2.547,3.973,26.26,166.9,36.615,238.705
				c2.765,19.179,19.2,33.401,38.578,33.401h2.154c25.091,0,43.646-23.36,37.969-47.799l-52.106-224.307H995.193z"/>
			<path style="fill:#7D97F4;" d="M1438.238,2954.922l-55.537,237.84c-5.979,25.608,14.564,49.65,40.792,47.751
				c0.439-0.032,0.88-0.065,1.326-0.1c16.717-1.299,30.807-13.028,34.938-29.278l61.574-242.121L1438.238,2954.922z"/>
			<path style="fill:#7D97F4;" d="M1703.443,2969.014c2.547,3.973,26.259,166.9,36.613,238.705
				c2.767,19.179,19.201,33.401,38.579,33.401h2.154c25.091,0,43.646-23.36,37.968-47.799l-52.105-224.307H1703.443z"/>
			
				<linearGradient id="SVGID_00000117665368653785112960000002287980922463998871_" gradientUnits="userSpaceOnUse" x1="1871.9349" y1="1362.9712" x2="1777.2831" y2="1768.6226">
				<stop  offset="0" style="stop-color:#4F52FF"/>
				<stop  offset="1" style="stop-color:#4042E2"/>
			</linearGradient>
			<path style="fill:url(#SVGID_00000117665368653785112960000002287980922463998871_);" d="M1351.44,2336.005
				c0,0,7.19,149.89,159.298,149.864c152.107-0.025,436.356,125.291,285.382,393.568l-444.68-61.169V2336.005z"/>
			
				<linearGradient id="SVGID_00000057123272030890049710000004869865834044024241_" gradientUnits="userSpaceOnUse" x1="933.2772" y1="1642.6486" x2="946.7989" y2="1933.3652">
				<stop  offset="0" style="stop-color:#4F52FF"/>
				<stop  offset="1" style="stop-color:#4042E2"/>
			</linearGradient>
			<path style="fill:url(#SVGID_00000057123272030890049710000004869865834044024241_);" d="M662.289,2742.559
				c0,0-29.992-258.264-91.75-340.232c-61.759-81.969-250.08-458.522,22.403-640.046
				c272.482-181.523,662.353-79.666,729.343,151.186c66.99,230.853,132.302,766.028,165.519,864.388
				c33.217,98.36-618.883,91.756-618.883,91.756L662.289,2742.559z"/>
			
				<linearGradient id="SVGID_00000104673738572621551190000012028013142237828271_" gradientUnits="userSpaceOnUse" x1="1583.392" y1="1893.7621" x2="1522.5443" y2="2243.0723">
				<stop  offset="0" style="stop-color:#4F52FF"/>
				<stop  offset="1" style="stop-color:#4042E2"/>
			</linearGradient>
			<path style="fill:url(#SVGID_00000104673738572621551190000012028013142237828271_);" d="M1032.257,2786.439
				c4.683-5.431,224.132-89.088,432.341-71.299c208.208,17.79,316.209,51.306,352.208,149.375
				c36,98.069-128.954,152.128-465.366,139.55C1015.027,2991.488,961.498,2868.501,1032.257,2786.439z"/>
			
				<linearGradient id="SVGID_00000139269402451383283040000018094520105869420959_" gradientUnits="userSpaceOnUse" x1="893.0735" y1="1862.5228" x2="1296.6761" y2="1862.5228">
				<stop  offset="0" style="stop-color:#DAE3FE"/>
				<stop  offset="1" style="stop-color:#E9EFFD"/>
			</linearGradient>
			<path style="fill:url(#SVGID_00000139269402451383283040000018094520105869420959_);" d="M1295.098,2018.607
				c-0.739,0-1.398-0.522-1.546-1.273c-29.188-149.183-136.072-224.9-220.597-262.148c-91.694-40.407-177.535-45.542-178.391-45.59
				c-0.87-0.048-1.537-0.791-1.487-1.66c0.046-0.87,0.793-1.59,1.66-1.487c0.862,0.046,87.277,5.215,179.491,45.851
				c85.212,37.551,192.97,113.909,222.42,264.427c0.168,0.854-0.389,1.683-1.244,1.851
				C1295.299,2018.598,1295.198,2018.607,1295.098,2018.607z"/>
			<g>
				<g>
					
						<linearGradient id="SVGID_00000018925044144545946430000012063364739120813501_" gradientUnits="userSpaceOnUse" x1="2889.9841" y1="3238.5898" x2="3143.0713" y2="3238.5898" gradientTransform="matrix(1 0 0 1 -1375.1613 0)">
						<stop  offset="0" style="stop-color:#09005D"/>
						<stop  offset="1" style="stop-color:#1A0F91"/>
					</linearGradient>
					<path style="fill:url(#SVGID_00000018925044144545946430000012063364739120813501_);" d="M1616.594,3239.651
						c-62.045,0-89.497-5.323-101.771-10.177c2.385,10.189,11.46,18.233,22.928,18.233h219.494c7.392,0,12.057-7.076,10.291-13.481
						C1742.516,3236.237,1689.375,3239.651,1616.594,3239.651z"/>
					
						<linearGradient id="SVGID_00000036243558560912267760000003635218972459991706_" gradientUnits="userSpaceOnUse" x1="3084.9775" y1="2751.9333" x2="3015.8274" y2="3229.699" gradientTransform="matrix(1 0 0 1 -1375.1613 0)">
						<stop  offset="0" style="stop-color:#4F52FF"/>
						<stop  offset="1" style="stop-color:#4042E2"/>
					</linearGradient>
					<path style="fill:url(#SVGID_00000036243558560912267760000003635218972459991706_);" d="M1767.536,3234.225
						c-0.356-1.292-0.879-2.563-1.797-3.736c-16.719-21.347-50.307-54.871-95.995-54.228c-66.931,0.942-87.345,6.634-139.356-1.161
						l-15.193,42.24c-1.25,4.145-1.273,8.286-0.372,12.132c12.274,4.855,39.726,10.177,101.771,10.177
						C1689.375,3239.651,1742.516,3236.237,1767.536,3234.225z"/>
				</g>
				
					<linearGradient id="SVGID_00000106827583472674319600000011967158812769967012_" gradientUnits="userSpaceOnUse" x1="2902.627" y1="3162.0417" x2="2971.1038" y2="3162.0417" gradientTransform="matrix(1 0 0 1 -1375.1613 0)">
					<stop  offset="0" style="stop-color:#FEBBBA"/>
					<stop  offset="1" style="stop-color:#FF928E"/>
				</linearGradient>
				<path style="fill:url(#SVGID_00000106827583472674319600000011967158812769967012_);" d="M1538.839,3132.282l-11.373,51.784
					c0,0,25.476,11.598,51.485,6.39c6.629-1.327,11.667-6.769,12.538-13.473l4.454-34.302L1538.839,3132.282z"/>
				<g>
					
						<linearGradient id="SVGID_00000072976315637622667950000017791314088857990565_" gradientUnits="userSpaceOnUse" x1="2966.2317" y1="3284.5723" x2="3170.5632" y2="3284.5723" gradientTransform="matrix(0.9904 -0.1384 0.1384 0.9904 -1486.1841 313.0597)">
						<stop  offset="0" style="stop-color:#09005D"/>
						<stop  offset="1" style="stop-color:#1A0F91"/>
					</linearGradient>
					<path style="fill:url(#SVGID_00000072976315637622667950000017791314088857990565_);" d="M1993.633,3162.491
						c-42.521,45.182-65.193,61.543-77.123,67.17c9.02,5.213,21.069,4.09,28.928-4.26l150.428-159.841
						c5.066-5.383,3.136-13.606-2.718-16.689C2077.459,3068.462,2043.513,3109.49,1993.633,3162.491z"/>
					
						<linearGradient id="SVGID_00000031200686900118091930000014378166018012586132_" gradientUnits="userSpaceOnUse" x1="3106.7813" y1="2897.6479" x2="3037.6313" y2="3375.4104" gradientTransform="matrix(0.9904 -0.1384 0.1384 0.9904 -1486.1841 313.0597)">
						<stop  offset="0" style="stop-color:#4F52FF"/>
						<stop  offset="1" style="stop-color:#4042E2"/>
					</linearGradient>
					<path style="fill:url(#SVGID_00000031200686900118091930000014378166018012586132_);" d="M2093.148,3048.87
						c-1.181-0.622-2.461-1.107-3.94-1.24c-26.929-2.384-74.246-0.792-105.091,32.917c-45.188,49.384-55.918,71.331-97.214,103.89
						l21.068,36.677c2.148,3.737,5.133,6.579,8.538,8.546c11.93-5.626,34.602-21.988,77.123-67.17
						C2043.513,3109.49,2077.459,3068.462,2093.148,3048.87z"/>
				</g>
				
					<linearGradient id="SVGID_00000075858976121428010620000011479869487303855235_" gradientUnits="userSpaceOnUse" x1="2467.6384" y1="2861.5469" x2="3016.6533" y2="2861.5469" gradientTransform="matrix(1 0 0 1 -1375.1613 0)">
					<stop  offset="0" style="stop-color:#09005D"/>
					<stop  offset="1" style="stop-color:#1A0F91"/>
				</linearGradient>
				<path style="fill:url(#SVGID_00000075858976121428010620000011479869487303855235_);" d="M1163.99,2561.614
					c0,0,371.461,30.33,447.664,66.203c76.202,35.873-17.601,526.438-17.601,526.438s-14.686,15.477-60.848,1.127
					c0,0-46.199-348.184-38.531-444.766l-402.197-65.785L1163.99,2561.614z"/>
				
					<linearGradient id="SVGID_00000147924258215852216280000009486184600999087502_" gradientUnits="userSpaceOnUse" x1="12727.1094" y1="8420.0537" x2="12666.6602" y2="8388.1807" gradientTransform="matrix(0.9904 -0.1384 0.1384 0.9904 -1486.1841 313.0597)">
					<stop  offset="0" style="stop-color:#FEBBBA"/>
					<stop  offset="1" style="stop-color:#FF928E"/>
				</linearGradient>
				<path style="fill:url(#SVGID_00000147924258215852216280000009486184600999087502_);" d="M1840.576,3119.602
					c3.851,2.636,46.327,64.836,46.327,64.836s35.775-13.137,40.036-37.534l-41.624-55.681L1840.576,3119.602z"/>
				
					<linearGradient id="SVGID_00000050633015855398040570000014340526382551121799_" gradientUnits="userSpaceOnUse" x1="2965.2339" y1="2644.4617" x2="2370.1226" y2="3319.2004" gradientTransform="matrix(1 0 0 1 -1375.1613 0)">
					<stop  offset="0" style="stop-color:#09005D"/>
					<stop  offset="1" style="stop-color:#1A0F91"/>
				</linearGradient>
				<path style="fill:url(#SVGID_00000050633015855398040570000014340526382551121799_);" d="M940.263,2558.509
					c0,0-12.105,29.127-11.611,67.835c0.683,53.531,43.719,96.969,97.187,99.638l439.128,20.025
					c9.274,0.424,17.526,6.746,19.444,15.83c18.371,87.053,101.755,150.154,368.809,377.77c7.032,5.994,51.782-24.409,49.58-28.17
					l-304.413-409.561c-13.429-22.162-35.017-38.172-60.123-44.59l-374.272-95.671L940.263,2558.509z"/>
				
					<linearGradient id="SVGID_00000170965253159385697270000009609221495187868301_" gradientUnits="userSpaceOnUse" x1="1626.2676" y1="1875.0654" x2="1220.6161" y2="2192.8259">
					<stop  offset="0" style="stop-color:#FF928E"/>
					<stop  offset="1" style="stop-color:#FE7062"/>
				</linearGradient>
				<path style="fill:url(#SVGID_00000170965253159385697270000009609221495187868301_);" d="M939.077,2557.222
					c0,0-4.354-217.649,39.156-422.48c16.067-75.638,57.882-143.358,118.622-191.212l20.319-16.01l101.77,41.344l52.3,90.368
					c28.792,57.583,21.722,182.639,0,243.244c-36.318,101.335-65.363,206.345-77.742,257.927
					C1193.502,2560.402,1024.945,2582.664,939.077,2557.222z"/>
				
					<linearGradient id="SVGID_00000121242793188927867590000006307655660756648883_" gradientUnits="userSpaceOnUse" x1="2482.7949" y1="1877.6152" x2="2629.0891" y2="1877.6152" gradientTransform="matrix(1 0 0 1 -1375.1613 0)">
					<stop  offset="0" style="stop-color:#FEBBBA"/>
					<stop  offset="1" style="stop-color:#FF928E"/>
				</linearGradient>
				<path style="fill:url(#SVGID_00000121242793188927867590000006307655660756648883_);" d="M1187.141,1765.324l-79.507,184.458
					c0,0,25.442,57.246,114.491,34.984l31.804-127.213L1187.141,1765.324z"/>
				<g>
					
						<linearGradient id="SVGID_00000046324182959567197880000008740282356192780936_" gradientUnits="userSpaceOnUse" x1="2310.5547" y1="3798.0452" x2="2102.05" y2="4073.8799" gradientTransform="matrix(0.9401 -0.3408 0.3408 0.9401 -2185.5146 -1063.2611)">
						<stop  offset="0" style="stop-color:#FEBBBA"/>
						<stop  offset="1" style="stop-color:#FF928E"/>
					</linearGradient>
					<path style="fill:url(#SVGID_00000046324182959567197880000008740282356192780936_);" d="M1319.064,1704.765
						c0.937,2.585,1.519,184.326,1.519,184.326l-103.779-1.874l-26.142-172.171
						C1190.662,1715.046,1303.38,1661.502,1319.064,1704.765z"/>
					
						<linearGradient id="SVGID_00000070799561142657456760000008105862179227870357_" gradientUnits="userSpaceOnUse" x1="2151.3152" y1="3864.5833" x2="2400.3757" y2="3864.5833" gradientTransform="matrix(0.9401 -0.3408 0.3408 0.9401 -2185.5146 -1063.2611)">
						<stop  offset="0" style="stop-color:#09005D"/>
						<stop  offset="1" style="stop-color:#1A0F91"/>
					</linearGradient>
					<path style="fill:url(#SVGID_00000070799561142657456760000008105862179227870357_);" d="M1220.826,1748.363l6.665,91.712
						c0.086,1.176,0.321,2.306,0.722,3.416c2.451,6.789,12.595,29.527,35.226,17.73c20.535-10.706,39.436-20.169,54.129-18.808
						c6.598,0.611,11.644,6.118,11.664,12.744c0.048,16.513-0.53,53.724-5.966,85.976c-1.102,6.545-7.075,11.1-13.691,10.576
						c-19.937-1.582-61.891-6.094-94.792-17.631c-4.459-1.563-7.713-5.384-8.477-10.047c-3.721-22.729-15.292-91.769-21.492-110.509
						c-5.82-17.59-30.176-23.799-40.588-25.677c-3.414-0.615-6.398-2.585-8.311-5.479c-6.762-10.227-18.249-34.759,12.076-52.078
						c6.347-3.625,8.412-11.706,4.596-17.939c-7.597-12.41-13.872-32.451,8.946-48.942c23.193-16.763,45.115-7.092,57.724,1.847
						c5.098,3.614,11.93,2.909,16.424-1.432c2.559-2.472,6.227-3.869,11.403-1.964c6.975,2.567,14.609-1.753,16.44-8.955
						c3.518-13.838,13.203-29.889,39.126-30.794c45.996-1.606,61.237,46.574,55.501,77.849c-5.736,31.275-55.704,30.18-82.644,20.6
						c-20.483-7.284-41.675,9.198-50.657,17.518C1222.005,1740.71,1220.545,1744.495,1220.826,1748.363z"/>
					
						<linearGradient id="SVGID_00000095305594133281517160000003909678825032608937_" gradientUnits="userSpaceOnUse" x1="2005.1792" y1="4016.4841" x2="2172.4146" y2="3844.9053" gradientTransform="matrix(0.9401 -0.3408 0.3408 0.9401 -2185.5146 -1063.2611)">
						<stop  offset="0" style="stop-color:#FEBBBA"/>
						<stop  offset="1" style="stop-color:#FF928E"/>
					</linearGradient>
					<path style="fill:url(#SVGID_00000095305594133281517160000003909678825032608937_);" d="M1187.572,1846.89
						c0,0,7.655-54.923-13.704-63.555c-21.358-8.632-47.797,3.632-33.996,39.408
						C1157.039,1867.243,1187.572,1846.89,1187.572,1846.89z"/>
				</g>
				
					<linearGradient id="SVGID_00000000185344167119655730000010211174909192366214_" gradientUnits="userSpaceOnUse" x1="2748.5732" y1="3082.8342" x2="2615.3718" y2="3298.9719" gradientTransform="matrix(0.8097 0.587 -0.587 0.8097 1013.4737 -1477.9271)">
					<stop  offset="0" style="stop-color:#FEBBBA"/>
					<stop  offset="1" style="stop-color:#FF928E"/>
				</linearGradient>
				<path style="fill:url(#SVGID_00000000185344167119655730000010211174909192366214_);" d="M1456.398,2607.911
					c-15.648-23.008-43.284-18.919-69.506-18.758c-31.512,0.193-51.859-11.093-47.783,27.22c0.417,3.925,1.29,8.521,4.866,10.191
					c4.588,2.142,10.289,2.578,15.195,2.735c10.828,0.349,21.61,4.283,32.397,5.433c12.951,1.381,28.615-3.077,38.942,7.436
					c12.28,12.506,11.631,34.082,24.336,45.689c19.021,17.378,19.93-13.961,19.317-26.311
					C1473.217,2642.521,1467.125,2623.684,1456.398,2607.911z"/>
				
					<linearGradient id="SVGID_00000086663442507335865950000012047025599484237210_" gradientUnits="userSpaceOnUse" x1="1007.2037" y1="2081.2173" x2="1304.6818" y2="2662.6504">
					<stop  offset="0" style="stop-color:#FF928E"/>
					<stop  offset="1" style="stop-color:#FE7062"/>
				</linearGradient>
				<path style="fill:url(#SVGID_00000086663442507335865950000012047025599484237210_);" d="M1355.169,2588.597
					c-255.222-57.467-181.696-452.442-182.821-455.332c-50.428-129.482-173.665,9.09-163.673,54.751
					c-19.677,345.591,228.537,471.605,335.299,438.548C1338.92,2606.338,1350.484,2599.726,1355.169,2588.597z"/>
			</g>
			<g>
				
					<linearGradient id="SVGID_00000154387831520593196470000014393249678305277585_" gradientUnits="userSpaceOnUse" x1="882.297" y1="3033.5142" x2="702.0074" y2="3678.0488">
					<stop  offset="0" style="stop-color:#4F52FF"/>
					<stop  offset="1" style="stop-color:#4042E2"/>
				</linearGradient>
				<path style="fill:url(#SVGID_00000154387831520593196470000014393249678305277585_);" d="M589.124,2433.873
					c0.342-2.325,76.384,146.195,246.995,121.445c170.613-24.75,308.812,18.013,378.635,157.65
					c69.824,139.635,82.213,270.509,136.685,291.097c0,0-510.817,11.564-603.068,1.8
					C656.121,2996.101,518.404,2914.401,589.124,2433.873z"/>
				
					<linearGradient id="SVGID_00000007392306238122308660000009292837474482235821_" gradientUnits="userSpaceOnUse" x1="846.6798" y1="2669.7041" x2="1183.3027" y2="2669.7041">
					<stop  offset="0" style="stop-color:#DAE3FE"/>
					<stop  offset="1" style="stop-color:#E9EFFD"/>
				</linearGradient>
				<path style="fill:url(#SVGID_00000007392306238122308660000009292837474482235821_);" d="M1181.728,2746.311
					c-0.594,0-1.163-0.337-1.43-0.91c-23.391-50.164-76.473-115.124-196.514-139.718c-71.976-14.747-134.725-7.823-135.347-7.752
					c-0.887,0.102-1.647-0.522-1.746-1.386c-0.1-0.865,0.52-1.647,1.386-1.746c0.631-0.071,63.81-7.05,136.255,7.778
					c66.998,13.712,155.878,49.39,198.824,141.49c0.368,0.79,0.026,1.728-0.762,2.095
					C1182.177,2746.263,1181.951,2746.311,1181.728,2746.311z"/>
			</g>
		</g>
		<g>
			<g>
				<g>
					<rect x="2762.812" y="2807.918" style="fill:#91B3FA;" width="40.559" height="438.625"/>
					<path style="fill:#91B3FA;" d="M2960.713,3255h-355.241v-16.75c0-5.331,4.321-9.652,9.652-9.652h335.186
						c5.746,0,10.403,4.658,10.403,10.403V3255z"/>
				</g>
				
					<linearGradient id="SVGID_00000146495147836894427970000017285363695734260912_" gradientUnits="userSpaceOnUse" x1="-457.9292" y1="-3742.0325" x2="-543.5009" y2="-3456.7927" gradientTransform="matrix(1 0 0 1 5218.7017 0)">
					<stop  offset="0" style="stop-color:#E1473D"/>
					<stop  offset="1" style="stop-color:#E9605A"/>
				</linearGradient>
				<path style="fill:url(#SVGID_00000146495147836894427970000017285363695734260912_);" d="M3100.477,2743.021
					c0,0-143.505-10.003-150.98-10.003H2567.53c-25.495,0-46.355,20.859-46.355,46.355v41.914c0,25.495,20.86,46.355,46.355,46.355
					h381.967c3.611,0,7.111-0.46,10.486-1.25C3004.715,2858.992,3055.745,2809.249,3100.477,2743.021z"/>
				
					<linearGradient id="SVGID_00000017509749046541889990000001524297254301895094_" gradientUnits="userSpaceOnUse" x1="-3010.9128" y1="1755.501" x2="-2222.2366" y2="2297.4133" gradientTransform="matrix(1 0 0 1 5218.7017 0)">
					<stop  offset="0" style="stop-color:#E1473D"/>
					<stop  offset="1" style="stop-color:#E9605A"/>
				</linearGradient>
				<path style="fill:url(#SVGID_00000017509749046541889990000001524297254301895094_);" d="M3100.477,2743.021
					c503.135-1218.485-451.018-1213.667-331.5-48.819l304.102,63.365C3084.519,2759.95,3096.018,2753.821,3100.477,2743.021z"/>
				
					<linearGradient id="SVGID_00000001621715323806566220000007882916306752561040_" gradientUnits="userSpaceOnUse" x1="-565.6682" y1="-3375.4124" x2="-646.5363" y2="-3105.8513" gradientTransform="matrix(1 0 0 1 5218.7017 0)">
					<stop  offset="0" style="stop-color:#FF928E"/>
					<stop  offset="1" style="stop-color:#FE7062"/>
				</linearGradient>
				<path style="fill:url(#SVGID_00000001621715323806566220000007882916306752561040_);" d="M3052.778,2754.418
					c520.612-1260.749-467.68-1231.634-347.556-38.535L3052.778,2754.418z"/>
			</g>
			<g>
				<g>
					<g>
						
							<linearGradient id="SVGID_00000008130859319068241370000001013284853899432890_" gradientUnits="userSpaceOnUse" x1="-2140.9177" y1="1214.2102" x2="-1926.8403" y2="1701.2845" gradientTransform="matrix(0.969 -0.2475 0.2475 0.969 3955.6912 203.0027)">
							<stop  offset="0" style="stop-color:#FEBBBA"/>
							<stop  offset="1" style="stop-color:#FF928E"/>
						</linearGradient>
						<path style="fill:url(#SVGID_00000008130859319068241370000001013284853899432890_);" d="M2088.888,1811.852
							c-0.344,5.512,21.653,8.454,27.749-15.223c-2.286-10.088-7.319-54.455-15.915-61.043
							c-45.78-35.089-126.524-73.423-126.524-73.423c-8.396,12.981,3.53,20.85,3.53,20.85l40.461,23.387
							c-3.655,12.924-9.261,24.441-9.406,39.038c-0.11,11.055,4.651,21.686,12.799,29.751c8.178,8.093,19.172,18.525,29.025,26.387
							C2069.261,1816.456,2088.888,1811.852,2088.888,1811.852z"/>
						
							<linearGradient id="SVGID_00000166647552659478737410000003089336092729350544_" gradientUnits="userSpaceOnUse" x1="1007.8348" y1="1367.9989" x2="1065.1259" y2="1367.9989" gradientTransform="matrix(-0.9993 0.0379 0.0379 0.9993 3045.0254 350.9833)">
							<stop  offset="0" style="stop-color:#F9B776"/>
							<stop  offset="1" style="stop-color:#F47960"/>
						</linearGradient>
						<path style="fill:url(#SVGID_00000166647552659478737410000003089336092729350544_);" d="M2068.193,1794.005
							c-0.208-0.431-21.032-43.305-29.856-51.291c-4.714-4.267-6.966-8.184-6.876-11.977c0.073-3.153,1.75-6.04,5.13-8.827
							l0.812-0.67l36.805,16.643l15.641,21.129l-2.72,2.01l-15.113-20.423l-34.058-15.4c-2.053,1.887-3.073,3.73-3.116,5.615
							c-0.063,2.715,1.875,5.874,5.764,9.393c9.309,8.423,29.764,50.535,30.632,52.324L2068.193,1794.005z"/>
					</g>
					
						<linearGradient id="SVGID_00000129175153766872269520000014816569537624685955_" gradientUnits="userSpaceOnUse" x1="2952.2542" y1="818.6238" x2="2729.146" y2="1278.3622">
						<stop  offset="0" style="stop-color:#4F52FF"/>
						<stop  offset="1" style="stop-color:#4042E2"/>
					</linearGradient>
					<path style="fill:url(#SVGID_00000129175153766872269520000014816569537624685955_);" d="M2248.36,1943.987
						c-13.531,19.177-29.881,36.381-48.598,51.177c97.196,120.691,250.885,219.197,250.885,219.197
						c29.89-13.751,41.959-150.091,41.959-150.091C2407.203,2045.182,2313.492,2004.219,2248.36,1943.987z"/>
					
						<linearGradient id="SVGID_00000069389393717226119080000000044497910936194472_" gradientUnits="userSpaceOnUse" x1="2290.1399" y1="2181.9614" x2="2383.9001" y2="2395.2871" gradientTransform="matrix(0.9832 0.1827 -0.1827 0.9832 307.127 -724.3642)">
						<stop  offset="0" style="stop-color:#FEBBBA"/>
						<stop  offset="1" style="stop-color:#FF928E"/>
					</linearGradient>
					<path style="fill:url(#SVGID_00000069389393717226119080000000044497910936194472_);" d="M2098.902,1772.84l-9.017,38.396
						c22.464,63.365,63.931,126.877,109.877,183.928c18.716-14.796,35.066-32,48.598-51.177
						C2158.624,1861.001,2098.902,1772.84,2098.902,1772.84z"/>
				</g>
				<g>
					
						<linearGradient id="SVGID_00000168800605443661620160000005550310875196811146_" gradientUnits="userSpaceOnUse" x1="2795.1287" y1="2733.501" x2="2396.2378" y2="2956.6089">
						<stop  offset="0" style="stop-color:#FEBBBA"/>
						<stop  offset="1" style="stop-color:#FF928E"/>
					</linearGradient>
					<path style="fill:url(#SVGID_00000168800605443661620160000005550310875196811146_);" d="M2463.108,2622.349
						c0,0-49.06,7.605-104.217,44.478c-8.68,5.802-13.443,15.919-12.134,26.278c6.605,52.317,33.761,221.65,123.309,387.038
						c4.722,8.721,6.079,18.873,3.995,28.569l-15.558,72.4l-28.851,27.052h74.314l49.48-133.901l-21.158-6.69
						c-16.404-5.188-27.66-20.276-27.958-37.479l-2.482-143.639c2.118-63.994-39.24-108.148-39.24-108.148l118.682-5.774
						L2463.108,2622.349z"/>
					<path style="fill:#7D97F4;" d="M2400.634,3221.226c-6.768,8.858,72.842,20.546,113.062,1.172c0,0,55.754-97.005,55.754-146.95
						c0,0-4.425-10.183-37.163-7.874c0,0-18.72,114.859-38.488,127.725c-19.767,12.866-55.305,1.302-55.305,1.302
						S2410.62,3208.157,2400.634,3221.226z"/>
					
						<linearGradient id="SVGID_00000179637104686311572290000002872978737608869006_" gradientUnits="userSpaceOnUse" x1="-2518.9573" y1="2931.2922" x2="-2023.592" y2="2931.2922" gradientTransform="matrix(1 0 0 1 4833.2573 0)">
						<stop  offset="0" style="stop-color:#FEBBBA"/>
						<stop  offset="1" style="stop-color:#FF928E"/>
					</linearGradient>
					<path style="fill:url(#SVGID_00000179637104686311572290000002872978737608869006_);" d="M2566.274,2780.412
						c-0.632-1.093-127.779-15.288-127.779-15.288s4.161,38.659-8.844,91.877c-13.004,53.218-199.685,283.789-199.685,283.789
						l19.574,62.051c-60.521,21.083-120.053,24.452-178.632,10.746l121.307-72.796c0,0,113.529-386.888,183.069-455.908
						l127.45-44.094L2566.274,2780.412z"/>
					<path style="fill:#7D97F4;" d="M2242.144,3181.943c0,0,21.073,20.411,6.838,43.121c0,0-166.938,29.59-212.263,16.165
						c0,0,9.412-21.481,60.449-45.931l-3.765,2.891c-4.766,3.659-1.971,11.28,4.027,10.938
						C2131.061,3207.208,2200.661,3201.047,2242.144,3181.943z"/>
				</g>
				<g>
					
						<linearGradient id="SVGID_00000178206544169628751190000014692236115375758214_" gradientUnits="userSpaceOnUse" x1="1678.6511" y1="-2533.0884" x2="2674.8535" y2="-1354.4421" gradientTransform="matrix(-1 0 0 1 8326.4541 0)">
						<stop  offset="0" style="stop-color:#09005D"/>
						<stop  offset="1" style="stop-color:#1A0F91"/>
					</linearGradient>
					<path style="fill:url(#SVGID_00000178206544169628751190000014692236115375758214_);" d="M2450.372,1939.452
						c0,10.159,91.437,386.067,91.437,386.067l260.512,76.621c50.237,14.776,104.177-5.614,132.077-49.927h0.001
						c69.326-110.107,36.208-255.568-73.949-324.81l-36.895-23.19c-78.657-49.442-146.561-114.204-199.67-190.431l-13.896-19.943
						L2450.372,1939.452z"/>
					<path style="fill:#FFFFFF;" d="M2894.104,2302.438c-0.287,0-0.565-0.145-0.723-0.409c-0.241-0.401-0.112-0.919,0.287-1.16
						c30.906-18.573,33.87-60.711,33.712-77.966c-0.317-34.192-9.405-67.988-26.284-97.73
						c-30.328-53.455-82.804-89.799-133.547-124.947c-3.519-2.436-7.028-4.868-10.521-7.299
						c-51.832-36.054-109.078-79.83-132.375-143.219c-0.162-0.439,0.063-0.924,0.502-1.086c0.439-0.158,0.921,0.064,1.083,0.502
						c23.128,62.929,80.136,106.508,131.754,142.417c3.493,2.43,7.002,4.859,10.518,7.296
						c50.901,35.257,103.536,71.712,134.058,125.502c17.018,29.993,26.182,64.071,26.502,98.549
						c0.162,17.546-2.879,60.409-34.531,79.432C2894.404,2302.398,2894.252,2302.438,2894.104,2302.438z"/>
					<path style="fill:#FFFFFF;" d="M2872.973,2246.521c-0.053,0-0.109-0.005-0.162-0.017c-0.459-0.089-0.756-0.533-0.667-0.992
						c6.86-34.894,5.836-66.054-3.047-92.615c-16.07-48.055-58.729-83.027-94.094-108.124c-7.114-5.049-14.459-10.103-21.56-14.991
						c-32.778-22.554-66.668-45.878-91.265-77.662c-0.287-0.368-0.218-0.9,0.149-1.185c0.366-0.286,0.898-0.221,1.185,0.152
						c24.439,31.574,58.22,54.823,90.889,77.304c7.107,4.891,14.456,9.948,21.58,15.002c35.577,25.248,78.496,60.448,94.721,108.969
						c8.976,26.842,10.019,58.291,3.1,93.477C2873.722,2246.241,2873.369,2246.521,2872.973,2246.521z"/>
					
						<linearGradient id="SVGID_00000088848161007058309570000006049367017144546210_" gradientUnits="userSpaceOnUse" x1="3281.3621" y1="2134.0452" x2="3835.7527" y2="1971.7839">
						<stop  offset="0" style="stop-color:#4F52FF"/>
						<stop  offset="1" style="stop-color:#4042E2"/>
					</linearGradient>
					<path style="fill:url(#SVGID_00000088848161007058309570000006049367017144546210_);" d="M2685.731,2565.508
						c0,0-186.435-205.446-228.427-259.247c-22.698-29.083-29.827-67.368-19.329-102.736
						c19.171-64.588,53.241-131.485,56.348-141.897c4.763-15.959,100.413-15.294,100.413-15.294s188.222,122.157,262.175,329.083
						l-83.055,25.856c0,0-49.145-82.449-97.702-134.87c0,0,168.711,257.615,180.757,298.767L2685.731,2565.508z"/>
					
						<linearGradient id="SVGID_00000051360904580939126670000000027783673296448395_" gradientUnits="userSpaceOnUse" x1="-2889.2563" y1="2184.3186" x2="-2922.6951" y2="1969.7555" gradientTransform="matrix(1 0 0 1 5447.5571 0)">
						<stop  offset="0" style="stop-color:#FEBBBA"/>
						<stop  offset="1" style="stop-color:#FF928E"/>
					</linearGradient>
					<path style="fill:url(#SVGID_00000051360904580939126670000000027783673296448395_);" d="M2468.617,1950.525
						c0.999,3.318,40.104,107.994,42.056,109.711c1.953,1.718,54.75,4.558,79.602-12.427l-61.645-120.578L2468.617,1950.525z"/>
					
						<linearGradient id="SVGID_00000086667272892568342250000013349882616414716302_" gradientUnits="userSpaceOnUse" x1="2930.76" y1="2361.6755" x2="2216.395" y2="2543.1636">
						<stop  offset="0" style="stop-color:#FEBBBA"/>
						<stop  offset="1" style="stop-color:#FF928E"/>
					</linearGradient>
					<path style="fill:url(#SVGID_00000086667272892568342250000013349882616414716302_);" d="M2410.813,2447.323l62.677-60.412
						l86.705,36.628c0,0,86.304,13.372,135.7,0c49.395-13.372,49.395-13.372,49.395-13.372l111.624-34.75l17.531,49.545
						c4.451,12.579-0.022,26.545-10.899,34.273c-9.656,6.862-20.977,14.404-28.191,17.56c-14.7,6.431-362.365-4.448-362.365-4.448
						L2410.813,2447.323z"/>
					
						<linearGradient id="SVGID_00000026870549040171443900000017783449817528021932_" gradientUnits="userSpaceOnUse" x1="-4564.0625" y1="1030.7924" x2="-4338.7139" y2="1183.859" gradientTransform="matrix(0.9984 -0.0567 0.0567 0.9984 6905.9307 548.8018)">
						<stop  offset="0" style="stop-color:#FEBBBA"/>
						<stop  offset="1" style="stop-color:#FF928E"/>
					</linearGradient>
					<path style="fill:url(#SVGID_00000026870549040171443900000017783449817528021932_);" d="M2478.766,1777.401
						c0,0-45.22,22.195-72.92,90.932c-27.701,68.737-2.421,98.313,27.37,100.879c29.791,2.566,73.945-0.59,118.233-46.492
						C2595.736,1876.818,2537.676,1750.791,2478.766,1777.401z"/>
					
						<linearGradient id="SVGID_00000041973761205789930890000002026281343133152441_" gradientUnits="userSpaceOnUse" x1="2797.7949" y1="-3146.699" x2="3793.9956" y2="-1968.0549" gradientTransform="matrix(-0.9984 0.0567 0.0567 0.9984 8783.9199 442.2276)">
						<stop  offset="0" style="stop-color:#09005D"/>
						<stop  offset="1" style="stop-color:#1A0F91"/>
					</linearGradient>
					<path style="fill:url(#SVGID_00000041973761205789930890000002026281343133152441_);" d="M2517.998,1888.762
						c0,0,29.392-99.934-57.514-96.161l-19.624,15.442c0,0-34.946-52.496,15.878-81.389
						c50.826-28.893,130.171-10.243,156.427,58.951c26.255,69.193,15.813,115.43-19.299,151.242
						c-35.111,35.813-52.541-1.544-52.541-1.544s18.373-32.674,9.208-49.076c-9.168-16.402-26.943,5.031-26.943,5.031
						L2517.998,1888.762z"/>
					
						<linearGradient id="SVGID_00000144327832580488686820000009131876786887181952_" gradientUnits="userSpaceOnUse" x1="-4230.8359" y1="3637.676" x2="-3982.2185" y2="3806.5483" gradientTransform="matrix(0.914 0.4056 -0.4056 0.914 7796.1987 150.2314)">
						<stop  offset="0" style="stop-color:#FEBBBA"/>
						<stop  offset="1" style="stop-color:#FF928E"/>
					</linearGradient>
					<path style="fill:url(#SVGID_00000144327832580488686820000009131876786887181952_);" d="M2518.306,1895.121
						c0,0,40.464-43.039,55.269-12.177c14.805,30.862-40.242,38.484-60.988,39.659L2518.306,1895.121z"/>
				</g>
				
					<linearGradient id="SVGID_00000163769928297827133220000010768865296734400669_" gradientUnits="userSpaceOnUse" x1="2376.5667" y1="2642.1047" x2="2931.5176" y2="2642.1047">
					<stop  offset="0" style="stop-color:#09005D"/>
					<stop  offset="1" style="stop-color:#1A0F91"/>
				</linearGradient>
				<path style="fill:url(#SVGID_00000163769928297827133220000010768865296734400669_);" d="M2930.688,2713.955
					c-3.168-26.189-25.006-68.828-44.959-103.313l-66.48-116.892c-64.178,19.164-135.557,33.767-166.191,32.456
					c-2.62-0.112-3.984,3.062-2.119,4.905l34.792,34.398l4.602-0.336c-69.107,4.989-137.589,11.234-152.956,17.197
					c-33.183,12.876-160.811,58.418-160.811,58.418l175.131,149.672c0,0,205.196,0.054,282.06-3.277
					C2910.622,2783.853,2936.699,2763.657,2930.688,2713.955z"/>
			</g>
			<g>
				
					<linearGradient id="SVGID_00000101070350306660430680000007454215225552890000_" gradientUnits="userSpaceOnUse" x1="1731.1948" y1="2157.9763" x2="2076.2942" y2="1704.095">
					<stop  offset="0" style="stop-color:#E1473D"/>
					<stop  offset="1" style="stop-color:#E9605A"/>
				</linearGradient>
				<path style="fill:url(#SVGID_00000101070350306660430680000007454215225552890000_);" d="M1925.771,2034.407
					c10.887-0.216,55.027-313.342,62.242-365.053c0.574-4.115,4.381-7.191,8.891-7.191h5.862c2.773,0,4.882,2.292,4.425,4.808
					l-66.807,367.662c-0.482,2.651-3.54,4.182-6.221,3.115L1925.771,2034.407z"/>
				
					<linearGradient id="SVGID_00000121977510883693303120000001788568371520310948_" gradientUnits="userSpaceOnUse" x1="2333.3132" y1="2554.6016" x2="2271.0313" y2="2724.4614" gradientTransform="matrix(0.9616 0.2745 -0.2745 0.9616 442.4047 -1122.6804)">
					<stop  offset="0" style="stop-color:#FF928E"/>
					<stop  offset="1" style="stop-color:#FE7062"/>
				</linearGradient>
				<path style="fill:url(#SVGID_00000121977510883693303120000001788568371520310948_);" d="M1938.511,2024.31
					c-12.418-3.546-25.36,3.647-28.905,16.066c-3.545,12.418,3.647,25.36,16.066,28.905c12.418,3.546,25.36-3.647,28.905-16.066
					C1958.123,2040.796,1950.93,2027.855,1938.511,2024.31z M1927.718,2061.333c-8.233-2.351-13.001-10.93-10.651-19.163
					c2.351-8.233,10.93-13.002,19.163-10.651c8.233,2.351,13.002,10.93,10.651,19.163S1935.951,2063.683,1927.718,2061.333z"/>
				
					<linearGradient id="SVGID_00000085219867296645234000000001939191712491999912_" gradientUnits="userSpaceOnUse" x1="2337.865" y1="2581.0149" x2="2269.5171" y2="2767.4182" gradientTransform="matrix(0.9616 0.2745 -0.2745 0.9616 442.4047 -1122.6804)">
					<stop  offset="0" style="stop-color:#FF928E"/>
					<stop  offset="1" style="stop-color:#FE7062"/>
				</linearGradient>
				<path style="fill:url(#SVGID_00000085219867296645234000000001939191712491999912_);" d="M1927.333,2105.717l-20.124-5.745
					l12.054-42.22c0.313-1.095,1.197-1.946,2.312-2.179c5.582-1.168,11.152,0.065,16.711,3.531c0.917,0.572,1.351,1.678,1.065,2.72
					L1927.333,2105.717z"/>
				
					<linearGradient id="SVGID_00000129912406245942635630000016710299641580183229_" gradientUnits="userSpaceOnUse" x1="2178.0103" y1="2806.6172" x2="2430.8855" y2="2806.6172" gradientTransform="matrix(0.9616 0.2745 -0.2745 0.9616 442.4047 -1122.6804)">
					<stop  offset="0" style="stop-color:#FF928E"/>
					<stop  offset="1" style="stop-color:#FE7062"/>
				</linearGradient>
				
					<circle style="fill:url(#SVGID_00000129912406245942635630000016710299641580183229_);" cx="1887.945" cy="2208.734" r="126.439"/>
				<circle style="fill:#91B3FA;" cx="1887.618" cy="2209.879" r="96.355"/>
				
					<ellipse transform="matrix(0.7071 -0.7071 0.7071 0.7071 -1009.5165 1984.032)" style="opacity:0.61;fill:#FFFFFF;" cx="1890.18" cy="2210.61" rx="88.695" ry="88.695"/>
				
					<linearGradient id="SVGID_00000058585462562836440420000006518902054355477383_" gradientUnits="userSpaceOnUse" x1="2232.0393" y1="2578.7639" x2="2251.8035" y2="2745.0161" gradientTransform="matrix(0.9616 0.2745 -0.2745 0.9616 442.4047 -1122.6804)">
					<stop  offset="0" style="stop-color:#FEBBBA"/>
					<stop  offset="1" style="stop-color:#FF928E"/>
				</linearGradient>
				<polygon style="fill:url(#SVGID_00000058585462562836440420000006518902054355477383_);" points="1887.618,2209.879 
					1831.082,2171.689 1808.804,2134.954 1847.304,2157.28 				"/>
				
					<linearGradient id="SVGID_00000031179978470957783470000007391122085098556862_" gradientUnits="userSpaceOnUse" x1="2289.6379" y1="2571.9341" x2="2309.4009" y2="2738.1738" gradientTransform="matrix(0.9616 0.2745 -0.2745 0.9616 442.4047 -1122.6804)">
					<stop  offset="0" style="stop-color:#FEBBBA"/>
					<stop  offset="1" style="stop-color:#FF928E"/>
				</linearGradient>
				<polygon style="fill:url(#SVGID_00000031179978470957783470000007391122085098556862_);" points="1890.608,2206.818 
					1903.97,2149.431 1924.522,2128.177 1920.498,2155.51 				"/>
				
					<linearGradient id="SVGID_00000156555650480716701920000002721372130710237588_" gradientUnits="userSpaceOnUse" x1="2285.2498" y1="2845.8977" x2="2307.8884" y2="2845.8977" gradientTransform="matrix(0.9616 0.2745 -0.2745 0.9616 442.4047 -1122.6804)">
					<stop  offset="0" style="stop-color:#FF928E"/>
					<stop  offset="1" style="stop-color:#FE7062"/>
				</linearGradient>
				<path style="fill:url(#SVGID_00000156555650480716701920000002721372130710237588_);" d="M1849.272,2280.801
					c-0.242,0-0.484-0.061-0.706-0.189c-0.67-0.39-0.901-1.25-0.511-1.922l40.628-70.102c0.39-0.676,1.253-0.903,1.923-0.512
					c0.67,0.39,0.901,1.25,0.511,1.922l-40.628,70.102C1850.229,2280.55,1849.756,2280.801,1849.272,2280.801z"/>
				
					<linearGradient id="SVGID_00000150809142963554765910000001237746443610278078_" gradientUnits="userSpaceOnUse" x1="2315.7222" y1="2783.3315" x2="2297.0779" y2="2834.1794" gradientTransform="matrix(0.9616 0.2745 -0.2745 0.9616 442.4047 -1122.6804)">
					<stop  offset="0" style="stop-color:#E1473D"/>
					<stop  offset="1" style="stop-color:#E9605A"/>
				</linearGradient>
				<path style="fill:url(#SVGID_00000150809142963554765910000001237746443610278078_);" d="M1896.107,2213.054
					c-1.061,3.718-4.935,5.871-8.653,4.809c-3.717-1.061-5.871-4.935-4.809-8.653c1.061-3.718,4.935-5.871,8.653-4.809
					C1895.015,2205.463,1897.169,2209.337,1896.107,2213.054z"/>
			</g>
		</g>
	</g>
</g>
</svg>
